%TF.GenerationSoftware,KiCad,Pcbnew,(5.1.2)-1*%
%TF.CreationDate,2019-06-19T00:35:12+02:00*%
%TF.ProjectId,Wheel_ECU,57686565-6c5f-4454-9355-2e6b69636164,1.0*%
%TF.SameCoordinates,Original*%
%TF.FileFunction,Copper,L1,Top*%
%TF.FilePolarity,Positive*%
%FSLAX46Y46*%
G04 Gerber Fmt 4.6, Leading zero omitted, Abs format (unit mm)*
G04 Created by KiCad (PCBNEW (5.1.2)-1) date 2019-06-19 00:35:12*
%MOMM*%
%LPD*%
G04 APERTURE LIST*
%ADD10R,2.700000X1.500000*%
%ADD11R,3.650000X1.000000*%
%ADD12C,0.600000*%
%ADD13R,1.250000X1.500000*%
%ADD14C,1.250000*%
%ADD15C,0.100000*%
%ADD16C,1.700000*%
%ADD17C,1.700000*%
%ADD18R,3.150000X1.000000*%
%ADD19R,0.600000X1.550000*%
%ADD20R,1.500000X1.250000*%
%ADD21R,1.350000X0.650000*%
%ADD22R,4.400000X5.100000*%
%ADD23R,1.800000X2.000000*%
%ADD24C,0.250000*%
%ADD25C,0.500000*%
%ADD26C,1.000000*%
%ADD27C,0.750000*%
%ADD28C,0.350000*%
%ADD29C,0.200000*%
G04 APERTURE END LIST*
D10*
X148000000Y-83300000D03*
X148000000Y-78500000D03*
D11*
X113425000Y-102110000D03*
X107375000Y-102110000D03*
X113425000Y-99570000D03*
X107375000Y-99570000D03*
X113425000Y-97030000D03*
X107375000Y-97030000D03*
X113425000Y-94490000D03*
X107375000Y-94490000D03*
D12*
X155920610Y-115534941D03*
X152114278Y-119911395D03*
X147527280Y-123461179D03*
X142335891Y-126047875D03*
X136739614Y-127572079D03*
X130953510Y-127975217D03*
X125199937Y-127241795D03*
X119700000Y-125400000D03*
X114665059Y-122520610D03*
X110288605Y-118714278D03*
X106738821Y-114127280D03*
X104152125Y-108935891D03*
X102627921Y-103339614D03*
X102224783Y-97553510D03*
X102958205Y-91799937D03*
X104800000Y-86300000D03*
X107679390Y-81265059D03*
X111485722Y-76888605D03*
X116072720Y-73338821D03*
X121264109Y-70752125D03*
X126860386Y-69227921D03*
X132646490Y-68824783D03*
X138400063Y-69558205D03*
X143900000Y-71400000D03*
X148934941Y-74279390D03*
X153311395Y-78085722D03*
X156861179Y-82672720D03*
X159447875Y-87864109D03*
X160972079Y-93460386D03*
X161375217Y-99246490D03*
X160641795Y-105000063D03*
D13*
X141200000Y-74850000D03*
X141200000Y-77350000D03*
X141850000Y-116750000D03*
X141850000Y-119250000D03*
D14*
X149783883Y-109683883D03*
D15*
G36*
X150756155Y-109772271D02*
G01*
X149872271Y-110656155D01*
X148811611Y-109595495D01*
X149695495Y-108711611D01*
X150756155Y-109772271D01*
X150756155Y-109772271D01*
G37*
D14*
X148016117Y-107916117D03*
D15*
G36*
X148988389Y-108004505D02*
G01*
X148104505Y-108888389D01*
X147043845Y-107827729D01*
X147927729Y-106943845D01*
X148988389Y-108004505D01*
X148988389Y-108004505D01*
G37*
D16*
X149003949Y-95296051D03*
D15*
G36*
X150206031Y-95296051D02*
G01*
X149003949Y-96498133D01*
X147801867Y-95296051D01*
X149003949Y-94093969D01*
X150206031Y-95296051D01*
X150206031Y-95296051D01*
G37*
D16*
X150800000Y-93500000D03*
D17*
X150800000Y-93500000D02*
X150800000Y-93500000D01*
D16*
X152596051Y-91703949D03*
D17*
X152596051Y-91703949D02*
X152596051Y-91703949D01*
D16*
X154392103Y-89907897D03*
D17*
X154392103Y-89907897D02*
X154392103Y-89907897D01*
D16*
X149003949Y-102403949D03*
D15*
G36*
X149003949Y-103606031D02*
G01*
X147801867Y-102403949D01*
X149003949Y-101201867D01*
X150206031Y-102403949D01*
X149003949Y-103606031D01*
X149003949Y-103606031D01*
G37*
D16*
X150800000Y-104200000D03*
D17*
X150800000Y-104200000D02*
X150800000Y-104200000D01*
D16*
X152596051Y-105996051D03*
D17*
X152596051Y-105996051D02*
X152596051Y-105996051D01*
D16*
X154392103Y-107792103D03*
D17*
X154392103Y-107792103D02*
X154392103Y-107792103D01*
D18*
X134000000Y-82650000D03*
X128950000Y-82650000D03*
D19*
X149605000Y-113000000D03*
X148335000Y-113000000D03*
X147065000Y-113000000D03*
X145795000Y-113000000D03*
X145795000Y-118400000D03*
X147065000Y-118400000D03*
X148335000Y-118400000D03*
X149605000Y-118400000D03*
D20*
X133400000Y-123500000D03*
X135900000Y-123500000D03*
D14*
X125916117Y-115583883D03*
D15*
G36*
X125827729Y-116556155D02*
G01*
X124943845Y-115672271D01*
X126004505Y-114611611D01*
X126888389Y-115495495D01*
X125827729Y-116556155D01*
X125827729Y-116556155D01*
G37*
D14*
X127683883Y-113816117D03*
D15*
G36*
X127595495Y-114788389D02*
G01*
X126711611Y-113904505D01*
X127772271Y-112843845D01*
X128656155Y-113727729D01*
X127595495Y-114788389D01*
X127595495Y-114788389D01*
G37*
D14*
X131816117Y-111616117D03*
D15*
G36*
X130843845Y-111527729D02*
G01*
X131727729Y-110643845D01*
X132788389Y-111704505D01*
X131904505Y-112588389D01*
X130843845Y-111527729D01*
X130843845Y-111527729D01*
G37*
D14*
X133583883Y-113383883D03*
D15*
G36*
X132611611Y-113295495D02*
G01*
X133495495Y-112411611D01*
X134556155Y-113472271D01*
X133672271Y-114356155D01*
X132611611Y-113295495D01*
X132611611Y-113295495D01*
G37*
D12*
X158800000Y-110500000D03*
D21*
X126725000Y-75200000D03*
X126725000Y-76200000D03*
X126725000Y-77200000D03*
X126725000Y-78200000D03*
X126725000Y-74200000D03*
X126725000Y-73200000D03*
X136675000Y-73200000D03*
X136675000Y-74200000D03*
X136675000Y-75200000D03*
X136675000Y-76200000D03*
X136675000Y-77200000D03*
X136675000Y-78200000D03*
D22*
X131700000Y-75700000D03*
D23*
X131700000Y-72150000D03*
X131700000Y-79250000D03*
D12*
X148000000Y-111400000D03*
X148000000Y-105900000D03*
X128300000Y-116100000D03*
X131700000Y-122800000D03*
X132300000Y-109400000D03*
X140300000Y-117400000D03*
X110300000Y-95800000D03*
X110300000Y-99400000D03*
X143600000Y-75800000D03*
X145200000Y-79700000D03*
X138300000Y-71900000D03*
X123100000Y-115500000D03*
X154000000Y-111100000D03*
X151200000Y-111100000D03*
X119100000Y-122000000D03*
X143500000Y-120000000D03*
X124400000Y-114100000D03*
X134300000Y-114900000D03*
X116100000Y-95800012D03*
X116124979Y-100800000D03*
X138500000Y-79100000D03*
X120500000Y-94700000D03*
X128100000Y-125400000D03*
X139800000Y-121200000D03*
X125550000Y-123500000D03*
X126400000Y-123900000D03*
X134600000Y-117300006D03*
X107600000Y-106400000D03*
X135500000Y-117600004D03*
X113099998Y-104800000D03*
X133700000Y-120200000D03*
X110600000Y-101100000D03*
X136400000Y-111100000D03*
X137600000Y-111300006D03*
X138700000Y-122100000D03*
X129300000Y-119300000D03*
X129800000Y-118300000D03*
X129384860Y-117564673D03*
X126200000Y-80600000D03*
X137300000Y-81800000D03*
X135700000Y-115900000D03*
X120900000Y-81800000D03*
X124999992Y-75200000D03*
X121158051Y-75858050D03*
X122500000Y-75300000D03*
X138900000Y-75300028D03*
D24*
X127983883Y-115783883D02*
X126216117Y-115783883D01*
D25*
X148335000Y-113000000D02*
X148335000Y-111735000D01*
X148335000Y-111735000D02*
X148000000Y-111400000D01*
X148016117Y-107916117D02*
X148016117Y-105916117D01*
X148016117Y-105916117D02*
X148000000Y-105900000D01*
D24*
X127983883Y-115783883D02*
X128300000Y-116100000D01*
X133400000Y-123500000D02*
X132400000Y-123500000D01*
X132400000Y-123500000D02*
X131700000Y-122800000D01*
X131816117Y-111616117D02*
X131816117Y-109883883D01*
X131816117Y-109883883D02*
X132300000Y-109400000D01*
D26*
X141850000Y-116750000D02*
X140950000Y-116750000D01*
X140950000Y-116750000D02*
X140300000Y-117400000D01*
D24*
X113625000Y-97030000D02*
X112395000Y-95800000D01*
X110724264Y-95800000D02*
X110300000Y-95800000D01*
X112395000Y-95800000D02*
X110724264Y-95800000D01*
X108575000Y-99570000D02*
X108745000Y-99400000D01*
X108745000Y-99400000D02*
X109875736Y-99400000D01*
X109875736Y-99400000D02*
X110300000Y-99400000D01*
D27*
X131700000Y-72150000D02*
X131700000Y-75700000D01*
X131700000Y-79250000D02*
X131700000Y-75700000D01*
X141200000Y-74850000D02*
X142650000Y-74850000D01*
X142650000Y-74850000D02*
X143600000Y-75800000D01*
X148000000Y-78500000D02*
X146400000Y-78500000D01*
X146400000Y-78500000D02*
X145200000Y-79700000D01*
D28*
X136675000Y-73200000D02*
X137025000Y-73200000D01*
X138300000Y-71925000D02*
X138300000Y-71900000D01*
X137025000Y-73200000D02*
X138300000Y-71925000D01*
D27*
X149783883Y-109683883D02*
X151200000Y-111100000D01*
D24*
X127400000Y-113400000D02*
X125100000Y-113400000D01*
X125100000Y-113400000D02*
X124400000Y-114100000D01*
X127471231Y-113471231D02*
X127400000Y-113400000D01*
X127983883Y-114016117D02*
X127471231Y-113503465D01*
X127471231Y-113503465D02*
X127471231Y-113471231D01*
X116100000Y-95800012D02*
X116100000Y-100775021D01*
X116100000Y-100775021D02*
X116124979Y-100800000D01*
X125150000Y-123900000D02*
X125550000Y-123500000D01*
X123200000Y-123900000D02*
X125150000Y-123900000D01*
X104700000Y-105400000D02*
X123200000Y-123900000D01*
X104700000Y-95600000D02*
X104700000Y-105400000D01*
X108575000Y-94490000D02*
X105810000Y-94490000D01*
X105810000Y-94490000D02*
X104700000Y-95600000D01*
X112050000Y-94490000D02*
X114125000Y-94490000D01*
X110960000Y-93400000D02*
X112050000Y-94490000D01*
X125900000Y-124400000D02*
X123000000Y-124400000D01*
X126400000Y-123900000D02*
X125900000Y-124400000D01*
X104200000Y-105600000D02*
X104200000Y-94600000D01*
X104200000Y-94600000D02*
X105400000Y-93400000D01*
X123000000Y-124400000D02*
X104200000Y-105600000D01*
X105400000Y-93400000D02*
X110960000Y-93400000D01*
X108575000Y-102110000D02*
X108575000Y-107875000D01*
X108575000Y-107875000D02*
X122000000Y-121300000D01*
X135199999Y-118324269D02*
X134600000Y-117724270D01*
X122000000Y-121300000D02*
X133800000Y-121300000D01*
X133800000Y-121300000D02*
X135199999Y-119900001D01*
X134600000Y-117724270D02*
X134600000Y-117300006D01*
X135199999Y-119900001D02*
X135199999Y-118324269D01*
X135500000Y-117600004D02*
X135799999Y-117900003D01*
X135799999Y-120100001D02*
X134100000Y-121800000D01*
X135799999Y-117900003D02*
X135799999Y-120100001D01*
X121775736Y-121800000D02*
X107600000Y-107624264D01*
X134100000Y-121800000D02*
X121775736Y-121800000D01*
X107600000Y-107624264D02*
X107600000Y-106824264D01*
X107600000Y-106824264D02*
X107600000Y-106400000D01*
X113099998Y-104375736D02*
X113099998Y-104800000D01*
X113099998Y-102635002D02*
X113099998Y-104375736D01*
X113625000Y-102110000D02*
X113099998Y-102635002D01*
X110600000Y-101524264D02*
X110600000Y-101100000D01*
X110600000Y-109000000D02*
X110600000Y-101524264D01*
X122099999Y-120499999D02*
X110600000Y-109000000D01*
X133700000Y-120200000D02*
X133400001Y-120499999D01*
X133400001Y-120499999D02*
X122099999Y-120499999D01*
X149605000Y-113000000D02*
X149605000Y-113795000D01*
X149605000Y-113795000D02*
X149100000Y-114300000D01*
X149100000Y-114300000D02*
X139600000Y-114300000D01*
X139600000Y-114300000D02*
X136699999Y-111399999D01*
X136699999Y-111399999D02*
X136400000Y-111100000D01*
X145795000Y-113000000D02*
X145795000Y-113005000D01*
X145795000Y-113005000D02*
X145200000Y-113600000D01*
X145200000Y-113600000D02*
X139899994Y-113600000D01*
X139899994Y-113600000D02*
X137899999Y-111600005D01*
X137899999Y-111600005D02*
X137600000Y-111300006D01*
X143400000Y-122000000D02*
X138800000Y-122000000D01*
X138800000Y-122000000D02*
X138700000Y-122100000D01*
X144900000Y-122000000D02*
X143400000Y-122000000D01*
X146500000Y-122000000D02*
X143400000Y-122000000D01*
X149605000Y-118400000D02*
X149605000Y-118895000D01*
X149605000Y-118895000D02*
X146500000Y-122000000D01*
X146500000Y-122000000D02*
X145100000Y-122000000D01*
X149003949Y-95296051D02*
X151700000Y-97992102D01*
X151400000Y-99300000D02*
X151466756Y-99307521D01*
X150707521Y-99066756D02*
X150729709Y-99130165D01*
X151700000Y-97992102D02*
X151700000Y-98400000D01*
X150933243Y-98707521D02*
X150869834Y-98729709D01*
X150869834Y-99270290D02*
X150933243Y-99292478D01*
X151700000Y-98400000D02*
X151692478Y-98466756D01*
X151000000Y-98700000D02*
X150933243Y-98707521D01*
X151692478Y-98466756D02*
X151670290Y-98530165D01*
X151400000Y-98700000D02*
X151000000Y-98700000D01*
X151670290Y-98530165D02*
X151634549Y-98587046D01*
X151634549Y-98587046D02*
X151587046Y-98634549D01*
X150869834Y-98729709D02*
X150812953Y-98765450D01*
X151466756Y-99307521D02*
X151530165Y-99329709D01*
X151634549Y-99412953D02*
X151670290Y-99469834D01*
X151587046Y-98634549D02*
X151530165Y-98670290D01*
X151530165Y-98670290D02*
X151466756Y-98692478D01*
X151466756Y-98692478D02*
X151400000Y-98700000D01*
X150812953Y-98765450D02*
X150765450Y-98812953D01*
X150765450Y-98812953D02*
X150729709Y-98869834D01*
X150729709Y-98869834D02*
X150707521Y-98933243D01*
X150707521Y-98933243D02*
X150700000Y-99000000D01*
X150700000Y-99000000D02*
X150707521Y-99066756D01*
X150933243Y-99292478D02*
X151000000Y-99300000D01*
X150729709Y-99130165D02*
X150765450Y-99187046D01*
X150765450Y-99187046D02*
X150812953Y-99234549D01*
X151700000Y-101200000D02*
X151167802Y-101732198D01*
X151670290Y-99469834D02*
X151692478Y-99533243D01*
X150812953Y-99234549D02*
X150869834Y-99270290D01*
X151167802Y-101732198D02*
X149675700Y-101732198D01*
X151000000Y-99300000D02*
X151400000Y-99300000D01*
X151530165Y-99329709D02*
X151587046Y-99365450D01*
X151587046Y-99365450D02*
X151634549Y-99412953D01*
X151692478Y-99533243D02*
X151700000Y-99600000D01*
X151700000Y-99600000D02*
X151700000Y-101200000D01*
X149675700Y-101732198D02*
X149003949Y-102403949D01*
X149003949Y-102403949D02*
X149003949Y-106440359D01*
X149003949Y-106440359D02*
X152375000Y-109811410D01*
X147990000Y-117000000D02*
X147065000Y-117925000D01*
X152375000Y-109811410D02*
X152375000Y-115025000D01*
X152375000Y-115025000D02*
X151500000Y-115900000D01*
X151500000Y-115900000D02*
X149700000Y-115900000D01*
X148600000Y-117000000D02*
X147990000Y-117000000D01*
X149700000Y-115900000D02*
X148600000Y-117000000D01*
X147065000Y-117925000D02*
X147065000Y-118400000D01*
X150800000Y-93500000D02*
X150800000Y-96449989D01*
X150800000Y-96449989D02*
X152150011Y-97800000D01*
X152150011Y-97800000D02*
X152150011Y-101386399D01*
X152150011Y-101386399D02*
X150800000Y-102736410D01*
X150800000Y-102736410D02*
X150800000Y-104200000D01*
X148335000Y-118400000D02*
X148335000Y-117925000D01*
X153402009Y-114129709D02*
X153338600Y-114107521D01*
X152825011Y-112600000D02*
X152825011Y-109625010D01*
X148335000Y-117925000D02*
X149909989Y-116350011D01*
X153571844Y-114400000D02*
X153564322Y-114333243D01*
X152937964Y-112834549D02*
X152890461Y-112787046D01*
X153506393Y-113387046D02*
X153542134Y-113330165D01*
X153271844Y-114700000D02*
X153338600Y-114692478D01*
X152890461Y-114812953D02*
X152937964Y-114765450D01*
X149909989Y-116350011D02*
X151686400Y-116350011D01*
X153125011Y-114100000D02*
X153058254Y-114092478D01*
X152825011Y-113800000D02*
X152832532Y-113733243D01*
X153564322Y-113133243D02*
X153542134Y-113069834D01*
X153338600Y-113492478D02*
X153402009Y-113470290D01*
X151686400Y-116350011D02*
X152825011Y-115211400D01*
X153458890Y-114165450D02*
X153402009Y-114129709D01*
X152994845Y-114729709D02*
X153058254Y-114707521D01*
X153338600Y-114692478D02*
X153402009Y-114670290D01*
X153506393Y-114212953D02*
X153458890Y-114165450D01*
X153271844Y-114100000D02*
X153125011Y-114100000D01*
X152825011Y-115211400D02*
X152825011Y-115000000D01*
X153564322Y-114466756D02*
X153571844Y-114400000D01*
X153125011Y-114700000D02*
X153271844Y-114700000D01*
X152890461Y-112787046D02*
X152854720Y-112730165D01*
X152825011Y-115000000D02*
X152832532Y-114933243D01*
X149453959Y-106253959D02*
X149453959Y-105546041D01*
X152937964Y-113565450D02*
X152994845Y-113529709D01*
X152832532Y-114933243D02*
X152854720Y-114869834D01*
X152854720Y-113669834D02*
X152890461Y-113612953D01*
X152890461Y-113612953D02*
X152937964Y-113565450D01*
X153458890Y-114634549D02*
X153506393Y-114587046D01*
X152854720Y-114869834D02*
X152890461Y-114812953D01*
X153506393Y-114587046D02*
X153542134Y-114530165D01*
X152994845Y-114070290D02*
X152937964Y-114034549D01*
X153564322Y-113266756D02*
X153571844Y-113200000D01*
X152937964Y-114765450D02*
X152994845Y-114729709D01*
X153058254Y-114707521D02*
X153125011Y-114700000D01*
X152832532Y-113866756D02*
X152825011Y-113800000D01*
X153338600Y-112907521D02*
X153271844Y-112900000D01*
X153402009Y-114670290D02*
X153458890Y-114634549D01*
X153542134Y-114530165D02*
X153564322Y-114466756D01*
X153271844Y-113500000D02*
X153338600Y-113492478D01*
X153542134Y-114269834D02*
X153506393Y-114212953D01*
X153564322Y-114333243D02*
X153542134Y-114269834D01*
X153542134Y-113069834D02*
X153506393Y-113012953D01*
X153338600Y-114107521D02*
X153271844Y-114100000D01*
X153458890Y-113434549D02*
X153506393Y-113387046D01*
X153058254Y-114092478D02*
X152994845Y-114070290D01*
X153402009Y-112929709D02*
X153338600Y-112907521D01*
X152937964Y-114034549D02*
X152890461Y-113987046D01*
X152890461Y-113987046D02*
X152854720Y-113930165D01*
X152854720Y-113930165D02*
X152832532Y-113866756D01*
X152832532Y-113733243D02*
X152854720Y-113669834D01*
X152832532Y-112666756D02*
X152825011Y-112600000D01*
X149453959Y-105546041D02*
X150800000Y-104200000D01*
X152994845Y-113529709D02*
X153058254Y-113507521D01*
X153058254Y-113507521D02*
X153125011Y-113500000D01*
X153125011Y-113500000D02*
X153271844Y-113500000D01*
X153402009Y-113470290D02*
X153458890Y-113434549D01*
X153542134Y-113330165D02*
X153564322Y-113266756D01*
X153571844Y-113200000D02*
X153564322Y-113133243D01*
X153506393Y-113012953D02*
X153458890Y-112965450D01*
X153458890Y-112965450D02*
X153402009Y-112929709D01*
X153271844Y-112900000D02*
X153125011Y-112900000D01*
X153125011Y-112900000D02*
X153058254Y-112892478D01*
X153058254Y-112892478D02*
X152994845Y-112870290D01*
X152994845Y-112870290D02*
X152937964Y-112834549D01*
X152854720Y-112730165D02*
X152832532Y-112666756D01*
X152825011Y-109625010D02*
X149453959Y-106253959D01*
D25*
X135500000Y-74200000D02*
X136675000Y-74200000D01*
X134900000Y-74800000D02*
X135500000Y-74200000D01*
X134900000Y-80750000D02*
X134900000Y-74800000D01*
X134000000Y-82650000D02*
X134000000Y-81650000D01*
X134000000Y-81650000D02*
X134900000Y-80750000D01*
X127900000Y-73200000D02*
X126725000Y-73200000D01*
X128300000Y-73600000D02*
X127900000Y-73200000D01*
X128950000Y-82650000D02*
X128300000Y-82000000D01*
X128300000Y-82000000D02*
X128300000Y-73600000D01*
D24*
X128875736Y-119300000D02*
X129300000Y-119300000D01*
X122027178Y-119300000D02*
X128875736Y-119300000D01*
X114599978Y-111872800D02*
X122027178Y-119300000D01*
X114599978Y-107427200D02*
X114599978Y-111872800D01*
X122300000Y-77200000D02*
X113749967Y-85750033D01*
X126725000Y-77200000D02*
X122300000Y-77200000D01*
X113749967Y-85750033D02*
X113749967Y-90449967D01*
X113749967Y-90449967D02*
X118000000Y-94700000D01*
X118000000Y-94700000D02*
X118000000Y-104027178D01*
X118000000Y-104027178D02*
X114599978Y-107427200D01*
X129375736Y-118300000D02*
X129800000Y-118300000D01*
X115049989Y-111686400D02*
X121663589Y-118300000D01*
X121663589Y-118300000D02*
X129375736Y-118300000D01*
X115049989Y-107613600D02*
X115049989Y-111686400D01*
X126725000Y-78200000D02*
X122100000Y-78200000D01*
X114199978Y-86100022D02*
X114199978Y-90263568D01*
X114199978Y-90263568D02*
X118450011Y-94513600D01*
X122100000Y-78200000D02*
X114199978Y-86100022D01*
X118450011Y-94513600D02*
X118450011Y-104213578D01*
X118450011Y-104213578D02*
X115049989Y-107613600D01*
X136675000Y-78200000D02*
X136675000Y-81175000D01*
X137000001Y-81500001D02*
X137300000Y-81800000D01*
X136675000Y-81175000D02*
X137000001Y-81500001D01*
X114649989Y-86413600D02*
X120463589Y-80600000D01*
X125775736Y-80600000D02*
X126200000Y-80600000D01*
X120463589Y-80600000D02*
X125775736Y-80600000D01*
X129384860Y-117564673D02*
X121564673Y-117564673D01*
X118900022Y-104399978D02*
X118900022Y-94327200D01*
X115500000Y-107800000D02*
X118900022Y-104399978D01*
X115500000Y-111500000D02*
X115500000Y-107800000D01*
X121564673Y-117564673D02*
X115500000Y-111500000D01*
X118900022Y-94327200D02*
X114649989Y-90077168D01*
X114649989Y-90077168D02*
X114649989Y-86413600D01*
X126725000Y-75200000D02*
X124999992Y-75200000D01*
X129425002Y-115900000D02*
X135700000Y-115900000D01*
X128243837Y-117081165D02*
X129425002Y-115900000D01*
X121881165Y-117081165D02*
X128243837Y-117081165D01*
X116000000Y-111200000D02*
X121881165Y-117081165D01*
X116000000Y-107936410D02*
X116000000Y-111200000D01*
X120000000Y-81800000D02*
X115100000Y-86700000D01*
X120900000Y-81800000D02*
X120000000Y-81800000D01*
X115100000Y-86700000D02*
X115100000Y-89890768D01*
X115100000Y-89890768D02*
X119350033Y-94140800D01*
X119350033Y-94140800D02*
X119350033Y-104586378D01*
X119350033Y-104586378D02*
X116000000Y-107936410D01*
X126725000Y-76200000D02*
X121500001Y-76200000D01*
X121500001Y-76200000D02*
X121458050Y-76158049D01*
X121458050Y-76158049D02*
X121158051Y-75858050D01*
X123600000Y-74200000D02*
X126725000Y-74200000D01*
X122500000Y-75300000D02*
X123600000Y-74200000D01*
X138000028Y-76200000D02*
X138900000Y-75300028D01*
X136675000Y-76200000D02*
X138000028Y-76200000D01*
D29*
G36*
X131848578Y-68529955D02*
G01*
X131829155Y-68576847D01*
X131796490Y-68741065D01*
X131796490Y-68908501D01*
X131829155Y-69072719D01*
X131893230Y-69227409D01*
X131986252Y-69366627D01*
X132104646Y-69485021D01*
X132243864Y-69578043D01*
X132398554Y-69642118D01*
X132562772Y-69674783D01*
X132730208Y-69674783D01*
X132894426Y-69642118D01*
X133049116Y-69578043D01*
X133188334Y-69485021D01*
X133306728Y-69366627D01*
X133399750Y-69227409D01*
X133463825Y-69072719D01*
X133496490Y-68908501D01*
X133496490Y-68741065D01*
X133464882Y-68582162D01*
X133831968Y-68594019D01*
X135957819Y-68815579D01*
X137671099Y-69119218D01*
X137646803Y-69155579D01*
X137582728Y-69310269D01*
X137550063Y-69474487D01*
X137550063Y-69641923D01*
X137582728Y-69806141D01*
X137646803Y-69960831D01*
X137739825Y-70100049D01*
X137858219Y-70218443D01*
X137997437Y-70311465D01*
X138152127Y-70375540D01*
X138316345Y-70408205D01*
X138483781Y-70408205D01*
X138647999Y-70375540D01*
X138802689Y-70311465D01*
X138941907Y-70218443D01*
X139060301Y-70100049D01*
X139153323Y-69960831D01*
X139217398Y-69806141D01*
X139250063Y-69641923D01*
X139250063Y-69487991D01*
X140134905Y-69711069D01*
X142164759Y-70380414D01*
X143265100Y-70832818D01*
X143239762Y-70858156D01*
X143146740Y-70997374D01*
X143082665Y-71152064D01*
X143050000Y-71316282D01*
X143050000Y-71483718D01*
X143082665Y-71647936D01*
X143146740Y-71802626D01*
X143239762Y-71941844D01*
X143358156Y-72060238D01*
X143497374Y-72153260D01*
X143652064Y-72217335D01*
X143816282Y-72250000D01*
X143983718Y-72250000D01*
X144147936Y-72217335D01*
X144302626Y-72153260D01*
X144441844Y-72060238D01*
X144560238Y-71941844D01*
X144653260Y-71802626D01*
X144717335Y-71647936D01*
X144747801Y-71494775D01*
X146055196Y-72145195D01*
X147895866Y-73231596D01*
X148425391Y-73597574D01*
X148393097Y-73619152D01*
X148274703Y-73737546D01*
X148181681Y-73876764D01*
X148117606Y-74031454D01*
X148084941Y-74195672D01*
X148084941Y-74363108D01*
X148117606Y-74527326D01*
X148181681Y-74682016D01*
X148274703Y-74821234D01*
X148393097Y-74939628D01*
X148532315Y-75032650D01*
X148687005Y-75096725D01*
X148851223Y-75129390D01*
X149018659Y-75129390D01*
X149182877Y-75096725D01*
X149337567Y-75032650D01*
X149476785Y-74939628D01*
X149595179Y-74821234D01*
X149688201Y-74682016D01*
X149752276Y-74527326D01*
X149752576Y-74525817D01*
X151321048Y-75784649D01*
X152888029Y-77238231D01*
X152957283Y-77312367D01*
X152908769Y-77332462D01*
X152769551Y-77425484D01*
X152651157Y-77543878D01*
X152558135Y-77683096D01*
X152494060Y-77837786D01*
X152461395Y-78002004D01*
X152461395Y-78169440D01*
X152494060Y-78333658D01*
X152558135Y-78488348D01*
X152651157Y-78627566D01*
X152769551Y-78745960D01*
X152908769Y-78838982D01*
X153063459Y-78903057D01*
X153227677Y-78935722D01*
X153395113Y-78935722D01*
X153559331Y-78903057D01*
X153714021Y-78838982D01*
X153853239Y-78745960D01*
X153971633Y-78627566D01*
X154060972Y-78493860D01*
X154347072Y-78800129D01*
X155690710Y-80462347D01*
X156654927Y-81847093D01*
X156613243Y-81855385D01*
X156458553Y-81919460D01*
X156319335Y-82012482D01*
X156200941Y-82130876D01*
X156107919Y-82270094D01*
X156043844Y-82424784D01*
X156011179Y-82589002D01*
X156011179Y-82756438D01*
X156043844Y-82920656D01*
X156107919Y-83075346D01*
X156200941Y-83214564D01*
X156319335Y-83332958D01*
X156458553Y-83425980D01*
X156613243Y-83490055D01*
X156777461Y-83522720D01*
X156944897Y-83522720D01*
X157109115Y-83490055D01*
X157263805Y-83425980D01*
X157403023Y-83332958D01*
X157511703Y-83224278D01*
X158004885Y-84053244D01*
X158963578Y-85963543D01*
X159399811Y-87014109D01*
X159364157Y-87014109D01*
X159199939Y-87046774D01*
X159045249Y-87110849D01*
X158906031Y-87203871D01*
X158787637Y-87322265D01*
X158694615Y-87461483D01*
X158630540Y-87616173D01*
X158597875Y-87780391D01*
X158597875Y-87947827D01*
X158630540Y-88112045D01*
X158694615Y-88266735D01*
X158787637Y-88405953D01*
X158906031Y-88524347D01*
X159045249Y-88617369D01*
X159199939Y-88681444D01*
X159364157Y-88714109D01*
X159531593Y-88714109D01*
X159695811Y-88681444D01*
X159850501Y-88617369D01*
X159980973Y-88530191D01*
X160459662Y-89965003D01*
X160989397Y-92035682D01*
X161094720Y-92618128D01*
X161055797Y-92610386D01*
X160888361Y-92610386D01*
X160724143Y-92643051D01*
X160569453Y-92707126D01*
X160430235Y-92800148D01*
X160311841Y-92918542D01*
X160218819Y-93057760D01*
X160154744Y-93212450D01*
X160122079Y-93376668D01*
X160122079Y-93544104D01*
X160154744Y-93708322D01*
X160218819Y-93863012D01*
X160311841Y-94002230D01*
X160430235Y-94120624D01*
X160569453Y-94213646D01*
X160724143Y-94277721D01*
X160888361Y-94310386D01*
X161055797Y-94310386D01*
X161220015Y-94277721D01*
X161374705Y-94213646D01*
X161377571Y-94211731D01*
X161598707Y-96264002D01*
X161675164Y-98400000D01*
X161673721Y-98450101D01*
X161623153Y-98429155D01*
X161458935Y-98396490D01*
X161291499Y-98396490D01*
X161127281Y-98429155D01*
X160972591Y-98493230D01*
X160833373Y-98586252D01*
X160714979Y-98704646D01*
X160621957Y-98843864D01*
X160557882Y-98998554D01*
X160525217Y-99162772D01*
X160525217Y-99330208D01*
X160557882Y-99494426D01*
X160621957Y-99649116D01*
X160714979Y-99788334D01*
X160833373Y-99906728D01*
X160972591Y-99999750D01*
X161127281Y-100063825D01*
X161291499Y-100096490D01*
X161458935Y-100096490D01*
X161623153Y-100063825D01*
X161627285Y-100062114D01*
X161625625Y-100119735D01*
X161426339Y-102247790D01*
X161088688Y-104276381D01*
X161044421Y-104246803D01*
X160889731Y-104182728D01*
X160725513Y-104150063D01*
X160558077Y-104150063D01*
X160393859Y-104182728D01*
X160239169Y-104246803D01*
X160099951Y-104339825D01*
X159981557Y-104458219D01*
X159888535Y-104597437D01*
X159824460Y-104752127D01*
X159791795Y-104916345D01*
X159791795Y-105083781D01*
X159824460Y-105247999D01*
X159888535Y-105402689D01*
X159981557Y-105541907D01*
X160099951Y-105660301D01*
X160239169Y-105753323D01*
X160393859Y-105817398D01*
X160558077Y-105850063D01*
X160715376Y-105850063D01*
X160574640Y-106434024D01*
X159926587Y-108470776D01*
X159369417Y-109867335D01*
X159341844Y-109839762D01*
X159202626Y-109746740D01*
X159047936Y-109682665D01*
X158883718Y-109650000D01*
X158716282Y-109650000D01*
X158552064Y-109682665D01*
X158397374Y-109746740D01*
X158258156Y-109839762D01*
X158139762Y-109958156D01*
X158046740Y-110097374D01*
X157982665Y-110252064D01*
X157950000Y-110416282D01*
X157950000Y-110583718D01*
X157982665Y-110747936D01*
X158046740Y-110902626D01*
X158139762Y-111041844D01*
X158258156Y-111160238D01*
X158397374Y-111253260D01*
X158552064Y-111317335D01*
X158702728Y-111347304D01*
X158202643Y-112379480D01*
X157135576Y-114231425D01*
X156600738Y-115022864D01*
X156580848Y-114993097D01*
X156462454Y-114874703D01*
X156323236Y-114781681D01*
X156168546Y-114717606D01*
X156004328Y-114684941D01*
X155836892Y-114684941D01*
X155672674Y-114717606D01*
X155517984Y-114781681D01*
X155378766Y-114874703D01*
X155260372Y-114993097D01*
X155167350Y-115132315D01*
X155103275Y-115287005D01*
X155070610Y-115451223D01*
X155070610Y-115618659D01*
X155103275Y-115782877D01*
X155167350Y-115937567D01*
X155260372Y-116076785D01*
X155378766Y-116195179D01*
X155517984Y-116288201D01*
X155666092Y-116349550D01*
X154618532Y-117683154D01*
X153181438Y-119265271D01*
X152884149Y-119548871D01*
X152867538Y-119508769D01*
X152774516Y-119369551D01*
X152656122Y-119251157D01*
X152516904Y-119158135D01*
X152362214Y-119094060D01*
X152197996Y-119061395D01*
X152030560Y-119061395D01*
X151866342Y-119094060D01*
X151711652Y-119158135D01*
X151572434Y-119251157D01*
X151454040Y-119369551D01*
X151361018Y-119508769D01*
X151296943Y-119663459D01*
X151264278Y-119827677D01*
X151264278Y-119995113D01*
X151296943Y-120159331D01*
X151361018Y-120314021D01*
X151454040Y-120453239D01*
X151572434Y-120571633D01*
X151711652Y-120664655D01*
X151713642Y-120665479D01*
X151634904Y-120740591D01*
X149986848Y-122101561D01*
X148354642Y-123263654D01*
X148344615Y-123213243D01*
X148280540Y-123058553D01*
X148187518Y-122919335D01*
X148069124Y-122800941D01*
X147929906Y-122707919D01*
X147775216Y-122643844D01*
X147610998Y-122611179D01*
X147443562Y-122611179D01*
X147279344Y-122643844D01*
X147124654Y-122707919D01*
X146985436Y-122800941D01*
X146867042Y-122919335D01*
X146774020Y-123058553D01*
X146709945Y-123213243D01*
X146677280Y-123377461D01*
X146677280Y-123544897D01*
X146709945Y-123709115D01*
X146774020Y-123863805D01*
X146867042Y-124003023D01*
X146977706Y-124113687D01*
X146420381Y-124453213D01*
X144520226Y-125431857D01*
X143185891Y-126002376D01*
X143185891Y-125964157D01*
X143153226Y-125799939D01*
X143089151Y-125645249D01*
X142996129Y-125506031D01*
X142877735Y-125387637D01*
X142738517Y-125294615D01*
X142583827Y-125230540D01*
X142419609Y-125197875D01*
X142252173Y-125197875D01*
X142087955Y-125230540D01*
X141933265Y-125294615D01*
X141794047Y-125387637D01*
X141675653Y-125506031D01*
X141582631Y-125645249D01*
X141518556Y-125799939D01*
X141485891Y-125964157D01*
X141485891Y-126131593D01*
X141518556Y-126295811D01*
X141582631Y-126450501D01*
X141668080Y-126578385D01*
X140534653Y-126969761D01*
X138469634Y-127521151D01*
X137582578Y-127691168D01*
X137589614Y-127655797D01*
X137589614Y-127488361D01*
X137556949Y-127324143D01*
X137492874Y-127169453D01*
X137399852Y-127030235D01*
X137281458Y-126911841D01*
X137142240Y-126818819D01*
X136987550Y-126754744D01*
X136823332Y-126722079D01*
X136655896Y-126722079D01*
X136491678Y-126754744D01*
X136336988Y-126818819D01*
X136197770Y-126911841D01*
X136079376Y-127030235D01*
X135986354Y-127169453D01*
X135922279Y-127324143D01*
X135889614Y-127488361D01*
X135889614Y-127655797D01*
X135922279Y-127820015D01*
X135984081Y-127969218D01*
X134247926Y-128174705D01*
X132112846Y-128273526D01*
X131753745Y-128264436D01*
X131770845Y-128223153D01*
X131803510Y-128058935D01*
X131803510Y-127891499D01*
X131770845Y-127727281D01*
X131706770Y-127572591D01*
X131613748Y-127433373D01*
X131495354Y-127314979D01*
X131356136Y-127221957D01*
X131201446Y-127157882D01*
X131037228Y-127125217D01*
X130869792Y-127125217D01*
X130705574Y-127157882D01*
X130550884Y-127221957D01*
X130411666Y-127314979D01*
X130293272Y-127433373D01*
X130200250Y-127572591D01*
X130136175Y-127727281D01*
X130103510Y-127891499D01*
X130103510Y-128058935D01*
X130136175Y-128223153D01*
X130136317Y-128223495D01*
X129976165Y-128219441D01*
X127848819Y-128012727D01*
X125925607Y-127685713D01*
X125953197Y-127644421D01*
X126017272Y-127489731D01*
X126049937Y-127325513D01*
X126049937Y-127158077D01*
X126017272Y-126993859D01*
X125953197Y-126839169D01*
X125860175Y-126699951D01*
X125741781Y-126581557D01*
X125602563Y-126488535D01*
X125447873Y-126424460D01*
X125283655Y-126391795D01*
X125116219Y-126391795D01*
X124952001Y-126424460D01*
X124797311Y-126488535D01*
X124658093Y-126581557D01*
X124539699Y-126699951D01*
X124446677Y-126839169D01*
X124382602Y-126993859D01*
X124349937Y-127158077D01*
X124349937Y-127313880D01*
X123665583Y-127146420D01*
X121631105Y-126491262D01*
X120333692Y-125968390D01*
X120360238Y-125941844D01*
X120453260Y-125802626D01*
X120517335Y-125647936D01*
X120550000Y-125483718D01*
X120550000Y-125316282D01*
X120517335Y-125152064D01*
X120453260Y-124997374D01*
X120360238Y-124858156D01*
X120241844Y-124739762D01*
X120102626Y-124646740D01*
X119947936Y-124582665D01*
X119783718Y-124550000D01*
X119616282Y-124550000D01*
X119452064Y-124582665D01*
X119297374Y-124646740D01*
X119158156Y-124739762D01*
X119039762Y-124858156D01*
X118946740Y-124997374D01*
X118882665Y-125152064D01*
X118852604Y-125303190D01*
X117728443Y-124753685D01*
X115880234Y-123680160D01*
X115176617Y-123201084D01*
X115206903Y-123180848D01*
X115325297Y-123062454D01*
X115418319Y-122923236D01*
X115482394Y-122768546D01*
X115515059Y-122604328D01*
X115515059Y-122436892D01*
X115482394Y-122272674D01*
X115418319Y-122117984D01*
X115325297Y-121978766D01*
X115206903Y-121860372D01*
X115067685Y-121767350D01*
X114912995Y-121703275D01*
X114748777Y-121670610D01*
X114581341Y-121670610D01*
X114417123Y-121703275D01*
X114262433Y-121767350D01*
X114123215Y-121860372D01*
X114004821Y-121978766D01*
X113911799Y-122117984D01*
X113849507Y-122268369D01*
X112437312Y-121151082D01*
X110860221Y-119708474D01*
X110648678Y-119485164D01*
X110691231Y-119467538D01*
X110830449Y-119374516D01*
X110948843Y-119256122D01*
X111041865Y-119116904D01*
X111105940Y-118962214D01*
X111138605Y-118797996D01*
X111138605Y-118630560D01*
X111105940Y-118466342D01*
X111041865Y-118311652D01*
X110948843Y-118172434D01*
X110830449Y-118054040D01*
X110691231Y-117961018D01*
X110536541Y-117896943D01*
X110372323Y-117864278D01*
X110204887Y-117864278D01*
X110040669Y-117896943D01*
X109885979Y-117961018D01*
X109746761Y-118054040D01*
X109628367Y-118172434D01*
X109536030Y-118310627D01*
X109390309Y-118156800D01*
X108035099Y-116504003D01*
X106939655Y-114953984D01*
X106986757Y-114944615D01*
X107141447Y-114880540D01*
X107280665Y-114787518D01*
X107399059Y-114669124D01*
X107492081Y-114529906D01*
X107556156Y-114375216D01*
X107588821Y-114210998D01*
X107588821Y-114043562D01*
X107556156Y-113879344D01*
X107492081Y-113724654D01*
X107399059Y-113585436D01*
X107280665Y-113467042D01*
X107141447Y-113374020D01*
X106986757Y-113309945D01*
X106822539Y-113277280D01*
X106655103Y-113277280D01*
X106490885Y-113309945D01*
X106336195Y-113374020D01*
X106196977Y-113467042D01*
X106087238Y-113576781D01*
X105695912Y-112929349D01*
X104723906Y-111025790D01*
X104198877Y-109785891D01*
X104235843Y-109785891D01*
X104400061Y-109753226D01*
X104554751Y-109689151D01*
X104693969Y-109596129D01*
X104812363Y-109477735D01*
X104905385Y-109338517D01*
X104969460Y-109183827D01*
X105002125Y-109019609D01*
X105002125Y-108852173D01*
X104969460Y-108687955D01*
X104905385Y-108533265D01*
X104812363Y-108394047D01*
X104693969Y-108275653D01*
X104554751Y-108182631D01*
X104400061Y-108118556D01*
X104235843Y-108085891D01*
X104068407Y-108085891D01*
X103904189Y-108118556D01*
X103749499Y-108182631D01*
X103621067Y-108268446D01*
X103199923Y-107034872D01*
X102655746Y-104967941D01*
X102508030Y-104182419D01*
X102544203Y-104189614D01*
X102711639Y-104189614D01*
X102875857Y-104156949D01*
X103030547Y-104092874D01*
X103169765Y-103999852D01*
X103288159Y-103881458D01*
X103381181Y-103742240D01*
X103445256Y-103587550D01*
X103477921Y-103423332D01*
X103477921Y-103255896D01*
X103445256Y-103091678D01*
X103381181Y-102936988D01*
X103288159Y-102797770D01*
X103169765Y-102679376D01*
X103030547Y-102586354D01*
X102875857Y-102522279D01*
X102711639Y-102489614D01*
X102544203Y-102489614D01*
X102379985Y-102522279D01*
X102228328Y-102585098D01*
X102016931Y-100743978D01*
X101925564Y-98608566D01*
X101932936Y-98352656D01*
X101976847Y-98370845D01*
X102141065Y-98403510D01*
X102308501Y-98403510D01*
X102472719Y-98370845D01*
X102627409Y-98306770D01*
X102766627Y-98213748D01*
X102885021Y-98095354D01*
X102978043Y-97956136D01*
X103042118Y-97801446D01*
X103074783Y-97637228D01*
X103074783Y-97469792D01*
X103042118Y-97305574D01*
X102978043Y-97150884D01*
X102885021Y-97011666D01*
X102766627Y-96893272D01*
X102627409Y-96800250D01*
X102472719Y-96736175D01*
X102308501Y-96703510D01*
X102141065Y-96703510D01*
X101979515Y-96735644D01*
X101987107Y-96472087D01*
X102175616Y-94600000D01*
X103521735Y-94600000D01*
X103525001Y-94633162D01*
X103525000Y-105566848D01*
X103521735Y-105600000D01*
X103525000Y-105633152D01*
X103525000Y-105633158D01*
X103530599Y-105690002D01*
X103534767Y-105732323D01*
X103542948Y-105759290D01*
X103573364Y-105859560D01*
X103629166Y-105963958D01*
X103636043Y-105976824D01*
X103699256Y-106053850D01*
X103699263Y-106053857D01*
X103720394Y-106079605D01*
X103746144Y-106100738D01*
X122499263Y-124853858D01*
X122520394Y-124879606D01*
X122546142Y-124900737D01*
X122546149Y-124900744D01*
X122612932Y-124955551D01*
X122623176Y-124963958D01*
X122740439Y-125026636D01*
X122829079Y-125053524D01*
X122867676Y-125065233D01*
X122880192Y-125066466D01*
X122966841Y-125075000D01*
X122966848Y-125075000D01*
X123000000Y-125078265D01*
X123033152Y-125075000D01*
X125866848Y-125075000D01*
X125900000Y-125078265D01*
X125933152Y-125075000D01*
X125933159Y-125075000D01*
X126032323Y-125065233D01*
X126159561Y-125026636D01*
X126276824Y-124963958D01*
X126379606Y-124879606D01*
X126400742Y-124853852D01*
X126509778Y-124744816D01*
X126647936Y-124717335D01*
X126802626Y-124653260D01*
X126941844Y-124560238D01*
X127060238Y-124441844D01*
X127153260Y-124302626D01*
X127217335Y-124147936D01*
X127250000Y-123983718D01*
X127250000Y-123816282D01*
X127217335Y-123652064D01*
X127153260Y-123497374D01*
X127060238Y-123358156D01*
X126941844Y-123239762D01*
X126802626Y-123146740D01*
X126647936Y-123082665D01*
X126483718Y-123050000D01*
X126316282Y-123050000D01*
X126276847Y-123057844D01*
X126210238Y-122958156D01*
X126091844Y-122839762D01*
X125952626Y-122746740D01*
X125797936Y-122682665D01*
X125633718Y-122650000D01*
X125466282Y-122650000D01*
X125302064Y-122682665D01*
X125147374Y-122746740D01*
X125008156Y-122839762D01*
X124889762Y-122958156D01*
X124796740Y-123097374D01*
X124743875Y-123225000D01*
X123479595Y-123225000D01*
X122729595Y-122475000D01*
X130914586Y-122475000D01*
X130882665Y-122552064D01*
X130850000Y-122716282D01*
X130850000Y-122883718D01*
X130882665Y-123047936D01*
X130946740Y-123202626D01*
X131039762Y-123341844D01*
X131158156Y-123460238D01*
X131297374Y-123553260D01*
X131452064Y-123617335D01*
X131590222Y-123644816D01*
X131899256Y-123953850D01*
X131920394Y-123979606D01*
X132023176Y-124063958D01*
X132097339Y-124103599D01*
X132097339Y-124125000D01*
X132107958Y-124232819D01*
X132139408Y-124336494D01*
X132190479Y-124432042D01*
X132259210Y-124515790D01*
X132342958Y-124584521D01*
X132438506Y-124635592D01*
X132542181Y-124667042D01*
X132650000Y-124677661D01*
X134150000Y-124677661D01*
X134257819Y-124667042D01*
X134361494Y-124635592D01*
X134457042Y-124584521D01*
X134540790Y-124515790D01*
X134609521Y-124432042D01*
X134660592Y-124336494D01*
X134692042Y-124232819D01*
X134702661Y-124125000D01*
X134702661Y-122875000D01*
X134692042Y-122767181D01*
X134660592Y-122663506D01*
X134609521Y-122567958D01*
X134540790Y-122484210D01*
X134457042Y-122415479D01*
X134418738Y-122395005D01*
X134476824Y-122363958D01*
X134579606Y-122279606D01*
X134600742Y-122253852D01*
X134838312Y-122016282D01*
X137850000Y-122016282D01*
X137850000Y-122183718D01*
X137882665Y-122347936D01*
X137946740Y-122502626D01*
X138039762Y-122641844D01*
X138158156Y-122760238D01*
X138297374Y-122853260D01*
X138452064Y-122917335D01*
X138616282Y-122950000D01*
X138783718Y-122950000D01*
X138947936Y-122917335D01*
X139102626Y-122853260D01*
X139241844Y-122760238D01*
X139327082Y-122675000D01*
X146466848Y-122675000D01*
X146500000Y-122678265D01*
X146533152Y-122675000D01*
X146533159Y-122675000D01*
X146632323Y-122665233D01*
X146759561Y-122626636D01*
X146876824Y-122563958D01*
X146933950Y-122517075D01*
X146953850Y-122500744D01*
X146953852Y-122500742D01*
X146979606Y-122479606D01*
X147000744Y-122453850D01*
X149726933Y-119727661D01*
X149905000Y-119727661D01*
X150012819Y-119717042D01*
X150116494Y-119685592D01*
X150212042Y-119634521D01*
X150295790Y-119565790D01*
X150364521Y-119482042D01*
X150415592Y-119386494D01*
X150447042Y-119282819D01*
X150457661Y-119175000D01*
X150457661Y-117625000D01*
X150447042Y-117517181D01*
X150415592Y-117413506D01*
X150364521Y-117317958D01*
X150295790Y-117234210D01*
X150212042Y-117165479D01*
X150116494Y-117114408D01*
X150103982Y-117110612D01*
X150189583Y-117025011D01*
X151653248Y-117025011D01*
X151686400Y-117028276D01*
X151719552Y-117025011D01*
X151719559Y-117025011D01*
X151818723Y-117015244D01*
X151945961Y-116976647D01*
X152063224Y-116913969D01*
X152131232Y-116858156D01*
X152140250Y-116850755D01*
X152140252Y-116850753D01*
X152166006Y-116829617D01*
X152187144Y-116803861D01*
X153278868Y-115712137D01*
X153304616Y-115691006D01*
X153325749Y-115665256D01*
X153325754Y-115665251D01*
X153378643Y-115600806D01*
X153388969Y-115588224D01*
X153451647Y-115470961D01*
X153488099Y-115350793D01*
X153488824Y-115350616D01*
X153544576Y-115338711D01*
X153583883Y-115321780D01*
X153602599Y-115315230D01*
X153643895Y-115303958D01*
X153694931Y-115278493D01*
X153746620Y-115254487D01*
X153781172Y-115229236D01*
X153797968Y-115218682D01*
X153835714Y-115198506D01*
X153879805Y-115162322D01*
X153924858Y-115127415D01*
X153952922Y-115095111D01*
X153966947Y-115081085D01*
X153999260Y-115053014D01*
X154034191Y-115007930D01*
X154070349Y-114963870D01*
X154090521Y-114926131D01*
X154101080Y-114909328D01*
X154126331Y-114874776D01*
X154150337Y-114823087D01*
X154175802Y-114772051D01*
X154187074Y-114730755D01*
X154193623Y-114712043D01*
X154210555Y-114672733D01*
X154222461Y-114616977D01*
X154235927Y-114561573D01*
X154237727Y-114518817D01*
X154239950Y-114499091D01*
X154247709Y-114457005D01*
X154246910Y-114400001D01*
X154247709Y-114342996D01*
X154239950Y-114300909D01*
X154237727Y-114281185D01*
X154235927Y-114238426D01*
X154222459Y-114183015D01*
X154210555Y-114127267D01*
X154193624Y-114087962D01*
X154187074Y-114069244D01*
X154175802Y-114027948D01*
X154150337Y-113976912D01*
X154126331Y-113925223D01*
X154101080Y-113890671D01*
X154090521Y-113873868D01*
X154070349Y-113836129D01*
X154040699Y-113800000D01*
X154070349Y-113763870D01*
X154090521Y-113726131D01*
X154101080Y-113709328D01*
X154126331Y-113674776D01*
X154150337Y-113623087D01*
X154175802Y-113572051D01*
X154187074Y-113530755D01*
X154193623Y-113512043D01*
X154210555Y-113472733D01*
X154222461Y-113416977D01*
X154235927Y-113361573D01*
X154237727Y-113318817D01*
X154239950Y-113299091D01*
X154247709Y-113257005D01*
X154246910Y-113200001D01*
X154247709Y-113142996D01*
X154239950Y-113100909D01*
X154237727Y-113081185D01*
X154235927Y-113038426D01*
X154222459Y-112983015D01*
X154210555Y-112927267D01*
X154193624Y-112887962D01*
X154187074Y-112869244D01*
X154175802Y-112827948D01*
X154150337Y-112776912D01*
X154126331Y-112725223D01*
X154101080Y-112690671D01*
X154090521Y-112673868D01*
X154070349Y-112636129D01*
X154034191Y-112592069D01*
X153999260Y-112546985D01*
X153966947Y-112518914D01*
X153952922Y-112504888D01*
X153924858Y-112472584D01*
X153879805Y-112437677D01*
X153835714Y-112401493D01*
X153797968Y-112381317D01*
X153781172Y-112370763D01*
X153746620Y-112345512D01*
X153694931Y-112321506D01*
X153643895Y-112296041D01*
X153602599Y-112284769D01*
X153583880Y-112278218D01*
X153544567Y-112261285D01*
X153500011Y-112251771D01*
X153500011Y-109658162D01*
X153503276Y-109625010D01*
X153500011Y-109591858D01*
X153500011Y-109591851D01*
X153490244Y-109492687D01*
X153490244Y-109492686D01*
X153451647Y-109365448D01*
X153388968Y-109248185D01*
X153388367Y-109247452D01*
X153364729Y-109218650D01*
X153325755Y-109171159D01*
X153325748Y-109171152D01*
X153304617Y-109145404D01*
X153278868Y-109124272D01*
X151946699Y-107792103D01*
X152985329Y-107792103D01*
X153012360Y-108066551D01*
X153092413Y-108330452D01*
X153222413Y-108573665D01*
X153397364Y-108786842D01*
X153610541Y-108961793D01*
X153853754Y-109091793D01*
X154117655Y-109171846D01*
X154323326Y-109192103D01*
X154460880Y-109192103D01*
X154666551Y-109171846D01*
X154930452Y-109091793D01*
X155173665Y-108961793D01*
X155386842Y-108786842D01*
X155561793Y-108573665D01*
X155691793Y-108330452D01*
X155771846Y-108066551D01*
X155798877Y-107792103D01*
X155771846Y-107517655D01*
X155691793Y-107253754D01*
X155561793Y-107010541D01*
X155386842Y-106797364D01*
X155173665Y-106622413D01*
X154930452Y-106492413D01*
X154666551Y-106412360D01*
X154460880Y-106392103D01*
X154323326Y-106392103D01*
X154117655Y-106412360D01*
X153853754Y-106492413D01*
X153610541Y-106622413D01*
X153397364Y-106797364D01*
X153222413Y-107010541D01*
X153092413Y-107253754D01*
X153012360Y-107517655D01*
X152985329Y-107792103D01*
X151946699Y-107792103D01*
X150128959Y-105974365D01*
X150128959Y-105825635D01*
X150409926Y-105544668D01*
X150525552Y-105579743D01*
X150731223Y-105600000D01*
X150868777Y-105600000D01*
X151074448Y-105579743D01*
X151338349Y-105499690D01*
X151581562Y-105369690D01*
X151794739Y-105194739D01*
X151969690Y-104981562D01*
X152099690Y-104738349D01*
X152179743Y-104474448D01*
X152206774Y-104200000D01*
X152179743Y-103925552D01*
X152099690Y-103661651D01*
X151969690Y-103418438D01*
X151794739Y-103205261D01*
X151581562Y-103030310D01*
X151502796Y-102988209D01*
X152603868Y-101887137D01*
X152629617Y-101866005D01*
X152650748Y-101840257D01*
X152650755Y-101840250D01*
X152713968Y-101763224D01*
X152715565Y-101760238D01*
X152770967Y-101656587D01*
X152776647Y-101645961D01*
X152815244Y-101518723D01*
X152818726Y-101483365D01*
X152825011Y-101419558D01*
X152825011Y-101419551D01*
X152828276Y-101386399D01*
X152825011Y-101353247D01*
X152825011Y-97833152D01*
X152828276Y-97800000D01*
X152825011Y-97766848D01*
X152825011Y-97766841D01*
X152815244Y-97667677D01*
X152806187Y-97637819D01*
X152776647Y-97540438D01*
X152716624Y-97428144D01*
X152713969Y-97423176D01*
X152700549Y-97406824D01*
X152650755Y-97346149D01*
X152650744Y-97346138D01*
X152629616Y-97320394D01*
X152603873Y-97299267D01*
X151475000Y-96170395D01*
X151475000Y-94726649D01*
X151581562Y-94669690D01*
X151794739Y-94494739D01*
X151969690Y-94281562D01*
X152099690Y-94038349D01*
X152179743Y-93774448D01*
X152206774Y-93500000D01*
X152179743Y-93225552D01*
X152099690Y-92961651D01*
X151969690Y-92718438D01*
X151794739Y-92505261D01*
X151581562Y-92330310D01*
X151338349Y-92200310D01*
X151074448Y-92120257D01*
X150868777Y-92100000D01*
X150731223Y-92100000D01*
X150525552Y-92120257D01*
X150261651Y-92200310D01*
X150018438Y-92330310D01*
X149805261Y-92505261D01*
X149630310Y-92718438D01*
X149500310Y-92961651D01*
X149420257Y-93225552D01*
X149393226Y-93500000D01*
X149415259Y-93723699D01*
X149394739Y-93703179D01*
X149310991Y-93634448D01*
X149215443Y-93583377D01*
X149111768Y-93551927D01*
X149003949Y-93541308D01*
X148896130Y-93551927D01*
X148792455Y-93583377D01*
X148696907Y-93634448D01*
X148613159Y-93703179D01*
X147411077Y-94905261D01*
X147342346Y-94989009D01*
X147291275Y-95084557D01*
X147259825Y-95188232D01*
X147249206Y-95296051D01*
X147259825Y-95403870D01*
X147291275Y-95507545D01*
X147342346Y-95603093D01*
X147411077Y-95686841D01*
X148613159Y-96888923D01*
X148696907Y-96957654D01*
X148792455Y-97008725D01*
X148896130Y-97040175D01*
X149003949Y-97050794D01*
X149111768Y-97040175D01*
X149215443Y-97008725D01*
X149310991Y-96957654D01*
X149394739Y-96888923D01*
X149518483Y-96765179D01*
X150798840Y-98045537D01*
X150783024Y-98049381D01*
X150727277Y-98061285D01*
X150687968Y-98078216D01*
X150669244Y-98084769D01*
X150627948Y-98096041D01*
X150576912Y-98121506D01*
X150525223Y-98145512D01*
X150490671Y-98170763D01*
X150473868Y-98181322D01*
X150436129Y-98201494D01*
X150392069Y-98237652D01*
X150346985Y-98272583D01*
X150318914Y-98304896D01*
X150304888Y-98318921D01*
X150272584Y-98346985D01*
X150237677Y-98392038D01*
X150201493Y-98436129D01*
X150181317Y-98473875D01*
X150170763Y-98490671D01*
X150145512Y-98525223D01*
X150121506Y-98576912D01*
X150096041Y-98627948D01*
X150084769Y-98669244D01*
X150078216Y-98687968D01*
X150061285Y-98727277D01*
X150049381Y-98783024D01*
X150035916Y-98838426D01*
X150034116Y-98881191D01*
X150031895Y-98900898D01*
X150024135Y-98942986D01*
X150024934Y-99000001D01*
X150024135Y-99057015D01*
X150031895Y-99099103D01*
X150034116Y-99118810D01*
X150035916Y-99161573D01*
X150049379Y-99216967D01*
X150061285Y-99272723D01*
X150078218Y-99312036D01*
X150084769Y-99330755D01*
X150096041Y-99372051D01*
X150121506Y-99423087D01*
X150145512Y-99474776D01*
X150170763Y-99509328D01*
X150181317Y-99526124D01*
X150201493Y-99563870D01*
X150237677Y-99607961D01*
X150272584Y-99653014D01*
X150304888Y-99681078D01*
X150318914Y-99695103D01*
X150346985Y-99727416D01*
X150392069Y-99762347D01*
X150436129Y-99798505D01*
X150473868Y-99818677D01*
X150490671Y-99829236D01*
X150525223Y-99854487D01*
X150576912Y-99878493D01*
X150627948Y-99903958D01*
X150669244Y-99915230D01*
X150687962Y-99921780D01*
X150727267Y-99938711D01*
X150783015Y-99950615D01*
X150838426Y-99964083D01*
X150869123Y-99965375D01*
X150929127Y-99971285D01*
X150957371Y-99974468D01*
X150962115Y-99974535D01*
X150966841Y-99975000D01*
X150995313Y-99975000D01*
X151025000Y-99975416D01*
X151025001Y-100920405D01*
X150888208Y-101057198D01*
X149708851Y-101057198D01*
X149675699Y-101053933D01*
X149642547Y-101057198D01*
X149642541Y-101057198D01*
X149641011Y-101057349D01*
X149394739Y-100811077D01*
X149310991Y-100742346D01*
X149215443Y-100691275D01*
X149111768Y-100659825D01*
X149003949Y-100649206D01*
X148896130Y-100659825D01*
X148792455Y-100691275D01*
X148696907Y-100742346D01*
X148613159Y-100811077D01*
X147411077Y-102013159D01*
X147342346Y-102096907D01*
X147291275Y-102192455D01*
X147259825Y-102296130D01*
X147249206Y-102403949D01*
X147259825Y-102511768D01*
X147291275Y-102615443D01*
X147342346Y-102710991D01*
X147411077Y-102794739D01*
X148328949Y-103712611D01*
X148328950Y-105116222D01*
X148247936Y-105082665D01*
X148083718Y-105050000D01*
X147916282Y-105050000D01*
X147752064Y-105082665D01*
X147597374Y-105146740D01*
X147458156Y-105239762D01*
X147339762Y-105358156D01*
X147246740Y-105497374D01*
X147182665Y-105652064D01*
X147150000Y-105816282D01*
X147150000Y-105983718D01*
X147182665Y-106147936D01*
X147216118Y-106228698D01*
X147216118Y-106873876D01*
X146653055Y-107436939D01*
X146584324Y-107520687D01*
X146533253Y-107616235D01*
X146501803Y-107719910D01*
X146491184Y-107827729D01*
X146501803Y-107935548D01*
X146533253Y-108039223D01*
X146584324Y-108134771D01*
X146653055Y-108218519D01*
X147713715Y-109279179D01*
X147797463Y-109347910D01*
X147893011Y-109398981D01*
X147996686Y-109430431D01*
X148104505Y-109441050D01*
X148212324Y-109430431D01*
X148315999Y-109398981D01*
X148411547Y-109347910D01*
X148495295Y-109279179D01*
X149379179Y-108395295D01*
X149447910Y-108311547D01*
X149498981Y-108215999D01*
X149530431Y-108112324D01*
X149541050Y-108004505D01*
X149533135Y-107924139D01*
X151700000Y-110091005D01*
X151700001Y-114745404D01*
X151220406Y-115225000D01*
X149733152Y-115225000D01*
X149700000Y-115221735D01*
X149666848Y-115225000D01*
X149666841Y-115225000D01*
X149580192Y-115233534D01*
X149567676Y-115234767D01*
X149535400Y-115244558D01*
X149440439Y-115273364D01*
X149323176Y-115336042D01*
X149323174Y-115336043D01*
X149323175Y-115336043D01*
X149246149Y-115399256D01*
X149246142Y-115399263D01*
X149220394Y-115420394D01*
X149199262Y-115446143D01*
X148320406Y-116325000D01*
X148023152Y-116325000D01*
X147990000Y-116321735D01*
X147956848Y-116325000D01*
X147956841Y-116325000D01*
X147870192Y-116333534D01*
X147857676Y-116334767D01*
X147730439Y-116373364D01*
X147613176Y-116436042D01*
X147510394Y-116520394D01*
X147489258Y-116546148D01*
X146963067Y-117072339D01*
X146765000Y-117072339D01*
X146657181Y-117082958D01*
X146553506Y-117114408D01*
X146457958Y-117165479D01*
X146374210Y-117234210D01*
X146305479Y-117317958D01*
X146254408Y-117413506D01*
X146222958Y-117517181D01*
X146212339Y-117625000D01*
X146212339Y-119175000D01*
X146222958Y-119282819D01*
X146254408Y-119386494D01*
X146305479Y-119482042D01*
X146374210Y-119565790D01*
X146457958Y-119634521D01*
X146553506Y-119685592D01*
X146657181Y-119717042D01*
X146765000Y-119727661D01*
X147365000Y-119727661D01*
X147472819Y-119717042D01*
X147576494Y-119685592D01*
X147672042Y-119634521D01*
X147700000Y-119611576D01*
X147727958Y-119634521D01*
X147823506Y-119685592D01*
X147851363Y-119694043D01*
X146220406Y-121325000D01*
X139050141Y-121325000D01*
X138947936Y-121282665D01*
X138783718Y-121250000D01*
X138616282Y-121250000D01*
X138452064Y-121282665D01*
X138297374Y-121346740D01*
X138158156Y-121439762D01*
X138039762Y-121558156D01*
X137946740Y-121697374D01*
X137882665Y-121852064D01*
X137850000Y-122016282D01*
X134838312Y-122016282D01*
X136253851Y-120600743D01*
X136279605Y-120579607D01*
X136363957Y-120476825D01*
X136426635Y-120359562D01*
X136465232Y-120232324D01*
X136474999Y-120133160D01*
X136474999Y-120133153D01*
X136478264Y-120100001D01*
X136474999Y-120066849D01*
X136474999Y-117933155D01*
X136478264Y-117900003D01*
X136474999Y-117866851D01*
X136474999Y-117866844D01*
X136465232Y-117767680D01*
X136462730Y-117759430D01*
X136426635Y-117640442D01*
X136419593Y-117627267D01*
X136363957Y-117523179D01*
X136347345Y-117502937D01*
X136326870Y-117400000D01*
X139244921Y-117400000D01*
X139265194Y-117605835D01*
X139325233Y-117803761D01*
X139422733Y-117986171D01*
X139553946Y-118146054D01*
X139713829Y-118277267D01*
X139896239Y-118374767D01*
X140094165Y-118434806D01*
X140300000Y-118455079D01*
X140505835Y-118434806D01*
X140703761Y-118374767D01*
X140886171Y-118277267D01*
X141005990Y-118178933D01*
X141140577Y-118044346D01*
X141225000Y-118052661D01*
X142475000Y-118052661D01*
X142582819Y-118042042D01*
X142686494Y-118010592D01*
X142782042Y-117959521D01*
X142865790Y-117890790D01*
X142934521Y-117807042D01*
X142985592Y-117711494D01*
X143017042Y-117607819D01*
X143027661Y-117500000D01*
X143027661Y-116000000D01*
X143017042Y-115892181D01*
X142985592Y-115788506D01*
X142934521Y-115692958D01*
X142865790Y-115609210D01*
X142782042Y-115540479D01*
X142686494Y-115489408D01*
X142582819Y-115457958D01*
X142475000Y-115447339D01*
X141225000Y-115447339D01*
X141117181Y-115457958D01*
X141013506Y-115489408D01*
X140917958Y-115540479D01*
X140834210Y-115609210D01*
X140765479Y-115692958D01*
X140754118Y-115714213D01*
X140744164Y-115715193D01*
X140546238Y-115775233D01*
X140363829Y-115872733D01*
X140203946Y-116003946D01*
X140171063Y-116044014D01*
X139521067Y-116694010D01*
X139422733Y-116813829D01*
X139325233Y-116996239D01*
X139265194Y-117194165D01*
X139244921Y-117400000D01*
X136326870Y-117400000D01*
X136317335Y-117352068D01*
X136253260Y-117197378D01*
X136160238Y-117058160D01*
X136041844Y-116939766D01*
X135902626Y-116846744D01*
X135747936Y-116782669D01*
X135583718Y-116750004D01*
X135416282Y-116750004D01*
X135273733Y-116778359D01*
X135260238Y-116758162D01*
X135141844Y-116639768D01*
X135044911Y-116575000D01*
X135180249Y-116575000D01*
X135297374Y-116653260D01*
X135452064Y-116717335D01*
X135616282Y-116750000D01*
X135783718Y-116750000D01*
X135947936Y-116717335D01*
X136102626Y-116653260D01*
X136241844Y-116560238D01*
X136360238Y-116441844D01*
X136453260Y-116302626D01*
X136517335Y-116147936D01*
X136550000Y-115983718D01*
X136550000Y-115816282D01*
X136517335Y-115652064D01*
X136453260Y-115497374D01*
X136360238Y-115358156D01*
X136241844Y-115239762D01*
X136102626Y-115146740D01*
X135947936Y-115082665D01*
X135783718Y-115050000D01*
X135616282Y-115050000D01*
X135452064Y-115082665D01*
X135297374Y-115146740D01*
X135180249Y-115225000D01*
X129458154Y-115225000D01*
X129425002Y-115221735D01*
X129391850Y-115225000D01*
X129391843Y-115225000D01*
X129305194Y-115233534D01*
X129292678Y-115234767D01*
X129192865Y-115265045D01*
X129165441Y-115273364D01*
X129048178Y-115336042D01*
X128992192Y-115381989D01*
X128971321Y-115399118D01*
X128945396Y-115420394D01*
X128924260Y-115446148D01*
X128886245Y-115484163D01*
X128841844Y-115439762D01*
X128702626Y-115346740D01*
X128547936Y-115282665D01*
X128401715Y-115253580D01*
X128360707Y-115219925D01*
X128243444Y-115157247D01*
X128116206Y-115118650D01*
X128017042Y-115108883D01*
X128017035Y-115108883D01*
X127983883Y-115105618D01*
X127950731Y-115108883D01*
X127282608Y-115108883D01*
X127279179Y-115104705D01*
X126395295Y-114220821D01*
X126311547Y-114152090D01*
X126215999Y-114101019D01*
X126112324Y-114069569D01*
X126004505Y-114058950D01*
X125896686Y-114069569D01*
X125793011Y-114101019D01*
X125697463Y-114152090D01*
X125613715Y-114220821D01*
X124553055Y-115281481D01*
X124484324Y-115365229D01*
X124433253Y-115460777D01*
X124401803Y-115564452D01*
X124391184Y-115672271D01*
X124401803Y-115780090D01*
X124433253Y-115883765D01*
X124484324Y-115979313D01*
X124553055Y-116063061D01*
X124896159Y-116406165D01*
X122160759Y-116406165D01*
X121170876Y-115416282D01*
X122250000Y-115416282D01*
X122250000Y-115583718D01*
X122282665Y-115747936D01*
X122346740Y-115902626D01*
X122439762Y-116041844D01*
X122558156Y-116160238D01*
X122697374Y-116253260D01*
X122852064Y-116317335D01*
X123016282Y-116350000D01*
X123183718Y-116350000D01*
X123347936Y-116317335D01*
X123502626Y-116253260D01*
X123641844Y-116160238D01*
X123760238Y-116041844D01*
X123853260Y-115902626D01*
X123917335Y-115747936D01*
X123950000Y-115583718D01*
X123950000Y-115416282D01*
X123917335Y-115252064D01*
X123853260Y-115097374D01*
X123760238Y-114958156D01*
X123641844Y-114839762D01*
X123502626Y-114746740D01*
X123347936Y-114682665D01*
X123183718Y-114650000D01*
X123016282Y-114650000D01*
X122852064Y-114682665D01*
X122697374Y-114746740D01*
X122558156Y-114839762D01*
X122439762Y-114958156D01*
X122346740Y-115097374D01*
X122282665Y-115252064D01*
X122250000Y-115416282D01*
X121170876Y-115416282D01*
X116675000Y-110920406D01*
X116675000Y-109015775D01*
X118069226Y-109015775D01*
X118129080Y-109623480D01*
X118306341Y-110207833D01*
X118594199Y-110746375D01*
X118981589Y-111218411D01*
X119453625Y-111605801D01*
X119992167Y-111893659D01*
X120576520Y-112070920D01*
X121184225Y-112130774D01*
X121791930Y-112070920D01*
X122376283Y-111893659D01*
X122914825Y-111605801D01*
X123009956Y-111527729D01*
X130291184Y-111527729D01*
X130301803Y-111635548D01*
X130333253Y-111739223D01*
X130384324Y-111834771D01*
X130453055Y-111918519D01*
X131513715Y-112979179D01*
X131597463Y-113047910D01*
X131693011Y-113098981D01*
X131796686Y-113130431D01*
X131904505Y-113141050D01*
X132012324Y-113130431D01*
X132115999Y-113098981D01*
X132211547Y-113047910D01*
X132295295Y-112979179D01*
X133179179Y-112095295D01*
X133247910Y-112011547D01*
X133298981Y-111915999D01*
X133330431Y-111812324D01*
X133341050Y-111704505D01*
X133330431Y-111596686D01*
X133298981Y-111493011D01*
X133247910Y-111397463D01*
X133179179Y-111313715D01*
X132881746Y-111016282D01*
X135550000Y-111016282D01*
X135550000Y-111183718D01*
X135582665Y-111347936D01*
X135646740Y-111502626D01*
X135739762Y-111641844D01*
X135858156Y-111760238D01*
X135997374Y-111853260D01*
X136152064Y-111917335D01*
X136290222Y-111944816D01*
X139099258Y-114753852D01*
X139120394Y-114779606D01*
X139146148Y-114800742D01*
X139146150Y-114800744D01*
X139192747Y-114838985D01*
X139223176Y-114863958D01*
X139274176Y-114891218D01*
X139340438Y-114926636D01*
X139467676Y-114965233D01*
X139480192Y-114966466D01*
X139566841Y-114975000D01*
X139566848Y-114975000D01*
X139600000Y-114978265D01*
X139633152Y-114975000D01*
X149066848Y-114975000D01*
X149100000Y-114978265D01*
X149133152Y-114975000D01*
X149133159Y-114975000D01*
X149232323Y-114965233D01*
X149359561Y-114926636D01*
X149476824Y-114863958D01*
X149579606Y-114779606D01*
X149600742Y-114753852D01*
X150048323Y-114306272D01*
X150116494Y-114285592D01*
X150212042Y-114234521D01*
X150295790Y-114165790D01*
X150364521Y-114082042D01*
X150415592Y-113986494D01*
X150447042Y-113882819D01*
X150457661Y-113775000D01*
X150457661Y-112225000D01*
X150447042Y-112117181D01*
X150415592Y-112013506D01*
X150364521Y-111917958D01*
X150295790Y-111834210D01*
X150212042Y-111765479D01*
X150116494Y-111714408D01*
X150012819Y-111682958D01*
X149905000Y-111672339D01*
X149305000Y-111672339D01*
X149197181Y-111682958D01*
X149135584Y-111701643D01*
X149133414Y-111679606D01*
X149123424Y-111578173D01*
X149077679Y-111427372D01*
X149003393Y-111288394D01*
X148903422Y-111166578D01*
X148872897Y-111141527D01*
X148770596Y-111039226D01*
X148753260Y-110997374D01*
X148660238Y-110858156D01*
X148541844Y-110739762D01*
X148402626Y-110646740D01*
X148247936Y-110582665D01*
X148083718Y-110550000D01*
X147916282Y-110550000D01*
X147752064Y-110582665D01*
X147597374Y-110646740D01*
X147458156Y-110739762D01*
X147339762Y-110858156D01*
X147246740Y-110997374D01*
X147182665Y-111152064D01*
X147150000Y-111316282D01*
X147150000Y-111483718D01*
X147182665Y-111647936D01*
X147246740Y-111802626D01*
X147339762Y-111941844D01*
X147458156Y-112060238D01*
X147501455Y-112089170D01*
X147492958Y-112117181D01*
X147482339Y-112225000D01*
X147482339Y-113625000D01*
X146647661Y-113625000D01*
X146647661Y-112225000D01*
X146637042Y-112117181D01*
X146605592Y-112013506D01*
X146554521Y-111917958D01*
X146485790Y-111834210D01*
X146402042Y-111765479D01*
X146306494Y-111714408D01*
X146202819Y-111682958D01*
X146095000Y-111672339D01*
X145495000Y-111672339D01*
X145387181Y-111682958D01*
X145283506Y-111714408D01*
X145187958Y-111765479D01*
X145104210Y-111834210D01*
X145035479Y-111917958D01*
X144984408Y-112013506D01*
X144952958Y-112117181D01*
X144942339Y-112225000D01*
X144942339Y-112903067D01*
X144920406Y-112925000D01*
X140179588Y-112925000D01*
X138444816Y-111190228D01*
X138417335Y-111052070D01*
X138353260Y-110897380D01*
X138260238Y-110758162D01*
X138141844Y-110639768D01*
X138002626Y-110546746D01*
X137847936Y-110482671D01*
X137683718Y-110450006D01*
X137516282Y-110450006D01*
X137352064Y-110482671D01*
X137197374Y-110546746D01*
X137097295Y-110613616D01*
X137060238Y-110558156D01*
X136941844Y-110439762D01*
X136802626Y-110346740D01*
X136647936Y-110282665D01*
X136483718Y-110250000D01*
X136316282Y-110250000D01*
X136152064Y-110282665D01*
X135997374Y-110346740D01*
X135858156Y-110439762D01*
X135739762Y-110558156D01*
X135646740Y-110697374D01*
X135582665Y-110852064D01*
X135550000Y-111016282D01*
X132881746Y-111016282D01*
X132491117Y-110625653D01*
X132491117Y-110228637D01*
X132547936Y-110217335D01*
X132702626Y-110153260D01*
X132841844Y-110060238D01*
X132960238Y-109941844D01*
X133053260Y-109802626D01*
X133117335Y-109647936D01*
X133150000Y-109483718D01*
X133150000Y-109316282D01*
X133117335Y-109152064D01*
X133053260Y-108997374D01*
X132960238Y-108858156D01*
X132841844Y-108739762D01*
X132702626Y-108646740D01*
X132547936Y-108582665D01*
X132383718Y-108550000D01*
X132216282Y-108550000D01*
X132052064Y-108582665D01*
X131897374Y-108646740D01*
X131758156Y-108739762D01*
X131639762Y-108858156D01*
X131546740Y-108997374D01*
X131482665Y-109152064D01*
X131455184Y-109290222D01*
X131362260Y-109383146D01*
X131336512Y-109404277D01*
X131315381Y-109430025D01*
X131315373Y-109430033D01*
X131252160Y-109507059D01*
X131189482Y-109624322D01*
X131150884Y-109751560D01*
X131137852Y-109883883D01*
X131141118Y-109917045D01*
X131141118Y-110448876D01*
X130453055Y-111136939D01*
X130384324Y-111220687D01*
X130333253Y-111316235D01*
X130301803Y-111419910D01*
X130291184Y-111527729D01*
X123009956Y-111527729D01*
X123268572Y-111315489D01*
X128115489Y-106468573D01*
X128405801Y-106114826D01*
X128693659Y-105576284D01*
X128870920Y-104991931D01*
X128930774Y-104384225D01*
X134669226Y-104384225D01*
X134729080Y-104991930D01*
X134906341Y-105576283D01*
X135194199Y-106114825D01*
X135484511Y-106468572D01*
X140331427Y-111315489D01*
X140685174Y-111605801D01*
X141223716Y-111893659D01*
X141808069Y-112070920D01*
X142415775Y-112130774D01*
X143023481Y-112070920D01*
X143607833Y-111893659D01*
X144146375Y-111605801D01*
X144618412Y-111218412D01*
X145005801Y-110746375D01*
X145293659Y-110207833D01*
X145470920Y-109623481D01*
X145530774Y-109015775D01*
X145470920Y-108408069D01*
X145293659Y-107823716D01*
X145005801Y-107285174D01*
X144715489Y-106931427D01*
X139868572Y-102084511D01*
X139514825Y-101794199D01*
X138976283Y-101506341D01*
X138391930Y-101329080D01*
X137784225Y-101269226D01*
X137176520Y-101329080D01*
X136592167Y-101506341D01*
X136053625Y-101794199D01*
X135581589Y-102181589D01*
X135194199Y-102653625D01*
X134906341Y-103192167D01*
X134729080Y-103776520D01*
X134669226Y-104384225D01*
X128930774Y-104384225D01*
X128870920Y-103776519D01*
X128693659Y-103192167D01*
X128405801Y-102653625D01*
X128018412Y-102181588D01*
X127546375Y-101794199D01*
X127007833Y-101506341D01*
X126423481Y-101329080D01*
X125815775Y-101269226D01*
X125208069Y-101329080D01*
X124623716Y-101506341D01*
X124085174Y-101794199D01*
X123731427Y-102084511D01*
X118884511Y-106931428D01*
X118594199Y-107285175D01*
X118306341Y-107823717D01*
X118129080Y-108408070D01*
X118069226Y-109015775D01*
X116675000Y-109015775D01*
X116675000Y-108216004D01*
X119803885Y-105087120D01*
X119829639Y-105065984D01*
X119913991Y-104963202D01*
X119976669Y-104845939D01*
X120004995Y-104752560D01*
X120015266Y-104718703D01*
X120017855Y-104692411D01*
X120025033Y-104619537D01*
X120025033Y-104619531D01*
X120028298Y-104586379D01*
X120025033Y-104553227D01*
X120025033Y-97897694D01*
X126700000Y-97897694D01*
X126700000Y-98902306D01*
X126895990Y-99887615D01*
X127280438Y-100815756D01*
X127838571Y-101651061D01*
X128548939Y-102361429D01*
X129384244Y-102919562D01*
X130312385Y-103304010D01*
X131297694Y-103500000D01*
X132302306Y-103500000D01*
X133287615Y-103304010D01*
X134215756Y-102919562D01*
X135051061Y-102361429D01*
X135761429Y-101651061D01*
X136319562Y-100815756D01*
X136704010Y-99887615D01*
X136900000Y-98902306D01*
X136900000Y-97897694D01*
X136704010Y-96912385D01*
X136319562Y-95984244D01*
X135761429Y-95148939D01*
X135051061Y-94438571D01*
X134215756Y-93880438D01*
X133287615Y-93495990D01*
X132302306Y-93300000D01*
X131297694Y-93300000D01*
X130312385Y-93495990D01*
X129384244Y-93880438D01*
X128548939Y-94438571D01*
X127838571Y-95148939D01*
X127280438Y-95984244D01*
X126895990Y-96912385D01*
X126700000Y-97897694D01*
X120025033Y-97897694D01*
X120025033Y-94173952D01*
X120028298Y-94140800D01*
X120025033Y-94107648D01*
X120025033Y-94107641D01*
X120015266Y-94008477D01*
X120004615Y-93973364D01*
X119976669Y-93881238D01*
X119919588Y-93774448D01*
X119913991Y-93763976D01*
X119905115Y-93753161D01*
X119850777Y-93686950D01*
X119850771Y-93686944D01*
X119829638Y-93661194D01*
X119803889Y-93640062D01*
X115775000Y-89611174D01*
X115775000Y-87784225D01*
X118069226Y-87784225D01*
X118129080Y-88391930D01*
X118306341Y-88976283D01*
X118594199Y-89514825D01*
X118884511Y-89868572D01*
X123731427Y-94715489D01*
X124085174Y-95005801D01*
X124623716Y-95293659D01*
X125208069Y-95470920D01*
X125815775Y-95530774D01*
X126423481Y-95470920D01*
X127007833Y-95293659D01*
X127546375Y-95005801D01*
X128018412Y-94618412D01*
X128405801Y-94146375D01*
X128693659Y-93607833D01*
X128870920Y-93023481D01*
X128930774Y-92415775D01*
X134669226Y-92415775D01*
X134729080Y-93023480D01*
X134906341Y-93607833D01*
X135194199Y-94146375D01*
X135581589Y-94618411D01*
X136053625Y-95005801D01*
X136592167Y-95293659D01*
X137176520Y-95470920D01*
X137784225Y-95530774D01*
X138391930Y-95470920D01*
X138976283Y-95293659D01*
X139514825Y-95005801D01*
X139868572Y-94715489D01*
X144676164Y-89907897D01*
X152985329Y-89907897D01*
X153012360Y-90182345D01*
X153092413Y-90446246D01*
X153222413Y-90689459D01*
X153397364Y-90902636D01*
X153610541Y-91077587D01*
X153853754Y-91207587D01*
X154117655Y-91287640D01*
X154323326Y-91307897D01*
X154460880Y-91307897D01*
X154666551Y-91287640D01*
X154930452Y-91207587D01*
X155173665Y-91077587D01*
X155386842Y-90902636D01*
X155561793Y-90689459D01*
X155691793Y-90446246D01*
X155771846Y-90182345D01*
X155798877Y-89907897D01*
X155771846Y-89633449D01*
X155691793Y-89369548D01*
X155561793Y-89126335D01*
X155386842Y-88913158D01*
X155173665Y-88738207D01*
X154930452Y-88608207D01*
X154666551Y-88528154D01*
X154460880Y-88507897D01*
X154323326Y-88507897D01*
X154117655Y-88528154D01*
X153853754Y-88608207D01*
X153610541Y-88738207D01*
X153397364Y-88913158D01*
X153222413Y-89126335D01*
X153092413Y-89369548D01*
X153012360Y-89633449D01*
X152985329Y-89907897D01*
X144676164Y-89907897D01*
X144715489Y-89868573D01*
X145005801Y-89514826D01*
X145293659Y-88976284D01*
X145470920Y-88391931D01*
X145530774Y-87784225D01*
X145470920Y-87176519D01*
X145293659Y-86592167D01*
X145005801Y-86053625D01*
X144618412Y-85581588D01*
X144146375Y-85194199D01*
X143607833Y-84906341D01*
X143023481Y-84729080D01*
X142415775Y-84669226D01*
X141808069Y-84729080D01*
X141223716Y-84906341D01*
X140685174Y-85194199D01*
X140331427Y-85484511D01*
X135484511Y-90331428D01*
X135194199Y-90685175D01*
X134906341Y-91223717D01*
X134729080Y-91808070D01*
X134669226Y-92415775D01*
X128930774Y-92415775D01*
X128870920Y-91808069D01*
X128693659Y-91223716D01*
X128405801Y-90685174D01*
X128115489Y-90331427D01*
X123268572Y-85484511D01*
X122914825Y-85194199D01*
X122376283Y-84906341D01*
X121791930Y-84729080D01*
X121184225Y-84669226D01*
X120576520Y-84729080D01*
X119992167Y-84906341D01*
X119453625Y-85194199D01*
X118981589Y-85581589D01*
X118594199Y-86053625D01*
X118306341Y-86592167D01*
X118129080Y-87176520D01*
X118069226Y-87784225D01*
X115775000Y-87784225D01*
X115775000Y-86979594D01*
X120279594Y-82475000D01*
X120380249Y-82475000D01*
X120497374Y-82553260D01*
X120652064Y-82617335D01*
X120816282Y-82650000D01*
X120983718Y-82650000D01*
X121147936Y-82617335D01*
X121302626Y-82553260D01*
X121441844Y-82460238D01*
X121560238Y-82341844D01*
X121653260Y-82202626D01*
X121717335Y-82047936D01*
X121750000Y-81883718D01*
X121750000Y-81716282D01*
X121717335Y-81552064D01*
X121653260Y-81397374D01*
X121571493Y-81275000D01*
X125680249Y-81275000D01*
X125797374Y-81353260D01*
X125952064Y-81417335D01*
X126116282Y-81450000D01*
X126283718Y-81450000D01*
X126447936Y-81417335D01*
X126602626Y-81353260D01*
X126741844Y-81260238D01*
X126860238Y-81141844D01*
X126953260Y-81002626D01*
X127017335Y-80847936D01*
X127050000Y-80683718D01*
X127050000Y-80516282D01*
X127017335Y-80352064D01*
X126953260Y-80197374D01*
X126860238Y-80058156D01*
X126741844Y-79939762D01*
X126602626Y-79846740D01*
X126447936Y-79782665D01*
X126283718Y-79750000D01*
X126116282Y-79750000D01*
X125952064Y-79782665D01*
X125797374Y-79846740D01*
X125680249Y-79925000D01*
X121329594Y-79925000D01*
X122379594Y-78875000D01*
X125625734Y-78875000D01*
X125659210Y-78915790D01*
X125742958Y-78984521D01*
X125838506Y-79035592D01*
X125942181Y-79067042D01*
X126050000Y-79077661D01*
X127400000Y-79077661D01*
X127500000Y-79067812D01*
X127500000Y-81597339D01*
X127375000Y-81597339D01*
X127267181Y-81607958D01*
X127163506Y-81639408D01*
X127067958Y-81690479D01*
X126984210Y-81759210D01*
X126915479Y-81842958D01*
X126864408Y-81938506D01*
X126832958Y-82042181D01*
X126822339Y-82150000D01*
X126822339Y-83150000D01*
X126832958Y-83257819D01*
X126864408Y-83361494D01*
X126915479Y-83457042D01*
X126984210Y-83540790D01*
X127067958Y-83609521D01*
X127163506Y-83660592D01*
X127267181Y-83692042D01*
X127375000Y-83702661D01*
X130525000Y-83702661D01*
X130632819Y-83692042D01*
X130736494Y-83660592D01*
X130832042Y-83609521D01*
X130915790Y-83540790D01*
X130984521Y-83457042D01*
X131035592Y-83361494D01*
X131067042Y-83257819D01*
X131077661Y-83150000D01*
X131077661Y-82150000D01*
X131067042Y-82042181D01*
X131035592Y-81938506D01*
X130984521Y-81842958D01*
X130915790Y-81759210D01*
X130832042Y-81690479D01*
X130736494Y-81639408D01*
X130632819Y-81607958D01*
X130525000Y-81597339D01*
X129100000Y-81597339D01*
X129100000Y-78629568D01*
X129109210Y-78640790D01*
X129192958Y-78709521D01*
X129288506Y-78760592D01*
X129392181Y-78792042D01*
X129500000Y-78802661D01*
X130247339Y-78802661D01*
X130247339Y-80250000D01*
X130257958Y-80357819D01*
X130289408Y-80461494D01*
X130340479Y-80557042D01*
X130409210Y-80640790D01*
X130492958Y-80709521D01*
X130588506Y-80760592D01*
X130692181Y-80792042D01*
X130800000Y-80802661D01*
X132600000Y-80802661D01*
X132707819Y-80792042D01*
X132811494Y-80760592D01*
X132907042Y-80709521D01*
X132990790Y-80640790D01*
X133059521Y-80557042D01*
X133110592Y-80461494D01*
X133142042Y-80357819D01*
X133152661Y-80250000D01*
X133152661Y-78802661D01*
X133900000Y-78802661D01*
X134007819Y-78792042D01*
X134100000Y-78764079D01*
X134100000Y-80418629D01*
X133462098Y-81056532D01*
X133431579Y-81081578D01*
X133406532Y-81112098D01*
X133406531Y-81112099D01*
X133331607Y-81203394D01*
X133257321Y-81342373D01*
X133211577Y-81493173D01*
X133201317Y-81597339D01*
X132425000Y-81597339D01*
X132317181Y-81607958D01*
X132213506Y-81639408D01*
X132117958Y-81690479D01*
X132034210Y-81759210D01*
X131965479Y-81842958D01*
X131914408Y-81938506D01*
X131882958Y-82042181D01*
X131872339Y-82150000D01*
X131872339Y-83150000D01*
X131882958Y-83257819D01*
X131914408Y-83361494D01*
X131965479Y-83457042D01*
X132034210Y-83540790D01*
X132117958Y-83609521D01*
X132213506Y-83660592D01*
X132317181Y-83692042D01*
X132425000Y-83702661D01*
X135575000Y-83702661D01*
X135682819Y-83692042D01*
X135786494Y-83660592D01*
X135882042Y-83609521D01*
X135965790Y-83540790D01*
X136034521Y-83457042D01*
X136085592Y-83361494D01*
X136117042Y-83257819D01*
X136127661Y-83150000D01*
X136127661Y-82150000D01*
X136117042Y-82042181D01*
X136085592Y-81938506D01*
X136034521Y-81842958D01*
X135965790Y-81759210D01*
X135882042Y-81690479D01*
X135786494Y-81639408D01*
X135682819Y-81607958D01*
X135575000Y-81597339D01*
X135184032Y-81597339D01*
X135437903Y-81343468D01*
X135468422Y-81318422D01*
X135532420Y-81240440D01*
X135568393Y-81196607D01*
X135642679Y-81057628D01*
X135647214Y-81042677D01*
X135688424Y-80906827D01*
X135700000Y-80789293D01*
X135700000Y-80789284D01*
X135703869Y-80750001D01*
X135700000Y-80710718D01*
X135700000Y-78988285D01*
X135788506Y-79035592D01*
X135892181Y-79067042D01*
X136000000Y-79077661D01*
X136000001Y-81141838D01*
X135996735Y-81175000D01*
X136009767Y-81307323D01*
X136048365Y-81434561D01*
X136111043Y-81551824D01*
X136174256Y-81628850D01*
X136174264Y-81628858D01*
X136195395Y-81654606D01*
X136221144Y-81675738D01*
X136455183Y-81909777D01*
X136482665Y-82047936D01*
X136546740Y-82202626D01*
X136639762Y-82341844D01*
X136758156Y-82460238D01*
X136897374Y-82553260D01*
X137052064Y-82617335D01*
X137216282Y-82650000D01*
X137383718Y-82650000D01*
X137547936Y-82617335D01*
X137702626Y-82553260D01*
X137841844Y-82460238D01*
X137960238Y-82341844D01*
X138053260Y-82202626D01*
X138117335Y-82047936D01*
X138150000Y-81883718D01*
X138150000Y-81716282D01*
X138117335Y-81552064D01*
X138053260Y-81397374D01*
X137960238Y-81258156D01*
X137841844Y-81139762D01*
X137702626Y-81046740D01*
X137547936Y-80982665D01*
X137409777Y-80955183D01*
X137350000Y-80895407D01*
X137350000Y-79700000D01*
X144270526Y-79700000D01*
X144288385Y-79881331D01*
X144341277Y-80055694D01*
X144427170Y-80216388D01*
X144542762Y-80357238D01*
X144683612Y-80472830D01*
X144844306Y-80558723D01*
X145018669Y-80611615D01*
X145200000Y-80629474D01*
X145381331Y-80611615D01*
X145555694Y-80558723D01*
X145716388Y-80472830D01*
X145821946Y-80386201D01*
X146445449Y-79762698D01*
X146542181Y-79792042D01*
X146650000Y-79802661D01*
X149350000Y-79802661D01*
X149457819Y-79792042D01*
X149561494Y-79760592D01*
X149657042Y-79709521D01*
X149740790Y-79640790D01*
X149809521Y-79557042D01*
X149860592Y-79461494D01*
X149892042Y-79357819D01*
X149902661Y-79250000D01*
X149902661Y-77750000D01*
X149892042Y-77642181D01*
X149860592Y-77538506D01*
X149809521Y-77442958D01*
X149740790Y-77359210D01*
X149657042Y-77290479D01*
X149561494Y-77239408D01*
X149457819Y-77207958D01*
X149350000Y-77197339D01*
X146650000Y-77197339D01*
X146542181Y-77207958D01*
X146438506Y-77239408D01*
X146342958Y-77290479D01*
X146259210Y-77359210D01*
X146190479Y-77442958D01*
X146139408Y-77538506D01*
X146114711Y-77619920D01*
X146044305Y-77641277D01*
X145883611Y-77727170D01*
X145742762Y-77842762D01*
X145713796Y-77878057D01*
X144513799Y-79078054D01*
X144427170Y-79183612D01*
X144341277Y-79344306D01*
X144288385Y-79518669D01*
X144270526Y-79700000D01*
X137350000Y-79700000D01*
X137350000Y-79077661D01*
X137457819Y-79067042D01*
X137561494Y-79035592D01*
X137657042Y-78984521D01*
X137740790Y-78915790D01*
X137809521Y-78832042D01*
X137860592Y-78736494D01*
X137892042Y-78632819D01*
X137902661Y-78525000D01*
X137902661Y-77875000D01*
X137892042Y-77767181D01*
X137860592Y-77663506D01*
X137809521Y-77567958D01*
X137740790Y-77484210D01*
X137657042Y-77415479D01*
X137561494Y-77364408D01*
X137457819Y-77332958D01*
X137350000Y-77322339D01*
X136000000Y-77322339D01*
X135892181Y-77332958D01*
X135788506Y-77364408D01*
X135700000Y-77411715D01*
X135700000Y-76988285D01*
X135788506Y-77035592D01*
X135892181Y-77067042D01*
X136000000Y-77077661D01*
X137350000Y-77077661D01*
X137457819Y-77067042D01*
X137561494Y-77035592D01*
X137657042Y-76984521D01*
X137740790Y-76915790D01*
X137774266Y-76875000D01*
X137966876Y-76875000D01*
X138000028Y-76878265D01*
X138033180Y-76875000D01*
X138033187Y-76875000D01*
X138132351Y-76865233D01*
X138259589Y-76826636D01*
X138376852Y-76763958D01*
X138433978Y-76717075D01*
X138453878Y-76700744D01*
X138453880Y-76700742D01*
X138479634Y-76679606D01*
X138500770Y-76653852D01*
X139009778Y-76144844D01*
X139147936Y-76117363D01*
X139302626Y-76053288D01*
X139441844Y-75960266D01*
X139560238Y-75841872D01*
X139653260Y-75702654D01*
X139717335Y-75547964D01*
X139750000Y-75383746D01*
X139750000Y-75216310D01*
X139717335Y-75052092D01*
X139653260Y-74897402D01*
X139560238Y-74758184D01*
X139441844Y-74639790D01*
X139302626Y-74546768D01*
X139147936Y-74482693D01*
X138983718Y-74450028D01*
X138816282Y-74450028D01*
X138652064Y-74482693D01*
X138497374Y-74546768D01*
X138358156Y-74639790D01*
X138239762Y-74758184D01*
X138146740Y-74897402D01*
X138082665Y-75052092D01*
X138055184Y-75190250D01*
X137750001Y-75495433D01*
X137740790Y-75484210D01*
X137657042Y-75415479D01*
X137561494Y-75364408D01*
X137457819Y-75332958D01*
X137350000Y-75322339D01*
X136000000Y-75322339D01*
X135892181Y-75332958D01*
X135788506Y-75364408D01*
X135700000Y-75411715D01*
X135700000Y-75131370D01*
X135794086Y-75037285D01*
X135892181Y-75067042D01*
X136000000Y-75077661D01*
X137350000Y-75077661D01*
X137457819Y-75067042D01*
X137561494Y-75035592D01*
X137657042Y-74984521D01*
X137740790Y-74915790D01*
X137809521Y-74832042D01*
X137860592Y-74736494D01*
X137892042Y-74632819D01*
X137902661Y-74525000D01*
X137902661Y-74100000D01*
X140022339Y-74100000D01*
X140022339Y-75600000D01*
X140032958Y-75707819D01*
X140064408Y-75811494D01*
X140115479Y-75907042D01*
X140184210Y-75990790D01*
X140267958Y-76059521D01*
X140363506Y-76110592D01*
X140467181Y-76142042D01*
X140575000Y-76152661D01*
X141825000Y-76152661D01*
X141932819Y-76142042D01*
X142036494Y-76110592D01*
X142132042Y-76059521D01*
X142215790Y-75990790D01*
X142284521Y-75907042D01*
X142324360Y-75832508D01*
X142978053Y-76486201D01*
X143083612Y-76572830D01*
X143244305Y-76658723D01*
X143418668Y-76711615D01*
X143600000Y-76729474D01*
X143781331Y-76711615D01*
X143955694Y-76658723D01*
X144116388Y-76572830D01*
X144257238Y-76457238D01*
X144372830Y-76316388D01*
X144458723Y-76155694D01*
X144511615Y-75981331D01*
X144529474Y-75800000D01*
X144511615Y-75618668D01*
X144458723Y-75444305D01*
X144372830Y-75283612D01*
X144286201Y-75178053D01*
X143336203Y-74228056D01*
X143307238Y-74192762D01*
X143166389Y-74077170D01*
X143005695Y-73991277D01*
X142831332Y-73938385D01*
X142695435Y-73925000D01*
X142695427Y-73925000D01*
X142650000Y-73920526D01*
X142604573Y-73925000D01*
X142346663Y-73925000D01*
X142335592Y-73888506D01*
X142284521Y-73792958D01*
X142215790Y-73709210D01*
X142132042Y-73640479D01*
X142036494Y-73589408D01*
X141932819Y-73557958D01*
X141825000Y-73547339D01*
X140575000Y-73547339D01*
X140467181Y-73557958D01*
X140363506Y-73589408D01*
X140267958Y-73640479D01*
X140184210Y-73709210D01*
X140115479Y-73792958D01*
X140064408Y-73888506D01*
X140032958Y-73992181D01*
X140022339Y-74100000D01*
X137902661Y-74100000D01*
X137902661Y-73875000D01*
X137892042Y-73767181D01*
X137871663Y-73700000D01*
X137892042Y-73632819D01*
X137902661Y-73525000D01*
X137902661Y-73347643D01*
X138529254Y-72721051D01*
X138547936Y-72717335D01*
X138702626Y-72653260D01*
X138841844Y-72560238D01*
X138960238Y-72441844D01*
X139053260Y-72302626D01*
X139117335Y-72147936D01*
X139150000Y-71983718D01*
X139150000Y-71816282D01*
X139117335Y-71652064D01*
X139053260Y-71497374D01*
X138960238Y-71358156D01*
X138841844Y-71239762D01*
X138702626Y-71146740D01*
X138547936Y-71082665D01*
X138383718Y-71050000D01*
X138216282Y-71050000D01*
X138052064Y-71082665D01*
X137897374Y-71146740D01*
X137758156Y-71239762D01*
X137639762Y-71358156D01*
X137546740Y-71497374D01*
X137482665Y-71652064D01*
X137466534Y-71733162D01*
X136877357Y-72322339D01*
X136000000Y-72322339D01*
X135892181Y-72332958D01*
X135788506Y-72364408D01*
X135692958Y-72415479D01*
X135609210Y-72484210D01*
X135540479Y-72567958D01*
X135489408Y-72663506D01*
X135457958Y-72767181D01*
X135447339Y-72875000D01*
X135447339Y-73401317D01*
X135343173Y-73411576D01*
X135239012Y-73443173D01*
X135192372Y-73457321D01*
X135053393Y-73531607D01*
X134970057Y-73599999D01*
X134931578Y-73631578D01*
X134906531Y-73662098D01*
X134452661Y-74115969D01*
X134452661Y-73150000D01*
X134442042Y-73042181D01*
X134410592Y-72938506D01*
X134359521Y-72842958D01*
X134290790Y-72759210D01*
X134207042Y-72690479D01*
X134111494Y-72639408D01*
X134007819Y-72607958D01*
X133900000Y-72597339D01*
X133152661Y-72597339D01*
X133152661Y-71150000D01*
X133142042Y-71042181D01*
X133110592Y-70938506D01*
X133059521Y-70842958D01*
X132990790Y-70759210D01*
X132907042Y-70690479D01*
X132811494Y-70639408D01*
X132707819Y-70607958D01*
X132600000Y-70597339D01*
X130800000Y-70597339D01*
X130692181Y-70607958D01*
X130588506Y-70639408D01*
X130492958Y-70690479D01*
X130409210Y-70759210D01*
X130340479Y-70842958D01*
X130289408Y-70938506D01*
X130257958Y-71042181D01*
X130247339Y-71150000D01*
X130247339Y-72597339D01*
X129500000Y-72597339D01*
X129392181Y-72607958D01*
X129288506Y-72639408D01*
X129192958Y-72690479D01*
X129109210Y-72759210D01*
X129040479Y-72842958D01*
X128989408Y-72938506D01*
X128957958Y-73042181D01*
X128949297Y-73130125D01*
X128868422Y-73031578D01*
X128837897Y-73006527D01*
X128493473Y-72662103D01*
X128468422Y-72631578D01*
X128346606Y-72531607D01*
X128207628Y-72457321D01*
X128056827Y-72411576D01*
X127939293Y-72400000D01*
X127939291Y-72400000D01*
X127900000Y-72396130D01*
X127860709Y-72400000D01*
X127678083Y-72400000D01*
X127611494Y-72364408D01*
X127507819Y-72332958D01*
X127400000Y-72322339D01*
X126050000Y-72322339D01*
X125942181Y-72332958D01*
X125838506Y-72364408D01*
X125742958Y-72415479D01*
X125659210Y-72484210D01*
X125590479Y-72567958D01*
X125539408Y-72663506D01*
X125507958Y-72767181D01*
X125497339Y-72875000D01*
X125497339Y-73525000D01*
X123633152Y-73525000D01*
X123600000Y-73521735D01*
X123566848Y-73525000D01*
X123566841Y-73525000D01*
X123480192Y-73533534D01*
X123467676Y-73534767D01*
X123429079Y-73546476D01*
X123340439Y-73573364D01*
X123223176Y-73636042D01*
X123223174Y-73636043D01*
X123223175Y-73636043D01*
X123146149Y-73699256D01*
X123146142Y-73699263D01*
X123120394Y-73720394D01*
X123099262Y-73746143D01*
X122390222Y-74455184D01*
X122252064Y-74482665D01*
X122097374Y-74546740D01*
X121958156Y-74639762D01*
X121839762Y-74758156D01*
X121746740Y-74897374D01*
X121682665Y-75052064D01*
X121659096Y-75170551D01*
X121560677Y-75104790D01*
X121405987Y-75040715D01*
X121241769Y-75008050D01*
X121074333Y-75008050D01*
X120910115Y-75040715D01*
X120755425Y-75104790D01*
X120616207Y-75197812D01*
X120497813Y-75316206D01*
X120404791Y-75455424D01*
X120340716Y-75610114D01*
X120308051Y-75774332D01*
X120308051Y-75941768D01*
X120340716Y-76105986D01*
X120404791Y-76260676D01*
X120497813Y-76399894D01*
X120616207Y-76518288D01*
X120755425Y-76611310D01*
X120910115Y-76675385D01*
X121048886Y-76702988D01*
X121123177Y-76763958D01*
X121240440Y-76826636D01*
X121367678Y-76865233D01*
X121466842Y-76875000D01*
X121466849Y-76875000D01*
X121500001Y-76878265D01*
X121533153Y-76875000D01*
X121670406Y-76875000D01*
X113296111Y-85249295D01*
X113270361Y-85270428D01*
X113249230Y-85296176D01*
X113249223Y-85296183D01*
X113194416Y-85362966D01*
X113186009Y-85373210D01*
X113123331Y-85490473D01*
X113106263Y-85546740D01*
X113084734Y-85617710D01*
X113084467Y-85620417D01*
X113074967Y-85716875D01*
X113074967Y-85716881D01*
X113071702Y-85750033D01*
X113074967Y-85783185D01*
X113074968Y-90416805D01*
X113071702Y-90449967D01*
X113084734Y-90582290D01*
X113123332Y-90709528D01*
X113186010Y-90826791D01*
X113249223Y-90903817D01*
X113249231Y-90903825D01*
X113270362Y-90929573D01*
X113296110Y-90950704D01*
X117325000Y-94979594D01*
X117325001Y-103747583D01*
X114146122Y-106926462D01*
X114120372Y-106947595D01*
X114099241Y-106973343D01*
X114099234Y-106973350D01*
X114048745Y-107034872D01*
X114036020Y-107050377D01*
X113973342Y-107167640D01*
X113948359Y-107250000D01*
X113937689Y-107285174D01*
X113934745Y-107294878D01*
X113924978Y-107394042D01*
X113924978Y-107394048D01*
X113921713Y-107427200D01*
X113924978Y-107460352D01*
X113924979Y-111370385D01*
X111275000Y-108720406D01*
X111275000Y-103054783D01*
X111292958Y-103069521D01*
X111388506Y-103120592D01*
X111492181Y-103152042D01*
X111600000Y-103162661D01*
X112424998Y-103162661D01*
X112424999Y-104280248D01*
X112346738Y-104397374D01*
X112282663Y-104552064D01*
X112249998Y-104716282D01*
X112249998Y-104883718D01*
X112282663Y-105047936D01*
X112346738Y-105202626D01*
X112439760Y-105341844D01*
X112558154Y-105460238D01*
X112697372Y-105553260D01*
X112852062Y-105617335D01*
X113016280Y-105650000D01*
X113183716Y-105650000D01*
X113347934Y-105617335D01*
X113502624Y-105553260D01*
X113641842Y-105460238D01*
X113760236Y-105341844D01*
X113853258Y-105202626D01*
X113917333Y-105047936D01*
X113949998Y-104883718D01*
X113949998Y-104716282D01*
X113917333Y-104552064D01*
X113853258Y-104397374D01*
X113774998Y-104280249D01*
X113774998Y-103162661D01*
X115250000Y-103162661D01*
X115357819Y-103152042D01*
X115461494Y-103120592D01*
X115557042Y-103069521D01*
X115640790Y-103000790D01*
X115709521Y-102917042D01*
X115760592Y-102821494D01*
X115792042Y-102717819D01*
X115802661Y-102610000D01*
X115802661Y-101610000D01*
X115792042Y-101502181D01*
X115760592Y-101398506D01*
X115709521Y-101302958D01*
X115640790Y-101219210D01*
X115557042Y-101150479D01*
X115461494Y-101099408D01*
X115357819Y-101067958D01*
X115250000Y-101057339D01*
X111600000Y-101057339D01*
X111492181Y-101067958D01*
X111450000Y-101080754D01*
X111450000Y-101016282D01*
X111417335Y-100852064D01*
X111353260Y-100697374D01*
X111260238Y-100558156D01*
X111141844Y-100439762D01*
X111002626Y-100346740D01*
X110847936Y-100282665D01*
X110683718Y-100250000D01*
X110516282Y-100250000D01*
X110352064Y-100282665D01*
X110197374Y-100346740D01*
X110058156Y-100439762D01*
X109939762Y-100558156D01*
X109846740Y-100697374D01*
X109782665Y-100852064D01*
X109750000Y-101016282D01*
X109750000Y-101183718D01*
X109782665Y-101347936D01*
X109846740Y-101502626D01*
X109925001Y-101619752D01*
X109925000Y-108270406D01*
X109250000Y-107595406D01*
X109250000Y-103157737D01*
X109307819Y-103152042D01*
X109411494Y-103120592D01*
X109507042Y-103069521D01*
X109590790Y-103000790D01*
X109659521Y-102917042D01*
X109710592Y-102821494D01*
X109742042Y-102717819D01*
X109752661Y-102610000D01*
X109752661Y-101610000D01*
X109742042Y-101502181D01*
X109710592Y-101398506D01*
X109659521Y-101302958D01*
X109590790Y-101219210D01*
X109507042Y-101150479D01*
X109411494Y-101099408D01*
X109307819Y-101067958D01*
X109200000Y-101057339D01*
X105550000Y-101057339D01*
X105442181Y-101067958D01*
X105375000Y-101088337D01*
X105375000Y-100591663D01*
X105442181Y-100612042D01*
X105550000Y-100622661D01*
X109200000Y-100622661D01*
X109307819Y-100612042D01*
X109411494Y-100580592D01*
X109507042Y-100529521D01*
X109590790Y-100460790D01*
X109659521Y-100377042D01*
X109710592Y-100281494D01*
X109742042Y-100177819D01*
X109752169Y-100075000D01*
X109780249Y-100075000D01*
X109897374Y-100153260D01*
X110052064Y-100217335D01*
X110216282Y-100250000D01*
X110383718Y-100250000D01*
X110547936Y-100217335D01*
X110702626Y-100153260D01*
X110841844Y-100060238D01*
X110960238Y-99941844D01*
X111053260Y-99802626D01*
X111117335Y-99647936D01*
X111150000Y-99483718D01*
X111150000Y-99316282D01*
X111117335Y-99152064D01*
X111053260Y-98997374D01*
X110960238Y-98858156D01*
X110841844Y-98739762D01*
X110702626Y-98646740D01*
X110547936Y-98582665D01*
X110383718Y-98550000D01*
X110216282Y-98550000D01*
X110052064Y-98582665D01*
X109897374Y-98646740D01*
X109780249Y-98725000D01*
X109628369Y-98725000D01*
X109590790Y-98679210D01*
X109507042Y-98610479D01*
X109411494Y-98559408D01*
X109307819Y-98527958D01*
X109200000Y-98517339D01*
X105550000Y-98517339D01*
X105442181Y-98527958D01*
X105375000Y-98548337D01*
X105375000Y-95879594D01*
X105711933Y-95542661D01*
X109200000Y-95542661D01*
X109307819Y-95532042D01*
X109411494Y-95500592D01*
X109507042Y-95449521D01*
X109534461Y-95427019D01*
X109482665Y-95552064D01*
X109450000Y-95716282D01*
X109450000Y-95883718D01*
X109482665Y-96047936D01*
X109546740Y-96202626D01*
X109639762Y-96341844D01*
X109758156Y-96460238D01*
X109897374Y-96553260D01*
X110052064Y-96617335D01*
X110216282Y-96650000D01*
X110383718Y-96650000D01*
X110547936Y-96617335D01*
X110702626Y-96553260D01*
X110819751Y-96475000D01*
X111052756Y-96475000D01*
X111047339Y-96530000D01*
X111047339Y-97530000D01*
X111057958Y-97637819D01*
X111089408Y-97741494D01*
X111140479Y-97837042D01*
X111209210Y-97920790D01*
X111292958Y-97989521D01*
X111388506Y-98040592D01*
X111492181Y-98072042D01*
X111600000Y-98082661D01*
X115250000Y-98082661D01*
X115357819Y-98072042D01*
X115461494Y-98040592D01*
X115557042Y-97989521D01*
X115640790Y-97920790D01*
X115709521Y-97837042D01*
X115760592Y-97741494D01*
X115792042Y-97637819D01*
X115802661Y-97530000D01*
X115802661Y-96530000D01*
X115792042Y-96422181D01*
X115760592Y-96318506D01*
X115709521Y-96222958D01*
X115640790Y-96139210D01*
X115557042Y-96070479D01*
X115461494Y-96019408D01*
X115357819Y-95987958D01*
X115250000Y-95977339D01*
X113526933Y-95977339D01*
X113092255Y-95542661D01*
X115250000Y-95542661D01*
X115357819Y-95532042D01*
X115461494Y-95500592D01*
X115557042Y-95449521D01*
X115640790Y-95380790D01*
X115709521Y-95297042D01*
X115760592Y-95201494D01*
X115792042Y-95097819D01*
X115802661Y-94990000D01*
X115802661Y-93990000D01*
X115792042Y-93882181D01*
X115760592Y-93778506D01*
X115709521Y-93682958D01*
X115640790Y-93599210D01*
X115557042Y-93530479D01*
X115461494Y-93479408D01*
X115357819Y-93447958D01*
X115250000Y-93437339D01*
X111951933Y-93437339D01*
X111460742Y-92946148D01*
X111439606Y-92920394D01*
X111336824Y-92836042D01*
X111219561Y-92773364D01*
X111092323Y-92734767D01*
X110993159Y-92725000D01*
X110993152Y-92725000D01*
X110960000Y-92721735D01*
X110926848Y-92725000D01*
X105433151Y-92725000D01*
X105399999Y-92721735D01*
X105366847Y-92725000D01*
X105366841Y-92725000D01*
X105281499Y-92733406D01*
X105267676Y-92734767D01*
X105229079Y-92746476D01*
X105140439Y-92773364D01*
X105023176Y-92836042D01*
X104920394Y-92920394D01*
X104899258Y-92946148D01*
X103746143Y-94099263D01*
X103720395Y-94120394D01*
X103699264Y-94146142D01*
X103699256Y-94146150D01*
X103636043Y-94223176D01*
X103573365Y-94340439D01*
X103534767Y-94467677D01*
X103521735Y-94600000D01*
X102175616Y-94600000D01*
X102201246Y-94345475D01*
X102516922Y-92527367D01*
X102555579Y-92553197D01*
X102710269Y-92617272D01*
X102874487Y-92649937D01*
X103041923Y-92649937D01*
X103206141Y-92617272D01*
X103360831Y-92553197D01*
X103500049Y-92460175D01*
X103618443Y-92341781D01*
X103711465Y-92202563D01*
X103775540Y-92047873D01*
X103808205Y-91883655D01*
X103808205Y-91716219D01*
X103775540Y-91552001D01*
X103711465Y-91397311D01*
X103618443Y-91258093D01*
X103500049Y-91139699D01*
X103360831Y-91046677D01*
X103206141Y-90982602D01*
X103041923Y-90949937D01*
X102887242Y-90949937D01*
X103082149Y-90165289D01*
X103744405Y-88133110D01*
X104232355Y-86934437D01*
X104258156Y-86960238D01*
X104397374Y-87053260D01*
X104552064Y-87117335D01*
X104716282Y-87150000D01*
X104883718Y-87150000D01*
X105047936Y-87117335D01*
X105202626Y-87053260D01*
X105341844Y-86960238D01*
X105460238Y-86841844D01*
X105553260Y-86702626D01*
X105617335Y-86547936D01*
X105650000Y-86383718D01*
X105650000Y-86216282D01*
X105617335Y-86052064D01*
X105553260Y-85897374D01*
X105460238Y-85758156D01*
X105341844Y-85639762D01*
X105202626Y-85546740D01*
X105047936Y-85482665D01*
X104895978Y-85452439D01*
X105495595Y-84236537D01*
X106575565Y-82392087D01*
X106998353Y-81775775D01*
X107019152Y-81806903D01*
X107137546Y-81925297D01*
X107276764Y-82018319D01*
X107431454Y-82082394D01*
X107595672Y-82115059D01*
X107763108Y-82115059D01*
X107927326Y-82082394D01*
X108082016Y-82018319D01*
X108221234Y-81925297D01*
X108339628Y-81806903D01*
X108432650Y-81667685D01*
X108496725Y-81512995D01*
X108529390Y-81348777D01*
X108529390Y-81181341D01*
X108496725Y-81017123D01*
X108432650Y-80862433D01*
X108339628Y-80723215D01*
X108221234Y-80604821D01*
X108082016Y-80511799D01*
X107928999Y-80448417D01*
X109116645Y-78958014D01*
X110564749Y-77385968D01*
X110713674Y-77245873D01*
X110732462Y-77291231D01*
X110825484Y-77430449D01*
X110943878Y-77548843D01*
X111083096Y-77641865D01*
X111237786Y-77705940D01*
X111402004Y-77738605D01*
X111569440Y-77738605D01*
X111733658Y-77705940D01*
X111888348Y-77641865D01*
X112027566Y-77548843D01*
X112145960Y-77430449D01*
X112238982Y-77291231D01*
X112303057Y-77136541D01*
X112335722Y-76972323D01*
X112335722Y-76804887D01*
X112303057Y-76640669D01*
X112238982Y-76485979D01*
X112145960Y-76346761D01*
X112027566Y-76228367D01*
X111891770Y-76137631D01*
X112121544Y-75921481D01*
X113779062Y-74572049D01*
X115246594Y-73542563D01*
X115255385Y-73586757D01*
X115319460Y-73741447D01*
X115412482Y-73880665D01*
X115530876Y-73999059D01*
X115670094Y-74092081D01*
X115824784Y-74156156D01*
X115989002Y-74188821D01*
X116156438Y-74188821D01*
X116320656Y-74156156D01*
X116475346Y-74092081D01*
X116614564Y-73999059D01*
X116732958Y-73880665D01*
X116825980Y-73741447D01*
X116890055Y-73586757D01*
X116922720Y-73422539D01*
X116922720Y-73255103D01*
X116890055Y-73090885D01*
X116825980Y-72936195D01*
X116732958Y-72796977D01*
X116623881Y-72687900D01*
X117361860Y-72245354D01*
X119268800Y-71279999D01*
X120414109Y-70799731D01*
X120414109Y-70835843D01*
X120446774Y-71000061D01*
X120510849Y-71154751D01*
X120603871Y-71293969D01*
X120722265Y-71412363D01*
X120861483Y-71505385D01*
X121016173Y-71569460D01*
X121180391Y-71602125D01*
X121347827Y-71602125D01*
X121512045Y-71569460D01*
X121666735Y-71505385D01*
X121805953Y-71412363D01*
X121924347Y-71293969D01*
X122017369Y-71154751D01*
X122081444Y-71000061D01*
X122114109Y-70835843D01*
X122114109Y-70668407D01*
X122081444Y-70504189D01*
X122017369Y-70349499D01*
X121930978Y-70220205D01*
X123265013Y-69769956D01*
X125333831Y-69232997D01*
X126017817Y-69106845D01*
X126010386Y-69144203D01*
X126010386Y-69311639D01*
X126043051Y-69475857D01*
X126107126Y-69630547D01*
X126200148Y-69769765D01*
X126318542Y-69888159D01*
X126457760Y-69981181D01*
X126612450Y-70045256D01*
X126776668Y-70077921D01*
X126944104Y-70077921D01*
X127108322Y-70045256D01*
X127263012Y-69981181D01*
X127402230Y-69888159D01*
X127520624Y-69769765D01*
X127613646Y-69630547D01*
X127677721Y-69475857D01*
X127710386Y-69311639D01*
X127710386Y-69144203D01*
X127677721Y-68979985D01*
X127613739Y-68825519D01*
X129559998Y-68608931D01*
X131695716Y-68525018D01*
X131848578Y-68529955D01*
X131848578Y-68529955D01*
G37*
X131848578Y-68529955D02*
X131829155Y-68576847D01*
X131796490Y-68741065D01*
X131796490Y-68908501D01*
X131829155Y-69072719D01*
X131893230Y-69227409D01*
X131986252Y-69366627D01*
X132104646Y-69485021D01*
X132243864Y-69578043D01*
X132398554Y-69642118D01*
X132562772Y-69674783D01*
X132730208Y-69674783D01*
X132894426Y-69642118D01*
X133049116Y-69578043D01*
X133188334Y-69485021D01*
X133306728Y-69366627D01*
X133399750Y-69227409D01*
X133463825Y-69072719D01*
X133496490Y-68908501D01*
X133496490Y-68741065D01*
X133464882Y-68582162D01*
X133831968Y-68594019D01*
X135957819Y-68815579D01*
X137671099Y-69119218D01*
X137646803Y-69155579D01*
X137582728Y-69310269D01*
X137550063Y-69474487D01*
X137550063Y-69641923D01*
X137582728Y-69806141D01*
X137646803Y-69960831D01*
X137739825Y-70100049D01*
X137858219Y-70218443D01*
X137997437Y-70311465D01*
X138152127Y-70375540D01*
X138316345Y-70408205D01*
X138483781Y-70408205D01*
X138647999Y-70375540D01*
X138802689Y-70311465D01*
X138941907Y-70218443D01*
X139060301Y-70100049D01*
X139153323Y-69960831D01*
X139217398Y-69806141D01*
X139250063Y-69641923D01*
X139250063Y-69487991D01*
X140134905Y-69711069D01*
X142164759Y-70380414D01*
X143265100Y-70832818D01*
X143239762Y-70858156D01*
X143146740Y-70997374D01*
X143082665Y-71152064D01*
X143050000Y-71316282D01*
X143050000Y-71483718D01*
X143082665Y-71647936D01*
X143146740Y-71802626D01*
X143239762Y-71941844D01*
X143358156Y-72060238D01*
X143497374Y-72153260D01*
X143652064Y-72217335D01*
X143816282Y-72250000D01*
X143983718Y-72250000D01*
X144147936Y-72217335D01*
X144302626Y-72153260D01*
X144441844Y-72060238D01*
X144560238Y-71941844D01*
X144653260Y-71802626D01*
X144717335Y-71647936D01*
X144747801Y-71494775D01*
X146055196Y-72145195D01*
X147895866Y-73231596D01*
X148425391Y-73597574D01*
X148393097Y-73619152D01*
X148274703Y-73737546D01*
X148181681Y-73876764D01*
X148117606Y-74031454D01*
X148084941Y-74195672D01*
X148084941Y-74363108D01*
X148117606Y-74527326D01*
X148181681Y-74682016D01*
X148274703Y-74821234D01*
X148393097Y-74939628D01*
X148532315Y-75032650D01*
X148687005Y-75096725D01*
X148851223Y-75129390D01*
X149018659Y-75129390D01*
X149182877Y-75096725D01*
X149337567Y-75032650D01*
X149476785Y-74939628D01*
X149595179Y-74821234D01*
X149688201Y-74682016D01*
X149752276Y-74527326D01*
X149752576Y-74525817D01*
X151321048Y-75784649D01*
X152888029Y-77238231D01*
X152957283Y-77312367D01*
X152908769Y-77332462D01*
X152769551Y-77425484D01*
X152651157Y-77543878D01*
X152558135Y-77683096D01*
X152494060Y-77837786D01*
X152461395Y-78002004D01*
X152461395Y-78169440D01*
X152494060Y-78333658D01*
X152558135Y-78488348D01*
X152651157Y-78627566D01*
X152769551Y-78745960D01*
X152908769Y-78838982D01*
X153063459Y-78903057D01*
X153227677Y-78935722D01*
X153395113Y-78935722D01*
X153559331Y-78903057D01*
X153714021Y-78838982D01*
X153853239Y-78745960D01*
X153971633Y-78627566D01*
X154060972Y-78493860D01*
X154347072Y-78800129D01*
X155690710Y-80462347D01*
X156654927Y-81847093D01*
X156613243Y-81855385D01*
X156458553Y-81919460D01*
X156319335Y-82012482D01*
X156200941Y-82130876D01*
X156107919Y-82270094D01*
X156043844Y-82424784D01*
X156011179Y-82589002D01*
X156011179Y-82756438D01*
X156043844Y-82920656D01*
X156107919Y-83075346D01*
X156200941Y-83214564D01*
X156319335Y-83332958D01*
X156458553Y-83425980D01*
X156613243Y-83490055D01*
X156777461Y-83522720D01*
X156944897Y-83522720D01*
X157109115Y-83490055D01*
X157263805Y-83425980D01*
X157403023Y-83332958D01*
X157511703Y-83224278D01*
X158004885Y-84053244D01*
X158963578Y-85963543D01*
X159399811Y-87014109D01*
X159364157Y-87014109D01*
X159199939Y-87046774D01*
X159045249Y-87110849D01*
X158906031Y-87203871D01*
X158787637Y-87322265D01*
X158694615Y-87461483D01*
X158630540Y-87616173D01*
X158597875Y-87780391D01*
X158597875Y-87947827D01*
X158630540Y-88112045D01*
X158694615Y-88266735D01*
X158787637Y-88405953D01*
X158906031Y-88524347D01*
X159045249Y-88617369D01*
X159199939Y-88681444D01*
X159364157Y-88714109D01*
X159531593Y-88714109D01*
X159695811Y-88681444D01*
X159850501Y-88617369D01*
X159980973Y-88530191D01*
X160459662Y-89965003D01*
X160989397Y-92035682D01*
X161094720Y-92618128D01*
X161055797Y-92610386D01*
X160888361Y-92610386D01*
X160724143Y-92643051D01*
X160569453Y-92707126D01*
X160430235Y-92800148D01*
X160311841Y-92918542D01*
X160218819Y-93057760D01*
X160154744Y-93212450D01*
X160122079Y-93376668D01*
X160122079Y-93544104D01*
X160154744Y-93708322D01*
X160218819Y-93863012D01*
X160311841Y-94002230D01*
X160430235Y-94120624D01*
X160569453Y-94213646D01*
X160724143Y-94277721D01*
X160888361Y-94310386D01*
X161055797Y-94310386D01*
X161220015Y-94277721D01*
X161374705Y-94213646D01*
X161377571Y-94211731D01*
X161598707Y-96264002D01*
X161675164Y-98400000D01*
X161673721Y-98450101D01*
X161623153Y-98429155D01*
X161458935Y-98396490D01*
X161291499Y-98396490D01*
X161127281Y-98429155D01*
X160972591Y-98493230D01*
X160833373Y-98586252D01*
X160714979Y-98704646D01*
X160621957Y-98843864D01*
X160557882Y-98998554D01*
X160525217Y-99162772D01*
X160525217Y-99330208D01*
X160557882Y-99494426D01*
X160621957Y-99649116D01*
X160714979Y-99788334D01*
X160833373Y-99906728D01*
X160972591Y-99999750D01*
X161127281Y-100063825D01*
X161291499Y-100096490D01*
X161458935Y-100096490D01*
X161623153Y-100063825D01*
X161627285Y-100062114D01*
X161625625Y-100119735D01*
X161426339Y-102247790D01*
X161088688Y-104276381D01*
X161044421Y-104246803D01*
X160889731Y-104182728D01*
X160725513Y-104150063D01*
X160558077Y-104150063D01*
X160393859Y-104182728D01*
X160239169Y-104246803D01*
X160099951Y-104339825D01*
X159981557Y-104458219D01*
X159888535Y-104597437D01*
X159824460Y-104752127D01*
X159791795Y-104916345D01*
X159791795Y-105083781D01*
X159824460Y-105247999D01*
X159888535Y-105402689D01*
X159981557Y-105541907D01*
X160099951Y-105660301D01*
X160239169Y-105753323D01*
X160393859Y-105817398D01*
X160558077Y-105850063D01*
X160715376Y-105850063D01*
X160574640Y-106434024D01*
X159926587Y-108470776D01*
X159369417Y-109867335D01*
X159341844Y-109839762D01*
X159202626Y-109746740D01*
X159047936Y-109682665D01*
X158883718Y-109650000D01*
X158716282Y-109650000D01*
X158552064Y-109682665D01*
X158397374Y-109746740D01*
X158258156Y-109839762D01*
X158139762Y-109958156D01*
X158046740Y-110097374D01*
X157982665Y-110252064D01*
X157950000Y-110416282D01*
X157950000Y-110583718D01*
X157982665Y-110747936D01*
X158046740Y-110902626D01*
X158139762Y-111041844D01*
X158258156Y-111160238D01*
X158397374Y-111253260D01*
X158552064Y-111317335D01*
X158702728Y-111347304D01*
X158202643Y-112379480D01*
X157135576Y-114231425D01*
X156600738Y-115022864D01*
X156580848Y-114993097D01*
X156462454Y-114874703D01*
X156323236Y-114781681D01*
X156168546Y-114717606D01*
X156004328Y-114684941D01*
X155836892Y-114684941D01*
X155672674Y-114717606D01*
X155517984Y-114781681D01*
X155378766Y-114874703D01*
X155260372Y-114993097D01*
X155167350Y-115132315D01*
X155103275Y-115287005D01*
X155070610Y-115451223D01*
X155070610Y-115618659D01*
X155103275Y-115782877D01*
X155167350Y-115937567D01*
X155260372Y-116076785D01*
X155378766Y-116195179D01*
X155517984Y-116288201D01*
X155666092Y-116349550D01*
X154618532Y-117683154D01*
X153181438Y-119265271D01*
X152884149Y-119548871D01*
X152867538Y-119508769D01*
X152774516Y-119369551D01*
X152656122Y-119251157D01*
X152516904Y-119158135D01*
X152362214Y-119094060D01*
X152197996Y-119061395D01*
X152030560Y-119061395D01*
X151866342Y-119094060D01*
X151711652Y-119158135D01*
X151572434Y-119251157D01*
X151454040Y-119369551D01*
X151361018Y-119508769D01*
X151296943Y-119663459D01*
X151264278Y-119827677D01*
X151264278Y-119995113D01*
X151296943Y-120159331D01*
X151361018Y-120314021D01*
X151454040Y-120453239D01*
X151572434Y-120571633D01*
X151711652Y-120664655D01*
X151713642Y-120665479D01*
X151634904Y-120740591D01*
X149986848Y-122101561D01*
X148354642Y-123263654D01*
X148344615Y-123213243D01*
X148280540Y-123058553D01*
X148187518Y-122919335D01*
X148069124Y-122800941D01*
X147929906Y-122707919D01*
X147775216Y-122643844D01*
X147610998Y-122611179D01*
X147443562Y-122611179D01*
X147279344Y-122643844D01*
X147124654Y-122707919D01*
X146985436Y-122800941D01*
X146867042Y-122919335D01*
X146774020Y-123058553D01*
X146709945Y-123213243D01*
X146677280Y-123377461D01*
X146677280Y-123544897D01*
X146709945Y-123709115D01*
X146774020Y-123863805D01*
X146867042Y-124003023D01*
X146977706Y-124113687D01*
X146420381Y-124453213D01*
X144520226Y-125431857D01*
X143185891Y-126002376D01*
X143185891Y-125964157D01*
X143153226Y-125799939D01*
X143089151Y-125645249D01*
X142996129Y-125506031D01*
X142877735Y-125387637D01*
X142738517Y-125294615D01*
X142583827Y-125230540D01*
X142419609Y-125197875D01*
X142252173Y-125197875D01*
X142087955Y-125230540D01*
X141933265Y-125294615D01*
X141794047Y-125387637D01*
X141675653Y-125506031D01*
X141582631Y-125645249D01*
X141518556Y-125799939D01*
X141485891Y-125964157D01*
X141485891Y-126131593D01*
X141518556Y-126295811D01*
X141582631Y-126450501D01*
X141668080Y-126578385D01*
X140534653Y-126969761D01*
X138469634Y-127521151D01*
X137582578Y-127691168D01*
X137589614Y-127655797D01*
X137589614Y-127488361D01*
X137556949Y-127324143D01*
X137492874Y-127169453D01*
X137399852Y-127030235D01*
X137281458Y-126911841D01*
X137142240Y-126818819D01*
X136987550Y-126754744D01*
X136823332Y-126722079D01*
X136655896Y-126722079D01*
X136491678Y-126754744D01*
X136336988Y-126818819D01*
X136197770Y-126911841D01*
X136079376Y-127030235D01*
X135986354Y-127169453D01*
X135922279Y-127324143D01*
X135889614Y-127488361D01*
X135889614Y-127655797D01*
X135922279Y-127820015D01*
X135984081Y-127969218D01*
X134247926Y-128174705D01*
X132112846Y-128273526D01*
X131753745Y-128264436D01*
X131770845Y-128223153D01*
X131803510Y-128058935D01*
X131803510Y-127891499D01*
X131770845Y-127727281D01*
X131706770Y-127572591D01*
X131613748Y-127433373D01*
X131495354Y-127314979D01*
X131356136Y-127221957D01*
X131201446Y-127157882D01*
X131037228Y-127125217D01*
X130869792Y-127125217D01*
X130705574Y-127157882D01*
X130550884Y-127221957D01*
X130411666Y-127314979D01*
X130293272Y-127433373D01*
X130200250Y-127572591D01*
X130136175Y-127727281D01*
X130103510Y-127891499D01*
X130103510Y-128058935D01*
X130136175Y-128223153D01*
X130136317Y-128223495D01*
X129976165Y-128219441D01*
X127848819Y-128012727D01*
X125925607Y-127685713D01*
X125953197Y-127644421D01*
X126017272Y-127489731D01*
X126049937Y-127325513D01*
X126049937Y-127158077D01*
X126017272Y-126993859D01*
X125953197Y-126839169D01*
X125860175Y-126699951D01*
X125741781Y-126581557D01*
X125602563Y-126488535D01*
X125447873Y-126424460D01*
X125283655Y-126391795D01*
X125116219Y-126391795D01*
X124952001Y-126424460D01*
X124797311Y-126488535D01*
X124658093Y-126581557D01*
X124539699Y-126699951D01*
X124446677Y-126839169D01*
X124382602Y-126993859D01*
X124349937Y-127158077D01*
X124349937Y-127313880D01*
X123665583Y-127146420D01*
X121631105Y-126491262D01*
X120333692Y-125968390D01*
X120360238Y-125941844D01*
X120453260Y-125802626D01*
X120517335Y-125647936D01*
X120550000Y-125483718D01*
X120550000Y-125316282D01*
X120517335Y-125152064D01*
X120453260Y-124997374D01*
X120360238Y-124858156D01*
X120241844Y-124739762D01*
X120102626Y-124646740D01*
X119947936Y-124582665D01*
X119783718Y-124550000D01*
X119616282Y-124550000D01*
X119452064Y-124582665D01*
X119297374Y-124646740D01*
X119158156Y-124739762D01*
X119039762Y-124858156D01*
X118946740Y-124997374D01*
X118882665Y-125152064D01*
X118852604Y-125303190D01*
X117728443Y-124753685D01*
X115880234Y-123680160D01*
X115176617Y-123201084D01*
X115206903Y-123180848D01*
X115325297Y-123062454D01*
X115418319Y-122923236D01*
X115482394Y-122768546D01*
X115515059Y-122604328D01*
X115515059Y-122436892D01*
X115482394Y-122272674D01*
X115418319Y-122117984D01*
X115325297Y-121978766D01*
X115206903Y-121860372D01*
X115067685Y-121767350D01*
X114912995Y-121703275D01*
X114748777Y-121670610D01*
X114581341Y-121670610D01*
X114417123Y-121703275D01*
X114262433Y-121767350D01*
X114123215Y-121860372D01*
X114004821Y-121978766D01*
X113911799Y-122117984D01*
X113849507Y-122268369D01*
X112437312Y-121151082D01*
X110860221Y-119708474D01*
X110648678Y-119485164D01*
X110691231Y-119467538D01*
X110830449Y-119374516D01*
X110948843Y-119256122D01*
X111041865Y-119116904D01*
X111105940Y-118962214D01*
X111138605Y-118797996D01*
X111138605Y-118630560D01*
X111105940Y-118466342D01*
X111041865Y-118311652D01*
X110948843Y-118172434D01*
X110830449Y-118054040D01*
X110691231Y-117961018D01*
X110536541Y-117896943D01*
X110372323Y-117864278D01*
X110204887Y-117864278D01*
X110040669Y-117896943D01*
X109885979Y-117961018D01*
X109746761Y-118054040D01*
X109628367Y-118172434D01*
X109536030Y-118310627D01*
X109390309Y-118156800D01*
X108035099Y-116504003D01*
X106939655Y-114953984D01*
X106986757Y-114944615D01*
X107141447Y-114880540D01*
X107280665Y-114787518D01*
X107399059Y-114669124D01*
X107492081Y-114529906D01*
X107556156Y-114375216D01*
X107588821Y-114210998D01*
X107588821Y-114043562D01*
X107556156Y-113879344D01*
X107492081Y-113724654D01*
X107399059Y-113585436D01*
X107280665Y-113467042D01*
X107141447Y-113374020D01*
X106986757Y-113309945D01*
X106822539Y-113277280D01*
X106655103Y-113277280D01*
X106490885Y-113309945D01*
X106336195Y-113374020D01*
X106196977Y-113467042D01*
X106087238Y-113576781D01*
X105695912Y-112929349D01*
X104723906Y-111025790D01*
X104198877Y-109785891D01*
X104235843Y-109785891D01*
X104400061Y-109753226D01*
X104554751Y-109689151D01*
X104693969Y-109596129D01*
X104812363Y-109477735D01*
X104905385Y-109338517D01*
X104969460Y-109183827D01*
X105002125Y-109019609D01*
X105002125Y-108852173D01*
X104969460Y-108687955D01*
X104905385Y-108533265D01*
X104812363Y-108394047D01*
X104693969Y-108275653D01*
X104554751Y-108182631D01*
X104400061Y-108118556D01*
X104235843Y-108085891D01*
X104068407Y-108085891D01*
X103904189Y-108118556D01*
X103749499Y-108182631D01*
X103621067Y-108268446D01*
X103199923Y-107034872D01*
X102655746Y-104967941D01*
X102508030Y-104182419D01*
X102544203Y-104189614D01*
X102711639Y-104189614D01*
X102875857Y-104156949D01*
X103030547Y-104092874D01*
X103169765Y-103999852D01*
X103288159Y-103881458D01*
X103381181Y-103742240D01*
X103445256Y-103587550D01*
X103477921Y-103423332D01*
X103477921Y-103255896D01*
X103445256Y-103091678D01*
X103381181Y-102936988D01*
X103288159Y-102797770D01*
X103169765Y-102679376D01*
X103030547Y-102586354D01*
X102875857Y-102522279D01*
X102711639Y-102489614D01*
X102544203Y-102489614D01*
X102379985Y-102522279D01*
X102228328Y-102585098D01*
X102016931Y-100743978D01*
X101925564Y-98608566D01*
X101932936Y-98352656D01*
X101976847Y-98370845D01*
X102141065Y-98403510D01*
X102308501Y-98403510D01*
X102472719Y-98370845D01*
X102627409Y-98306770D01*
X102766627Y-98213748D01*
X102885021Y-98095354D01*
X102978043Y-97956136D01*
X103042118Y-97801446D01*
X103074783Y-97637228D01*
X103074783Y-97469792D01*
X103042118Y-97305574D01*
X102978043Y-97150884D01*
X102885021Y-97011666D01*
X102766627Y-96893272D01*
X102627409Y-96800250D01*
X102472719Y-96736175D01*
X102308501Y-96703510D01*
X102141065Y-96703510D01*
X101979515Y-96735644D01*
X101987107Y-96472087D01*
X102175616Y-94600000D01*
X103521735Y-94600000D01*
X103525001Y-94633162D01*
X103525000Y-105566848D01*
X103521735Y-105600000D01*
X103525000Y-105633152D01*
X103525000Y-105633158D01*
X103530599Y-105690002D01*
X103534767Y-105732323D01*
X103542948Y-105759290D01*
X103573364Y-105859560D01*
X103629166Y-105963958D01*
X103636043Y-105976824D01*
X103699256Y-106053850D01*
X103699263Y-106053857D01*
X103720394Y-106079605D01*
X103746144Y-106100738D01*
X122499263Y-124853858D01*
X122520394Y-124879606D01*
X122546142Y-124900737D01*
X122546149Y-124900744D01*
X122612932Y-124955551D01*
X122623176Y-124963958D01*
X122740439Y-125026636D01*
X122829079Y-125053524D01*
X122867676Y-125065233D01*
X122880192Y-125066466D01*
X122966841Y-125075000D01*
X122966848Y-125075000D01*
X123000000Y-125078265D01*
X123033152Y-125075000D01*
X125866848Y-125075000D01*
X125900000Y-125078265D01*
X125933152Y-125075000D01*
X125933159Y-125075000D01*
X126032323Y-125065233D01*
X126159561Y-125026636D01*
X126276824Y-124963958D01*
X126379606Y-124879606D01*
X126400742Y-124853852D01*
X126509778Y-124744816D01*
X126647936Y-124717335D01*
X126802626Y-124653260D01*
X126941844Y-124560238D01*
X127060238Y-124441844D01*
X127153260Y-124302626D01*
X127217335Y-124147936D01*
X127250000Y-123983718D01*
X127250000Y-123816282D01*
X127217335Y-123652064D01*
X127153260Y-123497374D01*
X127060238Y-123358156D01*
X126941844Y-123239762D01*
X126802626Y-123146740D01*
X126647936Y-123082665D01*
X126483718Y-123050000D01*
X126316282Y-123050000D01*
X126276847Y-123057844D01*
X126210238Y-122958156D01*
X126091844Y-122839762D01*
X125952626Y-122746740D01*
X125797936Y-122682665D01*
X125633718Y-122650000D01*
X125466282Y-122650000D01*
X125302064Y-122682665D01*
X125147374Y-122746740D01*
X125008156Y-122839762D01*
X124889762Y-122958156D01*
X124796740Y-123097374D01*
X124743875Y-123225000D01*
X123479595Y-123225000D01*
X122729595Y-122475000D01*
X130914586Y-122475000D01*
X130882665Y-122552064D01*
X130850000Y-122716282D01*
X130850000Y-122883718D01*
X130882665Y-123047936D01*
X130946740Y-123202626D01*
X131039762Y-123341844D01*
X131158156Y-123460238D01*
X131297374Y-123553260D01*
X131452064Y-123617335D01*
X131590222Y-123644816D01*
X131899256Y-123953850D01*
X131920394Y-123979606D01*
X132023176Y-124063958D01*
X132097339Y-124103599D01*
X132097339Y-124125000D01*
X132107958Y-124232819D01*
X132139408Y-124336494D01*
X132190479Y-124432042D01*
X132259210Y-124515790D01*
X132342958Y-124584521D01*
X132438506Y-124635592D01*
X132542181Y-124667042D01*
X132650000Y-124677661D01*
X134150000Y-124677661D01*
X134257819Y-124667042D01*
X134361494Y-124635592D01*
X134457042Y-124584521D01*
X134540790Y-124515790D01*
X134609521Y-124432042D01*
X134660592Y-124336494D01*
X134692042Y-124232819D01*
X134702661Y-124125000D01*
X134702661Y-122875000D01*
X134692042Y-122767181D01*
X134660592Y-122663506D01*
X134609521Y-122567958D01*
X134540790Y-122484210D01*
X134457042Y-122415479D01*
X134418738Y-122395005D01*
X134476824Y-122363958D01*
X134579606Y-122279606D01*
X134600742Y-122253852D01*
X134838312Y-122016282D01*
X137850000Y-122016282D01*
X137850000Y-122183718D01*
X137882665Y-122347936D01*
X137946740Y-122502626D01*
X138039762Y-122641844D01*
X138158156Y-122760238D01*
X138297374Y-122853260D01*
X138452064Y-122917335D01*
X138616282Y-122950000D01*
X138783718Y-122950000D01*
X138947936Y-122917335D01*
X139102626Y-122853260D01*
X139241844Y-122760238D01*
X139327082Y-122675000D01*
X146466848Y-122675000D01*
X146500000Y-122678265D01*
X146533152Y-122675000D01*
X146533159Y-122675000D01*
X146632323Y-122665233D01*
X146759561Y-122626636D01*
X146876824Y-122563958D01*
X146933950Y-122517075D01*
X146953850Y-122500744D01*
X146953852Y-122500742D01*
X146979606Y-122479606D01*
X147000744Y-122453850D01*
X149726933Y-119727661D01*
X149905000Y-119727661D01*
X150012819Y-119717042D01*
X150116494Y-119685592D01*
X150212042Y-119634521D01*
X150295790Y-119565790D01*
X150364521Y-119482042D01*
X150415592Y-119386494D01*
X150447042Y-119282819D01*
X150457661Y-119175000D01*
X150457661Y-117625000D01*
X150447042Y-117517181D01*
X150415592Y-117413506D01*
X150364521Y-117317958D01*
X150295790Y-117234210D01*
X150212042Y-117165479D01*
X150116494Y-117114408D01*
X150103982Y-117110612D01*
X150189583Y-117025011D01*
X151653248Y-117025011D01*
X151686400Y-117028276D01*
X151719552Y-117025011D01*
X151719559Y-117025011D01*
X151818723Y-117015244D01*
X151945961Y-116976647D01*
X152063224Y-116913969D01*
X152131232Y-116858156D01*
X152140250Y-116850755D01*
X152140252Y-116850753D01*
X152166006Y-116829617D01*
X152187144Y-116803861D01*
X153278868Y-115712137D01*
X153304616Y-115691006D01*
X153325749Y-115665256D01*
X153325754Y-115665251D01*
X153378643Y-115600806D01*
X153388969Y-115588224D01*
X153451647Y-115470961D01*
X153488099Y-115350793D01*
X153488824Y-115350616D01*
X153544576Y-115338711D01*
X153583883Y-115321780D01*
X153602599Y-115315230D01*
X153643895Y-115303958D01*
X153694931Y-115278493D01*
X153746620Y-115254487D01*
X153781172Y-115229236D01*
X153797968Y-115218682D01*
X153835714Y-115198506D01*
X153879805Y-115162322D01*
X153924858Y-115127415D01*
X153952922Y-115095111D01*
X153966947Y-115081085D01*
X153999260Y-115053014D01*
X154034191Y-115007930D01*
X154070349Y-114963870D01*
X154090521Y-114926131D01*
X154101080Y-114909328D01*
X154126331Y-114874776D01*
X154150337Y-114823087D01*
X154175802Y-114772051D01*
X154187074Y-114730755D01*
X154193623Y-114712043D01*
X154210555Y-114672733D01*
X154222461Y-114616977D01*
X154235927Y-114561573D01*
X154237727Y-114518817D01*
X154239950Y-114499091D01*
X154247709Y-114457005D01*
X154246910Y-114400001D01*
X154247709Y-114342996D01*
X154239950Y-114300909D01*
X154237727Y-114281185D01*
X154235927Y-114238426D01*
X154222459Y-114183015D01*
X154210555Y-114127267D01*
X154193624Y-114087962D01*
X154187074Y-114069244D01*
X154175802Y-114027948D01*
X154150337Y-113976912D01*
X154126331Y-113925223D01*
X154101080Y-113890671D01*
X154090521Y-113873868D01*
X154070349Y-113836129D01*
X154040699Y-113800000D01*
X154070349Y-113763870D01*
X154090521Y-113726131D01*
X154101080Y-113709328D01*
X154126331Y-113674776D01*
X154150337Y-113623087D01*
X154175802Y-113572051D01*
X154187074Y-113530755D01*
X154193623Y-113512043D01*
X154210555Y-113472733D01*
X154222461Y-113416977D01*
X154235927Y-113361573D01*
X154237727Y-113318817D01*
X154239950Y-113299091D01*
X154247709Y-113257005D01*
X154246910Y-113200001D01*
X154247709Y-113142996D01*
X154239950Y-113100909D01*
X154237727Y-113081185D01*
X154235927Y-113038426D01*
X154222459Y-112983015D01*
X154210555Y-112927267D01*
X154193624Y-112887962D01*
X154187074Y-112869244D01*
X154175802Y-112827948D01*
X154150337Y-112776912D01*
X154126331Y-112725223D01*
X154101080Y-112690671D01*
X154090521Y-112673868D01*
X154070349Y-112636129D01*
X154034191Y-112592069D01*
X153999260Y-112546985D01*
X153966947Y-112518914D01*
X153952922Y-112504888D01*
X153924858Y-112472584D01*
X153879805Y-112437677D01*
X153835714Y-112401493D01*
X153797968Y-112381317D01*
X153781172Y-112370763D01*
X153746620Y-112345512D01*
X153694931Y-112321506D01*
X153643895Y-112296041D01*
X153602599Y-112284769D01*
X153583880Y-112278218D01*
X153544567Y-112261285D01*
X153500011Y-112251771D01*
X153500011Y-109658162D01*
X153503276Y-109625010D01*
X153500011Y-109591858D01*
X153500011Y-109591851D01*
X153490244Y-109492687D01*
X153490244Y-109492686D01*
X153451647Y-109365448D01*
X153388968Y-109248185D01*
X153388367Y-109247452D01*
X153364729Y-109218650D01*
X153325755Y-109171159D01*
X153325748Y-109171152D01*
X153304617Y-109145404D01*
X153278868Y-109124272D01*
X151946699Y-107792103D01*
X152985329Y-107792103D01*
X153012360Y-108066551D01*
X153092413Y-108330452D01*
X153222413Y-108573665D01*
X153397364Y-108786842D01*
X153610541Y-108961793D01*
X153853754Y-109091793D01*
X154117655Y-109171846D01*
X154323326Y-109192103D01*
X154460880Y-109192103D01*
X154666551Y-109171846D01*
X154930452Y-109091793D01*
X155173665Y-108961793D01*
X155386842Y-108786842D01*
X155561793Y-108573665D01*
X155691793Y-108330452D01*
X155771846Y-108066551D01*
X155798877Y-107792103D01*
X155771846Y-107517655D01*
X155691793Y-107253754D01*
X155561793Y-107010541D01*
X155386842Y-106797364D01*
X155173665Y-106622413D01*
X154930452Y-106492413D01*
X154666551Y-106412360D01*
X154460880Y-106392103D01*
X154323326Y-106392103D01*
X154117655Y-106412360D01*
X153853754Y-106492413D01*
X153610541Y-106622413D01*
X153397364Y-106797364D01*
X153222413Y-107010541D01*
X153092413Y-107253754D01*
X153012360Y-107517655D01*
X152985329Y-107792103D01*
X151946699Y-107792103D01*
X150128959Y-105974365D01*
X150128959Y-105825635D01*
X150409926Y-105544668D01*
X150525552Y-105579743D01*
X150731223Y-105600000D01*
X150868777Y-105600000D01*
X151074448Y-105579743D01*
X151338349Y-105499690D01*
X151581562Y-105369690D01*
X151794739Y-105194739D01*
X151969690Y-104981562D01*
X152099690Y-104738349D01*
X152179743Y-104474448D01*
X152206774Y-104200000D01*
X152179743Y-103925552D01*
X152099690Y-103661651D01*
X151969690Y-103418438D01*
X151794739Y-103205261D01*
X151581562Y-103030310D01*
X151502796Y-102988209D01*
X152603868Y-101887137D01*
X152629617Y-101866005D01*
X152650748Y-101840257D01*
X152650755Y-101840250D01*
X152713968Y-101763224D01*
X152715565Y-101760238D01*
X152770967Y-101656587D01*
X152776647Y-101645961D01*
X152815244Y-101518723D01*
X152818726Y-101483365D01*
X152825011Y-101419558D01*
X152825011Y-101419551D01*
X152828276Y-101386399D01*
X152825011Y-101353247D01*
X152825011Y-97833152D01*
X152828276Y-97800000D01*
X152825011Y-97766848D01*
X152825011Y-97766841D01*
X152815244Y-97667677D01*
X152806187Y-97637819D01*
X152776647Y-97540438D01*
X152716624Y-97428144D01*
X152713969Y-97423176D01*
X152700549Y-97406824D01*
X152650755Y-97346149D01*
X152650744Y-97346138D01*
X152629616Y-97320394D01*
X152603873Y-97299267D01*
X151475000Y-96170395D01*
X151475000Y-94726649D01*
X151581562Y-94669690D01*
X151794739Y-94494739D01*
X151969690Y-94281562D01*
X152099690Y-94038349D01*
X152179743Y-93774448D01*
X152206774Y-93500000D01*
X152179743Y-93225552D01*
X152099690Y-92961651D01*
X151969690Y-92718438D01*
X151794739Y-92505261D01*
X151581562Y-92330310D01*
X151338349Y-92200310D01*
X151074448Y-92120257D01*
X150868777Y-92100000D01*
X150731223Y-92100000D01*
X150525552Y-92120257D01*
X150261651Y-92200310D01*
X150018438Y-92330310D01*
X149805261Y-92505261D01*
X149630310Y-92718438D01*
X149500310Y-92961651D01*
X149420257Y-93225552D01*
X149393226Y-93500000D01*
X149415259Y-93723699D01*
X149394739Y-93703179D01*
X149310991Y-93634448D01*
X149215443Y-93583377D01*
X149111768Y-93551927D01*
X149003949Y-93541308D01*
X148896130Y-93551927D01*
X148792455Y-93583377D01*
X148696907Y-93634448D01*
X148613159Y-93703179D01*
X147411077Y-94905261D01*
X147342346Y-94989009D01*
X147291275Y-95084557D01*
X147259825Y-95188232D01*
X147249206Y-95296051D01*
X147259825Y-95403870D01*
X147291275Y-95507545D01*
X147342346Y-95603093D01*
X147411077Y-95686841D01*
X148613159Y-96888923D01*
X148696907Y-96957654D01*
X148792455Y-97008725D01*
X148896130Y-97040175D01*
X149003949Y-97050794D01*
X149111768Y-97040175D01*
X149215443Y-97008725D01*
X149310991Y-96957654D01*
X149394739Y-96888923D01*
X149518483Y-96765179D01*
X150798840Y-98045537D01*
X150783024Y-98049381D01*
X150727277Y-98061285D01*
X150687968Y-98078216D01*
X150669244Y-98084769D01*
X150627948Y-98096041D01*
X150576912Y-98121506D01*
X150525223Y-98145512D01*
X150490671Y-98170763D01*
X150473868Y-98181322D01*
X150436129Y-98201494D01*
X150392069Y-98237652D01*
X150346985Y-98272583D01*
X150318914Y-98304896D01*
X150304888Y-98318921D01*
X150272584Y-98346985D01*
X150237677Y-98392038D01*
X150201493Y-98436129D01*
X150181317Y-98473875D01*
X150170763Y-98490671D01*
X150145512Y-98525223D01*
X150121506Y-98576912D01*
X150096041Y-98627948D01*
X150084769Y-98669244D01*
X150078216Y-98687968D01*
X150061285Y-98727277D01*
X150049381Y-98783024D01*
X150035916Y-98838426D01*
X150034116Y-98881191D01*
X150031895Y-98900898D01*
X150024135Y-98942986D01*
X150024934Y-99000001D01*
X150024135Y-99057015D01*
X150031895Y-99099103D01*
X150034116Y-99118810D01*
X150035916Y-99161573D01*
X150049379Y-99216967D01*
X150061285Y-99272723D01*
X150078218Y-99312036D01*
X150084769Y-99330755D01*
X150096041Y-99372051D01*
X150121506Y-99423087D01*
X150145512Y-99474776D01*
X150170763Y-99509328D01*
X150181317Y-99526124D01*
X150201493Y-99563870D01*
X150237677Y-99607961D01*
X150272584Y-99653014D01*
X150304888Y-99681078D01*
X150318914Y-99695103D01*
X150346985Y-99727416D01*
X150392069Y-99762347D01*
X150436129Y-99798505D01*
X150473868Y-99818677D01*
X150490671Y-99829236D01*
X150525223Y-99854487D01*
X150576912Y-99878493D01*
X150627948Y-99903958D01*
X150669244Y-99915230D01*
X150687962Y-99921780D01*
X150727267Y-99938711D01*
X150783015Y-99950615D01*
X150838426Y-99964083D01*
X150869123Y-99965375D01*
X150929127Y-99971285D01*
X150957371Y-99974468D01*
X150962115Y-99974535D01*
X150966841Y-99975000D01*
X150995313Y-99975000D01*
X151025000Y-99975416D01*
X151025001Y-100920405D01*
X150888208Y-101057198D01*
X149708851Y-101057198D01*
X149675699Y-101053933D01*
X149642547Y-101057198D01*
X149642541Y-101057198D01*
X149641011Y-101057349D01*
X149394739Y-100811077D01*
X149310991Y-100742346D01*
X149215443Y-100691275D01*
X149111768Y-100659825D01*
X149003949Y-100649206D01*
X148896130Y-100659825D01*
X148792455Y-100691275D01*
X148696907Y-100742346D01*
X148613159Y-100811077D01*
X147411077Y-102013159D01*
X147342346Y-102096907D01*
X147291275Y-102192455D01*
X147259825Y-102296130D01*
X147249206Y-102403949D01*
X147259825Y-102511768D01*
X147291275Y-102615443D01*
X147342346Y-102710991D01*
X147411077Y-102794739D01*
X148328949Y-103712611D01*
X148328950Y-105116222D01*
X148247936Y-105082665D01*
X148083718Y-105050000D01*
X147916282Y-105050000D01*
X147752064Y-105082665D01*
X147597374Y-105146740D01*
X147458156Y-105239762D01*
X147339762Y-105358156D01*
X147246740Y-105497374D01*
X147182665Y-105652064D01*
X147150000Y-105816282D01*
X147150000Y-105983718D01*
X147182665Y-106147936D01*
X147216118Y-106228698D01*
X147216118Y-106873876D01*
X146653055Y-107436939D01*
X146584324Y-107520687D01*
X146533253Y-107616235D01*
X146501803Y-107719910D01*
X146491184Y-107827729D01*
X146501803Y-107935548D01*
X146533253Y-108039223D01*
X146584324Y-108134771D01*
X146653055Y-108218519D01*
X147713715Y-109279179D01*
X147797463Y-109347910D01*
X147893011Y-109398981D01*
X147996686Y-109430431D01*
X148104505Y-109441050D01*
X148212324Y-109430431D01*
X148315999Y-109398981D01*
X148411547Y-109347910D01*
X148495295Y-109279179D01*
X149379179Y-108395295D01*
X149447910Y-108311547D01*
X149498981Y-108215999D01*
X149530431Y-108112324D01*
X149541050Y-108004505D01*
X149533135Y-107924139D01*
X151700000Y-110091005D01*
X151700001Y-114745404D01*
X151220406Y-115225000D01*
X149733152Y-115225000D01*
X149700000Y-115221735D01*
X149666848Y-115225000D01*
X149666841Y-115225000D01*
X149580192Y-115233534D01*
X149567676Y-115234767D01*
X149535400Y-115244558D01*
X149440439Y-115273364D01*
X149323176Y-115336042D01*
X149323174Y-115336043D01*
X149323175Y-115336043D01*
X149246149Y-115399256D01*
X149246142Y-115399263D01*
X149220394Y-115420394D01*
X149199262Y-115446143D01*
X148320406Y-116325000D01*
X148023152Y-116325000D01*
X147990000Y-116321735D01*
X147956848Y-116325000D01*
X147956841Y-116325000D01*
X147870192Y-116333534D01*
X147857676Y-116334767D01*
X147730439Y-116373364D01*
X147613176Y-116436042D01*
X147510394Y-116520394D01*
X147489258Y-116546148D01*
X146963067Y-117072339D01*
X146765000Y-117072339D01*
X146657181Y-117082958D01*
X146553506Y-117114408D01*
X146457958Y-117165479D01*
X146374210Y-117234210D01*
X146305479Y-117317958D01*
X146254408Y-117413506D01*
X146222958Y-117517181D01*
X146212339Y-117625000D01*
X146212339Y-119175000D01*
X146222958Y-119282819D01*
X146254408Y-119386494D01*
X146305479Y-119482042D01*
X146374210Y-119565790D01*
X146457958Y-119634521D01*
X146553506Y-119685592D01*
X146657181Y-119717042D01*
X146765000Y-119727661D01*
X147365000Y-119727661D01*
X147472819Y-119717042D01*
X147576494Y-119685592D01*
X147672042Y-119634521D01*
X147700000Y-119611576D01*
X147727958Y-119634521D01*
X147823506Y-119685592D01*
X147851363Y-119694043D01*
X146220406Y-121325000D01*
X139050141Y-121325000D01*
X138947936Y-121282665D01*
X138783718Y-121250000D01*
X138616282Y-121250000D01*
X138452064Y-121282665D01*
X138297374Y-121346740D01*
X138158156Y-121439762D01*
X138039762Y-121558156D01*
X137946740Y-121697374D01*
X137882665Y-121852064D01*
X137850000Y-122016282D01*
X134838312Y-122016282D01*
X136253851Y-120600743D01*
X136279605Y-120579607D01*
X136363957Y-120476825D01*
X136426635Y-120359562D01*
X136465232Y-120232324D01*
X136474999Y-120133160D01*
X136474999Y-120133153D01*
X136478264Y-120100001D01*
X136474999Y-120066849D01*
X136474999Y-117933155D01*
X136478264Y-117900003D01*
X136474999Y-117866851D01*
X136474999Y-117866844D01*
X136465232Y-117767680D01*
X136462730Y-117759430D01*
X136426635Y-117640442D01*
X136419593Y-117627267D01*
X136363957Y-117523179D01*
X136347345Y-117502937D01*
X136326870Y-117400000D01*
X139244921Y-117400000D01*
X139265194Y-117605835D01*
X139325233Y-117803761D01*
X139422733Y-117986171D01*
X139553946Y-118146054D01*
X139713829Y-118277267D01*
X139896239Y-118374767D01*
X140094165Y-118434806D01*
X140300000Y-118455079D01*
X140505835Y-118434806D01*
X140703761Y-118374767D01*
X140886171Y-118277267D01*
X141005990Y-118178933D01*
X141140577Y-118044346D01*
X141225000Y-118052661D01*
X142475000Y-118052661D01*
X142582819Y-118042042D01*
X142686494Y-118010592D01*
X142782042Y-117959521D01*
X142865790Y-117890790D01*
X142934521Y-117807042D01*
X142985592Y-117711494D01*
X143017042Y-117607819D01*
X143027661Y-117500000D01*
X143027661Y-116000000D01*
X143017042Y-115892181D01*
X142985592Y-115788506D01*
X142934521Y-115692958D01*
X142865790Y-115609210D01*
X142782042Y-115540479D01*
X142686494Y-115489408D01*
X142582819Y-115457958D01*
X142475000Y-115447339D01*
X141225000Y-115447339D01*
X141117181Y-115457958D01*
X141013506Y-115489408D01*
X140917958Y-115540479D01*
X140834210Y-115609210D01*
X140765479Y-115692958D01*
X140754118Y-115714213D01*
X140744164Y-115715193D01*
X140546238Y-115775233D01*
X140363829Y-115872733D01*
X140203946Y-116003946D01*
X140171063Y-116044014D01*
X139521067Y-116694010D01*
X139422733Y-116813829D01*
X139325233Y-116996239D01*
X139265194Y-117194165D01*
X139244921Y-117400000D01*
X136326870Y-117400000D01*
X136317335Y-117352068D01*
X136253260Y-117197378D01*
X136160238Y-117058160D01*
X136041844Y-116939766D01*
X135902626Y-116846744D01*
X135747936Y-116782669D01*
X135583718Y-116750004D01*
X135416282Y-116750004D01*
X135273733Y-116778359D01*
X135260238Y-116758162D01*
X135141844Y-116639768D01*
X135044911Y-116575000D01*
X135180249Y-116575000D01*
X135297374Y-116653260D01*
X135452064Y-116717335D01*
X135616282Y-116750000D01*
X135783718Y-116750000D01*
X135947936Y-116717335D01*
X136102626Y-116653260D01*
X136241844Y-116560238D01*
X136360238Y-116441844D01*
X136453260Y-116302626D01*
X136517335Y-116147936D01*
X136550000Y-115983718D01*
X136550000Y-115816282D01*
X136517335Y-115652064D01*
X136453260Y-115497374D01*
X136360238Y-115358156D01*
X136241844Y-115239762D01*
X136102626Y-115146740D01*
X135947936Y-115082665D01*
X135783718Y-115050000D01*
X135616282Y-115050000D01*
X135452064Y-115082665D01*
X135297374Y-115146740D01*
X135180249Y-115225000D01*
X129458154Y-115225000D01*
X129425002Y-115221735D01*
X129391850Y-115225000D01*
X129391843Y-115225000D01*
X129305194Y-115233534D01*
X129292678Y-115234767D01*
X129192865Y-115265045D01*
X129165441Y-115273364D01*
X129048178Y-115336042D01*
X128992192Y-115381989D01*
X128971321Y-115399118D01*
X128945396Y-115420394D01*
X128924260Y-115446148D01*
X128886245Y-115484163D01*
X128841844Y-115439762D01*
X128702626Y-115346740D01*
X128547936Y-115282665D01*
X128401715Y-115253580D01*
X128360707Y-115219925D01*
X128243444Y-115157247D01*
X128116206Y-115118650D01*
X128017042Y-115108883D01*
X128017035Y-115108883D01*
X127983883Y-115105618D01*
X127950731Y-115108883D01*
X127282608Y-115108883D01*
X127279179Y-115104705D01*
X126395295Y-114220821D01*
X126311547Y-114152090D01*
X126215999Y-114101019D01*
X126112324Y-114069569D01*
X126004505Y-114058950D01*
X125896686Y-114069569D01*
X125793011Y-114101019D01*
X125697463Y-114152090D01*
X125613715Y-114220821D01*
X124553055Y-115281481D01*
X124484324Y-115365229D01*
X124433253Y-115460777D01*
X124401803Y-115564452D01*
X124391184Y-115672271D01*
X124401803Y-115780090D01*
X124433253Y-115883765D01*
X124484324Y-115979313D01*
X124553055Y-116063061D01*
X124896159Y-116406165D01*
X122160759Y-116406165D01*
X121170876Y-115416282D01*
X122250000Y-115416282D01*
X122250000Y-115583718D01*
X122282665Y-115747936D01*
X122346740Y-115902626D01*
X122439762Y-116041844D01*
X122558156Y-116160238D01*
X122697374Y-116253260D01*
X122852064Y-116317335D01*
X123016282Y-116350000D01*
X123183718Y-116350000D01*
X123347936Y-116317335D01*
X123502626Y-116253260D01*
X123641844Y-116160238D01*
X123760238Y-116041844D01*
X123853260Y-115902626D01*
X123917335Y-115747936D01*
X123950000Y-115583718D01*
X123950000Y-115416282D01*
X123917335Y-115252064D01*
X123853260Y-115097374D01*
X123760238Y-114958156D01*
X123641844Y-114839762D01*
X123502626Y-114746740D01*
X123347936Y-114682665D01*
X123183718Y-114650000D01*
X123016282Y-114650000D01*
X122852064Y-114682665D01*
X122697374Y-114746740D01*
X122558156Y-114839762D01*
X122439762Y-114958156D01*
X122346740Y-115097374D01*
X122282665Y-115252064D01*
X122250000Y-115416282D01*
X121170876Y-115416282D01*
X116675000Y-110920406D01*
X116675000Y-109015775D01*
X118069226Y-109015775D01*
X118129080Y-109623480D01*
X118306341Y-110207833D01*
X118594199Y-110746375D01*
X118981589Y-111218411D01*
X119453625Y-111605801D01*
X119992167Y-111893659D01*
X120576520Y-112070920D01*
X121184225Y-112130774D01*
X121791930Y-112070920D01*
X122376283Y-111893659D01*
X122914825Y-111605801D01*
X123009956Y-111527729D01*
X130291184Y-111527729D01*
X130301803Y-111635548D01*
X130333253Y-111739223D01*
X130384324Y-111834771D01*
X130453055Y-111918519D01*
X131513715Y-112979179D01*
X131597463Y-113047910D01*
X131693011Y-113098981D01*
X131796686Y-113130431D01*
X131904505Y-113141050D01*
X132012324Y-113130431D01*
X132115999Y-113098981D01*
X132211547Y-113047910D01*
X132295295Y-112979179D01*
X133179179Y-112095295D01*
X133247910Y-112011547D01*
X133298981Y-111915999D01*
X133330431Y-111812324D01*
X133341050Y-111704505D01*
X133330431Y-111596686D01*
X133298981Y-111493011D01*
X133247910Y-111397463D01*
X133179179Y-111313715D01*
X132881746Y-111016282D01*
X135550000Y-111016282D01*
X135550000Y-111183718D01*
X135582665Y-111347936D01*
X135646740Y-111502626D01*
X135739762Y-111641844D01*
X135858156Y-111760238D01*
X135997374Y-111853260D01*
X136152064Y-111917335D01*
X136290222Y-111944816D01*
X139099258Y-114753852D01*
X139120394Y-114779606D01*
X139146148Y-114800742D01*
X139146150Y-114800744D01*
X139192747Y-114838985D01*
X139223176Y-114863958D01*
X139274176Y-114891218D01*
X139340438Y-114926636D01*
X139467676Y-114965233D01*
X139480192Y-114966466D01*
X139566841Y-114975000D01*
X139566848Y-114975000D01*
X139600000Y-114978265D01*
X139633152Y-114975000D01*
X149066848Y-114975000D01*
X149100000Y-114978265D01*
X149133152Y-114975000D01*
X149133159Y-114975000D01*
X149232323Y-114965233D01*
X149359561Y-114926636D01*
X149476824Y-114863958D01*
X149579606Y-114779606D01*
X149600742Y-114753852D01*
X150048323Y-114306272D01*
X150116494Y-114285592D01*
X150212042Y-114234521D01*
X150295790Y-114165790D01*
X150364521Y-114082042D01*
X150415592Y-113986494D01*
X150447042Y-113882819D01*
X150457661Y-113775000D01*
X150457661Y-112225000D01*
X150447042Y-112117181D01*
X150415592Y-112013506D01*
X150364521Y-111917958D01*
X150295790Y-111834210D01*
X150212042Y-111765479D01*
X150116494Y-111714408D01*
X150012819Y-111682958D01*
X149905000Y-111672339D01*
X149305000Y-111672339D01*
X149197181Y-111682958D01*
X149135584Y-111701643D01*
X149133414Y-111679606D01*
X149123424Y-111578173D01*
X149077679Y-111427372D01*
X149003393Y-111288394D01*
X148903422Y-111166578D01*
X148872897Y-111141527D01*
X148770596Y-111039226D01*
X148753260Y-110997374D01*
X148660238Y-110858156D01*
X148541844Y-110739762D01*
X148402626Y-110646740D01*
X148247936Y-110582665D01*
X148083718Y-110550000D01*
X147916282Y-110550000D01*
X147752064Y-110582665D01*
X147597374Y-110646740D01*
X147458156Y-110739762D01*
X147339762Y-110858156D01*
X147246740Y-110997374D01*
X147182665Y-111152064D01*
X147150000Y-111316282D01*
X147150000Y-111483718D01*
X147182665Y-111647936D01*
X147246740Y-111802626D01*
X147339762Y-111941844D01*
X147458156Y-112060238D01*
X147501455Y-112089170D01*
X147492958Y-112117181D01*
X147482339Y-112225000D01*
X147482339Y-113625000D01*
X146647661Y-113625000D01*
X146647661Y-112225000D01*
X146637042Y-112117181D01*
X146605592Y-112013506D01*
X146554521Y-111917958D01*
X146485790Y-111834210D01*
X146402042Y-111765479D01*
X146306494Y-111714408D01*
X146202819Y-111682958D01*
X146095000Y-111672339D01*
X145495000Y-111672339D01*
X145387181Y-111682958D01*
X145283506Y-111714408D01*
X145187958Y-111765479D01*
X145104210Y-111834210D01*
X145035479Y-111917958D01*
X144984408Y-112013506D01*
X144952958Y-112117181D01*
X144942339Y-112225000D01*
X144942339Y-112903067D01*
X144920406Y-112925000D01*
X140179588Y-112925000D01*
X138444816Y-111190228D01*
X138417335Y-111052070D01*
X138353260Y-110897380D01*
X138260238Y-110758162D01*
X138141844Y-110639768D01*
X138002626Y-110546746D01*
X137847936Y-110482671D01*
X137683718Y-110450006D01*
X137516282Y-110450006D01*
X137352064Y-110482671D01*
X137197374Y-110546746D01*
X137097295Y-110613616D01*
X137060238Y-110558156D01*
X136941844Y-110439762D01*
X136802626Y-110346740D01*
X136647936Y-110282665D01*
X136483718Y-110250000D01*
X136316282Y-110250000D01*
X136152064Y-110282665D01*
X135997374Y-110346740D01*
X135858156Y-110439762D01*
X135739762Y-110558156D01*
X135646740Y-110697374D01*
X135582665Y-110852064D01*
X135550000Y-111016282D01*
X132881746Y-111016282D01*
X132491117Y-110625653D01*
X132491117Y-110228637D01*
X132547936Y-110217335D01*
X132702626Y-110153260D01*
X132841844Y-110060238D01*
X132960238Y-109941844D01*
X133053260Y-109802626D01*
X133117335Y-109647936D01*
X133150000Y-109483718D01*
X133150000Y-109316282D01*
X133117335Y-109152064D01*
X133053260Y-108997374D01*
X132960238Y-108858156D01*
X132841844Y-108739762D01*
X132702626Y-108646740D01*
X132547936Y-108582665D01*
X132383718Y-108550000D01*
X132216282Y-108550000D01*
X132052064Y-108582665D01*
X131897374Y-108646740D01*
X131758156Y-108739762D01*
X131639762Y-108858156D01*
X131546740Y-108997374D01*
X131482665Y-109152064D01*
X131455184Y-109290222D01*
X131362260Y-109383146D01*
X131336512Y-109404277D01*
X131315381Y-109430025D01*
X131315373Y-109430033D01*
X131252160Y-109507059D01*
X131189482Y-109624322D01*
X131150884Y-109751560D01*
X131137852Y-109883883D01*
X131141118Y-109917045D01*
X131141118Y-110448876D01*
X130453055Y-111136939D01*
X130384324Y-111220687D01*
X130333253Y-111316235D01*
X130301803Y-111419910D01*
X130291184Y-111527729D01*
X123009956Y-111527729D01*
X123268572Y-111315489D01*
X128115489Y-106468573D01*
X128405801Y-106114826D01*
X128693659Y-105576284D01*
X128870920Y-104991931D01*
X128930774Y-104384225D01*
X134669226Y-104384225D01*
X134729080Y-104991930D01*
X134906341Y-105576283D01*
X135194199Y-106114825D01*
X135484511Y-106468572D01*
X140331427Y-111315489D01*
X140685174Y-111605801D01*
X141223716Y-111893659D01*
X141808069Y-112070920D01*
X142415775Y-112130774D01*
X143023481Y-112070920D01*
X143607833Y-111893659D01*
X144146375Y-111605801D01*
X144618412Y-111218412D01*
X145005801Y-110746375D01*
X145293659Y-110207833D01*
X145470920Y-109623481D01*
X145530774Y-109015775D01*
X145470920Y-108408069D01*
X145293659Y-107823716D01*
X145005801Y-107285174D01*
X144715489Y-106931427D01*
X139868572Y-102084511D01*
X139514825Y-101794199D01*
X138976283Y-101506341D01*
X138391930Y-101329080D01*
X137784225Y-101269226D01*
X137176520Y-101329080D01*
X136592167Y-101506341D01*
X136053625Y-101794199D01*
X135581589Y-102181589D01*
X135194199Y-102653625D01*
X134906341Y-103192167D01*
X134729080Y-103776520D01*
X134669226Y-104384225D01*
X128930774Y-104384225D01*
X128870920Y-103776519D01*
X128693659Y-103192167D01*
X128405801Y-102653625D01*
X128018412Y-102181588D01*
X127546375Y-101794199D01*
X127007833Y-101506341D01*
X126423481Y-101329080D01*
X125815775Y-101269226D01*
X125208069Y-101329080D01*
X124623716Y-101506341D01*
X124085174Y-101794199D01*
X123731427Y-102084511D01*
X118884511Y-106931428D01*
X118594199Y-107285175D01*
X118306341Y-107823717D01*
X118129080Y-108408070D01*
X118069226Y-109015775D01*
X116675000Y-109015775D01*
X116675000Y-108216004D01*
X119803885Y-105087120D01*
X119829639Y-105065984D01*
X119913991Y-104963202D01*
X119976669Y-104845939D01*
X120004995Y-104752560D01*
X120015266Y-104718703D01*
X120017855Y-104692411D01*
X120025033Y-104619537D01*
X120025033Y-104619531D01*
X120028298Y-104586379D01*
X120025033Y-104553227D01*
X120025033Y-97897694D01*
X126700000Y-97897694D01*
X126700000Y-98902306D01*
X126895990Y-99887615D01*
X127280438Y-100815756D01*
X127838571Y-101651061D01*
X128548939Y-102361429D01*
X129384244Y-102919562D01*
X130312385Y-103304010D01*
X131297694Y-103500000D01*
X132302306Y-103500000D01*
X133287615Y-103304010D01*
X134215756Y-102919562D01*
X135051061Y-102361429D01*
X135761429Y-101651061D01*
X136319562Y-100815756D01*
X136704010Y-99887615D01*
X136900000Y-98902306D01*
X136900000Y-97897694D01*
X136704010Y-96912385D01*
X136319562Y-95984244D01*
X135761429Y-95148939D01*
X135051061Y-94438571D01*
X134215756Y-93880438D01*
X133287615Y-93495990D01*
X132302306Y-93300000D01*
X131297694Y-93300000D01*
X130312385Y-93495990D01*
X129384244Y-93880438D01*
X128548939Y-94438571D01*
X127838571Y-95148939D01*
X127280438Y-95984244D01*
X126895990Y-96912385D01*
X126700000Y-97897694D01*
X120025033Y-97897694D01*
X120025033Y-94173952D01*
X120028298Y-94140800D01*
X120025033Y-94107648D01*
X120025033Y-94107641D01*
X120015266Y-94008477D01*
X120004615Y-93973364D01*
X119976669Y-93881238D01*
X119919588Y-93774448D01*
X119913991Y-93763976D01*
X119905115Y-93753161D01*
X119850777Y-93686950D01*
X119850771Y-93686944D01*
X119829638Y-93661194D01*
X119803889Y-93640062D01*
X115775000Y-89611174D01*
X115775000Y-87784225D01*
X118069226Y-87784225D01*
X118129080Y-88391930D01*
X118306341Y-88976283D01*
X118594199Y-89514825D01*
X118884511Y-89868572D01*
X123731427Y-94715489D01*
X124085174Y-95005801D01*
X124623716Y-95293659D01*
X125208069Y-95470920D01*
X125815775Y-95530774D01*
X126423481Y-95470920D01*
X127007833Y-95293659D01*
X127546375Y-95005801D01*
X128018412Y-94618412D01*
X128405801Y-94146375D01*
X128693659Y-93607833D01*
X128870920Y-93023481D01*
X128930774Y-92415775D01*
X134669226Y-92415775D01*
X134729080Y-93023480D01*
X134906341Y-93607833D01*
X135194199Y-94146375D01*
X135581589Y-94618411D01*
X136053625Y-95005801D01*
X136592167Y-95293659D01*
X137176520Y-95470920D01*
X137784225Y-95530774D01*
X138391930Y-95470920D01*
X138976283Y-95293659D01*
X139514825Y-95005801D01*
X139868572Y-94715489D01*
X144676164Y-89907897D01*
X152985329Y-89907897D01*
X153012360Y-90182345D01*
X153092413Y-90446246D01*
X153222413Y-90689459D01*
X153397364Y-90902636D01*
X153610541Y-91077587D01*
X153853754Y-91207587D01*
X154117655Y-91287640D01*
X154323326Y-91307897D01*
X154460880Y-91307897D01*
X154666551Y-91287640D01*
X154930452Y-91207587D01*
X155173665Y-91077587D01*
X155386842Y-90902636D01*
X155561793Y-90689459D01*
X155691793Y-90446246D01*
X155771846Y-90182345D01*
X155798877Y-89907897D01*
X155771846Y-89633449D01*
X155691793Y-89369548D01*
X155561793Y-89126335D01*
X155386842Y-88913158D01*
X155173665Y-88738207D01*
X154930452Y-88608207D01*
X154666551Y-88528154D01*
X154460880Y-88507897D01*
X154323326Y-88507897D01*
X154117655Y-88528154D01*
X153853754Y-88608207D01*
X153610541Y-88738207D01*
X153397364Y-88913158D01*
X153222413Y-89126335D01*
X153092413Y-89369548D01*
X153012360Y-89633449D01*
X152985329Y-89907897D01*
X144676164Y-89907897D01*
X144715489Y-89868573D01*
X145005801Y-89514826D01*
X145293659Y-88976284D01*
X145470920Y-88391931D01*
X145530774Y-87784225D01*
X145470920Y-87176519D01*
X145293659Y-86592167D01*
X145005801Y-86053625D01*
X144618412Y-85581588D01*
X144146375Y-85194199D01*
X143607833Y-84906341D01*
X143023481Y-84729080D01*
X142415775Y-84669226D01*
X141808069Y-84729080D01*
X141223716Y-84906341D01*
X140685174Y-85194199D01*
X140331427Y-85484511D01*
X135484511Y-90331428D01*
X135194199Y-90685175D01*
X134906341Y-91223717D01*
X134729080Y-91808070D01*
X134669226Y-92415775D01*
X128930774Y-92415775D01*
X128870920Y-91808069D01*
X128693659Y-91223716D01*
X128405801Y-90685174D01*
X128115489Y-90331427D01*
X123268572Y-85484511D01*
X122914825Y-85194199D01*
X122376283Y-84906341D01*
X121791930Y-84729080D01*
X121184225Y-84669226D01*
X120576520Y-84729080D01*
X119992167Y-84906341D01*
X119453625Y-85194199D01*
X118981589Y-85581589D01*
X118594199Y-86053625D01*
X118306341Y-86592167D01*
X118129080Y-87176520D01*
X118069226Y-87784225D01*
X115775000Y-87784225D01*
X115775000Y-86979594D01*
X120279594Y-82475000D01*
X120380249Y-82475000D01*
X120497374Y-82553260D01*
X120652064Y-82617335D01*
X120816282Y-82650000D01*
X120983718Y-82650000D01*
X121147936Y-82617335D01*
X121302626Y-82553260D01*
X121441844Y-82460238D01*
X121560238Y-82341844D01*
X121653260Y-82202626D01*
X121717335Y-82047936D01*
X121750000Y-81883718D01*
X121750000Y-81716282D01*
X121717335Y-81552064D01*
X121653260Y-81397374D01*
X121571493Y-81275000D01*
X125680249Y-81275000D01*
X125797374Y-81353260D01*
X125952064Y-81417335D01*
X126116282Y-81450000D01*
X126283718Y-81450000D01*
X126447936Y-81417335D01*
X126602626Y-81353260D01*
X126741844Y-81260238D01*
X126860238Y-81141844D01*
X126953260Y-81002626D01*
X127017335Y-80847936D01*
X127050000Y-80683718D01*
X127050000Y-80516282D01*
X127017335Y-80352064D01*
X126953260Y-80197374D01*
X126860238Y-80058156D01*
X126741844Y-79939762D01*
X126602626Y-79846740D01*
X126447936Y-79782665D01*
X126283718Y-79750000D01*
X126116282Y-79750000D01*
X125952064Y-79782665D01*
X125797374Y-79846740D01*
X125680249Y-79925000D01*
X121329594Y-79925000D01*
X122379594Y-78875000D01*
X125625734Y-78875000D01*
X125659210Y-78915790D01*
X125742958Y-78984521D01*
X125838506Y-79035592D01*
X125942181Y-79067042D01*
X126050000Y-79077661D01*
X127400000Y-79077661D01*
X127500000Y-79067812D01*
X127500000Y-81597339D01*
X127375000Y-81597339D01*
X127267181Y-81607958D01*
X127163506Y-81639408D01*
X127067958Y-81690479D01*
X126984210Y-81759210D01*
X126915479Y-81842958D01*
X126864408Y-81938506D01*
X126832958Y-82042181D01*
X126822339Y-82150000D01*
X126822339Y-83150000D01*
X126832958Y-83257819D01*
X126864408Y-83361494D01*
X126915479Y-83457042D01*
X126984210Y-83540790D01*
X127067958Y-83609521D01*
X127163506Y-83660592D01*
X127267181Y-83692042D01*
X127375000Y-83702661D01*
X130525000Y-83702661D01*
X130632819Y-83692042D01*
X130736494Y-83660592D01*
X130832042Y-83609521D01*
X130915790Y-83540790D01*
X130984521Y-83457042D01*
X131035592Y-83361494D01*
X131067042Y-83257819D01*
X131077661Y-83150000D01*
X131077661Y-82150000D01*
X131067042Y-82042181D01*
X131035592Y-81938506D01*
X130984521Y-81842958D01*
X130915790Y-81759210D01*
X130832042Y-81690479D01*
X130736494Y-81639408D01*
X130632819Y-81607958D01*
X130525000Y-81597339D01*
X129100000Y-81597339D01*
X129100000Y-78629568D01*
X129109210Y-78640790D01*
X129192958Y-78709521D01*
X129288506Y-78760592D01*
X129392181Y-78792042D01*
X129500000Y-78802661D01*
X130247339Y-78802661D01*
X130247339Y-80250000D01*
X130257958Y-80357819D01*
X130289408Y-80461494D01*
X130340479Y-80557042D01*
X130409210Y-80640790D01*
X130492958Y-80709521D01*
X130588506Y-80760592D01*
X130692181Y-80792042D01*
X130800000Y-80802661D01*
X132600000Y-80802661D01*
X132707819Y-80792042D01*
X132811494Y-80760592D01*
X132907042Y-80709521D01*
X132990790Y-80640790D01*
X133059521Y-80557042D01*
X133110592Y-80461494D01*
X133142042Y-80357819D01*
X133152661Y-80250000D01*
X133152661Y-78802661D01*
X133900000Y-78802661D01*
X134007819Y-78792042D01*
X134100000Y-78764079D01*
X134100000Y-80418629D01*
X133462098Y-81056532D01*
X133431579Y-81081578D01*
X133406532Y-81112098D01*
X133406531Y-81112099D01*
X133331607Y-81203394D01*
X133257321Y-81342373D01*
X133211577Y-81493173D01*
X133201317Y-81597339D01*
X132425000Y-81597339D01*
X132317181Y-81607958D01*
X132213506Y-81639408D01*
X132117958Y-81690479D01*
X132034210Y-81759210D01*
X131965479Y-81842958D01*
X131914408Y-81938506D01*
X131882958Y-82042181D01*
X131872339Y-82150000D01*
X131872339Y-83150000D01*
X131882958Y-83257819D01*
X131914408Y-83361494D01*
X131965479Y-83457042D01*
X132034210Y-83540790D01*
X132117958Y-83609521D01*
X132213506Y-83660592D01*
X132317181Y-83692042D01*
X132425000Y-83702661D01*
X135575000Y-83702661D01*
X135682819Y-83692042D01*
X135786494Y-83660592D01*
X135882042Y-83609521D01*
X135965790Y-83540790D01*
X136034521Y-83457042D01*
X136085592Y-83361494D01*
X136117042Y-83257819D01*
X136127661Y-83150000D01*
X136127661Y-82150000D01*
X136117042Y-82042181D01*
X136085592Y-81938506D01*
X136034521Y-81842958D01*
X135965790Y-81759210D01*
X135882042Y-81690479D01*
X135786494Y-81639408D01*
X135682819Y-81607958D01*
X135575000Y-81597339D01*
X135184032Y-81597339D01*
X135437903Y-81343468D01*
X135468422Y-81318422D01*
X135532420Y-81240440D01*
X135568393Y-81196607D01*
X135642679Y-81057628D01*
X135647214Y-81042677D01*
X135688424Y-80906827D01*
X135700000Y-80789293D01*
X135700000Y-80789284D01*
X135703869Y-80750001D01*
X135700000Y-80710718D01*
X135700000Y-78988285D01*
X135788506Y-79035592D01*
X135892181Y-79067042D01*
X136000000Y-79077661D01*
X136000001Y-81141838D01*
X135996735Y-81175000D01*
X136009767Y-81307323D01*
X136048365Y-81434561D01*
X136111043Y-81551824D01*
X136174256Y-81628850D01*
X136174264Y-81628858D01*
X136195395Y-81654606D01*
X136221144Y-81675738D01*
X136455183Y-81909777D01*
X136482665Y-82047936D01*
X136546740Y-82202626D01*
X136639762Y-82341844D01*
X136758156Y-82460238D01*
X136897374Y-82553260D01*
X137052064Y-82617335D01*
X137216282Y-82650000D01*
X137383718Y-82650000D01*
X137547936Y-82617335D01*
X137702626Y-82553260D01*
X137841844Y-82460238D01*
X137960238Y-82341844D01*
X138053260Y-82202626D01*
X138117335Y-82047936D01*
X138150000Y-81883718D01*
X138150000Y-81716282D01*
X138117335Y-81552064D01*
X138053260Y-81397374D01*
X137960238Y-81258156D01*
X137841844Y-81139762D01*
X137702626Y-81046740D01*
X137547936Y-80982665D01*
X137409777Y-80955183D01*
X137350000Y-80895407D01*
X137350000Y-79700000D01*
X144270526Y-79700000D01*
X144288385Y-79881331D01*
X144341277Y-80055694D01*
X144427170Y-80216388D01*
X144542762Y-80357238D01*
X144683612Y-80472830D01*
X144844306Y-80558723D01*
X145018669Y-80611615D01*
X145200000Y-80629474D01*
X145381331Y-80611615D01*
X145555694Y-80558723D01*
X145716388Y-80472830D01*
X145821946Y-80386201D01*
X146445449Y-79762698D01*
X146542181Y-79792042D01*
X146650000Y-79802661D01*
X149350000Y-79802661D01*
X149457819Y-79792042D01*
X149561494Y-79760592D01*
X149657042Y-79709521D01*
X149740790Y-79640790D01*
X149809521Y-79557042D01*
X149860592Y-79461494D01*
X149892042Y-79357819D01*
X149902661Y-79250000D01*
X149902661Y-77750000D01*
X149892042Y-77642181D01*
X149860592Y-77538506D01*
X149809521Y-77442958D01*
X149740790Y-77359210D01*
X149657042Y-77290479D01*
X149561494Y-77239408D01*
X149457819Y-77207958D01*
X149350000Y-77197339D01*
X146650000Y-77197339D01*
X146542181Y-77207958D01*
X146438506Y-77239408D01*
X146342958Y-77290479D01*
X146259210Y-77359210D01*
X146190479Y-77442958D01*
X146139408Y-77538506D01*
X146114711Y-77619920D01*
X146044305Y-77641277D01*
X145883611Y-77727170D01*
X145742762Y-77842762D01*
X145713796Y-77878057D01*
X144513799Y-79078054D01*
X144427170Y-79183612D01*
X144341277Y-79344306D01*
X144288385Y-79518669D01*
X144270526Y-79700000D01*
X137350000Y-79700000D01*
X137350000Y-79077661D01*
X137457819Y-79067042D01*
X137561494Y-79035592D01*
X137657042Y-78984521D01*
X137740790Y-78915790D01*
X137809521Y-78832042D01*
X137860592Y-78736494D01*
X137892042Y-78632819D01*
X137902661Y-78525000D01*
X137902661Y-77875000D01*
X137892042Y-77767181D01*
X137860592Y-77663506D01*
X137809521Y-77567958D01*
X137740790Y-77484210D01*
X137657042Y-77415479D01*
X137561494Y-77364408D01*
X137457819Y-77332958D01*
X137350000Y-77322339D01*
X136000000Y-77322339D01*
X135892181Y-77332958D01*
X135788506Y-77364408D01*
X135700000Y-77411715D01*
X135700000Y-76988285D01*
X135788506Y-77035592D01*
X135892181Y-77067042D01*
X136000000Y-77077661D01*
X137350000Y-77077661D01*
X137457819Y-77067042D01*
X137561494Y-77035592D01*
X137657042Y-76984521D01*
X137740790Y-76915790D01*
X137774266Y-76875000D01*
X137966876Y-76875000D01*
X138000028Y-76878265D01*
X138033180Y-76875000D01*
X138033187Y-76875000D01*
X138132351Y-76865233D01*
X138259589Y-76826636D01*
X138376852Y-76763958D01*
X138433978Y-76717075D01*
X138453878Y-76700744D01*
X138453880Y-76700742D01*
X138479634Y-76679606D01*
X138500770Y-76653852D01*
X139009778Y-76144844D01*
X139147936Y-76117363D01*
X139302626Y-76053288D01*
X139441844Y-75960266D01*
X139560238Y-75841872D01*
X139653260Y-75702654D01*
X139717335Y-75547964D01*
X139750000Y-75383746D01*
X139750000Y-75216310D01*
X139717335Y-75052092D01*
X139653260Y-74897402D01*
X139560238Y-74758184D01*
X139441844Y-74639790D01*
X139302626Y-74546768D01*
X139147936Y-74482693D01*
X138983718Y-74450028D01*
X138816282Y-74450028D01*
X138652064Y-74482693D01*
X138497374Y-74546768D01*
X138358156Y-74639790D01*
X138239762Y-74758184D01*
X138146740Y-74897402D01*
X138082665Y-75052092D01*
X138055184Y-75190250D01*
X137750001Y-75495433D01*
X137740790Y-75484210D01*
X137657042Y-75415479D01*
X137561494Y-75364408D01*
X137457819Y-75332958D01*
X137350000Y-75322339D01*
X136000000Y-75322339D01*
X135892181Y-75332958D01*
X135788506Y-75364408D01*
X135700000Y-75411715D01*
X135700000Y-75131370D01*
X135794086Y-75037285D01*
X135892181Y-75067042D01*
X136000000Y-75077661D01*
X137350000Y-75077661D01*
X137457819Y-75067042D01*
X137561494Y-75035592D01*
X137657042Y-74984521D01*
X137740790Y-74915790D01*
X137809521Y-74832042D01*
X137860592Y-74736494D01*
X137892042Y-74632819D01*
X137902661Y-74525000D01*
X137902661Y-74100000D01*
X140022339Y-74100000D01*
X140022339Y-75600000D01*
X140032958Y-75707819D01*
X140064408Y-75811494D01*
X140115479Y-75907042D01*
X140184210Y-75990790D01*
X140267958Y-76059521D01*
X140363506Y-76110592D01*
X140467181Y-76142042D01*
X140575000Y-76152661D01*
X141825000Y-76152661D01*
X141932819Y-76142042D01*
X142036494Y-76110592D01*
X142132042Y-76059521D01*
X142215790Y-75990790D01*
X142284521Y-75907042D01*
X142324360Y-75832508D01*
X142978053Y-76486201D01*
X143083612Y-76572830D01*
X143244305Y-76658723D01*
X143418668Y-76711615D01*
X143600000Y-76729474D01*
X143781331Y-76711615D01*
X143955694Y-76658723D01*
X144116388Y-76572830D01*
X144257238Y-76457238D01*
X144372830Y-76316388D01*
X144458723Y-76155694D01*
X144511615Y-75981331D01*
X144529474Y-75800000D01*
X144511615Y-75618668D01*
X144458723Y-75444305D01*
X144372830Y-75283612D01*
X144286201Y-75178053D01*
X143336203Y-74228056D01*
X143307238Y-74192762D01*
X143166389Y-74077170D01*
X143005695Y-73991277D01*
X142831332Y-73938385D01*
X142695435Y-73925000D01*
X142695427Y-73925000D01*
X142650000Y-73920526D01*
X142604573Y-73925000D01*
X142346663Y-73925000D01*
X142335592Y-73888506D01*
X142284521Y-73792958D01*
X142215790Y-73709210D01*
X142132042Y-73640479D01*
X142036494Y-73589408D01*
X141932819Y-73557958D01*
X141825000Y-73547339D01*
X140575000Y-73547339D01*
X140467181Y-73557958D01*
X140363506Y-73589408D01*
X140267958Y-73640479D01*
X140184210Y-73709210D01*
X140115479Y-73792958D01*
X140064408Y-73888506D01*
X140032958Y-73992181D01*
X140022339Y-74100000D01*
X137902661Y-74100000D01*
X137902661Y-73875000D01*
X137892042Y-73767181D01*
X137871663Y-73700000D01*
X137892042Y-73632819D01*
X137902661Y-73525000D01*
X137902661Y-73347643D01*
X138529254Y-72721051D01*
X138547936Y-72717335D01*
X138702626Y-72653260D01*
X138841844Y-72560238D01*
X138960238Y-72441844D01*
X139053260Y-72302626D01*
X139117335Y-72147936D01*
X139150000Y-71983718D01*
X139150000Y-71816282D01*
X139117335Y-71652064D01*
X139053260Y-71497374D01*
X138960238Y-71358156D01*
X138841844Y-71239762D01*
X138702626Y-71146740D01*
X138547936Y-71082665D01*
X138383718Y-71050000D01*
X138216282Y-71050000D01*
X138052064Y-71082665D01*
X137897374Y-71146740D01*
X137758156Y-71239762D01*
X137639762Y-71358156D01*
X137546740Y-71497374D01*
X137482665Y-71652064D01*
X137466534Y-71733162D01*
X136877357Y-72322339D01*
X136000000Y-72322339D01*
X135892181Y-72332958D01*
X135788506Y-72364408D01*
X135692958Y-72415479D01*
X135609210Y-72484210D01*
X135540479Y-72567958D01*
X135489408Y-72663506D01*
X135457958Y-72767181D01*
X135447339Y-72875000D01*
X135447339Y-73401317D01*
X135343173Y-73411576D01*
X135239012Y-73443173D01*
X135192372Y-73457321D01*
X135053393Y-73531607D01*
X134970057Y-73599999D01*
X134931578Y-73631578D01*
X134906531Y-73662098D01*
X134452661Y-74115969D01*
X134452661Y-73150000D01*
X134442042Y-73042181D01*
X134410592Y-72938506D01*
X134359521Y-72842958D01*
X134290790Y-72759210D01*
X134207042Y-72690479D01*
X134111494Y-72639408D01*
X134007819Y-72607958D01*
X133900000Y-72597339D01*
X133152661Y-72597339D01*
X133152661Y-71150000D01*
X133142042Y-71042181D01*
X133110592Y-70938506D01*
X133059521Y-70842958D01*
X132990790Y-70759210D01*
X132907042Y-70690479D01*
X132811494Y-70639408D01*
X132707819Y-70607958D01*
X132600000Y-70597339D01*
X130800000Y-70597339D01*
X130692181Y-70607958D01*
X130588506Y-70639408D01*
X130492958Y-70690479D01*
X130409210Y-70759210D01*
X130340479Y-70842958D01*
X130289408Y-70938506D01*
X130257958Y-71042181D01*
X130247339Y-71150000D01*
X130247339Y-72597339D01*
X129500000Y-72597339D01*
X129392181Y-72607958D01*
X129288506Y-72639408D01*
X129192958Y-72690479D01*
X129109210Y-72759210D01*
X129040479Y-72842958D01*
X128989408Y-72938506D01*
X128957958Y-73042181D01*
X128949297Y-73130125D01*
X128868422Y-73031578D01*
X128837897Y-73006527D01*
X128493473Y-72662103D01*
X128468422Y-72631578D01*
X128346606Y-72531607D01*
X128207628Y-72457321D01*
X128056827Y-72411576D01*
X127939293Y-72400000D01*
X127939291Y-72400000D01*
X127900000Y-72396130D01*
X127860709Y-72400000D01*
X127678083Y-72400000D01*
X127611494Y-72364408D01*
X127507819Y-72332958D01*
X127400000Y-72322339D01*
X126050000Y-72322339D01*
X125942181Y-72332958D01*
X125838506Y-72364408D01*
X125742958Y-72415479D01*
X125659210Y-72484210D01*
X125590479Y-72567958D01*
X125539408Y-72663506D01*
X125507958Y-72767181D01*
X125497339Y-72875000D01*
X125497339Y-73525000D01*
X123633152Y-73525000D01*
X123600000Y-73521735D01*
X123566848Y-73525000D01*
X123566841Y-73525000D01*
X123480192Y-73533534D01*
X123467676Y-73534767D01*
X123429079Y-73546476D01*
X123340439Y-73573364D01*
X123223176Y-73636042D01*
X123223174Y-73636043D01*
X123223175Y-73636043D01*
X123146149Y-73699256D01*
X123146142Y-73699263D01*
X123120394Y-73720394D01*
X123099262Y-73746143D01*
X122390222Y-74455184D01*
X122252064Y-74482665D01*
X122097374Y-74546740D01*
X121958156Y-74639762D01*
X121839762Y-74758156D01*
X121746740Y-74897374D01*
X121682665Y-75052064D01*
X121659096Y-75170551D01*
X121560677Y-75104790D01*
X121405987Y-75040715D01*
X121241769Y-75008050D01*
X121074333Y-75008050D01*
X120910115Y-75040715D01*
X120755425Y-75104790D01*
X120616207Y-75197812D01*
X120497813Y-75316206D01*
X120404791Y-75455424D01*
X120340716Y-75610114D01*
X120308051Y-75774332D01*
X120308051Y-75941768D01*
X120340716Y-76105986D01*
X120404791Y-76260676D01*
X120497813Y-76399894D01*
X120616207Y-76518288D01*
X120755425Y-76611310D01*
X120910115Y-76675385D01*
X121048886Y-76702988D01*
X121123177Y-76763958D01*
X121240440Y-76826636D01*
X121367678Y-76865233D01*
X121466842Y-76875000D01*
X121466849Y-76875000D01*
X121500001Y-76878265D01*
X121533153Y-76875000D01*
X121670406Y-76875000D01*
X113296111Y-85249295D01*
X113270361Y-85270428D01*
X113249230Y-85296176D01*
X113249223Y-85296183D01*
X113194416Y-85362966D01*
X113186009Y-85373210D01*
X113123331Y-85490473D01*
X113106263Y-85546740D01*
X113084734Y-85617710D01*
X113084467Y-85620417D01*
X113074967Y-85716875D01*
X113074967Y-85716881D01*
X113071702Y-85750033D01*
X113074967Y-85783185D01*
X113074968Y-90416805D01*
X113071702Y-90449967D01*
X113084734Y-90582290D01*
X113123332Y-90709528D01*
X113186010Y-90826791D01*
X113249223Y-90903817D01*
X113249231Y-90903825D01*
X113270362Y-90929573D01*
X113296110Y-90950704D01*
X117325000Y-94979594D01*
X117325001Y-103747583D01*
X114146122Y-106926462D01*
X114120372Y-106947595D01*
X114099241Y-106973343D01*
X114099234Y-106973350D01*
X114048745Y-107034872D01*
X114036020Y-107050377D01*
X113973342Y-107167640D01*
X113948359Y-107250000D01*
X113937689Y-107285174D01*
X113934745Y-107294878D01*
X113924978Y-107394042D01*
X113924978Y-107394048D01*
X113921713Y-107427200D01*
X113924978Y-107460352D01*
X113924979Y-111370385D01*
X111275000Y-108720406D01*
X111275000Y-103054783D01*
X111292958Y-103069521D01*
X111388506Y-103120592D01*
X111492181Y-103152042D01*
X111600000Y-103162661D01*
X112424998Y-103162661D01*
X112424999Y-104280248D01*
X112346738Y-104397374D01*
X112282663Y-104552064D01*
X112249998Y-104716282D01*
X112249998Y-104883718D01*
X112282663Y-105047936D01*
X112346738Y-105202626D01*
X112439760Y-105341844D01*
X112558154Y-105460238D01*
X112697372Y-105553260D01*
X112852062Y-105617335D01*
X113016280Y-105650000D01*
X113183716Y-105650000D01*
X113347934Y-105617335D01*
X113502624Y-105553260D01*
X113641842Y-105460238D01*
X113760236Y-105341844D01*
X113853258Y-105202626D01*
X113917333Y-105047936D01*
X113949998Y-104883718D01*
X113949998Y-104716282D01*
X113917333Y-104552064D01*
X113853258Y-104397374D01*
X113774998Y-104280249D01*
X113774998Y-103162661D01*
X115250000Y-103162661D01*
X115357819Y-103152042D01*
X115461494Y-103120592D01*
X115557042Y-103069521D01*
X115640790Y-103000790D01*
X115709521Y-102917042D01*
X115760592Y-102821494D01*
X115792042Y-102717819D01*
X115802661Y-102610000D01*
X115802661Y-101610000D01*
X115792042Y-101502181D01*
X115760592Y-101398506D01*
X115709521Y-101302958D01*
X115640790Y-101219210D01*
X115557042Y-101150479D01*
X115461494Y-101099408D01*
X115357819Y-101067958D01*
X115250000Y-101057339D01*
X111600000Y-101057339D01*
X111492181Y-101067958D01*
X111450000Y-101080754D01*
X111450000Y-101016282D01*
X111417335Y-100852064D01*
X111353260Y-100697374D01*
X111260238Y-100558156D01*
X111141844Y-100439762D01*
X111002626Y-100346740D01*
X110847936Y-100282665D01*
X110683718Y-100250000D01*
X110516282Y-100250000D01*
X110352064Y-100282665D01*
X110197374Y-100346740D01*
X110058156Y-100439762D01*
X109939762Y-100558156D01*
X109846740Y-100697374D01*
X109782665Y-100852064D01*
X109750000Y-101016282D01*
X109750000Y-101183718D01*
X109782665Y-101347936D01*
X109846740Y-101502626D01*
X109925001Y-101619752D01*
X109925000Y-108270406D01*
X109250000Y-107595406D01*
X109250000Y-103157737D01*
X109307819Y-103152042D01*
X109411494Y-103120592D01*
X109507042Y-103069521D01*
X109590790Y-103000790D01*
X109659521Y-102917042D01*
X109710592Y-102821494D01*
X109742042Y-102717819D01*
X109752661Y-102610000D01*
X109752661Y-101610000D01*
X109742042Y-101502181D01*
X109710592Y-101398506D01*
X109659521Y-101302958D01*
X109590790Y-101219210D01*
X109507042Y-101150479D01*
X109411494Y-101099408D01*
X109307819Y-101067958D01*
X109200000Y-101057339D01*
X105550000Y-101057339D01*
X105442181Y-101067958D01*
X105375000Y-101088337D01*
X105375000Y-100591663D01*
X105442181Y-100612042D01*
X105550000Y-100622661D01*
X109200000Y-100622661D01*
X109307819Y-100612042D01*
X109411494Y-100580592D01*
X109507042Y-100529521D01*
X109590790Y-100460790D01*
X109659521Y-100377042D01*
X109710592Y-100281494D01*
X109742042Y-100177819D01*
X109752169Y-100075000D01*
X109780249Y-100075000D01*
X109897374Y-100153260D01*
X110052064Y-100217335D01*
X110216282Y-100250000D01*
X110383718Y-100250000D01*
X110547936Y-100217335D01*
X110702626Y-100153260D01*
X110841844Y-100060238D01*
X110960238Y-99941844D01*
X111053260Y-99802626D01*
X111117335Y-99647936D01*
X111150000Y-99483718D01*
X111150000Y-99316282D01*
X111117335Y-99152064D01*
X111053260Y-98997374D01*
X110960238Y-98858156D01*
X110841844Y-98739762D01*
X110702626Y-98646740D01*
X110547936Y-98582665D01*
X110383718Y-98550000D01*
X110216282Y-98550000D01*
X110052064Y-98582665D01*
X109897374Y-98646740D01*
X109780249Y-98725000D01*
X109628369Y-98725000D01*
X109590790Y-98679210D01*
X109507042Y-98610479D01*
X109411494Y-98559408D01*
X109307819Y-98527958D01*
X109200000Y-98517339D01*
X105550000Y-98517339D01*
X105442181Y-98527958D01*
X105375000Y-98548337D01*
X105375000Y-95879594D01*
X105711933Y-95542661D01*
X109200000Y-95542661D01*
X109307819Y-95532042D01*
X109411494Y-95500592D01*
X109507042Y-95449521D01*
X109534461Y-95427019D01*
X109482665Y-95552064D01*
X109450000Y-95716282D01*
X109450000Y-95883718D01*
X109482665Y-96047936D01*
X109546740Y-96202626D01*
X109639762Y-96341844D01*
X109758156Y-96460238D01*
X109897374Y-96553260D01*
X110052064Y-96617335D01*
X110216282Y-96650000D01*
X110383718Y-96650000D01*
X110547936Y-96617335D01*
X110702626Y-96553260D01*
X110819751Y-96475000D01*
X111052756Y-96475000D01*
X111047339Y-96530000D01*
X111047339Y-97530000D01*
X111057958Y-97637819D01*
X111089408Y-97741494D01*
X111140479Y-97837042D01*
X111209210Y-97920790D01*
X111292958Y-97989521D01*
X111388506Y-98040592D01*
X111492181Y-98072042D01*
X111600000Y-98082661D01*
X115250000Y-98082661D01*
X115357819Y-98072042D01*
X115461494Y-98040592D01*
X115557042Y-97989521D01*
X115640790Y-97920790D01*
X115709521Y-97837042D01*
X115760592Y-97741494D01*
X115792042Y-97637819D01*
X115802661Y-97530000D01*
X115802661Y-96530000D01*
X115792042Y-96422181D01*
X115760592Y-96318506D01*
X115709521Y-96222958D01*
X115640790Y-96139210D01*
X115557042Y-96070479D01*
X115461494Y-96019408D01*
X115357819Y-95987958D01*
X115250000Y-95977339D01*
X113526933Y-95977339D01*
X113092255Y-95542661D01*
X115250000Y-95542661D01*
X115357819Y-95532042D01*
X115461494Y-95500592D01*
X115557042Y-95449521D01*
X115640790Y-95380790D01*
X115709521Y-95297042D01*
X115760592Y-95201494D01*
X115792042Y-95097819D01*
X115802661Y-94990000D01*
X115802661Y-93990000D01*
X115792042Y-93882181D01*
X115760592Y-93778506D01*
X115709521Y-93682958D01*
X115640790Y-93599210D01*
X115557042Y-93530479D01*
X115461494Y-93479408D01*
X115357819Y-93447958D01*
X115250000Y-93437339D01*
X111951933Y-93437339D01*
X111460742Y-92946148D01*
X111439606Y-92920394D01*
X111336824Y-92836042D01*
X111219561Y-92773364D01*
X111092323Y-92734767D01*
X110993159Y-92725000D01*
X110993152Y-92725000D01*
X110960000Y-92721735D01*
X110926848Y-92725000D01*
X105433151Y-92725000D01*
X105399999Y-92721735D01*
X105366847Y-92725000D01*
X105366841Y-92725000D01*
X105281499Y-92733406D01*
X105267676Y-92734767D01*
X105229079Y-92746476D01*
X105140439Y-92773364D01*
X105023176Y-92836042D01*
X104920394Y-92920394D01*
X104899258Y-92946148D01*
X103746143Y-94099263D01*
X103720395Y-94120394D01*
X103699264Y-94146142D01*
X103699256Y-94146150D01*
X103636043Y-94223176D01*
X103573365Y-94340439D01*
X103534767Y-94467677D01*
X103521735Y-94600000D01*
X102175616Y-94600000D01*
X102201246Y-94345475D01*
X102516922Y-92527367D01*
X102555579Y-92553197D01*
X102710269Y-92617272D01*
X102874487Y-92649937D01*
X103041923Y-92649937D01*
X103206141Y-92617272D01*
X103360831Y-92553197D01*
X103500049Y-92460175D01*
X103618443Y-92341781D01*
X103711465Y-92202563D01*
X103775540Y-92047873D01*
X103808205Y-91883655D01*
X103808205Y-91716219D01*
X103775540Y-91552001D01*
X103711465Y-91397311D01*
X103618443Y-91258093D01*
X103500049Y-91139699D01*
X103360831Y-91046677D01*
X103206141Y-90982602D01*
X103041923Y-90949937D01*
X102887242Y-90949937D01*
X103082149Y-90165289D01*
X103744405Y-88133110D01*
X104232355Y-86934437D01*
X104258156Y-86960238D01*
X104397374Y-87053260D01*
X104552064Y-87117335D01*
X104716282Y-87150000D01*
X104883718Y-87150000D01*
X105047936Y-87117335D01*
X105202626Y-87053260D01*
X105341844Y-86960238D01*
X105460238Y-86841844D01*
X105553260Y-86702626D01*
X105617335Y-86547936D01*
X105650000Y-86383718D01*
X105650000Y-86216282D01*
X105617335Y-86052064D01*
X105553260Y-85897374D01*
X105460238Y-85758156D01*
X105341844Y-85639762D01*
X105202626Y-85546740D01*
X105047936Y-85482665D01*
X104895978Y-85452439D01*
X105495595Y-84236537D01*
X106575565Y-82392087D01*
X106998353Y-81775775D01*
X107019152Y-81806903D01*
X107137546Y-81925297D01*
X107276764Y-82018319D01*
X107431454Y-82082394D01*
X107595672Y-82115059D01*
X107763108Y-82115059D01*
X107927326Y-82082394D01*
X108082016Y-82018319D01*
X108221234Y-81925297D01*
X108339628Y-81806903D01*
X108432650Y-81667685D01*
X108496725Y-81512995D01*
X108529390Y-81348777D01*
X108529390Y-81181341D01*
X108496725Y-81017123D01*
X108432650Y-80862433D01*
X108339628Y-80723215D01*
X108221234Y-80604821D01*
X108082016Y-80511799D01*
X107928999Y-80448417D01*
X109116645Y-78958014D01*
X110564749Y-77385968D01*
X110713674Y-77245873D01*
X110732462Y-77291231D01*
X110825484Y-77430449D01*
X110943878Y-77548843D01*
X111083096Y-77641865D01*
X111237786Y-77705940D01*
X111402004Y-77738605D01*
X111569440Y-77738605D01*
X111733658Y-77705940D01*
X111888348Y-77641865D01*
X112027566Y-77548843D01*
X112145960Y-77430449D01*
X112238982Y-77291231D01*
X112303057Y-77136541D01*
X112335722Y-76972323D01*
X112335722Y-76804887D01*
X112303057Y-76640669D01*
X112238982Y-76485979D01*
X112145960Y-76346761D01*
X112027566Y-76228367D01*
X111891770Y-76137631D01*
X112121544Y-75921481D01*
X113779062Y-74572049D01*
X115246594Y-73542563D01*
X115255385Y-73586757D01*
X115319460Y-73741447D01*
X115412482Y-73880665D01*
X115530876Y-73999059D01*
X115670094Y-74092081D01*
X115824784Y-74156156D01*
X115989002Y-74188821D01*
X116156438Y-74188821D01*
X116320656Y-74156156D01*
X116475346Y-74092081D01*
X116614564Y-73999059D01*
X116732958Y-73880665D01*
X116825980Y-73741447D01*
X116890055Y-73586757D01*
X116922720Y-73422539D01*
X116922720Y-73255103D01*
X116890055Y-73090885D01*
X116825980Y-72936195D01*
X116732958Y-72796977D01*
X116623881Y-72687900D01*
X117361860Y-72245354D01*
X119268800Y-71279999D01*
X120414109Y-70799731D01*
X120414109Y-70835843D01*
X120446774Y-71000061D01*
X120510849Y-71154751D01*
X120603871Y-71293969D01*
X120722265Y-71412363D01*
X120861483Y-71505385D01*
X121016173Y-71569460D01*
X121180391Y-71602125D01*
X121347827Y-71602125D01*
X121512045Y-71569460D01*
X121666735Y-71505385D01*
X121805953Y-71412363D01*
X121924347Y-71293969D01*
X122017369Y-71154751D01*
X122081444Y-71000061D01*
X122114109Y-70835843D01*
X122114109Y-70668407D01*
X122081444Y-70504189D01*
X122017369Y-70349499D01*
X121930978Y-70220205D01*
X123265013Y-69769956D01*
X125333831Y-69232997D01*
X126017817Y-69106845D01*
X126010386Y-69144203D01*
X126010386Y-69311639D01*
X126043051Y-69475857D01*
X126107126Y-69630547D01*
X126200148Y-69769765D01*
X126318542Y-69888159D01*
X126457760Y-69981181D01*
X126612450Y-70045256D01*
X126776668Y-70077921D01*
X126944104Y-70077921D01*
X127108322Y-70045256D01*
X127263012Y-69981181D01*
X127402230Y-69888159D01*
X127520624Y-69769765D01*
X127613646Y-69630547D01*
X127677721Y-69475857D01*
X127710386Y-69311639D01*
X127710386Y-69144203D01*
X127677721Y-68979985D01*
X127613739Y-68825519D01*
X129559998Y-68608931D01*
X131695716Y-68525018D01*
X131848578Y-68529955D01*
M02*
