M48
METRIC,TZ
T1C0.300
T2C0.400
T3C1.000
T4C2.550
%
G90
G05
T1
X160972Y-93460
X102225Y-97554
X153311Y-78086
X104800Y-86300
X159448Y-87864
X121264Y-70752
X125200Y-127242
X143900Y-71400
X142336Y-126048
X136740Y-127572
X104152Y-108936
X155921Y-115535
X102628Y-103340
X147527Y-123461
X148935Y-74279
X102958Y-91800
X161375Y-99246
X107679Y-81265
X114665Y-122521
X126860Y-69228
X158800Y-110500
X116073Y-73339
X119700Y-125400
X130954Y-127975
X111486Y-76889
X152114Y-119911
X132646Y-68825
X138400Y-69558
X110289Y-118714
X156861Y-82673
X106739Y-114127
X160642Y-105000
T2
X107600Y-106400
X110300Y-95800
X110300Y-99400
X110600Y-101100
X113100Y-104800
X116100Y-95800
X116125Y-100800
X119100Y-122000
X120500Y-94700
X120900Y-81800
X121158Y-75858
X122500Y-75300
X123100Y-115500
X124400Y-114100
X125000Y-75200
X125550Y-123500
X126200Y-80600
X126400Y-123900
X128100Y-125400
X128300Y-116100
X129300Y-119300
X129385Y-117565
X129800Y-118300
X131700Y-122800
X132300Y-109400
X133700Y-120200
X134300Y-114900
X134600Y-117300
X135500Y-117600
X135700Y-115900
X136400Y-111100
X137300Y-81800
X137600Y-111300
X138300Y-71900
X138500Y-79100
X138700Y-122100
X138900Y-75300
X139800Y-121200
X140300Y-117400
X143500Y-120000
X143600Y-75800
X145200Y-79700
X148000Y-105900
X148000Y-111400
X151200Y-111100
X154000Y-111100
T3
X149004Y-102404
X150800Y-104200
X152596Y-105996
X154392Y-107792
X149004Y-95296
X150800Y-93500
X152596Y-91704
X154392Y-89908
T4
X131700Y-75700
T0
M30
