M48
METRIC,TZ
T1C0.300
T2C0.400
T3C1.000
T4C2.550
%
G90
G05
T1
X102225Y-97554
X102628Y-103340
X102958Y-91800
X104152Y-108936
X104800Y-86300
X106739Y-114127
X107679Y-81265
X110289Y-118714
X111486Y-76889
X114665Y-122521
X116073Y-73339
X119700Y-125400
X121264Y-70752
X125200Y-127242
X126860Y-69228
X130954Y-127975
X132646Y-68825
X136740Y-127572
X138400Y-69558
X142336Y-126048
X143900Y-71400
X147527Y-123461
X148935Y-74279
X152114Y-119911
X153311Y-78086
X155921Y-115535
X156861Y-82673
X158800Y-110500
X159448Y-87864
X160642Y-105000
X160972Y-93460
T2
X107600Y-106400
X110300Y-95800
X110300Y-99400
X110600Y-101100
X113100Y-104800
X116100Y-95800
X116125Y-100800
X118250Y-78750
X119100Y-122000
X119750Y-77500
X120500Y-94700
X120900Y-81800
X122500Y-78500
X122900Y-113800
X123100Y-115500
X123500Y-83500
X124200Y-76300
X124400Y-114100
X125000Y-83000
X125550Y-123500
X126400Y-123900
X127400Y-105400
X128100Y-125400
X128300Y-116100
X128600Y-78800
X129300Y-119300
X129385Y-117565
X129800Y-118300
X131600Y-107200
X131700Y-122800
X133700Y-120200
X134300Y-114900
X134600Y-117300
X134750Y-78750
X135200Y-74300
X135200Y-83500
X135500Y-117600
X135700Y-115900
X135900Y-86000
X138400Y-112100
X138700Y-122100
X139100Y-76100
X139300Y-112400
X139500Y-78500
X139800Y-121200
X140300Y-117400
X143500Y-120000
X146700Y-106100
X148000Y-111400
X151200Y-110600
X154000Y-110600
T3
X143900Y-87200
X145696Y-85404
X149100Y-82000
X149500Y-95296
X149500Y-102404
X150896Y-80204
X151296Y-93500
X151296Y-104200
X153092Y-91704
X153092Y-105996
X154888Y-89908
X154888Y-107792
T4
X131700Y-78950
T0
M30
