%TF.GenerationSoftware,KiCad,Pcbnew,(5.1.2)-1*%
%TF.CreationDate,2019-06-19T00:35:12+02:00*%
%TF.ProjectId,Wheel_ECU,57686565-6c5f-4454-9355-2e6b69636164,1.0*%
%TF.SameCoordinates,Original*%
%TF.FileFunction,Legend,Top*%
%TF.FilePolarity,Positive*%
%FSLAX46Y46*%
G04 Gerber Fmt 4.6, Leading zero omitted, Abs format (unit mm)*
G04 Created by KiCad (PCBNEW (5.1.2)-1) date 2019-06-19 00:35:12*
%MOMM*%
%LPD*%
G04 APERTURE LIST*
%ADD10C,2.000000*%
%ADD11C,0.150000*%
%ADD12C,0.010000*%
%ADD13C,0.120000*%
%ADD14R,3.100000X1.900000*%
%ADD15R,4.050000X1.400000*%
%ADD16C,5.600000*%
%ADD17C,5.600000*%
%ADD18C,9.500000*%
%ADD19R,1.650000X1.900000*%
%ADD20C,1.650000*%
%ADD21C,0.100000*%
%ADD22C,2.100000*%
%ADD23C,2.100000*%
%ADD24R,3.550000X1.400000*%
%ADD25R,1.000000X1.950000*%
%ADD26R,1.900000X1.650000*%
%ADD27R,1.750000X1.050000*%
%ADD28R,4.800000X5.500000*%
%ADD29R,2.200000X2.400000*%
G04 APERTURE END LIST*
D10*
X141800500Y-98400000D02*
G75*
G03X141800500Y-98400000I-10000500J0D01*
G01*
D11*
X147049660Y-90775888D02*
X147992469Y-91247293D01*
X147521065Y-90304484D01*
X148699576Y-90472843D02*
X148665904Y-90573858D01*
X148531217Y-90708545D01*
X148430202Y-90742217D01*
X148329187Y-90708545D01*
X148059813Y-90439171D01*
X148026141Y-90338156D01*
X148059813Y-90237140D01*
X148194500Y-90102453D01*
X148295515Y-90068782D01*
X148396530Y-90102453D01*
X148463874Y-90169797D01*
X148194500Y-90573858D01*
X149069965Y-90169797D02*
X148598561Y-89698392D01*
X148733248Y-89833079D02*
X148699576Y-89732064D01*
X148699576Y-89664721D01*
X148733248Y-89563705D01*
X148800591Y-89496362D01*
X149440355Y-89732064D02*
X149541370Y-89698392D01*
X149676057Y-89563705D01*
X149709729Y-89462690D01*
X149676057Y-89361675D01*
X149642385Y-89328003D01*
X149541370Y-89294331D01*
X149440355Y-89328003D01*
X149339339Y-89429018D01*
X149238324Y-89462690D01*
X149137309Y-89429018D01*
X149103637Y-89395347D01*
X149069965Y-89294331D01*
X149103637Y-89193316D01*
X149204652Y-89092301D01*
X149305668Y-89058629D01*
X150080118Y-89159644D02*
X149608713Y-88688240D01*
X149373011Y-88452538D02*
X149373011Y-88519881D01*
X149440355Y-88519881D01*
X149440355Y-88452538D01*
X149373011Y-88452538D01*
X149440355Y-88519881D01*
X150517851Y-88721912D02*
X150416835Y-88755583D01*
X150349492Y-88755583D01*
X150248477Y-88721912D01*
X150046446Y-88519881D01*
X150012774Y-88418866D01*
X150012774Y-88351522D01*
X150046446Y-88250507D01*
X150147461Y-88149492D01*
X150248477Y-88115820D01*
X150315820Y-88115820D01*
X150416835Y-88149492D01*
X150618866Y-88351522D01*
X150652538Y-88452538D01*
X150652538Y-88519881D01*
X150618866Y-88620896D01*
X150517851Y-88721912D01*
X150585194Y-87711759D02*
X151056599Y-88183164D01*
X150652538Y-87779103D02*
X150652538Y-87711759D01*
X150686209Y-87610744D01*
X150787225Y-87509729D01*
X150888240Y-87476057D01*
X150989255Y-87509729D01*
X151359644Y-87880118D01*
X152605499Y-86634263D02*
X152201438Y-87038324D01*
X152403469Y-86836294D02*
X151696362Y-86129187D01*
X151730034Y-86297546D01*
X151730034Y-86432233D01*
X151696362Y-86533248D01*
X152841201Y-86263874D02*
X152908545Y-86263874D01*
X152908545Y-86331217D01*
X152841201Y-86331217D01*
X152841201Y-86263874D01*
X152908545Y-86331217D01*
X153615652Y-85624111D02*
X153211591Y-86028172D01*
X153413621Y-85826141D02*
X152706514Y-85119034D01*
X152740186Y-85287393D01*
X152740186Y-85422080D01*
X152706514Y-85523095D01*
D12*
G36*
X116447470Y-78484706D02*
G01*
X116499243Y-78432971D01*
X116545242Y-78387048D01*
X116585843Y-78346572D01*
X116621421Y-78311179D01*
X116652350Y-78280505D01*
X116679005Y-78254185D01*
X116701761Y-78231857D01*
X116720992Y-78213155D01*
X116737074Y-78197716D01*
X116750382Y-78185175D01*
X116761289Y-78175167D01*
X116770171Y-78167330D01*
X116777404Y-78161299D01*
X116783360Y-78156709D01*
X116788415Y-78153199D01*
X116792945Y-78150400D01*
X116793695Y-78149967D01*
X116839879Y-78127990D01*
X116885951Y-78115206D01*
X116932118Y-78111614D01*
X116978588Y-78117215D01*
X117025567Y-78132009D01*
X117063775Y-78150530D01*
X117096467Y-78168784D01*
X117945770Y-79014300D01*
X117119399Y-79840671D01*
X117818227Y-80539498D01*
X118386361Y-79971363D01*
X118249243Y-79832543D01*
X118112126Y-79693721D01*
X118239659Y-79564479D01*
X118367192Y-79435238D01*
X118531752Y-79602207D01*
X118568810Y-79639829D01*
X118599961Y-79671529D01*
X118625791Y-79697950D01*
X118646891Y-79719732D01*
X118663848Y-79737520D01*
X118677254Y-79751955D01*
X118687694Y-79763680D01*
X118695760Y-79773335D01*
X118702039Y-79781564D01*
X118707121Y-79789011D01*
X118711595Y-79796316D01*
X118714735Y-79801786D01*
X118736606Y-79848334D01*
X118749291Y-79894477D01*
X118752788Y-79940495D01*
X118747098Y-79986673D01*
X118732221Y-80033291D01*
X118714442Y-80069777D01*
X118711587Y-80074833D01*
X118708654Y-80079727D01*
X118705268Y-80084850D01*
X118701053Y-80090591D01*
X118695634Y-80097341D01*
X118688637Y-80105490D01*
X118679686Y-80115428D01*
X118668406Y-80127545D01*
X118654421Y-80142232D01*
X118637357Y-80159879D01*
X118616838Y-80180875D01*
X118592489Y-80205612D01*
X118563935Y-80234480D01*
X118530801Y-80267867D01*
X118492710Y-80306166D01*
X118449290Y-80349765D01*
X118400163Y-80399056D01*
X118344956Y-80454427D01*
X118334603Y-80464810D01*
X118286124Y-80513378D01*
X118239149Y-80560337D01*
X118194129Y-80605245D01*
X118151509Y-80647658D01*
X118111739Y-80687134D01*
X118075267Y-80723231D01*
X118042540Y-80755506D01*
X118014008Y-80783516D01*
X117990118Y-80806818D01*
X117971318Y-80824970D01*
X117958056Y-80837529D01*
X117950781Y-80844053D01*
X117950179Y-80844525D01*
X117905068Y-80873480D01*
X117859914Y-80893211D01*
X117814569Y-80903722D01*
X117768883Y-80905027D01*
X117722706Y-80897134D01*
X117675888Y-80880051D01*
X117644328Y-80863611D01*
X117609232Y-80843194D01*
X116817337Y-80051299D01*
X116732321Y-79966280D01*
X116653591Y-79887539D01*
X116580899Y-79814822D01*
X116513995Y-79747881D01*
X116452634Y-79686460D01*
X116396565Y-79630309D01*
X116345542Y-79579177D01*
X116299314Y-79532811D01*
X116257637Y-79490961D01*
X116220261Y-79453374D01*
X116186938Y-79419798D01*
X116157419Y-79389982D01*
X116131457Y-79363673D01*
X116108804Y-79340622D01*
X116089212Y-79320575D01*
X116072432Y-79303280D01*
X116067910Y-79298574D01*
X116322606Y-79043877D01*
X116907139Y-79628410D01*
X117475344Y-79060204D01*
X116890811Y-78475672D01*
X116322606Y-79043877D01*
X116067910Y-79298574D01*
X116058217Y-79288487D01*
X116046319Y-79275943D01*
X116036489Y-79265397D01*
X116028480Y-79256597D01*
X116022042Y-79249291D01*
X116016931Y-79243228D01*
X116012894Y-79238156D01*
X116009686Y-79233822D01*
X116007058Y-79229975D01*
X116005326Y-79227270D01*
X115980757Y-79180810D01*
X115965413Y-79134563D01*
X115959289Y-79088378D01*
X115962382Y-79042103D01*
X115974685Y-78995585D01*
X115996195Y-78948673D01*
X115997132Y-78946992D01*
X115999737Y-78942554D01*
X116002865Y-78937792D01*
X116006878Y-78932327D01*
X116012144Y-78925786D01*
X116019025Y-78917793D01*
X116027888Y-78907970D01*
X116039097Y-78895942D01*
X116053016Y-78881334D01*
X116070012Y-78863769D01*
X116090447Y-78842871D01*
X116114689Y-78818264D01*
X116143100Y-78789573D01*
X116176047Y-78756421D01*
X116213892Y-78718433D01*
X116257003Y-78675231D01*
X116305745Y-78626442D01*
X116360479Y-78571688D01*
X116389550Y-78542616D01*
X116447470Y-78484706D01*
X116447470Y-78484706D01*
G37*
X116447470Y-78484706D02*
X116499243Y-78432971D01*
X116545242Y-78387048D01*
X116585843Y-78346572D01*
X116621421Y-78311179D01*
X116652350Y-78280505D01*
X116679005Y-78254185D01*
X116701761Y-78231857D01*
X116720992Y-78213155D01*
X116737074Y-78197716D01*
X116750382Y-78185175D01*
X116761289Y-78175167D01*
X116770171Y-78167330D01*
X116777404Y-78161299D01*
X116783360Y-78156709D01*
X116788415Y-78153199D01*
X116792945Y-78150400D01*
X116793695Y-78149967D01*
X116839879Y-78127990D01*
X116885951Y-78115206D01*
X116932118Y-78111614D01*
X116978588Y-78117215D01*
X117025567Y-78132009D01*
X117063775Y-78150530D01*
X117096467Y-78168784D01*
X117945770Y-79014300D01*
X117119399Y-79840671D01*
X117818227Y-80539498D01*
X118386361Y-79971363D01*
X118249243Y-79832543D01*
X118112126Y-79693721D01*
X118239659Y-79564479D01*
X118367192Y-79435238D01*
X118531752Y-79602207D01*
X118568810Y-79639829D01*
X118599961Y-79671529D01*
X118625791Y-79697950D01*
X118646891Y-79719732D01*
X118663848Y-79737520D01*
X118677254Y-79751955D01*
X118687694Y-79763680D01*
X118695760Y-79773335D01*
X118702039Y-79781564D01*
X118707121Y-79789011D01*
X118711595Y-79796316D01*
X118714735Y-79801786D01*
X118736606Y-79848334D01*
X118749291Y-79894477D01*
X118752788Y-79940495D01*
X118747098Y-79986673D01*
X118732221Y-80033291D01*
X118714442Y-80069777D01*
X118711587Y-80074833D01*
X118708654Y-80079727D01*
X118705268Y-80084850D01*
X118701053Y-80090591D01*
X118695634Y-80097341D01*
X118688637Y-80105490D01*
X118679686Y-80115428D01*
X118668406Y-80127545D01*
X118654421Y-80142232D01*
X118637357Y-80159879D01*
X118616838Y-80180875D01*
X118592489Y-80205612D01*
X118563935Y-80234480D01*
X118530801Y-80267867D01*
X118492710Y-80306166D01*
X118449290Y-80349765D01*
X118400163Y-80399056D01*
X118344956Y-80454427D01*
X118334603Y-80464810D01*
X118286124Y-80513378D01*
X118239149Y-80560337D01*
X118194129Y-80605245D01*
X118151509Y-80647658D01*
X118111739Y-80687134D01*
X118075267Y-80723231D01*
X118042540Y-80755506D01*
X118014008Y-80783516D01*
X117990118Y-80806818D01*
X117971318Y-80824970D01*
X117958056Y-80837529D01*
X117950781Y-80844053D01*
X117950179Y-80844525D01*
X117905068Y-80873480D01*
X117859914Y-80893211D01*
X117814569Y-80903722D01*
X117768883Y-80905027D01*
X117722706Y-80897134D01*
X117675888Y-80880051D01*
X117644328Y-80863611D01*
X117609232Y-80843194D01*
X116817337Y-80051299D01*
X116732321Y-79966280D01*
X116653591Y-79887539D01*
X116580899Y-79814822D01*
X116513995Y-79747881D01*
X116452634Y-79686460D01*
X116396565Y-79630309D01*
X116345542Y-79579177D01*
X116299314Y-79532811D01*
X116257637Y-79490961D01*
X116220261Y-79453374D01*
X116186938Y-79419798D01*
X116157419Y-79389982D01*
X116131457Y-79363673D01*
X116108804Y-79340622D01*
X116089212Y-79320575D01*
X116072432Y-79303280D01*
X116067910Y-79298574D01*
X116322606Y-79043877D01*
X116907139Y-79628410D01*
X117475344Y-79060204D01*
X116890811Y-78475672D01*
X116322606Y-79043877D01*
X116067910Y-79298574D01*
X116058217Y-79288487D01*
X116046319Y-79275943D01*
X116036489Y-79265397D01*
X116028480Y-79256597D01*
X116022042Y-79249291D01*
X116016931Y-79243228D01*
X116012894Y-79238156D01*
X116009686Y-79233822D01*
X116007058Y-79229975D01*
X116005326Y-79227270D01*
X115980757Y-79180810D01*
X115965413Y-79134563D01*
X115959289Y-79088378D01*
X115962382Y-79042103D01*
X115974685Y-78995585D01*
X115996195Y-78948673D01*
X115997132Y-78946992D01*
X115999737Y-78942554D01*
X116002865Y-78937792D01*
X116006878Y-78932327D01*
X116012144Y-78925786D01*
X116019025Y-78917793D01*
X116027888Y-78907970D01*
X116039097Y-78895942D01*
X116053016Y-78881334D01*
X116070012Y-78863769D01*
X116090447Y-78842871D01*
X116114689Y-78818264D01*
X116143100Y-78789573D01*
X116176047Y-78756421D01*
X116213892Y-78718433D01*
X116257003Y-78675231D01*
X116305745Y-78626442D01*
X116360479Y-78571688D01*
X116389550Y-78542616D01*
X116447470Y-78484706D01*
G36*
X117459017Y-81342823D02*
G01*
X117197765Y-81604075D01*
X115903222Y-80307892D01*
X114608680Y-79011709D01*
X114630228Y-78798137D01*
X114634699Y-78753861D01*
X114638961Y-78711735D01*
X114642909Y-78672789D01*
X114646439Y-78638055D01*
X114649446Y-78608561D01*
X114651824Y-78585341D01*
X114653468Y-78569424D01*
X114654202Y-78562499D01*
X114656628Y-78540434D01*
X117459017Y-81342823D01*
X117459017Y-81342823D01*
G37*
X117459017Y-81342823D02*
X117197765Y-81604075D01*
X115903222Y-80307892D01*
X114608680Y-79011709D01*
X114630228Y-78798137D01*
X114634699Y-78753861D01*
X114638961Y-78711735D01*
X114642909Y-78672789D01*
X114646439Y-78638055D01*
X114649446Y-78608561D01*
X114651824Y-78585341D01*
X114653468Y-78569424D01*
X114654202Y-78562499D01*
X114656628Y-78540434D01*
X117459017Y-81342823D01*
G36*
X116871218Y-81930622D02*
G01*
X116609975Y-82191865D01*
X114673505Y-80255395D01*
X114934748Y-79994152D01*
X116871218Y-81930622D01*
X116871218Y-81930622D01*
G37*
X116871218Y-81930622D02*
X116609975Y-82191865D01*
X114673505Y-80255395D01*
X114934748Y-79994152D01*
X116871218Y-81930622D01*
G36*
X116286686Y-82515154D02*
G01*
X115825028Y-82976015D01*
X115770242Y-83030667D01*
X115716993Y-83083709D01*
X115665673Y-83134754D01*
X115616675Y-83183416D01*
X115570389Y-83229307D01*
X115527206Y-83272043D01*
X115487519Y-83311235D01*
X115451720Y-83346500D01*
X115420198Y-83377448D01*
X115393347Y-83403696D01*
X115371558Y-83424856D01*
X115355222Y-83440541D01*
X115344732Y-83450365D01*
X115340952Y-83453643D01*
X115295803Y-83482643D01*
X115250269Y-83502425D01*
X115204420Y-83512990D01*
X115158326Y-83514331D01*
X115112060Y-83506446D01*
X115065688Y-83489330D01*
X115028926Y-83469217D01*
X115025281Y-83466861D01*
X115021335Y-83464109D01*
X115016838Y-83460715D01*
X115011539Y-83456429D01*
X115005185Y-83451006D01*
X114997525Y-83444194D01*
X114988306Y-83435748D01*
X114977279Y-83425418D01*
X114964190Y-83412957D01*
X114948787Y-83398117D01*
X114930820Y-83380650D01*
X114910037Y-83360306D01*
X114886186Y-83336839D01*
X114859014Y-83310001D01*
X114828270Y-83279543D01*
X114793703Y-83245218D01*
X114755061Y-83206777D01*
X114712092Y-83163972D01*
X114664544Y-83116556D01*
X114612166Y-83064279D01*
X114554707Y-83006895D01*
X114491913Y-82944155D01*
X114423533Y-82875810D01*
X114349317Y-82801614D01*
X114269012Y-82721317D01*
X114204899Y-82657206D01*
X114119869Y-82572173D01*
X114041127Y-82493419D01*
X113968421Y-82420690D01*
X113901506Y-82353735D01*
X113840135Y-82292303D01*
X113784057Y-82236143D01*
X113733027Y-82185003D01*
X113686795Y-82138631D01*
X113645116Y-82096778D01*
X113607739Y-82059189D01*
X113574419Y-82025616D01*
X113544907Y-81995806D01*
X113518956Y-81969506D01*
X113496317Y-81946467D01*
X113476743Y-81926438D01*
X113471536Y-81921072D01*
X113733027Y-81659581D01*
X114467231Y-82393785D01*
X114536033Y-82462568D01*
X114603127Y-82529607D01*
X114668222Y-82594610D01*
X114731022Y-82657285D01*
X114791234Y-82717340D01*
X114848565Y-82774484D01*
X114902721Y-82828424D01*
X114953407Y-82878869D01*
X115000331Y-82925527D01*
X115043201Y-82968105D01*
X115081720Y-83006313D01*
X115115596Y-83039858D01*
X115144536Y-83068448D01*
X115168244Y-83091792D01*
X115186430Y-83109598D01*
X115198798Y-83121573D01*
X115205055Y-83127426D01*
X115205789Y-83127989D01*
X115209627Y-83124796D01*
X115219513Y-83115525D01*
X115234975Y-83100642D01*
X115255541Y-83080614D01*
X115280740Y-83055902D01*
X115310099Y-83026974D01*
X115343146Y-82994294D01*
X115379410Y-82958326D01*
X115418417Y-82919538D01*
X115459696Y-82878392D01*
X115500232Y-82837900D01*
X115790322Y-82547810D01*
X114317560Y-81075048D01*
X113733027Y-81659581D01*
X113471536Y-81921072D01*
X113459985Y-81909165D01*
X113445798Y-81894398D01*
X113433931Y-81881887D01*
X113424139Y-81871377D01*
X113416172Y-81862621D01*
X113409784Y-81855365D01*
X113404726Y-81849357D01*
X113400752Y-81844347D01*
X113397611Y-81840083D01*
X113395058Y-81836314D01*
X113393538Y-81833918D01*
X113369781Y-81787846D01*
X113355237Y-81741218D01*
X113349910Y-81694182D01*
X113353805Y-81646888D01*
X113366924Y-81599482D01*
X113386180Y-81557651D01*
X113388767Y-81553225D01*
X113392081Y-81548270D01*
X113396503Y-81542396D01*
X113402409Y-81535210D01*
X113410179Y-81526316D01*
X113420193Y-81515324D01*
X113432829Y-81501841D01*
X113448464Y-81485474D01*
X113467478Y-81465829D01*
X113490249Y-81442514D01*
X113517157Y-81415137D01*
X113548580Y-81383304D01*
X113584896Y-81346623D01*
X113626484Y-81304700D01*
X113673724Y-81257144D01*
X113726993Y-81203560D01*
X113744417Y-81186038D01*
X114088799Y-80839756D01*
X113436704Y-80187661D01*
X113449001Y-80067704D01*
X113453247Y-80026169D01*
X113458029Y-79979209D01*
X113462997Y-79930259D01*
X113467804Y-79882756D01*
X113472100Y-79840135D01*
X113473065Y-79830524D01*
X113484834Y-79713302D01*
X116286686Y-82515154D01*
X116286686Y-82515154D01*
G37*
X116286686Y-82515154D02*
X115825028Y-82976015D01*
X115770242Y-83030667D01*
X115716993Y-83083709D01*
X115665673Y-83134754D01*
X115616675Y-83183416D01*
X115570389Y-83229307D01*
X115527206Y-83272043D01*
X115487519Y-83311235D01*
X115451720Y-83346500D01*
X115420198Y-83377448D01*
X115393347Y-83403696D01*
X115371558Y-83424856D01*
X115355222Y-83440541D01*
X115344732Y-83450365D01*
X115340952Y-83453643D01*
X115295803Y-83482643D01*
X115250269Y-83502425D01*
X115204420Y-83512990D01*
X115158326Y-83514331D01*
X115112060Y-83506446D01*
X115065688Y-83489330D01*
X115028926Y-83469217D01*
X115025281Y-83466861D01*
X115021335Y-83464109D01*
X115016838Y-83460715D01*
X115011539Y-83456429D01*
X115005185Y-83451006D01*
X114997525Y-83444194D01*
X114988306Y-83435748D01*
X114977279Y-83425418D01*
X114964190Y-83412957D01*
X114948787Y-83398117D01*
X114930820Y-83380650D01*
X114910037Y-83360306D01*
X114886186Y-83336839D01*
X114859014Y-83310001D01*
X114828270Y-83279543D01*
X114793703Y-83245218D01*
X114755061Y-83206777D01*
X114712092Y-83163972D01*
X114664544Y-83116556D01*
X114612166Y-83064279D01*
X114554707Y-83006895D01*
X114491913Y-82944155D01*
X114423533Y-82875810D01*
X114349317Y-82801614D01*
X114269012Y-82721317D01*
X114204899Y-82657206D01*
X114119869Y-82572173D01*
X114041127Y-82493419D01*
X113968421Y-82420690D01*
X113901506Y-82353735D01*
X113840135Y-82292303D01*
X113784057Y-82236143D01*
X113733027Y-82185003D01*
X113686795Y-82138631D01*
X113645116Y-82096778D01*
X113607739Y-82059189D01*
X113574419Y-82025616D01*
X113544907Y-81995806D01*
X113518956Y-81969506D01*
X113496317Y-81946467D01*
X113476743Y-81926438D01*
X113471536Y-81921072D01*
X113733027Y-81659581D01*
X114467231Y-82393785D01*
X114536033Y-82462568D01*
X114603127Y-82529607D01*
X114668222Y-82594610D01*
X114731022Y-82657285D01*
X114791234Y-82717340D01*
X114848565Y-82774484D01*
X114902721Y-82828424D01*
X114953407Y-82878869D01*
X115000331Y-82925527D01*
X115043201Y-82968105D01*
X115081720Y-83006313D01*
X115115596Y-83039858D01*
X115144536Y-83068448D01*
X115168244Y-83091792D01*
X115186430Y-83109598D01*
X115198798Y-83121573D01*
X115205055Y-83127426D01*
X115205789Y-83127989D01*
X115209627Y-83124796D01*
X115219513Y-83115525D01*
X115234975Y-83100642D01*
X115255541Y-83080614D01*
X115280740Y-83055902D01*
X115310099Y-83026974D01*
X115343146Y-82994294D01*
X115379410Y-82958326D01*
X115418417Y-82919538D01*
X115459696Y-82878392D01*
X115500232Y-82837900D01*
X115790322Y-82547810D01*
X114317560Y-81075048D01*
X113733027Y-81659581D01*
X113471536Y-81921072D01*
X113459985Y-81909165D01*
X113445798Y-81894398D01*
X113433931Y-81881887D01*
X113424139Y-81871377D01*
X113416172Y-81862621D01*
X113409784Y-81855365D01*
X113404726Y-81849357D01*
X113400752Y-81844347D01*
X113397611Y-81840083D01*
X113395058Y-81836314D01*
X113393538Y-81833918D01*
X113369781Y-81787846D01*
X113355237Y-81741218D01*
X113349910Y-81694182D01*
X113353805Y-81646888D01*
X113366924Y-81599482D01*
X113386180Y-81557651D01*
X113388767Y-81553225D01*
X113392081Y-81548270D01*
X113396503Y-81542396D01*
X113402409Y-81535210D01*
X113410179Y-81526316D01*
X113420193Y-81515324D01*
X113432829Y-81501841D01*
X113448464Y-81485474D01*
X113467478Y-81465829D01*
X113490249Y-81442514D01*
X113517157Y-81415137D01*
X113548580Y-81383304D01*
X113584896Y-81346623D01*
X113626484Y-81304700D01*
X113673724Y-81257144D01*
X113726993Y-81203560D01*
X113744417Y-81186038D01*
X114088799Y-80839756D01*
X113436704Y-80187661D01*
X113449001Y-80067704D01*
X113453247Y-80026169D01*
X113458029Y-79979209D01*
X113462997Y-79930259D01*
X113467804Y-79882756D01*
X113472100Y-79840135D01*
X113473065Y-79830524D01*
X113484834Y-79713302D01*
X116286686Y-82515154D01*
G36*
X112517077Y-82415069D02*
G01*
X112559821Y-82372406D01*
X112597565Y-82334848D01*
X112630697Y-82302043D01*
X112659605Y-82273639D01*
X112684677Y-82249286D01*
X112706301Y-82228631D01*
X112724864Y-82211323D01*
X112740754Y-82197011D01*
X112754360Y-82185342D01*
X112766069Y-82175967D01*
X112776269Y-82168533D01*
X112785347Y-82162687D01*
X112793694Y-82158080D01*
X112801694Y-82154359D01*
X112809738Y-82151173D01*
X112818212Y-82148171D01*
X112827504Y-82145000D01*
X112834635Y-82142516D01*
X112878718Y-82131290D01*
X112922699Y-82128997D01*
X112966785Y-82135690D01*
X113011176Y-82151420D01*
X113056078Y-82176239D01*
X113101294Y-82209862D01*
X113109482Y-82217182D01*
X113123041Y-82229948D01*
X113142047Y-82248239D01*
X113166575Y-82272128D01*
X113196701Y-82301692D01*
X113232500Y-82337004D01*
X113274049Y-82378140D01*
X113321422Y-82425176D01*
X113374694Y-82478185D01*
X113433942Y-82537244D01*
X113499240Y-82602426D01*
X113570666Y-82673808D01*
X113648292Y-82751464D01*
X113732196Y-82835468D01*
X113822452Y-82925897D01*
X113908612Y-83012272D01*
X114673338Y-83779088D01*
X114693079Y-83813269D01*
X114716109Y-83860508D01*
X114730029Y-83906887D01*
X114734819Y-83952649D01*
X114730462Y-83998040D01*
X114716938Y-84043303D01*
X114694229Y-84088680D01*
X114668944Y-84125880D01*
X114662731Y-84133020D01*
X114650491Y-84146115D01*
X114632747Y-84164641D01*
X114610019Y-84188077D01*
X114582830Y-84215903D01*
X114551698Y-84247596D01*
X114517146Y-84282635D01*
X114479695Y-84320498D01*
X114439868Y-84360664D01*
X114398182Y-84402611D01*
X114355160Y-84445818D01*
X114311325Y-84489763D01*
X114267197Y-84533924D01*
X114223296Y-84577781D01*
X114180146Y-84620812D01*
X114138265Y-84662493D01*
X114098175Y-84702306D01*
X114060398Y-84739726D01*
X114025455Y-84774235D01*
X113993866Y-84805309D01*
X113966154Y-84832427D01*
X113942840Y-84855068D01*
X113924443Y-84872711D01*
X113911486Y-84884833D01*
X113904491Y-84890912D01*
X113904431Y-84890956D01*
X113858960Y-84919968D01*
X113812998Y-84939788D01*
X113766655Y-84950410D01*
X113720043Y-84951823D01*
X113673273Y-84944022D01*
X113626454Y-84926997D01*
X113598681Y-84912524D01*
X113595421Y-84910558D01*
X113591878Y-84908216D01*
X113587804Y-84905250D01*
X113582948Y-84901415D01*
X113577063Y-84896466D01*
X113569900Y-84890157D01*
X113561208Y-84882242D01*
X113550739Y-84872478D01*
X113538243Y-84860617D01*
X113523471Y-84846414D01*
X113506176Y-84829623D01*
X113486105Y-84809999D01*
X113463012Y-84787297D01*
X113436647Y-84761271D01*
X113406761Y-84731676D01*
X113373102Y-84698265D01*
X113335426Y-84660794D01*
X113293480Y-84619018D01*
X113247015Y-84572689D01*
X113195785Y-84521563D01*
X113139537Y-84465394D01*
X113078023Y-84403938D01*
X113010996Y-84336948D01*
X112938204Y-84264179D01*
X112859398Y-84185384D01*
X112774331Y-84100320D01*
X112033310Y-83359298D01*
X112296186Y-83096422D01*
X113768982Y-84569219D01*
X114350216Y-83984651D01*
X113615474Y-83248263D01*
X112880733Y-82511875D01*
X112296186Y-83096422D01*
X112033310Y-83359298D01*
X111966366Y-83292355D01*
X111947886Y-83258815D01*
X111926626Y-83213004D01*
X111914294Y-83168428D01*
X111910885Y-83124301D01*
X111916395Y-83079843D01*
X111930818Y-83034265D01*
X111946252Y-83001201D01*
X111963100Y-82969065D01*
X112354965Y-82577200D01*
X112415037Y-82517114D01*
X112468944Y-82463188D01*
X112517077Y-82415069D01*
X112517077Y-82415069D01*
G37*
X112517077Y-82415069D02*
X112559821Y-82372406D01*
X112597565Y-82334848D01*
X112630697Y-82302043D01*
X112659605Y-82273639D01*
X112684677Y-82249286D01*
X112706301Y-82228631D01*
X112724864Y-82211323D01*
X112740754Y-82197011D01*
X112754360Y-82185342D01*
X112766069Y-82175967D01*
X112776269Y-82168533D01*
X112785347Y-82162687D01*
X112793694Y-82158080D01*
X112801694Y-82154359D01*
X112809738Y-82151173D01*
X112818212Y-82148171D01*
X112827504Y-82145000D01*
X112834635Y-82142516D01*
X112878718Y-82131290D01*
X112922699Y-82128997D01*
X112966785Y-82135690D01*
X113011176Y-82151420D01*
X113056078Y-82176239D01*
X113101294Y-82209862D01*
X113109482Y-82217182D01*
X113123041Y-82229948D01*
X113142047Y-82248239D01*
X113166575Y-82272128D01*
X113196701Y-82301692D01*
X113232500Y-82337004D01*
X113274049Y-82378140D01*
X113321422Y-82425176D01*
X113374694Y-82478185D01*
X113433942Y-82537244D01*
X113499240Y-82602426D01*
X113570666Y-82673808D01*
X113648292Y-82751464D01*
X113732196Y-82835468D01*
X113822452Y-82925897D01*
X113908612Y-83012272D01*
X114673338Y-83779088D01*
X114693079Y-83813269D01*
X114716109Y-83860508D01*
X114730029Y-83906887D01*
X114734819Y-83952649D01*
X114730462Y-83998040D01*
X114716938Y-84043303D01*
X114694229Y-84088680D01*
X114668944Y-84125880D01*
X114662731Y-84133020D01*
X114650491Y-84146115D01*
X114632747Y-84164641D01*
X114610019Y-84188077D01*
X114582830Y-84215903D01*
X114551698Y-84247596D01*
X114517146Y-84282635D01*
X114479695Y-84320498D01*
X114439868Y-84360664D01*
X114398182Y-84402611D01*
X114355160Y-84445818D01*
X114311325Y-84489763D01*
X114267197Y-84533924D01*
X114223296Y-84577781D01*
X114180146Y-84620812D01*
X114138265Y-84662493D01*
X114098175Y-84702306D01*
X114060398Y-84739726D01*
X114025455Y-84774235D01*
X113993866Y-84805309D01*
X113966154Y-84832427D01*
X113942840Y-84855068D01*
X113924443Y-84872711D01*
X113911486Y-84884833D01*
X113904491Y-84890912D01*
X113904431Y-84890956D01*
X113858960Y-84919968D01*
X113812998Y-84939788D01*
X113766655Y-84950410D01*
X113720043Y-84951823D01*
X113673273Y-84944022D01*
X113626454Y-84926997D01*
X113598681Y-84912524D01*
X113595421Y-84910558D01*
X113591878Y-84908216D01*
X113587804Y-84905250D01*
X113582948Y-84901415D01*
X113577063Y-84896466D01*
X113569900Y-84890157D01*
X113561208Y-84882242D01*
X113550739Y-84872478D01*
X113538243Y-84860617D01*
X113523471Y-84846414D01*
X113506176Y-84829623D01*
X113486105Y-84809999D01*
X113463012Y-84787297D01*
X113436647Y-84761271D01*
X113406761Y-84731676D01*
X113373102Y-84698265D01*
X113335426Y-84660794D01*
X113293480Y-84619018D01*
X113247015Y-84572689D01*
X113195785Y-84521563D01*
X113139537Y-84465394D01*
X113078023Y-84403938D01*
X113010996Y-84336948D01*
X112938204Y-84264179D01*
X112859398Y-84185384D01*
X112774331Y-84100320D01*
X112033310Y-83359298D01*
X112296186Y-83096422D01*
X113768982Y-84569219D01*
X114350216Y-83984651D01*
X113615474Y-83248263D01*
X112880733Y-82511875D01*
X112296186Y-83096422D01*
X112033310Y-83359298D01*
X111966366Y-83292355D01*
X111947886Y-83258815D01*
X111926626Y-83213004D01*
X111914294Y-83168428D01*
X111910885Y-83124301D01*
X111916395Y-83079843D01*
X111930818Y-83034265D01*
X111946252Y-83001201D01*
X111963100Y-82969065D01*
X112354965Y-82577200D01*
X112415037Y-82517114D01*
X112468944Y-82463188D01*
X112517077Y-82415069D01*
G36*
X110995070Y-83937103D02*
G01*
X111046276Y-83885926D01*
X111091720Y-83840548D01*
X111131781Y-83800597D01*
X111166841Y-83765705D01*
X111197281Y-83735504D01*
X111223482Y-83709622D01*
X111245825Y-83687693D01*
X111264690Y-83669345D01*
X111280461Y-83654209D01*
X111293516Y-83641918D01*
X111304239Y-83632099D01*
X111313008Y-83624386D01*
X111320207Y-83618406D01*
X111326215Y-83613794D01*
X111331414Y-83610179D01*
X111336185Y-83607190D01*
X111339049Y-83605517D01*
X111385108Y-83583410D01*
X111430519Y-83570443D01*
X111475740Y-83566611D01*
X111521228Y-83571907D01*
X111567443Y-83586326D01*
X111601082Y-83602170D01*
X111608028Y-83605948D01*
X111614568Y-83609798D01*
X111621296Y-83614266D01*
X111628803Y-83619897D01*
X111637680Y-83627237D01*
X111648521Y-83636830D01*
X111661915Y-83649221D01*
X111678455Y-83664958D01*
X111698733Y-83684584D01*
X111723340Y-83708644D01*
X111752868Y-83737685D01*
X111787909Y-83772251D01*
X111819439Y-83803390D01*
X112005899Y-83987569D01*
X111744308Y-84249160D01*
X111443878Y-83948730D01*
X110895266Y-84497342D01*
X112368028Y-85970104D01*
X112916640Y-85421492D01*
X112560695Y-85065547D01*
X112822246Y-84803996D01*
X113034168Y-85018228D01*
X113077703Y-85062239D01*
X113115249Y-85100243D01*
X113147301Y-85132818D01*
X113174352Y-85160538D01*
X113196898Y-85183976D01*
X113215432Y-85203707D01*
X113230448Y-85220305D01*
X113242440Y-85234344D01*
X113251903Y-85246400D01*
X113259331Y-85257046D01*
X113265219Y-85266855D01*
X113270059Y-85276405D01*
X113274348Y-85286267D01*
X113278578Y-85297016D01*
X113282176Y-85306440D01*
X113294121Y-85350288D01*
X113297183Y-85395426D01*
X113291497Y-85441138D01*
X113277196Y-85486709D01*
X113254412Y-85531420D01*
X113235054Y-85559767D01*
X113228592Y-85567241D01*
X113216105Y-85580651D01*
X113198131Y-85599459D01*
X113175206Y-85623129D01*
X113147870Y-85651122D01*
X113116657Y-85682903D01*
X113082107Y-85717932D01*
X113044757Y-85755675D01*
X113005143Y-85795592D01*
X112963803Y-85837149D01*
X112921275Y-85879805D01*
X112878096Y-85923027D01*
X112834802Y-85966274D01*
X112791933Y-86009010D01*
X112750025Y-86050699D01*
X112709615Y-86090803D01*
X112671242Y-86128784D01*
X112635441Y-86164107D01*
X112602750Y-86196233D01*
X112573707Y-86224624D01*
X112548851Y-86248745D01*
X112528716Y-86268059D01*
X112513841Y-86282025D01*
X112504763Y-86290110D01*
X112503308Y-86291266D01*
X112458028Y-86320412D01*
X112412654Y-86340332D01*
X112367054Y-86351035D01*
X112321096Y-86352532D01*
X112274650Y-86344834D01*
X112227581Y-86327950D01*
X112200914Y-86314494D01*
X112168829Y-86296658D01*
X111385790Y-85515501D01*
X111291977Y-85421894D01*
X111204599Y-85334659D01*
X111123525Y-85253671D01*
X111048629Y-85178800D01*
X110979786Y-85109919D01*
X110916866Y-85046899D01*
X110859743Y-84989614D01*
X110808289Y-84937933D01*
X110762378Y-84891730D01*
X110721881Y-84850875D01*
X110686673Y-84815243D01*
X110656625Y-84784703D01*
X110631610Y-84759127D01*
X110611501Y-84738389D01*
X110596171Y-84722361D01*
X110585493Y-84710912D01*
X110579338Y-84703916D01*
X110578596Y-84702984D01*
X110547897Y-84657230D01*
X110526424Y-84611597D01*
X110514166Y-84565987D01*
X110511114Y-84520298D01*
X110517259Y-84474432D01*
X110532591Y-84428288D01*
X110549968Y-84393694D01*
X110552697Y-84389189D01*
X110556079Y-84384222D01*
X110560483Y-84378416D01*
X110566272Y-84371393D01*
X110573816Y-84362776D01*
X110583480Y-84352185D01*
X110595631Y-84339247D01*
X110610638Y-84323580D01*
X110628863Y-84304809D01*
X110650675Y-84282555D01*
X110676442Y-84256441D01*
X110706530Y-84226090D01*
X110741304Y-84191123D01*
X110781133Y-84151164D01*
X110826383Y-84105835D01*
X110877420Y-84054757D01*
X110934611Y-83997554D01*
X110937718Y-83994448D01*
X110995070Y-83937103D01*
X110995070Y-83937103D01*
G37*
X110995070Y-83937103D02*
X111046276Y-83885926D01*
X111091720Y-83840548D01*
X111131781Y-83800597D01*
X111166841Y-83765705D01*
X111197281Y-83735504D01*
X111223482Y-83709622D01*
X111245825Y-83687693D01*
X111264690Y-83669345D01*
X111280461Y-83654209D01*
X111293516Y-83641918D01*
X111304239Y-83632099D01*
X111313008Y-83624386D01*
X111320207Y-83618406D01*
X111326215Y-83613794D01*
X111331414Y-83610179D01*
X111336185Y-83607190D01*
X111339049Y-83605517D01*
X111385108Y-83583410D01*
X111430519Y-83570443D01*
X111475740Y-83566611D01*
X111521228Y-83571907D01*
X111567443Y-83586326D01*
X111601082Y-83602170D01*
X111608028Y-83605948D01*
X111614568Y-83609798D01*
X111621296Y-83614266D01*
X111628803Y-83619897D01*
X111637680Y-83627237D01*
X111648521Y-83636830D01*
X111661915Y-83649221D01*
X111678455Y-83664958D01*
X111698733Y-83684584D01*
X111723340Y-83708644D01*
X111752868Y-83737685D01*
X111787909Y-83772251D01*
X111819439Y-83803390D01*
X112005899Y-83987569D01*
X111744308Y-84249160D01*
X111443878Y-83948730D01*
X110895266Y-84497342D01*
X112368028Y-85970104D01*
X112916640Y-85421492D01*
X112560695Y-85065547D01*
X112822246Y-84803996D01*
X113034168Y-85018228D01*
X113077703Y-85062239D01*
X113115249Y-85100243D01*
X113147301Y-85132818D01*
X113174352Y-85160538D01*
X113196898Y-85183976D01*
X113215432Y-85203707D01*
X113230448Y-85220305D01*
X113242440Y-85234344D01*
X113251903Y-85246400D01*
X113259331Y-85257046D01*
X113265219Y-85266855D01*
X113270059Y-85276405D01*
X113274348Y-85286267D01*
X113278578Y-85297016D01*
X113282176Y-85306440D01*
X113294121Y-85350288D01*
X113297183Y-85395426D01*
X113291497Y-85441138D01*
X113277196Y-85486709D01*
X113254412Y-85531420D01*
X113235054Y-85559767D01*
X113228592Y-85567241D01*
X113216105Y-85580651D01*
X113198131Y-85599459D01*
X113175206Y-85623129D01*
X113147870Y-85651122D01*
X113116657Y-85682903D01*
X113082107Y-85717932D01*
X113044757Y-85755675D01*
X113005143Y-85795592D01*
X112963803Y-85837149D01*
X112921275Y-85879805D01*
X112878096Y-85923027D01*
X112834802Y-85966274D01*
X112791933Y-86009010D01*
X112750025Y-86050699D01*
X112709615Y-86090803D01*
X112671242Y-86128784D01*
X112635441Y-86164107D01*
X112602750Y-86196233D01*
X112573707Y-86224624D01*
X112548851Y-86248745D01*
X112528716Y-86268059D01*
X112513841Y-86282025D01*
X112504763Y-86290110D01*
X112503308Y-86291266D01*
X112458028Y-86320412D01*
X112412654Y-86340332D01*
X112367054Y-86351035D01*
X112321096Y-86352532D01*
X112274650Y-86344834D01*
X112227581Y-86327950D01*
X112200914Y-86314494D01*
X112168829Y-86296658D01*
X111385790Y-85515501D01*
X111291977Y-85421894D01*
X111204599Y-85334659D01*
X111123525Y-85253671D01*
X111048629Y-85178800D01*
X110979786Y-85109919D01*
X110916866Y-85046899D01*
X110859743Y-84989614D01*
X110808289Y-84937933D01*
X110762378Y-84891730D01*
X110721881Y-84850875D01*
X110686673Y-84815243D01*
X110656625Y-84784703D01*
X110631610Y-84759127D01*
X110611501Y-84738389D01*
X110596171Y-84722361D01*
X110585493Y-84710912D01*
X110579338Y-84703916D01*
X110578596Y-84702984D01*
X110547897Y-84657230D01*
X110526424Y-84611597D01*
X110514166Y-84565987D01*
X110511114Y-84520298D01*
X110517259Y-84474432D01*
X110532591Y-84428288D01*
X110549968Y-84393694D01*
X110552697Y-84389189D01*
X110556079Y-84384222D01*
X110560483Y-84378416D01*
X110566272Y-84371393D01*
X110573816Y-84362776D01*
X110583480Y-84352185D01*
X110595631Y-84339247D01*
X110610638Y-84323580D01*
X110628863Y-84304809D01*
X110650675Y-84282555D01*
X110676442Y-84256441D01*
X110706530Y-84226090D01*
X110741304Y-84191123D01*
X110781133Y-84151164D01*
X110826383Y-84105835D01*
X110877420Y-84054757D01*
X110934611Y-83997554D01*
X110937718Y-83994448D01*
X110995070Y-83937103D01*
D13*
X146500000Y-78500000D02*
X146500000Y-84200000D01*
X146500000Y-84200000D02*
X149500000Y-84200000D01*
X149500000Y-84200000D02*
X149500000Y-78500000D01*
X113000000Y-100330000D02*
X113000000Y-101350000D01*
X107800000Y-100330000D02*
X107800000Y-101350000D01*
X113000000Y-97790000D02*
X113000000Y-98810000D01*
X107800000Y-97790000D02*
X107800000Y-98810000D01*
X113000000Y-95250000D02*
X113000000Y-96270000D01*
X107800000Y-95250000D02*
X107800000Y-96270000D01*
X113000000Y-102870000D02*
X113000000Y-103440000D01*
X107800000Y-102870000D02*
X107800000Y-103440000D01*
X113000000Y-93160000D02*
X113000000Y-93730000D01*
X107800000Y-93160000D02*
X107800000Y-93730000D01*
X106360000Y-93730000D02*
X107800000Y-93730000D01*
X107800000Y-103440000D02*
X113000000Y-103440000D01*
X107800000Y-93160000D02*
X113000000Y-93160000D01*
X142050000Y-76600000D02*
X142050000Y-75600000D01*
X140350000Y-75600000D02*
X140350000Y-76600000D01*
X142700000Y-118500000D02*
X142700000Y-117500000D01*
X141000000Y-117500000D02*
X141000000Y-118500000D01*
X147945406Y-109047487D02*
X148652513Y-109754594D01*
X149854594Y-108552513D02*
X149147487Y-107845406D01*
X156273007Y-89907897D02*
X154392103Y-88026993D01*
X150842427Y-95338477D02*
X156273007Y-89907897D01*
X148961523Y-93457573D02*
X154392103Y-88026993D01*
X150842427Y-95338477D02*
X148961523Y-93457573D01*
X149944401Y-96236503D02*
X149003949Y-97176955D01*
X149003949Y-97176955D02*
X148063497Y-96236503D01*
X154392103Y-109673007D02*
X156273007Y-107792103D01*
X148961523Y-104242427D02*
X154392103Y-109673007D01*
X150842427Y-102361523D02*
X156273007Y-107792103D01*
X148961523Y-104242427D02*
X150842427Y-102361523D01*
X148063497Y-103344401D02*
X147123045Y-102403949D01*
X147123045Y-102403949D02*
X148063497Y-101463497D01*
X134075000Y-83980000D02*
X128875000Y-83980000D01*
X134075000Y-81320000D02*
X128875000Y-81320000D01*
X135515000Y-83410000D02*
X134075000Y-83410000D01*
X134075000Y-83980000D02*
X134075000Y-83410000D01*
X128875000Y-83980000D02*
X128875000Y-83410000D01*
X134075000Y-81890000D02*
X134075000Y-81320000D01*
X128875000Y-81890000D02*
X128875000Y-81320000D01*
D11*
X150275000Y-113625000D02*
X150225000Y-113625000D01*
X150275000Y-117775000D02*
X150130000Y-117775000D01*
X145125000Y-117775000D02*
X145270000Y-117775000D01*
X145125000Y-113625000D02*
X145270000Y-113625000D01*
X150275000Y-113625000D02*
X150275000Y-117775000D01*
X145125000Y-113625000D02*
X145125000Y-117775000D01*
X150225000Y-113625000D02*
X150225000Y-112225000D01*
D13*
X135150000Y-122650000D02*
X134150000Y-122650000D01*
X134150000Y-124350000D02*
X135150000Y-124350000D01*
X126552513Y-113745406D02*
X125845406Y-114452513D01*
X127047487Y-115654594D02*
X127754594Y-114947487D01*
X133654594Y-112252513D02*
X132947487Y-111545406D01*
X131745406Y-112747487D02*
X132452513Y-113454594D01*
D11*
X146052380Y-81638095D02*
X145052380Y-81638095D01*
X145052380Y-81400000D01*
X145100000Y-81257142D01*
X145195238Y-81161904D01*
X145290476Y-81114285D01*
X145480952Y-81066666D01*
X145623809Y-81066666D01*
X145814285Y-81114285D01*
X145909523Y-81161904D01*
X146004761Y-81257142D01*
X146052380Y-81400000D01*
X146052380Y-81638095D01*
X146052380Y-80114285D02*
X146052380Y-80685714D01*
X146052380Y-80400000D02*
X145052380Y-80400000D01*
X145195238Y-80495238D01*
X145290476Y-80590476D01*
X145338095Y-80685714D01*
X110066666Y-91612380D02*
X110066666Y-92326666D01*
X110019047Y-92469523D01*
X109923809Y-92564761D01*
X109780952Y-92612380D01*
X109685714Y-92612380D01*
X110971428Y-91945714D02*
X110971428Y-92612380D01*
X110733333Y-91564761D02*
X110495238Y-92279047D01*
X111114285Y-92279047D01*
X143307142Y-76266666D02*
X143354761Y-76314285D01*
X143402380Y-76457142D01*
X143402380Y-76552380D01*
X143354761Y-76695238D01*
X143259523Y-76790476D01*
X143164285Y-76838095D01*
X142973809Y-76885714D01*
X142830952Y-76885714D01*
X142640476Y-76838095D01*
X142545238Y-76790476D01*
X142450000Y-76695238D01*
X142402380Y-76552380D01*
X142402380Y-76457142D01*
X142450000Y-76314285D01*
X142497619Y-76266666D01*
X143402380Y-75314285D02*
X143402380Y-75885714D01*
X143402380Y-75600000D02*
X142402380Y-75600000D01*
X142545238Y-75695238D01*
X142640476Y-75790476D01*
X142688095Y-75885714D01*
X140457142Y-118866666D02*
X140504761Y-118914285D01*
X140552380Y-119057142D01*
X140552380Y-119152380D01*
X140504761Y-119295238D01*
X140409523Y-119390476D01*
X140314285Y-119438095D01*
X140123809Y-119485714D01*
X139980952Y-119485714D01*
X139790476Y-119438095D01*
X139695238Y-119390476D01*
X139600000Y-119295238D01*
X139552380Y-119152380D01*
X139552380Y-119057142D01*
X139600000Y-118914285D01*
X139647619Y-118866666D01*
X139885714Y-118009523D02*
X140552380Y-118009523D01*
X139504761Y-118247619D02*
X140219047Y-118485714D01*
X140219047Y-117866666D01*
X147229610Y-110234687D02*
X147162267Y-110234687D01*
X147027580Y-110167343D01*
X146960236Y-110100000D01*
X146892893Y-109965312D01*
X146892893Y-109830625D01*
X146926564Y-109729610D01*
X147027580Y-109561251D01*
X147128595Y-109460236D01*
X147296954Y-109359221D01*
X147397969Y-109325549D01*
X147532656Y-109325549D01*
X147667343Y-109392893D01*
X147734687Y-109460236D01*
X147802030Y-109594923D01*
X147802030Y-109662267D01*
X148509137Y-110234687D02*
X148172419Y-109897969D01*
X147802030Y-110201015D01*
X147869374Y-110201015D01*
X147970389Y-110234687D01*
X148138748Y-110403045D01*
X148172419Y-110504061D01*
X148172419Y-110571404D01*
X148138748Y-110672419D01*
X147970389Y-110840778D01*
X147869374Y-110874450D01*
X147802030Y-110874450D01*
X147701015Y-110840778D01*
X147532656Y-110672419D01*
X147498984Y-110571404D01*
X147498984Y-110504061D01*
X147507912Y-96320682D02*
X147002836Y-96825758D01*
X146868149Y-96893102D01*
X146733462Y-96893102D01*
X146598775Y-96825758D01*
X146531432Y-96758415D01*
X147507912Y-97734896D02*
X147103851Y-97330835D01*
X147305882Y-97532865D02*
X148012989Y-96825758D01*
X147844630Y-96859430D01*
X147709943Y-96859430D01*
X147608928Y-96825758D01*
X146733462Y-100604867D02*
X147238538Y-101109943D01*
X147305882Y-101244630D01*
X147305882Y-101379317D01*
X147238538Y-101514004D01*
X147171195Y-101581347D01*
X147103851Y-100369164D02*
X147103851Y-100301821D01*
X147137523Y-100200806D01*
X147305882Y-100032447D01*
X147406897Y-99998775D01*
X147474241Y-99998775D01*
X147575256Y-100032447D01*
X147642599Y-100099790D01*
X147709943Y-100234477D01*
X147709943Y-101042599D01*
X148147676Y-100604867D01*
X131141666Y-84432380D02*
X131141666Y-85146666D01*
X131094047Y-85289523D01*
X130998809Y-85384761D01*
X130855952Y-85432380D01*
X130760714Y-85432380D01*
X131522619Y-84432380D02*
X132141666Y-84432380D01*
X131808333Y-84813333D01*
X131951190Y-84813333D01*
X132046428Y-84860952D01*
X132094047Y-84908571D01*
X132141666Y-85003809D01*
X132141666Y-85241904D01*
X132094047Y-85337142D01*
X132046428Y-85384761D01*
X131951190Y-85432380D01*
X131665476Y-85432380D01*
X131570238Y-85384761D01*
X131522619Y-85337142D01*
X150652380Y-116461904D02*
X151461904Y-116461904D01*
X151557142Y-116414285D01*
X151604761Y-116366666D01*
X151652380Y-116271428D01*
X151652380Y-116080952D01*
X151604761Y-115985714D01*
X151557142Y-115938095D01*
X151461904Y-115890476D01*
X150652380Y-115890476D01*
X150985714Y-114985714D02*
X151652380Y-114985714D01*
X150604761Y-115223809D02*
X151319047Y-115461904D01*
X151319047Y-114842857D01*
X134483333Y-122107142D02*
X134435714Y-122154761D01*
X134292857Y-122202380D01*
X134197619Y-122202380D01*
X134054761Y-122154761D01*
X133959523Y-122059523D01*
X133911904Y-121964285D01*
X133864285Y-121773809D01*
X133864285Y-121630952D01*
X133911904Y-121440476D01*
X133959523Y-121345238D01*
X134054761Y-121250000D01*
X134197619Y-121202380D01*
X134292857Y-121202380D01*
X134435714Y-121250000D01*
X134483333Y-121297619D01*
X135340476Y-121202380D02*
X135150000Y-121202380D01*
X135054761Y-121250000D01*
X135007142Y-121297619D01*
X134911904Y-121440476D01*
X134864285Y-121630952D01*
X134864285Y-122011904D01*
X134911904Y-122107142D01*
X134959523Y-122154761D01*
X135054761Y-122202380D01*
X135245238Y-122202380D01*
X135340476Y-122154761D01*
X135388095Y-122107142D01*
X135435714Y-122011904D01*
X135435714Y-121773809D01*
X135388095Y-121678571D01*
X135340476Y-121630952D01*
X135245238Y-121583333D01*
X135054761Y-121583333D01*
X134959523Y-121630952D01*
X134911904Y-121678571D01*
X134864285Y-121773809D01*
X125697250Y-113832952D02*
X125697250Y-113900295D01*
X125629906Y-114034982D01*
X125562563Y-114102326D01*
X125427875Y-114169669D01*
X125293188Y-114169669D01*
X125192173Y-114135998D01*
X125023814Y-114034982D01*
X124922799Y-113933967D01*
X124821784Y-113765608D01*
X124788112Y-113664593D01*
X124788112Y-113529906D01*
X124855456Y-113395219D01*
X124922799Y-113327875D01*
X125057486Y-113260532D01*
X125124830Y-113260532D01*
X125293188Y-112957486D02*
X125764593Y-112486082D01*
X126168654Y-113496234D01*
X131029610Y-113934687D02*
X130962267Y-113934687D01*
X130827580Y-113867343D01*
X130760236Y-113800000D01*
X130692893Y-113665312D01*
X130692893Y-113530625D01*
X130726564Y-113429610D01*
X130827580Y-113261251D01*
X130928595Y-113160236D01*
X131096954Y-113059221D01*
X131197969Y-113025549D01*
X131332656Y-113025549D01*
X131467343Y-113092893D01*
X131534687Y-113160236D01*
X131602030Y-113294923D01*
X131602030Y-113362267D01*
X131770389Y-114002030D02*
X131736717Y-113901015D01*
X131736717Y-113833671D01*
X131770389Y-113732656D01*
X131804061Y-113698984D01*
X131905076Y-113665312D01*
X131972419Y-113665312D01*
X132073435Y-113698984D01*
X132208122Y-113833671D01*
X132241793Y-113934687D01*
X132241793Y-114002030D01*
X132208122Y-114103045D01*
X132174450Y-114136717D01*
X132073435Y-114170389D01*
X132006091Y-114170389D01*
X131905076Y-114136717D01*
X131770389Y-114002030D01*
X131669374Y-113968358D01*
X131602030Y-113968358D01*
X131501015Y-114002030D01*
X131366328Y-114136717D01*
X131332656Y-114237732D01*
X131332656Y-114305076D01*
X131366328Y-114406091D01*
X131501015Y-114540778D01*
X131602030Y-114574450D01*
X131669374Y-114574450D01*
X131770389Y-114540778D01*
X131905076Y-114406091D01*
X131938748Y-114305076D01*
X131938748Y-114237732D01*
X131905076Y-114136717D01*
X123852380Y-77961904D02*
X124661904Y-77961904D01*
X124757142Y-77914285D01*
X124804761Y-77866666D01*
X124852380Y-77771428D01*
X124852380Y-77580952D01*
X124804761Y-77485714D01*
X124757142Y-77438095D01*
X124661904Y-77390476D01*
X123852380Y-77390476D01*
X124852380Y-76390476D02*
X124852380Y-76961904D01*
X124852380Y-76676190D02*
X123852380Y-76676190D01*
X123995238Y-76771428D01*
X124090476Y-76866666D01*
X124138095Y-76961904D01*
%LPC*%
D12*
G36*
X156807692Y-96197414D02*
G01*
X157239109Y-96446576D01*
X157242541Y-96814818D01*
X157245973Y-97183061D01*
X157560700Y-97001022D01*
X157640340Y-96955166D01*
X157709115Y-96916006D01*
X157766892Y-96883618D01*
X157813535Y-96858073D01*
X157848909Y-96839446D01*
X157872879Y-96827810D01*
X157885311Y-96823238D01*
X157886781Y-96823259D01*
X157894475Y-96827326D01*
X157913076Y-96837710D01*
X157941611Y-96853854D01*
X157979101Y-96875200D01*
X158024572Y-96901189D01*
X158077048Y-96931262D01*
X158135553Y-96964862D01*
X158199112Y-97001431D01*
X158266749Y-97040409D01*
X158322041Y-97072318D01*
X158745946Y-97317099D01*
X158745719Y-97818509D01*
X158745493Y-98319919D01*
X158429936Y-98501597D01*
X158369884Y-98536240D01*
X158313581Y-98568855D01*
X158262122Y-98598798D01*
X158216601Y-98625426D01*
X158178113Y-98648094D01*
X158147753Y-98666161D01*
X158126615Y-98678983D01*
X158115793Y-98685916D01*
X158114580Y-98686948D01*
X158120393Y-98690972D01*
X158137021Y-98701179D01*
X158163368Y-98716927D01*
X158198337Y-98737573D01*
X158240833Y-98762471D01*
X158289758Y-98790980D01*
X158344018Y-98822456D01*
X158402514Y-98856255D01*
X158430364Y-98872302D01*
X158745946Y-99053981D01*
X158745749Y-99555356D01*
X158745551Y-100056730D01*
X158469438Y-100215653D01*
X158436224Y-100234784D01*
X158391832Y-100260374D01*
X158336971Y-100292013D01*
X158272353Y-100329292D01*
X158198686Y-100371801D01*
X158116680Y-100419130D01*
X158027045Y-100470870D01*
X157930492Y-100526610D01*
X157827729Y-100585941D01*
X157719466Y-100648452D01*
X157606414Y-100713735D01*
X157489283Y-100781379D01*
X157368781Y-100850974D01*
X157245619Y-100922111D01*
X157120507Y-100994380D01*
X156994155Y-101067371D01*
X156913701Y-101113850D01*
X156791156Y-101184637D01*
X156671733Y-101253602D01*
X156555977Y-101320429D01*
X156444436Y-101384804D01*
X156337655Y-101446412D01*
X156236182Y-101504938D01*
X156140563Y-101560067D01*
X156051345Y-101611484D01*
X155969073Y-101658875D01*
X155894295Y-101701925D01*
X155827557Y-101740319D01*
X155769405Y-101773742D01*
X155720387Y-101801879D01*
X155681048Y-101824416D01*
X155651936Y-101841037D01*
X155633596Y-101851429D01*
X155626575Y-101855276D01*
X155626539Y-101855288D01*
X155618351Y-101852694D01*
X155600566Y-101844132D01*
X155575336Y-101830731D01*
X155544815Y-101813622D01*
X155522892Y-101800892D01*
X155497106Y-101785789D01*
X155461098Y-101764808D01*
X155416547Y-101738921D01*
X155365131Y-101709101D01*
X155308526Y-101676319D01*
X155248411Y-101641548D01*
X155186463Y-101605760D01*
X155131595Y-101574100D01*
X155071952Y-101539687D01*
X155014736Y-101506643D01*
X154961290Y-101475743D01*
X154912954Y-101447765D01*
X154871068Y-101423485D01*
X154836973Y-101403680D01*
X154812010Y-101389126D01*
X154797520Y-101380600D01*
X154796992Y-101380285D01*
X154757579Y-101356700D01*
X154755803Y-100990599D01*
X154755469Y-100921545D01*
X154984000Y-100921545D01*
X154984000Y-101220008D01*
X155002291Y-101232180D01*
X155016223Y-101240939D01*
X155039526Y-101255001D01*
X155070680Y-101273489D01*
X155108168Y-101295527D01*
X155150470Y-101320239D01*
X155196067Y-101346749D01*
X155243441Y-101374180D01*
X155291072Y-101401656D01*
X155337443Y-101428301D01*
X155381034Y-101453240D01*
X155420325Y-101475595D01*
X155453799Y-101494490D01*
X155479937Y-101509050D01*
X155497219Y-101518397D01*
X155504086Y-101521656D01*
X155506227Y-101519251D01*
X155507966Y-101510970D01*
X155509326Y-101495801D01*
X155510330Y-101472733D01*
X155511002Y-101440755D01*
X155511365Y-101398857D01*
X155511427Y-101356315D01*
X155740208Y-101356315D01*
X155740251Y-101405225D01*
X155740552Y-101443761D01*
X155741142Y-101473044D01*
X155742052Y-101494191D01*
X155743312Y-101508321D01*
X155744951Y-101516552D01*
X155747002Y-101520004D01*
X155748830Y-101520128D01*
X155756478Y-101516064D01*
X155774885Y-101505756D01*
X155802934Y-101489843D01*
X155839503Y-101468967D01*
X155883476Y-101443769D01*
X155933732Y-101414888D01*
X155989153Y-101382966D01*
X156048620Y-101348643D01*
X156083564Y-101328444D01*
X156125239Y-101304346D01*
X156177935Y-101273883D01*
X156240783Y-101237558D01*
X156312913Y-101195873D01*
X156393459Y-101149329D01*
X156481550Y-101098429D01*
X156576318Y-101043674D01*
X156676894Y-100985567D01*
X156782409Y-100924608D01*
X156891995Y-100861301D01*
X157004783Y-100796147D01*
X157119904Y-100729648D01*
X157236489Y-100662306D01*
X157353670Y-100594623D01*
X157463933Y-100530938D01*
X158519406Y-99921340D01*
X158519406Y-99623481D01*
X158519327Y-99548788D01*
X158519071Y-99486832D01*
X158518609Y-99436622D01*
X158517912Y-99397165D01*
X158516953Y-99367471D01*
X158515702Y-99346547D01*
X158514131Y-99333402D01*
X158512210Y-99327044D01*
X158510825Y-99326077D01*
X158504171Y-99329508D01*
X158486161Y-99339514D01*
X158457320Y-99355793D01*
X158418176Y-99378043D01*
X158369255Y-99405961D01*
X158311082Y-99439244D01*
X158244184Y-99477590D01*
X158169087Y-99520696D01*
X158086319Y-99568260D01*
X157996404Y-99619978D01*
X157899869Y-99675550D01*
X157797241Y-99734672D01*
X157689045Y-99797041D01*
X157575809Y-99862355D01*
X157458058Y-99930311D01*
X157336319Y-100000608D01*
X157211117Y-100072942D01*
X157122406Y-100124217D01*
X155742568Y-100921902D01*
X155740779Y-101222903D01*
X155740395Y-101295914D01*
X155740208Y-101356315D01*
X155511427Y-101356315D01*
X155511442Y-101346026D01*
X155511256Y-101281251D01*
X155510951Y-101223019D01*
X155509163Y-100923659D01*
X155249210Y-100773370D01*
X155194811Y-100741954D01*
X155144156Y-100712764D01*
X155098463Y-100686499D01*
X155058950Y-100663855D01*
X155026836Y-100645531D01*
X155003340Y-100632222D01*
X154989678Y-100624627D01*
X154986629Y-100623081D01*
X154986078Y-100629714D01*
X154985567Y-100648682D01*
X154985107Y-100678593D01*
X154984710Y-100718051D01*
X154984390Y-100765664D01*
X154984158Y-100820037D01*
X154984026Y-100879777D01*
X154984000Y-100921545D01*
X154755469Y-100921545D01*
X154754027Y-100624497D01*
X154445109Y-100803541D01*
X154385308Y-100838057D01*
X154328801Y-100870397D01*
X154276750Y-100899913D01*
X154230321Y-100925959D01*
X154190678Y-100947885D01*
X154158986Y-100965046D01*
X154136410Y-100976793D01*
X154124114Y-100982480D01*
X154122460Y-100982918D01*
X154114384Y-100979611D01*
X154095419Y-100969943D01*
X154066541Y-100954459D01*
X154028727Y-100933706D01*
X153982952Y-100908229D01*
X153930194Y-100878574D01*
X153871428Y-100845287D01*
X153807632Y-100808913D01*
X153739781Y-100769999D01*
X153681392Y-100736340D01*
X153254055Y-100489429D01*
X153254360Y-99988188D01*
X153254423Y-99884553D01*
X153481525Y-99884553D01*
X153481614Y-99934508D01*
X153481892Y-99996044D01*
X153482239Y-100056866D01*
X153484027Y-100357149D01*
X153741460Y-100506659D01*
X153795662Y-100538085D01*
X153846218Y-100567295D01*
X153891889Y-100593580D01*
X153931437Y-100616234D01*
X153963626Y-100634548D01*
X153987217Y-100647815D01*
X154000973Y-100655327D01*
X154004041Y-100656787D01*
X154005120Y-100650288D01*
X154006122Y-100631449D01*
X154007023Y-100601662D01*
X154007800Y-100562318D01*
X154008427Y-100514806D01*
X154008882Y-100460519D01*
X154009139Y-100400847D01*
X154009190Y-100359252D01*
X154009190Y-100061097D01*
X154000974Y-100055341D01*
X154235730Y-100055341D01*
X154235730Y-100356615D01*
X154235755Y-100428793D01*
X154235860Y-100488404D01*
X154236094Y-100536610D01*
X154236504Y-100574574D01*
X154237136Y-100603457D01*
X154238039Y-100624423D01*
X154239260Y-100638633D01*
X154240845Y-100647251D01*
X154242843Y-100651438D01*
X154245302Y-100652356D01*
X154247746Y-100651458D01*
X154256075Y-100646743D01*
X154274997Y-100635879D01*
X154303227Y-100619609D01*
X154339482Y-100598674D01*
X154382478Y-100573816D01*
X154430932Y-100545775D01*
X154483560Y-100515295D01*
X154517192Y-100495804D01*
X154548268Y-100477803D01*
X154590598Y-100453304D01*
X154641255Y-100424000D01*
X155107881Y-100424000D01*
X155113625Y-100428514D01*
X155129890Y-100438840D01*
X155155193Y-100454136D01*
X155188050Y-100473559D01*
X155226975Y-100496265D01*
X155270484Y-100521409D01*
X155317093Y-100548150D01*
X155365317Y-100575643D01*
X155413672Y-100603044D01*
X155460674Y-100629511D01*
X155504838Y-100654199D01*
X155544679Y-100676266D01*
X155578713Y-100694867D01*
X155605456Y-100709159D01*
X155623424Y-100718299D01*
X155631131Y-100721442D01*
X155631261Y-100721409D01*
X155637706Y-100717662D01*
X155655513Y-100707353D01*
X155684158Y-100690784D01*
X155723113Y-100668261D01*
X155771854Y-100640085D01*
X155829853Y-100606563D01*
X155896585Y-100567997D01*
X155971524Y-100524691D01*
X156054144Y-100476950D01*
X156143918Y-100425077D01*
X156240322Y-100369377D01*
X156342828Y-100310153D01*
X156450911Y-100247709D01*
X156564045Y-100182349D01*
X156681703Y-100114378D01*
X156803361Y-100044098D01*
X156928491Y-99971815D01*
X157014982Y-99921853D01*
X157142115Y-99848398D01*
X157266094Y-99776731D01*
X157386397Y-99707156D01*
X157502497Y-99639978D01*
X157613873Y-99575500D01*
X157720001Y-99514027D01*
X157820355Y-99455863D01*
X157914413Y-99401311D01*
X158001651Y-99350677D01*
X158081544Y-99304264D01*
X158153569Y-99262376D01*
X158217203Y-99225317D01*
X158271921Y-99193393D01*
X158317199Y-99166906D01*
X158352514Y-99146160D01*
X158377341Y-99131461D01*
X158391158Y-99123112D01*
X158393996Y-99121216D01*
X158388584Y-99116851D01*
X158372462Y-99106397D01*
X158346842Y-99090582D01*
X158312934Y-99070131D01*
X158271948Y-99045771D01*
X158225095Y-99018229D01*
X158173585Y-98988230D01*
X158140899Y-98969326D01*
X158078069Y-98933165D01*
X158025998Y-98903414D01*
X157983614Y-98879518D01*
X157949845Y-98860920D01*
X157923619Y-98847063D01*
X157903865Y-98837391D01*
X157889509Y-98831348D01*
X157879481Y-98828377D01*
X157872709Y-98827921D01*
X157869832Y-98828597D01*
X157862272Y-98832620D01*
X157843547Y-98843112D01*
X157814295Y-98859704D01*
X157775153Y-98882027D01*
X157726759Y-98909714D01*
X157669751Y-98942396D01*
X157604766Y-98979704D01*
X157532441Y-99021271D01*
X157453414Y-99066729D01*
X157368323Y-99115708D01*
X157277805Y-99167841D01*
X157182497Y-99222759D01*
X157083038Y-99280095D01*
X156980064Y-99339480D01*
X156874214Y-99400545D01*
X156766125Y-99462923D01*
X156656433Y-99526245D01*
X156545778Y-99590143D01*
X156434796Y-99654249D01*
X156324125Y-99718194D01*
X156214402Y-99781610D01*
X156106266Y-99844129D01*
X156000353Y-99905382D01*
X155897301Y-99965002D01*
X155797747Y-100022620D01*
X155702330Y-100077868D01*
X155611687Y-100130377D01*
X155526454Y-100179780D01*
X155447271Y-100225707D01*
X155374773Y-100267792D01*
X155309600Y-100305664D01*
X155252387Y-100338957D01*
X155203774Y-100367302D01*
X155164397Y-100390331D01*
X155134894Y-100407675D01*
X155115902Y-100418966D01*
X155108060Y-100423836D01*
X155107881Y-100424000D01*
X154641255Y-100424000D01*
X154643546Y-100422675D01*
X154706475Y-100386281D01*
X154778751Y-100344492D01*
X154859736Y-100297675D01*
X154948795Y-100246196D01*
X155045292Y-100190423D01*
X155148591Y-100130723D01*
X155258056Y-100067465D01*
X155373050Y-100001015D01*
X155492939Y-99931741D01*
X155617085Y-99860010D01*
X155744853Y-99786190D01*
X155875606Y-99710647D01*
X156008710Y-99633750D01*
X156143527Y-99555866D01*
X156279423Y-99477362D01*
X156415760Y-99398605D01*
X156551903Y-99319964D01*
X156687215Y-99241805D01*
X156821062Y-99164495D01*
X156952806Y-99088403D01*
X157081812Y-99013895D01*
X157207444Y-98941339D01*
X157329066Y-98871103D01*
X157446041Y-98803553D01*
X157557734Y-98739058D01*
X157663509Y-98677984D01*
X157762730Y-98620699D01*
X157854761Y-98567570D01*
X157938965Y-98518966D01*
X158014707Y-98475252D01*
X158081351Y-98436797D01*
X158138261Y-98403968D01*
X158184800Y-98377132D01*
X158191609Y-98373207D01*
X158519406Y-98184270D01*
X158519406Y-97886540D01*
X158519247Y-97804828D01*
X158518771Y-97735948D01*
X158517984Y-97680058D01*
X158516888Y-97637315D01*
X158515486Y-97607878D01*
X158513784Y-97591904D01*
X158512472Y-97588811D01*
X158506079Y-97592206D01*
X158488222Y-97602230D01*
X158459321Y-97618640D01*
X158419799Y-97641193D01*
X158370076Y-97669646D01*
X158310576Y-97703757D01*
X158241718Y-97743282D01*
X158163926Y-97787979D01*
X158077620Y-97837605D01*
X157983223Y-97891918D01*
X157881155Y-97950675D01*
X157771840Y-98013632D01*
X157655697Y-98080547D01*
X157533149Y-98151178D01*
X157404618Y-98225281D01*
X157270524Y-98302613D01*
X157131291Y-98382933D01*
X156987339Y-98465997D01*
X156839090Y-98551562D01*
X156686965Y-98639386D01*
X156531388Y-98729225D01*
X156372778Y-98820838D01*
X156370634Y-98822076D01*
X154235730Y-100055341D01*
X154000974Y-100055341D01*
X153990311Y-100047871D01*
X153979791Y-100041233D01*
X153959225Y-100028892D01*
X153930183Y-100011752D01*
X153894237Y-99990719D01*
X153852958Y-99966696D01*
X153807915Y-99940589D01*
X153760681Y-99913302D01*
X153712825Y-99885741D01*
X153665919Y-99858809D01*
X153621533Y-99833412D01*
X153581239Y-99810454D01*
X153546606Y-99790840D01*
X153519205Y-99775475D01*
X153500608Y-99765263D01*
X153492536Y-99761164D01*
X153489639Y-99760673D01*
X153487258Y-99762384D01*
X153485352Y-99767470D01*
X153483881Y-99777103D01*
X153482804Y-99792455D01*
X153482079Y-99814699D01*
X153481666Y-99845007D01*
X153481525Y-99884553D01*
X153254423Y-99884553D01*
X153254625Y-99552181D01*
X153611994Y-99552181D01*
X153616956Y-99557859D01*
X153627939Y-99566492D01*
X153645809Y-99578631D01*
X153671432Y-99594825D01*
X153705675Y-99615622D01*
X153749404Y-99641574D01*
X153803486Y-99673228D01*
X153859321Y-99705655D01*
X153913504Y-99736901D01*
X153964148Y-99765835D01*
X154009997Y-99791759D01*
X154049793Y-99813975D01*
X154082280Y-99831784D01*
X154106200Y-99844487D01*
X154120297Y-99851387D01*
X154123544Y-99852447D01*
X154130013Y-99848927D01*
X154147947Y-99838780D01*
X154176923Y-99822249D01*
X154216520Y-99799576D01*
X154266314Y-99771006D01*
X154325884Y-99736782D01*
X154394808Y-99697147D01*
X154472663Y-99652344D01*
X154559028Y-99602617D01*
X154653479Y-99548209D01*
X154755595Y-99489363D01*
X154864954Y-99426323D01*
X154981133Y-99359333D01*
X155103711Y-99288634D01*
X155232265Y-99214472D01*
X155366372Y-99137088D01*
X155505611Y-99056727D01*
X155649559Y-98973632D01*
X155797795Y-98888046D01*
X155949896Y-98800213D01*
X156105439Y-98710375D01*
X156263665Y-98618971D01*
X156422160Y-98527394D01*
X156577591Y-98437565D01*
X156729539Y-98349729D01*
X156877584Y-98264128D01*
X157021304Y-98181006D01*
X157160280Y-98100608D01*
X157294092Y-98023175D01*
X157422319Y-97948953D01*
X157544540Y-97878184D01*
X157660337Y-97811113D01*
X157769288Y-97747982D01*
X157870973Y-97689036D01*
X157964972Y-97634517D01*
X158050864Y-97584670D01*
X158128230Y-97539738D01*
X158196649Y-97499965D01*
X158255700Y-97465594D01*
X158304964Y-97436869D01*
X158344020Y-97414033D01*
X158372449Y-97397330D01*
X158389828Y-97387003D01*
X158395740Y-97383297D01*
X158395740Y-97383296D01*
X158389981Y-97378997D01*
X158373748Y-97368807D01*
X158348526Y-97353580D01*
X158315801Y-97334169D01*
X158277056Y-97311428D01*
X158233778Y-97286212D01*
X158187450Y-97259374D01*
X158139557Y-97231769D01*
X158091586Y-97204249D01*
X158045019Y-97177670D01*
X158001343Y-97152885D01*
X157962042Y-97130747D01*
X157928601Y-97112111D01*
X157902505Y-97097831D01*
X157885239Y-97088761D01*
X157878337Y-97085748D01*
X157871106Y-97089170D01*
X157853130Y-97098872D01*
X157825528Y-97114221D01*
X157789415Y-97134582D01*
X157745910Y-97159322D01*
X157696130Y-97187806D01*
X157641191Y-97219400D01*
X157582211Y-97253470D01*
X157551460Y-97271289D01*
X157515466Y-97292157D01*
X157469594Y-97318730D01*
X157414424Y-97350673D01*
X157350533Y-97387653D01*
X157278501Y-97429335D01*
X157198907Y-97475383D01*
X157112330Y-97525464D01*
X157019348Y-97579243D01*
X156920540Y-97636385D01*
X156816486Y-97696557D01*
X156707764Y-97759422D01*
X156594953Y-97824647D01*
X156478631Y-97891897D01*
X156359379Y-97960838D01*
X156237774Y-98031135D01*
X156114396Y-98102453D01*
X155989824Y-98174458D01*
X155864635Y-98246816D01*
X155739410Y-98319191D01*
X155614727Y-98391249D01*
X155491165Y-98462656D01*
X155369304Y-98533077D01*
X155249720Y-98602178D01*
X155132995Y-98669624D01*
X155019706Y-98735080D01*
X154910433Y-98798212D01*
X154805753Y-98858685D01*
X154706248Y-98916165D01*
X154612494Y-98970317D01*
X154525071Y-99020806D01*
X154444558Y-99067299D01*
X154371534Y-99109460D01*
X154306578Y-99146955D01*
X154250268Y-99179449D01*
X154203183Y-99206608D01*
X154165903Y-99228098D01*
X154139006Y-99243583D01*
X154123071Y-99252729D01*
X154119027Y-99255027D01*
X154091098Y-99270728D01*
X154055946Y-99290694D01*
X154015060Y-99314061D01*
X153969926Y-99339968D01*
X153922030Y-99367553D01*
X153872861Y-99395953D01*
X153823905Y-99424307D01*
X153776648Y-99451751D01*
X153732578Y-99477424D01*
X153693182Y-99500464D01*
X153659947Y-99520008D01*
X153634360Y-99535195D01*
X153617907Y-99545161D01*
X153612186Y-99548910D01*
X153611994Y-99552181D01*
X153254625Y-99552181D01*
X153254665Y-99486946D01*
X153570143Y-99305491D01*
X153630201Y-99270875D01*
X153686512Y-99238280D01*
X153737981Y-99208348D01*
X153783511Y-99181723D01*
X153822008Y-99159050D01*
X153852376Y-99140973D01*
X153873517Y-99128136D01*
X153884338Y-99121182D01*
X153885548Y-99120140D01*
X153879880Y-99115565D01*
X153864304Y-99105525D01*
X153840875Y-99091281D01*
X153811653Y-99074099D01*
X153794589Y-99064272D01*
X153767000Y-99048459D01*
X153729618Y-99026976D01*
X153684535Y-99001030D01*
X153633842Y-98971825D01*
X153579631Y-98940567D01*
X153523994Y-98908459D01*
X153478879Y-98882403D01*
X153254055Y-98752505D01*
X153254343Y-98251320D01*
X153254361Y-98218320D01*
X153481982Y-98218320D01*
X153482044Y-98278102D01*
X153482239Y-98320665D01*
X153484027Y-98620033D01*
X153741460Y-98769243D01*
X153795642Y-98800519D01*
X153846181Y-98829444D01*
X153891839Y-98855329D01*
X153931382Y-98877484D01*
X153963572Y-98895220D01*
X153987173Y-98907847D01*
X154000950Y-98914677D01*
X154004041Y-98915686D01*
X154005129Y-98908457D01*
X154006138Y-98888921D01*
X154007045Y-98858500D01*
X154007823Y-98818615D01*
X154008450Y-98770690D01*
X154008900Y-98716146D01*
X154009148Y-98656406D01*
X154009190Y-98618976D01*
X154009135Y-98546498D01*
X154008943Y-98486560D01*
X154008575Y-98437972D01*
X154007990Y-98399545D01*
X154007149Y-98370089D01*
X154006009Y-98348415D01*
X154004533Y-98333333D01*
X154002679Y-98323654D01*
X154000452Y-98318296D01*
X154235730Y-98318296D01*
X154235730Y-98920039D01*
X154371311Y-98841770D01*
X154390575Y-98830646D01*
X154421097Y-98813019D01*
X154462248Y-98789252D01*
X154513397Y-98759708D01*
X154573914Y-98724753D01*
X154643169Y-98684749D01*
X154720532Y-98640061D01*
X154805373Y-98591053D01*
X154897061Y-98538089D01*
X154994968Y-98481532D01*
X155098462Y-98421747D01*
X155206913Y-98359098D01*
X155319692Y-98293949D01*
X155436169Y-98226663D01*
X155555712Y-98157604D01*
X155677693Y-98087137D01*
X155759730Y-98039745D01*
X157012568Y-97315990D01*
X157014356Y-97016482D01*
X157014638Y-96953848D01*
X157014722Y-96895656D01*
X157014619Y-96843298D01*
X157014341Y-96798164D01*
X157013897Y-96761647D01*
X157013300Y-96735138D01*
X157012560Y-96720028D01*
X157011985Y-96716973D01*
X157005742Y-96720359D01*
X156988135Y-96730314D01*
X156959688Y-96746537D01*
X156920924Y-96768728D01*
X156872365Y-96796585D01*
X156814535Y-96829806D01*
X156747958Y-96868090D01*
X156673155Y-96911137D01*
X156590651Y-96958644D01*
X156500968Y-97010311D01*
X156404631Y-97065836D01*
X156302160Y-97124917D01*
X156194081Y-97187255D01*
X156080916Y-97252546D01*
X155963188Y-97320491D01*
X155841420Y-97390787D01*
X155716136Y-97463134D01*
X155621778Y-97517635D01*
X154235730Y-98318296D01*
X154000452Y-98318296D01*
X154000407Y-98318188D01*
X153998976Y-98316556D01*
X153990465Y-98310956D01*
X153971809Y-98299609D01*
X153944511Y-98283380D01*
X153910073Y-98263134D01*
X153869997Y-98239736D01*
X153825783Y-98214052D01*
X153778936Y-98186945D01*
X153730956Y-98159282D01*
X153683345Y-98131927D01*
X153637606Y-98105746D01*
X153595241Y-98081602D01*
X153557751Y-98060362D01*
X153526638Y-98042890D01*
X153503405Y-98030051D01*
X153489553Y-98022711D01*
X153486295Y-98021298D01*
X153485112Y-98027930D01*
X153484090Y-98046900D01*
X153483247Y-98076816D01*
X153482602Y-98116285D01*
X153482174Y-98163918D01*
X153481982Y-98218320D01*
X153254361Y-98218320D01*
X153254591Y-97818100D01*
X153609340Y-97818100D01*
X153615132Y-97822457D01*
X153631342Y-97832785D01*
X153656486Y-97848213D01*
X153689077Y-97867871D01*
X153727631Y-97890890D01*
X153770660Y-97916400D01*
X153816681Y-97943531D01*
X153864207Y-97971413D01*
X153911752Y-97999177D01*
X153957830Y-98025952D01*
X154000957Y-98050869D01*
X154039647Y-98073057D01*
X154072413Y-98091648D01*
X154097771Y-98105771D01*
X154114234Y-98114557D01*
X154120166Y-98117181D01*
X154126448Y-98113816D01*
X154144091Y-98103881D01*
X154172573Y-98087678D01*
X154211369Y-98065507D01*
X154259955Y-98037671D01*
X154317807Y-98004471D01*
X154384400Y-97966209D01*
X154459211Y-97923187D01*
X154541717Y-97875706D01*
X154631391Y-97824068D01*
X154727712Y-97768574D01*
X154830154Y-97709527D01*
X154938194Y-97647228D01*
X155051307Y-97581978D01*
X155168969Y-97514080D01*
X155290657Y-97443834D01*
X155415847Y-97371543D01*
X155506869Y-97318967D01*
X155634188Y-97245384D01*
X155758330Y-97173577D01*
X155878772Y-97103849D01*
X155994993Y-97036504D01*
X156106471Y-96971846D01*
X156212685Y-96910179D01*
X156313114Y-96851807D01*
X156407235Y-96797035D01*
X156494528Y-96746167D01*
X156574471Y-96699505D01*
X156646542Y-96657355D01*
X156710221Y-96620021D01*
X156764985Y-96587807D01*
X156810313Y-96561016D01*
X156845683Y-96539952D01*
X156870575Y-96524921D01*
X156884466Y-96516225D01*
X156887364Y-96514061D01*
X156881357Y-96509611D01*
X156864929Y-96499206D01*
X156839572Y-96483717D01*
X156806779Y-96464015D01*
X156768041Y-96440971D01*
X156724850Y-96415455D01*
X156678699Y-96388339D01*
X156631079Y-96360494D01*
X156583483Y-96332789D01*
X156537402Y-96306096D01*
X156494330Y-96281286D01*
X156455757Y-96259229D01*
X156423176Y-96240796D01*
X156398079Y-96226859D01*
X156381959Y-96218287D01*
X156376435Y-96215871D01*
X156369798Y-96219246D01*
X156351950Y-96229139D01*
X156323528Y-96245180D01*
X156285168Y-96267000D01*
X156237507Y-96294232D01*
X156181182Y-96326507D01*
X156116829Y-96363457D01*
X156045083Y-96404712D01*
X155966583Y-96449904D01*
X155881963Y-96498665D01*
X155791861Y-96550627D01*
X155696914Y-96605420D01*
X155597756Y-96662676D01*
X155495026Y-96722028D01*
X155389358Y-96783105D01*
X155281391Y-96845540D01*
X155171760Y-96908964D01*
X155061101Y-96973009D01*
X154950052Y-97037306D01*
X154839248Y-97101487D01*
X154729326Y-97165182D01*
X154620923Y-97228025D01*
X154514674Y-97289645D01*
X154411217Y-97349675D01*
X154311187Y-97407746D01*
X154215222Y-97463489D01*
X154123957Y-97516536D01*
X154038030Y-97566519D01*
X153958076Y-97613069D01*
X153884732Y-97655817D01*
X153818634Y-97694395D01*
X153760419Y-97728434D01*
X153710724Y-97757566D01*
X153670184Y-97781423D01*
X153639437Y-97799635D01*
X153619118Y-97811835D01*
X153609864Y-97817654D01*
X153609340Y-97818100D01*
X153254591Y-97818100D01*
X153254631Y-97750136D01*
X154815453Y-96849194D01*
X156376275Y-95948253D01*
X156807692Y-96197414D01*
X156807692Y-96197414D01*
G37*
X156807692Y-96197414D02*
X157239109Y-96446576D01*
X157242541Y-96814818D01*
X157245973Y-97183061D01*
X157560700Y-97001022D01*
X157640340Y-96955166D01*
X157709115Y-96916006D01*
X157766892Y-96883618D01*
X157813535Y-96858073D01*
X157848909Y-96839446D01*
X157872879Y-96827810D01*
X157885311Y-96823238D01*
X157886781Y-96823259D01*
X157894475Y-96827326D01*
X157913076Y-96837710D01*
X157941611Y-96853854D01*
X157979101Y-96875200D01*
X158024572Y-96901189D01*
X158077048Y-96931262D01*
X158135553Y-96964862D01*
X158199112Y-97001431D01*
X158266749Y-97040409D01*
X158322041Y-97072318D01*
X158745946Y-97317099D01*
X158745719Y-97818509D01*
X158745493Y-98319919D01*
X158429936Y-98501597D01*
X158369884Y-98536240D01*
X158313581Y-98568855D01*
X158262122Y-98598798D01*
X158216601Y-98625426D01*
X158178113Y-98648094D01*
X158147753Y-98666161D01*
X158126615Y-98678983D01*
X158115793Y-98685916D01*
X158114580Y-98686948D01*
X158120393Y-98690972D01*
X158137021Y-98701179D01*
X158163368Y-98716927D01*
X158198337Y-98737573D01*
X158240833Y-98762471D01*
X158289758Y-98790980D01*
X158344018Y-98822456D01*
X158402514Y-98856255D01*
X158430364Y-98872302D01*
X158745946Y-99053981D01*
X158745749Y-99555356D01*
X158745551Y-100056730D01*
X158469438Y-100215653D01*
X158436224Y-100234784D01*
X158391832Y-100260374D01*
X158336971Y-100292013D01*
X158272353Y-100329292D01*
X158198686Y-100371801D01*
X158116680Y-100419130D01*
X158027045Y-100470870D01*
X157930492Y-100526610D01*
X157827729Y-100585941D01*
X157719466Y-100648452D01*
X157606414Y-100713735D01*
X157489283Y-100781379D01*
X157368781Y-100850974D01*
X157245619Y-100922111D01*
X157120507Y-100994380D01*
X156994155Y-101067371D01*
X156913701Y-101113850D01*
X156791156Y-101184637D01*
X156671733Y-101253602D01*
X156555977Y-101320429D01*
X156444436Y-101384804D01*
X156337655Y-101446412D01*
X156236182Y-101504938D01*
X156140563Y-101560067D01*
X156051345Y-101611484D01*
X155969073Y-101658875D01*
X155894295Y-101701925D01*
X155827557Y-101740319D01*
X155769405Y-101773742D01*
X155720387Y-101801879D01*
X155681048Y-101824416D01*
X155651936Y-101841037D01*
X155633596Y-101851429D01*
X155626575Y-101855276D01*
X155626539Y-101855288D01*
X155618351Y-101852694D01*
X155600566Y-101844132D01*
X155575336Y-101830731D01*
X155544815Y-101813622D01*
X155522892Y-101800892D01*
X155497106Y-101785789D01*
X155461098Y-101764808D01*
X155416547Y-101738921D01*
X155365131Y-101709101D01*
X155308526Y-101676319D01*
X155248411Y-101641548D01*
X155186463Y-101605760D01*
X155131595Y-101574100D01*
X155071952Y-101539687D01*
X155014736Y-101506643D01*
X154961290Y-101475743D01*
X154912954Y-101447765D01*
X154871068Y-101423485D01*
X154836973Y-101403680D01*
X154812010Y-101389126D01*
X154797520Y-101380600D01*
X154796992Y-101380285D01*
X154757579Y-101356700D01*
X154755803Y-100990599D01*
X154755469Y-100921545D01*
X154984000Y-100921545D01*
X154984000Y-101220008D01*
X155002291Y-101232180D01*
X155016223Y-101240939D01*
X155039526Y-101255001D01*
X155070680Y-101273489D01*
X155108168Y-101295527D01*
X155150470Y-101320239D01*
X155196067Y-101346749D01*
X155243441Y-101374180D01*
X155291072Y-101401656D01*
X155337443Y-101428301D01*
X155381034Y-101453240D01*
X155420325Y-101475595D01*
X155453799Y-101494490D01*
X155479937Y-101509050D01*
X155497219Y-101518397D01*
X155504086Y-101521656D01*
X155506227Y-101519251D01*
X155507966Y-101510970D01*
X155509326Y-101495801D01*
X155510330Y-101472733D01*
X155511002Y-101440755D01*
X155511365Y-101398857D01*
X155511427Y-101356315D01*
X155740208Y-101356315D01*
X155740251Y-101405225D01*
X155740552Y-101443761D01*
X155741142Y-101473044D01*
X155742052Y-101494191D01*
X155743312Y-101508321D01*
X155744951Y-101516552D01*
X155747002Y-101520004D01*
X155748830Y-101520128D01*
X155756478Y-101516064D01*
X155774885Y-101505756D01*
X155802934Y-101489843D01*
X155839503Y-101468967D01*
X155883476Y-101443769D01*
X155933732Y-101414888D01*
X155989153Y-101382966D01*
X156048620Y-101348643D01*
X156083564Y-101328444D01*
X156125239Y-101304346D01*
X156177935Y-101273883D01*
X156240783Y-101237558D01*
X156312913Y-101195873D01*
X156393459Y-101149329D01*
X156481550Y-101098429D01*
X156576318Y-101043674D01*
X156676894Y-100985567D01*
X156782409Y-100924608D01*
X156891995Y-100861301D01*
X157004783Y-100796147D01*
X157119904Y-100729648D01*
X157236489Y-100662306D01*
X157353670Y-100594623D01*
X157463933Y-100530938D01*
X158519406Y-99921340D01*
X158519406Y-99623481D01*
X158519327Y-99548788D01*
X158519071Y-99486832D01*
X158518609Y-99436622D01*
X158517912Y-99397165D01*
X158516953Y-99367471D01*
X158515702Y-99346547D01*
X158514131Y-99333402D01*
X158512210Y-99327044D01*
X158510825Y-99326077D01*
X158504171Y-99329508D01*
X158486161Y-99339514D01*
X158457320Y-99355793D01*
X158418176Y-99378043D01*
X158369255Y-99405961D01*
X158311082Y-99439244D01*
X158244184Y-99477590D01*
X158169087Y-99520696D01*
X158086319Y-99568260D01*
X157996404Y-99619978D01*
X157899869Y-99675550D01*
X157797241Y-99734672D01*
X157689045Y-99797041D01*
X157575809Y-99862355D01*
X157458058Y-99930311D01*
X157336319Y-100000608D01*
X157211117Y-100072942D01*
X157122406Y-100124217D01*
X155742568Y-100921902D01*
X155740779Y-101222903D01*
X155740395Y-101295914D01*
X155740208Y-101356315D01*
X155511427Y-101356315D01*
X155511442Y-101346026D01*
X155511256Y-101281251D01*
X155510951Y-101223019D01*
X155509163Y-100923659D01*
X155249210Y-100773370D01*
X155194811Y-100741954D01*
X155144156Y-100712764D01*
X155098463Y-100686499D01*
X155058950Y-100663855D01*
X155026836Y-100645531D01*
X155003340Y-100632222D01*
X154989678Y-100624627D01*
X154986629Y-100623081D01*
X154986078Y-100629714D01*
X154985567Y-100648682D01*
X154985107Y-100678593D01*
X154984710Y-100718051D01*
X154984390Y-100765664D01*
X154984158Y-100820037D01*
X154984026Y-100879777D01*
X154984000Y-100921545D01*
X154755469Y-100921545D01*
X154754027Y-100624497D01*
X154445109Y-100803541D01*
X154385308Y-100838057D01*
X154328801Y-100870397D01*
X154276750Y-100899913D01*
X154230321Y-100925959D01*
X154190678Y-100947885D01*
X154158986Y-100965046D01*
X154136410Y-100976793D01*
X154124114Y-100982480D01*
X154122460Y-100982918D01*
X154114384Y-100979611D01*
X154095419Y-100969943D01*
X154066541Y-100954459D01*
X154028727Y-100933706D01*
X153982952Y-100908229D01*
X153930194Y-100878574D01*
X153871428Y-100845287D01*
X153807632Y-100808913D01*
X153739781Y-100769999D01*
X153681392Y-100736340D01*
X153254055Y-100489429D01*
X153254360Y-99988188D01*
X153254423Y-99884553D01*
X153481525Y-99884553D01*
X153481614Y-99934508D01*
X153481892Y-99996044D01*
X153482239Y-100056866D01*
X153484027Y-100357149D01*
X153741460Y-100506659D01*
X153795662Y-100538085D01*
X153846218Y-100567295D01*
X153891889Y-100593580D01*
X153931437Y-100616234D01*
X153963626Y-100634548D01*
X153987217Y-100647815D01*
X154000973Y-100655327D01*
X154004041Y-100656787D01*
X154005120Y-100650288D01*
X154006122Y-100631449D01*
X154007023Y-100601662D01*
X154007800Y-100562318D01*
X154008427Y-100514806D01*
X154008882Y-100460519D01*
X154009139Y-100400847D01*
X154009190Y-100359252D01*
X154009190Y-100061097D01*
X154000974Y-100055341D01*
X154235730Y-100055341D01*
X154235730Y-100356615D01*
X154235755Y-100428793D01*
X154235860Y-100488404D01*
X154236094Y-100536610D01*
X154236504Y-100574574D01*
X154237136Y-100603457D01*
X154238039Y-100624423D01*
X154239260Y-100638633D01*
X154240845Y-100647251D01*
X154242843Y-100651438D01*
X154245302Y-100652356D01*
X154247746Y-100651458D01*
X154256075Y-100646743D01*
X154274997Y-100635879D01*
X154303227Y-100619609D01*
X154339482Y-100598674D01*
X154382478Y-100573816D01*
X154430932Y-100545775D01*
X154483560Y-100515295D01*
X154517192Y-100495804D01*
X154548268Y-100477803D01*
X154590598Y-100453304D01*
X154641255Y-100424000D01*
X155107881Y-100424000D01*
X155113625Y-100428514D01*
X155129890Y-100438840D01*
X155155193Y-100454136D01*
X155188050Y-100473559D01*
X155226975Y-100496265D01*
X155270484Y-100521409D01*
X155317093Y-100548150D01*
X155365317Y-100575643D01*
X155413672Y-100603044D01*
X155460674Y-100629511D01*
X155504838Y-100654199D01*
X155544679Y-100676266D01*
X155578713Y-100694867D01*
X155605456Y-100709159D01*
X155623424Y-100718299D01*
X155631131Y-100721442D01*
X155631261Y-100721409D01*
X155637706Y-100717662D01*
X155655513Y-100707353D01*
X155684158Y-100690784D01*
X155723113Y-100668261D01*
X155771854Y-100640085D01*
X155829853Y-100606563D01*
X155896585Y-100567997D01*
X155971524Y-100524691D01*
X156054144Y-100476950D01*
X156143918Y-100425077D01*
X156240322Y-100369377D01*
X156342828Y-100310153D01*
X156450911Y-100247709D01*
X156564045Y-100182349D01*
X156681703Y-100114378D01*
X156803361Y-100044098D01*
X156928491Y-99971815D01*
X157014982Y-99921853D01*
X157142115Y-99848398D01*
X157266094Y-99776731D01*
X157386397Y-99707156D01*
X157502497Y-99639978D01*
X157613873Y-99575500D01*
X157720001Y-99514027D01*
X157820355Y-99455863D01*
X157914413Y-99401311D01*
X158001651Y-99350677D01*
X158081544Y-99304264D01*
X158153569Y-99262376D01*
X158217203Y-99225317D01*
X158271921Y-99193393D01*
X158317199Y-99166906D01*
X158352514Y-99146160D01*
X158377341Y-99131461D01*
X158391158Y-99123112D01*
X158393996Y-99121216D01*
X158388584Y-99116851D01*
X158372462Y-99106397D01*
X158346842Y-99090582D01*
X158312934Y-99070131D01*
X158271948Y-99045771D01*
X158225095Y-99018229D01*
X158173585Y-98988230D01*
X158140899Y-98969326D01*
X158078069Y-98933165D01*
X158025998Y-98903414D01*
X157983614Y-98879518D01*
X157949845Y-98860920D01*
X157923619Y-98847063D01*
X157903865Y-98837391D01*
X157889509Y-98831348D01*
X157879481Y-98828377D01*
X157872709Y-98827921D01*
X157869832Y-98828597D01*
X157862272Y-98832620D01*
X157843547Y-98843112D01*
X157814295Y-98859704D01*
X157775153Y-98882027D01*
X157726759Y-98909714D01*
X157669751Y-98942396D01*
X157604766Y-98979704D01*
X157532441Y-99021271D01*
X157453414Y-99066729D01*
X157368323Y-99115708D01*
X157277805Y-99167841D01*
X157182497Y-99222759D01*
X157083038Y-99280095D01*
X156980064Y-99339480D01*
X156874214Y-99400545D01*
X156766125Y-99462923D01*
X156656433Y-99526245D01*
X156545778Y-99590143D01*
X156434796Y-99654249D01*
X156324125Y-99718194D01*
X156214402Y-99781610D01*
X156106266Y-99844129D01*
X156000353Y-99905382D01*
X155897301Y-99965002D01*
X155797747Y-100022620D01*
X155702330Y-100077868D01*
X155611687Y-100130377D01*
X155526454Y-100179780D01*
X155447271Y-100225707D01*
X155374773Y-100267792D01*
X155309600Y-100305664D01*
X155252387Y-100338957D01*
X155203774Y-100367302D01*
X155164397Y-100390331D01*
X155134894Y-100407675D01*
X155115902Y-100418966D01*
X155108060Y-100423836D01*
X155107881Y-100424000D01*
X154641255Y-100424000D01*
X154643546Y-100422675D01*
X154706475Y-100386281D01*
X154778751Y-100344492D01*
X154859736Y-100297675D01*
X154948795Y-100246196D01*
X155045292Y-100190423D01*
X155148591Y-100130723D01*
X155258056Y-100067465D01*
X155373050Y-100001015D01*
X155492939Y-99931741D01*
X155617085Y-99860010D01*
X155744853Y-99786190D01*
X155875606Y-99710647D01*
X156008710Y-99633750D01*
X156143527Y-99555866D01*
X156279423Y-99477362D01*
X156415760Y-99398605D01*
X156551903Y-99319964D01*
X156687215Y-99241805D01*
X156821062Y-99164495D01*
X156952806Y-99088403D01*
X157081812Y-99013895D01*
X157207444Y-98941339D01*
X157329066Y-98871103D01*
X157446041Y-98803553D01*
X157557734Y-98739058D01*
X157663509Y-98677984D01*
X157762730Y-98620699D01*
X157854761Y-98567570D01*
X157938965Y-98518966D01*
X158014707Y-98475252D01*
X158081351Y-98436797D01*
X158138261Y-98403968D01*
X158184800Y-98377132D01*
X158191609Y-98373207D01*
X158519406Y-98184270D01*
X158519406Y-97886540D01*
X158519247Y-97804828D01*
X158518771Y-97735948D01*
X158517984Y-97680058D01*
X158516888Y-97637315D01*
X158515486Y-97607878D01*
X158513784Y-97591904D01*
X158512472Y-97588811D01*
X158506079Y-97592206D01*
X158488222Y-97602230D01*
X158459321Y-97618640D01*
X158419799Y-97641193D01*
X158370076Y-97669646D01*
X158310576Y-97703757D01*
X158241718Y-97743282D01*
X158163926Y-97787979D01*
X158077620Y-97837605D01*
X157983223Y-97891918D01*
X157881155Y-97950675D01*
X157771840Y-98013632D01*
X157655697Y-98080547D01*
X157533149Y-98151178D01*
X157404618Y-98225281D01*
X157270524Y-98302613D01*
X157131291Y-98382933D01*
X156987339Y-98465997D01*
X156839090Y-98551562D01*
X156686965Y-98639386D01*
X156531388Y-98729225D01*
X156372778Y-98820838D01*
X156370634Y-98822076D01*
X154235730Y-100055341D01*
X154000974Y-100055341D01*
X153990311Y-100047871D01*
X153979791Y-100041233D01*
X153959225Y-100028892D01*
X153930183Y-100011752D01*
X153894237Y-99990719D01*
X153852958Y-99966696D01*
X153807915Y-99940589D01*
X153760681Y-99913302D01*
X153712825Y-99885741D01*
X153665919Y-99858809D01*
X153621533Y-99833412D01*
X153581239Y-99810454D01*
X153546606Y-99790840D01*
X153519205Y-99775475D01*
X153500608Y-99765263D01*
X153492536Y-99761164D01*
X153489639Y-99760673D01*
X153487258Y-99762384D01*
X153485352Y-99767470D01*
X153483881Y-99777103D01*
X153482804Y-99792455D01*
X153482079Y-99814699D01*
X153481666Y-99845007D01*
X153481525Y-99884553D01*
X153254423Y-99884553D01*
X153254625Y-99552181D01*
X153611994Y-99552181D01*
X153616956Y-99557859D01*
X153627939Y-99566492D01*
X153645809Y-99578631D01*
X153671432Y-99594825D01*
X153705675Y-99615622D01*
X153749404Y-99641574D01*
X153803486Y-99673228D01*
X153859321Y-99705655D01*
X153913504Y-99736901D01*
X153964148Y-99765835D01*
X154009997Y-99791759D01*
X154049793Y-99813975D01*
X154082280Y-99831784D01*
X154106200Y-99844487D01*
X154120297Y-99851387D01*
X154123544Y-99852447D01*
X154130013Y-99848927D01*
X154147947Y-99838780D01*
X154176923Y-99822249D01*
X154216520Y-99799576D01*
X154266314Y-99771006D01*
X154325884Y-99736782D01*
X154394808Y-99697147D01*
X154472663Y-99652344D01*
X154559028Y-99602617D01*
X154653479Y-99548209D01*
X154755595Y-99489363D01*
X154864954Y-99426323D01*
X154981133Y-99359333D01*
X155103711Y-99288634D01*
X155232265Y-99214472D01*
X155366372Y-99137088D01*
X155505611Y-99056727D01*
X155649559Y-98973632D01*
X155797795Y-98888046D01*
X155949896Y-98800213D01*
X156105439Y-98710375D01*
X156263665Y-98618971D01*
X156422160Y-98527394D01*
X156577591Y-98437565D01*
X156729539Y-98349729D01*
X156877584Y-98264128D01*
X157021304Y-98181006D01*
X157160280Y-98100608D01*
X157294092Y-98023175D01*
X157422319Y-97948953D01*
X157544540Y-97878184D01*
X157660337Y-97811113D01*
X157769288Y-97747982D01*
X157870973Y-97689036D01*
X157964972Y-97634517D01*
X158050864Y-97584670D01*
X158128230Y-97539738D01*
X158196649Y-97499965D01*
X158255700Y-97465594D01*
X158304964Y-97436869D01*
X158344020Y-97414033D01*
X158372449Y-97397330D01*
X158389828Y-97387003D01*
X158395740Y-97383297D01*
X158395740Y-97383296D01*
X158389981Y-97378997D01*
X158373748Y-97368807D01*
X158348526Y-97353580D01*
X158315801Y-97334169D01*
X158277056Y-97311428D01*
X158233778Y-97286212D01*
X158187450Y-97259374D01*
X158139557Y-97231769D01*
X158091586Y-97204249D01*
X158045019Y-97177670D01*
X158001343Y-97152885D01*
X157962042Y-97130747D01*
X157928601Y-97112111D01*
X157902505Y-97097831D01*
X157885239Y-97088761D01*
X157878337Y-97085748D01*
X157871106Y-97089170D01*
X157853130Y-97098872D01*
X157825528Y-97114221D01*
X157789415Y-97134582D01*
X157745910Y-97159322D01*
X157696130Y-97187806D01*
X157641191Y-97219400D01*
X157582211Y-97253470D01*
X157551460Y-97271289D01*
X157515466Y-97292157D01*
X157469594Y-97318730D01*
X157414424Y-97350673D01*
X157350533Y-97387653D01*
X157278501Y-97429335D01*
X157198907Y-97475383D01*
X157112330Y-97525464D01*
X157019348Y-97579243D01*
X156920540Y-97636385D01*
X156816486Y-97696557D01*
X156707764Y-97759422D01*
X156594953Y-97824647D01*
X156478631Y-97891897D01*
X156359379Y-97960838D01*
X156237774Y-98031135D01*
X156114396Y-98102453D01*
X155989824Y-98174458D01*
X155864635Y-98246816D01*
X155739410Y-98319191D01*
X155614727Y-98391249D01*
X155491165Y-98462656D01*
X155369304Y-98533077D01*
X155249720Y-98602178D01*
X155132995Y-98669624D01*
X155019706Y-98735080D01*
X154910433Y-98798212D01*
X154805753Y-98858685D01*
X154706248Y-98916165D01*
X154612494Y-98970317D01*
X154525071Y-99020806D01*
X154444558Y-99067299D01*
X154371534Y-99109460D01*
X154306578Y-99146955D01*
X154250268Y-99179449D01*
X154203183Y-99206608D01*
X154165903Y-99228098D01*
X154139006Y-99243583D01*
X154123071Y-99252729D01*
X154119027Y-99255027D01*
X154091098Y-99270728D01*
X154055946Y-99290694D01*
X154015060Y-99314061D01*
X153969926Y-99339968D01*
X153922030Y-99367553D01*
X153872861Y-99395953D01*
X153823905Y-99424307D01*
X153776648Y-99451751D01*
X153732578Y-99477424D01*
X153693182Y-99500464D01*
X153659947Y-99520008D01*
X153634360Y-99535195D01*
X153617907Y-99545161D01*
X153612186Y-99548910D01*
X153611994Y-99552181D01*
X153254625Y-99552181D01*
X153254665Y-99486946D01*
X153570143Y-99305491D01*
X153630201Y-99270875D01*
X153686512Y-99238280D01*
X153737981Y-99208348D01*
X153783511Y-99181723D01*
X153822008Y-99159050D01*
X153852376Y-99140973D01*
X153873517Y-99128136D01*
X153884338Y-99121182D01*
X153885548Y-99120140D01*
X153879880Y-99115565D01*
X153864304Y-99105525D01*
X153840875Y-99091281D01*
X153811653Y-99074099D01*
X153794589Y-99064272D01*
X153767000Y-99048459D01*
X153729618Y-99026976D01*
X153684535Y-99001030D01*
X153633842Y-98971825D01*
X153579631Y-98940567D01*
X153523994Y-98908459D01*
X153478879Y-98882403D01*
X153254055Y-98752505D01*
X153254343Y-98251320D01*
X153254361Y-98218320D01*
X153481982Y-98218320D01*
X153482044Y-98278102D01*
X153482239Y-98320665D01*
X153484027Y-98620033D01*
X153741460Y-98769243D01*
X153795642Y-98800519D01*
X153846181Y-98829444D01*
X153891839Y-98855329D01*
X153931382Y-98877484D01*
X153963572Y-98895220D01*
X153987173Y-98907847D01*
X154000950Y-98914677D01*
X154004041Y-98915686D01*
X154005129Y-98908457D01*
X154006138Y-98888921D01*
X154007045Y-98858500D01*
X154007823Y-98818615D01*
X154008450Y-98770690D01*
X154008900Y-98716146D01*
X154009148Y-98656406D01*
X154009190Y-98618976D01*
X154009135Y-98546498D01*
X154008943Y-98486560D01*
X154008575Y-98437972D01*
X154007990Y-98399545D01*
X154007149Y-98370089D01*
X154006009Y-98348415D01*
X154004533Y-98333333D01*
X154002679Y-98323654D01*
X154000452Y-98318296D01*
X154235730Y-98318296D01*
X154235730Y-98920039D01*
X154371311Y-98841770D01*
X154390575Y-98830646D01*
X154421097Y-98813019D01*
X154462248Y-98789252D01*
X154513397Y-98759708D01*
X154573914Y-98724753D01*
X154643169Y-98684749D01*
X154720532Y-98640061D01*
X154805373Y-98591053D01*
X154897061Y-98538089D01*
X154994968Y-98481532D01*
X155098462Y-98421747D01*
X155206913Y-98359098D01*
X155319692Y-98293949D01*
X155436169Y-98226663D01*
X155555712Y-98157604D01*
X155677693Y-98087137D01*
X155759730Y-98039745D01*
X157012568Y-97315990D01*
X157014356Y-97016482D01*
X157014638Y-96953848D01*
X157014722Y-96895656D01*
X157014619Y-96843298D01*
X157014341Y-96798164D01*
X157013897Y-96761647D01*
X157013300Y-96735138D01*
X157012560Y-96720028D01*
X157011985Y-96716973D01*
X157005742Y-96720359D01*
X156988135Y-96730314D01*
X156959688Y-96746537D01*
X156920924Y-96768728D01*
X156872365Y-96796585D01*
X156814535Y-96829806D01*
X156747958Y-96868090D01*
X156673155Y-96911137D01*
X156590651Y-96958644D01*
X156500968Y-97010311D01*
X156404631Y-97065836D01*
X156302160Y-97124917D01*
X156194081Y-97187255D01*
X156080916Y-97252546D01*
X155963188Y-97320491D01*
X155841420Y-97390787D01*
X155716136Y-97463134D01*
X155621778Y-97517635D01*
X154235730Y-98318296D01*
X154000452Y-98318296D01*
X154000407Y-98318188D01*
X153998976Y-98316556D01*
X153990465Y-98310956D01*
X153971809Y-98299609D01*
X153944511Y-98283380D01*
X153910073Y-98263134D01*
X153869997Y-98239736D01*
X153825783Y-98214052D01*
X153778936Y-98186945D01*
X153730956Y-98159282D01*
X153683345Y-98131927D01*
X153637606Y-98105746D01*
X153595241Y-98081602D01*
X153557751Y-98060362D01*
X153526638Y-98042890D01*
X153503405Y-98030051D01*
X153489553Y-98022711D01*
X153486295Y-98021298D01*
X153485112Y-98027930D01*
X153484090Y-98046900D01*
X153483247Y-98076816D01*
X153482602Y-98116285D01*
X153482174Y-98163918D01*
X153481982Y-98218320D01*
X153254361Y-98218320D01*
X153254591Y-97818100D01*
X153609340Y-97818100D01*
X153615132Y-97822457D01*
X153631342Y-97832785D01*
X153656486Y-97848213D01*
X153689077Y-97867871D01*
X153727631Y-97890890D01*
X153770660Y-97916400D01*
X153816681Y-97943531D01*
X153864207Y-97971413D01*
X153911752Y-97999177D01*
X153957830Y-98025952D01*
X154000957Y-98050869D01*
X154039647Y-98073057D01*
X154072413Y-98091648D01*
X154097771Y-98105771D01*
X154114234Y-98114557D01*
X154120166Y-98117181D01*
X154126448Y-98113816D01*
X154144091Y-98103881D01*
X154172573Y-98087678D01*
X154211369Y-98065507D01*
X154259955Y-98037671D01*
X154317807Y-98004471D01*
X154384400Y-97966209D01*
X154459211Y-97923187D01*
X154541717Y-97875706D01*
X154631391Y-97824068D01*
X154727712Y-97768574D01*
X154830154Y-97709527D01*
X154938194Y-97647228D01*
X155051307Y-97581978D01*
X155168969Y-97514080D01*
X155290657Y-97443834D01*
X155415847Y-97371543D01*
X155506869Y-97318967D01*
X155634188Y-97245384D01*
X155758330Y-97173577D01*
X155878772Y-97103849D01*
X155994993Y-97036504D01*
X156106471Y-96971846D01*
X156212685Y-96910179D01*
X156313114Y-96851807D01*
X156407235Y-96797035D01*
X156494528Y-96746167D01*
X156574471Y-96699505D01*
X156646542Y-96657355D01*
X156710221Y-96620021D01*
X156764985Y-96587807D01*
X156810313Y-96561016D01*
X156845683Y-96539952D01*
X156870575Y-96524921D01*
X156884466Y-96516225D01*
X156887364Y-96514061D01*
X156881357Y-96509611D01*
X156864929Y-96499206D01*
X156839572Y-96483717D01*
X156806779Y-96464015D01*
X156768041Y-96440971D01*
X156724850Y-96415455D01*
X156678699Y-96388339D01*
X156631079Y-96360494D01*
X156583483Y-96332789D01*
X156537402Y-96306096D01*
X156494330Y-96281286D01*
X156455757Y-96259229D01*
X156423176Y-96240796D01*
X156398079Y-96226859D01*
X156381959Y-96218287D01*
X156376435Y-96215871D01*
X156369798Y-96219246D01*
X156351950Y-96229139D01*
X156323528Y-96245180D01*
X156285168Y-96267000D01*
X156237507Y-96294232D01*
X156181182Y-96326507D01*
X156116829Y-96363457D01*
X156045083Y-96404712D01*
X155966583Y-96449904D01*
X155881963Y-96498665D01*
X155791861Y-96550627D01*
X155696914Y-96605420D01*
X155597756Y-96662676D01*
X155495026Y-96722028D01*
X155389358Y-96783105D01*
X155281391Y-96845540D01*
X155171760Y-96908964D01*
X155061101Y-96973009D01*
X154950052Y-97037306D01*
X154839248Y-97101487D01*
X154729326Y-97165182D01*
X154620923Y-97228025D01*
X154514674Y-97289645D01*
X154411217Y-97349675D01*
X154311187Y-97407746D01*
X154215222Y-97463489D01*
X154123957Y-97516536D01*
X154038030Y-97566519D01*
X153958076Y-97613069D01*
X153884732Y-97655817D01*
X153818634Y-97694395D01*
X153760419Y-97728434D01*
X153710724Y-97757566D01*
X153670184Y-97781423D01*
X153639437Y-97799635D01*
X153619118Y-97811835D01*
X153609864Y-97817654D01*
X153609340Y-97818100D01*
X153254591Y-97818100D01*
X153254631Y-97750136D01*
X154815453Y-96849194D01*
X156376275Y-95948253D01*
X156807692Y-96197414D01*
D14*
X148000000Y-83300000D03*
X148000000Y-78500000D03*
D15*
X113425000Y-102110000D03*
X107375000Y-102110000D03*
X113425000Y-99570000D03*
X107375000Y-99570000D03*
X113425000Y-97030000D03*
X107375000Y-97030000D03*
X113425000Y-94490000D03*
X107375000Y-94490000D03*
D16*
X140100000Y-90100000D03*
D17*
X137784225Y-92415775D02*
X142415775Y-87784225D01*
D16*
X123500000Y-106700000D03*
D17*
X121184225Y-109015775D02*
X125815775Y-104384225D01*
D16*
X123500000Y-90100000D03*
D17*
X125815775Y-92415775D02*
X121184225Y-87784225D01*
D16*
X140100000Y-106700000D03*
D17*
X142415775Y-109015775D02*
X137784225Y-104384225D01*
D18*
X131800000Y-98400000D03*
D19*
X141200000Y-74850000D03*
X141200000Y-77350000D03*
X141850000Y-116750000D03*
X141850000Y-119250000D03*
D20*
X149783883Y-109683883D03*
D21*
G36*
X151038998Y-109772271D02*
G01*
X149872271Y-110938998D01*
X148528768Y-109595495D01*
X149695495Y-108428768D01*
X151038998Y-109772271D01*
X151038998Y-109772271D01*
G37*
D20*
X148016117Y-107916117D03*
D21*
G36*
X149271232Y-108004505D02*
G01*
X148104505Y-109171232D01*
X146761002Y-107827729D01*
X147927729Y-106661002D01*
X149271232Y-108004505D01*
X149271232Y-108004505D01*
G37*
D22*
X149003949Y-95296051D03*
D21*
G36*
X150488873Y-95296051D02*
G01*
X149003949Y-96780975D01*
X147519025Y-95296051D01*
X149003949Y-93811127D01*
X150488873Y-95296051D01*
X150488873Y-95296051D01*
G37*
D22*
X150800000Y-93500000D03*
D23*
X150800000Y-93500000D02*
X150800000Y-93500000D01*
D22*
X152596051Y-91703949D03*
D23*
X152596051Y-91703949D02*
X152596051Y-91703949D01*
D22*
X154392103Y-89907897D03*
D23*
X154392103Y-89907897D02*
X154392103Y-89907897D01*
D22*
X149003949Y-102403949D03*
D21*
G36*
X149003949Y-103888873D02*
G01*
X147519025Y-102403949D01*
X149003949Y-100919025D01*
X150488873Y-102403949D01*
X149003949Y-103888873D01*
X149003949Y-103888873D01*
G37*
D22*
X150800000Y-104200000D03*
D23*
X150800000Y-104200000D02*
X150800000Y-104200000D01*
D22*
X152596051Y-105996051D03*
D23*
X152596051Y-105996051D02*
X152596051Y-105996051D01*
D22*
X154392103Y-107792103D03*
D23*
X154392103Y-107792103D02*
X154392103Y-107792103D01*
D24*
X134000000Y-82650000D03*
X128950000Y-82650000D03*
D25*
X149605000Y-113000000D03*
X148335000Y-113000000D03*
X147065000Y-113000000D03*
X145795000Y-113000000D03*
X145795000Y-118400000D03*
X147065000Y-118400000D03*
X148335000Y-118400000D03*
X149605000Y-118400000D03*
D26*
X133400000Y-123500000D03*
X135900000Y-123500000D03*
D20*
X125916117Y-115583883D03*
D21*
G36*
X125827729Y-116838998D02*
G01*
X124661002Y-115672271D01*
X126004505Y-114328768D01*
X127171232Y-115495495D01*
X125827729Y-116838998D01*
X125827729Y-116838998D01*
G37*
D20*
X127683883Y-113816117D03*
D21*
G36*
X127595495Y-115071232D02*
G01*
X126428768Y-113904505D01*
X127772271Y-112561002D01*
X128938998Y-113727729D01*
X127595495Y-115071232D01*
X127595495Y-115071232D01*
G37*
D20*
X131816117Y-111616117D03*
D21*
G36*
X130561002Y-111527729D02*
G01*
X131727729Y-110361002D01*
X133071232Y-111704505D01*
X131904505Y-112871232D01*
X130561002Y-111527729D01*
X130561002Y-111527729D01*
G37*
D20*
X133583883Y-113383883D03*
D21*
G36*
X132328768Y-113295495D02*
G01*
X133495495Y-112128768D01*
X134838998Y-113472271D01*
X133672271Y-114638998D01*
X132328768Y-113295495D01*
X132328768Y-113295495D01*
G37*
D27*
X126725000Y-75200000D03*
X126725000Y-76200000D03*
X126725000Y-77200000D03*
X126725000Y-78200000D03*
X126725000Y-74200000D03*
X126725000Y-73200000D03*
X136675000Y-73200000D03*
X136675000Y-74200000D03*
X136675000Y-75200000D03*
X136675000Y-76200000D03*
X136675000Y-77200000D03*
X136675000Y-78200000D03*
D28*
X131700000Y-75700000D03*
D29*
X131700000Y-72150000D03*
X131700000Y-79250000D03*
M02*
