%TF.GenerationSoftware,KiCad,Pcbnew,(5.1.9)-1*%
%TF.CreationDate,2021-08-02T11:29:56+02:00*%
%TF.ProjectId,Wheel_ECU,57686565-6c5f-4454-9355-2e6b69636164,1.0*%
%TF.SameCoordinates,Original*%
%TF.FileFunction,Copper,L2,Bot*%
%TF.FilePolarity,Positive*%
%FSLAX46Y46*%
G04 Gerber Fmt 4.6, Leading zero omitted, Abs format (unit mm)*
G04 Created by KiCad (PCBNEW (5.1.9)-1) date 2021-08-02 11:29:56*
%MOMM*%
%LPD*%
G01*
G04 APERTURE LIST*
%TA.AperFunction,SMDPad,CuDef*%
%ADD10C,0.100000*%
%TD*%
%TA.AperFunction,ComponentPad*%
%ADD11C,0.600000*%
%TD*%
%TA.AperFunction,SMDPad,CuDef*%
%ADD12R,1.500000X1.250000*%
%TD*%
%TA.AperFunction,SMDPad,CuDef*%
%ADD13R,1.250000X1.500000*%
%TD*%
%TA.AperFunction,ComponentPad*%
%ADD14C,0.100000*%
%TD*%
%TA.AperFunction,SMDPad,CuDef*%
%ADD15R,2.000000X0.650000*%
%TD*%
%TA.AperFunction,ComponentPad*%
%ADD16R,4.400000X5.100000*%
%TD*%
%TA.AperFunction,ViaPad*%
%ADD17C,0.600000*%
%TD*%
%TA.AperFunction,Conductor*%
%ADD18C,0.250000*%
%TD*%
%TA.AperFunction,Conductor*%
%ADD19C,1.500000*%
%TD*%
%TA.AperFunction,Conductor*%
%ADD20C,0.750000*%
%TD*%
%TA.AperFunction,Conductor*%
%ADD21C,1.000000*%
%TD*%
%TA.AperFunction,Conductor*%
%ADD22C,0.200000*%
%TD*%
%TA.AperFunction,Conductor*%
%ADD23C,0.100000*%
%TD*%
G04 APERTURE END LIST*
%TA.AperFunction,SMDPad,CuDef*%
D10*
G36*
X131034567Y-123809798D02*
G01*
X131246699Y-124021930D01*
X129832485Y-125436144D01*
X129620353Y-125224012D01*
X131034567Y-123809798D01*
G37*
%TD.AperFunction*%
%TA.AperFunction,SMDPad,CuDef*%
G36*
X138034924Y-118718629D02*
G01*
X138247056Y-118506497D01*
X139661270Y-119920711D01*
X139449138Y-120132843D01*
X138034924Y-118718629D01*
G37*
%TD.AperFunction*%
%TA.AperFunction,SMDPad,CuDef*%
G36*
X134145837Y-110091926D02*
G01*
X134357969Y-110304058D01*
X132943755Y-111718272D01*
X132731623Y-111506140D01*
X134145837Y-110091926D01*
G37*
%TD.AperFunction*%
%TA.AperFunction,SMDPad,CuDef*%
G36*
X124317052Y-115607359D02*
G01*
X124529184Y-115395227D01*
X125943398Y-116809441D01*
X125731266Y-117021573D01*
X124317052Y-115607359D01*
G37*
%TD.AperFunction*%
%TA.AperFunction,SMDPad,CuDef*%
G36*
X124670606Y-115253806D02*
G01*
X124882738Y-115041674D01*
X126296952Y-116455888D01*
X126084820Y-116668020D01*
X124670606Y-115253806D01*
G37*
%TD.AperFunction*%
%TA.AperFunction,SMDPad,CuDef*%
G36*
X125024159Y-114900252D02*
G01*
X125236291Y-114688120D01*
X126650505Y-116102334D01*
X126438373Y-116314466D01*
X125024159Y-114900252D01*
G37*
%TD.AperFunction*%
%TA.AperFunction,SMDPad,CuDef*%
G36*
X125377712Y-114546699D02*
G01*
X125589844Y-114334567D01*
X127004058Y-115748781D01*
X126791926Y-115960913D01*
X125377712Y-114546699D01*
G37*
%TD.AperFunction*%
%TA.AperFunction,SMDPad,CuDef*%
G36*
X125731266Y-114193146D02*
G01*
X125943398Y-113981014D01*
X127357612Y-115395228D01*
X127145480Y-115607360D01*
X125731266Y-114193146D01*
G37*
%TD.AperFunction*%
%TA.AperFunction,SMDPad,CuDef*%
G36*
X126084819Y-113839592D02*
G01*
X126296951Y-113627460D01*
X127711165Y-115041674D01*
X127499033Y-115253806D01*
X126084819Y-113839592D01*
G37*
%TD.AperFunction*%
%TA.AperFunction,SMDPad,CuDef*%
G36*
X126438373Y-113486039D02*
G01*
X126650505Y-113273907D01*
X128064719Y-114688121D01*
X127852587Y-114900253D01*
X126438373Y-113486039D01*
G37*
%TD.AperFunction*%
%TA.AperFunction,SMDPad,CuDef*%
G36*
X126791926Y-113132485D02*
G01*
X127004058Y-112920353D01*
X128418272Y-114334567D01*
X128206140Y-114546699D01*
X126791926Y-113132485D01*
G37*
%TD.AperFunction*%
%TA.AperFunction,SMDPad,CuDef*%
G36*
X127145479Y-112778932D02*
G01*
X127357611Y-112566800D01*
X128771825Y-113981014D01*
X128559693Y-114193146D01*
X127145479Y-112778932D01*
G37*
%TD.AperFunction*%
%TA.AperFunction,SMDPad,CuDef*%
G36*
X127499033Y-112425379D02*
G01*
X127711165Y-112213247D01*
X129125379Y-113627461D01*
X128913247Y-113839593D01*
X127499033Y-112425379D01*
G37*
%TD.AperFunction*%
%TA.AperFunction,SMDPad,CuDef*%
G36*
X127852586Y-112071825D02*
G01*
X128064718Y-111859693D01*
X129478932Y-113273907D01*
X129266800Y-113486039D01*
X127852586Y-112071825D01*
G37*
%TD.AperFunction*%
%TA.AperFunction,SMDPad,CuDef*%
G36*
X128206140Y-111718272D02*
G01*
X128418272Y-111506140D01*
X129832486Y-112920354D01*
X129620354Y-113132486D01*
X128206140Y-111718272D01*
G37*
%TD.AperFunction*%
%TA.AperFunction,SMDPad,CuDef*%
G36*
X128559693Y-111364718D02*
G01*
X128771825Y-111152586D01*
X130186039Y-112566800D01*
X129973907Y-112778932D01*
X128559693Y-111364718D01*
G37*
%TD.AperFunction*%
%TA.AperFunction,SMDPad,CuDef*%
G36*
X128913246Y-111011165D02*
G01*
X129125378Y-110799033D01*
X130539592Y-112213247D01*
X130327460Y-112425379D01*
X128913246Y-111011165D01*
G37*
%TD.AperFunction*%
%TA.AperFunction,SMDPad,CuDef*%
G36*
X129266800Y-110657612D02*
G01*
X129478932Y-110445480D01*
X130893146Y-111859694D01*
X130681014Y-112071826D01*
X129266800Y-110657612D01*
G37*
%TD.AperFunction*%
%TA.AperFunction,SMDPad,CuDef*%
G36*
X129620353Y-110304058D02*
G01*
X129832485Y-110091926D01*
X131246699Y-111506140D01*
X131034567Y-111718272D01*
X129620353Y-110304058D01*
G37*
%TD.AperFunction*%
%TA.AperFunction,SMDPad,CuDef*%
G36*
X134499390Y-110445480D02*
G01*
X134711522Y-110657612D01*
X133297308Y-112071826D01*
X133085176Y-111859694D01*
X134499390Y-110445480D01*
G37*
%TD.AperFunction*%
%TA.AperFunction,SMDPad,CuDef*%
G36*
X134852944Y-110799033D02*
G01*
X135065076Y-111011165D01*
X133650862Y-112425379D01*
X133438730Y-112213247D01*
X134852944Y-110799033D01*
G37*
%TD.AperFunction*%
%TA.AperFunction,SMDPad,CuDef*%
G36*
X135206497Y-111152586D02*
G01*
X135418629Y-111364718D01*
X134004415Y-112778932D01*
X133792283Y-112566800D01*
X135206497Y-111152586D01*
G37*
%TD.AperFunction*%
%TA.AperFunction,SMDPad,CuDef*%
G36*
X135560050Y-111506140D02*
G01*
X135772182Y-111718272D01*
X134357968Y-113132486D01*
X134145836Y-112920354D01*
X135560050Y-111506140D01*
G37*
%TD.AperFunction*%
%TA.AperFunction,SMDPad,CuDef*%
G36*
X135913604Y-111859693D02*
G01*
X136125736Y-112071825D01*
X134711522Y-113486039D01*
X134499390Y-113273907D01*
X135913604Y-111859693D01*
G37*
%TD.AperFunction*%
%TA.AperFunction,SMDPad,CuDef*%
G36*
X136267157Y-112213247D02*
G01*
X136479289Y-112425379D01*
X135065075Y-113839593D01*
X134852943Y-113627461D01*
X136267157Y-112213247D01*
G37*
%TD.AperFunction*%
%TA.AperFunction,SMDPad,CuDef*%
G36*
X136620711Y-112566800D02*
G01*
X136832843Y-112778932D01*
X135418629Y-114193146D01*
X135206497Y-113981014D01*
X136620711Y-112566800D01*
G37*
%TD.AperFunction*%
%TA.AperFunction,SMDPad,CuDef*%
G36*
X136974264Y-112920353D02*
G01*
X137186396Y-113132485D01*
X135772182Y-114546699D01*
X135560050Y-114334567D01*
X136974264Y-112920353D01*
G37*
%TD.AperFunction*%
%TA.AperFunction,SMDPad,CuDef*%
G36*
X137327817Y-113273907D02*
G01*
X137539949Y-113486039D01*
X136125735Y-114900253D01*
X135913603Y-114688121D01*
X137327817Y-113273907D01*
G37*
%TD.AperFunction*%
%TA.AperFunction,SMDPad,CuDef*%
G36*
X137681371Y-113627460D02*
G01*
X137893503Y-113839592D01*
X136479289Y-115253806D01*
X136267157Y-115041674D01*
X137681371Y-113627460D01*
G37*
%TD.AperFunction*%
%TA.AperFunction,SMDPad,CuDef*%
G36*
X138034924Y-113981014D02*
G01*
X138247056Y-114193146D01*
X136832842Y-115607360D01*
X136620710Y-115395228D01*
X138034924Y-113981014D01*
G37*
%TD.AperFunction*%
%TA.AperFunction,SMDPad,CuDef*%
G36*
X138388478Y-114334567D02*
G01*
X138600610Y-114546699D01*
X137186396Y-115960913D01*
X136974264Y-115748781D01*
X138388478Y-114334567D01*
G37*
%TD.AperFunction*%
%TA.AperFunction,SMDPad,CuDef*%
G36*
X138742031Y-114688120D02*
G01*
X138954163Y-114900252D01*
X137539949Y-116314466D01*
X137327817Y-116102334D01*
X138742031Y-114688120D01*
G37*
%TD.AperFunction*%
%TA.AperFunction,SMDPad,CuDef*%
G36*
X139095584Y-115041674D02*
G01*
X139307716Y-115253806D01*
X137893502Y-116668020D01*
X137681370Y-116455888D01*
X139095584Y-115041674D01*
G37*
%TD.AperFunction*%
%TA.AperFunction,SMDPad,CuDef*%
G36*
X139449138Y-115395227D02*
G01*
X139661270Y-115607359D01*
X138247056Y-117021573D01*
X138034924Y-116809441D01*
X139449138Y-115395227D01*
G37*
%TD.AperFunction*%
%TA.AperFunction,SMDPad,CuDef*%
G36*
X130681014Y-123456244D02*
G01*
X130893146Y-123668376D01*
X129478932Y-125082590D01*
X129266800Y-124870458D01*
X130681014Y-123456244D01*
G37*
%TD.AperFunction*%
%TA.AperFunction,SMDPad,CuDef*%
G36*
X130327460Y-123102691D02*
G01*
X130539592Y-123314823D01*
X129125378Y-124729037D01*
X128913246Y-124516905D01*
X130327460Y-123102691D01*
G37*
%TD.AperFunction*%
%TA.AperFunction,SMDPad,CuDef*%
G36*
X129973907Y-122749138D02*
G01*
X130186039Y-122961270D01*
X128771825Y-124375484D01*
X128559693Y-124163352D01*
X129973907Y-122749138D01*
G37*
%TD.AperFunction*%
%TA.AperFunction,SMDPad,CuDef*%
G36*
X129620354Y-122395584D02*
G01*
X129832486Y-122607716D01*
X128418272Y-124021930D01*
X128206140Y-123809798D01*
X129620354Y-122395584D01*
G37*
%TD.AperFunction*%
%TA.AperFunction,SMDPad,CuDef*%
G36*
X129266800Y-122042031D02*
G01*
X129478932Y-122254163D01*
X128064718Y-123668377D01*
X127852586Y-123456245D01*
X129266800Y-122042031D01*
G37*
%TD.AperFunction*%
%TA.AperFunction,SMDPad,CuDef*%
G36*
X128913247Y-121688477D02*
G01*
X129125379Y-121900609D01*
X127711165Y-123314823D01*
X127499033Y-123102691D01*
X128913247Y-121688477D01*
G37*
%TD.AperFunction*%
%TA.AperFunction,SMDPad,CuDef*%
G36*
X128559693Y-121334924D02*
G01*
X128771825Y-121547056D01*
X127357611Y-122961270D01*
X127145479Y-122749138D01*
X128559693Y-121334924D01*
G37*
%TD.AperFunction*%
%TA.AperFunction,SMDPad,CuDef*%
G36*
X128206140Y-120981371D02*
G01*
X128418272Y-121193503D01*
X127004058Y-122607717D01*
X126791926Y-122395585D01*
X128206140Y-120981371D01*
G37*
%TD.AperFunction*%
%TA.AperFunction,SMDPad,CuDef*%
G36*
X127852587Y-120627817D02*
G01*
X128064719Y-120839949D01*
X126650505Y-122254163D01*
X126438373Y-122042031D01*
X127852587Y-120627817D01*
G37*
%TD.AperFunction*%
%TA.AperFunction,SMDPad,CuDef*%
G36*
X127499033Y-120274264D02*
G01*
X127711165Y-120486396D01*
X126296951Y-121900610D01*
X126084819Y-121688478D01*
X127499033Y-120274264D01*
G37*
%TD.AperFunction*%
%TA.AperFunction,SMDPad,CuDef*%
G36*
X127145480Y-119920710D02*
G01*
X127357612Y-120132842D01*
X125943398Y-121547056D01*
X125731266Y-121334924D01*
X127145480Y-119920710D01*
G37*
%TD.AperFunction*%
%TA.AperFunction,SMDPad,CuDef*%
G36*
X126791926Y-119567157D02*
G01*
X127004058Y-119779289D01*
X125589844Y-121193503D01*
X125377712Y-120981371D01*
X126791926Y-119567157D01*
G37*
%TD.AperFunction*%
%TA.AperFunction,SMDPad,CuDef*%
G36*
X126438373Y-119213604D02*
G01*
X126650505Y-119425736D01*
X125236291Y-120839950D01*
X125024159Y-120627818D01*
X126438373Y-119213604D01*
G37*
%TD.AperFunction*%
%TA.AperFunction,SMDPad,CuDef*%
G36*
X126084820Y-118860050D02*
G01*
X126296952Y-119072182D01*
X124882738Y-120486396D01*
X124670606Y-120274264D01*
X126084820Y-118860050D01*
G37*
%TD.AperFunction*%
%TA.AperFunction,SMDPad,CuDef*%
G36*
X125731266Y-118506497D02*
G01*
X125943398Y-118718629D01*
X124529184Y-120132843D01*
X124317052Y-119920711D01*
X125731266Y-118506497D01*
G37*
%TD.AperFunction*%
%TA.AperFunction,SMDPad,CuDef*%
G36*
X137681370Y-119072182D02*
G01*
X137893502Y-118860050D01*
X139307716Y-120274264D01*
X139095584Y-120486396D01*
X137681370Y-119072182D01*
G37*
%TD.AperFunction*%
%TA.AperFunction,SMDPad,CuDef*%
G36*
X137327817Y-119425736D02*
G01*
X137539949Y-119213604D01*
X138954163Y-120627818D01*
X138742031Y-120839950D01*
X137327817Y-119425736D01*
G37*
%TD.AperFunction*%
%TA.AperFunction,SMDPad,CuDef*%
G36*
X136974264Y-119779289D02*
G01*
X137186396Y-119567157D01*
X138600610Y-120981371D01*
X138388478Y-121193503D01*
X136974264Y-119779289D01*
G37*
%TD.AperFunction*%
%TA.AperFunction,SMDPad,CuDef*%
G36*
X136620710Y-120132842D02*
G01*
X136832842Y-119920710D01*
X138247056Y-121334924D01*
X138034924Y-121547056D01*
X136620710Y-120132842D01*
G37*
%TD.AperFunction*%
%TA.AperFunction,SMDPad,CuDef*%
G36*
X136267157Y-120486396D02*
G01*
X136479289Y-120274264D01*
X137893503Y-121688478D01*
X137681371Y-121900610D01*
X136267157Y-120486396D01*
G37*
%TD.AperFunction*%
%TA.AperFunction,SMDPad,CuDef*%
G36*
X135913603Y-120839949D02*
G01*
X136125735Y-120627817D01*
X137539949Y-122042031D01*
X137327817Y-122254163D01*
X135913603Y-120839949D01*
G37*
%TD.AperFunction*%
%TA.AperFunction,SMDPad,CuDef*%
G36*
X135560050Y-121193503D02*
G01*
X135772182Y-120981371D01*
X137186396Y-122395585D01*
X136974264Y-122607717D01*
X135560050Y-121193503D01*
G37*
%TD.AperFunction*%
%TA.AperFunction,SMDPad,CuDef*%
G36*
X135206497Y-121547056D02*
G01*
X135418629Y-121334924D01*
X136832843Y-122749138D01*
X136620711Y-122961270D01*
X135206497Y-121547056D01*
G37*
%TD.AperFunction*%
%TA.AperFunction,SMDPad,CuDef*%
G36*
X134852943Y-121900609D02*
G01*
X135065075Y-121688477D01*
X136479289Y-123102691D01*
X136267157Y-123314823D01*
X134852943Y-121900609D01*
G37*
%TD.AperFunction*%
%TA.AperFunction,SMDPad,CuDef*%
G36*
X134499390Y-122254163D02*
G01*
X134711522Y-122042031D01*
X136125736Y-123456245D01*
X135913604Y-123668377D01*
X134499390Y-122254163D01*
G37*
%TD.AperFunction*%
%TA.AperFunction,SMDPad,CuDef*%
G36*
X134145836Y-122607716D02*
G01*
X134357968Y-122395584D01*
X135772182Y-123809798D01*
X135560050Y-124021930D01*
X134145836Y-122607716D01*
G37*
%TD.AperFunction*%
%TA.AperFunction,SMDPad,CuDef*%
G36*
X133792283Y-122961270D02*
G01*
X134004415Y-122749138D01*
X135418629Y-124163352D01*
X135206497Y-124375484D01*
X133792283Y-122961270D01*
G37*
%TD.AperFunction*%
%TA.AperFunction,SMDPad,CuDef*%
G36*
X133438730Y-123314823D02*
G01*
X133650862Y-123102691D01*
X135065076Y-124516905D01*
X134852944Y-124729037D01*
X133438730Y-123314823D01*
G37*
%TD.AperFunction*%
%TA.AperFunction,SMDPad,CuDef*%
G36*
X133085176Y-123668376D02*
G01*
X133297308Y-123456244D01*
X134711522Y-124870458D01*
X134499390Y-125082590D01*
X133085176Y-123668376D01*
G37*
%TD.AperFunction*%
%TA.AperFunction,SMDPad,CuDef*%
G36*
X132731623Y-124021930D02*
G01*
X132943755Y-123809798D01*
X134357969Y-125224012D01*
X134145837Y-125436144D01*
X132731623Y-124021930D01*
G37*
%TD.AperFunction*%
D11*
X155920610Y-115534941D03*
X152114278Y-119911395D03*
X147527280Y-123461179D03*
X142335891Y-126047875D03*
X136739614Y-127572079D03*
X130953510Y-127975217D03*
X125199937Y-127241795D03*
X119700000Y-125400000D03*
X114665059Y-122520610D03*
X110288605Y-118714278D03*
X106738821Y-114127280D03*
X104152125Y-108935891D03*
X102627921Y-103339614D03*
X102224783Y-97553510D03*
X102958205Y-91799937D03*
X104800000Y-86300000D03*
X107679390Y-81265059D03*
X111485722Y-76888605D03*
X116072720Y-73338821D03*
X121264109Y-70752125D03*
X126860386Y-69227921D03*
X132646490Y-68824783D03*
X138400063Y-69558205D03*
X143900000Y-71400000D03*
X148934941Y-74279390D03*
X153311395Y-78085722D03*
X156861179Y-82672720D03*
X159447875Y-87864109D03*
X160972079Y-93460386D03*
X160641795Y-105000063D03*
D12*
X131500000Y-86000000D03*
X134000000Y-86000000D03*
D13*
X115100000Y-105450000D03*
X115100000Y-102950000D03*
%TA.AperFunction,SMDPad,CuDef*%
D10*
G36*
X140127729Y-123856155D02*
G01*
X139243845Y-122972271D01*
X140304505Y-121911611D01*
X141188389Y-122795495D01*
X140127729Y-123856155D01*
G37*
%TD.AperFunction*%
%TA.AperFunction,SMDPad,CuDef*%
G36*
X141895495Y-122088389D02*
G01*
X141011611Y-121204505D01*
X142072271Y-120143845D01*
X142956155Y-121027729D01*
X141895495Y-122088389D01*
G37*
%TD.AperFunction*%
%TA.AperFunction,SMDPad,CuDef*%
G36*
X155227729Y-96456155D02*
G01*
X154343845Y-95572271D01*
X155404505Y-94511611D01*
X156288389Y-95395495D01*
X155227729Y-96456155D01*
G37*
%TD.AperFunction*%
%TA.AperFunction,SMDPad,CuDef*%
G36*
X156995495Y-94688389D02*
G01*
X156111611Y-93804505D01*
X157172271Y-92743845D01*
X158056155Y-93627729D01*
X156995495Y-94688389D01*
G37*
%TD.AperFunction*%
%TA.AperFunction,ComponentPad*%
D14*
G36*
X150702082Y-95296051D02*
G01*
X149500000Y-96498133D01*
X148297918Y-95296051D01*
X149500000Y-94093969D01*
X150702082Y-95296051D01*
G37*
%TD.AperFunction*%
%TA.AperFunction,ComponentPad*%
G36*
G01*
X151897092Y-94101041D02*
X151897092Y-94101041D01*
G75*
G02*
X150695010Y-94101041I-601041J601041D01*
G01*
X150695010Y-94101041D01*
G75*
G02*
X150695010Y-92898959I601041J601041D01*
G01*
X150695010Y-92898959D01*
G75*
G02*
X151897092Y-92898959I601041J-601041D01*
G01*
X151897092Y-92898959D01*
G75*
G02*
X151897092Y-94101041I-601041J-601041D01*
G01*
G37*
%TD.AperFunction*%
%TA.AperFunction,ComponentPad*%
G36*
G01*
X153693143Y-92304990D02*
X153693143Y-92304990D01*
G75*
G02*
X152491061Y-92304990I-601041J601041D01*
G01*
X152491061Y-92304990D01*
G75*
G02*
X152491061Y-91102908I601041J601041D01*
G01*
X152491061Y-91102908D01*
G75*
G02*
X153693143Y-91102908I601041J-601041D01*
G01*
X153693143Y-91102908D01*
G75*
G02*
X153693143Y-92304990I-601041J-601041D01*
G01*
G37*
%TD.AperFunction*%
%TA.AperFunction,ComponentPad*%
G36*
G01*
X155489195Y-90508938D02*
X155489195Y-90508938D01*
G75*
G02*
X154287113Y-90508938I-601041J601041D01*
G01*
X154287113Y-90508938D01*
G75*
G02*
X154287113Y-89306856I601041J601041D01*
G01*
X154287113Y-89306856D01*
G75*
G02*
X155489195Y-89306856I601041J-601041D01*
G01*
X155489195Y-89306856D01*
G75*
G02*
X155489195Y-90508938I-601041J-601041D01*
G01*
G37*
%TD.AperFunction*%
%TA.AperFunction,ComponentPad*%
G36*
X150702082Y-106000000D02*
G01*
X149500000Y-107202082D01*
X148297918Y-106000000D01*
X149500000Y-104797918D01*
X150702082Y-106000000D01*
G37*
%TD.AperFunction*%
%TA.AperFunction,ComponentPad*%
G36*
G01*
X151897092Y-104804990D02*
X151897092Y-104804990D01*
G75*
G02*
X150695010Y-104804990I-601041J601041D01*
G01*
X150695010Y-104804990D01*
G75*
G02*
X150695010Y-103602908I601041J601041D01*
G01*
X150695010Y-103602908D01*
G75*
G02*
X151897092Y-103602908I601041J-601041D01*
G01*
X151897092Y-103602908D01*
G75*
G02*
X151897092Y-104804990I-601041J-601041D01*
G01*
G37*
%TD.AperFunction*%
%TA.AperFunction,ComponentPad*%
G36*
G01*
X153693143Y-103008939D02*
X153693143Y-103008939D01*
G75*
G02*
X152491061Y-103008939I-601041J601041D01*
G01*
X152491061Y-103008939D01*
G75*
G02*
X152491061Y-101806857I601041J601041D01*
G01*
X152491061Y-101806857D01*
G75*
G02*
X153693143Y-101806857I601041J-601041D01*
G01*
X153693143Y-101806857D01*
G75*
G02*
X153693143Y-103008939I-601041J-601041D01*
G01*
G37*
%TD.AperFunction*%
%TA.AperFunction,ComponentPad*%
G36*
G01*
X155489195Y-101212887D02*
X155489195Y-101212887D01*
G75*
G02*
X154287113Y-101212887I-601041J601041D01*
G01*
X154287113Y-101212887D01*
G75*
G02*
X154287113Y-100010805I601041J601041D01*
G01*
X154287113Y-100010805D01*
G75*
G02*
X155489195Y-100010805I601041J-601041D01*
G01*
X155489195Y-100010805D01*
G75*
G02*
X155489195Y-101212887I-601041J-601041D01*
G01*
G37*
%TD.AperFunction*%
D15*
X114640000Y-99500000D03*
X114640000Y-97600000D03*
X118060000Y-98550000D03*
%TA.AperFunction,SMDPad,CuDef*%
D10*
G36*
X128427729Y-108856155D02*
G01*
X127543845Y-107972271D01*
X128604505Y-106911611D01*
X129488389Y-107795495D01*
X128427729Y-108856155D01*
G37*
%TD.AperFunction*%
%TA.AperFunction,SMDPad,CuDef*%
G36*
X130195495Y-107088389D02*
G01*
X129311611Y-106204505D01*
X130372271Y-105143845D01*
X131256155Y-106027729D01*
X130195495Y-107088389D01*
G37*
%TD.AperFunction*%
%TA.AperFunction,SMDPad,CuDef*%
G36*
X124256155Y-122172271D02*
G01*
X123372271Y-123056155D01*
X122311611Y-121995495D01*
X123195495Y-121111611D01*
X124256155Y-122172271D01*
G37*
%TD.AperFunction*%
%TA.AperFunction,SMDPad,CuDef*%
G36*
X122488389Y-120404505D02*
G01*
X121604505Y-121288389D01*
X120543845Y-120227729D01*
X121427729Y-119343845D01*
X122488389Y-120404505D01*
G37*
%TD.AperFunction*%
D11*
X158800000Y-110500000D03*
D12*
X134000000Y-89500000D03*
X131500000Y-89500000D03*
D16*
X131700000Y-78950000D03*
%TA.AperFunction,ComponentPad*%
D14*
G36*
X145102082Y-87200000D02*
G01*
X143900000Y-88402082D01*
X142697918Y-87200000D01*
X143900000Y-85997918D01*
X145102082Y-87200000D01*
G37*
%TD.AperFunction*%
%TA.AperFunction,ComponentPad*%
G36*
G01*
X146297092Y-86004990D02*
X146297092Y-86004990D01*
G75*
G02*
X145095010Y-86004990I-601041J601041D01*
G01*
X145095010Y-86004990D01*
G75*
G02*
X145095010Y-84802908I601041J601041D01*
G01*
X145095010Y-84802908D01*
G75*
G02*
X146297092Y-84802908I601041J-601041D01*
G01*
X146297092Y-84802908D01*
G75*
G02*
X146297092Y-86004990I-601041J-601041D01*
G01*
G37*
%TD.AperFunction*%
%TA.AperFunction,SMDPad,CuDef*%
D10*
G36*
X141389949Y-88932234D02*
G01*
X142167766Y-89710051D01*
X141389949Y-90487868D01*
X140612132Y-89710051D01*
X141389949Y-88932234D01*
G37*
%TD.AperFunction*%
%TA.AperFunction,SMDPad,CuDef*%
G36*
X139410051Y-90912132D02*
G01*
X140187868Y-91689949D01*
X139410051Y-92467766D01*
X138632234Y-91689949D01*
X139410051Y-90912132D01*
G37*
%TD.AperFunction*%
D12*
X123850000Y-74300000D03*
X126350000Y-74300000D03*
X136850000Y-74300000D03*
X139350000Y-74300000D03*
X139100000Y-80500000D03*
X141600000Y-80500000D03*
X141650000Y-83900000D03*
X139150000Y-83900000D03*
%TA.AperFunction,SMDPad,CuDef*%
D10*
G36*
X148410051Y-91667766D02*
G01*
X147632234Y-90889949D01*
X148410051Y-90112132D01*
X149187868Y-90889949D01*
X148410051Y-91667766D01*
G37*
%TD.AperFunction*%
%TA.AperFunction,SMDPad,CuDef*%
G36*
X150389949Y-89687868D02*
G01*
X149612132Y-88910051D01*
X150389949Y-88132234D01*
X151167766Y-88910051D01*
X150389949Y-89687868D01*
G37*
%TD.AperFunction*%
%TA.AperFunction,ComponentPad*%
D14*
G36*
X150302082Y-82000000D02*
G01*
X149100000Y-83202082D01*
X147897918Y-82000000D01*
X149100000Y-80797918D01*
X150302082Y-82000000D01*
G37*
%TD.AperFunction*%
%TA.AperFunction,ComponentPad*%
G36*
G01*
X151497092Y-80804990D02*
X151497092Y-80804990D01*
G75*
G02*
X150295010Y-80804990I-601041J601041D01*
G01*
X150295010Y-80804990D01*
G75*
G02*
X150295010Y-79602908I601041J601041D01*
G01*
X150295010Y-79602908D01*
G75*
G02*
X151497092Y-79602908I601041J-601041D01*
G01*
X151497092Y-79602908D01*
G75*
G02*
X151497092Y-80804990I-601041J-601041D01*
G01*
G37*
%TD.AperFunction*%
%TA.AperFunction,SMDPad,CuDef*%
G36*
G01*
X119250000Y-106355000D02*
X119250000Y-106055000D01*
G75*
G02*
X119400000Y-105905000I150000J0D01*
G01*
X121050000Y-105905000D01*
G75*
G02*
X121200000Y-106055000I0J-150000D01*
G01*
X121200000Y-106355000D01*
G75*
G02*
X121050000Y-106505000I-150000J0D01*
G01*
X119400000Y-106505000D01*
G75*
G02*
X119250000Y-106355000I0J150000D01*
G01*
G37*
%TD.AperFunction*%
%TA.AperFunction,SMDPad,CuDef*%
G36*
G01*
X119250000Y-105085000D02*
X119250000Y-104785000D01*
G75*
G02*
X119400000Y-104635000I150000J0D01*
G01*
X121050000Y-104635000D01*
G75*
G02*
X121200000Y-104785000I0J-150000D01*
G01*
X121200000Y-105085000D01*
G75*
G02*
X121050000Y-105235000I-150000J0D01*
G01*
X119400000Y-105235000D01*
G75*
G02*
X119250000Y-105085000I0J150000D01*
G01*
G37*
%TD.AperFunction*%
%TA.AperFunction,SMDPad,CuDef*%
G36*
G01*
X119250000Y-103815000D02*
X119250000Y-103515000D01*
G75*
G02*
X119400000Y-103365000I150000J0D01*
G01*
X121050000Y-103365000D01*
G75*
G02*
X121200000Y-103515000I0J-150000D01*
G01*
X121200000Y-103815000D01*
G75*
G02*
X121050000Y-103965000I-150000J0D01*
G01*
X119400000Y-103965000D01*
G75*
G02*
X119250000Y-103815000I0J150000D01*
G01*
G37*
%TD.AperFunction*%
%TA.AperFunction,SMDPad,CuDef*%
G36*
G01*
X119250000Y-102545000D02*
X119250000Y-102245000D01*
G75*
G02*
X119400000Y-102095000I150000J0D01*
G01*
X121050000Y-102095000D01*
G75*
G02*
X121200000Y-102245000I0J-150000D01*
G01*
X121200000Y-102545000D01*
G75*
G02*
X121050000Y-102695000I-150000J0D01*
G01*
X119400000Y-102695000D01*
G75*
G02*
X119250000Y-102545000I0J150000D01*
G01*
G37*
%TD.AperFunction*%
%TA.AperFunction,SMDPad,CuDef*%
G36*
G01*
X124200000Y-102545000D02*
X124200000Y-102245000D01*
G75*
G02*
X124350000Y-102095000I150000J0D01*
G01*
X126000000Y-102095000D01*
G75*
G02*
X126150000Y-102245000I0J-150000D01*
G01*
X126150000Y-102545000D01*
G75*
G02*
X126000000Y-102695000I-150000J0D01*
G01*
X124350000Y-102695000D01*
G75*
G02*
X124200000Y-102545000I0J150000D01*
G01*
G37*
%TD.AperFunction*%
%TA.AperFunction,SMDPad,CuDef*%
G36*
G01*
X124200000Y-103815000D02*
X124200000Y-103515000D01*
G75*
G02*
X124350000Y-103365000I150000J0D01*
G01*
X126000000Y-103365000D01*
G75*
G02*
X126150000Y-103515000I0J-150000D01*
G01*
X126150000Y-103815000D01*
G75*
G02*
X126000000Y-103965000I-150000J0D01*
G01*
X124350000Y-103965000D01*
G75*
G02*
X124200000Y-103815000I0J150000D01*
G01*
G37*
%TD.AperFunction*%
%TA.AperFunction,SMDPad,CuDef*%
G36*
G01*
X124200000Y-105085000D02*
X124200000Y-104785000D01*
G75*
G02*
X124350000Y-104635000I150000J0D01*
G01*
X126000000Y-104635000D01*
G75*
G02*
X126150000Y-104785000I0J-150000D01*
G01*
X126150000Y-105085000D01*
G75*
G02*
X126000000Y-105235000I-150000J0D01*
G01*
X124350000Y-105235000D01*
G75*
G02*
X124200000Y-105085000I0J150000D01*
G01*
G37*
%TD.AperFunction*%
%TA.AperFunction,SMDPad,CuDef*%
G36*
G01*
X124200000Y-106355000D02*
X124200000Y-106055000D01*
G75*
G02*
X124350000Y-105905000I150000J0D01*
G01*
X126000000Y-105905000D01*
G75*
G02*
X126150000Y-106055000I0J-150000D01*
G01*
X126150000Y-106355000D01*
G75*
G02*
X126000000Y-106505000I-150000J0D01*
G01*
X124350000Y-106505000D01*
G75*
G02*
X124200000Y-106355000I0J150000D01*
G01*
G37*
%TD.AperFunction*%
D17*
X148000000Y-111400000D03*
X128300000Y-116100000D03*
X131700000Y-122800000D03*
X140300000Y-117400000D03*
X110300000Y-95800000D03*
X110300000Y-99400000D03*
X123100000Y-115500000D03*
X134750000Y-78750000D03*
X139100000Y-76100000D03*
X128600000Y-78800000D03*
X154000000Y-110600000D03*
X151200000Y-110600000D03*
X119100000Y-122000000D03*
X143500000Y-120000000D03*
X124400000Y-114100000D03*
X134300000Y-114900000D03*
X116100000Y-95800012D03*
X116124979Y-100800000D03*
X120500000Y-94700000D03*
X128100000Y-125400000D03*
X139800000Y-121200000D03*
X127400000Y-105400000D03*
X131600000Y-107200000D03*
X135900002Y-86000000D03*
X125550000Y-123500000D03*
X126400000Y-123900000D03*
X134600000Y-117300006D03*
X107600000Y-106400000D03*
X135500000Y-117600004D03*
X113099998Y-104800000D03*
X133700000Y-120200000D03*
X110600000Y-101100000D03*
X138400000Y-112100000D03*
X139300000Y-112399996D03*
X138700000Y-122100000D03*
X135200000Y-74300000D03*
X124200000Y-76300000D03*
X129300000Y-119300000D03*
X129800000Y-118300000D03*
X129384860Y-117564673D03*
X125000000Y-83000000D03*
X135200000Y-83500000D03*
X135700000Y-115900000D03*
X120900000Y-81800000D03*
X122500000Y-78500000D03*
X118250000Y-78750000D03*
X119750000Y-77500000D03*
X123500000Y-83500000D03*
X139500000Y-78500000D03*
X122900000Y-113800000D03*
D18*
X130200000Y-125256497D02*
X130200000Y-125800000D01*
X130000000Y-125056497D02*
X130200000Y-125256497D01*
X130610303Y-124446194D02*
X130000000Y-125056497D01*
X135489340Y-113203196D02*
X136392536Y-112300000D01*
X134792536Y-113900000D02*
X134100000Y-113900000D01*
X135489340Y-113203196D02*
X134792536Y-113900000D01*
X140216117Y-122883883D02*
X136900000Y-126200000D01*
X136900000Y-126200000D02*
X132364109Y-126200000D01*
X132364109Y-126200000D02*
X130787079Y-124622970D01*
X130787079Y-124622970D02*
X130610303Y-124446194D01*
X123985177Y-116385177D02*
X123399999Y-115799999D01*
X123399999Y-115799999D02*
X123100000Y-115500000D01*
X125307002Y-116385177D02*
X123985177Y-116385177D01*
X135666116Y-113026420D02*
X135673580Y-113026420D01*
X135666116Y-113026420D02*
X136692536Y-112000000D01*
X136692536Y-112000000D02*
X136800000Y-112000000D01*
D19*
X151800000Y-85400000D02*
X145696051Y-85403949D01*
D20*
X151200000Y-110600000D02*
X154000000Y-110600000D01*
D21*
X119524264Y-122000000D02*
X119100000Y-122000000D01*
X119832234Y-122000000D02*
X119524264Y-122000000D01*
X121516117Y-120316117D02*
X119832234Y-122000000D01*
D18*
X141983883Y-121116117D02*
X142383883Y-121116117D01*
X142383883Y-121116117D02*
X143500000Y-120000000D01*
X124400000Y-114100000D02*
X124400000Y-114771068D01*
X124400000Y-114771068D02*
X125660555Y-116031623D01*
X134724264Y-114900000D02*
X134300000Y-114900000D01*
X135206749Y-114900000D02*
X134724264Y-114900000D01*
X136196446Y-113910303D02*
X135206749Y-114900000D01*
X135842893Y-113556750D02*
X134499643Y-114900000D01*
X134499643Y-114900000D02*
X134300000Y-114900000D01*
D21*
X115100000Y-102850000D02*
X115100000Y-101225000D01*
X115100000Y-101225000D02*
X115525000Y-100800000D01*
X115525000Y-100800000D02*
X116100000Y-100800000D01*
X114800000Y-99500000D02*
X116100000Y-100800000D01*
X114640000Y-99500000D02*
X114800000Y-99500000D01*
X116100000Y-100800000D02*
X116124979Y-100800000D01*
D18*
X120075736Y-94700000D02*
X120500000Y-94700000D01*
X130256749Y-124092641D02*
X128949390Y-125400000D01*
X128524264Y-125400000D02*
X128100000Y-125400000D01*
X128949390Y-125400000D02*
X128524264Y-125400000D01*
X137964213Y-119850000D02*
X139314213Y-121200000D01*
X139375736Y-121200000D02*
X139800000Y-121200000D01*
X139314213Y-121200000D02*
X139375736Y-121200000D01*
D20*
X117200012Y-94700000D02*
X116100000Y-95800012D01*
X120500000Y-94700000D02*
X117200012Y-94700000D01*
X134000000Y-89500000D02*
X134000000Y-86000000D01*
D18*
X126595000Y-106205000D02*
X127400000Y-105400000D01*
X125175000Y-106205000D02*
X126595000Y-106205000D01*
X130516117Y-106116117D02*
X131600000Y-107200000D01*
X130283883Y-106116117D02*
X130516117Y-106116117D01*
D20*
X134000000Y-86000000D02*
X135900002Y-86000000D01*
D21*
X152278102Y-90889949D02*
X153092102Y-91703949D01*
X148410051Y-90889949D02*
X152278102Y-90889949D01*
X155100000Y-93711847D02*
X153092102Y-91703949D01*
X155100000Y-95400000D02*
X155100000Y-93711847D01*
D18*
X125550000Y-123500000D02*
X125700000Y-123350000D01*
X125700000Y-123350000D02*
X125700000Y-122992536D01*
X125700000Y-122992536D02*
X126827282Y-121865254D01*
X126827282Y-121865254D02*
X127428322Y-121264214D01*
X126400000Y-123900000D02*
X126400000Y-122964304D01*
X126400000Y-122964304D02*
X127482152Y-121882152D01*
X137474391Y-116874999D02*
X135025007Y-116874999D01*
X138317767Y-116031623D02*
X137474391Y-116874999D01*
X135025007Y-116874999D02*
X134899999Y-117000007D01*
X134899999Y-117000007D02*
X134600000Y-117300006D01*
X138671320Y-116385177D02*
X137456493Y-117600004D01*
X137456493Y-117600004D02*
X137399996Y-117600004D01*
X137399996Y-117600004D02*
X135500000Y-117600004D01*
X109200000Y-104800000D02*
X112675734Y-104800000D01*
X112675734Y-104800000D02*
X113099998Y-104800000D01*
X107600000Y-106400000D02*
X109200000Y-104800000D01*
X133999999Y-119900001D02*
X133700000Y-120200000D01*
X134399999Y-119500001D02*
X133999999Y-119900001D01*
X137610660Y-120203553D02*
X136907108Y-119500001D01*
X136907108Y-119500001D02*
X134399999Y-119500001D01*
X110600000Y-100965000D02*
X110600000Y-101100000D01*
X114640000Y-97600000D02*
X113965000Y-97600000D01*
X113965000Y-97600000D02*
X110600000Y-100965000D01*
X138400000Y-111600000D02*
X138400000Y-112100000D01*
X137900001Y-111100001D02*
X138400000Y-111600000D01*
X135471214Y-111100001D02*
X137900001Y-111100001D01*
X134428679Y-112142536D02*
X135471214Y-111100001D01*
X134075126Y-111788983D02*
X135264109Y-110600000D01*
X135264109Y-110600000D02*
X138124264Y-110600000D01*
X138124264Y-110600000D02*
X139300000Y-111775736D01*
X139300000Y-111775736D02*
X139300000Y-112399996D01*
X138275736Y-122100000D02*
X138700000Y-122100000D01*
X138092893Y-122100000D02*
X138275736Y-122100000D01*
X136903553Y-120910660D02*
X138092893Y-122100000D01*
D20*
X136850000Y-74300000D02*
X135200000Y-74300000D01*
X124650000Y-76300000D02*
X124200000Y-76300000D01*
X126400000Y-74300000D02*
X124650000Y-76300000D01*
D18*
X126615149Y-119248960D02*
X125837332Y-120026777D01*
X126864108Y-119000001D02*
X126615149Y-119248960D01*
X129000001Y-119000001D02*
X126864108Y-119000001D01*
X129300000Y-119300000D02*
X129000001Y-119000001D01*
X129375736Y-118300000D02*
X129800000Y-118300000D01*
X125660555Y-119496447D02*
X126857002Y-118300000D01*
X126857002Y-118300000D02*
X129375736Y-118300000D01*
X125307002Y-119142893D02*
X126885222Y-117564673D01*
X128960596Y-117564673D02*
X129384860Y-117564673D01*
X126885222Y-117564673D02*
X128960596Y-117564673D01*
X125000000Y-83000000D02*
X134700000Y-83000000D01*
X134700000Y-83000000D02*
X135200000Y-83500000D01*
X137433883Y-114794187D02*
X136328070Y-115900000D01*
X136328070Y-115900000D02*
X135700000Y-115900000D01*
X120900000Y-80100000D02*
X122500000Y-78500000D01*
X120900000Y-81800000D02*
X120900000Y-80100000D01*
X105600000Y-107100000D02*
X105600000Y-91400000D01*
X110800000Y-112300000D02*
X105600000Y-107100000D01*
X126878679Y-112300000D02*
X110800000Y-112300000D01*
X105600000Y-91400000D02*
X118250000Y-78750000D01*
X127958652Y-113379973D02*
X126878679Y-112300000D01*
X106100000Y-106900000D02*
X106100000Y-91824264D01*
X106100000Y-91824264D02*
X119750000Y-78174264D01*
X111000000Y-111800000D02*
X106100000Y-106900000D01*
X119750000Y-78174264D02*
X119750000Y-77500000D01*
X127085786Y-111800000D02*
X111000000Y-111800000D01*
X128312206Y-113026420D02*
X127085786Y-111800000D01*
X111336410Y-111300000D02*
X127292893Y-111300000D01*
X127292893Y-111300000D02*
X127688216Y-111695323D01*
X123500000Y-83500000D02*
X115500000Y-83500000D01*
X115500000Y-83500000D02*
X106600000Y-92400000D01*
X106600000Y-92400000D02*
X106600000Y-106563590D01*
X106600000Y-106563590D02*
X111336410Y-111300000D01*
X128665759Y-112672866D02*
X127688216Y-111695323D01*
D21*
X141389949Y-89710051D02*
X143900000Y-87200000D01*
X142450000Y-87200000D02*
X139150000Y-83900000D01*
X143900000Y-87200000D02*
X142450000Y-87200000D01*
X139150000Y-80550000D02*
X139100000Y-80500000D01*
X139150000Y-83900000D02*
X139150000Y-80550000D01*
X139100000Y-78900000D02*
X139500000Y-78500000D01*
X139100000Y-80500000D02*
X139100000Y-78900000D01*
D18*
X122900000Y-113800000D02*
X123900000Y-112800000D01*
X126671573Y-112800000D02*
X127605099Y-113733526D01*
X123900000Y-112800000D02*
X126671573Y-112800000D01*
X129428427Y-109900000D02*
X130433526Y-110905099D01*
X123920000Y-109900000D02*
X129428427Y-109900000D01*
X120225000Y-106205000D02*
X123920000Y-109900000D01*
D22*
X134497846Y-68596694D02*
X136641353Y-68869054D01*
X138759619Y-69295376D01*
X140841601Y-69873435D01*
X142876445Y-70600219D01*
X144853541Y-71471938D01*
X146762582Y-72484048D01*
X148593615Y-73631271D01*
X150337094Y-74907627D01*
X151983929Y-76306461D01*
X153525534Y-77820481D01*
X154953873Y-79441793D01*
X155315662Y-79917718D01*
X136924777Y-96400114D01*
X136674037Y-95794773D01*
X136072129Y-94893954D01*
X135306046Y-94127871D01*
X134405227Y-93525963D01*
X133404291Y-93111362D01*
X132341703Y-92900000D01*
X131258297Y-92900000D01*
X130779334Y-92995272D01*
X127570910Y-89786849D01*
X125670422Y-85375000D01*
X132747581Y-85375000D01*
X132747581Y-86625000D01*
X132757235Y-86723017D01*
X132785825Y-86817267D01*
X132832254Y-86904129D01*
X132894736Y-86980264D01*
X132970871Y-87042746D01*
X133057733Y-87089175D01*
X133125001Y-87109580D01*
X133125000Y-88390420D01*
X133057733Y-88410825D01*
X132970871Y-88457254D01*
X132894736Y-88519736D01*
X132832254Y-88595871D01*
X132785825Y-88682733D01*
X132757235Y-88776983D01*
X132747581Y-88875000D01*
X132747581Y-90125000D01*
X132757235Y-90223017D01*
X132785825Y-90317267D01*
X132832254Y-90404129D01*
X132894736Y-90480264D01*
X132970871Y-90542746D01*
X133057733Y-90589175D01*
X133151983Y-90617765D01*
X133250000Y-90627419D01*
X134750000Y-90627419D01*
X134848017Y-90617765D01*
X134942267Y-90589175D01*
X135029129Y-90542746D01*
X135105264Y-90480264D01*
X135167746Y-90404129D01*
X135214175Y-90317267D01*
X135242765Y-90223017D01*
X135252419Y-90125000D01*
X135252419Y-88875000D01*
X135242765Y-88776983D01*
X135214175Y-88682733D01*
X135167746Y-88595871D01*
X135105264Y-88519736D01*
X135029129Y-88457254D01*
X134942267Y-88410825D01*
X134875000Y-88390420D01*
X134875000Y-87109580D01*
X134942267Y-87089175D01*
X135029129Y-87042746D01*
X135105264Y-86980264D01*
X135167746Y-86904129D01*
X135183316Y-86875000D01*
X135942981Y-86875000D01*
X136071532Y-86862339D01*
X136236470Y-86812305D01*
X136388478Y-86731056D01*
X136521714Y-86621712D01*
X136631058Y-86488476D01*
X136712307Y-86336468D01*
X136762341Y-86171530D01*
X136779235Y-86000000D01*
X136762341Y-85828470D01*
X136712307Y-85663532D01*
X136631058Y-85511524D01*
X136521714Y-85378288D01*
X136388478Y-85268944D01*
X136236470Y-85187695D01*
X136071532Y-85137661D01*
X135942981Y-85125000D01*
X135183316Y-85125000D01*
X135167746Y-85095871D01*
X135105264Y-85019736D01*
X135029129Y-84957254D01*
X134942267Y-84910825D01*
X134848017Y-84882235D01*
X134750000Y-84872581D01*
X133250000Y-84872581D01*
X133151983Y-84882235D01*
X133057733Y-84910825D01*
X132970871Y-84957254D01*
X132894736Y-85019736D01*
X132832254Y-85095871D01*
X132785825Y-85182733D01*
X132757235Y-85276983D01*
X132747581Y-85375000D01*
X125670422Y-85375000D01*
X124991960Y-83800000D01*
X125078793Y-83800000D01*
X125233351Y-83769257D01*
X125378942Y-83708951D01*
X125504584Y-83625000D01*
X134409191Y-83625000D01*
X134430743Y-83733351D01*
X134491049Y-83878942D01*
X134578599Y-84009970D01*
X134690030Y-84121401D01*
X134821058Y-84208951D01*
X134966649Y-84269257D01*
X135121207Y-84300000D01*
X135278793Y-84300000D01*
X135433351Y-84269257D01*
X135578942Y-84208951D01*
X135709970Y-84121401D01*
X135821401Y-84009970D01*
X135908951Y-83878942D01*
X135969257Y-83733351D01*
X136000000Y-83578793D01*
X136000000Y-83421207D01*
X135969257Y-83266649D01*
X135908951Y-83121058D01*
X135821401Y-82990030D01*
X135709970Y-82878599D01*
X135578942Y-82791049D01*
X135433351Y-82730743D01*
X135285146Y-82701264D01*
X135163658Y-82579776D01*
X135144080Y-82555920D01*
X135048911Y-82477817D01*
X134940334Y-82419781D01*
X134822521Y-82384043D01*
X134730704Y-82375000D01*
X134730694Y-82375000D01*
X134700000Y-82371977D01*
X134669306Y-82375000D01*
X125504584Y-82375000D01*
X125378942Y-82291049D01*
X125233351Y-82230743D01*
X125078793Y-82200000D01*
X124921207Y-82200000D01*
X124766649Y-82230743D01*
X124621058Y-82291049D01*
X124490030Y-82378599D01*
X124412893Y-82455736D01*
X123301191Y-79875000D01*
X137847581Y-79875000D01*
X137847581Y-81125000D01*
X137857235Y-81223017D01*
X137885825Y-81317267D01*
X137932254Y-81404129D01*
X137994736Y-81480264D01*
X138070871Y-81542746D01*
X138150001Y-81585042D01*
X138150000Y-82841684D01*
X138120871Y-82857254D01*
X138044736Y-82919736D01*
X137982254Y-82995871D01*
X137935825Y-83082733D01*
X137907235Y-83176983D01*
X137897581Y-83275000D01*
X137897581Y-84525000D01*
X137907235Y-84623017D01*
X137935825Y-84717267D01*
X137982254Y-84804129D01*
X138044736Y-84880264D01*
X138120871Y-84942746D01*
X138207733Y-84989175D01*
X138301983Y-85017765D01*
X138400000Y-85027419D01*
X138863207Y-85027419D01*
X141708160Y-87872374D01*
X141739472Y-87910528D01*
X141759128Y-87926659D01*
X141226458Y-88459330D01*
X141197682Y-88468059D01*
X141110820Y-88514488D01*
X141034685Y-88576970D01*
X140256868Y-89354787D01*
X140194386Y-89430922D01*
X140147957Y-89517784D01*
X140119367Y-89612034D01*
X140109713Y-89710051D01*
X140119367Y-89808068D01*
X140147957Y-89902318D01*
X140194386Y-89989180D01*
X140256868Y-90065315D01*
X141034685Y-90843132D01*
X141110820Y-90905614D01*
X141197682Y-90952043D01*
X141291932Y-90980633D01*
X141389949Y-90990287D01*
X141487966Y-90980633D01*
X141582216Y-90952043D01*
X141669078Y-90905614D01*
X141745213Y-90843132D01*
X142523030Y-90065315D01*
X142585512Y-89989180D01*
X142631941Y-89902318D01*
X142640670Y-89873542D01*
X143668778Y-88845435D01*
X143707733Y-88866257D01*
X143801983Y-88894847D01*
X143900000Y-88904501D01*
X143998017Y-88894847D01*
X144092267Y-88866257D01*
X144179129Y-88819828D01*
X144255264Y-88757346D01*
X145457346Y-87555264D01*
X145519828Y-87479129D01*
X145566257Y-87392267D01*
X145594847Y-87298017D01*
X145604501Y-87200000D01*
X145594847Y-87101983D01*
X145566257Y-87007733D01*
X145519828Y-86920871D01*
X145457346Y-86844736D01*
X144255264Y-85642654D01*
X144179129Y-85580172D01*
X144092267Y-85533743D01*
X143998017Y-85505153D01*
X143900000Y-85495499D01*
X143801983Y-85505153D01*
X143707733Y-85533743D01*
X143620871Y-85580172D01*
X143544736Y-85642654D01*
X142987390Y-86200000D01*
X142864214Y-86200000D01*
X140402419Y-83738207D01*
X140402419Y-83275000D01*
X140392765Y-83176983D01*
X140364175Y-83082733D01*
X140317746Y-82995871D01*
X140255264Y-82919736D01*
X140179129Y-82857254D01*
X140150000Y-82841684D01*
X140150000Y-82000000D01*
X147395499Y-82000000D01*
X147405153Y-82098017D01*
X147433743Y-82192267D01*
X147480172Y-82279129D01*
X147542654Y-82355264D01*
X148744736Y-83557346D01*
X148820871Y-83619828D01*
X148907733Y-83666257D01*
X149001983Y-83694847D01*
X149100000Y-83704501D01*
X149198017Y-83694847D01*
X149292267Y-83666257D01*
X149379129Y-83619828D01*
X149455264Y-83557346D01*
X150657346Y-82355264D01*
X150719828Y-82279129D01*
X150766257Y-82192267D01*
X150794847Y-82098017D01*
X150804501Y-82000000D01*
X150794847Y-81901983D01*
X150766257Y-81807733D01*
X150719828Y-81720871D01*
X150657346Y-81644736D01*
X150517760Y-81505150D01*
X150763088Y-81553949D01*
X151029014Y-81553949D01*
X151289831Y-81502069D01*
X151535516Y-81400303D01*
X151756626Y-81252562D01*
X151944664Y-81064524D01*
X152092405Y-80843414D01*
X152194171Y-80597729D01*
X152246051Y-80336912D01*
X152246051Y-80070986D01*
X152194171Y-79810169D01*
X152092405Y-79564484D01*
X151944664Y-79343374D01*
X151756626Y-79155336D01*
X151535516Y-79007595D01*
X151289831Y-78905829D01*
X151029014Y-78853949D01*
X150763088Y-78853949D01*
X150502271Y-78905829D01*
X150256586Y-79007595D01*
X150035476Y-79155336D01*
X149847438Y-79343374D01*
X149699697Y-79564484D01*
X149597931Y-79810169D01*
X149546051Y-80070986D01*
X149546051Y-80336912D01*
X149594850Y-80582240D01*
X149455264Y-80442654D01*
X149379129Y-80380172D01*
X149292267Y-80333743D01*
X149198017Y-80305153D01*
X149100000Y-80295499D01*
X149001983Y-80305153D01*
X148907733Y-80333743D01*
X148820871Y-80380172D01*
X148744736Y-80442654D01*
X147542654Y-81644736D01*
X147480172Y-81720871D01*
X147433743Y-81807733D01*
X147405153Y-81901983D01*
X147395499Y-82000000D01*
X140150000Y-82000000D01*
X140150000Y-81525618D01*
X140205264Y-81480264D01*
X140267746Y-81404129D01*
X140314175Y-81317267D01*
X140342765Y-81223017D01*
X140352419Y-81125000D01*
X140352419Y-79875000D01*
X140342765Y-79776983D01*
X140314175Y-79682733D01*
X140267746Y-79595871D01*
X140205264Y-79519736D01*
X140129129Y-79457254D01*
X140100000Y-79441684D01*
X140100000Y-79314212D01*
X140241839Y-79172373D01*
X140335491Y-79058258D01*
X140428348Y-78884535D01*
X140485529Y-78696035D01*
X140504838Y-78500001D01*
X140485529Y-78303967D01*
X140428348Y-78115466D01*
X140335491Y-77941743D01*
X140210527Y-77789473D01*
X140058257Y-77664509D01*
X139884534Y-77571652D01*
X139696033Y-77514471D01*
X139499999Y-77495162D01*
X139303965Y-77514471D01*
X139115465Y-77571652D01*
X138941742Y-77664509D01*
X138827627Y-77758161D01*
X138427633Y-78158155D01*
X138389473Y-78189472D01*
X138264509Y-78341742D01*
X138245408Y-78377478D01*
X138171651Y-78515466D01*
X138114470Y-78703966D01*
X138095162Y-78900000D01*
X138100001Y-78949130D01*
X138100001Y-79441684D01*
X138070871Y-79457254D01*
X137994736Y-79519736D01*
X137932254Y-79595871D01*
X137885825Y-79682733D01*
X137857235Y-79776983D01*
X137847581Y-79875000D01*
X123301191Y-79875000D01*
X122984030Y-79138734D01*
X123009970Y-79121401D01*
X123121401Y-79009970D01*
X123208951Y-78878942D01*
X123269257Y-78733351D01*
X123300000Y-78578793D01*
X123300000Y-78421207D01*
X123269257Y-78266649D01*
X123208951Y-78121058D01*
X123121401Y-77990030D01*
X123009970Y-77878599D01*
X122878942Y-77791049D01*
X122733351Y-77730743D01*
X122578793Y-77700000D01*
X122421207Y-77700000D01*
X122368761Y-77710432D01*
X121761191Y-76300000D01*
X123320767Y-76300000D01*
X123337661Y-76471530D01*
X123387695Y-76636468D01*
X123468944Y-76788476D01*
X123578288Y-76921712D01*
X123711524Y-77031056D01*
X123863532Y-77112305D01*
X124028470Y-77162339D01*
X124157021Y-77175000D01*
X124636185Y-77175000D01*
X124708485Y-77177286D01*
X124764760Y-77167930D01*
X124821530Y-77162339D01*
X124849588Y-77153828D01*
X124878512Y-77149019D01*
X124931878Y-77128865D01*
X124986468Y-77112305D01*
X125012330Y-77098482D01*
X125039756Y-77088124D01*
X125088151Y-77057955D01*
X125138476Y-77031056D01*
X125161150Y-77012448D01*
X125186022Y-76996943D01*
X125227599Y-76957915D01*
X125271712Y-76921712D01*
X125317625Y-76865767D01*
X126576180Y-75427419D01*
X127100000Y-75427419D01*
X127198017Y-75417765D01*
X127292267Y-75389175D01*
X127379129Y-75342746D01*
X127455264Y-75280264D01*
X127517746Y-75204129D01*
X127564175Y-75117267D01*
X127592765Y-75023017D01*
X127602419Y-74925000D01*
X127602419Y-74300000D01*
X134320767Y-74300000D01*
X134337661Y-74471530D01*
X134387695Y-74636468D01*
X134468944Y-74788476D01*
X134578288Y-74921712D01*
X134711524Y-75031056D01*
X134863532Y-75112305D01*
X135028470Y-75162339D01*
X135157021Y-75175000D01*
X135666684Y-75175000D01*
X135682254Y-75204129D01*
X135744736Y-75280264D01*
X135820871Y-75342746D01*
X135907733Y-75389175D01*
X136001983Y-75417765D01*
X136100000Y-75427419D01*
X137600000Y-75427419D01*
X137698017Y-75417765D01*
X137792267Y-75389175D01*
X137879129Y-75342746D01*
X137955264Y-75280264D01*
X138017746Y-75204129D01*
X138064175Y-75117267D01*
X138092765Y-75023017D01*
X138102419Y-74925000D01*
X138102419Y-73675000D01*
X138092765Y-73576983D01*
X138064175Y-73482733D01*
X138017746Y-73395871D01*
X137955264Y-73319736D01*
X137879129Y-73257254D01*
X137792267Y-73210825D01*
X137698017Y-73182235D01*
X137600000Y-73172581D01*
X136100000Y-73172581D01*
X136001983Y-73182235D01*
X135907733Y-73210825D01*
X135820871Y-73257254D01*
X135744736Y-73319736D01*
X135682254Y-73395871D01*
X135666684Y-73425000D01*
X135157021Y-73425000D01*
X135028470Y-73437661D01*
X134863532Y-73487695D01*
X134711524Y-73568944D01*
X134578288Y-73678288D01*
X134468944Y-73811524D01*
X134387695Y-73963532D01*
X134337661Y-74128470D01*
X134320767Y-74300000D01*
X127602419Y-74300000D01*
X127602419Y-73675000D01*
X127592765Y-73576983D01*
X127564175Y-73482733D01*
X127517746Y-73395871D01*
X127455264Y-73319736D01*
X127379129Y-73257254D01*
X127292267Y-73210825D01*
X127198017Y-73182235D01*
X127100000Y-73172581D01*
X125600000Y-73172581D01*
X125501983Y-73182235D01*
X125407733Y-73210825D01*
X125320871Y-73257254D01*
X125244736Y-73319736D01*
X125182254Y-73395871D01*
X125135825Y-73482733D01*
X125107235Y-73576983D01*
X125097581Y-73675000D01*
X125097581Y-74459710D01*
X124252953Y-75425000D01*
X124157021Y-75425000D01*
X124028470Y-75437661D01*
X123863532Y-75487695D01*
X123711524Y-75568944D01*
X123578288Y-75678288D01*
X123468944Y-75811524D01*
X123387695Y-75963532D01*
X123337661Y-76128470D01*
X123320767Y-76300000D01*
X121761191Y-76300000D01*
X119527627Y-71114942D01*
X119727137Y-71018229D01*
X121734415Y-70218456D01*
X123794171Y-69565608D01*
X125895665Y-69063090D01*
X128027942Y-68713521D01*
X130179884Y-68518724D01*
X132340273Y-68479713D01*
X134497846Y-68596694D01*
%TA.AperFunction,Conductor*%
D23*
G36*
X134497846Y-68596694D02*
G01*
X136641353Y-68869054D01*
X138759619Y-69295376D01*
X140841601Y-69873435D01*
X142876445Y-70600219D01*
X144853541Y-71471938D01*
X146762582Y-72484048D01*
X148593615Y-73631271D01*
X150337094Y-74907627D01*
X151983929Y-76306461D01*
X153525534Y-77820481D01*
X154953873Y-79441793D01*
X155315662Y-79917718D01*
X136924777Y-96400114D01*
X136674037Y-95794773D01*
X136072129Y-94893954D01*
X135306046Y-94127871D01*
X134405227Y-93525963D01*
X133404291Y-93111362D01*
X132341703Y-92900000D01*
X131258297Y-92900000D01*
X130779334Y-92995272D01*
X127570910Y-89786849D01*
X125670422Y-85375000D01*
X132747581Y-85375000D01*
X132747581Y-86625000D01*
X132757235Y-86723017D01*
X132785825Y-86817267D01*
X132832254Y-86904129D01*
X132894736Y-86980264D01*
X132970871Y-87042746D01*
X133057733Y-87089175D01*
X133125001Y-87109580D01*
X133125000Y-88390420D01*
X133057733Y-88410825D01*
X132970871Y-88457254D01*
X132894736Y-88519736D01*
X132832254Y-88595871D01*
X132785825Y-88682733D01*
X132757235Y-88776983D01*
X132747581Y-88875000D01*
X132747581Y-90125000D01*
X132757235Y-90223017D01*
X132785825Y-90317267D01*
X132832254Y-90404129D01*
X132894736Y-90480264D01*
X132970871Y-90542746D01*
X133057733Y-90589175D01*
X133151983Y-90617765D01*
X133250000Y-90627419D01*
X134750000Y-90627419D01*
X134848017Y-90617765D01*
X134942267Y-90589175D01*
X135029129Y-90542746D01*
X135105264Y-90480264D01*
X135167746Y-90404129D01*
X135214175Y-90317267D01*
X135242765Y-90223017D01*
X135252419Y-90125000D01*
X135252419Y-88875000D01*
X135242765Y-88776983D01*
X135214175Y-88682733D01*
X135167746Y-88595871D01*
X135105264Y-88519736D01*
X135029129Y-88457254D01*
X134942267Y-88410825D01*
X134875000Y-88390420D01*
X134875000Y-87109580D01*
X134942267Y-87089175D01*
X135029129Y-87042746D01*
X135105264Y-86980264D01*
X135167746Y-86904129D01*
X135183316Y-86875000D01*
X135942981Y-86875000D01*
X136071532Y-86862339D01*
X136236470Y-86812305D01*
X136388478Y-86731056D01*
X136521714Y-86621712D01*
X136631058Y-86488476D01*
X136712307Y-86336468D01*
X136762341Y-86171530D01*
X136779235Y-86000000D01*
X136762341Y-85828470D01*
X136712307Y-85663532D01*
X136631058Y-85511524D01*
X136521714Y-85378288D01*
X136388478Y-85268944D01*
X136236470Y-85187695D01*
X136071532Y-85137661D01*
X135942981Y-85125000D01*
X135183316Y-85125000D01*
X135167746Y-85095871D01*
X135105264Y-85019736D01*
X135029129Y-84957254D01*
X134942267Y-84910825D01*
X134848017Y-84882235D01*
X134750000Y-84872581D01*
X133250000Y-84872581D01*
X133151983Y-84882235D01*
X133057733Y-84910825D01*
X132970871Y-84957254D01*
X132894736Y-85019736D01*
X132832254Y-85095871D01*
X132785825Y-85182733D01*
X132757235Y-85276983D01*
X132747581Y-85375000D01*
X125670422Y-85375000D01*
X124991960Y-83800000D01*
X125078793Y-83800000D01*
X125233351Y-83769257D01*
X125378942Y-83708951D01*
X125504584Y-83625000D01*
X134409191Y-83625000D01*
X134430743Y-83733351D01*
X134491049Y-83878942D01*
X134578599Y-84009970D01*
X134690030Y-84121401D01*
X134821058Y-84208951D01*
X134966649Y-84269257D01*
X135121207Y-84300000D01*
X135278793Y-84300000D01*
X135433351Y-84269257D01*
X135578942Y-84208951D01*
X135709970Y-84121401D01*
X135821401Y-84009970D01*
X135908951Y-83878942D01*
X135969257Y-83733351D01*
X136000000Y-83578793D01*
X136000000Y-83421207D01*
X135969257Y-83266649D01*
X135908951Y-83121058D01*
X135821401Y-82990030D01*
X135709970Y-82878599D01*
X135578942Y-82791049D01*
X135433351Y-82730743D01*
X135285146Y-82701264D01*
X135163658Y-82579776D01*
X135144080Y-82555920D01*
X135048911Y-82477817D01*
X134940334Y-82419781D01*
X134822521Y-82384043D01*
X134730704Y-82375000D01*
X134730694Y-82375000D01*
X134700000Y-82371977D01*
X134669306Y-82375000D01*
X125504584Y-82375000D01*
X125378942Y-82291049D01*
X125233351Y-82230743D01*
X125078793Y-82200000D01*
X124921207Y-82200000D01*
X124766649Y-82230743D01*
X124621058Y-82291049D01*
X124490030Y-82378599D01*
X124412893Y-82455736D01*
X123301191Y-79875000D01*
X137847581Y-79875000D01*
X137847581Y-81125000D01*
X137857235Y-81223017D01*
X137885825Y-81317267D01*
X137932254Y-81404129D01*
X137994736Y-81480264D01*
X138070871Y-81542746D01*
X138150001Y-81585042D01*
X138150000Y-82841684D01*
X138120871Y-82857254D01*
X138044736Y-82919736D01*
X137982254Y-82995871D01*
X137935825Y-83082733D01*
X137907235Y-83176983D01*
X137897581Y-83275000D01*
X137897581Y-84525000D01*
X137907235Y-84623017D01*
X137935825Y-84717267D01*
X137982254Y-84804129D01*
X138044736Y-84880264D01*
X138120871Y-84942746D01*
X138207733Y-84989175D01*
X138301983Y-85017765D01*
X138400000Y-85027419D01*
X138863207Y-85027419D01*
X141708160Y-87872374D01*
X141739472Y-87910528D01*
X141759128Y-87926659D01*
X141226458Y-88459330D01*
X141197682Y-88468059D01*
X141110820Y-88514488D01*
X141034685Y-88576970D01*
X140256868Y-89354787D01*
X140194386Y-89430922D01*
X140147957Y-89517784D01*
X140119367Y-89612034D01*
X140109713Y-89710051D01*
X140119367Y-89808068D01*
X140147957Y-89902318D01*
X140194386Y-89989180D01*
X140256868Y-90065315D01*
X141034685Y-90843132D01*
X141110820Y-90905614D01*
X141197682Y-90952043D01*
X141291932Y-90980633D01*
X141389949Y-90990287D01*
X141487966Y-90980633D01*
X141582216Y-90952043D01*
X141669078Y-90905614D01*
X141745213Y-90843132D01*
X142523030Y-90065315D01*
X142585512Y-89989180D01*
X142631941Y-89902318D01*
X142640670Y-89873542D01*
X143668778Y-88845435D01*
X143707733Y-88866257D01*
X143801983Y-88894847D01*
X143900000Y-88904501D01*
X143998017Y-88894847D01*
X144092267Y-88866257D01*
X144179129Y-88819828D01*
X144255264Y-88757346D01*
X145457346Y-87555264D01*
X145519828Y-87479129D01*
X145566257Y-87392267D01*
X145594847Y-87298017D01*
X145604501Y-87200000D01*
X145594847Y-87101983D01*
X145566257Y-87007733D01*
X145519828Y-86920871D01*
X145457346Y-86844736D01*
X144255264Y-85642654D01*
X144179129Y-85580172D01*
X144092267Y-85533743D01*
X143998017Y-85505153D01*
X143900000Y-85495499D01*
X143801983Y-85505153D01*
X143707733Y-85533743D01*
X143620871Y-85580172D01*
X143544736Y-85642654D01*
X142987390Y-86200000D01*
X142864214Y-86200000D01*
X140402419Y-83738207D01*
X140402419Y-83275000D01*
X140392765Y-83176983D01*
X140364175Y-83082733D01*
X140317746Y-82995871D01*
X140255264Y-82919736D01*
X140179129Y-82857254D01*
X140150000Y-82841684D01*
X140150000Y-82000000D01*
X147395499Y-82000000D01*
X147405153Y-82098017D01*
X147433743Y-82192267D01*
X147480172Y-82279129D01*
X147542654Y-82355264D01*
X148744736Y-83557346D01*
X148820871Y-83619828D01*
X148907733Y-83666257D01*
X149001983Y-83694847D01*
X149100000Y-83704501D01*
X149198017Y-83694847D01*
X149292267Y-83666257D01*
X149379129Y-83619828D01*
X149455264Y-83557346D01*
X150657346Y-82355264D01*
X150719828Y-82279129D01*
X150766257Y-82192267D01*
X150794847Y-82098017D01*
X150804501Y-82000000D01*
X150794847Y-81901983D01*
X150766257Y-81807733D01*
X150719828Y-81720871D01*
X150657346Y-81644736D01*
X150517760Y-81505150D01*
X150763088Y-81553949D01*
X151029014Y-81553949D01*
X151289831Y-81502069D01*
X151535516Y-81400303D01*
X151756626Y-81252562D01*
X151944664Y-81064524D01*
X152092405Y-80843414D01*
X152194171Y-80597729D01*
X152246051Y-80336912D01*
X152246051Y-80070986D01*
X152194171Y-79810169D01*
X152092405Y-79564484D01*
X151944664Y-79343374D01*
X151756626Y-79155336D01*
X151535516Y-79007595D01*
X151289831Y-78905829D01*
X151029014Y-78853949D01*
X150763088Y-78853949D01*
X150502271Y-78905829D01*
X150256586Y-79007595D01*
X150035476Y-79155336D01*
X149847438Y-79343374D01*
X149699697Y-79564484D01*
X149597931Y-79810169D01*
X149546051Y-80070986D01*
X149546051Y-80336912D01*
X149594850Y-80582240D01*
X149455264Y-80442654D01*
X149379129Y-80380172D01*
X149292267Y-80333743D01*
X149198017Y-80305153D01*
X149100000Y-80295499D01*
X149001983Y-80305153D01*
X148907733Y-80333743D01*
X148820871Y-80380172D01*
X148744736Y-80442654D01*
X147542654Y-81644736D01*
X147480172Y-81720871D01*
X147433743Y-81807733D01*
X147405153Y-81901983D01*
X147395499Y-82000000D01*
X140150000Y-82000000D01*
X140150000Y-81525618D01*
X140205264Y-81480264D01*
X140267746Y-81404129D01*
X140314175Y-81317267D01*
X140342765Y-81223017D01*
X140352419Y-81125000D01*
X140352419Y-79875000D01*
X140342765Y-79776983D01*
X140314175Y-79682733D01*
X140267746Y-79595871D01*
X140205264Y-79519736D01*
X140129129Y-79457254D01*
X140100000Y-79441684D01*
X140100000Y-79314212D01*
X140241839Y-79172373D01*
X140335491Y-79058258D01*
X140428348Y-78884535D01*
X140485529Y-78696035D01*
X140504838Y-78500001D01*
X140485529Y-78303967D01*
X140428348Y-78115466D01*
X140335491Y-77941743D01*
X140210527Y-77789473D01*
X140058257Y-77664509D01*
X139884534Y-77571652D01*
X139696033Y-77514471D01*
X139499999Y-77495162D01*
X139303965Y-77514471D01*
X139115465Y-77571652D01*
X138941742Y-77664509D01*
X138827627Y-77758161D01*
X138427633Y-78158155D01*
X138389473Y-78189472D01*
X138264509Y-78341742D01*
X138245408Y-78377478D01*
X138171651Y-78515466D01*
X138114470Y-78703966D01*
X138095162Y-78900000D01*
X138100001Y-78949130D01*
X138100001Y-79441684D01*
X138070871Y-79457254D01*
X137994736Y-79519736D01*
X137932254Y-79595871D01*
X137885825Y-79682733D01*
X137857235Y-79776983D01*
X137847581Y-79875000D01*
X123301191Y-79875000D01*
X122984030Y-79138734D01*
X123009970Y-79121401D01*
X123121401Y-79009970D01*
X123208951Y-78878942D01*
X123269257Y-78733351D01*
X123300000Y-78578793D01*
X123300000Y-78421207D01*
X123269257Y-78266649D01*
X123208951Y-78121058D01*
X123121401Y-77990030D01*
X123009970Y-77878599D01*
X122878942Y-77791049D01*
X122733351Y-77730743D01*
X122578793Y-77700000D01*
X122421207Y-77700000D01*
X122368761Y-77710432D01*
X121761191Y-76300000D01*
X123320767Y-76300000D01*
X123337661Y-76471530D01*
X123387695Y-76636468D01*
X123468944Y-76788476D01*
X123578288Y-76921712D01*
X123711524Y-77031056D01*
X123863532Y-77112305D01*
X124028470Y-77162339D01*
X124157021Y-77175000D01*
X124636185Y-77175000D01*
X124708485Y-77177286D01*
X124764760Y-77167930D01*
X124821530Y-77162339D01*
X124849588Y-77153828D01*
X124878512Y-77149019D01*
X124931878Y-77128865D01*
X124986468Y-77112305D01*
X125012330Y-77098482D01*
X125039756Y-77088124D01*
X125088151Y-77057955D01*
X125138476Y-77031056D01*
X125161150Y-77012448D01*
X125186022Y-76996943D01*
X125227599Y-76957915D01*
X125271712Y-76921712D01*
X125317625Y-76865767D01*
X126576180Y-75427419D01*
X127100000Y-75427419D01*
X127198017Y-75417765D01*
X127292267Y-75389175D01*
X127379129Y-75342746D01*
X127455264Y-75280264D01*
X127517746Y-75204129D01*
X127564175Y-75117267D01*
X127592765Y-75023017D01*
X127602419Y-74925000D01*
X127602419Y-74300000D01*
X134320767Y-74300000D01*
X134337661Y-74471530D01*
X134387695Y-74636468D01*
X134468944Y-74788476D01*
X134578288Y-74921712D01*
X134711524Y-75031056D01*
X134863532Y-75112305D01*
X135028470Y-75162339D01*
X135157021Y-75175000D01*
X135666684Y-75175000D01*
X135682254Y-75204129D01*
X135744736Y-75280264D01*
X135820871Y-75342746D01*
X135907733Y-75389175D01*
X136001983Y-75417765D01*
X136100000Y-75427419D01*
X137600000Y-75427419D01*
X137698017Y-75417765D01*
X137792267Y-75389175D01*
X137879129Y-75342746D01*
X137955264Y-75280264D01*
X138017746Y-75204129D01*
X138064175Y-75117267D01*
X138092765Y-75023017D01*
X138102419Y-74925000D01*
X138102419Y-73675000D01*
X138092765Y-73576983D01*
X138064175Y-73482733D01*
X138017746Y-73395871D01*
X137955264Y-73319736D01*
X137879129Y-73257254D01*
X137792267Y-73210825D01*
X137698017Y-73182235D01*
X137600000Y-73172581D01*
X136100000Y-73172581D01*
X136001983Y-73182235D01*
X135907733Y-73210825D01*
X135820871Y-73257254D01*
X135744736Y-73319736D01*
X135682254Y-73395871D01*
X135666684Y-73425000D01*
X135157021Y-73425000D01*
X135028470Y-73437661D01*
X134863532Y-73487695D01*
X134711524Y-73568944D01*
X134578288Y-73678288D01*
X134468944Y-73811524D01*
X134387695Y-73963532D01*
X134337661Y-74128470D01*
X134320767Y-74300000D01*
X127602419Y-74300000D01*
X127602419Y-73675000D01*
X127592765Y-73576983D01*
X127564175Y-73482733D01*
X127517746Y-73395871D01*
X127455264Y-73319736D01*
X127379129Y-73257254D01*
X127292267Y-73210825D01*
X127198017Y-73182235D01*
X127100000Y-73172581D01*
X125600000Y-73172581D01*
X125501983Y-73182235D01*
X125407733Y-73210825D01*
X125320871Y-73257254D01*
X125244736Y-73319736D01*
X125182254Y-73395871D01*
X125135825Y-73482733D01*
X125107235Y-73576983D01*
X125097581Y-73675000D01*
X125097581Y-74459710D01*
X124252953Y-75425000D01*
X124157021Y-75425000D01*
X124028470Y-75437661D01*
X123863532Y-75487695D01*
X123711524Y-75568944D01*
X123578288Y-75678288D01*
X123468944Y-75811524D01*
X123387695Y-75963532D01*
X123337661Y-76128470D01*
X123320767Y-76300000D01*
X121761191Y-76300000D01*
X119527627Y-71114942D01*
X119727137Y-71018229D01*
X121734415Y-70218456D01*
X123794171Y-69565608D01*
X125895665Y-69063090D01*
X128027942Y-68713521D01*
X130179884Y-68518724D01*
X132340273Y-68479713D01*
X134497846Y-68596694D01*
G37*
%TD.AperFunction*%
D22*
X121729095Y-78274933D02*
X121701264Y-78414853D01*
X120479772Y-79636346D01*
X120455921Y-79655920D01*
X120436348Y-79679770D01*
X120377818Y-79751089D01*
X120319782Y-79859666D01*
X120284044Y-79977479D01*
X120271977Y-80100000D01*
X120275001Y-80130704D01*
X120275000Y-81295416D01*
X120191049Y-81421058D01*
X120130743Y-81566649D01*
X120100000Y-81721207D01*
X120100000Y-81878793D01*
X120130743Y-82033351D01*
X120191049Y-82178942D01*
X120278599Y-82309970D01*
X120390030Y-82421401D01*
X120521058Y-82508951D01*
X120666649Y-82569257D01*
X120821207Y-82600000D01*
X120978793Y-82600000D01*
X121133351Y-82569257D01*
X121278942Y-82508951D01*
X121409970Y-82421401D01*
X121521401Y-82309970D01*
X121608951Y-82178942D01*
X121669257Y-82033351D01*
X121700000Y-81878793D01*
X121700000Y-81721207D01*
X121669257Y-81566649D01*
X121608951Y-81421058D01*
X121525000Y-81295416D01*
X121525000Y-80358882D01*
X122283062Y-79600821D01*
X123577924Y-82700000D01*
X123421207Y-82700000D01*
X123266649Y-82730743D01*
X123121058Y-82791049D01*
X122995416Y-82875000D01*
X115933147Y-82875000D01*
X120170230Y-78637917D01*
X120194080Y-78618344D01*
X120233273Y-78570587D01*
X120272182Y-78523177D01*
X120330218Y-78414600D01*
X120341479Y-78377478D01*
X120365957Y-78296785D01*
X120375000Y-78204968D01*
X120375000Y-78204959D01*
X120378023Y-78174265D01*
X120375000Y-78143571D01*
X120375000Y-78004584D01*
X120458951Y-77878942D01*
X120519257Y-77733351D01*
X120550000Y-77578793D01*
X120550000Y-77421207D01*
X120519257Y-77266649D01*
X120458951Y-77121058D01*
X120371401Y-76990030D01*
X120259970Y-76878599D01*
X120128942Y-76791049D01*
X119983351Y-76730743D01*
X119828793Y-76700000D01*
X119671207Y-76700000D01*
X119516649Y-76730743D01*
X119371058Y-76791049D01*
X119240030Y-76878599D01*
X119128599Y-76990030D01*
X119041049Y-77121058D01*
X118980743Y-77266649D01*
X118950000Y-77421207D01*
X118950000Y-77578793D01*
X118980743Y-77733351D01*
X119041049Y-77878942D01*
X119089270Y-77951111D01*
X118835876Y-78204505D01*
X118759970Y-78128599D01*
X118628942Y-78041049D01*
X118483351Y-77980743D01*
X118328793Y-77950000D01*
X118171207Y-77950000D01*
X118016649Y-77980743D01*
X117871058Y-78041049D01*
X117740030Y-78128599D01*
X117628599Y-78240030D01*
X117541049Y-78371058D01*
X117480743Y-78516649D01*
X117451264Y-78664852D01*
X105179772Y-90936346D01*
X105155921Y-90955920D01*
X105136348Y-90979770D01*
X105077818Y-91051089D01*
X105019782Y-91159666D01*
X104984044Y-91277479D01*
X104971977Y-91400000D01*
X104975001Y-91430704D01*
X104975000Y-107069306D01*
X104971977Y-107100000D01*
X104975000Y-107130694D01*
X104975000Y-107130703D01*
X104984043Y-107222520D01*
X105019781Y-107340333D01*
X105077817Y-107448910D01*
X105155920Y-107544080D01*
X105179776Y-107563658D01*
X110336351Y-112720235D01*
X110355920Y-112744080D01*
X110379765Y-112763649D01*
X110379769Y-112763653D01*
X110451088Y-112822183D01*
X110495514Y-112845929D01*
X110559666Y-112880219D01*
X110677479Y-112915957D01*
X110769296Y-112925000D01*
X110769298Y-112925000D01*
X110800000Y-112928024D01*
X110830702Y-112925000D01*
X122891117Y-112925000D01*
X122814854Y-113001264D01*
X122666649Y-113030743D01*
X122521058Y-113091049D01*
X122390030Y-113178599D01*
X122278599Y-113290030D01*
X122191049Y-113421058D01*
X122130743Y-113566649D01*
X122100000Y-113721207D01*
X122100000Y-113878793D01*
X122130743Y-114033351D01*
X122191049Y-114178942D01*
X122278599Y-114309970D01*
X122390030Y-114421401D01*
X122521058Y-114508951D01*
X122666649Y-114569257D01*
X122821207Y-114600000D01*
X122978793Y-114600000D01*
X123133351Y-114569257D01*
X123278942Y-114508951D01*
X123409970Y-114421401D01*
X123521401Y-114309970D01*
X123602076Y-114189231D01*
X123630743Y-114333351D01*
X123691049Y-114478942D01*
X123775000Y-114604584D01*
X123775000Y-114740374D01*
X123771977Y-114771068D01*
X123775000Y-114801762D01*
X123775000Y-114801772D01*
X123784043Y-114893589D01*
X123819781Y-115011402D01*
X123877818Y-115119979D01*
X123955921Y-115215148D01*
X123979772Y-115234722D01*
X124224009Y-115478960D01*
X124252860Y-115532935D01*
X124315342Y-115609070D01*
X125729556Y-117023284D01*
X125805691Y-117085766D01*
X125892553Y-117132195D01*
X125986803Y-117160785D01*
X126084820Y-117170439D01*
X126182837Y-117160785D01*
X126277087Y-117132195D01*
X126363949Y-117085766D01*
X126440084Y-117023284D01*
X126652216Y-116811152D01*
X126714698Y-116735017D01*
X126715675Y-116733188D01*
X126717502Y-116732212D01*
X126793637Y-116669730D01*
X127005769Y-116457598D01*
X127068251Y-116381463D01*
X127069228Y-116379636D01*
X127071055Y-116378659D01*
X127147190Y-116316177D01*
X127359322Y-116104045D01*
X127421804Y-116027910D01*
X127422780Y-116026083D01*
X127424609Y-116025106D01*
X127500744Y-115962624D01*
X127712876Y-115750492D01*
X127775358Y-115674357D01*
X127776335Y-115672528D01*
X127778162Y-115671552D01*
X127854297Y-115609070D01*
X128066429Y-115396938D01*
X128128911Y-115320803D01*
X128129887Y-115318976D01*
X128131716Y-115317999D01*
X128207851Y-115255517D01*
X128419983Y-115043385D01*
X128482465Y-114967250D01*
X128483442Y-114965421D01*
X128485269Y-114964445D01*
X128561404Y-114901963D01*
X128773536Y-114689831D01*
X128836018Y-114613696D01*
X128836995Y-114611869D01*
X128838822Y-114610892D01*
X128914957Y-114548410D01*
X129127089Y-114336278D01*
X129189571Y-114260143D01*
X129190547Y-114258316D01*
X129192376Y-114257339D01*
X129268511Y-114194857D01*
X129480643Y-113982725D01*
X129543125Y-113906590D01*
X129544102Y-113904761D01*
X129545929Y-113903785D01*
X129622064Y-113841303D01*
X129834196Y-113629171D01*
X129896678Y-113553036D01*
X129897654Y-113551209D01*
X129899483Y-113550232D01*
X129975618Y-113487750D01*
X130187750Y-113275618D01*
X130250232Y-113199483D01*
X130251209Y-113197654D01*
X130253036Y-113196678D01*
X130329171Y-113134196D01*
X130541303Y-112922064D01*
X130603785Y-112845929D01*
X130604762Y-112844102D01*
X130606589Y-112843125D01*
X130682724Y-112780643D01*
X130894856Y-112568511D01*
X130957338Y-112492376D01*
X130958314Y-112490549D01*
X130960143Y-112489572D01*
X131036278Y-112427090D01*
X131248410Y-112214958D01*
X131310892Y-112138823D01*
X131311869Y-112136994D01*
X131313696Y-112136018D01*
X131389831Y-112073536D01*
X131601963Y-111861404D01*
X131664445Y-111785269D01*
X131710874Y-111698407D01*
X131739464Y-111604157D01*
X131749118Y-111506140D01*
X132229204Y-111506140D01*
X132238858Y-111604157D01*
X132267448Y-111698407D01*
X132313877Y-111785269D01*
X132376359Y-111861404D01*
X132588491Y-112073536D01*
X132664626Y-112136018D01*
X132666453Y-112136994D01*
X132667430Y-112138823D01*
X132729912Y-112214958D01*
X132942044Y-112427090D01*
X133018179Y-112489572D01*
X133020008Y-112490549D01*
X133020984Y-112492376D01*
X133083466Y-112568511D01*
X133295598Y-112780643D01*
X133371733Y-112843125D01*
X133373560Y-112844102D01*
X133374537Y-112845929D01*
X133437019Y-112922064D01*
X133649151Y-113134196D01*
X133725286Y-113196678D01*
X133727113Y-113197654D01*
X133728090Y-113199483D01*
X133790572Y-113275618D01*
X134002704Y-113487750D01*
X134078839Y-113550232D01*
X134080668Y-113551209D01*
X134081644Y-113553036D01*
X134144126Y-113629171D01*
X134356258Y-113841303D01*
X134432393Y-113903785D01*
X134519255Y-113950214D01*
X134554773Y-113960988D01*
X134409627Y-114106133D01*
X134378793Y-114100000D01*
X134221207Y-114100000D01*
X134066649Y-114130743D01*
X133921058Y-114191049D01*
X133790030Y-114278599D01*
X133678599Y-114390030D01*
X133591049Y-114521058D01*
X133530743Y-114666649D01*
X133500000Y-114821207D01*
X133500000Y-114978793D01*
X133530743Y-115133351D01*
X133591049Y-115278942D01*
X133678599Y-115409970D01*
X133790030Y-115521401D01*
X133921058Y-115608951D01*
X134066649Y-115669257D01*
X134221207Y-115700000D01*
X134378793Y-115700000D01*
X134533351Y-115669257D01*
X134678942Y-115608951D01*
X134804584Y-115525000D01*
X134989416Y-115525000D01*
X134930743Y-115666649D01*
X134900000Y-115821207D01*
X134900000Y-115978793D01*
X134930743Y-116133351D01*
X134979658Y-116251441D01*
X134902486Y-116259042D01*
X134784673Y-116294780D01*
X134676096Y-116352816D01*
X134580927Y-116430919D01*
X134561349Y-116454775D01*
X134514854Y-116501270D01*
X134366649Y-116530749D01*
X134221058Y-116591055D01*
X134090030Y-116678605D01*
X133978599Y-116790036D01*
X133891049Y-116921064D01*
X133830743Y-117066655D01*
X133800000Y-117221213D01*
X133800000Y-117378799D01*
X133830743Y-117533357D01*
X133891049Y-117678948D01*
X133978599Y-117809976D01*
X134090030Y-117921407D01*
X134221058Y-118008957D01*
X134366649Y-118069263D01*
X134521207Y-118100006D01*
X134678793Y-118100006D01*
X134833351Y-118069263D01*
X134847485Y-118063408D01*
X134878599Y-118109974D01*
X134990030Y-118221405D01*
X135121058Y-118308955D01*
X135266649Y-118369261D01*
X135421207Y-118400004D01*
X135578793Y-118400004D01*
X135733351Y-118369261D01*
X135878942Y-118308955D01*
X136004584Y-118225004D01*
X137425799Y-118225004D01*
X137456493Y-118228027D01*
X137487187Y-118225004D01*
X137487197Y-118225004D01*
X137579014Y-118215961D01*
X137696827Y-118180223D01*
X137805404Y-118122187D01*
X137900573Y-118044084D01*
X137920151Y-118020228D01*
X138472210Y-117468169D01*
X138526185Y-117439319D01*
X138602320Y-117376837D01*
X140016534Y-115962623D01*
X140079016Y-115886488D01*
X140125445Y-115799626D01*
X140154035Y-115705376D01*
X140163689Y-115607359D01*
X140154035Y-115509342D01*
X140125445Y-115415092D01*
X140079016Y-115328230D01*
X140016534Y-115252095D01*
X139804402Y-115039963D01*
X139728267Y-114977481D01*
X139726438Y-114976504D01*
X139725462Y-114974677D01*
X139662980Y-114898542D01*
X139450848Y-114686410D01*
X139374713Y-114623928D01*
X139372886Y-114622952D01*
X139371909Y-114621123D01*
X139309427Y-114544988D01*
X139097295Y-114332856D01*
X139021160Y-114270374D01*
X139019333Y-114269397D01*
X139018356Y-114267570D01*
X138955874Y-114191435D01*
X138743742Y-113979303D01*
X138667607Y-113916821D01*
X138665778Y-113915844D01*
X138664802Y-113914017D01*
X138602320Y-113837882D01*
X138390188Y-113625750D01*
X138314053Y-113563268D01*
X138312226Y-113562292D01*
X138311249Y-113560463D01*
X138248767Y-113484328D01*
X138036635Y-113272196D01*
X137960500Y-113209714D01*
X137958671Y-113208737D01*
X137957695Y-113206910D01*
X137895213Y-113130775D01*
X137683081Y-112918643D01*
X137606946Y-112856161D01*
X137605119Y-112855185D01*
X137604142Y-112853356D01*
X137541660Y-112777221D01*
X137329528Y-112565089D01*
X137253393Y-112502607D01*
X137251566Y-112501630D01*
X137250589Y-112499803D01*
X137188107Y-112423668D01*
X136975975Y-112211536D01*
X136899840Y-112149054D01*
X136812978Y-112102625D01*
X136718728Y-112074035D01*
X136627488Y-112065048D01*
X136618501Y-111973808D01*
X136589911Y-111879558D01*
X136543482Y-111792696D01*
X136487926Y-111725001D01*
X137641119Y-111725001D01*
X137675270Y-111759152D01*
X137630743Y-111866649D01*
X137600000Y-112021207D01*
X137600000Y-112178793D01*
X137630743Y-112333351D01*
X137691049Y-112478942D01*
X137778599Y-112609970D01*
X137890030Y-112721401D01*
X138021058Y-112808951D01*
X138166649Y-112869257D01*
X138321207Y-112900000D01*
X138478793Y-112900000D01*
X138633351Y-112869257D01*
X138647486Y-112863402D01*
X138678599Y-112909966D01*
X138790030Y-113021397D01*
X138921058Y-113108947D01*
X139066649Y-113169253D01*
X139221207Y-113199996D01*
X139378793Y-113199996D01*
X139533351Y-113169253D01*
X139678942Y-113108947D01*
X139809970Y-113021397D01*
X139921401Y-112909966D01*
X140008951Y-112778938D01*
X140069257Y-112633347D01*
X140100000Y-112478789D01*
X140100000Y-112321203D01*
X140069257Y-112166645D01*
X140008951Y-112021054D01*
X139925000Y-111895412D01*
X139925000Y-111806437D01*
X139928024Y-111775736D01*
X139922783Y-111722521D01*
X139915957Y-111653215D01*
X139880219Y-111535402D01*
X139822183Y-111426825D01*
X139744080Y-111331656D01*
X139720230Y-111312083D01*
X138587922Y-110179776D01*
X138568344Y-110155920D01*
X138473175Y-110077817D01*
X138364598Y-110019781D01*
X138246785Y-109984043D01*
X138154968Y-109975000D01*
X138154958Y-109975000D01*
X138124264Y-109971977D01*
X138093570Y-109975000D01*
X135294810Y-109975000D01*
X135264109Y-109971976D01*
X135233407Y-109975000D01*
X135233405Y-109975000D01*
X135141588Y-109984043D01*
X135023775Y-110019781D01*
X134915198Y-110077817D01*
X134875134Y-110110696D01*
X134854654Y-110090216D01*
X134778519Y-110027734D01*
X134776692Y-110026758D01*
X134775715Y-110024929D01*
X134713233Y-109948794D01*
X134501101Y-109736662D01*
X134424966Y-109674180D01*
X134338104Y-109627751D01*
X134243854Y-109599161D01*
X134145837Y-109589507D01*
X134047820Y-109599161D01*
X133953570Y-109627751D01*
X133866708Y-109674180D01*
X133790573Y-109736662D01*
X132376359Y-111150876D01*
X132313877Y-111227011D01*
X132267448Y-111313873D01*
X132238858Y-111408123D01*
X132229204Y-111506140D01*
X131749118Y-111506140D01*
X131739464Y-111408123D01*
X131710874Y-111313873D01*
X131664445Y-111227011D01*
X131601963Y-111150876D01*
X130187749Y-109736662D01*
X130111614Y-109674180D01*
X130057639Y-109645330D01*
X129892085Y-109479776D01*
X129872507Y-109455920D01*
X129777338Y-109377817D01*
X129668761Y-109319781D01*
X129550948Y-109284043D01*
X129459131Y-109275000D01*
X129459121Y-109275000D01*
X129428427Y-109271977D01*
X129397733Y-109275000D01*
X124178883Y-109275000D01*
X121602527Y-106698644D01*
X121652757Y-106604670D01*
X121689883Y-106482281D01*
X121702419Y-106355000D01*
X121702419Y-106055000D01*
X121689883Y-105927719D01*
X121652757Y-105805330D01*
X121592467Y-105692535D01*
X121511330Y-105593670D01*
X121482488Y-105570000D01*
X121511330Y-105546330D01*
X121592467Y-105447465D01*
X121652757Y-105334670D01*
X121689883Y-105212281D01*
X121702419Y-105085000D01*
X121702419Y-104785000D01*
X121689883Y-104657719D01*
X121652757Y-104535330D01*
X121592467Y-104422535D01*
X121511330Y-104323670D01*
X121482488Y-104300000D01*
X121511330Y-104276330D01*
X121592467Y-104177465D01*
X121652757Y-104064670D01*
X121689883Y-103942281D01*
X121702419Y-103815000D01*
X121702419Y-103515000D01*
X121689883Y-103387719D01*
X121652757Y-103265330D01*
X121592467Y-103152535D01*
X121511330Y-103053670D01*
X121412465Y-102972533D01*
X121299670Y-102912243D01*
X121177281Y-102875117D01*
X121050000Y-102862581D01*
X119400000Y-102862581D01*
X119272719Y-102875117D01*
X119150330Y-102912243D01*
X119037535Y-102972533D01*
X118938670Y-103053670D01*
X118857533Y-103152535D01*
X118797243Y-103265330D01*
X118760117Y-103387719D01*
X118747581Y-103515000D01*
X118747581Y-103815000D01*
X118760117Y-103942281D01*
X118797243Y-104064670D01*
X118857533Y-104177465D01*
X118938670Y-104276330D01*
X118967512Y-104300000D01*
X118938670Y-104323670D01*
X118857533Y-104422535D01*
X118797243Y-104535330D01*
X118760117Y-104657719D01*
X118747581Y-104785000D01*
X118747581Y-105085000D01*
X118760117Y-105212281D01*
X118797243Y-105334670D01*
X118857533Y-105447465D01*
X118938670Y-105546330D01*
X118967512Y-105570000D01*
X118938670Y-105593670D01*
X118857533Y-105692535D01*
X118797243Y-105805330D01*
X118760117Y-105927719D01*
X118747581Y-106055000D01*
X118747581Y-106355000D01*
X118760117Y-106482281D01*
X118797243Y-106604670D01*
X118857533Y-106717465D01*
X118938670Y-106816330D01*
X119037535Y-106897467D01*
X119150330Y-106957757D01*
X119272719Y-106994883D01*
X119400000Y-107007419D01*
X120143537Y-107007419D01*
X123456346Y-110320229D01*
X123475920Y-110344080D01*
X123517840Y-110378483D01*
X123571087Y-110422182D01*
X123611473Y-110443769D01*
X123679666Y-110480219D01*
X123797479Y-110515957D01*
X123889296Y-110525000D01*
X123889305Y-110525000D01*
X123919999Y-110528023D01*
X123950693Y-110525000D01*
X128688883Y-110525000D01*
X128557982Y-110655901D01*
X128495500Y-110732036D01*
X128494523Y-110733863D01*
X128492696Y-110734840D01*
X128416561Y-110797322D01*
X128204429Y-111009454D01*
X128141947Y-111085589D01*
X128140970Y-111087418D01*
X128139143Y-111088394D01*
X128063008Y-111150876D01*
X128045330Y-111168555D01*
X127756551Y-110879776D01*
X127736973Y-110855920D01*
X127641804Y-110777817D01*
X127533227Y-110719781D01*
X127415414Y-110684043D01*
X127323597Y-110675000D01*
X127323587Y-110675000D01*
X127292893Y-110671977D01*
X127262199Y-110675000D01*
X111595293Y-110675000D01*
X108009095Y-107088803D01*
X108109970Y-107021401D01*
X108221401Y-106909970D01*
X108308951Y-106778942D01*
X108369257Y-106633351D01*
X108398736Y-106485146D01*
X109458883Y-105425000D01*
X112595414Y-105425000D01*
X112721056Y-105508951D01*
X112866647Y-105569257D01*
X113021205Y-105600000D01*
X113178791Y-105600000D01*
X113333349Y-105569257D01*
X113478940Y-105508951D01*
X113609968Y-105421401D01*
X113721399Y-105309970D01*
X113808949Y-105178942D01*
X113869255Y-105033351D01*
X113899998Y-104878793D01*
X113899998Y-104721207D01*
X113869255Y-104566649D01*
X113808949Y-104421058D01*
X113721399Y-104290030D01*
X113609968Y-104178599D01*
X113478940Y-104091049D01*
X113333349Y-104030743D01*
X113178791Y-104000000D01*
X113021205Y-104000000D01*
X112866647Y-104030743D01*
X112721056Y-104091049D01*
X112595414Y-104175000D01*
X109230702Y-104175000D01*
X109200000Y-104171976D01*
X109169298Y-104175000D01*
X109169296Y-104175000D01*
X109077479Y-104184043D01*
X108959666Y-104219781D01*
X108917100Y-104242533D01*
X108851088Y-104277817D01*
X108836207Y-104290030D01*
X108755920Y-104355920D01*
X108736346Y-104379771D01*
X107514854Y-105601264D01*
X107366649Y-105630743D01*
X107225000Y-105689416D01*
X107225000Y-101021207D01*
X109800000Y-101021207D01*
X109800000Y-101178793D01*
X109830743Y-101333351D01*
X109891049Y-101478942D01*
X109978599Y-101609970D01*
X110090030Y-101721401D01*
X110221058Y-101808951D01*
X110366649Y-101869257D01*
X110521207Y-101900000D01*
X110678793Y-101900000D01*
X110833351Y-101869257D01*
X110978942Y-101808951D01*
X111109970Y-101721401D01*
X111221401Y-101609970D01*
X111308951Y-101478942D01*
X111369257Y-101333351D01*
X111400000Y-101178793D01*
X111400000Y-101048882D01*
X113137581Y-99311302D01*
X113137581Y-99825000D01*
X113147235Y-99923017D01*
X113175825Y-100017267D01*
X113222254Y-100104129D01*
X113284736Y-100180264D01*
X113360871Y-100242746D01*
X113447733Y-100289175D01*
X113541983Y-100317765D01*
X113640000Y-100327419D01*
X114071905Y-100327419D01*
X114081742Y-100335492D01*
X114255465Y-100428349D01*
X114339684Y-100453897D01*
X114395397Y-100509610D01*
X114389473Y-100514472D01*
X114264509Y-100666742D01*
X114214875Y-100759600D01*
X114171651Y-100840466D01*
X114114470Y-101028966D01*
X114095162Y-101225000D01*
X114100001Y-101274130D01*
X114100001Y-101868784D01*
X114057254Y-101920871D01*
X114010825Y-102007733D01*
X113982235Y-102101983D01*
X113972581Y-102200000D01*
X113972581Y-103700000D01*
X113982235Y-103798017D01*
X114010825Y-103892267D01*
X114057254Y-103979129D01*
X114119736Y-104055264D01*
X114195871Y-104117746D01*
X114282733Y-104164175D01*
X114376983Y-104192765D01*
X114475000Y-104202419D01*
X115725000Y-104202419D01*
X115823017Y-104192765D01*
X115917267Y-104164175D01*
X116004129Y-104117746D01*
X116080264Y-104055264D01*
X116142746Y-103979129D01*
X116189175Y-103892267D01*
X116217765Y-103798017D01*
X116227419Y-103700000D01*
X116227419Y-102245000D01*
X123697581Y-102245000D01*
X123697581Y-102545000D01*
X123710117Y-102672281D01*
X123747243Y-102794670D01*
X123807533Y-102907465D01*
X123888670Y-103006330D01*
X123917512Y-103030000D01*
X123888670Y-103053670D01*
X123807533Y-103152535D01*
X123747243Y-103265330D01*
X123710117Y-103387719D01*
X123697581Y-103515000D01*
X123697581Y-103815000D01*
X123710117Y-103942281D01*
X123747243Y-104064670D01*
X123807533Y-104177465D01*
X123888670Y-104276330D01*
X123917512Y-104300000D01*
X123888670Y-104323670D01*
X123807533Y-104422535D01*
X123747243Y-104535330D01*
X123710117Y-104657719D01*
X123697581Y-104785000D01*
X123697581Y-105085000D01*
X123710117Y-105212281D01*
X123747243Y-105334670D01*
X123807533Y-105447465D01*
X123888670Y-105546330D01*
X123917512Y-105570000D01*
X123888670Y-105593670D01*
X123807533Y-105692535D01*
X123747243Y-105805330D01*
X123710117Y-105927719D01*
X123697581Y-106055000D01*
X123697581Y-106355000D01*
X123710117Y-106482281D01*
X123747243Y-106604670D01*
X123807533Y-106717465D01*
X123888670Y-106816330D01*
X123987535Y-106897467D01*
X124100330Y-106957757D01*
X124222719Y-106994883D01*
X124350000Y-107007419D01*
X126000000Y-107007419D01*
X126127281Y-106994883D01*
X126249670Y-106957757D01*
X126362465Y-106897467D01*
X126444673Y-106830000D01*
X126564306Y-106830000D01*
X126595000Y-106833023D01*
X126625694Y-106830000D01*
X126625704Y-106830000D01*
X126717521Y-106820957D01*
X126835334Y-106785219D01*
X126943911Y-106727183D01*
X127039080Y-106649080D01*
X127058658Y-106625224D01*
X127479377Y-106204505D01*
X128809192Y-106204505D01*
X128818846Y-106302522D01*
X128847436Y-106396772D01*
X128893865Y-106483634D01*
X128956347Y-106559769D01*
X129840231Y-107443653D01*
X129916366Y-107506135D01*
X130003228Y-107552564D01*
X130097478Y-107581154D01*
X130195495Y-107590808D01*
X130293512Y-107581154D01*
X130387762Y-107552564D01*
X130474624Y-107506135D01*
X130550759Y-107443653D01*
X130755265Y-107239147D01*
X130801264Y-107285146D01*
X130830743Y-107433351D01*
X130891049Y-107578942D01*
X130978599Y-107709970D01*
X131090030Y-107821401D01*
X131221058Y-107908951D01*
X131366649Y-107969257D01*
X131521207Y-108000000D01*
X131678793Y-108000000D01*
X131833351Y-107969257D01*
X131978942Y-107908951D01*
X132109970Y-107821401D01*
X132221401Y-107709970D01*
X132308951Y-107578942D01*
X132369257Y-107433351D01*
X132400000Y-107278793D01*
X132400000Y-107121207D01*
X132369257Y-106966649D01*
X132308951Y-106821058D01*
X132221401Y-106690030D01*
X132109970Y-106578599D01*
X131978942Y-106491049D01*
X131833351Y-106430743D01*
X131685146Y-106401264D01*
X131636416Y-106352534D01*
X131673901Y-106306858D01*
X131720330Y-106219996D01*
X131748920Y-106125746D01*
X131758574Y-106027729D01*
X131748920Y-105929712D01*
X131720330Y-105835462D01*
X131673901Y-105748600D01*
X131611419Y-105672465D01*
X130727535Y-104788581D01*
X130651400Y-104726099D01*
X130564538Y-104679670D01*
X130470288Y-104651080D01*
X130372271Y-104641426D01*
X130274254Y-104651080D01*
X130180004Y-104679670D01*
X130093142Y-104726099D01*
X130017007Y-104788581D01*
X128956347Y-105849241D01*
X128893865Y-105925376D01*
X128847436Y-106012238D01*
X128818846Y-106106488D01*
X128809192Y-106204505D01*
X127479377Y-106204505D01*
X127485146Y-106198736D01*
X127633351Y-106169257D01*
X127778942Y-106108951D01*
X127909970Y-106021401D01*
X128021401Y-105909970D01*
X128108951Y-105778942D01*
X128169257Y-105633351D01*
X128200000Y-105478793D01*
X128200000Y-105321207D01*
X128169257Y-105166649D01*
X128108951Y-105021058D01*
X128021401Y-104890030D01*
X127909970Y-104778599D01*
X127778942Y-104691049D01*
X127633351Y-104630743D01*
X127478793Y-104600000D01*
X127321207Y-104600000D01*
X127166649Y-104630743D01*
X127021058Y-104691049D01*
X126890030Y-104778599D01*
X126778599Y-104890030D01*
X126691049Y-105021058D01*
X126648631Y-105123465D01*
X126652419Y-105085000D01*
X126652419Y-104785000D01*
X126639883Y-104657719D01*
X126602757Y-104535330D01*
X126542467Y-104422535D01*
X126461330Y-104323670D01*
X126432488Y-104300000D01*
X126461330Y-104276330D01*
X126542467Y-104177465D01*
X126602757Y-104064670D01*
X126639883Y-103942281D01*
X126652419Y-103815000D01*
X126652419Y-103515000D01*
X126639883Y-103387719D01*
X126602757Y-103265330D01*
X126542467Y-103152535D01*
X126461330Y-103053670D01*
X126432488Y-103030000D01*
X126461330Y-103006330D01*
X126542467Y-102907465D01*
X126602757Y-102794670D01*
X126639883Y-102672281D01*
X126652419Y-102545000D01*
X126652419Y-102245000D01*
X126639883Y-102117719D01*
X126602757Y-101995330D01*
X126542467Y-101882535D01*
X126461330Y-101783670D01*
X126362465Y-101702533D01*
X126249670Y-101642243D01*
X126127281Y-101605117D01*
X126000000Y-101592581D01*
X124350000Y-101592581D01*
X124222719Y-101605117D01*
X124100330Y-101642243D01*
X123987535Y-101702533D01*
X123888670Y-101783670D01*
X123807533Y-101882535D01*
X123747243Y-101995330D01*
X123710117Y-102117719D01*
X123697581Y-102245000D01*
X116227419Y-102245000D01*
X116227419Y-102200000D01*
X116217765Y-102101983D01*
X116189175Y-102007733D01*
X116142746Y-101920871D01*
X116100000Y-101868785D01*
X116100000Y-101804838D01*
X116149120Y-101800000D01*
X116174099Y-101800000D01*
X116321013Y-101785530D01*
X116509514Y-101728349D01*
X116683237Y-101635492D01*
X116835507Y-101510528D01*
X116960471Y-101358258D01*
X117053328Y-101184535D01*
X117110509Y-100996034D01*
X117129817Y-100800000D01*
X117110509Y-100603966D01*
X117053328Y-100415465D01*
X116960471Y-100241742D01*
X116835507Y-100089472D01*
X116683237Y-99964508D01*
X116673537Y-99959323D01*
X116142419Y-99428206D01*
X116142419Y-99175000D01*
X116132765Y-99076983D01*
X116104175Y-98982733D01*
X116057746Y-98895871D01*
X115995264Y-98819736D01*
X115919129Y-98757254D01*
X115832267Y-98710825D01*
X115738017Y-98682235D01*
X115640000Y-98672581D01*
X115368095Y-98672581D01*
X115358258Y-98664508D01*
X115184535Y-98571651D01*
X114996034Y-98514470D01*
X114849120Y-98500000D01*
X114800000Y-98495162D01*
X114750880Y-98500000D01*
X114590880Y-98500000D01*
X114443966Y-98514470D01*
X114255465Y-98571651D01*
X114081742Y-98664508D01*
X114071905Y-98672581D01*
X113776303Y-98672581D01*
X114021465Y-98427419D01*
X115640000Y-98427419D01*
X115738017Y-98417765D01*
X115832267Y-98389175D01*
X115919129Y-98342746D01*
X115995264Y-98280264D01*
X116057746Y-98204129D01*
X116104175Y-98117267D01*
X116132765Y-98023017D01*
X116142419Y-97925000D01*
X116142419Y-97275000D01*
X116132765Y-97176983D01*
X116104175Y-97082733D01*
X116057746Y-96995871D01*
X115995264Y-96919736D01*
X115919129Y-96857254D01*
X115832267Y-96810825D01*
X115738017Y-96782235D01*
X115640000Y-96772581D01*
X113640000Y-96772581D01*
X113541983Y-96782235D01*
X113447733Y-96810825D01*
X113360871Y-96857254D01*
X113284736Y-96919736D01*
X113222254Y-96995871D01*
X113175825Y-97082733D01*
X113147235Y-97176983D01*
X113137581Y-97275000D01*
X113137581Y-97543535D01*
X110338867Y-100342251D01*
X110221058Y-100391049D01*
X110090030Y-100478599D01*
X109978599Y-100590030D01*
X109891049Y-100721058D01*
X109830743Y-100866649D01*
X109800000Y-101021207D01*
X107225000Y-101021207D01*
X107225000Y-95800012D01*
X115220767Y-95800012D01*
X115237661Y-95971541D01*
X115287695Y-96136479D01*
X115368945Y-96288487D01*
X115478289Y-96421723D01*
X115611525Y-96531067D01*
X115763533Y-96612317D01*
X115928471Y-96662351D01*
X116100000Y-96679245D01*
X116271529Y-96662351D01*
X116436467Y-96612317D01*
X116588475Y-96531067D01*
X116688327Y-96449121D01*
X117562449Y-95575000D01*
X120542979Y-95575000D01*
X120671530Y-95562339D01*
X120836468Y-95512305D01*
X120988476Y-95431056D01*
X121121712Y-95321712D01*
X121231056Y-95188476D01*
X121312305Y-95036468D01*
X121362339Y-94871530D01*
X121379233Y-94700000D01*
X121362339Y-94528470D01*
X121312305Y-94363532D01*
X121231056Y-94211524D01*
X121121712Y-94078288D01*
X120988476Y-93968944D01*
X120836468Y-93887695D01*
X120671530Y-93837661D01*
X120542979Y-93825000D01*
X117242991Y-93825000D01*
X117200012Y-93820767D01*
X117157033Y-93825000D01*
X117028482Y-93837661D01*
X116863544Y-93887695D01*
X116711536Y-93968944D01*
X116578300Y-94078288D01*
X116550900Y-94111675D01*
X115450891Y-95211685D01*
X115368945Y-95311537D01*
X115287695Y-95463545D01*
X115237661Y-95628483D01*
X115220767Y-95800012D01*
X107225000Y-95800012D01*
X107225000Y-92658882D01*
X115758883Y-84125000D01*
X122995416Y-84125000D01*
X123121058Y-84208951D01*
X123266649Y-84269257D01*
X123421207Y-84300000D01*
X123578793Y-84300000D01*
X123733351Y-84269257D01*
X123878942Y-84208951D01*
X124009970Y-84121401D01*
X124121401Y-84009970D01*
X124123763Y-84006434D01*
X125798226Y-88014165D01*
X123275805Y-85491744D01*
X122922058Y-85201432D01*
X122383516Y-84913574D01*
X121799163Y-84736313D01*
X121191458Y-84676459D01*
X120583753Y-84736313D01*
X119999400Y-84913574D01*
X119460858Y-85201432D01*
X118988822Y-85588822D01*
X118601432Y-86060858D01*
X118313574Y-86599400D01*
X118136313Y-87183753D01*
X118076459Y-87791458D01*
X118136313Y-88399163D01*
X118313574Y-88983516D01*
X118601432Y-89522058D01*
X118891744Y-89875805D01*
X126395272Y-97379334D01*
X126300000Y-97858297D01*
X126300000Y-98941703D01*
X126511362Y-100004291D01*
X126925963Y-101005227D01*
X127527871Y-101906046D01*
X128293954Y-102672129D01*
X129194773Y-103274037D01*
X130195709Y-103688638D01*
X131258297Y-103900000D01*
X132341703Y-103900000D01*
X132820667Y-103804728D01*
X140324194Y-111308256D01*
X140677941Y-111598568D01*
X141216483Y-111886426D01*
X141800836Y-112063687D01*
X142408542Y-112123541D01*
X143016247Y-112063687D01*
X143600600Y-111886426D01*
X144139142Y-111598568D01*
X144611178Y-111211178D01*
X144998568Y-110739142D01*
X145072941Y-110600000D01*
X150320767Y-110600000D01*
X150337661Y-110771530D01*
X150387695Y-110936468D01*
X150468944Y-111088476D01*
X150578288Y-111221712D01*
X150711524Y-111331056D01*
X150863532Y-111412305D01*
X151028470Y-111462339D01*
X151157021Y-111475000D01*
X154042979Y-111475000D01*
X154171530Y-111462339D01*
X154336468Y-111412305D01*
X154488476Y-111331056D01*
X154621712Y-111221712D01*
X154731056Y-111088476D01*
X154812305Y-110936468D01*
X154862339Y-110771530D01*
X154879233Y-110600000D01*
X154862339Y-110428470D01*
X154812305Y-110263532D01*
X154731056Y-110111524D01*
X154621712Y-109978288D01*
X154488476Y-109868944D01*
X154336468Y-109787695D01*
X154171530Y-109737661D01*
X154042979Y-109725000D01*
X151157021Y-109725000D01*
X151028470Y-109737661D01*
X150863532Y-109787695D01*
X150711524Y-109868944D01*
X150578288Y-109978288D01*
X150468944Y-110111524D01*
X150387695Y-110263532D01*
X150337661Y-110428470D01*
X150320767Y-110600000D01*
X145072941Y-110600000D01*
X145286426Y-110200600D01*
X145463687Y-109616247D01*
X145523541Y-109008542D01*
X145463687Y-108400836D01*
X145286426Y-107816483D01*
X144998568Y-107277941D01*
X144708256Y-106924194D01*
X143784062Y-106000000D01*
X147795499Y-106000000D01*
X147805153Y-106098017D01*
X147833743Y-106192267D01*
X147880172Y-106279129D01*
X147942654Y-106355264D01*
X149144736Y-107557346D01*
X149220871Y-107619828D01*
X149307733Y-107666257D01*
X149401983Y-107694847D01*
X149500000Y-107704501D01*
X149598017Y-107694847D01*
X149692267Y-107666257D01*
X149779129Y-107619828D01*
X149855264Y-107557346D01*
X151057346Y-106355264D01*
X151119828Y-106279129D01*
X151166257Y-106192267D01*
X151194847Y-106098017D01*
X151204501Y-106000000D01*
X151194847Y-105901983D01*
X151166257Y-105807733D01*
X151119828Y-105720871D01*
X151057346Y-105644736D01*
X150917760Y-105505150D01*
X151163088Y-105553949D01*
X151429014Y-105553949D01*
X151689831Y-105502069D01*
X151935516Y-105400303D01*
X152156626Y-105252562D01*
X152344664Y-105064524D01*
X152492405Y-104843414D01*
X152594171Y-104597729D01*
X152646051Y-104336912D01*
X152646051Y-104070986D01*
X152594171Y-103810169D01*
X152520525Y-103632372D01*
X152698322Y-103706018D01*
X152959139Y-103757898D01*
X153225065Y-103757898D01*
X153485882Y-103706018D01*
X153731567Y-103604252D01*
X153952677Y-103456511D01*
X154140715Y-103268473D01*
X154288456Y-103047363D01*
X154390222Y-102801678D01*
X154442102Y-102540861D01*
X154442102Y-102274935D01*
X154390222Y-102014118D01*
X154288456Y-101768433D01*
X154140715Y-101547323D01*
X153952677Y-101359285D01*
X153731567Y-101211544D01*
X153485882Y-101109778D01*
X153225065Y-101057898D01*
X152959139Y-101057898D01*
X152698322Y-101109778D01*
X152452637Y-101211544D01*
X152231527Y-101359285D01*
X152043489Y-101547323D01*
X151895748Y-101768433D01*
X151793982Y-102014118D01*
X151742102Y-102274935D01*
X151742102Y-102540861D01*
X151793982Y-102801678D01*
X151867628Y-102979475D01*
X151689831Y-102905829D01*
X151429014Y-102853949D01*
X151163088Y-102853949D01*
X150902271Y-102905829D01*
X150656586Y-103007595D01*
X150435476Y-103155336D01*
X150247438Y-103343374D01*
X150099697Y-103564484D01*
X149997931Y-103810169D01*
X149946051Y-104070986D01*
X149946051Y-104336912D01*
X149994850Y-104582240D01*
X149855264Y-104442654D01*
X149779129Y-104380172D01*
X149692267Y-104333743D01*
X149598017Y-104305153D01*
X149500000Y-104295499D01*
X149401983Y-104305153D01*
X149307733Y-104333743D01*
X149220871Y-104380172D01*
X149144736Y-104442654D01*
X147942654Y-105644736D01*
X147880172Y-105720871D01*
X147833743Y-105807733D01*
X147805153Y-105901983D01*
X147795499Y-106000000D01*
X143784062Y-106000000D01*
X137204728Y-99420667D01*
X137300000Y-98941703D01*
X137300000Y-97858297D01*
X137169789Y-97203681D01*
X144108643Y-90889949D01*
X147129815Y-90889949D01*
X147139469Y-90987966D01*
X147168059Y-91082216D01*
X147214488Y-91169078D01*
X147276970Y-91245213D01*
X148054787Y-92023030D01*
X148130922Y-92085512D01*
X148217784Y-92131941D01*
X148312034Y-92160531D01*
X148410051Y-92170185D01*
X148508068Y-92160531D01*
X148602318Y-92131941D01*
X148689180Y-92085512D01*
X148765315Y-92023030D01*
X148898396Y-91889949D01*
X151752652Y-91889949D01*
X151793982Y-92097729D01*
X151867628Y-92275526D01*
X151689831Y-92201880D01*
X151429014Y-92150000D01*
X151163088Y-92150000D01*
X150902271Y-92201880D01*
X150656586Y-92303646D01*
X150435476Y-92451387D01*
X150247438Y-92639425D01*
X150099697Y-92860535D01*
X149997931Y-93106220D01*
X149946051Y-93367037D01*
X149946051Y-93632963D01*
X149994850Y-93878291D01*
X149855264Y-93738705D01*
X149779129Y-93676223D01*
X149692267Y-93629794D01*
X149598017Y-93601204D01*
X149500000Y-93591550D01*
X149401983Y-93601204D01*
X149307733Y-93629794D01*
X149220871Y-93676223D01*
X149144736Y-93738705D01*
X147942654Y-94940787D01*
X147880172Y-95016922D01*
X147833743Y-95103784D01*
X147805153Y-95198034D01*
X147795499Y-95296051D01*
X147805153Y-95394068D01*
X147833743Y-95488318D01*
X147880172Y-95575180D01*
X147942654Y-95651315D01*
X149144736Y-96853397D01*
X149220871Y-96915879D01*
X149307733Y-96962308D01*
X149401983Y-96990898D01*
X149500000Y-97000552D01*
X149598017Y-96990898D01*
X149692267Y-96962308D01*
X149779129Y-96915879D01*
X149855264Y-96853397D01*
X151057346Y-95651315D01*
X151119828Y-95575180D01*
X151166257Y-95488318D01*
X151194847Y-95394068D01*
X151204501Y-95296051D01*
X151194847Y-95198034D01*
X151166257Y-95103784D01*
X151119828Y-95016922D01*
X151057346Y-94940787D01*
X150917760Y-94801201D01*
X151163088Y-94850000D01*
X151429014Y-94850000D01*
X151689831Y-94798120D01*
X151935516Y-94696354D01*
X152156626Y-94548613D01*
X152344664Y-94360575D01*
X152492405Y-94139465D01*
X152594171Y-93893780D01*
X152646051Y-93632963D01*
X152646051Y-93367037D01*
X152594171Y-93106220D01*
X152520525Y-92928423D01*
X152698322Y-93002069D01*
X152959139Y-93053949D01*
X153027889Y-93053949D01*
X154100001Y-94126061D01*
X154100000Y-95105588D01*
X153988581Y-95217007D01*
X153926099Y-95293142D01*
X153879670Y-95380004D01*
X153851080Y-95474254D01*
X153841426Y-95572271D01*
X153851080Y-95670288D01*
X153879670Y-95764538D01*
X153926099Y-95851400D01*
X153988581Y-95927535D01*
X154872465Y-96811419D01*
X154948600Y-96873901D01*
X155035462Y-96920330D01*
X155129712Y-96948920D01*
X155227729Y-96958574D01*
X155325746Y-96948920D01*
X155419996Y-96920330D01*
X155506858Y-96873901D01*
X155582993Y-96811419D01*
X156643653Y-95750759D01*
X156706135Y-95674624D01*
X156752564Y-95587762D01*
X156781154Y-95493512D01*
X156790808Y-95395495D01*
X156781154Y-95297478D01*
X156752564Y-95203228D01*
X156706135Y-95116366D01*
X156643653Y-95040231D01*
X156100000Y-94496578D01*
X156100000Y-93760967D01*
X156104838Y-93711847D01*
X156085530Y-93515813D01*
X156028349Y-93327312D01*
X155935492Y-93153589D01*
X155841840Y-93039473D01*
X155810528Y-93001319D01*
X155772374Y-92970007D01*
X154442102Y-91639736D01*
X154442102Y-91570986D01*
X154390222Y-91310169D01*
X154288456Y-91064484D01*
X154140715Y-90843374D01*
X153952677Y-90655336D01*
X153731567Y-90507595D01*
X153485882Y-90405829D01*
X153225065Y-90353949D01*
X153156314Y-90353949D01*
X153019951Y-90217586D01*
X152988630Y-90179421D01*
X152836360Y-90054457D01*
X152662637Y-89961600D01*
X152474136Y-89904419D01*
X152327222Y-89889949D01*
X152278102Y-89885111D01*
X152228982Y-89889949D01*
X148898396Y-89889949D01*
X148765315Y-89756868D01*
X148689180Y-89694386D01*
X148602318Y-89647957D01*
X148508068Y-89619367D01*
X148410051Y-89609713D01*
X148312034Y-89619367D01*
X148217784Y-89647957D01*
X148130922Y-89694386D01*
X148054787Y-89756868D01*
X147276970Y-90534685D01*
X147214488Y-90610820D01*
X147168059Y-90697682D01*
X147139469Y-90791932D01*
X147129815Y-90889949D01*
X144108643Y-90889949D01*
X155663850Y-80375752D01*
X156261498Y-81161944D01*
X157441592Y-82971966D01*
X158488002Y-84862423D01*
X159395274Y-86823459D01*
X160158677Y-88844849D01*
X160774230Y-90916056D01*
X161238726Y-93026280D01*
X161549741Y-95164521D01*
X161646777Y-96505790D01*
X161352645Y-96627623D01*
X161025074Y-96846499D01*
X160746499Y-97125074D01*
X160527623Y-97452645D01*
X160376859Y-97816622D01*
X160300000Y-98203017D01*
X160300000Y-98596983D01*
X160376859Y-98983378D01*
X160527623Y-99347355D01*
X160746499Y-99674926D01*
X161025074Y-99953501D01*
X161352645Y-100172377D01*
X161646777Y-100294210D01*
X161549741Y-101635479D01*
X161238726Y-103773720D01*
X160774230Y-105883944D01*
X160158677Y-107955151D01*
X159395274Y-109976541D01*
X158488002Y-111937577D01*
X157441592Y-113828034D01*
X156261498Y-115638056D01*
X154953873Y-117358207D01*
X153525534Y-118979519D01*
X151983929Y-120493539D01*
X150337094Y-121892373D01*
X148593615Y-123168729D01*
X146762582Y-124315952D01*
X144853541Y-125328062D01*
X142876445Y-126199781D01*
X140841601Y-126926565D01*
X138759619Y-127504624D01*
X136641353Y-127930946D01*
X134497846Y-128203306D01*
X132340273Y-128320287D01*
X130179884Y-128281276D01*
X128027942Y-128086479D01*
X125895665Y-127736910D01*
X123794171Y-127234392D01*
X121734415Y-126581544D01*
X119727137Y-125781771D01*
X117782801Y-124839243D01*
X115911544Y-123758872D01*
X114123122Y-122546292D01*
X113430797Y-122000000D01*
X118095162Y-122000000D01*
X118114470Y-122196034D01*
X118171651Y-122384535D01*
X118264508Y-122558258D01*
X118389472Y-122710528D01*
X118541742Y-122835492D01*
X118715465Y-122928349D01*
X118903966Y-122985530D01*
X119050880Y-123000000D01*
X119783114Y-123000000D01*
X119832234Y-123004838D01*
X119881354Y-123000000D01*
X119961878Y-122992069D01*
X120028268Y-122985530D01*
X120098241Y-122964304D01*
X120216769Y-122928349D01*
X120390492Y-122835492D01*
X120542762Y-122710528D01*
X120574083Y-122672363D01*
X121474880Y-121771566D01*
X121506488Y-121781154D01*
X121604505Y-121790808D01*
X121702522Y-121781154D01*
X121796772Y-121752564D01*
X121883634Y-121706135D01*
X121959769Y-121643653D01*
X122843653Y-120759769D01*
X122906135Y-120683634D01*
X122952564Y-120596772D01*
X122981154Y-120502522D01*
X122990808Y-120404505D01*
X122981154Y-120306488D01*
X122952564Y-120212238D01*
X122906135Y-120125376D01*
X122843653Y-120049241D01*
X122715123Y-119920711D01*
X123814633Y-119920711D01*
X123824287Y-120018728D01*
X123852877Y-120112978D01*
X123899306Y-120199840D01*
X123961788Y-120275975D01*
X124173920Y-120488107D01*
X124250055Y-120550589D01*
X124251884Y-120551566D01*
X124252860Y-120553393D01*
X124315342Y-120629528D01*
X124527474Y-120841660D01*
X124603609Y-120904142D01*
X124605436Y-120905118D01*
X124606413Y-120906947D01*
X124668895Y-120983082D01*
X124881027Y-121195214D01*
X124957162Y-121257696D01*
X124958989Y-121258673D01*
X124959966Y-121260500D01*
X125022448Y-121336635D01*
X125234580Y-121548767D01*
X125310715Y-121611249D01*
X125312544Y-121612226D01*
X125313520Y-121614053D01*
X125376002Y-121690188D01*
X125588134Y-121902320D01*
X125664269Y-121964802D01*
X125666096Y-121965778D01*
X125667073Y-121967607D01*
X125729555Y-122043742D01*
X125747233Y-122061420D01*
X125279771Y-122528883D01*
X125255921Y-122548456D01*
X125177818Y-122643625D01*
X125119781Y-122752202D01*
X125091966Y-122843897D01*
X125040030Y-122878599D01*
X124928599Y-122990030D01*
X124841049Y-123121058D01*
X124780743Y-123266649D01*
X124750000Y-123421207D01*
X124750000Y-123578793D01*
X124780743Y-123733351D01*
X124841049Y-123878942D01*
X124928599Y-124009970D01*
X125040030Y-124121401D01*
X125171058Y-124208951D01*
X125316649Y-124269257D01*
X125471207Y-124300000D01*
X125628793Y-124300000D01*
X125696165Y-124286599D01*
X125778599Y-124409970D01*
X125890030Y-124521401D01*
X126021058Y-124608951D01*
X126166649Y-124669257D01*
X126321207Y-124700000D01*
X126478793Y-124700000D01*
X126633351Y-124669257D01*
X126778942Y-124608951D01*
X126909970Y-124521401D01*
X127021401Y-124409970D01*
X127108951Y-124278942D01*
X127169257Y-124133351D01*
X127200000Y-123978793D01*
X127200000Y-123821207D01*
X127169257Y-123666649D01*
X127108951Y-123521058D01*
X127025000Y-123395416D01*
X127025000Y-123335125D01*
X127078482Y-123379016D01*
X127080311Y-123379993D01*
X127081287Y-123381820D01*
X127143769Y-123457955D01*
X127355901Y-123670087D01*
X127432036Y-123732569D01*
X127433863Y-123733545D01*
X127434840Y-123735374D01*
X127497322Y-123811509D01*
X127709454Y-124023641D01*
X127785589Y-124086123D01*
X127787418Y-124087100D01*
X127788394Y-124088927D01*
X127850876Y-124165062D01*
X128063008Y-124377194D01*
X128139143Y-124439676D01*
X128140970Y-124440652D01*
X128141947Y-124442481D01*
X128204429Y-124518616D01*
X128312386Y-124626573D01*
X128178793Y-124600000D01*
X128021207Y-124600000D01*
X127866649Y-124630743D01*
X127721058Y-124691049D01*
X127590030Y-124778599D01*
X127478599Y-124890030D01*
X127391049Y-125021058D01*
X127330743Y-125166649D01*
X127300000Y-125321207D01*
X127300000Y-125478793D01*
X127330743Y-125633351D01*
X127391049Y-125778942D01*
X127478599Y-125909970D01*
X127590030Y-126021401D01*
X127721058Y-126108951D01*
X127866649Y-126169257D01*
X128021207Y-126200000D01*
X128178793Y-126200000D01*
X128333351Y-126169257D01*
X128478942Y-126108951D01*
X128604584Y-126025000D01*
X128918696Y-126025000D01*
X128949390Y-126028023D01*
X128980084Y-126025000D01*
X128980094Y-126025000D01*
X129071911Y-126015957D01*
X129189724Y-125980219D01*
X129298301Y-125922183D01*
X129393470Y-125844080D01*
X129413048Y-125820224D01*
X129704086Y-125529187D01*
X129758061Y-125500336D01*
X129834196Y-125437854D01*
X131248410Y-124023640D01*
X131249813Y-124021930D01*
X132229204Y-124021930D01*
X132238858Y-124119947D01*
X132267448Y-124214197D01*
X132313877Y-124301059D01*
X132376359Y-124377194D01*
X133790573Y-125791408D01*
X133866708Y-125853890D01*
X133953570Y-125900319D01*
X134047820Y-125928909D01*
X134145837Y-125938563D01*
X134243854Y-125928909D01*
X134338104Y-125900319D01*
X134424966Y-125853890D01*
X134501101Y-125791408D01*
X134713233Y-125579276D01*
X134775715Y-125503141D01*
X134776692Y-125501312D01*
X134778519Y-125500336D01*
X134854654Y-125437854D01*
X135066786Y-125225722D01*
X135129268Y-125149587D01*
X135130244Y-125147760D01*
X135132073Y-125146783D01*
X135208208Y-125084301D01*
X135420340Y-124872169D01*
X135482822Y-124796034D01*
X135483799Y-124794207D01*
X135485626Y-124793230D01*
X135561761Y-124730748D01*
X135773893Y-124518616D01*
X135836375Y-124442481D01*
X135837352Y-124440652D01*
X135839179Y-124439676D01*
X135915314Y-124377194D01*
X136127446Y-124165062D01*
X136189928Y-124088927D01*
X136190904Y-124087100D01*
X136192733Y-124086123D01*
X136268868Y-124023641D01*
X136481000Y-123811509D01*
X136543482Y-123735374D01*
X136544459Y-123733545D01*
X136546286Y-123732569D01*
X136622421Y-123670087D01*
X136834553Y-123457955D01*
X136897035Y-123381820D01*
X136898011Y-123379993D01*
X136899840Y-123379016D01*
X136975975Y-123316534D01*
X137188107Y-123104402D01*
X137250589Y-123028267D01*
X137251566Y-123026440D01*
X137253393Y-123025463D01*
X137329528Y-122962981D01*
X137541660Y-122750849D01*
X137604142Y-122674714D01*
X137605119Y-122672885D01*
X137606946Y-122671909D01*
X137683081Y-122609427D01*
X137703526Y-122588982D01*
X137743982Y-122622183D01*
X137852559Y-122680219D01*
X137970372Y-122715957D01*
X138062189Y-122725000D01*
X138062191Y-122725000D01*
X138092893Y-122728024D01*
X138123594Y-122725000D01*
X138195416Y-122725000D01*
X138321058Y-122808951D01*
X138466649Y-122869257D01*
X138621207Y-122900000D01*
X138778793Y-122900000D01*
X138933351Y-122869257D01*
X139078942Y-122808951D01*
X139209970Y-122721401D01*
X139321401Y-122609970D01*
X139408951Y-122478942D01*
X139469257Y-122333351D01*
X139500000Y-122178793D01*
X139500000Y-122021207D01*
X139482755Y-121934507D01*
X139566649Y-121969257D01*
X139721207Y-122000000D01*
X139878793Y-122000000D01*
X140033351Y-121969257D01*
X140178942Y-121908951D01*
X140309970Y-121821401D01*
X140421401Y-121709970D01*
X140508951Y-121578942D01*
X140568266Y-121435743D01*
X140593865Y-121483634D01*
X140656347Y-121559769D01*
X141540231Y-122443653D01*
X141616366Y-122506135D01*
X141703228Y-122552564D01*
X141797478Y-122581154D01*
X141895495Y-122590808D01*
X141993512Y-122581154D01*
X142087762Y-122552564D01*
X142174624Y-122506135D01*
X142250759Y-122443653D01*
X143311419Y-121382993D01*
X143373901Y-121306858D01*
X143420330Y-121219996D01*
X143448920Y-121125746D01*
X143458574Y-121027729D01*
X143449391Y-120934492D01*
X143585146Y-120798736D01*
X143733351Y-120769257D01*
X143878942Y-120708951D01*
X144009970Y-120621401D01*
X144121401Y-120509970D01*
X144208951Y-120378942D01*
X144269257Y-120233351D01*
X144300000Y-120078793D01*
X144300000Y-119921207D01*
X144269257Y-119766649D01*
X144208951Y-119621058D01*
X144121401Y-119490030D01*
X144009970Y-119378599D01*
X143878942Y-119291049D01*
X143733351Y-119230743D01*
X143578793Y-119200000D01*
X143421207Y-119200000D01*
X143266649Y-119230743D01*
X143121058Y-119291049D01*
X142990030Y-119378599D01*
X142878599Y-119490030D01*
X142791049Y-119621058D01*
X142730743Y-119766649D01*
X142701264Y-119914854D01*
X142627536Y-119988582D01*
X142427535Y-119788581D01*
X142351400Y-119726099D01*
X142264538Y-119679670D01*
X142170288Y-119651080D01*
X142072271Y-119641426D01*
X141974254Y-119651080D01*
X141880004Y-119679670D01*
X141793142Y-119726099D01*
X141717007Y-119788581D01*
X140656347Y-120849241D01*
X140593865Y-120925376D01*
X140569948Y-120970122D01*
X140569257Y-120966649D01*
X140508951Y-120821058D01*
X140421401Y-120690030D01*
X140309970Y-120578599D01*
X140178942Y-120491049D01*
X140033351Y-120430743D01*
X139890233Y-120402276D01*
X140016534Y-120275975D01*
X140079016Y-120199840D01*
X140125445Y-120112978D01*
X140154035Y-120018728D01*
X140163689Y-119920711D01*
X140154035Y-119822694D01*
X140125445Y-119728444D01*
X140079016Y-119641582D01*
X140016534Y-119565447D01*
X138602320Y-118151233D01*
X138526185Y-118088751D01*
X138439323Y-118042322D01*
X138345073Y-118013732D01*
X138247056Y-118004078D01*
X138149039Y-118013732D01*
X138054789Y-118042322D01*
X137967927Y-118088751D01*
X137891792Y-118151233D01*
X137679660Y-118363365D01*
X137617178Y-118439500D01*
X137616202Y-118441327D01*
X137614373Y-118442304D01*
X137538238Y-118504786D01*
X137326106Y-118716918D01*
X137263624Y-118793053D01*
X137262647Y-118794882D01*
X137260820Y-118795858D01*
X137184685Y-118858340D01*
X137128875Y-118914150D01*
X137029629Y-118884044D01*
X136937812Y-118875001D01*
X136937802Y-118875001D01*
X136907108Y-118871978D01*
X136876414Y-118875001D01*
X134430692Y-118875001D01*
X134399998Y-118871978D01*
X134369304Y-118875001D01*
X134369295Y-118875001D01*
X134277478Y-118884044D01*
X134159665Y-118919782D01*
X134159663Y-118919783D01*
X134051086Y-118977819D01*
X134013548Y-119008626D01*
X133955919Y-119055921D01*
X133936345Y-119079772D01*
X133614854Y-119401264D01*
X133466649Y-119430743D01*
X133321058Y-119491049D01*
X133190030Y-119578599D01*
X133078599Y-119690030D01*
X132991049Y-119821058D01*
X132930743Y-119966649D01*
X132900000Y-120121207D01*
X132900000Y-120278793D01*
X132930743Y-120433351D01*
X132991049Y-120578942D01*
X133078599Y-120709970D01*
X133190030Y-120821401D01*
X133321058Y-120908951D01*
X133466649Y-120969257D01*
X133621207Y-121000000D01*
X133778793Y-121000000D01*
X133933351Y-120969257D01*
X134078942Y-120908951D01*
X134209970Y-120821401D01*
X134321401Y-120709970D01*
X134408951Y-120578942D01*
X134469257Y-120433351D01*
X134498736Y-120285146D01*
X134658882Y-120125001D01*
X135918024Y-120125001D01*
X135911893Y-120131132D01*
X135849411Y-120207267D01*
X135848435Y-120209094D01*
X135846606Y-120210071D01*
X135770471Y-120272553D01*
X135558339Y-120484685D01*
X135495857Y-120560820D01*
X135494880Y-120562649D01*
X135493053Y-120563625D01*
X135416918Y-120626107D01*
X135204786Y-120838239D01*
X135142304Y-120914374D01*
X135141327Y-120916201D01*
X135139500Y-120917178D01*
X135063365Y-120979660D01*
X134851233Y-121191792D01*
X134788751Y-121267927D01*
X134787775Y-121269754D01*
X134785946Y-121270731D01*
X134709811Y-121333213D01*
X134497679Y-121545345D01*
X134435197Y-121621480D01*
X134434220Y-121623309D01*
X134432393Y-121624285D01*
X134356258Y-121686767D01*
X134144126Y-121898899D01*
X134081644Y-121975034D01*
X134080668Y-121976861D01*
X134078839Y-121977838D01*
X134002704Y-122040320D01*
X133790572Y-122252452D01*
X133728090Y-122328587D01*
X133727113Y-122330416D01*
X133725286Y-122331392D01*
X133649151Y-122393874D01*
X133437019Y-122606006D01*
X133374537Y-122682141D01*
X133373560Y-122683968D01*
X133371733Y-122684945D01*
X133295598Y-122747427D01*
X133083466Y-122959559D01*
X133020984Y-123035694D01*
X133020008Y-123037521D01*
X133018179Y-123038498D01*
X132942044Y-123100980D01*
X132729912Y-123313112D01*
X132667430Y-123389247D01*
X132666453Y-123391076D01*
X132664626Y-123392052D01*
X132588491Y-123454534D01*
X132376359Y-123666666D01*
X132313877Y-123742801D01*
X132267448Y-123829663D01*
X132238858Y-123923913D01*
X132229204Y-124021930D01*
X131249813Y-124021930D01*
X131310892Y-123947505D01*
X131357321Y-123860643D01*
X131385911Y-123766393D01*
X131395565Y-123668376D01*
X131385911Y-123570359D01*
X131357321Y-123476109D01*
X131310892Y-123389247D01*
X131248410Y-123313112D01*
X131036278Y-123100980D01*
X130960143Y-123038498D01*
X130958314Y-123037521D01*
X130957338Y-123035694D01*
X130894856Y-122959559D01*
X130682724Y-122747427D01*
X130606589Y-122684945D01*
X130604762Y-122683968D01*
X130603785Y-122682141D01*
X130541303Y-122606006D01*
X130329171Y-122393874D01*
X130253036Y-122331392D01*
X130251209Y-122330416D01*
X130250232Y-122328587D01*
X130187750Y-122252452D01*
X129975618Y-122040320D01*
X129899483Y-121977838D01*
X129897654Y-121976861D01*
X129896678Y-121975034D01*
X129834196Y-121898899D01*
X129622064Y-121686767D01*
X129545929Y-121624285D01*
X129544102Y-121623309D01*
X129543125Y-121621480D01*
X129480643Y-121545345D01*
X129268511Y-121333213D01*
X129192376Y-121270731D01*
X129190547Y-121269754D01*
X129189571Y-121267927D01*
X129127089Y-121191792D01*
X128914957Y-120979660D01*
X128838822Y-120917178D01*
X128836995Y-120916201D01*
X128836018Y-120914374D01*
X128773536Y-120838239D01*
X128561404Y-120626107D01*
X128485269Y-120563625D01*
X128483442Y-120562649D01*
X128482465Y-120560820D01*
X128419983Y-120484685D01*
X128207851Y-120272553D01*
X128131716Y-120210071D01*
X128129887Y-120209094D01*
X128128911Y-120207267D01*
X128066429Y-120131132D01*
X127854297Y-119919000D01*
X127778162Y-119856518D01*
X127776335Y-119855542D01*
X127775358Y-119853713D01*
X127712876Y-119777578D01*
X127560299Y-119625001D01*
X128568706Y-119625001D01*
X128591049Y-119678942D01*
X128678599Y-119809970D01*
X128790030Y-119921401D01*
X128921058Y-120008951D01*
X129066649Y-120069257D01*
X129221207Y-120100000D01*
X129378793Y-120100000D01*
X129533351Y-120069257D01*
X129678942Y-120008951D01*
X129809970Y-119921401D01*
X129921401Y-119809970D01*
X130008951Y-119678942D01*
X130069257Y-119533351D01*
X130100000Y-119378793D01*
X130100000Y-119221207D01*
X130069257Y-119066649D01*
X130064921Y-119056180D01*
X130178942Y-119008951D01*
X130309970Y-118921401D01*
X130421401Y-118809970D01*
X130508951Y-118678942D01*
X130569257Y-118533351D01*
X130600000Y-118378793D01*
X130600000Y-118221207D01*
X130569257Y-118066649D01*
X130508951Y-117921058D01*
X130421401Y-117790030D01*
X130309970Y-117678599D01*
X130184860Y-117595003D01*
X130184860Y-117485880D01*
X130154117Y-117331322D01*
X130093811Y-117185731D01*
X130006261Y-117054703D01*
X129894830Y-116943272D01*
X129763802Y-116855722D01*
X129618211Y-116795416D01*
X129463653Y-116764673D01*
X129306067Y-116764673D01*
X129151509Y-116795416D01*
X129005918Y-116855722D01*
X128880276Y-116939673D01*
X126915915Y-116939673D01*
X126885221Y-116936650D01*
X126854527Y-116939673D01*
X126854518Y-116939673D01*
X126762701Y-116948716D01*
X126644888Y-116984454D01*
X126644886Y-116984455D01*
X126536309Y-117042491D01*
X126493260Y-117077821D01*
X126441142Y-117120593D01*
X126421568Y-117144444D01*
X125506112Y-118059901D01*
X125452137Y-118088751D01*
X125376002Y-118151233D01*
X123961788Y-119565447D01*
X123899306Y-119641582D01*
X123852877Y-119728444D01*
X123824287Y-119822694D01*
X123814633Y-119920711D01*
X122715123Y-119920711D01*
X121782993Y-118988581D01*
X121706858Y-118926099D01*
X121619996Y-118879670D01*
X121525746Y-118851080D01*
X121427729Y-118841426D01*
X121329712Y-118851080D01*
X121235462Y-118879670D01*
X121148600Y-118926099D01*
X121072465Y-118988581D01*
X120188581Y-119872465D01*
X120126099Y-119948600D01*
X120079670Y-120035462D01*
X120051080Y-120129712D01*
X120041426Y-120227729D01*
X120051080Y-120325746D01*
X120060668Y-120357354D01*
X119418022Y-121000000D01*
X119050880Y-121000000D01*
X118903966Y-121014470D01*
X118715465Y-121071651D01*
X118541742Y-121164508D01*
X118389472Y-121289472D01*
X118264508Y-121441742D01*
X118171651Y-121615465D01*
X118114470Y-121803966D01*
X118095162Y-122000000D01*
X113430797Y-122000000D01*
X112426859Y-121207824D01*
X110831599Y-119750447D01*
X109345659Y-118181759D01*
X107976784Y-116509938D01*
X106732114Y-114743699D01*
X105618135Y-112892253D01*
X104640657Y-110965250D01*
X103804775Y-108972738D01*
X103114847Y-106925105D01*
X102574470Y-104833026D01*
X102186461Y-102707408D01*
X101952844Y-100559333D01*
X101874836Y-98400000D01*
X101952844Y-96240667D01*
X102186461Y-94092592D01*
X102574470Y-91966974D01*
X103114847Y-89874895D01*
X103804775Y-87827262D01*
X104640657Y-85834750D01*
X105618135Y-83907747D01*
X106732114Y-82056301D01*
X107976784Y-80290062D01*
X109345659Y-78618241D01*
X110831599Y-77049553D01*
X112426859Y-75592176D01*
X114123122Y-74253708D01*
X115911544Y-73041128D01*
X117782801Y-71960757D01*
X118870652Y-71433415D01*
X121729095Y-78274933D01*
%TA.AperFunction,Conductor*%
D23*
G36*
X121729095Y-78274933D02*
G01*
X121701264Y-78414853D01*
X120479772Y-79636346D01*
X120455921Y-79655920D01*
X120436348Y-79679770D01*
X120377818Y-79751089D01*
X120319782Y-79859666D01*
X120284044Y-79977479D01*
X120271977Y-80100000D01*
X120275001Y-80130704D01*
X120275000Y-81295416D01*
X120191049Y-81421058D01*
X120130743Y-81566649D01*
X120100000Y-81721207D01*
X120100000Y-81878793D01*
X120130743Y-82033351D01*
X120191049Y-82178942D01*
X120278599Y-82309970D01*
X120390030Y-82421401D01*
X120521058Y-82508951D01*
X120666649Y-82569257D01*
X120821207Y-82600000D01*
X120978793Y-82600000D01*
X121133351Y-82569257D01*
X121278942Y-82508951D01*
X121409970Y-82421401D01*
X121521401Y-82309970D01*
X121608951Y-82178942D01*
X121669257Y-82033351D01*
X121700000Y-81878793D01*
X121700000Y-81721207D01*
X121669257Y-81566649D01*
X121608951Y-81421058D01*
X121525000Y-81295416D01*
X121525000Y-80358882D01*
X122283062Y-79600821D01*
X123577924Y-82700000D01*
X123421207Y-82700000D01*
X123266649Y-82730743D01*
X123121058Y-82791049D01*
X122995416Y-82875000D01*
X115933147Y-82875000D01*
X120170230Y-78637917D01*
X120194080Y-78618344D01*
X120233273Y-78570587D01*
X120272182Y-78523177D01*
X120330218Y-78414600D01*
X120341479Y-78377478D01*
X120365957Y-78296785D01*
X120375000Y-78204968D01*
X120375000Y-78204959D01*
X120378023Y-78174265D01*
X120375000Y-78143571D01*
X120375000Y-78004584D01*
X120458951Y-77878942D01*
X120519257Y-77733351D01*
X120550000Y-77578793D01*
X120550000Y-77421207D01*
X120519257Y-77266649D01*
X120458951Y-77121058D01*
X120371401Y-76990030D01*
X120259970Y-76878599D01*
X120128942Y-76791049D01*
X119983351Y-76730743D01*
X119828793Y-76700000D01*
X119671207Y-76700000D01*
X119516649Y-76730743D01*
X119371058Y-76791049D01*
X119240030Y-76878599D01*
X119128599Y-76990030D01*
X119041049Y-77121058D01*
X118980743Y-77266649D01*
X118950000Y-77421207D01*
X118950000Y-77578793D01*
X118980743Y-77733351D01*
X119041049Y-77878942D01*
X119089270Y-77951111D01*
X118835876Y-78204505D01*
X118759970Y-78128599D01*
X118628942Y-78041049D01*
X118483351Y-77980743D01*
X118328793Y-77950000D01*
X118171207Y-77950000D01*
X118016649Y-77980743D01*
X117871058Y-78041049D01*
X117740030Y-78128599D01*
X117628599Y-78240030D01*
X117541049Y-78371058D01*
X117480743Y-78516649D01*
X117451264Y-78664852D01*
X105179772Y-90936346D01*
X105155921Y-90955920D01*
X105136348Y-90979770D01*
X105077818Y-91051089D01*
X105019782Y-91159666D01*
X104984044Y-91277479D01*
X104971977Y-91400000D01*
X104975001Y-91430704D01*
X104975000Y-107069306D01*
X104971977Y-107100000D01*
X104975000Y-107130694D01*
X104975000Y-107130703D01*
X104984043Y-107222520D01*
X105019781Y-107340333D01*
X105077817Y-107448910D01*
X105155920Y-107544080D01*
X105179776Y-107563658D01*
X110336351Y-112720235D01*
X110355920Y-112744080D01*
X110379765Y-112763649D01*
X110379769Y-112763653D01*
X110451088Y-112822183D01*
X110495514Y-112845929D01*
X110559666Y-112880219D01*
X110677479Y-112915957D01*
X110769296Y-112925000D01*
X110769298Y-112925000D01*
X110800000Y-112928024D01*
X110830702Y-112925000D01*
X122891117Y-112925000D01*
X122814854Y-113001264D01*
X122666649Y-113030743D01*
X122521058Y-113091049D01*
X122390030Y-113178599D01*
X122278599Y-113290030D01*
X122191049Y-113421058D01*
X122130743Y-113566649D01*
X122100000Y-113721207D01*
X122100000Y-113878793D01*
X122130743Y-114033351D01*
X122191049Y-114178942D01*
X122278599Y-114309970D01*
X122390030Y-114421401D01*
X122521058Y-114508951D01*
X122666649Y-114569257D01*
X122821207Y-114600000D01*
X122978793Y-114600000D01*
X123133351Y-114569257D01*
X123278942Y-114508951D01*
X123409970Y-114421401D01*
X123521401Y-114309970D01*
X123602076Y-114189231D01*
X123630743Y-114333351D01*
X123691049Y-114478942D01*
X123775000Y-114604584D01*
X123775000Y-114740374D01*
X123771977Y-114771068D01*
X123775000Y-114801762D01*
X123775000Y-114801772D01*
X123784043Y-114893589D01*
X123819781Y-115011402D01*
X123877818Y-115119979D01*
X123955921Y-115215148D01*
X123979772Y-115234722D01*
X124224009Y-115478960D01*
X124252860Y-115532935D01*
X124315342Y-115609070D01*
X125729556Y-117023284D01*
X125805691Y-117085766D01*
X125892553Y-117132195D01*
X125986803Y-117160785D01*
X126084820Y-117170439D01*
X126182837Y-117160785D01*
X126277087Y-117132195D01*
X126363949Y-117085766D01*
X126440084Y-117023284D01*
X126652216Y-116811152D01*
X126714698Y-116735017D01*
X126715675Y-116733188D01*
X126717502Y-116732212D01*
X126793637Y-116669730D01*
X127005769Y-116457598D01*
X127068251Y-116381463D01*
X127069228Y-116379636D01*
X127071055Y-116378659D01*
X127147190Y-116316177D01*
X127359322Y-116104045D01*
X127421804Y-116027910D01*
X127422780Y-116026083D01*
X127424609Y-116025106D01*
X127500744Y-115962624D01*
X127712876Y-115750492D01*
X127775358Y-115674357D01*
X127776335Y-115672528D01*
X127778162Y-115671552D01*
X127854297Y-115609070D01*
X128066429Y-115396938D01*
X128128911Y-115320803D01*
X128129887Y-115318976D01*
X128131716Y-115317999D01*
X128207851Y-115255517D01*
X128419983Y-115043385D01*
X128482465Y-114967250D01*
X128483442Y-114965421D01*
X128485269Y-114964445D01*
X128561404Y-114901963D01*
X128773536Y-114689831D01*
X128836018Y-114613696D01*
X128836995Y-114611869D01*
X128838822Y-114610892D01*
X128914957Y-114548410D01*
X129127089Y-114336278D01*
X129189571Y-114260143D01*
X129190547Y-114258316D01*
X129192376Y-114257339D01*
X129268511Y-114194857D01*
X129480643Y-113982725D01*
X129543125Y-113906590D01*
X129544102Y-113904761D01*
X129545929Y-113903785D01*
X129622064Y-113841303D01*
X129834196Y-113629171D01*
X129896678Y-113553036D01*
X129897654Y-113551209D01*
X129899483Y-113550232D01*
X129975618Y-113487750D01*
X130187750Y-113275618D01*
X130250232Y-113199483D01*
X130251209Y-113197654D01*
X130253036Y-113196678D01*
X130329171Y-113134196D01*
X130541303Y-112922064D01*
X130603785Y-112845929D01*
X130604762Y-112844102D01*
X130606589Y-112843125D01*
X130682724Y-112780643D01*
X130894856Y-112568511D01*
X130957338Y-112492376D01*
X130958314Y-112490549D01*
X130960143Y-112489572D01*
X131036278Y-112427090D01*
X131248410Y-112214958D01*
X131310892Y-112138823D01*
X131311869Y-112136994D01*
X131313696Y-112136018D01*
X131389831Y-112073536D01*
X131601963Y-111861404D01*
X131664445Y-111785269D01*
X131710874Y-111698407D01*
X131739464Y-111604157D01*
X131749118Y-111506140D01*
X132229204Y-111506140D01*
X132238858Y-111604157D01*
X132267448Y-111698407D01*
X132313877Y-111785269D01*
X132376359Y-111861404D01*
X132588491Y-112073536D01*
X132664626Y-112136018D01*
X132666453Y-112136994D01*
X132667430Y-112138823D01*
X132729912Y-112214958D01*
X132942044Y-112427090D01*
X133018179Y-112489572D01*
X133020008Y-112490549D01*
X133020984Y-112492376D01*
X133083466Y-112568511D01*
X133295598Y-112780643D01*
X133371733Y-112843125D01*
X133373560Y-112844102D01*
X133374537Y-112845929D01*
X133437019Y-112922064D01*
X133649151Y-113134196D01*
X133725286Y-113196678D01*
X133727113Y-113197654D01*
X133728090Y-113199483D01*
X133790572Y-113275618D01*
X134002704Y-113487750D01*
X134078839Y-113550232D01*
X134080668Y-113551209D01*
X134081644Y-113553036D01*
X134144126Y-113629171D01*
X134356258Y-113841303D01*
X134432393Y-113903785D01*
X134519255Y-113950214D01*
X134554773Y-113960988D01*
X134409627Y-114106133D01*
X134378793Y-114100000D01*
X134221207Y-114100000D01*
X134066649Y-114130743D01*
X133921058Y-114191049D01*
X133790030Y-114278599D01*
X133678599Y-114390030D01*
X133591049Y-114521058D01*
X133530743Y-114666649D01*
X133500000Y-114821207D01*
X133500000Y-114978793D01*
X133530743Y-115133351D01*
X133591049Y-115278942D01*
X133678599Y-115409970D01*
X133790030Y-115521401D01*
X133921058Y-115608951D01*
X134066649Y-115669257D01*
X134221207Y-115700000D01*
X134378793Y-115700000D01*
X134533351Y-115669257D01*
X134678942Y-115608951D01*
X134804584Y-115525000D01*
X134989416Y-115525000D01*
X134930743Y-115666649D01*
X134900000Y-115821207D01*
X134900000Y-115978793D01*
X134930743Y-116133351D01*
X134979658Y-116251441D01*
X134902486Y-116259042D01*
X134784673Y-116294780D01*
X134676096Y-116352816D01*
X134580927Y-116430919D01*
X134561349Y-116454775D01*
X134514854Y-116501270D01*
X134366649Y-116530749D01*
X134221058Y-116591055D01*
X134090030Y-116678605D01*
X133978599Y-116790036D01*
X133891049Y-116921064D01*
X133830743Y-117066655D01*
X133800000Y-117221213D01*
X133800000Y-117378799D01*
X133830743Y-117533357D01*
X133891049Y-117678948D01*
X133978599Y-117809976D01*
X134090030Y-117921407D01*
X134221058Y-118008957D01*
X134366649Y-118069263D01*
X134521207Y-118100006D01*
X134678793Y-118100006D01*
X134833351Y-118069263D01*
X134847485Y-118063408D01*
X134878599Y-118109974D01*
X134990030Y-118221405D01*
X135121058Y-118308955D01*
X135266649Y-118369261D01*
X135421207Y-118400004D01*
X135578793Y-118400004D01*
X135733351Y-118369261D01*
X135878942Y-118308955D01*
X136004584Y-118225004D01*
X137425799Y-118225004D01*
X137456493Y-118228027D01*
X137487187Y-118225004D01*
X137487197Y-118225004D01*
X137579014Y-118215961D01*
X137696827Y-118180223D01*
X137805404Y-118122187D01*
X137900573Y-118044084D01*
X137920151Y-118020228D01*
X138472210Y-117468169D01*
X138526185Y-117439319D01*
X138602320Y-117376837D01*
X140016534Y-115962623D01*
X140079016Y-115886488D01*
X140125445Y-115799626D01*
X140154035Y-115705376D01*
X140163689Y-115607359D01*
X140154035Y-115509342D01*
X140125445Y-115415092D01*
X140079016Y-115328230D01*
X140016534Y-115252095D01*
X139804402Y-115039963D01*
X139728267Y-114977481D01*
X139726438Y-114976504D01*
X139725462Y-114974677D01*
X139662980Y-114898542D01*
X139450848Y-114686410D01*
X139374713Y-114623928D01*
X139372886Y-114622952D01*
X139371909Y-114621123D01*
X139309427Y-114544988D01*
X139097295Y-114332856D01*
X139021160Y-114270374D01*
X139019333Y-114269397D01*
X139018356Y-114267570D01*
X138955874Y-114191435D01*
X138743742Y-113979303D01*
X138667607Y-113916821D01*
X138665778Y-113915844D01*
X138664802Y-113914017D01*
X138602320Y-113837882D01*
X138390188Y-113625750D01*
X138314053Y-113563268D01*
X138312226Y-113562292D01*
X138311249Y-113560463D01*
X138248767Y-113484328D01*
X138036635Y-113272196D01*
X137960500Y-113209714D01*
X137958671Y-113208737D01*
X137957695Y-113206910D01*
X137895213Y-113130775D01*
X137683081Y-112918643D01*
X137606946Y-112856161D01*
X137605119Y-112855185D01*
X137604142Y-112853356D01*
X137541660Y-112777221D01*
X137329528Y-112565089D01*
X137253393Y-112502607D01*
X137251566Y-112501630D01*
X137250589Y-112499803D01*
X137188107Y-112423668D01*
X136975975Y-112211536D01*
X136899840Y-112149054D01*
X136812978Y-112102625D01*
X136718728Y-112074035D01*
X136627488Y-112065048D01*
X136618501Y-111973808D01*
X136589911Y-111879558D01*
X136543482Y-111792696D01*
X136487926Y-111725001D01*
X137641119Y-111725001D01*
X137675270Y-111759152D01*
X137630743Y-111866649D01*
X137600000Y-112021207D01*
X137600000Y-112178793D01*
X137630743Y-112333351D01*
X137691049Y-112478942D01*
X137778599Y-112609970D01*
X137890030Y-112721401D01*
X138021058Y-112808951D01*
X138166649Y-112869257D01*
X138321207Y-112900000D01*
X138478793Y-112900000D01*
X138633351Y-112869257D01*
X138647486Y-112863402D01*
X138678599Y-112909966D01*
X138790030Y-113021397D01*
X138921058Y-113108947D01*
X139066649Y-113169253D01*
X139221207Y-113199996D01*
X139378793Y-113199996D01*
X139533351Y-113169253D01*
X139678942Y-113108947D01*
X139809970Y-113021397D01*
X139921401Y-112909966D01*
X140008951Y-112778938D01*
X140069257Y-112633347D01*
X140100000Y-112478789D01*
X140100000Y-112321203D01*
X140069257Y-112166645D01*
X140008951Y-112021054D01*
X139925000Y-111895412D01*
X139925000Y-111806437D01*
X139928024Y-111775736D01*
X139922783Y-111722521D01*
X139915957Y-111653215D01*
X139880219Y-111535402D01*
X139822183Y-111426825D01*
X139744080Y-111331656D01*
X139720230Y-111312083D01*
X138587922Y-110179776D01*
X138568344Y-110155920D01*
X138473175Y-110077817D01*
X138364598Y-110019781D01*
X138246785Y-109984043D01*
X138154968Y-109975000D01*
X138154958Y-109975000D01*
X138124264Y-109971977D01*
X138093570Y-109975000D01*
X135294810Y-109975000D01*
X135264109Y-109971976D01*
X135233407Y-109975000D01*
X135233405Y-109975000D01*
X135141588Y-109984043D01*
X135023775Y-110019781D01*
X134915198Y-110077817D01*
X134875134Y-110110696D01*
X134854654Y-110090216D01*
X134778519Y-110027734D01*
X134776692Y-110026758D01*
X134775715Y-110024929D01*
X134713233Y-109948794D01*
X134501101Y-109736662D01*
X134424966Y-109674180D01*
X134338104Y-109627751D01*
X134243854Y-109599161D01*
X134145837Y-109589507D01*
X134047820Y-109599161D01*
X133953570Y-109627751D01*
X133866708Y-109674180D01*
X133790573Y-109736662D01*
X132376359Y-111150876D01*
X132313877Y-111227011D01*
X132267448Y-111313873D01*
X132238858Y-111408123D01*
X132229204Y-111506140D01*
X131749118Y-111506140D01*
X131739464Y-111408123D01*
X131710874Y-111313873D01*
X131664445Y-111227011D01*
X131601963Y-111150876D01*
X130187749Y-109736662D01*
X130111614Y-109674180D01*
X130057639Y-109645330D01*
X129892085Y-109479776D01*
X129872507Y-109455920D01*
X129777338Y-109377817D01*
X129668761Y-109319781D01*
X129550948Y-109284043D01*
X129459131Y-109275000D01*
X129459121Y-109275000D01*
X129428427Y-109271977D01*
X129397733Y-109275000D01*
X124178883Y-109275000D01*
X121602527Y-106698644D01*
X121652757Y-106604670D01*
X121689883Y-106482281D01*
X121702419Y-106355000D01*
X121702419Y-106055000D01*
X121689883Y-105927719D01*
X121652757Y-105805330D01*
X121592467Y-105692535D01*
X121511330Y-105593670D01*
X121482488Y-105570000D01*
X121511330Y-105546330D01*
X121592467Y-105447465D01*
X121652757Y-105334670D01*
X121689883Y-105212281D01*
X121702419Y-105085000D01*
X121702419Y-104785000D01*
X121689883Y-104657719D01*
X121652757Y-104535330D01*
X121592467Y-104422535D01*
X121511330Y-104323670D01*
X121482488Y-104300000D01*
X121511330Y-104276330D01*
X121592467Y-104177465D01*
X121652757Y-104064670D01*
X121689883Y-103942281D01*
X121702419Y-103815000D01*
X121702419Y-103515000D01*
X121689883Y-103387719D01*
X121652757Y-103265330D01*
X121592467Y-103152535D01*
X121511330Y-103053670D01*
X121412465Y-102972533D01*
X121299670Y-102912243D01*
X121177281Y-102875117D01*
X121050000Y-102862581D01*
X119400000Y-102862581D01*
X119272719Y-102875117D01*
X119150330Y-102912243D01*
X119037535Y-102972533D01*
X118938670Y-103053670D01*
X118857533Y-103152535D01*
X118797243Y-103265330D01*
X118760117Y-103387719D01*
X118747581Y-103515000D01*
X118747581Y-103815000D01*
X118760117Y-103942281D01*
X118797243Y-104064670D01*
X118857533Y-104177465D01*
X118938670Y-104276330D01*
X118967512Y-104300000D01*
X118938670Y-104323670D01*
X118857533Y-104422535D01*
X118797243Y-104535330D01*
X118760117Y-104657719D01*
X118747581Y-104785000D01*
X118747581Y-105085000D01*
X118760117Y-105212281D01*
X118797243Y-105334670D01*
X118857533Y-105447465D01*
X118938670Y-105546330D01*
X118967512Y-105570000D01*
X118938670Y-105593670D01*
X118857533Y-105692535D01*
X118797243Y-105805330D01*
X118760117Y-105927719D01*
X118747581Y-106055000D01*
X118747581Y-106355000D01*
X118760117Y-106482281D01*
X118797243Y-106604670D01*
X118857533Y-106717465D01*
X118938670Y-106816330D01*
X119037535Y-106897467D01*
X119150330Y-106957757D01*
X119272719Y-106994883D01*
X119400000Y-107007419D01*
X120143537Y-107007419D01*
X123456346Y-110320229D01*
X123475920Y-110344080D01*
X123517840Y-110378483D01*
X123571087Y-110422182D01*
X123611473Y-110443769D01*
X123679666Y-110480219D01*
X123797479Y-110515957D01*
X123889296Y-110525000D01*
X123889305Y-110525000D01*
X123919999Y-110528023D01*
X123950693Y-110525000D01*
X128688883Y-110525000D01*
X128557982Y-110655901D01*
X128495500Y-110732036D01*
X128494523Y-110733863D01*
X128492696Y-110734840D01*
X128416561Y-110797322D01*
X128204429Y-111009454D01*
X128141947Y-111085589D01*
X128140970Y-111087418D01*
X128139143Y-111088394D01*
X128063008Y-111150876D01*
X128045330Y-111168555D01*
X127756551Y-110879776D01*
X127736973Y-110855920D01*
X127641804Y-110777817D01*
X127533227Y-110719781D01*
X127415414Y-110684043D01*
X127323597Y-110675000D01*
X127323587Y-110675000D01*
X127292893Y-110671977D01*
X127262199Y-110675000D01*
X111595293Y-110675000D01*
X108009095Y-107088803D01*
X108109970Y-107021401D01*
X108221401Y-106909970D01*
X108308951Y-106778942D01*
X108369257Y-106633351D01*
X108398736Y-106485146D01*
X109458883Y-105425000D01*
X112595414Y-105425000D01*
X112721056Y-105508951D01*
X112866647Y-105569257D01*
X113021205Y-105600000D01*
X113178791Y-105600000D01*
X113333349Y-105569257D01*
X113478940Y-105508951D01*
X113609968Y-105421401D01*
X113721399Y-105309970D01*
X113808949Y-105178942D01*
X113869255Y-105033351D01*
X113899998Y-104878793D01*
X113899998Y-104721207D01*
X113869255Y-104566649D01*
X113808949Y-104421058D01*
X113721399Y-104290030D01*
X113609968Y-104178599D01*
X113478940Y-104091049D01*
X113333349Y-104030743D01*
X113178791Y-104000000D01*
X113021205Y-104000000D01*
X112866647Y-104030743D01*
X112721056Y-104091049D01*
X112595414Y-104175000D01*
X109230702Y-104175000D01*
X109200000Y-104171976D01*
X109169298Y-104175000D01*
X109169296Y-104175000D01*
X109077479Y-104184043D01*
X108959666Y-104219781D01*
X108917100Y-104242533D01*
X108851088Y-104277817D01*
X108836207Y-104290030D01*
X108755920Y-104355920D01*
X108736346Y-104379771D01*
X107514854Y-105601264D01*
X107366649Y-105630743D01*
X107225000Y-105689416D01*
X107225000Y-101021207D01*
X109800000Y-101021207D01*
X109800000Y-101178793D01*
X109830743Y-101333351D01*
X109891049Y-101478942D01*
X109978599Y-101609970D01*
X110090030Y-101721401D01*
X110221058Y-101808951D01*
X110366649Y-101869257D01*
X110521207Y-101900000D01*
X110678793Y-101900000D01*
X110833351Y-101869257D01*
X110978942Y-101808951D01*
X111109970Y-101721401D01*
X111221401Y-101609970D01*
X111308951Y-101478942D01*
X111369257Y-101333351D01*
X111400000Y-101178793D01*
X111400000Y-101048882D01*
X113137581Y-99311302D01*
X113137581Y-99825000D01*
X113147235Y-99923017D01*
X113175825Y-100017267D01*
X113222254Y-100104129D01*
X113284736Y-100180264D01*
X113360871Y-100242746D01*
X113447733Y-100289175D01*
X113541983Y-100317765D01*
X113640000Y-100327419D01*
X114071905Y-100327419D01*
X114081742Y-100335492D01*
X114255465Y-100428349D01*
X114339684Y-100453897D01*
X114395397Y-100509610D01*
X114389473Y-100514472D01*
X114264509Y-100666742D01*
X114214875Y-100759600D01*
X114171651Y-100840466D01*
X114114470Y-101028966D01*
X114095162Y-101225000D01*
X114100001Y-101274130D01*
X114100001Y-101868784D01*
X114057254Y-101920871D01*
X114010825Y-102007733D01*
X113982235Y-102101983D01*
X113972581Y-102200000D01*
X113972581Y-103700000D01*
X113982235Y-103798017D01*
X114010825Y-103892267D01*
X114057254Y-103979129D01*
X114119736Y-104055264D01*
X114195871Y-104117746D01*
X114282733Y-104164175D01*
X114376983Y-104192765D01*
X114475000Y-104202419D01*
X115725000Y-104202419D01*
X115823017Y-104192765D01*
X115917267Y-104164175D01*
X116004129Y-104117746D01*
X116080264Y-104055264D01*
X116142746Y-103979129D01*
X116189175Y-103892267D01*
X116217765Y-103798017D01*
X116227419Y-103700000D01*
X116227419Y-102245000D01*
X123697581Y-102245000D01*
X123697581Y-102545000D01*
X123710117Y-102672281D01*
X123747243Y-102794670D01*
X123807533Y-102907465D01*
X123888670Y-103006330D01*
X123917512Y-103030000D01*
X123888670Y-103053670D01*
X123807533Y-103152535D01*
X123747243Y-103265330D01*
X123710117Y-103387719D01*
X123697581Y-103515000D01*
X123697581Y-103815000D01*
X123710117Y-103942281D01*
X123747243Y-104064670D01*
X123807533Y-104177465D01*
X123888670Y-104276330D01*
X123917512Y-104300000D01*
X123888670Y-104323670D01*
X123807533Y-104422535D01*
X123747243Y-104535330D01*
X123710117Y-104657719D01*
X123697581Y-104785000D01*
X123697581Y-105085000D01*
X123710117Y-105212281D01*
X123747243Y-105334670D01*
X123807533Y-105447465D01*
X123888670Y-105546330D01*
X123917512Y-105570000D01*
X123888670Y-105593670D01*
X123807533Y-105692535D01*
X123747243Y-105805330D01*
X123710117Y-105927719D01*
X123697581Y-106055000D01*
X123697581Y-106355000D01*
X123710117Y-106482281D01*
X123747243Y-106604670D01*
X123807533Y-106717465D01*
X123888670Y-106816330D01*
X123987535Y-106897467D01*
X124100330Y-106957757D01*
X124222719Y-106994883D01*
X124350000Y-107007419D01*
X126000000Y-107007419D01*
X126127281Y-106994883D01*
X126249670Y-106957757D01*
X126362465Y-106897467D01*
X126444673Y-106830000D01*
X126564306Y-106830000D01*
X126595000Y-106833023D01*
X126625694Y-106830000D01*
X126625704Y-106830000D01*
X126717521Y-106820957D01*
X126835334Y-106785219D01*
X126943911Y-106727183D01*
X127039080Y-106649080D01*
X127058658Y-106625224D01*
X127479377Y-106204505D01*
X128809192Y-106204505D01*
X128818846Y-106302522D01*
X128847436Y-106396772D01*
X128893865Y-106483634D01*
X128956347Y-106559769D01*
X129840231Y-107443653D01*
X129916366Y-107506135D01*
X130003228Y-107552564D01*
X130097478Y-107581154D01*
X130195495Y-107590808D01*
X130293512Y-107581154D01*
X130387762Y-107552564D01*
X130474624Y-107506135D01*
X130550759Y-107443653D01*
X130755265Y-107239147D01*
X130801264Y-107285146D01*
X130830743Y-107433351D01*
X130891049Y-107578942D01*
X130978599Y-107709970D01*
X131090030Y-107821401D01*
X131221058Y-107908951D01*
X131366649Y-107969257D01*
X131521207Y-108000000D01*
X131678793Y-108000000D01*
X131833351Y-107969257D01*
X131978942Y-107908951D01*
X132109970Y-107821401D01*
X132221401Y-107709970D01*
X132308951Y-107578942D01*
X132369257Y-107433351D01*
X132400000Y-107278793D01*
X132400000Y-107121207D01*
X132369257Y-106966649D01*
X132308951Y-106821058D01*
X132221401Y-106690030D01*
X132109970Y-106578599D01*
X131978942Y-106491049D01*
X131833351Y-106430743D01*
X131685146Y-106401264D01*
X131636416Y-106352534D01*
X131673901Y-106306858D01*
X131720330Y-106219996D01*
X131748920Y-106125746D01*
X131758574Y-106027729D01*
X131748920Y-105929712D01*
X131720330Y-105835462D01*
X131673901Y-105748600D01*
X131611419Y-105672465D01*
X130727535Y-104788581D01*
X130651400Y-104726099D01*
X130564538Y-104679670D01*
X130470288Y-104651080D01*
X130372271Y-104641426D01*
X130274254Y-104651080D01*
X130180004Y-104679670D01*
X130093142Y-104726099D01*
X130017007Y-104788581D01*
X128956347Y-105849241D01*
X128893865Y-105925376D01*
X128847436Y-106012238D01*
X128818846Y-106106488D01*
X128809192Y-106204505D01*
X127479377Y-106204505D01*
X127485146Y-106198736D01*
X127633351Y-106169257D01*
X127778942Y-106108951D01*
X127909970Y-106021401D01*
X128021401Y-105909970D01*
X128108951Y-105778942D01*
X128169257Y-105633351D01*
X128200000Y-105478793D01*
X128200000Y-105321207D01*
X128169257Y-105166649D01*
X128108951Y-105021058D01*
X128021401Y-104890030D01*
X127909970Y-104778599D01*
X127778942Y-104691049D01*
X127633351Y-104630743D01*
X127478793Y-104600000D01*
X127321207Y-104600000D01*
X127166649Y-104630743D01*
X127021058Y-104691049D01*
X126890030Y-104778599D01*
X126778599Y-104890030D01*
X126691049Y-105021058D01*
X126648631Y-105123465D01*
X126652419Y-105085000D01*
X126652419Y-104785000D01*
X126639883Y-104657719D01*
X126602757Y-104535330D01*
X126542467Y-104422535D01*
X126461330Y-104323670D01*
X126432488Y-104300000D01*
X126461330Y-104276330D01*
X126542467Y-104177465D01*
X126602757Y-104064670D01*
X126639883Y-103942281D01*
X126652419Y-103815000D01*
X126652419Y-103515000D01*
X126639883Y-103387719D01*
X126602757Y-103265330D01*
X126542467Y-103152535D01*
X126461330Y-103053670D01*
X126432488Y-103030000D01*
X126461330Y-103006330D01*
X126542467Y-102907465D01*
X126602757Y-102794670D01*
X126639883Y-102672281D01*
X126652419Y-102545000D01*
X126652419Y-102245000D01*
X126639883Y-102117719D01*
X126602757Y-101995330D01*
X126542467Y-101882535D01*
X126461330Y-101783670D01*
X126362465Y-101702533D01*
X126249670Y-101642243D01*
X126127281Y-101605117D01*
X126000000Y-101592581D01*
X124350000Y-101592581D01*
X124222719Y-101605117D01*
X124100330Y-101642243D01*
X123987535Y-101702533D01*
X123888670Y-101783670D01*
X123807533Y-101882535D01*
X123747243Y-101995330D01*
X123710117Y-102117719D01*
X123697581Y-102245000D01*
X116227419Y-102245000D01*
X116227419Y-102200000D01*
X116217765Y-102101983D01*
X116189175Y-102007733D01*
X116142746Y-101920871D01*
X116100000Y-101868785D01*
X116100000Y-101804838D01*
X116149120Y-101800000D01*
X116174099Y-101800000D01*
X116321013Y-101785530D01*
X116509514Y-101728349D01*
X116683237Y-101635492D01*
X116835507Y-101510528D01*
X116960471Y-101358258D01*
X117053328Y-101184535D01*
X117110509Y-100996034D01*
X117129817Y-100800000D01*
X117110509Y-100603966D01*
X117053328Y-100415465D01*
X116960471Y-100241742D01*
X116835507Y-100089472D01*
X116683237Y-99964508D01*
X116673537Y-99959323D01*
X116142419Y-99428206D01*
X116142419Y-99175000D01*
X116132765Y-99076983D01*
X116104175Y-98982733D01*
X116057746Y-98895871D01*
X115995264Y-98819736D01*
X115919129Y-98757254D01*
X115832267Y-98710825D01*
X115738017Y-98682235D01*
X115640000Y-98672581D01*
X115368095Y-98672581D01*
X115358258Y-98664508D01*
X115184535Y-98571651D01*
X114996034Y-98514470D01*
X114849120Y-98500000D01*
X114800000Y-98495162D01*
X114750880Y-98500000D01*
X114590880Y-98500000D01*
X114443966Y-98514470D01*
X114255465Y-98571651D01*
X114081742Y-98664508D01*
X114071905Y-98672581D01*
X113776303Y-98672581D01*
X114021465Y-98427419D01*
X115640000Y-98427419D01*
X115738017Y-98417765D01*
X115832267Y-98389175D01*
X115919129Y-98342746D01*
X115995264Y-98280264D01*
X116057746Y-98204129D01*
X116104175Y-98117267D01*
X116132765Y-98023017D01*
X116142419Y-97925000D01*
X116142419Y-97275000D01*
X116132765Y-97176983D01*
X116104175Y-97082733D01*
X116057746Y-96995871D01*
X115995264Y-96919736D01*
X115919129Y-96857254D01*
X115832267Y-96810825D01*
X115738017Y-96782235D01*
X115640000Y-96772581D01*
X113640000Y-96772581D01*
X113541983Y-96782235D01*
X113447733Y-96810825D01*
X113360871Y-96857254D01*
X113284736Y-96919736D01*
X113222254Y-96995871D01*
X113175825Y-97082733D01*
X113147235Y-97176983D01*
X113137581Y-97275000D01*
X113137581Y-97543535D01*
X110338867Y-100342251D01*
X110221058Y-100391049D01*
X110090030Y-100478599D01*
X109978599Y-100590030D01*
X109891049Y-100721058D01*
X109830743Y-100866649D01*
X109800000Y-101021207D01*
X107225000Y-101021207D01*
X107225000Y-95800012D01*
X115220767Y-95800012D01*
X115237661Y-95971541D01*
X115287695Y-96136479D01*
X115368945Y-96288487D01*
X115478289Y-96421723D01*
X115611525Y-96531067D01*
X115763533Y-96612317D01*
X115928471Y-96662351D01*
X116100000Y-96679245D01*
X116271529Y-96662351D01*
X116436467Y-96612317D01*
X116588475Y-96531067D01*
X116688327Y-96449121D01*
X117562449Y-95575000D01*
X120542979Y-95575000D01*
X120671530Y-95562339D01*
X120836468Y-95512305D01*
X120988476Y-95431056D01*
X121121712Y-95321712D01*
X121231056Y-95188476D01*
X121312305Y-95036468D01*
X121362339Y-94871530D01*
X121379233Y-94700000D01*
X121362339Y-94528470D01*
X121312305Y-94363532D01*
X121231056Y-94211524D01*
X121121712Y-94078288D01*
X120988476Y-93968944D01*
X120836468Y-93887695D01*
X120671530Y-93837661D01*
X120542979Y-93825000D01*
X117242991Y-93825000D01*
X117200012Y-93820767D01*
X117157033Y-93825000D01*
X117028482Y-93837661D01*
X116863544Y-93887695D01*
X116711536Y-93968944D01*
X116578300Y-94078288D01*
X116550900Y-94111675D01*
X115450891Y-95211685D01*
X115368945Y-95311537D01*
X115287695Y-95463545D01*
X115237661Y-95628483D01*
X115220767Y-95800012D01*
X107225000Y-95800012D01*
X107225000Y-92658882D01*
X115758883Y-84125000D01*
X122995416Y-84125000D01*
X123121058Y-84208951D01*
X123266649Y-84269257D01*
X123421207Y-84300000D01*
X123578793Y-84300000D01*
X123733351Y-84269257D01*
X123878942Y-84208951D01*
X124009970Y-84121401D01*
X124121401Y-84009970D01*
X124123763Y-84006434D01*
X125798226Y-88014165D01*
X123275805Y-85491744D01*
X122922058Y-85201432D01*
X122383516Y-84913574D01*
X121799163Y-84736313D01*
X121191458Y-84676459D01*
X120583753Y-84736313D01*
X119999400Y-84913574D01*
X119460858Y-85201432D01*
X118988822Y-85588822D01*
X118601432Y-86060858D01*
X118313574Y-86599400D01*
X118136313Y-87183753D01*
X118076459Y-87791458D01*
X118136313Y-88399163D01*
X118313574Y-88983516D01*
X118601432Y-89522058D01*
X118891744Y-89875805D01*
X126395272Y-97379334D01*
X126300000Y-97858297D01*
X126300000Y-98941703D01*
X126511362Y-100004291D01*
X126925963Y-101005227D01*
X127527871Y-101906046D01*
X128293954Y-102672129D01*
X129194773Y-103274037D01*
X130195709Y-103688638D01*
X131258297Y-103900000D01*
X132341703Y-103900000D01*
X132820667Y-103804728D01*
X140324194Y-111308256D01*
X140677941Y-111598568D01*
X141216483Y-111886426D01*
X141800836Y-112063687D01*
X142408542Y-112123541D01*
X143016247Y-112063687D01*
X143600600Y-111886426D01*
X144139142Y-111598568D01*
X144611178Y-111211178D01*
X144998568Y-110739142D01*
X145072941Y-110600000D01*
X150320767Y-110600000D01*
X150337661Y-110771530D01*
X150387695Y-110936468D01*
X150468944Y-111088476D01*
X150578288Y-111221712D01*
X150711524Y-111331056D01*
X150863532Y-111412305D01*
X151028470Y-111462339D01*
X151157021Y-111475000D01*
X154042979Y-111475000D01*
X154171530Y-111462339D01*
X154336468Y-111412305D01*
X154488476Y-111331056D01*
X154621712Y-111221712D01*
X154731056Y-111088476D01*
X154812305Y-110936468D01*
X154862339Y-110771530D01*
X154879233Y-110600000D01*
X154862339Y-110428470D01*
X154812305Y-110263532D01*
X154731056Y-110111524D01*
X154621712Y-109978288D01*
X154488476Y-109868944D01*
X154336468Y-109787695D01*
X154171530Y-109737661D01*
X154042979Y-109725000D01*
X151157021Y-109725000D01*
X151028470Y-109737661D01*
X150863532Y-109787695D01*
X150711524Y-109868944D01*
X150578288Y-109978288D01*
X150468944Y-110111524D01*
X150387695Y-110263532D01*
X150337661Y-110428470D01*
X150320767Y-110600000D01*
X145072941Y-110600000D01*
X145286426Y-110200600D01*
X145463687Y-109616247D01*
X145523541Y-109008542D01*
X145463687Y-108400836D01*
X145286426Y-107816483D01*
X144998568Y-107277941D01*
X144708256Y-106924194D01*
X143784062Y-106000000D01*
X147795499Y-106000000D01*
X147805153Y-106098017D01*
X147833743Y-106192267D01*
X147880172Y-106279129D01*
X147942654Y-106355264D01*
X149144736Y-107557346D01*
X149220871Y-107619828D01*
X149307733Y-107666257D01*
X149401983Y-107694847D01*
X149500000Y-107704501D01*
X149598017Y-107694847D01*
X149692267Y-107666257D01*
X149779129Y-107619828D01*
X149855264Y-107557346D01*
X151057346Y-106355264D01*
X151119828Y-106279129D01*
X151166257Y-106192267D01*
X151194847Y-106098017D01*
X151204501Y-106000000D01*
X151194847Y-105901983D01*
X151166257Y-105807733D01*
X151119828Y-105720871D01*
X151057346Y-105644736D01*
X150917760Y-105505150D01*
X151163088Y-105553949D01*
X151429014Y-105553949D01*
X151689831Y-105502069D01*
X151935516Y-105400303D01*
X152156626Y-105252562D01*
X152344664Y-105064524D01*
X152492405Y-104843414D01*
X152594171Y-104597729D01*
X152646051Y-104336912D01*
X152646051Y-104070986D01*
X152594171Y-103810169D01*
X152520525Y-103632372D01*
X152698322Y-103706018D01*
X152959139Y-103757898D01*
X153225065Y-103757898D01*
X153485882Y-103706018D01*
X153731567Y-103604252D01*
X153952677Y-103456511D01*
X154140715Y-103268473D01*
X154288456Y-103047363D01*
X154390222Y-102801678D01*
X154442102Y-102540861D01*
X154442102Y-102274935D01*
X154390222Y-102014118D01*
X154288456Y-101768433D01*
X154140715Y-101547323D01*
X153952677Y-101359285D01*
X153731567Y-101211544D01*
X153485882Y-101109778D01*
X153225065Y-101057898D01*
X152959139Y-101057898D01*
X152698322Y-101109778D01*
X152452637Y-101211544D01*
X152231527Y-101359285D01*
X152043489Y-101547323D01*
X151895748Y-101768433D01*
X151793982Y-102014118D01*
X151742102Y-102274935D01*
X151742102Y-102540861D01*
X151793982Y-102801678D01*
X151867628Y-102979475D01*
X151689831Y-102905829D01*
X151429014Y-102853949D01*
X151163088Y-102853949D01*
X150902271Y-102905829D01*
X150656586Y-103007595D01*
X150435476Y-103155336D01*
X150247438Y-103343374D01*
X150099697Y-103564484D01*
X149997931Y-103810169D01*
X149946051Y-104070986D01*
X149946051Y-104336912D01*
X149994850Y-104582240D01*
X149855264Y-104442654D01*
X149779129Y-104380172D01*
X149692267Y-104333743D01*
X149598017Y-104305153D01*
X149500000Y-104295499D01*
X149401983Y-104305153D01*
X149307733Y-104333743D01*
X149220871Y-104380172D01*
X149144736Y-104442654D01*
X147942654Y-105644736D01*
X147880172Y-105720871D01*
X147833743Y-105807733D01*
X147805153Y-105901983D01*
X147795499Y-106000000D01*
X143784062Y-106000000D01*
X137204728Y-99420667D01*
X137300000Y-98941703D01*
X137300000Y-97858297D01*
X137169789Y-97203681D01*
X144108643Y-90889949D01*
X147129815Y-90889949D01*
X147139469Y-90987966D01*
X147168059Y-91082216D01*
X147214488Y-91169078D01*
X147276970Y-91245213D01*
X148054787Y-92023030D01*
X148130922Y-92085512D01*
X148217784Y-92131941D01*
X148312034Y-92160531D01*
X148410051Y-92170185D01*
X148508068Y-92160531D01*
X148602318Y-92131941D01*
X148689180Y-92085512D01*
X148765315Y-92023030D01*
X148898396Y-91889949D01*
X151752652Y-91889949D01*
X151793982Y-92097729D01*
X151867628Y-92275526D01*
X151689831Y-92201880D01*
X151429014Y-92150000D01*
X151163088Y-92150000D01*
X150902271Y-92201880D01*
X150656586Y-92303646D01*
X150435476Y-92451387D01*
X150247438Y-92639425D01*
X150099697Y-92860535D01*
X149997931Y-93106220D01*
X149946051Y-93367037D01*
X149946051Y-93632963D01*
X149994850Y-93878291D01*
X149855264Y-93738705D01*
X149779129Y-93676223D01*
X149692267Y-93629794D01*
X149598017Y-93601204D01*
X149500000Y-93591550D01*
X149401983Y-93601204D01*
X149307733Y-93629794D01*
X149220871Y-93676223D01*
X149144736Y-93738705D01*
X147942654Y-94940787D01*
X147880172Y-95016922D01*
X147833743Y-95103784D01*
X147805153Y-95198034D01*
X147795499Y-95296051D01*
X147805153Y-95394068D01*
X147833743Y-95488318D01*
X147880172Y-95575180D01*
X147942654Y-95651315D01*
X149144736Y-96853397D01*
X149220871Y-96915879D01*
X149307733Y-96962308D01*
X149401983Y-96990898D01*
X149500000Y-97000552D01*
X149598017Y-96990898D01*
X149692267Y-96962308D01*
X149779129Y-96915879D01*
X149855264Y-96853397D01*
X151057346Y-95651315D01*
X151119828Y-95575180D01*
X151166257Y-95488318D01*
X151194847Y-95394068D01*
X151204501Y-95296051D01*
X151194847Y-95198034D01*
X151166257Y-95103784D01*
X151119828Y-95016922D01*
X151057346Y-94940787D01*
X150917760Y-94801201D01*
X151163088Y-94850000D01*
X151429014Y-94850000D01*
X151689831Y-94798120D01*
X151935516Y-94696354D01*
X152156626Y-94548613D01*
X152344664Y-94360575D01*
X152492405Y-94139465D01*
X152594171Y-93893780D01*
X152646051Y-93632963D01*
X152646051Y-93367037D01*
X152594171Y-93106220D01*
X152520525Y-92928423D01*
X152698322Y-93002069D01*
X152959139Y-93053949D01*
X153027889Y-93053949D01*
X154100001Y-94126061D01*
X154100000Y-95105588D01*
X153988581Y-95217007D01*
X153926099Y-95293142D01*
X153879670Y-95380004D01*
X153851080Y-95474254D01*
X153841426Y-95572271D01*
X153851080Y-95670288D01*
X153879670Y-95764538D01*
X153926099Y-95851400D01*
X153988581Y-95927535D01*
X154872465Y-96811419D01*
X154948600Y-96873901D01*
X155035462Y-96920330D01*
X155129712Y-96948920D01*
X155227729Y-96958574D01*
X155325746Y-96948920D01*
X155419996Y-96920330D01*
X155506858Y-96873901D01*
X155582993Y-96811419D01*
X156643653Y-95750759D01*
X156706135Y-95674624D01*
X156752564Y-95587762D01*
X156781154Y-95493512D01*
X156790808Y-95395495D01*
X156781154Y-95297478D01*
X156752564Y-95203228D01*
X156706135Y-95116366D01*
X156643653Y-95040231D01*
X156100000Y-94496578D01*
X156100000Y-93760967D01*
X156104838Y-93711847D01*
X156085530Y-93515813D01*
X156028349Y-93327312D01*
X155935492Y-93153589D01*
X155841840Y-93039473D01*
X155810528Y-93001319D01*
X155772374Y-92970007D01*
X154442102Y-91639736D01*
X154442102Y-91570986D01*
X154390222Y-91310169D01*
X154288456Y-91064484D01*
X154140715Y-90843374D01*
X153952677Y-90655336D01*
X153731567Y-90507595D01*
X153485882Y-90405829D01*
X153225065Y-90353949D01*
X153156314Y-90353949D01*
X153019951Y-90217586D01*
X152988630Y-90179421D01*
X152836360Y-90054457D01*
X152662637Y-89961600D01*
X152474136Y-89904419D01*
X152327222Y-89889949D01*
X152278102Y-89885111D01*
X152228982Y-89889949D01*
X148898396Y-89889949D01*
X148765315Y-89756868D01*
X148689180Y-89694386D01*
X148602318Y-89647957D01*
X148508068Y-89619367D01*
X148410051Y-89609713D01*
X148312034Y-89619367D01*
X148217784Y-89647957D01*
X148130922Y-89694386D01*
X148054787Y-89756868D01*
X147276970Y-90534685D01*
X147214488Y-90610820D01*
X147168059Y-90697682D01*
X147139469Y-90791932D01*
X147129815Y-90889949D01*
X144108643Y-90889949D01*
X155663850Y-80375752D01*
X156261498Y-81161944D01*
X157441592Y-82971966D01*
X158488002Y-84862423D01*
X159395274Y-86823459D01*
X160158677Y-88844849D01*
X160774230Y-90916056D01*
X161238726Y-93026280D01*
X161549741Y-95164521D01*
X161646777Y-96505790D01*
X161352645Y-96627623D01*
X161025074Y-96846499D01*
X160746499Y-97125074D01*
X160527623Y-97452645D01*
X160376859Y-97816622D01*
X160300000Y-98203017D01*
X160300000Y-98596983D01*
X160376859Y-98983378D01*
X160527623Y-99347355D01*
X160746499Y-99674926D01*
X161025074Y-99953501D01*
X161352645Y-100172377D01*
X161646777Y-100294210D01*
X161549741Y-101635479D01*
X161238726Y-103773720D01*
X160774230Y-105883944D01*
X160158677Y-107955151D01*
X159395274Y-109976541D01*
X158488002Y-111937577D01*
X157441592Y-113828034D01*
X156261498Y-115638056D01*
X154953873Y-117358207D01*
X153525534Y-118979519D01*
X151983929Y-120493539D01*
X150337094Y-121892373D01*
X148593615Y-123168729D01*
X146762582Y-124315952D01*
X144853541Y-125328062D01*
X142876445Y-126199781D01*
X140841601Y-126926565D01*
X138759619Y-127504624D01*
X136641353Y-127930946D01*
X134497846Y-128203306D01*
X132340273Y-128320287D01*
X130179884Y-128281276D01*
X128027942Y-128086479D01*
X125895665Y-127736910D01*
X123794171Y-127234392D01*
X121734415Y-126581544D01*
X119727137Y-125781771D01*
X117782801Y-124839243D01*
X115911544Y-123758872D01*
X114123122Y-122546292D01*
X113430797Y-122000000D01*
X118095162Y-122000000D01*
X118114470Y-122196034D01*
X118171651Y-122384535D01*
X118264508Y-122558258D01*
X118389472Y-122710528D01*
X118541742Y-122835492D01*
X118715465Y-122928349D01*
X118903966Y-122985530D01*
X119050880Y-123000000D01*
X119783114Y-123000000D01*
X119832234Y-123004838D01*
X119881354Y-123000000D01*
X119961878Y-122992069D01*
X120028268Y-122985530D01*
X120098241Y-122964304D01*
X120216769Y-122928349D01*
X120390492Y-122835492D01*
X120542762Y-122710528D01*
X120574083Y-122672363D01*
X121474880Y-121771566D01*
X121506488Y-121781154D01*
X121604505Y-121790808D01*
X121702522Y-121781154D01*
X121796772Y-121752564D01*
X121883634Y-121706135D01*
X121959769Y-121643653D01*
X122843653Y-120759769D01*
X122906135Y-120683634D01*
X122952564Y-120596772D01*
X122981154Y-120502522D01*
X122990808Y-120404505D01*
X122981154Y-120306488D01*
X122952564Y-120212238D01*
X122906135Y-120125376D01*
X122843653Y-120049241D01*
X122715123Y-119920711D01*
X123814633Y-119920711D01*
X123824287Y-120018728D01*
X123852877Y-120112978D01*
X123899306Y-120199840D01*
X123961788Y-120275975D01*
X124173920Y-120488107D01*
X124250055Y-120550589D01*
X124251884Y-120551566D01*
X124252860Y-120553393D01*
X124315342Y-120629528D01*
X124527474Y-120841660D01*
X124603609Y-120904142D01*
X124605436Y-120905118D01*
X124606413Y-120906947D01*
X124668895Y-120983082D01*
X124881027Y-121195214D01*
X124957162Y-121257696D01*
X124958989Y-121258673D01*
X124959966Y-121260500D01*
X125022448Y-121336635D01*
X125234580Y-121548767D01*
X125310715Y-121611249D01*
X125312544Y-121612226D01*
X125313520Y-121614053D01*
X125376002Y-121690188D01*
X125588134Y-121902320D01*
X125664269Y-121964802D01*
X125666096Y-121965778D01*
X125667073Y-121967607D01*
X125729555Y-122043742D01*
X125747233Y-122061420D01*
X125279771Y-122528883D01*
X125255921Y-122548456D01*
X125177818Y-122643625D01*
X125119781Y-122752202D01*
X125091966Y-122843897D01*
X125040030Y-122878599D01*
X124928599Y-122990030D01*
X124841049Y-123121058D01*
X124780743Y-123266649D01*
X124750000Y-123421207D01*
X124750000Y-123578793D01*
X124780743Y-123733351D01*
X124841049Y-123878942D01*
X124928599Y-124009970D01*
X125040030Y-124121401D01*
X125171058Y-124208951D01*
X125316649Y-124269257D01*
X125471207Y-124300000D01*
X125628793Y-124300000D01*
X125696165Y-124286599D01*
X125778599Y-124409970D01*
X125890030Y-124521401D01*
X126021058Y-124608951D01*
X126166649Y-124669257D01*
X126321207Y-124700000D01*
X126478793Y-124700000D01*
X126633351Y-124669257D01*
X126778942Y-124608951D01*
X126909970Y-124521401D01*
X127021401Y-124409970D01*
X127108951Y-124278942D01*
X127169257Y-124133351D01*
X127200000Y-123978793D01*
X127200000Y-123821207D01*
X127169257Y-123666649D01*
X127108951Y-123521058D01*
X127025000Y-123395416D01*
X127025000Y-123335125D01*
X127078482Y-123379016D01*
X127080311Y-123379993D01*
X127081287Y-123381820D01*
X127143769Y-123457955D01*
X127355901Y-123670087D01*
X127432036Y-123732569D01*
X127433863Y-123733545D01*
X127434840Y-123735374D01*
X127497322Y-123811509D01*
X127709454Y-124023641D01*
X127785589Y-124086123D01*
X127787418Y-124087100D01*
X127788394Y-124088927D01*
X127850876Y-124165062D01*
X128063008Y-124377194D01*
X128139143Y-124439676D01*
X128140970Y-124440652D01*
X128141947Y-124442481D01*
X128204429Y-124518616D01*
X128312386Y-124626573D01*
X128178793Y-124600000D01*
X128021207Y-124600000D01*
X127866649Y-124630743D01*
X127721058Y-124691049D01*
X127590030Y-124778599D01*
X127478599Y-124890030D01*
X127391049Y-125021058D01*
X127330743Y-125166649D01*
X127300000Y-125321207D01*
X127300000Y-125478793D01*
X127330743Y-125633351D01*
X127391049Y-125778942D01*
X127478599Y-125909970D01*
X127590030Y-126021401D01*
X127721058Y-126108951D01*
X127866649Y-126169257D01*
X128021207Y-126200000D01*
X128178793Y-126200000D01*
X128333351Y-126169257D01*
X128478942Y-126108951D01*
X128604584Y-126025000D01*
X128918696Y-126025000D01*
X128949390Y-126028023D01*
X128980084Y-126025000D01*
X128980094Y-126025000D01*
X129071911Y-126015957D01*
X129189724Y-125980219D01*
X129298301Y-125922183D01*
X129393470Y-125844080D01*
X129413048Y-125820224D01*
X129704086Y-125529187D01*
X129758061Y-125500336D01*
X129834196Y-125437854D01*
X131248410Y-124023640D01*
X131249813Y-124021930D01*
X132229204Y-124021930D01*
X132238858Y-124119947D01*
X132267448Y-124214197D01*
X132313877Y-124301059D01*
X132376359Y-124377194D01*
X133790573Y-125791408D01*
X133866708Y-125853890D01*
X133953570Y-125900319D01*
X134047820Y-125928909D01*
X134145837Y-125938563D01*
X134243854Y-125928909D01*
X134338104Y-125900319D01*
X134424966Y-125853890D01*
X134501101Y-125791408D01*
X134713233Y-125579276D01*
X134775715Y-125503141D01*
X134776692Y-125501312D01*
X134778519Y-125500336D01*
X134854654Y-125437854D01*
X135066786Y-125225722D01*
X135129268Y-125149587D01*
X135130244Y-125147760D01*
X135132073Y-125146783D01*
X135208208Y-125084301D01*
X135420340Y-124872169D01*
X135482822Y-124796034D01*
X135483799Y-124794207D01*
X135485626Y-124793230D01*
X135561761Y-124730748D01*
X135773893Y-124518616D01*
X135836375Y-124442481D01*
X135837352Y-124440652D01*
X135839179Y-124439676D01*
X135915314Y-124377194D01*
X136127446Y-124165062D01*
X136189928Y-124088927D01*
X136190904Y-124087100D01*
X136192733Y-124086123D01*
X136268868Y-124023641D01*
X136481000Y-123811509D01*
X136543482Y-123735374D01*
X136544459Y-123733545D01*
X136546286Y-123732569D01*
X136622421Y-123670087D01*
X136834553Y-123457955D01*
X136897035Y-123381820D01*
X136898011Y-123379993D01*
X136899840Y-123379016D01*
X136975975Y-123316534D01*
X137188107Y-123104402D01*
X137250589Y-123028267D01*
X137251566Y-123026440D01*
X137253393Y-123025463D01*
X137329528Y-122962981D01*
X137541660Y-122750849D01*
X137604142Y-122674714D01*
X137605119Y-122672885D01*
X137606946Y-122671909D01*
X137683081Y-122609427D01*
X137703526Y-122588982D01*
X137743982Y-122622183D01*
X137852559Y-122680219D01*
X137970372Y-122715957D01*
X138062189Y-122725000D01*
X138062191Y-122725000D01*
X138092893Y-122728024D01*
X138123594Y-122725000D01*
X138195416Y-122725000D01*
X138321058Y-122808951D01*
X138466649Y-122869257D01*
X138621207Y-122900000D01*
X138778793Y-122900000D01*
X138933351Y-122869257D01*
X139078942Y-122808951D01*
X139209970Y-122721401D01*
X139321401Y-122609970D01*
X139408951Y-122478942D01*
X139469257Y-122333351D01*
X139500000Y-122178793D01*
X139500000Y-122021207D01*
X139482755Y-121934507D01*
X139566649Y-121969257D01*
X139721207Y-122000000D01*
X139878793Y-122000000D01*
X140033351Y-121969257D01*
X140178942Y-121908951D01*
X140309970Y-121821401D01*
X140421401Y-121709970D01*
X140508951Y-121578942D01*
X140568266Y-121435743D01*
X140593865Y-121483634D01*
X140656347Y-121559769D01*
X141540231Y-122443653D01*
X141616366Y-122506135D01*
X141703228Y-122552564D01*
X141797478Y-122581154D01*
X141895495Y-122590808D01*
X141993512Y-122581154D01*
X142087762Y-122552564D01*
X142174624Y-122506135D01*
X142250759Y-122443653D01*
X143311419Y-121382993D01*
X143373901Y-121306858D01*
X143420330Y-121219996D01*
X143448920Y-121125746D01*
X143458574Y-121027729D01*
X143449391Y-120934492D01*
X143585146Y-120798736D01*
X143733351Y-120769257D01*
X143878942Y-120708951D01*
X144009970Y-120621401D01*
X144121401Y-120509970D01*
X144208951Y-120378942D01*
X144269257Y-120233351D01*
X144300000Y-120078793D01*
X144300000Y-119921207D01*
X144269257Y-119766649D01*
X144208951Y-119621058D01*
X144121401Y-119490030D01*
X144009970Y-119378599D01*
X143878942Y-119291049D01*
X143733351Y-119230743D01*
X143578793Y-119200000D01*
X143421207Y-119200000D01*
X143266649Y-119230743D01*
X143121058Y-119291049D01*
X142990030Y-119378599D01*
X142878599Y-119490030D01*
X142791049Y-119621058D01*
X142730743Y-119766649D01*
X142701264Y-119914854D01*
X142627536Y-119988582D01*
X142427535Y-119788581D01*
X142351400Y-119726099D01*
X142264538Y-119679670D01*
X142170288Y-119651080D01*
X142072271Y-119641426D01*
X141974254Y-119651080D01*
X141880004Y-119679670D01*
X141793142Y-119726099D01*
X141717007Y-119788581D01*
X140656347Y-120849241D01*
X140593865Y-120925376D01*
X140569948Y-120970122D01*
X140569257Y-120966649D01*
X140508951Y-120821058D01*
X140421401Y-120690030D01*
X140309970Y-120578599D01*
X140178942Y-120491049D01*
X140033351Y-120430743D01*
X139890233Y-120402276D01*
X140016534Y-120275975D01*
X140079016Y-120199840D01*
X140125445Y-120112978D01*
X140154035Y-120018728D01*
X140163689Y-119920711D01*
X140154035Y-119822694D01*
X140125445Y-119728444D01*
X140079016Y-119641582D01*
X140016534Y-119565447D01*
X138602320Y-118151233D01*
X138526185Y-118088751D01*
X138439323Y-118042322D01*
X138345073Y-118013732D01*
X138247056Y-118004078D01*
X138149039Y-118013732D01*
X138054789Y-118042322D01*
X137967927Y-118088751D01*
X137891792Y-118151233D01*
X137679660Y-118363365D01*
X137617178Y-118439500D01*
X137616202Y-118441327D01*
X137614373Y-118442304D01*
X137538238Y-118504786D01*
X137326106Y-118716918D01*
X137263624Y-118793053D01*
X137262647Y-118794882D01*
X137260820Y-118795858D01*
X137184685Y-118858340D01*
X137128875Y-118914150D01*
X137029629Y-118884044D01*
X136937812Y-118875001D01*
X136937802Y-118875001D01*
X136907108Y-118871978D01*
X136876414Y-118875001D01*
X134430692Y-118875001D01*
X134399998Y-118871978D01*
X134369304Y-118875001D01*
X134369295Y-118875001D01*
X134277478Y-118884044D01*
X134159665Y-118919782D01*
X134159663Y-118919783D01*
X134051086Y-118977819D01*
X134013548Y-119008626D01*
X133955919Y-119055921D01*
X133936345Y-119079772D01*
X133614854Y-119401264D01*
X133466649Y-119430743D01*
X133321058Y-119491049D01*
X133190030Y-119578599D01*
X133078599Y-119690030D01*
X132991049Y-119821058D01*
X132930743Y-119966649D01*
X132900000Y-120121207D01*
X132900000Y-120278793D01*
X132930743Y-120433351D01*
X132991049Y-120578942D01*
X133078599Y-120709970D01*
X133190030Y-120821401D01*
X133321058Y-120908951D01*
X133466649Y-120969257D01*
X133621207Y-121000000D01*
X133778793Y-121000000D01*
X133933351Y-120969257D01*
X134078942Y-120908951D01*
X134209970Y-120821401D01*
X134321401Y-120709970D01*
X134408951Y-120578942D01*
X134469257Y-120433351D01*
X134498736Y-120285146D01*
X134658882Y-120125001D01*
X135918024Y-120125001D01*
X135911893Y-120131132D01*
X135849411Y-120207267D01*
X135848435Y-120209094D01*
X135846606Y-120210071D01*
X135770471Y-120272553D01*
X135558339Y-120484685D01*
X135495857Y-120560820D01*
X135494880Y-120562649D01*
X135493053Y-120563625D01*
X135416918Y-120626107D01*
X135204786Y-120838239D01*
X135142304Y-120914374D01*
X135141327Y-120916201D01*
X135139500Y-120917178D01*
X135063365Y-120979660D01*
X134851233Y-121191792D01*
X134788751Y-121267927D01*
X134787775Y-121269754D01*
X134785946Y-121270731D01*
X134709811Y-121333213D01*
X134497679Y-121545345D01*
X134435197Y-121621480D01*
X134434220Y-121623309D01*
X134432393Y-121624285D01*
X134356258Y-121686767D01*
X134144126Y-121898899D01*
X134081644Y-121975034D01*
X134080668Y-121976861D01*
X134078839Y-121977838D01*
X134002704Y-122040320D01*
X133790572Y-122252452D01*
X133728090Y-122328587D01*
X133727113Y-122330416D01*
X133725286Y-122331392D01*
X133649151Y-122393874D01*
X133437019Y-122606006D01*
X133374537Y-122682141D01*
X133373560Y-122683968D01*
X133371733Y-122684945D01*
X133295598Y-122747427D01*
X133083466Y-122959559D01*
X133020984Y-123035694D01*
X133020008Y-123037521D01*
X133018179Y-123038498D01*
X132942044Y-123100980D01*
X132729912Y-123313112D01*
X132667430Y-123389247D01*
X132666453Y-123391076D01*
X132664626Y-123392052D01*
X132588491Y-123454534D01*
X132376359Y-123666666D01*
X132313877Y-123742801D01*
X132267448Y-123829663D01*
X132238858Y-123923913D01*
X132229204Y-124021930D01*
X131249813Y-124021930D01*
X131310892Y-123947505D01*
X131357321Y-123860643D01*
X131385911Y-123766393D01*
X131395565Y-123668376D01*
X131385911Y-123570359D01*
X131357321Y-123476109D01*
X131310892Y-123389247D01*
X131248410Y-123313112D01*
X131036278Y-123100980D01*
X130960143Y-123038498D01*
X130958314Y-123037521D01*
X130957338Y-123035694D01*
X130894856Y-122959559D01*
X130682724Y-122747427D01*
X130606589Y-122684945D01*
X130604762Y-122683968D01*
X130603785Y-122682141D01*
X130541303Y-122606006D01*
X130329171Y-122393874D01*
X130253036Y-122331392D01*
X130251209Y-122330416D01*
X130250232Y-122328587D01*
X130187750Y-122252452D01*
X129975618Y-122040320D01*
X129899483Y-121977838D01*
X129897654Y-121976861D01*
X129896678Y-121975034D01*
X129834196Y-121898899D01*
X129622064Y-121686767D01*
X129545929Y-121624285D01*
X129544102Y-121623309D01*
X129543125Y-121621480D01*
X129480643Y-121545345D01*
X129268511Y-121333213D01*
X129192376Y-121270731D01*
X129190547Y-121269754D01*
X129189571Y-121267927D01*
X129127089Y-121191792D01*
X128914957Y-120979660D01*
X128838822Y-120917178D01*
X128836995Y-120916201D01*
X128836018Y-120914374D01*
X128773536Y-120838239D01*
X128561404Y-120626107D01*
X128485269Y-120563625D01*
X128483442Y-120562649D01*
X128482465Y-120560820D01*
X128419983Y-120484685D01*
X128207851Y-120272553D01*
X128131716Y-120210071D01*
X128129887Y-120209094D01*
X128128911Y-120207267D01*
X128066429Y-120131132D01*
X127854297Y-119919000D01*
X127778162Y-119856518D01*
X127776335Y-119855542D01*
X127775358Y-119853713D01*
X127712876Y-119777578D01*
X127560299Y-119625001D01*
X128568706Y-119625001D01*
X128591049Y-119678942D01*
X128678599Y-119809970D01*
X128790030Y-119921401D01*
X128921058Y-120008951D01*
X129066649Y-120069257D01*
X129221207Y-120100000D01*
X129378793Y-120100000D01*
X129533351Y-120069257D01*
X129678942Y-120008951D01*
X129809970Y-119921401D01*
X129921401Y-119809970D01*
X130008951Y-119678942D01*
X130069257Y-119533351D01*
X130100000Y-119378793D01*
X130100000Y-119221207D01*
X130069257Y-119066649D01*
X130064921Y-119056180D01*
X130178942Y-119008951D01*
X130309970Y-118921401D01*
X130421401Y-118809970D01*
X130508951Y-118678942D01*
X130569257Y-118533351D01*
X130600000Y-118378793D01*
X130600000Y-118221207D01*
X130569257Y-118066649D01*
X130508951Y-117921058D01*
X130421401Y-117790030D01*
X130309970Y-117678599D01*
X130184860Y-117595003D01*
X130184860Y-117485880D01*
X130154117Y-117331322D01*
X130093811Y-117185731D01*
X130006261Y-117054703D01*
X129894830Y-116943272D01*
X129763802Y-116855722D01*
X129618211Y-116795416D01*
X129463653Y-116764673D01*
X129306067Y-116764673D01*
X129151509Y-116795416D01*
X129005918Y-116855722D01*
X128880276Y-116939673D01*
X126915915Y-116939673D01*
X126885221Y-116936650D01*
X126854527Y-116939673D01*
X126854518Y-116939673D01*
X126762701Y-116948716D01*
X126644888Y-116984454D01*
X126644886Y-116984455D01*
X126536309Y-117042491D01*
X126493260Y-117077821D01*
X126441142Y-117120593D01*
X126421568Y-117144444D01*
X125506112Y-118059901D01*
X125452137Y-118088751D01*
X125376002Y-118151233D01*
X123961788Y-119565447D01*
X123899306Y-119641582D01*
X123852877Y-119728444D01*
X123824287Y-119822694D01*
X123814633Y-119920711D01*
X122715123Y-119920711D01*
X121782993Y-118988581D01*
X121706858Y-118926099D01*
X121619996Y-118879670D01*
X121525746Y-118851080D01*
X121427729Y-118841426D01*
X121329712Y-118851080D01*
X121235462Y-118879670D01*
X121148600Y-118926099D01*
X121072465Y-118988581D01*
X120188581Y-119872465D01*
X120126099Y-119948600D01*
X120079670Y-120035462D01*
X120051080Y-120129712D01*
X120041426Y-120227729D01*
X120051080Y-120325746D01*
X120060668Y-120357354D01*
X119418022Y-121000000D01*
X119050880Y-121000000D01*
X118903966Y-121014470D01*
X118715465Y-121071651D01*
X118541742Y-121164508D01*
X118389472Y-121289472D01*
X118264508Y-121441742D01*
X118171651Y-121615465D01*
X118114470Y-121803966D01*
X118095162Y-122000000D01*
X113430797Y-122000000D01*
X112426859Y-121207824D01*
X110831599Y-119750447D01*
X109345659Y-118181759D01*
X107976784Y-116509938D01*
X106732114Y-114743699D01*
X105618135Y-112892253D01*
X104640657Y-110965250D01*
X103804775Y-108972738D01*
X103114847Y-106925105D01*
X102574470Y-104833026D01*
X102186461Y-102707408D01*
X101952844Y-100559333D01*
X101874836Y-98400000D01*
X101952844Y-96240667D01*
X102186461Y-94092592D01*
X102574470Y-91966974D01*
X103114847Y-89874895D01*
X103804775Y-87827262D01*
X104640657Y-85834750D01*
X105618135Y-83907747D01*
X106732114Y-82056301D01*
X107976784Y-80290062D01*
X109345659Y-78618241D01*
X110831599Y-77049553D01*
X112426859Y-75592176D01*
X114123122Y-74253708D01*
X115911544Y-73041128D01*
X117782801Y-71960757D01*
X118870652Y-71433415D01*
X121729095Y-78274933D01*
G37*
%TD.AperFunction*%
M02*
