%TF.GenerationSoftware,KiCad,Pcbnew,(5.1.9)-1*%
%TF.CreationDate,2021-08-01T23:03:51+02:00*%
%TF.ProjectId,Wheel_ECU,57686565-6c5f-4454-9355-2e6b69636164,1.0*%
%TF.SameCoordinates,Original*%
%TF.FileFunction,Copper,L1,Top*%
%TF.FilePolarity,Positive*%
%FSLAX46Y46*%
G04 Gerber Fmt 4.6, Leading zero omitted, Abs format (unit mm)*
G04 Created by KiCad (PCBNEW (5.1.9)-1) date 2021-08-01 23:03:51*
%MOMM*%
%LPD*%
G01*
G04 APERTURE LIST*
%TA.AperFunction,SMDPad,CuDef*%
%ADD10R,3.650000X1.000000*%
%TD*%
%TA.AperFunction,ComponentPad*%
%ADD11C,0.600000*%
%TD*%
%TA.AperFunction,SMDPad,CuDef*%
%ADD12R,1.250000X1.500000*%
%TD*%
%TA.AperFunction,SMDPad,CuDef*%
%ADD13C,0.100000*%
%TD*%
%TA.AperFunction,ComponentPad*%
%ADD14C,0.100000*%
%TD*%
%TA.AperFunction,SMDPad,CuDef*%
%ADD15R,0.600000X1.550000*%
%TD*%
%TA.AperFunction,SMDPad,CuDef*%
%ADD16R,1.500000X1.250000*%
%TD*%
%TA.AperFunction,SMDPad,CuDef*%
%ADD17R,1.350000X0.650000*%
%TD*%
%TA.AperFunction,ComponentPad*%
%ADD18R,4.400000X5.100000*%
%TD*%
%TA.AperFunction,SMDPad,CuDef*%
%ADD19R,1.800000X2.000000*%
%TD*%
%TA.AperFunction,ViaPad*%
%ADD20C,0.600000*%
%TD*%
%TA.AperFunction,Conductor*%
%ADD21C,0.250000*%
%TD*%
%TA.AperFunction,Conductor*%
%ADD22C,0.500000*%
%TD*%
%TA.AperFunction,Conductor*%
%ADD23C,1.000000*%
%TD*%
%TA.AperFunction,Conductor*%
%ADD24C,0.750000*%
%TD*%
%TA.AperFunction,Conductor*%
%ADD25C,0.150000*%
%TD*%
%TA.AperFunction,Conductor*%
%ADD26C,0.100000*%
%TD*%
G04 APERTURE END LIST*
D10*
X113425000Y-102110000D03*
X107375000Y-102110000D03*
X113425000Y-99570000D03*
X107375000Y-99570000D03*
X113425000Y-97030000D03*
X107375000Y-97030000D03*
X113425000Y-94490000D03*
X107375000Y-94490000D03*
D11*
X155920610Y-115534941D03*
X152114278Y-119911395D03*
X147527280Y-123461179D03*
X142335891Y-126047875D03*
X136739614Y-127572079D03*
X130953510Y-127975217D03*
X125199937Y-127241795D03*
X119700000Y-125400000D03*
X114665059Y-122520610D03*
X110288605Y-118714278D03*
X106738821Y-114127280D03*
X104152125Y-108935891D03*
X102627921Y-103339614D03*
X102224783Y-97553510D03*
X102958205Y-91799937D03*
X104800000Y-86300000D03*
X107679390Y-81265059D03*
X111485722Y-76888605D03*
X116072720Y-73338821D03*
X121264109Y-70752125D03*
X126860386Y-69227921D03*
X132646490Y-68824783D03*
X138400063Y-69558205D03*
X143900000Y-71400000D03*
X148934941Y-74279390D03*
X153311395Y-78085722D03*
X156861179Y-82672720D03*
X159447875Y-87864109D03*
X160972079Y-93460386D03*
X160641795Y-105000063D03*
D12*
X141850000Y-116750000D03*
X141850000Y-119250000D03*
%TA.AperFunction,SMDPad,CuDef*%
D13*
G36*
X150756155Y-109272271D02*
G01*
X149872271Y-110156155D01*
X148811611Y-109095495D01*
X149695495Y-108211611D01*
X150756155Y-109272271D01*
G37*
%TD.AperFunction*%
%TA.AperFunction,SMDPad,CuDef*%
G36*
X148988389Y-107504505D02*
G01*
X148104505Y-108388389D01*
X147043845Y-107327729D01*
X147927729Y-106443845D01*
X148988389Y-107504505D01*
G37*
%TD.AperFunction*%
%TA.AperFunction,ComponentPad*%
D14*
G36*
X150702082Y-95296051D02*
G01*
X149500000Y-96498133D01*
X148297918Y-95296051D01*
X149500000Y-94093969D01*
X150702082Y-95296051D01*
G37*
%TD.AperFunction*%
%TA.AperFunction,ComponentPad*%
G36*
G01*
X151897092Y-94101041D02*
X151897092Y-94101041D01*
G75*
G02*
X150695010Y-94101041I-601041J601041D01*
G01*
X150695010Y-94101041D01*
G75*
G02*
X150695010Y-92898959I601041J601041D01*
G01*
X150695010Y-92898959D01*
G75*
G02*
X151897092Y-92898959I601041J-601041D01*
G01*
X151897092Y-92898959D01*
G75*
G02*
X151897092Y-94101041I-601041J-601041D01*
G01*
G37*
%TD.AperFunction*%
%TA.AperFunction,ComponentPad*%
G36*
G01*
X153693143Y-92304990D02*
X153693143Y-92304990D01*
G75*
G02*
X152491061Y-92304990I-601041J601041D01*
G01*
X152491061Y-92304990D01*
G75*
G02*
X152491061Y-91102908I601041J601041D01*
G01*
X152491061Y-91102908D01*
G75*
G02*
X153693143Y-91102908I601041J-601041D01*
G01*
X153693143Y-91102908D01*
G75*
G02*
X153693143Y-92304990I-601041J-601041D01*
G01*
G37*
%TD.AperFunction*%
%TA.AperFunction,ComponentPad*%
G36*
G01*
X155489195Y-90508938D02*
X155489195Y-90508938D01*
G75*
G02*
X154287113Y-90508938I-601041J601041D01*
G01*
X154287113Y-90508938D01*
G75*
G02*
X154287113Y-89306856I601041J601041D01*
G01*
X154287113Y-89306856D01*
G75*
G02*
X155489195Y-89306856I601041J-601041D01*
G01*
X155489195Y-89306856D01*
G75*
G02*
X155489195Y-90508938I-601041J-601041D01*
G01*
G37*
%TD.AperFunction*%
%TA.AperFunction,ComponentPad*%
G36*
X149500000Y-103606031D02*
G01*
X148297918Y-102403949D01*
X149500000Y-101201867D01*
X150702082Y-102403949D01*
X149500000Y-103606031D01*
G37*
%TD.AperFunction*%
%TA.AperFunction,ComponentPad*%
G36*
G01*
X150695010Y-104801041D02*
X150695010Y-104801041D01*
G75*
G02*
X150695010Y-103598959I601041J601041D01*
G01*
X150695010Y-103598959D01*
G75*
G02*
X151897092Y-103598959I601041J-601041D01*
G01*
X151897092Y-103598959D01*
G75*
G02*
X151897092Y-104801041I-601041J-601041D01*
G01*
X151897092Y-104801041D01*
G75*
G02*
X150695010Y-104801041I-601041J601041D01*
G01*
G37*
%TD.AperFunction*%
%TA.AperFunction,ComponentPad*%
G36*
G01*
X152491061Y-106597092D02*
X152491061Y-106597092D01*
G75*
G02*
X152491061Y-105395010I601041J601041D01*
G01*
X152491061Y-105395010D01*
G75*
G02*
X153693143Y-105395010I601041J-601041D01*
G01*
X153693143Y-105395010D01*
G75*
G02*
X153693143Y-106597092I-601041J-601041D01*
G01*
X153693143Y-106597092D01*
G75*
G02*
X152491061Y-106597092I-601041J601041D01*
G01*
G37*
%TD.AperFunction*%
%TA.AperFunction,ComponentPad*%
G36*
G01*
X154287113Y-108393144D02*
X154287113Y-108393144D01*
G75*
G02*
X154287113Y-107191062I601041J601041D01*
G01*
X154287113Y-107191062D01*
G75*
G02*
X155489195Y-107191062I601041J-601041D01*
G01*
X155489195Y-107191062D01*
G75*
G02*
X155489195Y-108393144I-601041J-601041D01*
G01*
X155489195Y-108393144D01*
G75*
G02*
X154287113Y-108393144I-601041J601041D01*
G01*
G37*
%TD.AperFunction*%
D15*
X149605000Y-113000000D03*
X148335000Y-113000000D03*
X147065000Y-113000000D03*
X145795000Y-113000000D03*
X145795000Y-118400000D03*
X147065000Y-118400000D03*
X148335000Y-118400000D03*
X149605000Y-118400000D03*
D16*
X133400000Y-123500000D03*
X135900000Y-123500000D03*
%TA.AperFunction,SMDPad,CuDef*%
D13*
G36*
X125827729Y-116556155D02*
G01*
X124943845Y-115672271D01*
X126004505Y-114611611D01*
X126888389Y-115495495D01*
X125827729Y-116556155D01*
G37*
%TD.AperFunction*%
%TA.AperFunction,SMDPad,CuDef*%
G36*
X127595495Y-114788389D02*
G01*
X126711611Y-113904505D01*
X127772271Y-112843845D01*
X128656155Y-113727729D01*
X127595495Y-114788389D01*
G37*
%TD.AperFunction*%
D11*
X158800000Y-110500000D03*
D17*
X126725000Y-78450000D03*
X126725000Y-79450000D03*
X126725000Y-80450000D03*
X126725000Y-81450000D03*
X126725000Y-77450000D03*
X126725000Y-76450000D03*
X136675000Y-76450000D03*
X136675000Y-77450000D03*
X136675000Y-78450000D03*
X136675000Y-79450000D03*
X136675000Y-80450000D03*
X136675000Y-81450000D03*
D18*
X131700000Y-78950000D03*
D19*
X131700000Y-75400000D03*
X131700000Y-82500000D03*
%TA.AperFunction,ComponentPad*%
D14*
G36*
X145102082Y-87200000D02*
G01*
X143900000Y-88402082D01*
X142697918Y-87200000D01*
X143900000Y-85997918D01*
X145102082Y-87200000D01*
G37*
%TD.AperFunction*%
%TA.AperFunction,ComponentPad*%
G36*
G01*
X146297092Y-86004990D02*
X146297092Y-86004990D01*
G75*
G02*
X145095010Y-86004990I-601041J601041D01*
G01*
X145095010Y-86004990D01*
G75*
G02*
X145095010Y-84802908I601041J601041D01*
G01*
X145095010Y-84802908D01*
G75*
G02*
X146297092Y-84802908I601041J-601041D01*
G01*
X146297092Y-84802908D01*
G75*
G02*
X146297092Y-86004990I-601041J-601041D01*
G01*
G37*
%TD.AperFunction*%
%TA.AperFunction,ComponentPad*%
G36*
X150302082Y-82000000D02*
G01*
X149100000Y-83202082D01*
X147897918Y-82000000D01*
X149100000Y-80797918D01*
X150302082Y-82000000D01*
G37*
%TD.AperFunction*%
%TA.AperFunction,ComponentPad*%
G36*
G01*
X151497092Y-80804990D02*
X151497092Y-80804990D01*
G75*
G02*
X150295010Y-80804990I-601041J601041D01*
G01*
X150295010Y-80804990D01*
G75*
G02*
X150295010Y-79602908I601041J601041D01*
G01*
X150295010Y-79602908D01*
G75*
G02*
X151497092Y-79602908I601041J-601041D01*
G01*
X151497092Y-79602908D01*
G75*
G02*
X151497092Y-80804990I-601041J-601041D01*
G01*
G37*
%TD.AperFunction*%
%TA.AperFunction,SMDPad,CuDef*%
D13*
G36*
X118404505Y-109811611D02*
G01*
X119288389Y-110695495D01*
X118227729Y-111756155D01*
X117343845Y-110872271D01*
X118404505Y-109811611D01*
G37*
%TD.AperFunction*%
%TA.AperFunction,SMDPad,CuDef*%
G36*
X120172271Y-108043845D02*
G01*
X121056155Y-108927729D01*
X119995495Y-109988389D01*
X119111611Y-109104505D01*
X120172271Y-108043845D01*
G37*
%TD.AperFunction*%
%TA.AperFunction,SMDPad,CuDef*%
G36*
X120827729Y-114156155D02*
G01*
X119943845Y-113272271D01*
X121004505Y-112211611D01*
X121888389Y-113095495D01*
X120827729Y-114156155D01*
G37*
%TD.AperFunction*%
%TA.AperFunction,SMDPad,CuDef*%
G36*
X122595495Y-112388389D02*
G01*
X121711611Y-111504505D01*
X122772271Y-110443845D01*
X123656155Y-111327729D01*
X122595495Y-112388389D01*
G37*
%TD.AperFunction*%
D20*
X148000000Y-111400000D03*
X128300000Y-116100000D03*
X131700000Y-122800000D03*
X140300000Y-117400000D03*
X110300000Y-95800000D03*
X110300000Y-99400000D03*
X123100000Y-115500000D03*
X134750000Y-78750000D03*
X146700000Y-106100000D03*
X139100000Y-76100000D03*
X128600000Y-78800000D03*
X154000000Y-110600000D03*
X151200000Y-110600000D03*
X119100000Y-122000000D03*
X143500000Y-120000000D03*
X124400000Y-114100000D03*
X134300000Y-114900000D03*
X116100000Y-95800012D03*
X116124979Y-100800000D03*
X120500000Y-94700000D03*
X128100000Y-125400000D03*
X139800000Y-121200000D03*
X127400000Y-105400000D03*
X131600000Y-107200000D03*
X135900002Y-86000000D03*
X125550000Y-123500000D03*
X126400000Y-123900000D03*
X134600000Y-117300006D03*
X107600000Y-106400000D03*
X135500000Y-117600004D03*
X113099998Y-104800000D03*
X133700000Y-120200000D03*
X110600000Y-101100000D03*
X138400000Y-112100000D03*
X139300000Y-112399996D03*
X138700000Y-122100000D03*
X135200000Y-74300000D03*
X124200000Y-76300000D03*
X129300000Y-119300000D03*
X129800000Y-118300000D03*
X129384860Y-117564673D03*
X125000000Y-83000000D03*
X135200000Y-83500000D03*
X135700000Y-115900000D03*
X120900000Y-81800000D03*
X122500000Y-78500000D03*
X118250000Y-78750000D03*
X119750000Y-77500000D03*
X123500000Y-83500000D03*
X139500000Y-78500000D03*
X122900000Y-113800000D03*
D21*
X127983883Y-115783883D02*
X126216117Y-115783883D01*
D22*
X148335000Y-113000000D02*
X148335000Y-111735000D01*
X148335000Y-111735000D02*
X148000000Y-111400000D01*
D21*
X127983883Y-115783883D02*
X128300000Y-116100000D01*
X133400000Y-123500000D02*
X132400000Y-123500000D01*
X132400000Y-123500000D02*
X131700000Y-122800000D01*
D23*
X141850000Y-116750000D02*
X140950000Y-116750000D01*
X140950000Y-116750000D02*
X140300000Y-117400000D01*
D21*
X113625000Y-97030000D02*
X112395000Y-95800000D01*
X110724264Y-95800000D02*
X110300000Y-95800000D01*
X112395000Y-95800000D02*
X110724264Y-95800000D01*
X108575000Y-99570000D02*
X108745000Y-99400000D01*
X108745000Y-99400000D02*
X109875736Y-99400000D01*
X109875736Y-99400000D02*
X110300000Y-99400000D01*
D24*
X131700000Y-75400000D02*
X131700000Y-78950000D01*
X131700000Y-82500000D02*
X131700000Y-78950000D01*
X131700000Y-75700000D02*
X134750000Y-78750000D01*
X131700000Y-75400000D02*
X131700000Y-75700000D01*
X138750000Y-76450000D02*
X139100000Y-76100000D01*
X136675000Y-76450000D02*
X138750000Y-76450000D01*
D22*
X131700000Y-82500000D02*
X131700000Y-82000000D01*
D24*
X131700000Y-81900000D02*
X128600000Y-78800000D01*
X131700000Y-82500000D02*
X131700000Y-81900000D01*
X148016117Y-107416117D02*
X146700000Y-106100000D01*
X149783883Y-109183883D02*
X151200000Y-110600000D01*
D21*
X125100000Y-113400000D02*
X124400000Y-114100000D01*
X116100000Y-95800012D02*
X116100000Y-100775021D01*
X116100000Y-100775021D02*
X116124979Y-100800000D01*
X127400000Y-113400000D02*
X125100000Y-113400000D01*
X127471231Y-113503465D02*
X127471231Y-113471231D01*
X127471231Y-113471231D02*
X127400000Y-113400000D01*
X127983883Y-114016117D02*
X127471231Y-113503465D01*
X125150000Y-123900000D02*
X125550000Y-123500000D01*
X123200000Y-123900000D02*
X125150000Y-123900000D01*
X104700000Y-105400000D02*
X123200000Y-123900000D01*
X104700000Y-95600000D02*
X104700000Y-105400000D01*
X108575000Y-94490000D02*
X105810000Y-94490000D01*
X105810000Y-94490000D02*
X104700000Y-95600000D01*
X112050000Y-94490000D02*
X114125000Y-94490000D01*
X110960000Y-93400000D02*
X112050000Y-94490000D01*
X125900000Y-124400000D02*
X123000000Y-124400000D01*
X126400000Y-123900000D02*
X125900000Y-124400000D01*
X104200000Y-105600000D02*
X104200000Y-94600000D01*
X104200000Y-94600000D02*
X105400000Y-93400000D01*
X123000000Y-124400000D02*
X104200000Y-105600000D01*
X105400000Y-93400000D02*
X110960000Y-93400000D01*
X108575000Y-102110000D02*
X108575000Y-107875000D01*
X108575000Y-107875000D02*
X122000000Y-121300000D01*
X135199999Y-118324269D02*
X134600000Y-117724270D01*
X122000000Y-121300000D02*
X133800000Y-121300000D01*
X133800000Y-121300000D02*
X135199999Y-119900001D01*
X134600000Y-117724270D02*
X134600000Y-117300006D01*
X135199999Y-119900001D02*
X135199999Y-118324269D01*
X135500000Y-117600004D02*
X135799999Y-117900003D01*
X135799999Y-120100001D02*
X134100000Y-121800000D01*
X135799999Y-117900003D02*
X135799999Y-120100001D01*
X121775736Y-121800000D02*
X107600000Y-107624264D01*
X134100000Y-121800000D02*
X121775736Y-121800000D01*
X107600000Y-107624264D02*
X107600000Y-106824264D01*
X107600000Y-106824264D02*
X107600000Y-106400000D01*
X113099998Y-104375736D02*
X113099998Y-104800000D01*
X113099998Y-102635002D02*
X113099998Y-104375736D01*
X113625000Y-102110000D02*
X113099998Y-102635002D01*
X110600000Y-101524264D02*
X110600000Y-101100000D01*
X110600000Y-109000000D02*
X110600000Y-101524264D01*
X122099999Y-120499999D02*
X110600000Y-109000000D01*
X133700000Y-120200000D02*
X133400001Y-120499999D01*
X133400001Y-120499999D02*
X122099999Y-120499999D01*
X149605000Y-113000000D02*
X149605000Y-114025000D01*
X149605000Y-114025000D02*
X149330000Y-114300000D01*
X140175736Y-114300000D02*
X138400000Y-112524264D01*
X138400000Y-112524264D02*
X138400000Y-112100000D01*
X149330000Y-114300000D02*
X140175736Y-114300000D01*
X140500004Y-113600000D02*
X139300000Y-112399996D01*
X145195000Y-113600000D02*
X140500004Y-113600000D01*
X145795000Y-113000000D02*
X145195000Y-113600000D01*
X143400000Y-122000000D02*
X138800000Y-122000000D01*
X138800000Y-122000000D02*
X138700000Y-122100000D01*
X144900000Y-122000000D02*
X143400000Y-122000000D01*
X146500000Y-122000000D02*
X143400000Y-122000000D01*
X149605000Y-118400000D02*
X149605000Y-118895000D01*
X149605000Y-118895000D02*
X146500000Y-122000000D01*
X146500000Y-122000000D02*
X145100000Y-122000000D01*
X149503949Y-95296051D02*
X152200000Y-97992102D01*
X151900000Y-99300000D02*
X151966756Y-99307521D01*
X151207521Y-99066756D02*
X151229709Y-99130165D01*
X152200000Y-97992102D02*
X152200000Y-98400000D01*
X151433243Y-98707521D02*
X151369834Y-98729709D01*
X151369834Y-99270290D02*
X151433243Y-99292478D01*
X152200000Y-98400000D02*
X152192478Y-98466756D01*
X151500000Y-98700000D02*
X151433243Y-98707521D01*
X152192478Y-98466756D02*
X152170290Y-98530165D01*
X151900000Y-98700000D02*
X151500000Y-98700000D01*
X152170290Y-98530165D02*
X152134549Y-98587046D01*
X152134549Y-98587046D02*
X152087046Y-98634549D01*
X151369834Y-98729709D02*
X151312953Y-98765450D01*
X151966756Y-99307521D02*
X152030165Y-99329709D01*
X152134549Y-99412953D02*
X152170290Y-99469834D01*
X152087046Y-98634549D02*
X152030165Y-98670290D01*
X152030165Y-98670290D02*
X151966756Y-98692478D01*
X151966756Y-98692478D02*
X151900000Y-98700000D01*
X151312953Y-98765450D02*
X151265450Y-98812953D01*
X151265450Y-98812953D02*
X151229709Y-98869834D01*
X151229709Y-98869834D02*
X151207521Y-98933243D01*
X151207521Y-98933243D02*
X151200000Y-99000000D01*
X151200000Y-99000000D02*
X151207521Y-99066756D01*
X151433243Y-99292478D02*
X151500000Y-99300000D01*
X151229709Y-99130165D02*
X151265450Y-99187046D01*
X151265450Y-99187046D02*
X151312953Y-99234549D01*
X152200000Y-101200000D02*
X151667802Y-101732198D01*
X152170290Y-99469834D02*
X152192478Y-99533243D01*
X151312953Y-99234549D02*
X151369834Y-99270290D01*
X151500000Y-99300000D02*
X151900000Y-99300000D01*
X152030165Y-99329709D02*
X152087046Y-99365450D01*
X152087046Y-99365450D02*
X152134549Y-99412953D01*
X152192478Y-99533243D02*
X152200000Y-99600000D01*
X152200000Y-99600000D02*
X152200000Y-101200000D01*
X150171751Y-101732198D02*
X149500000Y-102403949D01*
X151667802Y-101732198D02*
X150171751Y-101732198D01*
X149500000Y-105900000D02*
X149500000Y-102403949D01*
X152375000Y-108775000D02*
X149500000Y-105900000D01*
X152375000Y-115025000D02*
X152375000Y-108775000D01*
X149700000Y-115900000D02*
X151500000Y-115900000D01*
X151500000Y-115900000D02*
X152375000Y-115025000D01*
X148600000Y-117000000D02*
X149700000Y-115900000D01*
X147990000Y-117000000D02*
X148600000Y-117000000D01*
X147065000Y-117925000D02*
X147990000Y-117000000D01*
X147065000Y-118400000D02*
X147065000Y-117925000D01*
X151300000Y-93500000D02*
X151300000Y-96449989D01*
X152650011Y-101386399D02*
X151300000Y-102736410D01*
X151300000Y-96449989D02*
X152650011Y-97800000D01*
X152650011Y-97800000D02*
X152650011Y-101386399D01*
X151300000Y-102736410D02*
X151300000Y-104196051D01*
X151296051Y-106996051D02*
X151296051Y-104200000D01*
X152825011Y-108525011D02*
X151296051Y-106996051D01*
X152825011Y-112600000D02*
X152825011Y-108525011D01*
X152832532Y-112666756D02*
X152825011Y-112600000D01*
X152854720Y-112730165D02*
X152832532Y-112666756D01*
X152890461Y-112787046D02*
X152854720Y-112730165D01*
X152937964Y-112834549D02*
X152890461Y-112787046D01*
X152994845Y-112870290D02*
X152937964Y-112834549D01*
X153058254Y-112892478D02*
X152994845Y-112870290D01*
X153271844Y-114100000D02*
X153125011Y-114100000D01*
X153402009Y-114129709D02*
X153338600Y-114107521D01*
X153458890Y-114165450D02*
X153402009Y-114129709D01*
X153506393Y-113012953D02*
X153458890Y-112965450D01*
X153506393Y-114212953D02*
X153458890Y-114165450D01*
X153564322Y-114333243D02*
X153542134Y-114269834D01*
X153542134Y-114269834D02*
X153506393Y-114212953D01*
X153542134Y-114530165D02*
X153564322Y-114466756D01*
X153506393Y-114587046D02*
X153542134Y-114530165D01*
X153338600Y-114692478D02*
X153402009Y-114670290D01*
X153271844Y-114700000D02*
X153338600Y-114692478D01*
X148335000Y-118400000D02*
X148335000Y-117925000D01*
X148335000Y-117925000D02*
X149909989Y-116350011D01*
X152825011Y-115211400D02*
X152825011Y-115000000D01*
X149909989Y-116350011D02*
X151686400Y-116350011D01*
X153458890Y-112965450D02*
X153402009Y-112929709D01*
X152832532Y-114933243D02*
X152854720Y-114869834D01*
X153125011Y-114100000D02*
X153058254Y-114092478D01*
X153125011Y-114700000D02*
X153271844Y-114700000D01*
X153458890Y-114634549D02*
X153506393Y-114587046D01*
X153125011Y-112900000D02*
X153058254Y-112892478D01*
X151686400Y-116350011D02*
X152825011Y-115211400D01*
X152825011Y-115000000D02*
X152832532Y-114933243D01*
X152854720Y-114869834D02*
X152890461Y-114812953D01*
X153564322Y-114466756D02*
X153571844Y-114400000D01*
X152890461Y-114812953D02*
X152937964Y-114765450D01*
X153338600Y-114107521D02*
X153271844Y-114100000D01*
X152994845Y-114729709D02*
X153058254Y-114707521D01*
X153402009Y-114670290D02*
X153458890Y-114634549D01*
X153542134Y-113330165D02*
X153564322Y-113266756D01*
X152937964Y-114765450D02*
X152994845Y-114729709D01*
X153571844Y-114400000D02*
X153564322Y-114333243D01*
X153058254Y-114707521D02*
X153125011Y-114700000D01*
X153058254Y-114092478D02*
X152994845Y-114070290D01*
X152994845Y-114070290D02*
X152937964Y-114034549D01*
X152937964Y-114034549D02*
X152890461Y-113987046D01*
X152890461Y-113987046D02*
X152854720Y-113930165D01*
X152854720Y-113930165D02*
X152832532Y-113866756D01*
X152832532Y-113866756D02*
X152825011Y-113800000D01*
X152825011Y-113800000D02*
X152832532Y-113733243D01*
X153542134Y-113069834D02*
X153506393Y-113012953D01*
X152832532Y-113733243D02*
X152854720Y-113669834D01*
X153338600Y-112907521D02*
X153271844Y-112900000D01*
X152854720Y-113669834D02*
X152890461Y-113612953D01*
X152890461Y-113612953D02*
X152937964Y-113565450D01*
X152937964Y-113565450D02*
X152994845Y-113529709D01*
X152994845Y-113529709D02*
X153058254Y-113507521D01*
X153564322Y-113133243D02*
X153542134Y-113069834D01*
X153058254Y-113507521D02*
X153125011Y-113500000D01*
X153125011Y-113500000D02*
X153271844Y-113500000D01*
X153271844Y-113500000D02*
X153338600Y-113492478D01*
X153338600Y-113492478D02*
X153402009Y-113470290D01*
X153402009Y-113470290D02*
X153458890Y-113434549D01*
X153402009Y-112929709D02*
X153338600Y-112907521D01*
X153458890Y-113434549D02*
X153506393Y-113387046D01*
X153506393Y-113387046D02*
X153542134Y-113330165D01*
X153571844Y-113200000D02*
X153564322Y-113133243D01*
X153564322Y-113266756D02*
X153571844Y-113200000D01*
X153271844Y-112900000D02*
X153125011Y-112900000D01*
D24*
X144550000Y-77450000D02*
X136675000Y-77450000D01*
X149100000Y-82000000D02*
X144550000Y-77450000D01*
X135639998Y-77450000D02*
X136675000Y-77450000D01*
X135200000Y-77010002D02*
X135639998Y-77450000D01*
X135200000Y-74300000D02*
X135200000Y-77010002D01*
X124200000Y-76300000D02*
X126575000Y-76300000D01*
X129900000Y-73100000D02*
X126725000Y-76275000D01*
X143000000Y-73100000D02*
X129900000Y-73100000D01*
X150103949Y-80203949D02*
X143000000Y-73100000D01*
X150896051Y-80203949D02*
X150103949Y-80203949D01*
D21*
X114599978Y-111872800D02*
X121727178Y-119000000D01*
X114599978Y-107427200D02*
X114599978Y-111872800D01*
X118000000Y-104027178D02*
X114599978Y-107427200D01*
X118000000Y-94700000D02*
X118000000Y-104027178D01*
X113749967Y-90449967D02*
X118000000Y-94700000D01*
X113749967Y-85750033D02*
X113749967Y-90449967D01*
X119500000Y-80000000D02*
X113749967Y-85750033D01*
X129000000Y-119000000D02*
X129300000Y-119300000D01*
X124011410Y-80000000D02*
X119500000Y-80000000D01*
X124461410Y-80450000D02*
X124011410Y-80000000D01*
X121727178Y-119000000D02*
X129000000Y-119000000D01*
X126725000Y-80450000D02*
X124461410Y-80450000D01*
X121763589Y-118400000D02*
X129700000Y-118400000D01*
X129700000Y-118400000D02*
X129800000Y-118300000D01*
X115049989Y-111686400D02*
X121763589Y-118400000D01*
X118450011Y-104213578D02*
X115049989Y-107613600D01*
X118450011Y-94513600D02*
X118450011Y-104213578D01*
X114199978Y-90263568D02*
X118450011Y-94513600D01*
X114199978Y-86100022D02*
X114199978Y-90263568D01*
X119800009Y-80499991D02*
X114199978Y-86100022D01*
X123749991Y-80499991D02*
X119800009Y-80499991D01*
X115049989Y-107613600D02*
X115049989Y-111686400D01*
X124700000Y-81450000D02*
X123749991Y-80499991D01*
X126725000Y-81450000D02*
X124700000Y-81450000D01*
X123450001Y-80950001D02*
X125000000Y-82500000D01*
X125000000Y-82500000D02*
X125000000Y-83000000D01*
X114649989Y-90077168D02*
X114649989Y-86413600D01*
X118900022Y-94327200D02*
X114649989Y-90077168D01*
X114649989Y-86413600D02*
X120113588Y-80950001D01*
X118900022Y-104399978D02*
X118900022Y-94327200D01*
X115500000Y-107800000D02*
X118900022Y-104399978D01*
X120113588Y-80950001D02*
X123450001Y-80950001D01*
X115500000Y-111500000D02*
X115500000Y-107800000D01*
X121800000Y-117800000D02*
X115500000Y-111500000D01*
X129149533Y-117800000D02*
X121800000Y-117800000D01*
X129384860Y-117564673D02*
X129149533Y-117800000D01*
X136675000Y-81450000D02*
X136675000Y-82025000D01*
X136675000Y-82025000D02*
X135200000Y-83500000D01*
X122550000Y-78450000D02*
X122500000Y-78500000D01*
X126725000Y-78450000D02*
X122550000Y-78450000D01*
X129425002Y-115900000D02*
X135700000Y-115900000D01*
X122000000Y-117200000D02*
X128125002Y-117200000D01*
X116000000Y-111200000D02*
X122000000Y-117200000D01*
X116000000Y-107936410D02*
X116000000Y-111200000D01*
X119350033Y-104586378D02*
X116000000Y-107936410D01*
X115100000Y-89890768D02*
X119350033Y-94140800D01*
X115100000Y-86700000D02*
X115100000Y-89890768D01*
X128125002Y-117200000D02*
X129425002Y-115900000D01*
X120000000Y-81800000D02*
X115100000Y-86700000D01*
X119350033Y-94140800D02*
X119350033Y-104586378D01*
X120900000Y-81800000D02*
X120000000Y-81800000D01*
X118950000Y-79450000D02*
X118250000Y-78750000D01*
X126725000Y-79450000D02*
X118950000Y-79450000D01*
X126725000Y-77450000D02*
X119800000Y-77450000D01*
X119800000Y-77450000D02*
X119750000Y-77500000D01*
X135800000Y-79450000D02*
X136675000Y-79450000D01*
X134750000Y-82750000D02*
X134750000Y-80500000D01*
X132750000Y-84750000D02*
X134750000Y-82750000D01*
X124750000Y-84750000D02*
X132750000Y-84750000D01*
X134750000Y-80500000D02*
X135800000Y-79450000D01*
X123500000Y-83500000D02*
X124750000Y-84750000D01*
D24*
X136725000Y-78500000D02*
X136675000Y-78450000D01*
X139500000Y-78500000D02*
X136725000Y-78500000D01*
X143900000Y-87200000D02*
X141025000Y-84325000D01*
X141025000Y-80025000D02*
X139500000Y-78500000D01*
X141025000Y-84325000D02*
X141025000Y-80025000D01*
D21*
X120716117Y-113183883D02*
X120916117Y-113183883D01*
X118316117Y-110783883D02*
X120716117Y-113183883D01*
X122900000Y-113647470D02*
X122900000Y-113800000D01*
X120083883Y-110831353D02*
X122900000Y-113647470D01*
X120083883Y-109016117D02*
X120083883Y-110831353D01*
D25*
X131853194Y-68584139D02*
X131821490Y-68743528D01*
X131821490Y-68906038D01*
X131853194Y-69065427D01*
X131915384Y-69215567D01*
X132005671Y-69350690D01*
X132120583Y-69465602D01*
X132255706Y-69555889D01*
X132405846Y-69618079D01*
X132565235Y-69649783D01*
X132727745Y-69649783D01*
X132887134Y-69618079D01*
X133037274Y-69555889D01*
X133172397Y-69465602D01*
X133287309Y-69350690D01*
X133377596Y-69215567D01*
X133439786Y-69065427D01*
X133471490Y-68906038D01*
X133471490Y-68743528D01*
X133439786Y-68584139D01*
X133431400Y-68563893D01*
X134495592Y-68621592D01*
X136637308Y-68893725D01*
X137707869Y-69109186D01*
X137668957Y-69167421D01*
X137606767Y-69317561D01*
X137575063Y-69476950D01*
X137575063Y-69639460D01*
X137606767Y-69798849D01*
X137668957Y-69948989D01*
X137759244Y-70084112D01*
X137874156Y-70199024D01*
X138009279Y-70289311D01*
X138159419Y-70351501D01*
X138318808Y-70383205D01*
X138481318Y-70383205D01*
X138640707Y-70351501D01*
X138790847Y-70289311D01*
X138925970Y-70199024D01*
X139040882Y-70084112D01*
X139131169Y-69948989D01*
X139193359Y-69798849D01*
X139225063Y-69639460D01*
X139225063Y-69476950D01*
X139219502Y-69448990D01*
X140834048Y-69897267D01*
X142867192Y-70623444D01*
X143313187Y-70820087D01*
X143259181Y-70874093D01*
X143168894Y-71009216D01*
X143106704Y-71159356D01*
X143075000Y-71318745D01*
X143075000Y-71481255D01*
X143106704Y-71640644D01*
X143168894Y-71790784D01*
X143259181Y-71925907D01*
X143374093Y-72040819D01*
X143509216Y-72131106D01*
X143659356Y-72193296D01*
X143818745Y-72225000D01*
X143981255Y-72225000D01*
X144140644Y-72193296D01*
X144290784Y-72131106D01*
X144425907Y-72040819D01*
X144540819Y-71925907D01*
X144631106Y-71790784D01*
X144693296Y-71640644D01*
X144725000Y-71481255D01*
X144725000Y-71442567D01*
X144842636Y-71494434D01*
X146750082Y-72505698D01*
X148481223Y-73590335D01*
X148409034Y-73638571D01*
X148294122Y-73753483D01*
X148203835Y-73888606D01*
X148141645Y-74038746D01*
X148109941Y-74198135D01*
X148109941Y-74360645D01*
X148141645Y-74520034D01*
X148203835Y-74670174D01*
X148294122Y-74805297D01*
X148409034Y-74920209D01*
X148544157Y-75010496D01*
X148694297Y-75072686D01*
X148853686Y-75104390D01*
X149016196Y-75104390D01*
X149175585Y-75072686D01*
X149325725Y-75010496D01*
X149460848Y-74920209D01*
X149575760Y-74805297D01*
X149666047Y-74670174D01*
X149728237Y-74520034D01*
X149732955Y-74496315D01*
X150321608Y-74927253D01*
X151967067Y-76324918D01*
X152987370Y-77326964D01*
X152920611Y-77354616D01*
X152785488Y-77444903D01*
X152670576Y-77559815D01*
X152580289Y-77694938D01*
X152518099Y-77845078D01*
X152486395Y-78004467D01*
X152486395Y-78166977D01*
X152518099Y-78326366D01*
X152580289Y-78476506D01*
X152670576Y-78611629D01*
X152785488Y-78726541D01*
X152920611Y-78816828D01*
X153070751Y-78879018D01*
X153230140Y-78910722D01*
X153392650Y-78910722D01*
X153552039Y-78879018D01*
X153702179Y-78816828D01*
X153837302Y-78726541D01*
X153952214Y-78611629D01*
X154042501Y-78476506D01*
X154051353Y-78455135D01*
X154934529Y-79457631D01*
X156241062Y-81176345D01*
X156690394Y-81865528D01*
X156620535Y-81879424D01*
X156470395Y-81941614D01*
X156335272Y-82031901D01*
X156220360Y-82146813D01*
X156130073Y-82281936D01*
X156067883Y-82432076D01*
X156036179Y-82591465D01*
X156036179Y-82753975D01*
X156067883Y-82913364D01*
X156130073Y-83063504D01*
X156220360Y-83198627D01*
X156335272Y-83313539D01*
X156470395Y-83403826D01*
X156620535Y-83466016D01*
X156779924Y-83497720D01*
X156942434Y-83497720D01*
X157101823Y-83466016D01*
X157251963Y-83403826D01*
X157387086Y-83313539D01*
X157501998Y-83198627D01*
X157521961Y-83168751D01*
X158465707Y-84873733D01*
X159372220Y-86833130D01*
X159450010Y-87039109D01*
X159366620Y-87039109D01*
X159207231Y-87070813D01*
X159057091Y-87133003D01*
X158921968Y-87223290D01*
X158807056Y-87338202D01*
X158716769Y-87473325D01*
X158654579Y-87623465D01*
X158622875Y-87782854D01*
X158622875Y-87945364D01*
X158654579Y-88104753D01*
X158716769Y-88254893D01*
X158807056Y-88390016D01*
X158921968Y-88504928D01*
X159057091Y-88595215D01*
X159207231Y-88657405D01*
X159366620Y-88689109D01*
X159529130Y-88689109D01*
X159688519Y-88657405D01*
X159838659Y-88595215D01*
X159973782Y-88504928D01*
X159995422Y-88483288D01*
X160134985Y-88852832D01*
X160750025Y-90922308D01*
X161130479Y-92650731D01*
X161053334Y-92635386D01*
X160890824Y-92635386D01*
X160731435Y-92667090D01*
X160581295Y-92729280D01*
X160446172Y-92819567D01*
X160331260Y-92934479D01*
X160240973Y-93069602D01*
X160178783Y-93219742D01*
X160147079Y-93379131D01*
X160147079Y-93541641D01*
X160178783Y-93701030D01*
X160240973Y-93851170D01*
X160331260Y-93986293D01*
X160446172Y-94101205D01*
X160581295Y-94191492D01*
X160731435Y-94253682D01*
X160890824Y-94285386D01*
X161053334Y-94285386D01*
X161212723Y-94253682D01*
X161362863Y-94191492D01*
X161381183Y-94179251D01*
X161524888Y-95167224D01*
X161620556Y-96489591D01*
X161340803Y-96605468D01*
X161009138Y-96827080D01*
X160727080Y-97109138D01*
X160505468Y-97440803D01*
X160352820Y-97809329D01*
X160275000Y-98200555D01*
X160275000Y-98599445D01*
X160352820Y-98990671D01*
X160505468Y-99359197D01*
X160727080Y-99690862D01*
X161009138Y-99972920D01*
X161340803Y-100194532D01*
X161620556Y-100310409D01*
X161524888Y-101632776D01*
X161214132Y-103769230D01*
X161094959Y-104310638D01*
X161032579Y-104268957D01*
X160882439Y-104206767D01*
X160723050Y-104175063D01*
X160560540Y-104175063D01*
X160401151Y-104206767D01*
X160251011Y-104268957D01*
X160115888Y-104359244D01*
X160000976Y-104474156D01*
X159910689Y-104609279D01*
X159848499Y-104759419D01*
X159816795Y-104918808D01*
X159816795Y-105081318D01*
X159848499Y-105240707D01*
X159910689Y-105390847D01*
X160000976Y-105525970D01*
X160115888Y-105640882D01*
X160251011Y-105731169D01*
X160401151Y-105793359D01*
X160560540Y-105825063D01*
X160723050Y-105825063D01*
X160763375Y-105817042D01*
X160750025Y-105877692D01*
X160134985Y-107947168D01*
X159389045Y-109922319D01*
X159325907Y-109859181D01*
X159190784Y-109768894D01*
X159040644Y-109706704D01*
X158881255Y-109675000D01*
X158718745Y-109675000D01*
X158559356Y-109706704D01*
X158409216Y-109768894D01*
X158274093Y-109859181D01*
X158159181Y-109974093D01*
X158068894Y-110109216D01*
X158006704Y-110259356D01*
X157975000Y-110418745D01*
X157975000Y-110581255D01*
X158006704Y-110740644D01*
X158068894Y-110890784D01*
X158159181Y-111025907D01*
X158274093Y-111140819D01*
X158409216Y-111231106D01*
X158559356Y-111293296D01*
X158718745Y-111325000D01*
X158743883Y-111325000D01*
X158465707Y-111926267D01*
X157420170Y-113815145D01*
X156602098Y-115069899D01*
X156561429Y-115009034D01*
X156446517Y-114894122D01*
X156311394Y-114803835D01*
X156161254Y-114741645D01*
X156001865Y-114709941D01*
X155839355Y-114709941D01*
X155679966Y-114741645D01*
X155529826Y-114803835D01*
X155394703Y-114894122D01*
X155279791Y-115009034D01*
X155189504Y-115144157D01*
X155127314Y-115294297D01*
X155095610Y-115453686D01*
X155095610Y-115616196D01*
X155127314Y-115775585D01*
X155189504Y-115925725D01*
X155279791Y-116060848D01*
X155394703Y-116175760D01*
X155529826Y-116266047D01*
X155679966Y-116328237D01*
X155702105Y-116332641D01*
X154934529Y-117342369D01*
X153507384Y-118962327D01*
X152872434Y-119585915D01*
X152845384Y-119520611D01*
X152755097Y-119385488D01*
X152640185Y-119270576D01*
X152505062Y-119180289D01*
X152354922Y-119118099D01*
X152195533Y-119086395D01*
X152033023Y-119086395D01*
X151873634Y-119118099D01*
X151723494Y-119180289D01*
X151588371Y-119270576D01*
X151473459Y-119385488D01*
X151383172Y-119520611D01*
X151320982Y-119670751D01*
X151289278Y-119830140D01*
X151289278Y-119992650D01*
X151320982Y-120152039D01*
X151383172Y-120302179D01*
X151473459Y-120437302D01*
X151588371Y-120552214D01*
X151723494Y-120642501D01*
X151754733Y-120655440D01*
X150321608Y-121872747D01*
X148579585Y-123148037D01*
X148336456Y-123300368D01*
X148320576Y-123220535D01*
X148258386Y-123070395D01*
X148168099Y-122935272D01*
X148053187Y-122820360D01*
X147918064Y-122730073D01*
X147767924Y-122667883D01*
X147608535Y-122636179D01*
X147446025Y-122636179D01*
X147286636Y-122667883D01*
X147136496Y-122730073D01*
X147001373Y-122820360D01*
X146886461Y-122935272D01*
X146796174Y-123070395D01*
X146733984Y-123220535D01*
X146702280Y-123379924D01*
X146702280Y-123542434D01*
X146733984Y-123701823D01*
X146796174Y-123851963D01*
X146886461Y-123987086D01*
X147001373Y-124101998D01*
X147028297Y-124119988D01*
X146750082Y-124294302D01*
X144842636Y-125305566D01*
X143160891Y-126047062D01*
X143160891Y-125966620D01*
X143129187Y-125807231D01*
X143066997Y-125657091D01*
X142976710Y-125521968D01*
X142861798Y-125407056D01*
X142726675Y-125316769D01*
X142576535Y-125254579D01*
X142417146Y-125222875D01*
X142254636Y-125222875D01*
X142095247Y-125254579D01*
X141945107Y-125316769D01*
X141809984Y-125407056D01*
X141695072Y-125521968D01*
X141604785Y-125657091D01*
X141542595Y-125807231D01*
X141510891Y-125966620D01*
X141510891Y-126129130D01*
X141542595Y-126288519D01*
X141604785Y-126438659D01*
X141695072Y-126573782D01*
X141710854Y-126589564D01*
X140834048Y-126902733D01*
X138753805Y-127480310D01*
X137550874Y-127722411D01*
X137564614Y-127653334D01*
X137564614Y-127490824D01*
X137532910Y-127331435D01*
X137470720Y-127181295D01*
X137380433Y-127046172D01*
X137265521Y-126931260D01*
X137130398Y-126840973D01*
X136980258Y-126778783D01*
X136820869Y-126747079D01*
X136658359Y-126747079D01*
X136498970Y-126778783D01*
X136348830Y-126840973D01*
X136213707Y-126931260D01*
X136098795Y-127046172D01*
X136008508Y-127181295D01*
X135946318Y-127331435D01*
X135914614Y-127490824D01*
X135914614Y-127653334D01*
X135946318Y-127812723D01*
X136008508Y-127962863D01*
X136022864Y-127984348D01*
X134495592Y-128178408D01*
X132339822Y-128295291D01*
X131718552Y-128284073D01*
X131746806Y-128215861D01*
X131778510Y-128056472D01*
X131778510Y-127893962D01*
X131746806Y-127734573D01*
X131684616Y-127584433D01*
X131594329Y-127449310D01*
X131479417Y-127334398D01*
X131344294Y-127244111D01*
X131194154Y-127181921D01*
X131034765Y-127150217D01*
X130872255Y-127150217D01*
X130712866Y-127181921D01*
X130562726Y-127244111D01*
X130427603Y-127334398D01*
X130312691Y-127449310D01*
X130222404Y-127584433D01*
X130160214Y-127734573D01*
X130128510Y-127893962D01*
X130128510Y-128056472D01*
X130160214Y-128215861D01*
X130176803Y-128255912D01*
X128031093Y-128061678D01*
X125900598Y-127712401D01*
X125880861Y-127707681D01*
X125931043Y-127632579D01*
X125993233Y-127482439D01*
X126024937Y-127323050D01*
X126024937Y-127160540D01*
X125993233Y-127001151D01*
X125931043Y-126851011D01*
X125840756Y-126715888D01*
X125725844Y-126600976D01*
X125590721Y-126510689D01*
X125440581Y-126448499D01*
X125281192Y-126416795D01*
X125118682Y-126416795D01*
X124959293Y-126448499D01*
X124809153Y-126510689D01*
X124674030Y-126600976D01*
X124559118Y-126715888D01*
X124468831Y-126851011D01*
X124406641Y-127001151D01*
X124374937Y-127160540D01*
X124374937Y-127323050D01*
X124380060Y-127348804D01*
X123800859Y-127210303D01*
X121742824Y-126558001D01*
X120288272Y-125978454D01*
X120340819Y-125925907D01*
X120431106Y-125790784D01*
X120493296Y-125640644D01*
X120525000Y-125481255D01*
X120525000Y-125318745D01*
X120493296Y-125159356D01*
X120431106Y-125009216D01*
X120340819Y-124874093D01*
X120225907Y-124759181D01*
X120090784Y-124668894D01*
X119940644Y-124606704D01*
X119781255Y-124575000D01*
X119618745Y-124575000D01*
X119459356Y-124606704D01*
X119309216Y-124668894D01*
X119174093Y-124759181D01*
X119059181Y-124874093D01*
X118968894Y-125009216D01*
X118906704Y-125159356D01*
X118875000Y-125318745D01*
X118875000Y-125340929D01*
X117794511Y-124817155D01*
X115924817Y-123737687D01*
X115132509Y-123200489D01*
X115190966Y-123161429D01*
X115305878Y-123046517D01*
X115396165Y-122911394D01*
X115458355Y-122761254D01*
X115490059Y-122601865D01*
X115490059Y-122439355D01*
X115458355Y-122279966D01*
X115396165Y-122129826D01*
X115305878Y-121994703D01*
X115190966Y-121879791D01*
X115055843Y-121789504D01*
X114905703Y-121727314D01*
X114746314Y-121695610D01*
X114583804Y-121695610D01*
X114424415Y-121727314D01*
X114274275Y-121789504D01*
X114139152Y-121879791D01*
X114024240Y-121994703D01*
X113933953Y-122129826D01*
X113871763Y-122279966D01*
X113865546Y-122311222D01*
X112443044Y-121188770D01*
X110849116Y-119732611D01*
X110605882Y-119475832D01*
X110679389Y-119445384D01*
X110814512Y-119355097D01*
X110929424Y-119240185D01*
X111019711Y-119105062D01*
X111081901Y-118954922D01*
X111113605Y-118795533D01*
X111113605Y-118633023D01*
X111081901Y-118473634D01*
X111019711Y-118323494D01*
X110929424Y-118188371D01*
X110814512Y-118073459D01*
X110679389Y-117983172D01*
X110529249Y-117920982D01*
X110369860Y-117889278D01*
X110207350Y-117889278D01*
X110047961Y-117920982D01*
X109897821Y-117983172D01*
X109762698Y-118073459D01*
X109647786Y-118188371D01*
X109557499Y-118323494D01*
X109544365Y-118355202D01*
X109364417Y-118165233D01*
X107996687Y-116494808D01*
X106898651Y-114936651D01*
X106979465Y-114920576D01*
X107129605Y-114858386D01*
X107264728Y-114768099D01*
X107379640Y-114653187D01*
X107469927Y-114518064D01*
X107532117Y-114367924D01*
X107563821Y-114208535D01*
X107563821Y-114046025D01*
X107532117Y-113886636D01*
X107469927Y-113736496D01*
X107379640Y-113601373D01*
X107264728Y-113486461D01*
X107129605Y-113396174D01*
X106979465Y-113333984D01*
X106820076Y-113302280D01*
X106657566Y-113302280D01*
X106498177Y-113333984D01*
X106348037Y-113396174D01*
X106212914Y-113486461D01*
X106098002Y-113601373D01*
X106085349Y-113620309D01*
X105640008Y-112880146D01*
X104663346Y-110954753D01*
X104162507Y-109760891D01*
X104233380Y-109760891D01*
X104392769Y-109729187D01*
X104542909Y-109666997D01*
X104678032Y-109576710D01*
X104792944Y-109461798D01*
X104883231Y-109326675D01*
X104945421Y-109176535D01*
X104977125Y-109017146D01*
X104977125Y-108854636D01*
X104945421Y-108695247D01*
X104883231Y-108545107D01*
X104792944Y-108409984D01*
X104678032Y-108295072D01*
X104542909Y-108204785D01*
X104392769Y-108142595D01*
X104233380Y-108110891D01*
X104070870Y-108110891D01*
X103911481Y-108142595D01*
X103761341Y-108204785D01*
X103626218Y-108295072D01*
X103608706Y-108312584D01*
X103138811Y-106917983D01*
X102598885Y-104827651D01*
X102475262Y-104150411D01*
X102546666Y-104164614D01*
X102709176Y-104164614D01*
X102868565Y-104132910D01*
X103018705Y-104070720D01*
X103153828Y-103980433D01*
X103268740Y-103865521D01*
X103359027Y-103730398D01*
X103421217Y-103580258D01*
X103452921Y-103420869D01*
X103452921Y-103258359D01*
X103421217Y-103098970D01*
X103359027Y-102948830D01*
X103268740Y-102813707D01*
X103153828Y-102698795D01*
X103018705Y-102608508D01*
X102868565Y-102546318D01*
X102709176Y-102514614D01*
X102546666Y-102514614D01*
X102387277Y-102546318D01*
X102237137Y-102608508D01*
X102203296Y-102631120D01*
X101977779Y-100557529D01*
X101899836Y-98400000D01*
X101902972Y-98313186D01*
X101984139Y-98346806D01*
X102143528Y-98378510D01*
X102306038Y-98378510D01*
X102465427Y-98346806D01*
X102615567Y-98284616D01*
X102750690Y-98194329D01*
X102865602Y-98079417D01*
X102955889Y-97944294D01*
X103018079Y-97794154D01*
X103049783Y-97634765D01*
X103049783Y-97472255D01*
X103018079Y-97312866D01*
X102955889Y-97162726D01*
X102865602Y-97027603D01*
X102750690Y-96912691D01*
X102615567Y-96822404D01*
X102465427Y-96760214D01*
X102306038Y-96728510D01*
X102143528Y-96728510D01*
X101984139Y-96760214D01*
X101958694Y-96770754D01*
X101977779Y-96242471D01*
X102156408Y-94600000D01*
X103546856Y-94600000D01*
X103550001Y-94631932D01*
X103550000Y-105568078D01*
X103546856Y-105600000D01*
X103550000Y-105631921D01*
X103550000Y-105631931D01*
X103559405Y-105727421D01*
X103592658Y-105837040D01*
X103596573Y-105849947D01*
X103656930Y-105962868D01*
X103691681Y-106005212D01*
X103738157Y-106061843D01*
X103762962Y-106082200D01*
X122517804Y-124837043D01*
X122538157Y-124861843D01*
X122562957Y-124882196D01*
X122562959Y-124882198D01*
X122637131Y-124943070D01*
X122750052Y-125003427D01*
X122872578Y-125040595D01*
X122968068Y-125050000D01*
X122968078Y-125050000D01*
X123000000Y-125053144D01*
X123031921Y-125050000D01*
X125868079Y-125050000D01*
X125900000Y-125053144D01*
X125931921Y-125050000D01*
X125931932Y-125050000D01*
X126027422Y-125040595D01*
X126149948Y-125003427D01*
X126262868Y-124943070D01*
X126361843Y-124861843D01*
X126382200Y-124837038D01*
X126497462Y-124721776D01*
X126640644Y-124693296D01*
X126790784Y-124631106D01*
X126925907Y-124540819D01*
X127040819Y-124425907D01*
X127131106Y-124290784D01*
X127193296Y-124140644D01*
X127225000Y-123981255D01*
X127225000Y-123818745D01*
X127193296Y-123659356D01*
X127131106Y-123509216D01*
X127040819Y-123374093D01*
X126925907Y-123259181D01*
X126790784Y-123168894D01*
X126640644Y-123106704D01*
X126481255Y-123075000D01*
X126318745Y-123075000D01*
X126265341Y-123085623D01*
X126190819Y-122974093D01*
X126075907Y-122859181D01*
X125940784Y-122768894D01*
X125790644Y-122706704D01*
X125631255Y-122675000D01*
X125468745Y-122675000D01*
X125309356Y-122706704D01*
X125159216Y-122768894D01*
X125024093Y-122859181D01*
X124909181Y-122974093D01*
X124818894Y-123109216D01*
X124760579Y-123250000D01*
X123469239Y-123250000D01*
X122669239Y-122450000D01*
X130952001Y-122450000D01*
X130906704Y-122559356D01*
X130875000Y-122718745D01*
X130875000Y-122881255D01*
X130906704Y-123040644D01*
X130968894Y-123190784D01*
X131059181Y-123325907D01*
X131174093Y-123440819D01*
X131309216Y-123531106D01*
X131459356Y-123593296D01*
X131602538Y-123621776D01*
X131917804Y-123937043D01*
X131938157Y-123961843D01*
X131962957Y-123982196D01*
X131962959Y-123982198D01*
X132015837Y-124025593D01*
X132037132Y-124043070D01*
X132122460Y-124088679D01*
X132122460Y-124125000D01*
X132132597Y-124227918D01*
X132162617Y-124326881D01*
X132211367Y-124418086D01*
X132276973Y-124498027D01*
X132356914Y-124563633D01*
X132448119Y-124612383D01*
X132547082Y-124642403D01*
X132650000Y-124652540D01*
X134150000Y-124652540D01*
X134252918Y-124642403D01*
X134351881Y-124612383D01*
X134443086Y-124563633D01*
X134523027Y-124498027D01*
X134588633Y-124418086D01*
X134637383Y-124326881D01*
X134667403Y-124227918D01*
X134677540Y-124125000D01*
X134677540Y-122875000D01*
X134667403Y-122772082D01*
X134637383Y-122673119D01*
X134588633Y-122581914D01*
X134523027Y-122501973D01*
X134443086Y-122436367D01*
X134365704Y-122395005D01*
X134462868Y-122343070D01*
X134561843Y-122261843D01*
X134582200Y-122237038D01*
X134800493Y-122018745D01*
X137875000Y-122018745D01*
X137875000Y-122181255D01*
X137906704Y-122340644D01*
X137968894Y-122490784D01*
X138059181Y-122625907D01*
X138174093Y-122740819D01*
X138309216Y-122831106D01*
X138459356Y-122893296D01*
X138618745Y-122925000D01*
X138781255Y-122925000D01*
X138940644Y-122893296D01*
X139090784Y-122831106D01*
X139225907Y-122740819D01*
X139316726Y-122650000D01*
X146468079Y-122650000D01*
X146500000Y-122653144D01*
X146531921Y-122650000D01*
X146531932Y-122650000D01*
X146627422Y-122640595D01*
X146749948Y-122603427D01*
X146862868Y-122543070D01*
X146961843Y-122461843D01*
X146982200Y-122437038D01*
X149716699Y-119702540D01*
X149905000Y-119702540D01*
X150007918Y-119692403D01*
X150106881Y-119662383D01*
X150198086Y-119613633D01*
X150278027Y-119548027D01*
X150343633Y-119468086D01*
X150392383Y-119376881D01*
X150422403Y-119277918D01*
X150432540Y-119175000D01*
X150432540Y-117625000D01*
X150422403Y-117522082D01*
X150392383Y-117423119D01*
X150343633Y-117331914D01*
X150278027Y-117251973D01*
X150198086Y-117186367D01*
X150106881Y-117137617D01*
X150056810Y-117122428D01*
X150179227Y-117000011D01*
X151654479Y-117000011D01*
X151686400Y-117003155D01*
X151718321Y-117000011D01*
X151718332Y-117000011D01*
X151813822Y-116990606D01*
X151936348Y-116953438D01*
X152049268Y-116893081D01*
X152148243Y-116811854D01*
X152168600Y-116787049D01*
X153262055Y-115693595D01*
X153286854Y-115673243D01*
X153324300Y-115627616D01*
X153368080Y-115574269D01*
X153368082Y-115574267D01*
X153428438Y-115461348D01*
X153465606Y-115338822D01*
X153466443Y-115330329D01*
X153483256Y-115326242D01*
X153536947Y-115314777D01*
X153574798Y-115298473D01*
X153595168Y-115291345D01*
X153634937Y-115280489D01*
X153684074Y-115255970D01*
X153733857Y-115232851D01*
X153767135Y-115208530D01*
X153785404Y-115197051D01*
X153821758Y-115177619D01*
X153864209Y-115142780D01*
X153907600Y-115109161D01*
X153934628Y-115078049D01*
X153949890Y-115062787D01*
X153981006Y-115035756D01*
X154014639Y-114992346D01*
X154049462Y-114949914D01*
X154068888Y-114913570D01*
X154080374Y-114895291D01*
X154104695Y-114862013D01*
X154127817Y-114812224D01*
X154152333Y-114763092D01*
X154163188Y-114723326D01*
X154170315Y-114702959D01*
X154186621Y-114665104D01*
X154198087Y-114611409D01*
X154211053Y-114558061D01*
X154212787Y-114516883D01*
X154215205Y-114495422D01*
X154222677Y-114454893D01*
X154221907Y-114400016D01*
X154222678Y-114345108D01*
X154215203Y-114304565D01*
X154212787Y-114283119D01*
X154211053Y-114241938D01*
X154198085Y-114188583D01*
X154186621Y-114134896D01*
X154170315Y-114097041D01*
X154163188Y-114076673D01*
X154152333Y-114036907D01*
X154127817Y-113987775D01*
X154104695Y-113937986D01*
X154080374Y-113904708D01*
X154068888Y-113886429D01*
X154049462Y-113850085D01*
X154014639Y-113807653D01*
X154008709Y-113800000D01*
X154014639Y-113792346D01*
X154049462Y-113749914D01*
X154068888Y-113713570D01*
X154080374Y-113695291D01*
X154104695Y-113662013D01*
X154127817Y-113612224D01*
X154152333Y-113563092D01*
X154163188Y-113523326D01*
X154170315Y-113502959D01*
X154186621Y-113465104D01*
X154198087Y-113411409D01*
X154211053Y-113358061D01*
X154212787Y-113316883D01*
X154215205Y-113295422D01*
X154222677Y-113254893D01*
X154221907Y-113200016D01*
X154222678Y-113145108D01*
X154215203Y-113104565D01*
X154212787Y-113083119D01*
X154211053Y-113041938D01*
X154198085Y-112988583D01*
X154186621Y-112934896D01*
X154170315Y-112897041D01*
X154163188Y-112876673D01*
X154152333Y-112836907D01*
X154127817Y-112787775D01*
X154104695Y-112737986D01*
X154080374Y-112704708D01*
X154068888Y-112686429D01*
X154049462Y-112650085D01*
X154014639Y-112607653D01*
X153981006Y-112564243D01*
X153949890Y-112537212D01*
X153934628Y-112521950D01*
X153907600Y-112490838D01*
X153864209Y-112457219D01*
X153821758Y-112422380D01*
X153785404Y-112402948D01*
X153767135Y-112391469D01*
X153733857Y-112367148D01*
X153684074Y-112344029D01*
X153634937Y-112319510D01*
X153595168Y-112308654D01*
X153574797Y-112301526D01*
X153536938Y-112285219D01*
X153483258Y-112273757D01*
X153475011Y-112271753D01*
X153475011Y-108556932D01*
X153478155Y-108525011D01*
X153475011Y-108493089D01*
X153475011Y-108493079D01*
X153465606Y-108397589D01*
X153428438Y-108275063D01*
X153390874Y-108204785D01*
X153368081Y-108162142D01*
X153307209Y-108087970D01*
X153307207Y-108087968D01*
X153286854Y-108063168D01*
X153262054Y-108042815D01*
X152875916Y-107656677D01*
X153513154Y-107656677D01*
X153513154Y-107927529D01*
X153565995Y-108193176D01*
X153669645Y-108443410D01*
X153820122Y-108668614D01*
X154011643Y-108860135D01*
X154236847Y-109010612D01*
X154487081Y-109114262D01*
X154752728Y-109167103D01*
X155023580Y-109167103D01*
X155289227Y-109114262D01*
X155539461Y-109010612D01*
X155764665Y-108860135D01*
X155956186Y-108668614D01*
X156106663Y-108443410D01*
X156210313Y-108193176D01*
X156263154Y-107927529D01*
X156263154Y-107656677D01*
X156210313Y-107391030D01*
X156106663Y-107140796D01*
X155956186Y-106915592D01*
X155764665Y-106724071D01*
X155539461Y-106573594D01*
X155289227Y-106469944D01*
X155023580Y-106417103D01*
X154752728Y-106417103D01*
X154487081Y-106469944D01*
X154236847Y-106573594D01*
X154011643Y-106724071D01*
X153820122Y-106915592D01*
X153669645Y-107140796D01*
X153565995Y-107391030D01*
X153513154Y-107656677D01*
X152875916Y-107656677D01*
X151946051Y-106726813D01*
X151946051Y-105419050D01*
X151947358Y-105418509D01*
X152172562Y-105268032D01*
X152364083Y-105076511D01*
X152514560Y-104851307D01*
X152618210Y-104601073D01*
X152671051Y-104335426D01*
X152671051Y-104064574D01*
X152618210Y-103798927D01*
X152514560Y-103548693D01*
X152364083Y-103323489D01*
X152172562Y-103131968D01*
X151963423Y-102992225D01*
X153087049Y-101868599D01*
X153111854Y-101848242D01*
X153151314Y-101800159D01*
X153193081Y-101749268D01*
X153253438Y-101636347D01*
X153261430Y-101610000D01*
X153290606Y-101513821D01*
X153300011Y-101418331D01*
X153300011Y-101418320D01*
X153303155Y-101386399D01*
X153300011Y-101354478D01*
X153300011Y-97831921D01*
X153303155Y-97800000D01*
X153300011Y-97768079D01*
X153300011Y-97768068D01*
X153290606Y-97672578D01*
X153253438Y-97550052D01*
X153193081Y-97437131D01*
X153132209Y-97362960D01*
X153111854Y-97338157D01*
X153087050Y-97317801D01*
X151950000Y-96180751D01*
X151950000Y-94716744D01*
X152172562Y-94568032D01*
X152364083Y-94376511D01*
X152514560Y-94151307D01*
X152618210Y-93901073D01*
X152671051Y-93635426D01*
X152671051Y-93364574D01*
X152618210Y-93098927D01*
X152514560Y-92848693D01*
X152364083Y-92623489D01*
X152172562Y-92431968D01*
X151947358Y-92281491D01*
X151697124Y-92177841D01*
X151431477Y-92125000D01*
X151160625Y-92125000D01*
X150894978Y-92177841D01*
X150644744Y-92281491D01*
X150419540Y-92431968D01*
X150228019Y-92623489D01*
X150077542Y-92848693D01*
X149973892Y-93098927D01*
X149921051Y-93364574D01*
X149921051Y-93635426D01*
X149954210Y-93802125D01*
X149873027Y-93720942D01*
X149793086Y-93655336D01*
X149701881Y-93606586D01*
X149602918Y-93576566D01*
X149500000Y-93566429D01*
X149397082Y-93576566D01*
X149298119Y-93606586D01*
X149206914Y-93655336D01*
X149126973Y-93720942D01*
X147924891Y-94923024D01*
X147859285Y-95002965D01*
X147810535Y-95094170D01*
X147780515Y-95193133D01*
X147770378Y-95296051D01*
X147780515Y-95398969D01*
X147810535Y-95497932D01*
X147859285Y-95589137D01*
X147924891Y-95669078D01*
X149126973Y-96871160D01*
X149206914Y-96936766D01*
X149298119Y-96985516D01*
X149397082Y-97015536D01*
X149500000Y-97025673D01*
X149602918Y-97015536D01*
X149701881Y-96985516D01*
X149793086Y-96936766D01*
X149873027Y-96871160D01*
X150016424Y-96727764D01*
X151349147Y-98060487D01*
X151341938Y-98060790D01*
X151288581Y-98073758D01*
X151234905Y-98085219D01*
X151197048Y-98101525D01*
X151176673Y-98108655D01*
X151136907Y-98119510D01*
X151087775Y-98144026D01*
X151037986Y-98167148D01*
X151004708Y-98191469D01*
X150986429Y-98202955D01*
X150950085Y-98222381D01*
X150907653Y-98257204D01*
X150864243Y-98290837D01*
X150837212Y-98321953D01*
X150821950Y-98337215D01*
X150790838Y-98364243D01*
X150757219Y-98407634D01*
X150722380Y-98450085D01*
X150702948Y-98486439D01*
X150691469Y-98504708D01*
X150667148Y-98537986D01*
X150644029Y-98587769D01*
X150619510Y-98636906D01*
X150608654Y-98676675D01*
X150601524Y-98697052D01*
X150585219Y-98734906D01*
X150573759Y-98788578D01*
X150560790Y-98841938D01*
X150559056Y-98883127D01*
X150556640Y-98904566D01*
X150549167Y-98945098D01*
X150549937Y-99000000D01*
X150549167Y-99054903D01*
X150556641Y-99095436D01*
X150559056Y-99116874D01*
X150560790Y-99158061D01*
X150573757Y-99211414D01*
X150585219Y-99265094D01*
X150601526Y-99302953D01*
X150608654Y-99323324D01*
X150619510Y-99363093D01*
X150644029Y-99412230D01*
X150667148Y-99462013D01*
X150691469Y-99495291D01*
X150702948Y-99513560D01*
X150722380Y-99549914D01*
X150757219Y-99592365D01*
X150790838Y-99635756D01*
X150821950Y-99662784D01*
X150837212Y-99678046D01*
X150864243Y-99709162D01*
X150907653Y-99742795D01*
X150950085Y-99777618D01*
X150986429Y-99797044D01*
X151004708Y-99808530D01*
X151037986Y-99832851D01*
X151087775Y-99855973D01*
X151136907Y-99880489D01*
X151176673Y-99891344D01*
X151197041Y-99898471D01*
X151234896Y-99914777D01*
X151288583Y-99926241D01*
X151341938Y-99939209D01*
X151372211Y-99940484D01*
X151372578Y-99940595D01*
X151431805Y-99946428D01*
X151458951Y-99949487D01*
X151463509Y-99949551D01*
X151468068Y-99950000D01*
X151495517Y-99950000D01*
X151550000Y-99950764D01*
X151550001Y-100930761D01*
X151398564Y-101082198D01*
X150203671Y-101082198D01*
X150171750Y-101079054D01*
X150139829Y-101082198D01*
X150139819Y-101082198D01*
X150127590Y-101083403D01*
X149873027Y-100828840D01*
X149793086Y-100763234D01*
X149701881Y-100714484D01*
X149602918Y-100684464D01*
X149500000Y-100674327D01*
X149397082Y-100684464D01*
X149298119Y-100714484D01*
X149206914Y-100763234D01*
X149126973Y-100828840D01*
X147924891Y-102030922D01*
X147859285Y-102110863D01*
X147810535Y-102202068D01*
X147780515Y-102301031D01*
X147770378Y-102403949D01*
X147780515Y-102506867D01*
X147810535Y-102605830D01*
X147859285Y-102697035D01*
X147924891Y-102776976D01*
X148850001Y-103702086D01*
X148850000Y-105868078D01*
X148846856Y-105900000D01*
X148850000Y-105931921D01*
X148850000Y-105931931D01*
X148859405Y-106027421D01*
X148881422Y-106100000D01*
X148896573Y-106149947D01*
X148956930Y-106262868D01*
X148971970Y-106281194D01*
X149038157Y-106361843D01*
X149062962Y-106382200D01*
X151725001Y-109044240D01*
X151725000Y-114755762D01*
X151230762Y-115250000D01*
X149731921Y-115250000D01*
X149700000Y-115246856D01*
X149668079Y-115250000D01*
X149668068Y-115250000D01*
X149572578Y-115259405D01*
X149457555Y-115294297D01*
X149450052Y-115296573D01*
X149337131Y-115356930D01*
X149262959Y-115417802D01*
X149262957Y-115417804D01*
X149238157Y-115438157D01*
X149217804Y-115462957D01*
X148330762Y-116350000D01*
X148021924Y-116350000D01*
X147990000Y-116346856D01*
X147958076Y-116350000D01*
X147958068Y-116350000D01*
X147862578Y-116359405D01*
X147740052Y-116396573D01*
X147627132Y-116456930D01*
X147552960Y-116517801D01*
X147552957Y-116517804D01*
X147528157Y-116538157D01*
X147507804Y-116562957D01*
X146973302Y-117097460D01*
X146765000Y-117097460D01*
X146662082Y-117107597D01*
X146563119Y-117137617D01*
X146471914Y-117186367D01*
X146391973Y-117251973D01*
X146326367Y-117331914D01*
X146277617Y-117423119D01*
X146247597Y-117522082D01*
X146237460Y-117625000D01*
X146237460Y-119175000D01*
X146247597Y-119277918D01*
X146277617Y-119376881D01*
X146326367Y-119468086D01*
X146391973Y-119548027D01*
X146471914Y-119613633D01*
X146563119Y-119662383D01*
X146662082Y-119692403D01*
X146765000Y-119702540D01*
X147365000Y-119702540D01*
X147467918Y-119692403D01*
X147566881Y-119662383D01*
X147658086Y-119613633D01*
X147700000Y-119579235D01*
X147741914Y-119613633D01*
X147833119Y-119662383D01*
X147898535Y-119682227D01*
X146230762Y-121350000D01*
X139045170Y-121350000D01*
X138940644Y-121306704D01*
X138781255Y-121275000D01*
X138618745Y-121275000D01*
X138459356Y-121306704D01*
X138309216Y-121368894D01*
X138174093Y-121459181D01*
X138059181Y-121574093D01*
X137968894Y-121709216D01*
X137906704Y-121859356D01*
X137875000Y-122018745D01*
X134800493Y-122018745D01*
X136237037Y-120582201D01*
X136261842Y-120561844D01*
X136343069Y-120462869D01*
X136403426Y-120349949D01*
X136440594Y-120227423D01*
X136449999Y-120131933D01*
X136449999Y-120131925D01*
X136453143Y-120100001D01*
X136449999Y-120068077D01*
X136449999Y-117931927D01*
X136453143Y-117900003D01*
X136449999Y-117868079D01*
X136449999Y-117868071D01*
X136440594Y-117772581D01*
X136403426Y-117650055D01*
X136343069Y-117537135D01*
X136324047Y-117513956D01*
X136301380Y-117400000D01*
X139270041Y-117400000D01*
X139289831Y-117600934D01*
X139348443Y-117794148D01*
X139443621Y-117972214D01*
X139571710Y-118128290D01*
X139727786Y-118256379D01*
X139905852Y-118351557D01*
X140099066Y-118410169D01*
X140300000Y-118429959D01*
X140500934Y-118410169D01*
X140694148Y-118351557D01*
X140872214Y-118256379D01*
X140989180Y-118160387D01*
X141131260Y-118018307D01*
X141225000Y-118027540D01*
X142475000Y-118027540D01*
X142577918Y-118017403D01*
X142676881Y-117987383D01*
X142768086Y-117938633D01*
X142848027Y-117873027D01*
X142913633Y-117793086D01*
X142962383Y-117701881D01*
X142992403Y-117602918D01*
X143002540Y-117500000D01*
X143002540Y-116000000D01*
X142992403Y-115897082D01*
X142962383Y-115798119D01*
X142913633Y-115706914D01*
X142848027Y-115626973D01*
X142768086Y-115561367D01*
X142676881Y-115512617D01*
X142577918Y-115482597D01*
X142475000Y-115472460D01*
X141225000Y-115472460D01*
X141122082Y-115482597D01*
X141023119Y-115512617D01*
X140931914Y-115561367D01*
X140851973Y-115626973D01*
X140786367Y-115706914D01*
X140769868Y-115737782D01*
X140749065Y-115739831D01*
X140555852Y-115798442D01*
X140377785Y-115893620D01*
X140221709Y-116021709D01*
X140189607Y-116060825D01*
X139539613Y-116710820D01*
X139443621Y-116827786D01*
X139348443Y-117005852D01*
X139289831Y-117199066D01*
X139270041Y-117400000D01*
X136301380Y-117400000D01*
X136293296Y-117359360D01*
X136231106Y-117209220D01*
X136140819Y-117074097D01*
X136025907Y-116959185D01*
X135890784Y-116868898D01*
X135740644Y-116806708D01*
X135581255Y-116775004D01*
X135418745Y-116775004D01*
X135262226Y-116806137D01*
X135240819Y-116774099D01*
X135125907Y-116659187D01*
X134990784Y-116568900D01*
X134945155Y-116550000D01*
X135187833Y-116550000D01*
X135309216Y-116631106D01*
X135459356Y-116693296D01*
X135618745Y-116725000D01*
X135781255Y-116725000D01*
X135940644Y-116693296D01*
X136090784Y-116631106D01*
X136225907Y-116540819D01*
X136340819Y-116425907D01*
X136431106Y-116290784D01*
X136493296Y-116140644D01*
X136525000Y-115981255D01*
X136525000Y-115818745D01*
X136493296Y-115659356D01*
X136431106Y-115509216D01*
X136340819Y-115374093D01*
X136225907Y-115259181D01*
X136090784Y-115168894D01*
X135940644Y-115106704D01*
X135781255Y-115075000D01*
X135618745Y-115075000D01*
X135459356Y-115106704D01*
X135309216Y-115168894D01*
X135187833Y-115250000D01*
X129456926Y-115250000D01*
X129425002Y-115246856D01*
X129393078Y-115250000D01*
X129393070Y-115250000D01*
X129299854Y-115259181D01*
X129297580Y-115259405D01*
X129175054Y-115296573D01*
X129062134Y-115356930D01*
X128987962Y-115417801D01*
X128987959Y-115417804D01*
X128963159Y-115438157D01*
X128942806Y-115462957D01*
X128886245Y-115519519D01*
X128825907Y-115459181D01*
X128690784Y-115368894D01*
X128540644Y-115306704D01*
X128390696Y-115276878D01*
X128346751Y-115240813D01*
X128233831Y-115180456D01*
X128111305Y-115143288D01*
X128015815Y-115133883D01*
X128015804Y-115133883D01*
X127983883Y-115130739D01*
X127951962Y-115133883D01*
X127270784Y-115133883D01*
X127261416Y-115122468D01*
X126377532Y-114238584D01*
X126297591Y-114172978D01*
X126206386Y-114124228D01*
X126107423Y-114094208D01*
X126004505Y-114084071D01*
X125901587Y-114094208D01*
X125802624Y-114124228D01*
X125711419Y-114172978D01*
X125631478Y-114238584D01*
X124570818Y-115299244D01*
X124505212Y-115379185D01*
X124456462Y-115470390D01*
X124426442Y-115569353D01*
X124416305Y-115672271D01*
X124426442Y-115775189D01*
X124456462Y-115874152D01*
X124505212Y-115965357D01*
X124570818Y-116045298D01*
X125075520Y-116550000D01*
X122269239Y-116550000D01*
X121137984Y-115418745D01*
X122275000Y-115418745D01*
X122275000Y-115581255D01*
X122306704Y-115740644D01*
X122368894Y-115890784D01*
X122459181Y-116025907D01*
X122574093Y-116140819D01*
X122709216Y-116231106D01*
X122859356Y-116293296D01*
X123018745Y-116325000D01*
X123181255Y-116325000D01*
X123340644Y-116293296D01*
X123490784Y-116231106D01*
X123625907Y-116140819D01*
X123740819Y-116025907D01*
X123831106Y-115890784D01*
X123893296Y-115740644D01*
X123925000Y-115581255D01*
X123925000Y-115418745D01*
X123893296Y-115259356D01*
X123831106Y-115109216D01*
X123740819Y-114974093D01*
X123625907Y-114859181D01*
X123490784Y-114768894D01*
X123340644Y-114706704D01*
X123181255Y-114675000D01*
X123018745Y-114675000D01*
X122859356Y-114706704D01*
X122709216Y-114768894D01*
X122574093Y-114859181D01*
X122459181Y-114974093D01*
X122368894Y-115109216D01*
X122306704Y-115259356D01*
X122275000Y-115418745D01*
X121137984Y-115418745D01*
X116650000Y-110930762D01*
X116650000Y-110872271D01*
X116816305Y-110872271D01*
X116826442Y-110975189D01*
X116856462Y-111074152D01*
X116905212Y-111165357D01*
X116970818Y-111245298D01*
X117854702Y-112129182D01*
X117934643Y-112194788D01*
X118025848Y-112243538D01*
X118124811Y-112273558D01*
X118227729Y-112283695D01*
X118330647Y-112273558D01*
X118429610Y-112243538D01*
X118520815Y-112194788D01*
X118600756Y-112129182D01*
X118671467Y-112058471D01*
X119544413Y-112931418D01*
X119505212Y-112979185D01*
X119456462Y-113070390D01*
X119426442Y-113169353D01*
X119416305Y-113272271D01*
X119426442Y-113375189D01*
X119456462Y-113474152D01*
X119505212Y-113565357D01*
X119570818Y-113645298D01*
X120454702Y-114529182D01*
X120534643Y-114594788D01*
X120625848Y-114643538D01*
X120724811Y-114673558D01*
X120827729Y-114683695D01*
X120930647Y-114673558D01*
X121029610Y-114643538D01*
X121120815Y-114594788D01*
X121200756Y-114529182D01*
X122031615Y-113698323D01*
X122075000Y-113741708D01*
X122075000Y-113881255D01*
X122106704Y-114040644D01*
X122168894Y-114190784D01*
X122259181Y-114325907D01*
X122374093Y-114440819D01*
X122509216Y-114531106D01*
X122659356Y-114593296D01*
X122818745Y-114625000D01*
X122981255Y-114625000D01*
X123140644Y-114593296D01*
X123290784Y-114531106D01*
X123425907Y-114440819D01*
X123540819Y-114325907D01*
X123631106Y-114190784D01*
X123693296Y-114040644D01*
X123725000Y-113881255D01*
X123725000Y-113718745D01*
X123693296Y-113559356D01*
X123631106Y-113409216D01*
X123540819Y-113274093D01*
X123425907Y-113159181D01*
X123290784Y-113068894D01*
X123205220Y-113033452D01*
X122190513Y-112018745D01*
X137575000Y-112018745D01*
X137575000Y-112181255D01*
X137606704Y-112340644D01*
X137668894Y-112490784D01*
X137756466Y-112621844D01*
X137759405Y-112651685D01*
X137789245Y-112750053D01*
X137796573Y-112774211D01*
X137856930Y-112887132D01*
X137897782Y-112936910D01*
X137938157Y-112986107D01*
X137962962Y-113006464D01*
X139693540Y-114737043D01*
X139713893Y-114761843D01*
X139738693Y-114782196D01*
X139738695Y-114782198D01*
X139812867Y-114843070D01*
X139921844Y-114901319D01*
X139925788Y-114903427D01*
X140048314Y-114940595D01*
X140143804Y-114950000D01*
X140143814Y-114950000D01*
X140175736Y-114953144D01*
X140207657Y-114950000D01*
X149298079Y-114950000D01*
X149330000Y-114953144D01*
X149361921Y-114950000D01*
X149361932Y-114950000D01*
X149457422Y-114940595D01*
X149579948Y-114903427D01*
X149692868Y-114843070D01*
X149791843Y-114761843D01*
X149812201Y-114737037D01*
X150042033Y-114507204D01*
X150066843Y-114486843D01*
X150148070Y-114387868D01*
X150208427Y-114274948D01*
X150236620Y-114182009D01*
X150278027Y-114148027D01*
X150343633Y-114068086D01*
X150392383Y-113976881D01*
X150422403Y-113877918D01*
X150432540Y-113775000D01*
X150432540Y-112225000D01*
X150422403Y-112122082D01*
X150392383Y-112023119D01*
X150343633Y-111931914D01*
X150278027Y-111851973D01*
X150198086Y-111786367D01*
X150106881Y-111737617D01*
X150007918Y-111707597D01*
X149905000Y-111697460D01*
X149305000Y-111697460D01*
X149202082Y-111707597D01*
X149113691Y-111734410D01*
X149108733Y-111684071D01*
X149098786Y-111583074D01*
X149054470Y-111436986D01*
X149054470Y-111436985D01*
X148982506Y-111302350D01*
X148975076Y-111293296D01*
X148885659Y-111184341D01*
X148856086Y-111160071D01*
X148749403Y-111053388D01*
X148731106Y-111009216D01*
X148640819Y-110874093D01*
X148525907Y-110759181D01*
X148390784Y-110668894D01*
X148240644Y-110606704D01*
X148081255Y-110575000D01*
X147918745Y-110575000D01*
X147759356Y-110606704D01*
X147609216Y-110668894D01*
X147474093Y-110759181D01*
X147359181Y-110874093D01*
X147268894Y-111009216D01*
X147206704Y-111159356D01*
X147175000Y-111318745D01*
X147175000Y-111481255D01*
X147206704Y-111640644D01*
X147268894Y-111790784D01*
X147359181Y-111925907D01*
X147474093Y-112040819D01*
X147530762Y-112078684D01*
X147517597Y-112122082D01*
X147507460Y-112225000D01*
X147507460Y-113650000D01*
X146622540Y-113650000D01*
X146622540Y-112225000D01*
X146612403Y-112122082D01*
X146582383Y-112023119D01*
X146533633Y-111931914D01*
X146468027Y-111851973D01*
X146388086Y-111786367D01*
X146296881Y-111737617D01*
X146197918Y-111707597D01*
X146095000Y-111697460D01*
X145495000Y-111697460D01*
X145392082Y-111707597D01*
X145293119Y-111737617D01*
X145201914Y-111786367D01*
X145121973Y-111851973D01*
X145056367Y-111931914D01*
X145007617Y-112023119D01*
X144977597Y-112122082D01*
X144967460Y-112225000D01*
X144967460Y-112908302D01*
X144925762Y-112950000D01*
X140769243Y-112950000D01*
X140121776Y-112302534D01*
X140093296Y-112159352D01*
X140031106Y-112009212D01*
X139940819Y-111874089D01*
X139825907Y-111759177D01*
X139690784Y-111668890D01*
X139540644Y-111606700D01*
X139381255Y-111574996D01*
X139218745Y-111574996D01*
X139062225Y-111606129D01*
X139040819Y-111574093D01*
X138925907Y-111459181D01*
X138790784Y-111368894D01*
X138640644Y-111306704D01*
X138481255Y-111275000D01*
X138318745Y-111275000D01*
X138159356Y-111306704D01*
X138009216Y-111368894D01*
X137874093Y-111459181D01*
X137759181Y-111574093D01*
X137668894Y-111709216D01*
X137606704Y-111859356D01*
X137575000Y-112018745D01*
X122190513Y-112018745D01*
X120733883Y-110562115D01*
X120733883Y-109996055D01*
X121429182Y-109300756D01*
X121494788Y-109220815D01*
X121543538Y-109129610D01*
X121573558Y-109030647D01*
X121583695Y-108927729D01*
X121573558Y-108824811D01*
X121543538Y-108725848D01*
X121494788Y-108634643D01*
X121429182Y-108554702D01*
X120545298Y-107670818D01*
X120465357Y-107605212D01*
X120374152Y-107556462D01*
X120275189Y-107526442D01*
X120172271Y-107516305D01*
X120069353Y-107526442D01*
X119970390Y-107556462D01*
X119879185Y-107605212D01*
X119799244Y-107670818D01*
X118738584Y-108731478D01*
X118672978Y-108811419D01*
X118624228Y-108902624D01*
X118594208Y-109001587D01*
X118584071Y-109104505D01*
X118594208Y-109207423D01*
X118624228Y-109306386D01*
X118644716Y-109344716D01*
X118606386Y-109324228D01*
X118507423Y-109294208D01*
X118404505Y-109284071D01*
X118301587Y-109294208D01*
X118202624Y-109324228D01*
X118111419Y-109372978D01*
X118031478Y-109438584D01*
X116970818Y-110499244D01*
X116905212Y-110579185D01*
X116856462Y-110670390D01*
X116826442Y-110769353D01*
X116816305Y-110872271D01*
X116650000Y-110872271D01*
X116650000Y-108205648D01*
X119787076Y-105068574D01*
X119811876Y-105048221D01*
X119893103Y-104949246D01*
X119953460Y-104836326D01*
X119990628Y-104713800D01*
X120000033Y-104618310D01*
X120000033Y-104618300D01*
X120003177Y-104586379D01*
X120000033Y-104554458D01*
X120000033Y-94172724D01*
X120003177Y-94140800D01*
X120000033Y-94108876D01*
X120000033Y-94108868D01*
X119990628Y-94013378D01*
X119953460Y-93890852D01*
X119893103Y-93777932D01*
X119811876Y-93678957D01*
X119787072Y-93658601D01*
X115750000Y-89621530D01*
X115750000Y-87791458D01*
X118101580Y-87791458D01*
X118160952Y-88394263D01*
X118336784Y-88973903D01*
X118622319Y-89508102D01*
X118910290Y-89858996D01*
X126379877Y-97328584D01*
X126275000Y-97855835D01*
X126275000Y-98944165D01*
X126487323Y-100011583D01*
X126903809Y-101017069D01*
X127508452Y-101921982D01*
X128278018Y-102691548D01*
X129182931Y-103296191D01*
X130188417Y-103712677D01*
X131255835Y-103925000D01*
X132344165Y-103925000D01*
X132871417Y-103820123D01*
X140341003Y-111289710D01*
X140691897Y-111577681D01*
X141226096Y-111863216D01*
X141805736Y-112039048D01*
X142408542Y-112098420D01*
X143011347Y-112039048D01*
X143590987Y-111863216D01*
X144125186Y-111577681D01*
X144593415Y-111193415D01*
X144977681Y-110725186D01*
X145263216Y-110190987D01*
X145439048Y-109611347D01*
X145498420Y-109008542D01*
X145439048Y-108405736D01*
X145263216Y-107826096D01*
X144977681Y-107291897D01*
X144689710Y-106941003D01*
X143848707Y-106100000D01*
X145795646Y-106100000D01*
X145813023Y-106276430D01*
X145864487Y-106446081D01*
X145948057Y-106602431D01*
X146032345Y-106705137D01*
X146532395Y-107205187D01*
X146526442Y-107224811D01*
X146516305Y-107327729D01*
X146526442Y-107430647D01*
X146556462Y-107529610D01*
X146605212Y-107620815D01*
X146670818Y-107700756D01*
X147731478Y-108761416D01*
X147811419Y-108827022D01*
X147902624Y-108875772D01*
X148001587Y-108905792D01*
X148104505Y-108915929D01*
X148207423Y-108905792D01*
X148306386Y-108875772D01*
X148397591Y-108827022D01*
X148477532Y-108761416D01*
X149361416Y-107877532D01*
X149427022Y-107797591D01*
X149475772Y-107706386D01*
X149505792Y-107607423D01*
X149515929Y-107504505D01*
X149505792Y-107401587D01*
X149475772Y-107302624D01*
X149427022Y-107211419D01*
X149361416Y-107131478D01*
X148300756Y-106070818D01*
X148220815Y-106005212D01*
X148129610Y-105956462D01*
X148030647Y-105926442D01*
X147927729Y-105916305D01*
X147824811Y-105926442D01*
X147805187Y-105932395D01*
X147305137Y-105432345D01*
X147202431Y-105348057D01*
X147046081Y-105264487D01*
X146876430Y-105213023D01*
X146700000Y-105195646D01*
X146523570Y-105213023D01*
X146353919Y-105264487D01*
X146197569Y-105348057D01*
X146060526Y-105460526D01*
X145948057Y-105597569D01*
X145864487Y-105753919D01*
X145813023Y-105923570D01*
X145795646Y-106100000D01*
X143848707Y-106100000D01*
X137220123Y-99471417D01*
X137325000Y-98944165D01*
X137325000Y-97855835D01*
X137112677Y-96788417D01*
X136696191Y-95782931D01*
X136091548Y-94878018D01*
X135321982Y-94108452D01*
X134417069Y-93503809D01*
X133411583Y-93087323D01*
X132344165Y-92875000D01*
X131255835Y-92875000D01*
X130728584Y-92979877D01*
X127521178Y-89772471D01*
X153513154Y-89772471D01*
X153513154Y-90043323D01*
X153565995Y-90308970D01*
X153669645Y-90559204D01*
X153820122Y-90784408D01*
X154011643Y-90975929D01*
X154236847Y-91126406D01*
X154487081Y-91230056D01*
X154752728Y-91282897D01*
X155023580Y-91282897D01*
X155289227Y-91230056D01*
X155539461Y-91126406D01*
X155764665Y-90975929D01*
X155956186Y-90784408D01*
X156106663Y-90559204D01*
X156210313Y-90308970D01*
X156263154Y-90043323D01*
X156263154Y-89772471D01*
X156210313Y-89506824D01*
X156106663Y-89256590D01*
X155956186Y-89031386D01*
X155764665Y-88839865D01*
X155539461Y-88689388D01*
X155289227Y-88585738D01*
X155023580Y-88532897D01*
X154752728Y-88532897D01*
X154487081Y-88585738D01*
X154236847Y-88689388D01*
X154011643Y-88839865D01*
X153820122Y-89031386D01*
X153669645Y-89256590D01*
X153565995Y-89506824D01*
X153513154Y-89772471D01*
X127521178Y-89772471D01*
X123258996Y-85510290D01*
X122908102Y-85222319D01*
X122373903Y-84936784D01*
X121794263Y-84760952D01*
X121191458Y-84701580D01*
X120588653Y-84760952D01*
X120009013Y-84936784D01*
X119474814Y-85222319D01*
X119006585Y-85606585D01*
X118622319Y-86074814D01*
X118336784Y-86609013D01*
X118160952Y-87188653D01*
X118101580Y-87791458D01*
X115750000Y-87791458D01*
X115750000Y-86969238D01*
X120269239Y-82450000D01*
X120387833Y-82450000D01*
X120509216Y-82531106D01*
X120659356Y-82593296D01*
X120818745Y-82625000D01*
X120981255Y-82625000D01*
X121140644Y-82593296D01*
X121290784Y-82531106D01*
X121425907Y-82440819D01*
X121540819Y-82325907D01*
X121631106Y-82190784D01*
X121693296Y-82040644D01*
X121725000Y-81881255D01*
X121725000Y-81718745D01*
X121701381Y-81600001D01*
X123180763Y-81600001D01*
X124245780Y-82665019D01*
X124206704Y-82759356D01*
X124175000Y-82918745D01*
X124175000Y-83025248D01*
X124140819Y-82974093D01*
X124025907Y-82859181D01*
X123890784Y-82768894D01*
X123740644Y-82706704D01*
X123581255Y-82675000D01*
X123418745Y-82675000D01*
X123259356Y-82706704D01*
X123109216Y-82768894D01*
X122974093Y-82859181D01*
X122859181Y-82974093D01*
X122768894Y-83109216D01*
X122706704Y-83259356D01*
X122675000Y-83418745D01*
X122675000Y-83581255D01*
X122706704Y-83740644D01*
X122768894Y-83890784D01*
X122859181Y-84025907D01*
X122974093Y-84140819D01*
X123109216Y-84231106D01*
X123259356Y-84293296D01*
X123402538Y-84321776D01*
X124267804Y-85187043D01*
X124288157Y-85211843D01*
X124312957Y-85232196D01*
X124312959Y-85232198D01*
X124387131Y-85293070D01*
X124424405Y-85312993D01*
X124500052Y-85353427D01*
X124622578Y-85390595D01*
X124718068Y-85400000D01*
X124718078Y-85400000D01*
X124750000Y-85403144D01*
X124781921Y-85400000D01*
X132718079Y-85400000D01*
X132750000Y-85403144D01*
X132781921Y-85400000D01*
X132781932Y-85400000D01*
X132877422Y-85390595D01*
X132999948Y-85353427D01*
X133112868Y-85293070D01*
X133211843Y-85211843D01*
X133232200Y-85187038D01*
X134492751Y-83926488D01*
X134559181Y-84025907D01*
X134674093Y-84140819D01*
X134809216Y-84231106D01*
X134959356Y-84293296D01*
X135118745Y-84325000D01*
X135281255Y-84325000D01*
X135440644Y-84293296D01*
X135590784Y-84231106D01*
X135725907Y-84140819D01*
X135840819Y-84025907D01*
X135931106Y-83890784D01*
X135993296Y-83740644D01*
X136021776Y-83597462D01*
X137112043Y-82507196D01*
X137136843Y-82486843D01*
X137157198Y-82462041D01*
X137218070Y-82387869D01*
X137263679Y-82302540D01*
X137350000Y-82302540D01*
X137452918Y-82292403D01*
X137551881Y-82262383D01*
X137643086Y-82213633D01*
X137723027Y-82148027D01*
X137788633Y-82068086D01*
X137837383Y-81976881D01*
X137867403Y-81877918D01*
X137877540Y-81775000D01*
X137877540Y-81125000D01*
X137867403Y-81022082D01*
X137837383Y-80923119D01*
X137788633Y-80831914D01*
X137723027Y-80751973D01*
X137643086Y-80686367D01*
X137551881Y-80637617D01*
X137452918Y-80607597D01*
X137350000Y-80597460D01*
X136000000Y-80597460D01*
X135897082Y-80607597D01*
X135798119Y-80637617D01*
X135706914Y-80686367D01*
X135626973Y-80751973D01*
X135561367Y-80831914D01*
X135512617Y-80923119D01*
X135482597Y-81022082D01*
X135472460Y-81125000D01*
X135472460Y-81775000D01*
X135482597Y-81877918D01*
X135512617Y-81976881D01*
X135561367Y-82068086D01*
X135626973Y-82148027D01*
X135630137Y-82150624D01*
X135400000Y-82380762D01*
X135400000Y-80769238D01*
X135881548Y-80287691D01*
X135897082Y-80292403D01*
X136000000Y-80302540D01*
X137350000Y-80302540D01*
X137452918Y-80292403D01*
X137551881Y-80262383D01*
X137643086Y-80213633D01*
X137723027Y-80148027D01*
X137788633Y-80068086D01*
X137837383Y-79976881D01*
X137867403Y-79877918D01*
X137877540Y-79775000D01*
X137877540Y-79400000D01*
X139127208Y-79400000D01*
X140125001Y-80397793D01*
X140125000Y-84280793D01*
X140120646Y-84325000D01*
X140125000Y-84369206D01*
X140138023Y-84501430D01*
X140189486Y-84671080D01*
X140273057Y-84827431D01*
X140385525Y-84964475D01*
X140419865Y-84992657D01*
X142293018Y-86865810D01*
X142259285Y-86906914D01*
X142210535Y-86998119D01*
X142180515Y-87097082D01*
X142170378Y-87200000D01*
X142180515Y-87302918D01*
X142210535Y-87401881D01*
X142259285Y-87493086D01*
X142324891Y-87573027D01*
X143526973Y-88775109D01*
X143606914Y-88840715D01*
X143698119Y-88889465D01*
X143797082Y-88919485D01*
X143900000Y-88929622D01*
X144002918Y-88919485D01*
X144101881Y-88889465D01*
X144193086Y-88840715D01*
X144273027Y-88775109D01*
X145475109Y-87573027D01*
X145540715Y-87493086D01*
X145589465Y-87401881D01*
X145619485Y-87302918D01*
X145629622Y-87200000D01*
X145619485Y-87097082D01*
X145589465Y-86998119D01*
X145540715Y-86906914D01*
X145475109Y-86826973D01*
X145393926Y-86745790D01*
X145560625Y-86778949D01*
X145831477Y-86778949D01*
X146097124Y-86726108D01*
X146347358Y-86622458D01*
X146572562Y-86471981D01*
X146764083Y-86280460D01*
X146914560Y-86055256D01*
X147018210Y-85805022D01*
X147071051Y-85539375D01*
X147071051Y-85268523D01*
X147018210Y-85002876D01*
X146914560Y-84752642D01*
X146764083Y-84527438D01*
X146572562Y-84335917D01*
X146347358Y-84185440D01*
X146097124Y-84081790D01*
X145831477Y-84028949D01*
X145560625Y-84028949D01*
X145294978Y-84081790D01*
X145044744Y-84185440D01*
X144819540Y-84335917D01*
X144628019Y-84527438D01*
X144477542Y-84752642D01*
X144373892Y-85002876D01*
X144321051Y-85268523D01*
X144321051Y-85539375D01*
X144354210Y-85706074D01*
X144273027Y-85624891D01*
X144193086Y-85559285D01*
X144101881Y-85510535D01*
X144002918Y-85480515D01*
X143900000Y-85470378D01*
X143797082Y-85480515D01*
X143698119Y-85510535D01*
X143606914Y-85559285D01*
X143565810Y-85593018D01*
X141925000Y-83952208D01*
X141925000Y-80069207D01*
X141929354Y-80025000D01*
X141911977Y-79848569D01*
X141860514Y-79678918D01*
X141776943Y-79522568D01*
X141742916Y-79481106D01*
X141664475Y-79385525D01*
X141630135Y-79357343D01*
X140622792Y-78350000D01*
X144177208Y-78350000D01*
X147493018Y-81665810D01*
X147459285Y-81706914D01*
X147410535Y-81798119D01*
X147380515Y-81897082D01*
X147370378Y-82000000D01*
X147380515Y-82102918D01*
X147410535Y-82201881D01*
X147459285Y-82293086D01*
X147524891Y-82373027D01*
X148726973Y-83575109D01*
X148806914Y-83640715D01*
X148898119Y-83689465D01*
X148997082Y-83719485D01*
X149100000Y-83729622D01*
X149202918Y-83719485D01*
X149301881Y-83689465D01*
X149393086Y-83640715D01*
X149473027Y-83575109D01*
X150675109Y-82373027D01*
X150740715Y-82293086D01*
X150789465Y-82201881D01*
X150819485Y-82102918D01*
X150829622Y-82000000D01*
X150819485Y-81897082D01*
X150789465Y-81798119D01*
X150740715Y-81706914D01*
X150675109Y-81626973D01*
X150593926Y-81545790D01*
X150760625Y-81578949D01*
X151031477Y-81578949D01*
X151297124Y-81526108D01*
X151547358Y-81422458D01*
X151772562Y-81271981D01*
X151964083Y-81080460D01*
X152114560Y-80855256D01*
X152218210Y-80605022D01*
X152271051Y-80339375D01*
X152271051Y-80068523D01*
X152218210Y-79802876D01*
X152114560Y-79552642D01*
X151964083Y-79327438D01*
X151772562Y-79135917D01*
X151547358Y-78985440D01*
X151297124Y-78881790D01*
X151031477Y-78828949D01*
X150760625Y-78828949D01*
X150494978Y-78881790D01*
X150244744Y-78985440D01*
X150192884Y-79020092D01*
X143667657Y-72494865D01*
X143639475Y-72460525D01*
X143502432Y-72348057D01*
X143346081Y-72264486D01*
X143176431Y-72213023D01*
X143044207Y-72200000D01*
X143044206Y-72200000D01*
X143000000Y-72195646D01*
X142955794Y-72200000D01*
X129944206Y-72200000D01*
X129899999Y-72195646D01*
X129855793Y-72200000D01*
X129723569Y-72213023D01*
X129553919Y-72264486D01*
X129397568Y-72348057D01*
X129325413Y-72407273D01*
X129294862Y-72432345D01*
X129294860Y-72432347D01*
X129260525Y-72460525D01*
X129232347Y-72494860D01*
X126327208Y-75400000D01*
X124155793Y-75400000D01*
X124023569Y-75413023D01*
X123853919Y-75464486D01*
X123697568Y-75548057D01*
X123560525Y-75660525D01*
X123448057Y-75797568D01*
X123364486Y-75953919D01*
X123313023Y-76123569D01*
X123295646Y-76300000D01*
X123313023Y-76476431D01*
X123364486Y-76646081D01*
X123446757Y-76800000D01*
X120187337Y-76800000D01*
X120140784Y-76768894D01*
X119990644Y-76706704D01*
X119831255Y-76675000D01*
X119668745Y-76675000D01*
X119509356Y-76706704D01*
X119359216Y-76768894D01*
X119224093Y-76859181D01*
X119109181Y-76974093D01*
X119018894Y-77109216D01*
X118956704Y-77259356D01*
X118925000Y-77418745D01*
X118925000Y-77581255D01*
X118956704Y-77740644D01*
X119018894Y-77890784D01*
X119109181Y-78025907D01*
X119224093Y-78140819D01*
X119359216Y-78231106D01*
X119509356Y-78293296D01*
X119668745Y-78325000D01*
X119831255Y-78325000D01*
X119990644Y-78293296D01*
X120140784Y-78231106D01*
X120275907Y-78140819D01*
X120316726Y-78100000D01*
X121775052Y-78100000D01*
X121768894Y-78109216D01*
X121706704Y-78259356D01*
X121675000Y-78418745D01*
X121675000Y-78581255D01*
X121706704Y-78740644D01*
X121731290Y-78800000D01*
X119219239Y-78800000D01*
X119071776Y-78652538D01*
X119043296Y-78509356D01*
X118981106Y-78359216D01*
X118890819Y-78224093D01*
X118775907Y-78109181D01*
X118640784Y-78018894D01*
X118490644Y-77956704D01*
X118331255Y-77925000D01*
X118168745Y-77925000D01*
X118009356Y-77956704D01*
X117859216Y-78018894D01*
X117724093Y-78109181D01*
X117609181Y-78224093D01*
X117518894Y-78359216D01*
X117456704Y-78509356D01*
X117425000Y-78668745D01*
X117425000Y-78831255D01*
X117456704Y-78990644D01*
X117518894Y-79140784D01*
X117609181Y-79275907D01*
X117724093Y-79390819D01*
X117859216Y-79481106D01*
X118009356Y-79543296D01*
X118152538Y-79571776D01*
X118467802Y-79887041D01*
X118488157Y-79911843D01*
X118512957Y-79932196D01*
X118512959Y-79932198D01*
X118543084Y-79956921D01*
X118587132Y-79993070D01*
X118587497Y-79993265D01*
X113312929Y-85267833D01*
X113288124Y-85288190D01*
X113267769Y-85312993D01*
X113206897Y-85387165D01*
X113162419Y-85470378D01*
X113146540Y-85500086D01*
X113109372Y-85622612D01*
X113099967Y-85718102D01*
X113099967Y-85718112D01*
X113096823Y-85750033D01*
X113099967Y-85781955D01*
X113099968Y-90418035D01*
X113096823Y-90449967D01*
X113109373Y-90577389D01*
X113146540Y-90699914D01*
X113206897Y-90812835D01*
X113267769Y-90887007D01*
X113267772Y-90887010D01*
X113288125Y-90911810D01*
X113312924Y-90932162D01*
X117350000Y-94969239D01*
X117350001Y-103757938D01*
X114162940Y-106945000D01*
X114138135Y-106965357D01*
X114117780Y-106990160D01*
X114056908Y-107064332D01*
X114021217Y-107131106D01*
X113996551Y-107177253D01*
X113959383Y-107299779D01*
X113949978Y-107395269D01*
X113949978Y-107395279D01*
X113946834Y-107427200D01*
X113949978Y-107459122D01*
X113949979Y-111430741D01*
X111250000Y-108730762D01*
X111250000Y-103001925D01*
X111306914Y-103048633D01*
X111398119Y-103097383D01*
X111497082Y-103127403D01*
X111600000Y-103137540D01*
X112449998Y-103137540D01*
X112449999Y-104287832D01*
X112368892Y-104409216D01*
X112306702Y-104559356D01*
X112274998Y-104718745D01*
X112274998Y-104881255D01*
X112306702Y-105040644D01*
X112368892Y-105190784D01*
X112459179Y-105325907D01*
X112574091Y-105440819D01*
X112709214Y-105531106D01*
X112859354Y-105593296D01*
X113018743Y-105625000D01*
X113181253Y-105625000D01*
X113340642Y-105593296D01*
X113490782Y-105531106D01*
X113625905Y-105440819D01*
X113740817Y-105325907D01*
X113831104Y-105190784D01*
X113893294Y-105040644D01*
X113924998Y-104881255D01*
X113924998Y-104718745D01*
X113893294Y-104559356D01*
X113831104Y-104409216D01*
X113749998Y-104287833D01*
X113749998Y-103137540D01*
X115250000Y-103137540D01*
X115352918Y-103127403D01*
X115451881Y-103097383D01*
X115543086Y-103048633D01*
X115623027Y-102983027D01*
X115688633Y-102903086D01*
X115737383Y-102811881D01*
X115767403Y-102712918D01*
X115777540Y-102610000D01*
X115777540Y-101610000D01*
X115767403Y-101507082D01*
X115737383Y-101408119D01*
X115688633Y-101316914D01*
X115623027Y-101236973D01*
X115543086Y-101171367D01*
X115451881Y-101122617D01*
X115352918Y-101092597D01*
X115250000Y-101082460D01*
X111600000Y-101082460D01*
X111497082Y-101092597D01*
X111425000Y-101114463D01*
X111425000Y-101018745D01*
X111393296Y-100859356D01*
X111331106Y-100709216D01*
X111240819Y-100574093D01*
X111125907Y-100459181D01*
X110990784Y-100368894D01*
X110840644Y-100306704D01*
X110681255Y-100275000D01*
X110518745Y-100275000D01*
X110359356Y-100306704D01*
X110209216Y-100368894D01*
X110074093Y-100459181D01*
X109959181Y-100574093D01*
X109868894Y-100709216D01*
X109806704Y-100859356D01*
X109775000Y-101018745D01*
X109775000Y-101181255D01*
X109806704Y-101340644D01*
X109868894Y-101490784D01*
X109950001Y-101612168D01*
X109950000Y-108330762D01*
X109225000Y-107605762D01*
X109225000Y-103135078D01*
X109302918Y-103127403D01*
X109401881Y-103097383D01*
X109493086Y-103048633D01*
X109573027Y-102983027D01*
X109638633Y-102903086D01*
X109687383Y-102811881D01*
X109717403Y-102712918D01*
X109727540Y-102610000D01*
X109727540Y-101610000D01*
X109717403Y-101507082D01*
X109687383Y-101408119D01*
X109638633Y-101316914D01*
X109573027Y-101236973D01*
X109493086Y-101171367D01*
X109401881Y-101122617D01*
X109302918Y-101092597D01*
X109200000Y-101082460D01*
X105550000Y-101082460D01*
X105447082Y-101092597D01*
X105350000Y-101122046D01*
X105350000Y-100557954D01*
X105447082Y-100587403D01*
X105550000Y-100597540D01*
X109200000Y-100597540D01*
X109302918Y-100587403D01*
X109401881Y-100557383D01*
X109493086Y-100508633D01*
X109573027Y-100443027D01*
X109638633Y-100363086D01*
X109687383Y-100271881D01*
X109717403Y-100172918D01*
X109727540Y-100070000D01*
X109727540Y-100050000D01*
X109787833Y-100050000D01*
X109909216Y-100131106D01*
X110059356Y-100193296D01*
X110218745Y-100225000D01*
X110381255Y-100225000D01*
X110540644Y-100193296D01*
X110690784Y-100131106D01*
X110825907Y-100040819D01*
X110940819Y-99925907D01*
X111031106Y-99790784D01*
X111093296Y-99640644D01*
X111125000Y-99481255D01*
X111125000Y-99318745D01*
X111093296Y-99159356D01*
X111031106Y-99009216D01*
X110940819Y-98874093D01*
X110825907Y-98759181D01*
X110690784Y-98668894D01*
X110540644Y-98606704D01*
X110381255Y-98575000D01*
X110218745Y-98575000D01*
X110059356Y-98606704D01*
X109909216Y-98668894D01*
X109787833Y-98750000D01*
X109616545Y-98750000D01*
X109573027Y-98696973D01*
X109493086Y-98631367D01*
X109401881Y-98582617D01*
X109302918Y-98552597D01*
X109200000Y-98542460D01*
X105550000Y-98542460D01*
X105447082Y-98552597D01*
X105350000Y-98582046D01*
X105350000Y-95869238D01*
X105701698Y-95517540D01*
X109200000Y-95517540D01*
X109302918Y-95507403D01*
X109401881Y-95477383D01*
X109493086Y-95428633D01*
X109573027Y-95363027D01*
X109638633Y-95283086D01*
X109687383Y-95191881D01*
X109717403Y-95092918D01*
X109727540Y-94990000D01*
X109727540Y-94050000D01*
X110690762Y-94050000D01*
X111072460Y-94431698D01*
X111072460Y-94990000D01*
X111082597Y-95092918D01*
X111099913Y-95150000D01*
X110812167Y-95150000D01*
X110690784Y-95068894D01*
X110540644Y-95006704D01*
X110381255Y-94975000D01*
X110218745Y-94975000D01*
X110059356Y-95006704D01*
X109909216Y-95068894D01*
X109774093Y-95159181D01*
X109659181Y-95274093D01*
X109568894Y-95409216D01*
X109506704Y-95559356D01*
X109475000Y-95718745D01*
X109475000Y-95881255D01*
X109506704Y-96040644D01*
X109568894Y-96190784D01*
X109659181Y-96325907D01*
X109774093Y-96440819D01*
X109909216Y-96531106D01*
X110059356Y-96593296D01*
X110218745Y-96625000D01*
X110381255Y-96625000D01*
X110540644Y-96593296D01*
X110690784Y-96531106D01*
X110812167Y-96450000D01*
X111080340Y-96450000D01*
X111072460Y-96530000D01*
X111072460Y-97530000D01*
X111082597Y-97632918D01*
X111112617Y-97731881D01*
X111161367Y-97823086D01*
X111226973Y-97903027D01*
X111306914Y-97968633D01*
X111398119Y-98017383D01*
X111497082Y-98047403D01*
X111600000Y-98057540D01*
X115250000Y-98057540D01*
X115352918Y-98047403D01*
X115451881Y-98017383D01*
X115543086Y-97968633D01*
X115623027Y-97903027D01*
X115688633Y-97823086D01*
X115737383Y-97731881D01*
X115767403Y-97632918D01*
X115777540Y-97530000D01*
X115777540Y-96530000D01*
X115767403Y-96427082D01*
X115737383Y-96328119D01*
X115688633Y-96236914D01*
X115623027Y-96156973D01*
X115543086Y-96091367D01*
X115451881Y-96042617D01*
X115352918Y-96012597D01*
X115250000Y-96002460D01*
X113516698Y-96002460D01*
X113031778Y-95517540D01*
X115250000Y-95517540D01*
X115352918Y-95507403D01*
X115451881Y-95477383D01*
X115543086Y-95428633D01*
X115623027Y-95363027D01*
X115688633Y-95283086D01*
X115737383Y-95191881D01*
X115767403Y-95092918D01*
X115777540Y-94990000D01*
X115777540Y-93990000D01*
X115767403Y-93887082D01*
X115737383Y-93788119D01*
X115688633Y-93696914D01*
X115623027Y-93616973D01*
X115543086Y-93551367D01*
X115451881Y-93502617D01*
X115352918Y-93472597D01*
X115250000Y-93462460D01*
X111941698Y-93462460D01*
X111442200Y-92962962D01*
X111421843Y-92938157D01*
X111322868Y-92856930D01*
X111209948Y-92796573D01*
X111087422Y-92759405D01*
X110991932Y-92750000D01*
X110991921Y-92750000D01*
X110960000Y-92746856D01*
X110928079Y-92750000D01*
X105431920Y-92750000D01*
X105399999Y-92746856D01*
X105368078Y-92750000D01*
X105368068Y-92750000D01*
X105272578Y-92759405D01*
X105150052Y-92796573D01*
X105037132Y-92856930D01*
X105037130Y-92856931D01*
X105037131Y-92856931D01*
X104962959Y-92917802D01*
X104962957Y-92917804D01*
X104938157Y-92938157D01*
X104917804Y-92962957D01*
X103762957Y-94117805D01*
X103738158Y-94138157D01*
X103717805Y-94162957D01*
X103717802Y-94162960D01*
X103656930Y-94237132D01*
X103596573Y-94350053D01*
X103559406Y-94472578D01*
X103546856Y-94600000D01*
X102156408Y-94600000D01*
X102211201Y-94096191D01*
X102504568Y-92489045D01*
X102567421Y-92531043D01*
X102717561Y-92593233D01*
X102876950Y-92624937D01*
X103039460Y-92624937D01*
X103198849Y-92593233D01*
X103348989Y-92531043D01*
X103484112Y-92440756D01*
X103599024Y-92325844D01*
X103689311Y-92190721D01*
X103751501Y-92040581D01*
X103783205Y-91881192D01*
X103783205Y-91718682D01*
X103751501Y-91559293D01*
X103689311Y-91409153D01*
X103599024Y-91274030D01*
X103484112Y-91159118D01*
X103348989Y-91068831D01*
X103198849Y-91006641D01*
X103039460Y-90974937D01*
X102876950Y-90974937D01*
X102855406Y-90979222D01*
X103138811Y-89882017D01*
X103828162Y-87836094D01*
X104224532Y-86891258D01*
X104274093Y-86940819D01*
X104409216Y-87031106D01*
X104559356Y-87093296D01*
X104718745Y-87125000D01*
X104881255Y-87125000D01*
X105040644Y-87093296D01*
X105190784Y-87031106D01*
X105325907Y-86940819D01*
X105440819Y-86825907D01*
X105531106Y-86690784D01*
X105593296Y-86540644D01*
X105625000Y-86381255D01*
X105625000Y-86218745D01*
X105593296Y-86059356D01*
X105531106Y-85909216D01*
X105440819Y-85774093D01*
X105325907Y-85659181D01*
X105190784Y-85568894D01*
X105040644Y-85506704D01*
X104881255Y-85475000D01*
X104851155Y-85475000D01*
X105640008Y-83919854D01*
X106753056Y-82069954D01*
X106995298Y-81726203D01*
X107038571Y-81790966D01*
X107153483Y-81905878D01*
X107288606Y-81996165D01*
X107438746Y-82058355D01*
X107598135Y-82090059D01*
X107760645Y-82090059D01*
X107920034Y-82058355D01*
X108070174Y-81996165D01*
X108205297Y-81905878D01*
X108320209Y-81790966D01*
X108410496Y-81655843D01*
X108472686Y-81505703D01*
X108504390Y-81346314D01*
X108504390Y-81183804D01*
X108472686Y-81024415D01*
X108410496Y-80874275D01*
X108320209Y-80739152D01*
X108205297Y-80624240D01*
X108070174Y-80533953D01*
X107920034Y-80471763D01*
X107884311Y-80464657D01*
X107996687Y-80305192D01*
X109364417Y-78634767D01*
X110722270Y-77201299D01*
X110754616Y-77279389D01*
X110844903Y-77414512D01*
X110959815Y-77529424D01*
X111094938Y-77619711D01*
X111245078Y-77681901D01*
X111404467Y-77713605D01*
X111566977Y-77713605D01*
X111726366Y-77681901D01*
X111876506Y-77619711D01*
X112011629Y-77529424D01*
X112126541Y-77414512D01*
X112216828Y-77279389D01*
X112279018Y-77129249D01*
X112310722Y-76969860D01*
X112310722Y-76807350D01*
X112279018Y-76647961D01*
X112216828Y-76497821D01*
X112126541Y-76362698D01*
X112011629Y-76247786D01*
X111876506Y-76157499D01*
X111854892Y-76148546D01*
X112443044Y-75611230D01*
X114137890Y-74273880D01*
X115265479Y-73509356D01*
X115279424Y-73579465D01*
X115341614Y-73729605D01*
X115431901Y-73864728D01*
X115546813Y-73979640D01*
X115681936Y-74069927D01*
X115832076Y-74132117D01*
X115991465Y-74163821D01*
X116153975Y-74163821D01*
X116313364Y-74132117D01*
X116463504Y-74069927D01*
X116598627Y-73979640D01*
X116713539Y-73864728D01*
X116803826Y-73729605D01*
X116866016Y-73579465D01*
X116897720Y-73420076D01*
X116897720Y-73257566D01*
X116866016Y-73098177D01*
X116803826Y-72948037D01*
X116713539Y-72812914D01*
X116598627Y-72698002D01*
X116578785Y-72684744D01*
X117794511Y-71982845D01*
X119737222Y-71041104D01*
X120439109Y-70761447D01*
X120439109Y-70833380D01*
X120470813Y-70992769D01*
X120533003Y-71142909D01*
X120623290Y-71278032D01*
X120738202Y-71392944D01*
X120873325Y-71483231D01*
X121023465Y-71545421D01*
X121182854Y-71577125D01*
X121345364Y-71577125D01*
X121504753Y-71545421D01*
X121654893Y-71483231D01*
X121790016Y-71392944D01*
X121904928Y-71278032D01*
X121995215Y-71142909D01*
X122057405Y-70992769D01*
X122089109Y-70833380D01*
X122089109Y-70670870D01*
X122057405Y-70511481D01*
X121995215Y-70361341D01*
X121904928Y-70226218D01*
X121877897Y-70199187D01*
X123800859Y-69589697D01*
X125900598Y-69087599D01*
X126052075Y-69062766D01*
X126035386Y-69146666D01*
X126035386Y-69309176D01*
X126067090Y-69468565D01*
X126129280Y-69618705D01*
X126219567Y-69753828D01*
X126334479Y-69868740D01*
X126469602Y-69959027D01*
X126619742Y-70021217D01*
X126779131Y-70052921D01*
X126941641Y-70052921D01*
X127101030Y-70021217D01*
X127251170Y-69959027D01*
X127386293Y-69868740D01*
X127501205Y-69753828D01*
X127591492Y-69618705D01*
X127653682Y-69468565D01*
X127685386Y-69309176D01*
X127685386Y-69146666D01*
X127653682Y-68987277D01*
X127591492Y-68837137D01*
X127575385Y-68813032D01*
X128031093Y-68738322D01*
X130181238Y-68543687D01*
X131882676Y-68512964D01*
X131853194Y-68584139D01*
%TA.AperFunction,Conductor*%
D26*
G36*
X131853194Y-68584139D02*
G01*
X131821490Y-68743528D01*
X131821490Y-68906038D01*
X131853194Y-69065427D01*
X131915384Y-69215567D01*
X132005671Y-69350690D01*
X132120583Y-69465602D01*
X132255706Y-69555889D01*
X132405846Y-69618079D01*
X132565235Y-69649783D01*
X132727745Y-69649783D01*
X132887134Y-69618079D01*
X133037274Y-69555889D01*
X133172397Y-69465602D01*
X133287309Y-69350690D01*
X133377596Y-69215567D01*
X133439786Y-69065427D01*
X133471490Y-68906038D01*
X133471490Y-68743528D01*
X133439786Y-68584139D01*
X133431400Y-68563893D01*
X134495592Y-68621592D01*
X136637308Y-68893725D01*
X137707869Y-69109186D01*
X137668957Y-69167421D01*
X137606767Y-69317561D01*
X137575063Y-69476950D01*
X137575063Y-69639460D01*
X137606767Y-69798849D01*
X137668957Y-69948989D01*
X137759244Y-70084112D01*
X137874156Y-70199024D01*
X138009279Y-70289311D01*
X138159419Y-70351501D01*
X138318808Y-70383205D01*
X138481318Y-70383205D01*
X138640707Y-70351501D01*
X138790847Y-70289311D01*
X138925970Y-70199024D01*
X139040882Y-70084112D01*
X139131169Y-69948989D01*
X139193359Y-69798849D01*
X139225063Y-69639460D01*
X139225063Y-69476950D01*
X139219502Y-69448990D01*
X140834048Y-69897267D01*
X142867192Y-70623444D01*
X143313187Y-70820087D01*
X143259181Y-70874093D01*
X143168894Y-71009216D01*
X143106704Y-71159356D01*
X143075000Y-71318745D01*
X143075000Y-71481255D01*
X143106704Y-71640644D01*
X143168894Y-71790784D01*
X143259181Y-71925907D01*
X143374093Y-72040819D01*
X143509216Y-72131106D01*
X143659356Y-72193296D01*
X143818745Y-72225000D01*
X143981255Y-72225000D01*
X144140644Y-72193296D01*
X144290784Y-72131106D01*
X144425907Y-72040819D01*
X144540819Y-71925907D01*
X144631106Y-71790784D01*
X144693296Y-71640644D01*
X144725000Y-71481255D01*
X144725000Y-71442567D01*
X144842636Y-71494434D01*
X146750082Y-72505698D01*
X148481223Y-73590335D01*
X148409034Y-73638571D01*
X148294122Y-73753483D01*
X148203835Y-73888606D01*
X148141645Y-74038746D01*
X148109941Y-74198135D01*
X148109941Y-74360645D01*
X148141645Y-74520034D01*
X148203835Y-74670174D01*
X148294122Y-74805297D01*
X148409034Y-74920209D01*
X148544157Y-75010496D01*
X148694297Y-75072686D01*
X148853686Y-75104390D01*
X149016196Y-75104390D01*
X149175585Y-75072686D01*
X149325725Y-75010496D01*
X149460848Y-74920209D01*
X149575760Y-74805297D01*
X149666047Y-74670174D01*
X149728237Y-74520034D01*
X149732955Y-74496315D01*
X150321608Y-74927253D01*
X151967067Y-76324918D01*
X152987370Y-77326964D01*
X152920611Y-77354616D01*
X152785488Y-77444903D01*
X152670576Y-77559815D01*
X152580289Y-77694938D01*
X152518099Y-77845078D01*
X152486395Y-78004467D01*
X152486395Y-78166977D01*
X152518099Y-78326366D01*
X152580289Y-78476506D01*
X152670576Y-78611629D01*
X152785488Y-78726541D01*
X152920611Y-78816828D01*
X153070751Y-78879018D01*
X153230140Y-78910722D01*
X153392650Y-78910722D01*
X153552039Y-78879018D01*
X153702179Y-78816828D01*
X153837302Y-78726541D01*
X153952214Y-78611629D01*
X154042501Y-78476506D01*
X154051353Y-78455135D01*
X154934529Y-79457631D01*
X156241062Y-81176345D01*
X156690394Y-81865528D01*
X156620535Y-81879424D01*
X156470395Y-81941614D01*
X156335272Y-82031901D01*
X156220360Y-82146813D01*
X156130073Y-82281936D01*
X156067883Y-82432076D01*
X156036179Y-82591465D01*
X156036179Y-82753975D01*
X156067883Y-82913364D01*
X156130073Y-83063504D01*
X156220360Y-83198627D01*
X156335272Y-83313539D01*
X156470395Y-83403826D01*
X156620535Y-83466016D01*
X156779924Y-83497720D01*
X156942434Y-83497720D01*
X157101823Y-83466016D01*
X157251963Y-83403826D01*
X157387086Y-83313539D01*
X157501998Y-83198627D01*
X157521961Y-83168751D01*
X158465707Y-84873733D01*
X159372220Y-86833130D01*
X159450010Y-87039109D01*
X159366620Y-87039109D01*
X159207231Y-87070813D01*
X159057091Y-87133003D01*
X158921968Y-87223290D01*
X158807056Y-87338202D01*
X158716769Y-87473325D01*
X158654579Y-87623465D01*
X158622875Y-87782854D01*
X158622875Y-87945364D01*
X158654579Y-88104753D01*
X158716769Y-88254893D01*
X158807056Y-88390016D01*
X158921968Y-88504928D01*
X159057091Y-88595215D01*
X159207231Y-88657405D01*
X159366620Y-88689109D01*
X159529130Y-88689109D01*
X159688519Y-88657405D01*
X159838659Y-88595215D01*
X159973782Y-88504928D01*
X159995422Y-88483288D01*
X160134985Y-88852832D01*
X160750025Y-90922308D01*
X161130479Y-92650731D01*
X161053334Y-92635386D01*
X160890824Y-92635386D01*
X160731435Y-92667090D01*
X160581295Y-92729280D01*
X160446172Y-92819567D01*
X160331260Y-92934479D01*
X160240973Y-93069602D01*
X160178783Y-93219742D01*
X160147079Y-93379131D01*
X160147079Y-93541641D01*
X160178783Y-93701030D01*
X160240973Y-93851170D01*
X160331260Y-93986293D01*
X160446172Y-94101205D01*
X160581295Y-94191492D01*
X160731435Y-94253682D01*
X160890824Y-94285386D01*
X161053334Y-94285386D01*
X161212723Y-94253682D01*
X161362863Y-94191492D01*
X161381183Y-94179251D01*
X161524888Y-95167224D01*
X161620556Y-96489591D01*
X161340803Y-96605468D01*
X161009138Y-96827080D01*
X160727080Y-97109138D01*
X160505468Y-97440803D01*
X160352820Y-97809329D01*
X160275000Y-98200555D01*
X160275000Y-98599445D01*
X160352820Y-98990671D01*
X160505468Y-99359197D01*
X160727080Y-99690862D01*
X161009138Y-99972920D01*
X161340803Y-100194532D01*
X161620556Y-100310409D01*
X161524888Y-101632776D01*
X161214132Y-103769230D01*
X161094959Y-104310638D01*
X161032579Y-104268957D01*
X160882439Y-104206767D01*
X160723050Y-104175063D01*
X160560540Y-104175063D01*
X160401151Y-104206767D01*
X160251011Y-104268957D01*
X160115888Y-104359244D01*
X160000976Y-104474156D01*
X159910689Y-104609279D01*
X159848499Y-104759419D01*
X159816795Y-104918808D01*
X159816795Y-105081318D01*
X159848499Y-105240707D01*
X159910689Y-105390847D01*
X160000976Y-105525970D01*
X160115888Y-105640882D01*
X160251011Y-105731169D01*
X160401151Y-105793359D01*
X160560540Y-105825063D01*
X160723050Y-105825063D01*
X160763375Y-105817042D01*
X160750025Y-105877692D01*
X160134985Y-107947168D01*
X159389045Y-109922319D01*
X159325907Y-109859181D01*
X159190784Y-109768894D01*
X159040644Y-109706704D01*
X158881255Y-109675000D01*
X158718745Y-109675000D01*
X158559356Y-109706704D01*
X158409216Y-109768894D01*
X158274093Y-109859181D01*
X158159181Y-109974093D01*
X158068894Y-110109216D01*
X158006704Y-110259356D01*
X157975000Y-110418745D01*
X157975000Y-110581255D01*
X158006704Y-110740644D01*
X158068894Y-110890784D01*
X158159181Y-111025907D01*
X158274093Y-111140819D01*
X158409216Y-111231106D01*
X158559356Y-111293296D01*
X158718745Y-111325000D01*
X158743883Y-111325000D01*
X158465707Y-111926267D01*
X157420170Y-113815145D01*
X156602098Y-115069899D01*
X156561429Y-115009034D01*
X156446517Y-114894122D01*
X156311394Y-114803835D01*
X156161254Y-114741645D01*
X156001865Y-114709941D01*
X155839355Y-114709941D01*
X155679966Y-114741645D01*
X155529826Y-114803835D01*
X155394703Y-114894122D01*
X155279791Y-115009034D01*
X155189504Y-115144157D01*
X155127314Y-115294297D01*
X155095610Y-115453686D01*
X155095610Y-115616196D01*
X155127314Y-115775585D01*
X155189504Y-115925725D01*
X155279791Y-116060848D01*
X155394703Y-116175760D01*
X155529826Y-116266047D01*
X155679966Y-116328237D01*
X155702105Y-116332641D01*
X154934529Y-117342369D01*
X153507384Y-118962327D01*
X152872434Y-119585915D01*
X152845384Y-119520611D01*
X152755097Y-119385488D01*
X152640185Y-119270576D01*
X152505062Y-119180289D01*
X152354922Y-119118099D01*
X152195533Y-119086395D01*
X152033023Y-119086395D01*
X151873634Y-119118099D01*
X151723494Y-119180289D01*
X151588371Y-119270576D01*
X151473459Y-119385488D01*
X151383172Y-119520611D01*
X151320982Y-119670751D01*
X151289278Y-119830140D01*
X151289278Y-119992650D01*
X151320982Y-120152039D01*
X151383172Y-120302179D01*
X151473459Y-120437302D01*
X151588371Y-120552214D01*
X151723494Y-120642501D01*
X151754733Y-120655440D01*
X150321608Y-121872747D01*
X148579585Y-123148037D01*
X148336456Y-123300368D01*
X148320576Y-123220535D01*
X148258386Y-123070395D01*
X148168099Y-122935272D01*
X148053187Y-122820360D01*
X147918064Y-122730073D01*
X147767924Y-122667883D01*
X147608535Y-122636179D01*
X147446025Y-122636179D01*
X147286636Y-122667883D01*
X147136496Y-122730073D01*
X147001373Y-122820360D01*
X146886461Y-122935272D01*
X146796174Y-123070395D01*
X146733984Y-123220535D01*
X146702280Y-123379924D01*
X146702280Y-123542434D01*
X146733984Y-123701823D01*
X146796174Y-123851963D01*
X146886461Y-123987086D01*
X147001373Y-124101998D01*
X147028297Y-124119988D01*
X146750082Y-124294302D01*
X144842636Y-125305566D01*
X143160891Y-126047062D01*
X143160891Y-125966620D01*
X143129187Y-125807231D01*
X143066997Y-125657091D01*
X142976710Y-125521968D01*
X142861798Y-125407056D01*
X142726675Y-125316769D01*
X142576535Y-125254579D01*
X142417146Y-125222875D01*
X142254636Y-125222875D01*
X142095247Y-125254579D01*
X141945107Y-125316769D01*
X141809984Y-125407056D01*
X141695072Y-125521968D01*
X141604785Y-125657091D01*
X141542595Y-125807231D01*
X141510891Y-125966620D01*
X141510891Y-126129130D01*
X141542595Y-126288519D01*
X141604785Y-126438659D01*
X141695072Y-126573782D01*
X141710854Y-126589564D01*
X140834048Y-126902733D01*
X138753805Y-127480310D01*
X137550874Y-127722411D01*
X137564614Y-127653334D01*
X137564614Y-127490824D01*
X137532910Y-127331435D01*
X137470720Y-127181295D01*
X137380433Y-127046172D01*
X137265521Y-126931260D01*
X137130398Y-126840973D01*
X136980258Y-126778783D01*
X136820869Y-126747079D01*
X136658359Y-126747079D01*
X136498970Y-126778783D01*
X136348830Y-126840973D01*
X136213707Y-126931260D01*
X136098795Y-127046172D01*
X136008508Y-127181295D01*
X135946318Y-127331435D01*
X135914614Y-127490824D01*
X135914614Y-127653334D01*
X135946318Y-127812723D01*
X136008508Y-127962863D01*
X136022864Y-127984348D01*
X134495592Y-128178408D01*
X132339822Y-128295291D01*
X131718552Y-128284073D01*
X131746806Y-128215861D01*
X131778510Y-128056472D01*
X131778510Y-127893962D01*
X131746806Y-127734573D01*
X131684616Y-127584433D01*
X131594329Y-127449310D01*
X131479417Y-127334398D01*
X131344294Y-127244111D01*
X131194154Y-127181921D01*
X131034765Y-127150217D01*
X130872255Y-127150217D01*
X130712866Y-127181921D01*
X130562726Y-127244111D01*
X130427603Y-127334398D01*
X130312691Y-127449310D01*
X130222404Y-127584433D01*
X130160214Y-127734573D01*
X130128510Y-127893962D01*
X130128510Y-128056472D01*
X130160214Y-128215861D01*
X130176803Y-128255912D01*
X128031093Y-128061678D01*
X125900598Y-127712401D01*
X125880861Y-127707681D01*
X125931043Y-127632579D01*
X125993233Y-127482439D01*
X126024937Y-127323050D01*
X126024937Y-127160540D01*
X125993233Y-127001151D01*
X125931043Y-126851011D01*
X125840756Y-126715888D01*
X125725844Y-126600976D01*
X125590721Y-126510689D01*
X125440581Y-126448499D01*
X125281192Y-126416795D01*
X125118682Y-126416795D01*
X124959293Y-126448499D01*
X124809153Y-126510689D01*
X124674030Y-126600976D01*
X124559118Y-126715888D01*
X124468831Y-126851011D01*
X124406641Y-127001151D01*
X124374937Y-127160540D01*
X124374937Y-127323050D01*
X124380060Y-127348804D01*
X123800859Y-127210303D01*
X121742824Y-126558001D01*
X120288272Y-125978454D01*
X120340819Y-125925907D01*
X120431106Y-125790784D01*
X120493296Y-125640644D01*
X120525000Y-125481255D01*
X120525000Y-125318745D01*
X120493296Y-125159356D01*
X120431106Y-125009216D01*
X120340819Y-124874093D01*
X120225907Y-124759181D01*
X120090784Y-124668894D01*
X119940644Y-124606704D01*
X119781255Y-124575000D01*
X119618745Y-124575000D01*
X119459356Y-124606704D01*
X119309216Y-124668894D01*
X119174093Y-124759181D01*
X119059181Y-124874093D01*
X118968894Y-125009216D01*
X118906704Y-125159356D01*
X118875000Y-125318745D01*
X118875000Y-125340929D01*
X117794511Y-124817155D01*
X115924817Y-123737687D01*
X115132509Y-123200489D01*
X115190966Y-123161429D01*
X115305878Y-123046517D01*
X115396165Y-122911394D01*
X115458355Y-122761254D01*
X115490059Y-122601865D01*
X115490059Y-122439355D01*
X115458355Y-122279966D01*
X115396165Y-122129826D01*
X115305878Y-121994703D01*
X115190966Y-121879791D01*
X115055843Y-121789504D01*
X114905703Y-121727314D01*
X114746314Y-121695610D01*
X114583804Y-121695610D01*
X114424415Y-121727314D01*
X114274275Y-121789504D01*
X114139152Y-121879791D01*
X114024240Y-121994703D01*
X113933953Y-122129826D01*
X113871763Y-122279966D01*
X113865546Y-122311222D01*
X112443044Y-121188770D01*
X110849116Y-119732611D01*
X110605882Y-119475832D01*
X110679389Y-119445384D01*
X110814512Y-119355097D01*
X110929424Y-119240185D01*
X111019711Y-119105062D01*
X111081901Y-118954922D01*
X111113605Y-118795533D01*
X111113605Y-118633023D01*
X111081901Y-118473634D01*
X111019711Y-118323494D01*
X110929424Y-118188371D01*
X110814512Y-118073459D01*
X110679389Y-117983172D01*
X110529249Y-117920982D01*
X110369860Y-117889278D01*
X110207350Y-117889278D01*
X110047961Y-117920982D01*
X109897821Y-117983172D01*
X109762698Y-118073459D01*
X109647786Y-118188371D01*
X109557499Y-118323494D01*
X109544365Y-118355202D01*
X109364417Y-118165233D01*
X107996687Y-116494808D01*
X106898651Y-114936651D01*
X106979465Y-114920576D01*
X107129605Y-114858386D01*
X107264728Y-114768099D01*
X107379640Y-114653187D01*
X107469927Y-114518064D01*
X107532117Y-114367924D01*
X107563821Y-114208535D01*
X107563821Y-114046025D01*
X107532117Y-113886636D01*
X107469927Y-113736496D01*
X107379640Y-113601373D01*
X107264728Y-113486461D01*
X107129605Y-113396174D01*
X106979465Y-113333984D01*
X106820076Y-113302280D01*
X106657566Y-113302280D01*
X106498177Y-113333984D01*
X106348037Y-113396174D01*
X106212914Y-113486461D01*
X106098002Y-113601373D01*
X106085349Y-113620309D01*
X105640008Y-112880146D01*
X104663346Y-110954753D01*
X104162507Y-109760891D01*
X104233380Y-109760891D01*
X104392769Y-109729187D01*
X104542909Y-109666997D01*
X104678032Y-109576710D01*
X104792944Y-109461798D01*
X104883231Y-109326675D01*
X104945421Y-109176535D01*
X104977125Y-109017146D01*
X104977125Y-108854636D01*
X104945421Y-108695247D01*
X104883231Y-108545107D01*
X104792944Y-108409984D01*
X104678032Y-108295072D01*
X104542909Y-108204785D01*
X104392769Y-108142595D01*
X104233380Y-108110891D01*
X104070870Y-108110891D01*
X103911481Y-108142595D01*
X103761341Y-108204785D01*
X103626218Y-108295072D01*
X103608706Y-108312584D01*
X103138811Y-106917983D01*
X102598885Y-104827651D01*
X102475262Y-104150411D01*
X102546666Y-104164614D01*
X102709176Y-104164614D01*
X102868565Y-104132910D01*
X103018705Y-104070720D01*
X103153828Y-103980433D01*
X103268740Y-103865521D01*
X103359027Y-103730398D01*
X103421217Y-103580258D01*
X103452921Y-103420869D01*
X103452921Y-103258359D01*
X103421217Y-103098970D01*
X103359027Y-102948830D01*
X103268740Y-102813707D01*
X103153828Y-102698795D01*
X103018705Y-102608508D01*
X102868565Y-102546318D01*
X102709176Y-102514614D01*
X102546666Y-102514614D01*
X102387277Y-102546318D01*
X102237137Y-102608508D01*
X102203296Y-102631120D01*
X101977779Y-100557529D01*
X101899836Y-98400000D01*
X101902972Y-98313186D01*
X101984139Y-98346806D01*
X102143528Y-98378510D01*
X102306038Y-98378510D01*
X102465427Y-98346806D01*
X102615567Y-98284616D01*
X102750690Y-98194329D01*
X102865602Y-98079417D01*
X102955889Y-97944294D01*
X103018079Y-97794154D01*
X103049783Y-97634765D01*
X103049783Y-97472255D01*
X103018079Y-97312866D01*
X102955889Y-97162726D01*
X102865602Y-97027603D01*
X102750690Y-96912691D01*
X102615567Y-96822404D01*
X102465427Y-96760214D01*
X102306038Y-96728510D01*
X102143528Y-96728510D01*
X101984139Y-96760214D01*
X101958694Y-96770754D01*
X101977779Y-96242471D01*
X102156408Y-94600000D01*
X103546856Y-94600000D01*
X103550001Y-94631932D01*
X103550000Y-105568078D01*
X103546856Y-105600000D01*
X103550000Y-105631921D01*
X103550000Y-105631931D01*
X103559405Y-105727421D01*
X103592658Y-105837040D01*
X103596573Y-105849947D01*
X103656930Y-105962868D01*
X103691681Y-106005212D01*
X103738157Y-106061843D01*
X103762962Y-106082200D01*
X122517804Y-124837043D01*
X122538157Y-124861843D01*
X122562957Y-124882196D01*
X122562959Y-124882198D01*
X122637131Y-124943070D01*
X122750052Y-125003427D01*
X122872578Y-125040595D01*
X122968068Y-125050000D01*
X122968078Y-125050000D01*
X123000000Y-125053144D01*
X123031921Y-125050000D01*
X125868079Y-125050000D01*
X125900000Y-125053144D01*
X125931921Y-125050000D01*
X125931932Y-125050000D01*
X126027422Y-125040595D01*
X126149948Y-125003427D01*
X126262868Y-124943070D01*
X126361843Y-124861843D01*
X126382200Y-124837038D01*
X126497462Y-124721776D01*
X126640644Y-124693296D01*
X126790784Y-124631106D01*
X126925907Y-124540819D01*
X127040819Y-124425907D01*
X127131106Y-124290784D01*
X127193296Y-124140644D01*
X127225000Y-123981255D01*
X127225000Y-123818745D01*
X127193296Y-123659356D01*
X127131106Y-123509216D01*
X127040819Y-123374093D01*
X126925907Y-123259181D01*
X126790784Y-123168894D01*
X126640644Y-123106704D01*
X126481255Y-123075000D01*
X126318745Y-123075000D01*
X126265341Y-123085623D01*
X126190819Y-122974093D01*
X126075907Y-122859181D01*
X125940784Y-122768894D01*
X125790644Y-122706704D01*
X125631255Y-122675000D01*
X125468745Y-122675000D01*
X125309356Y-122706704D01*
X125159216Y-122768894D01*
X125024093Y-122859181D01*
X124909181Y-122974093D01*
X124818894Y-123109216D01*
X124760579Y-123250000D01*
X123469239Y-123250000D01*
X122669239Y-122450000D01*
X130952001Y-122450000D01*
X130906704Y-122559356D01*
X130875000Y-122718745D01*
X130875000Y-122881255D01*
X130906704Y-123040644D01*
X130968894Y-123190784D01*
X131059181Y-123325907D01*
X131174093Y-123440819D01*
X131309216Y-123531106D01*
X131459356Y-123593296D01*
X131602538Y-123621776D01*
X131917804Y-123937043D01*
X131938157Y-123961843D01*
X131962957Y-123982196D01*
X131962959Y-123982198D01*
X132015837Y-124025593D01*
X132037132Y-124043070D01*
X132122460Y-124088679D01*
X132122460Y-124125000D01*
X132132597Y-124227918D01*
X132162617Y-124326881D01*
X132211367Y-124418086D01*
X132276973Y-124498027D01*
X132356914Y-124563633D01*
X132448119Y-124612383D01*
X132547082Y-124642403D01*
X132650000Y-124652540D01*
X134150000Y-124652540D01*
X134252918Y-124642403D01*
X134351881Y-124612383D01*
X134443086Y-124563633D01*
X134523027Y-124498027D01*
X134588633Y-124418086D01*
X134637383Y-124326881D01*
X134667403Y-124227918D01*
X134677540Y-124125000D01*
X134677540Y-122875000D01*
X134667403Y-122772082D01*
X134637383Y-122673119D01*
X134588633Y-122581914D01*
X134523027Y-122501973D01*
X134443086Y-122436367D01*
X134365704Y-122395005D01*
X134462868Y-122343070D01*
X134561843Y-122261843D01*
X134582200Y-122237038D01*
X134800493Y-122018745D01*
X137875000Y-122018745D01*
X137875000Y-122181255D01*
X137906704Y-122340644D01*
X137968894Y-122490784D01*
X138059181Y-122625907D01*
X138174093Y-122740819D01*
X138309216Y-122831106D01*
X138459356Y-122893296D01*
X138618745Y-122925000D01*
X138781255Y-122925000D01*
X138940644Y-122893296D01*
X139090784Y-122831106D01*
X139225907Y-122740819D01*
X139316726Y-122650000D01*
X146468079Y-122650000D01*
X146500000Y-122653144D01*
X146531921Y-122650000D01*
X146531932Y-122650000D01*
X146627422Y-122640595D01*
X146749948Y-122603427D01*
X146862868Y-122543070D01*
X146961843Y-122461843D01*
X146982200Y-122437038D01*
X149716699Y-119702540D01*
X149905000Y-119702540D01*
X150007918Y-119692403D01*
X150106881Y-119662383D01*
X150198086Y-119613633D01*
X150278027Y-119548027D01*
X150343633Y-119468086D01*
X150392383Y-119376881D01*
X150422403Y-119277918D01*
X150432540Y-119175000D01*
X150432540Y-117625000D01*
X150422403Y-117522082D01*
X150392383Y-117423119D01*
X150343633Y-117331914D01*
X150278027Y-117251973D01*
X150198086Y-117186367D01*
X150106881Y-117137617D01*
X150056810Y-117122428D01*
X150179227Y-117000011D01*
X151654479Y-117000011D01*
X151686400Y-117003155D01*
X151718321Y-117000011D01*
X151718332Y-117000011D01*
X151813822Y-116990606D01*
X151936348Y-116953438D01*
X152049268Y-116893081D01*
X152148243Y-116811854D01*
X152168600Y-116787049D01*
X153262055Y-115693595D01*
X153286854Y-115673243D01*
X153324300Y-115627616D01*
X153368080Y-115574269D01*
X153368082Y-115574267D01*
X153428438Y-115461348D01*
X153465606Y-115338822D01*
X153466443Y-115330329D01*
X153483256Y-115326242D01*
X153536947Y-115314777D01*
X153574798Y-115298473D01*
X153595168Y-115291345D01*
X153634937Y-115280489D01*
X153684074Y-115255970D01*
X153733857Y-115232851D01*
X153767135Y-115208530D01*
X153785404Y-115197051D01*
X153821758Y-115177619D01*
X153864209Y-115142780D01*
X153907600Y-115109161D01*
X153934628Y-115078049D01*
X153949890Y-115062787D01*
X153981006Y-115035756D01*
X154014639Y-114992346D01*
X154049462Y-114949914D01*
X154068888Y-114913570D01*
X154080374Y-114895291D01*
X154104695Y-114862013D01*
X154127817Y-114812224D01*
X154152333Y-114763092D01*
X154163188Y-114723326D01*
X154170315Y-114702959D01*
X154186621Y-114665104D01*
X154198087Y-114611409D01*
X154211053Y-114558061D01*
X154212787Y-114516883D01*
X154215205Y-114495422D01*
X154222677Y-114454893D01*
X154221907Y-114400016D01*
X154222678Y-114345108D01*
X154215203Y-114304565D01*
X154212787Y-114283119D01*
X154211053Y-114241938D01*
X154198085Y-114188583D01*
X154186621Y-114134896D01*
X154170315Y-114097041D01*
X154163188Y-114076673D01*
X154152333Y-114036907D01*
X154127817Y-113987775D01*
X154104695Y-113937986D01*
X154080374Y-113904708D01*
X154068888Y-113886429D01*
X154049462Y-113850085D01*
X154014639Y-113807653D01*
X154008709Y-113800000D01*
X154014639Y-113792346D01*
X154049462Y-113749914D01*
X154068888Y-113713570D01*
X154080374Y-113695291D01*
X154104695Y-113662013D01*
X154127817Y-113612224D01*
X154152333Y-113563092D01*
X154163188Y-113523326D01*
X154170315Y-113502959D01*
X154186621Y-113465104D01*
X154198087Y-113411409D01*
X154211053Y-113358061D01*
X154212787Y-113316883D01*
X154215205Y-113295422D01*
X154222677Y-113254893D01*
X154221907Y-113200016D01*
X154222678Y-113145108D01*
X154215203Y-113104565D01*
X154212787Y-113083119D01*
X154211053Y-113041938D01*
X154198085Y-112988583D01*
X154186621Y-112934896D01*
X154170315Y-112897041D01*
X154163188Y-112876673D01*
X154152333Y-112836907D01*
X154127817Y-112787775D01*
X154104695Y-112737986D01*
X154080374Y-112704708D01*
X154068888Y-112686429D01*
X154049462Y-112650085D01*
X154014639Y-112607653D01*
X153981006Y-112564243D01*
X153949890Y-112537212D01*
X153934628Y-112521950D01*
X153907600Y-112490838D01*
X153864209Y-112457219D01*
X153821758Y-112422380D01*
X153785404Y-112402948D01*
X153767135Y-112391469D01*
X153733857Y-112367148D01*
X153684074Y-112344029D01*
X153634937Y-112319510D01*
X153595168Y-112308654D01*
X153574797Y-112301526D01*
X153536938Y-112285219D01*
X153483258Y-112273757D01*
X153475011Y-112271753D01*
X153475011Y-108556932D01*
X153478155Y-108525011D01*
X153475011Y-108493089D01*
X153475011Y-108493079D01*
X153465606Y-108397589D01*
X153428438Y-108275063D01*
X153390874Y-108204785D01*
X153368081Y-108162142D01*
X153307209Y-108087970D01*
X153307207Y-108087968D01*
X153286854Y-108063168D01*
X153262054Y-108042815D01*
X152875916Y-107656677D01*
X153513154Y-107656677D01*
X153513154Y-107927529D01*
X153565995Y-108193176D01*
X153669645Y-108443410D01*
X153820122Y-108668614D01*
X154011643Y-108860135D01*
X154236847Y-109010612D01*
X154487081Y-109114262D01*
X154752728Y-109167103D01*
X155023580Y-109167103D01*
X155289227Y-109114262D01*
X155539461Y-109010612D01*
X155764665Y-108860135D01*
X155956186Y-108668614D01*
X156106663Y-108443410D01*
X156210313Y-108193176D01*
X156263154Y-107927529D01*
X156263154Y-107656677D01*
X156210313Y-107391030D01*
X156106663Y-107140796D01*
X155956186Y-106915592D01*
X155764665Y-106724071D01*
X155539461Y-106573594D01*
X155289227Y-106469944D01*
X155023580Y-106417103D01*
X154752728Y-106417103D01*
X154487081Y-106469944D01*
X154236847Y-106573594D01*
X154011643Y-106724071D01*
X153820122Y-106915592D01*
X153669645Y-107140796D01*
X153565995Y-107391030D01*
X153513154Y-107656677D01*
X152875916Y-107656677D01*
X151946051Y-106726813D01*
X151946051Y-105419050D01*
X151947358Y-105418509D01*
X152172562Y-105268032D01*
X152364083Y-105076511D01*
X152514560Y-104851307D01*
X152618210Y-104601073D01*
X152671051Y-104335426D01*
X152671051Y-104064574D01*
X152618210Y-103798927D01*
X152514560Y-103548693D01*
X152364083Y-103323489D01*
X152172562Y-103131968D01*
X151963423Y-102992225D01*
X153087049Y-101868599D01*
X153111854Y-101848242D01*
X153151314Y-101800159D01*
X153193081Y-101749268D01*
X153253438Y-101636347D01*
X153261430Y-101610000D01*
X153290606Y-101513821D01*
X153300011Y-101418331D01*
X153300011Y-101418320D01*
X153303155Y-101386399D01*
X153300011Y-101354478D01*
X153300011Y-97831921D01*
X153303155Y-97800000D01*
X153300011Y-97768079D01*
X153300011Y-97768068D01*
X153290606Y-97672578D01*
X153253438Y-97550052D01*
X153193081Y-97437131D01*
X153132209Y-97362960D01*
X153111854Y-97338157D01*
X153087050Y-97317801D01*
X151950000Y-96180751D01*
X151950000Y-94716744D01*
X152172562Y-94568032D01*
X152364083Y-94376511D01*
X152514560Y-94151307D01*
X152618210Y-93901073D01*
X152671051Y-93635426D01*
X152671051Y-93364574D01*
X152618210Y-93098927D01*
X152514560Y-92848693D01*
X152364083Y-92623489D01*
X152172562Y-92431968D01*
X151947358Y-92281491D01*
X151697124Y-92177841D01*
X151431477Y-92125000D01*
X151160625Y-92125000D01*
X150894978Y-92177841D01*
X150644744Y-92281491D01*
X150419540Y-92431968D01*
X150228019Y-92623489D01*
X150077542Y-92848693D01*
X149973892Y-93098927D01*
X149921051Y-93364574D01*
X149921051Y-93635426D01*
X149954210Y-93802125D01*
X149873027Y-93720942D01*
X149793086Y-93655336D01*
X149701881Y-93606586D01*
X149602918Y-93576566D01*
X149500000Y-93566429D01*
X149397082Y-93576566D01*
X149298119Y-93606586D01*
X149206914Y-93655336D01*
X149126973Y-93720942D01*
X147924891Y-94923024D01*
X147859285Y-95002965D01*
X147810535Y-95094170D01*
X147780515Y-95193133D01*
X147770378Y-95296051D01*
X147780515Y-95398969D01*
X147810535Y-95497932D01*
X147859285Y-95589137D01*
X147924891Y-95669078D01*
X149126973Y-96871160D01*
X149206914Y-96936766D01*
X149298119Y-96985516D01*
X149397082Y-97015536D01*
X149500000Y-97025673D01*
X149602918Y-97015536D01*
X149701881Y-96985516D01*
X149793086Y-96936766D01*
X149873027Y-96871160D01*
X150016424Y-96727764D01*
X151349147Y-98060487D01*
X151341938Y-98060790D01*
X151288581Y-98073758D01*
X151234905Y-98085219D01*
X151197048Y-98101525D01*
X151176673Y-98108655D01*
X151136907Y-98119510D01*
X151087775Y-98144026D01*
X151037986Y-98167148D01*
X151004708Y-98191469D01*
X150986429Y-98202955D01*
X150950085Y-98222381D01*
X150907653Y-98257204D01*
X150864243Y-98290837D01*
X150837212Y-98321953D01*
X150821950Y-98337215D01*
X150790838Y-98364243D01*
X150757219Y-98407634D01*
X150722380Y-98450085D01*
X150702948Y-98486439D01*
X150691469Y-98504708D01*
X150667148Y-98537986D01*
X150644029Y-98587769D01*
X150619510Y-98636906D01*
X150608654Y-98676675D01*
X150601524Y-98697052D01*
X150585219Y-98734906D01*
X150573759Y-98788578D01*
X150560790Y-98841938D01*
X150559056Y-98883127D01*
X150556640Y-98904566D01*
X150549167Y-98945098D01*
X150549937Y-99000000D01*
X150549167Y-99054903D01*
X150556641Y-99095436D01*
X150559056Y-99116874D01*
X150560790Y-99158061D01*
X150573757Y-99211414D01*
X150585219Y-99265094D01*
X150601526Y-99302953D01*
X150608654Y-99323324D01*
X150619510Y-99363093D01*
X150644029Y-99412230D01*
X150667148Y-99462013D01*
X150691469Y-99495291D01*
X150702948Y-99513560D01*
X150722380Y-99549914D01*
X150757219Y-99592365D01*
X150790838Y-99635756D01*
X150821950Y-99662784D01*
X150837212Y-99678046D01*
X150864243Y-99709162D01*
X150907653Y-99742795D01*
X150950085Y-99777618D01*
X150986429Y-99797044D01*
X151004708Y-99808530D01*
X151037986Y-99832851D01*
X151087775Y-99855973D01*
X151136907Y-99880489D01*
X151176673Y-99891344D01*
X151197041Y-99898471D01*
X151234896Y-99914777D01*
X151288583Y-99926241D01*
X151341938Y-99939209D01*
X151372211Y-99940484D01*
X151372578Y-99940595D01*
X151431805Y-99946428D01*
X151458951Y-99949487D01*
X151463509Y-99949551D01*
X151468068Y-99950000D01*
X151495517Y-99950000D01*
X151550000Y-99950764D01*
X151550001Y-100930761D01*
X151398564Y-101082198D01*
X150203671Y-101082198D01*
X150171750Y-101079054D01*
X150139829Y-101082198D01*
X150139819Y-101082198D01*
X150127590Y-101083403D01*
X149873027Y-100828840D01*
X149793086Y-100763234D01*
X149701881Y-100714484D01*
X149602918Y-100684464D01*
X149500000Y-100674327D01*
X149397082Y-100684464D01*
X149298119Y-100714484D01*
X149206914Y-100763234D01*
X149126973Y-100828840D01*
X147924891Y-102030922D01*
X147859285Y-102110863D01*
X147810535Y-102202068D01*
X147780515Y-102301031D01*
X147770378Y-102403949D01*
X147780515Y-102506867D01*
X147810535Y-102605830D01*
X147859285Y-102697035D01*
X147924891Y-102776976D01*
X148850001Y-103702086D01*
X148850000Y-105868078D01*
X148846856Y-105900000D01*
X148850000Y-105931921D01*
X148850000Y-105931931D01*
X148859405Y-106027421D01*
X148881422Y-106100000D01*
X148896573Y-106149947D01*
X148956930Y-106262868D01*
X148971970Y-106281194D01*
X149038157Y-106361843D01*
X149062962Y-106382200D01*
X151725001Y-109044240D01*
X151725000Y-114755762D01*
X151230762Y-115250000D01*
X149731921Y-115250000D01*
X149700000Y-115246856D01*
X149668079Y-115250000D01*
X149668068Y-115250000D01*
X149572578Y-115259405D01*
X149457555Y-115294297D01*
X149450052Y-115296573D01*
X149337131Y-115356930D01*
X149262959Y-115417802D01*
X149262957Y-115417804D01*
X149238157Y-115438157D01*
X149217804Y-115462957D01*
X148330762Y-116350000D01*
X148021924Y-116350000D01*
X147990000Y-116346856D01*
X147958076Y-116350000D01*
X147958068Y-116350000D01*
X147862578Y-116359405D01*
X147740052Y-116396573D01*
X147627132Y-116456930D01*
X147552960Y-116517801D01*
X147552957Y-116517804D01*
X147528157Y-116538157D01*
X147507804Y-116562957D01*
X146973302Y-117097460D01*
X146765000Y-117097460D01*
X146662082Y-117107597D01*
X146563119Y-117137617D01*
X146471914Y-117186367D01*
X146391973Y-117251973D01*
X146326367Y-117331914D01*
X146277617Y-117423119D01*
X146247597Y-117522082D01*
X146237460Y-117625000D01*
X146237460Y-119175000D01*
X146247597Y-119277918D01*
X146277617Y-119376881D01*
X146326367Y-119468086D01*
X146391973Y-119548027D01*
X146471914Y-119613633D01*
X146563119Y-119662383D01*
X146662082Y-119692403D01*
X146765000Y-119702540D01*
X147365000Y-119702540D01*
X147467918Y-119692403D01*
X147566881Y-119662383D01*
X147658086Y-119613633D01*
X147700000Y-119579235D01*
X147741914Y-119613633D01*
X147833119Y-119662383D01*
X147898535Y-119682227D01*
X146230762Y-121350000D01*
X139045170Y-121350000D01*
X138940644Y-121306704D01*
X138781255Y-121275000D01*
X138618745Y-121275000D01*
X138459356Y-121306704D01*
X138309216Y-121368894D01*
X138174093Y-121459181D01*
X138059181Y-121574093D01*
X137968894Y-121709216D01*
X137906704Y-121859356D01*
X137875000Y-122018745D01*
X134800493Y-122018745D01*
X136237037Y-120582201D01*
X136261842Y-120561844D01*
X136343069Y-120462869D01*
X136403426Y-120349949D01*
X136440594Y-120227423D01*
X136449999Y-120131933D01*
X136449999Y-120131925D01*
X136453143Y-120100001D01*
X136449999Y-120068077D01*
X136449999Y-117931927D01*
X136453143Y-117900003D01*
X136449999Y-117868079D01*
X136449999Y-117868071D01*
X136440594Y-117772581D01*
X136403426Y-117650055D01*
X136343069Y-117537135D01*
X136324047Y-117513956D01*
X136301380Y-117400000D01*
X139270041Y-117400000D01*
X139289831Y-117600934D01*
X139348443Y-117794148D01*
X139443621Y-117972214D01*
X139571710Y-118128290D01*
X139727786Y-118256379D01*
X139905852Y-118351557D01*
X140099066Y-118410169D01*
X140300000Y-118429959D01*
X140500934Y-118410169D01*
X140694148Y-118351557D01*
X140872214Y-118256379D01*
X140989180Y-118160387D01*
X141131260Y-118018307D01*
X141225000Y-118027540D01*
X142475000Y-118027540D01*
X142577918Y-118017403D01*
X142676881Y-117987383D01*
X142768086Y-117938633D01*
X142848027Y-117873027D01*
X142913633Y-117793086D01*
X142962383Y-117701881D01*
X142992403Y-117602918D01*
X143002540Y-117500000D01*
X143002540Y-116000000D01*
X142992403Y-115897082D01*
X142962383Y-115798119D01*
X142913633Y-115706914D01*
X142848027Y-115626973D01*
X142768086Y-115561367D01*
X142676881Y-115512617D01*
X142577918Y-115482597D01*
X142475000Y-115472460D01*
X141225000Y-115472460D01*
X141122082Y-115482597D01*
X141023119Y-115512617D01*
X140931914Y-115561367D01*
X140851973Y-115626973D01*
X140786367Y-115706914D01*
X140769868Y-115737782D01*
X140749065Y-115739831D01*
X140555852Y-115798442D01*
X140377785Y-115893620D01*
X140221709Y-116021709D01*
X140189607Y-116060825D01*
X139539613Y-116710820D01*
X139443621Y-116827786D01*
X139348443Y-117005852D01*
X139289831Y-117199066D01*
X139270041Y-117400000D01*
X136301380Y-117400000D01*
X136293296Y-117359360D01*
X136231106Y-117209220D01*
X136140819Y-117074097D01*
X136025907Y-116959185D01*
X135890784Y-116868898D01*
X135740644Y-116806708D01*
X135581255Y-116775004D01*
X135418745Y-116775004D01*
X135262226Y-116806137D01*
X135240819Y-116774099D01*
X135125907Y-116659187D01*
X134990784Y-116568900D01*
X134945155Y-116550000D01*
X135187833Y-116550000D01*
X135309216Y-116631106D01*
X135459356Y-116693296D01*
X135618745Y-116725000D01*
X135781255Y-116725000D01*
X135940644Y-116693296D01*
X136090784Y-116631106D01*
X136225907Y-116540819D01*
X136340819Y-116425907D01*
X136431106Y-116290784D01*
X136493296Y-116140644D01*
X136525000Y-115981255D01*
X136525000Y-115818745D01*
X136493296Y-115659356D01*
X136431106Y-115509216D01*
X136340819Y-115374093D01*
X136225907Y-115259181D01*
X136090784Y-115168894D01*
X135940644Y-115106704D01*
X135781255Y-115075000D01*
X135618745Y-115075000D01*
X135459356Y-115106704D01*
X135309216Y-115168894D01*
X135187833Y-115250000D01*
X129456926Y-115250000D01*
X129425002Y-115246856D01*
X129393078Y-115250000D01*
X129393070Y-115250000D01*
X129299854Y-115259181D01*
X129297580Y-115259405D01*
X129175054Y-115296573D01*
X129062134Y-115356930D01*
X128987962Y-115417801D01*
X128987959Y-115417804D01*
X128963159Y-115438157D01*
X128942806Y-115462957D01*
X128886245Y-115519519D01*
X128825907Y-115459181D01*
X128690784Y-115368894D01*
X128540644Y-115306704D01*
X128390696Y-115276878D01*
X128346751Y-115240813D01*
X128233831Y-115180456D01*
X128111305Y-115143288D01*
X128015815Y-115133883D01*
X128015804Y-115133883D01*
X127983883Y-115130739D01*
X127951962Y-115133883D01*
X127270784Y-115133883D01*
X127261416Y-115122468D01*
X126377532Y-114238584D01*
X126297591Y-114172978D01*
X126206386Y-114124228D01*
X126107423Y-114094208D01*
X126004505Y-114084071D01*
X125901587Y-114094208D01*
X125802624Y-114124228D01*
X125711419Y-114172978D01*
X125631478Y-114238584D01*
X124570818Y-115299244D01*
X124505212Y-115379185D01*
X124456462Y-115470390D01*
X124426442Y-115569353D01*
X124416305Y-115672271D01*
X124426442Y-115775189D01*
X124456462Y-115874152D01*
X124505212Y-115965357D01*
X124570818Y-116045298D01*
X125075520Y-116550000D01*
X122269239Y-116550000D01*
X121137984Y-115418745D01*
X122275000Y-115418745D01*
X122275000Y-115581255D01*
X122306704Y-115740644D01*
X122368894Y-115890784D01*
X122459181Y-116025907D01*
X122574093Y-116140819D01*
X122709216Y-116231106D01*
X122859356Y-116293296D01*
X123018745Y-116325000D01*
X123181255Y-116325000D01*
X123340644Y-116293296D01*
X123490784Y-116231106D01*
X123625907Y-116140819D01*
X123740819Y-116025907D01*
X123831106Y-115890784D01*
X123893296Y-115740644D01*
X123925000Y-115581255D01*
X123925000Y-115418745D01*
X123893296Y-115259356D01*
X123831106Y-115109216D01*
X123740819Y-114974093D01*
X123625907Y-114859181D01*
X123490784Y-114768894D01*
X123340644Y-114706704D01*
X123181255Y-114675000D01*
X123018745Y-114675000D01*
X122859356Y-114706704D01*
X122709216Y-114768894D01*
X122574093Y-114859181D01*
X122459181Y-114974093D01*
X122368894Y-115109216D01*
X122306704Y-115259356D01*
X122275000Y-115418745D01*
X121137984Y-115418745D01*
X116650000Y-110930762D01*
X116650000Y-110872271D01*
X116816305Y-110872271D01*
X116826442Y-110975189D01*
X116856462Y-111074152D01*
X116905212Y-111165357D01*
X116970818Y-111245298D01*
X117854702Y-112129182D01*
X117934643Y-112194788D01*
X118025848Y-112243538D01*
X118124811Y-112273558D01*
X118227729Y-112283695D01*
X118330647Y-112273558D01*
X118429610Y-112243538D01*
X118520815Y-112194788D01*
X118600756Y-112129182D01*
X118671467Y-112058471D01*
X119544413Y-112931418D01*
X119505212Y-112979185D01*
X119456462Y-113070390D01*
X119426442Y-113169353D01*
X119416305Y-113272271D01*
X119426442Y-113375189D01*
X119456462Y-113474152D01*
X119505212Y-113565357D01*
X119570818Y-113645298D01*
X120454702Y-114529182D01*
X120534643Y-114594788D01*
X120625848Y-114643538D01*
X120724811Y-114673558D01*
X120827729Y-114683695D01*
X120930647Y-114673558D01*
X121029610Y-114643538D01*
X121120815Y-114594788D01*
X121200756Y-114529182D01*
X122031615Y-113698323D01*
X122075000Y-113741708D01*
X122075000Y-113881255D01*
X122106704Y-114040644D01*
X122168894Y-114190784D01*
X122259181Y-114325907D01*
X122374093Y-114440819D01*
X122509216Y-114531106D01*
X122659356Y-114593296D01*
X122818745Y-114625000D01*
X122981255Y-114625000D01*
X123140644Y-114593296D01*
X123290784Y-114531106D01*
X123425907Y-114440819D01*
X123540819Y-114325907D01*
X123631106Y-114190784D01*
X123693296Y-114040644D01*
X123725000Y-113881255D01*
X123725000Y-113718745D01*
X123693296Y-113559356D01*
X123631106Y-113409216D01*
X123540819Y-113274093D01*
X123425907Y-113159181D01*
X123290784Y-113068894D01*
X123205220Y-113033452D01*
X122190513Y-112018745D01*
X137575000Y-112018745D01*
X137575000Y-112181255D01*
X137606704Y-112340644D01*
X137668894Y-112490784D01*
X137756466Y-112621844D01*
X137759405Y-112651685D01*
X137789245Y-112750053D01*
X137796573Y-112774211D01*
X137856930Y-112887132D01*
X137897782Y-112936910D01*
X137938157Y-112986107D01*
X137962962Y-113006464D01*
X139693540Y-114737043D01*
X139713893Y-114761843D01*
X139738693Y-114782196D01*
X139738695Y-114782198D01*
X139812867Y-114843070D01*
X139921844Y-114901319D01*
X139925788Y-114903427D01*
X140048314Y-114940595D01*
X140143804Y-114950000D01*
X140143814Y-114950000D01*
X140175736Y-114953144D01*
X140207657Y-114950000D01*
X149298079Y-114950000D01*
X149330000Y-114953144D01*
X149361921Y-114950000D01*
X149361932Y-114950000D01*
X149457422Y-114940595D01*
X149579948Y-114903427D01*
X149692868Y-114843070D01*
X149791843Y-114761843D01*
X149812201Y-114737037D01*
X150042033Y-114507204D01*
X150066843Y-114486843D01*
X150148070Y-114387868D01*
X150208427Y-114274948D01*
X150236620Y-114182009D01*
X150278027Y-114148027D01*
X150343633Y-114068086D01*
X150392383Y-113976881D01*
X150422403Y-113877918D01*
X150432540Y-113775000D01*
X150432540Y-112225000D01*
X150422403Y-112122082D01*
X150392383Y-112023119D01*
X150343633Y-111931914D01*
X150278027Y-111851973D01*
X150198086Y-111786367D01*
X150106881Y-111737617D01*
X150007918Y-111707597D01*
X149905000Y-111697460D01*
X149305000Y-111697460D01*
X149202082Y-111707597D01*
X149113691Y-111734410D01*
X149108733Y-111684071D01*
X149098786Y-111583074D01*
X149054470Y-111436986D01*
X149054470Y-111436985D01*
X148982506Y-111302350D01*
X148975076Y-111293296D01*
X148885659Y-111184341D01*
X148856086Y-111160071D01*
X148749403Y-111053388D01*
X148731106Y-111009216D01*
X148640819Y-110874093D01*
X148525907Y-110759181D01*
X148390784Y-110668894D01*
X148240644Y-110606704D01*
X148081255Y-110575000D01*
X147918745Y-110575000D01*
X147759356Y-110606704D01*
X147609216Y-110668894D01*
X147474093Y-110759181D01*
X147359181Y-110874093D01*
X147268894Y-111009216D01*
X147206704Y-111159356D01*
X147175000Y-111318745D01*
X147175000Y-111481255D01*
X147206704Y-111640644D01*
X147268894Y-111790784D01*
X147359181Y-111925907D01*
X147474093Y-112040819D01*
X147530762Y-112078684D01*
X147517597Y-112122082D01*
X147507460Y-112225000D01*
X147507460Y-113650000D01*
X146622540Y-113650000D01*
X146622540Y-112225000D01*
X146612403Y-112122082D01*
X146582383Y-112023119D01*
X146533633Y-111931914D01*
X146468027Y-111851973D01*
X146388086Y-111786367D01*
X146296881Y-111737617D01*
X146197918Y-111707597D01*
X146095000Y-111697460D01*
X145495000Y-111697460D01*
X145392082Y-111707597D01*
X145293119Y-111737617D01*
X145201914Y-111786367D01*
X145121973Y-111851973D01*
X145056367Y-111931914D01*
X145007617Y-112023119D01*
X144977597Y-112122082D01*
X144967460Y-112225000D01*
X144967460Y-112908302D01*
X144925762Y-112950000D01*
X140769243Y-112950000D01*
X140121776Y-112302534D01*
X140093296Y-112159352D01*
X140031106Y-112009212D01*
X139940819Y-111874089D01*
X139825907Y-111759177D01*
X139690784Y-111668890D01*
X139540644Y-111606700D01*
X139381255Y-111574996D01*
X139218745Y-111574996D01*
X139062225Y-111606129D01*
X139040819Y-111574093D01*
X138925907Y-111459181D01*
X138790784Y-111368894D01*
X138640644Y-111306704D01*
X138481255Y-111275000D01*
X138318745Y-111275000D01*
X138159356Y-111306704D01*
X138009216Y-111368894D01*
X137874093Y-111459181D01*
X137759181Y-111574093D01*
X137668894Y-111709216D01*
X137606704Y-111859356D01*
X137575000Y-112018745D01*
X122190513Y-112018745D01*
X120733883Y-110562115D01*
X120733883Y-109996055D01*
X121429182Y-109300756D01*
X121494788Y-109220815D01*
X121543538Y-109129610D01*
X121573558Y-109030647D01*
X121583695Y-108927729D01*
X121573558Y-108824811D01*
X121543538Y-108725848D01*
X121494788Y-108634643D01*
X121429182Y-108554702D01*
X120545298Y-107670818D01*
X120465357Y-107605212D01*
X120374152Y-107556462D01*
X120275189Y-107526442D01*
X120172271Y-107516305D01*
X120069353Y-107526442D01*
X119970390Y-107556462D01*
X119879185Y-107605212D01*
X119799244Y-107670818D01*
X118738584Y-108731478D01*
X118672978Y-108811419D01*
X118624228Y-108902624D01*
X118594208Y-109001587D01*
X118584071Y-109104505D01*
X118594208Y-109207423D01*
X118624228Y-109306386D01*
X118644716Y-109344716D01*
X118606386Y-109324228D01*
X118507423Y-109294208D01*
X118404505Y-109284071D01*
X118301587Y-109294208D01*
X118202624Y-109324228D01*
X118111419Y-109372978D01*
X118031478Y-109438584D01*
X116970818Y-110499244D01*
X116905212Y-110579185D01*
X116856462Y-110670390D01*
X116826442Y-110769353D01*
X116816305Y-110872271D01*
X116650000Y-110872271D01*
X116650000Y-108205648D01*
X119787076Y-105068574D01*
X119811876Y-105048221D01*
X119893103Y-104949246D01*
X119953460Y-104836326D01*
X119990628Y-104713800D01*
X120000033Y-104618310D01*
X120000033Y-104618300D01*
X120003177Y-104586379D01*
X120000033Y-104554458D01*
X120000033Y-94172724D01*
X120003177Y-94140800D01*
X120000033Y-94108876D01*
X120000033Y-94108868D01*
X119990628Y-94013378D01*
X119953460Y-93890852D01*
X119893103Y-93777932D01*
X119811876Y-93678957D01*
X119787072Y-93658601D01*
X115750000Y-89621530D01*
X115750000Y-87791458D01*
X118101580Y-87791458D01*
X118160952Y-88394263D01*
X118336784Y-88973903D01*
X118622319Y-89508102D01*
X118910290Y-89858996D01*
X126379877Y-97328584D01*
X126275000Y-97855835D01*
X126275000Y-98944165D01*
X126487323Y-100011583D01*
X126903809Y-101017069D01*
X127508452Y-101921982D01*
X128278018Y-102691548D01*
X129182931Y-103296191D01*
X130188417Y-103712677D01*
X131255835Y-103925000D01*
X132344165Y-103925000D01*
X132871417Y-103820123D01*
X140341003Y-111289710D01*
X140691897Y-111577681D01*
X141226096Y-111863216D01*
X141805736Y-112039048D01*
X142408542Y-112098420D01*
X143011347Y-112039048D01*
X143590987Y-111863216D01*
X144125186Y-111577681D01*
X144593415Y-111193415D01*
X144977681Y-110725186D01*
X145263216Y-110190987D01*
X145439048Y-109611347D01*
X145498420Y-109008542D01*
X145439048Y-108405736D01*
X145263216Y-107826096D01*
X144977681Y-107291897D01*
X144689710Y-106941003D01*
X143848707Y-106100000D01*
X145795646Y-106100000D01*
X145813023Y-106276430D01*
X145864487Y-106446081D01*
X145948057Y-106602431D01*
X146032345Y-106705137D01*
X146532395Y-107205187D01*
X146526442Y-107224811D01*
X146516305Y-107327729D01*
X146526442Y-107430647D01*
X146556462Y-107529610D01*
X146605212Y-107620815D01*
X146670818Y-107700756D01*
X147731478Y-108761416D01*
X147811419Y-108827022D01*
X147902624Y-108875772D01*
X148001587Y-108905792D01*
X148104505Y-108915929D01*
X148207423Y-108905792D01*
X148306386Y-108875772D01*
X148397591Y-108827022D01*
X148477532Y-108761416D01*
X149361416Y-107877532D01*
X149427022Y-107797591D01*
X149475772Y-107706386D01*
X149505792Y-107607423D01*
X149515929Y-107504505D01*
X149505792Y-107401587D01*
X149475772Y-107302624D01*
X149427022Y-107211419D01*
X149361416Y-107131478D01*
X148300756Y-106070818D01*
X148220815Y-106005212D01*
X148129610Y-105956462D01*
X148030647Y-105926442D01*
X147927729Y-105916305D01*
X147824811Y-105926442D01*
X147805187Y-105932395D01*
X147305137Y-105432345D01*
X147202431Y-105348057D01*
X147046081Y-105264487D01*
X146876430Y-105213023D01*
X146700000Y-105195646D01*
X146523570Y-105213023D01*
X146353919Y-105264487D01*
X146197569Y-105348057D01*
X146060526Y-105460526D01*
X145948057Y-105597569D01*
X145864487Y-105753919D01*
X145813023Y-105923570D01*
X145795646Y-106100000D01*
X143848707Y-106100000D01*
X137220123Y-99471417D01*
X137325000Y-98944165D01*
X137325000Y-97855835D01*
X137112677Y-96788417D01*
X136696191Y-95782931D01*
X136091548Y-94878018D01*
X135321982Y-94108452D01*
X134417069Y-93503809D01*
X133411583Y-93087323D01*
X132344165Y-92875000D01*
X131255835Y-92875000D01*
X130728584Y-92979877D01*
X127521178Y-89772471D01*
X153513154Y-89772471D01*
X153513154Y-90043323D01*
X153565995Y-90308970D01*
X153669645Y-90559204D01*
X153820122Y-90784408D01*
X154011643Y-90975929D01*
X154236847Y-91126406D01*
X154487081Y-91230056D01*
X154752728Y-91282897D01*
X155023580Y-91282897D01*
X155289227Y-91230056D01*
X155539461Y-91126406D01*
X155764665Y-90975929D01*
X155956186Y-90784408D01*
X156106663Y-90559204D01*
X156210313Y-90308970D01*
X156263154Y-90043323D01*
X156263154Y-89772471D01*
X156210313Y-89506824D01*
X156106663Y-89256590D01*
X155956186Y-89031386D01*
X155764665Y-88839865D01*
X155539461Y-88689388D01*
X155289227Y-88585738D01*
X155023580Y-88532897D01*
X154752728Y-88532897D01*
X154487081Y-88585738D01*
X154236847Y-88689388D01*
X154011643Y-88839865D01*
X153820122Y-89031386D01*
X153669645Y-89256590D01*
X153565995Y-89506824D01*
X153513154Y-89772471D01*
X127521178Y-89772471D01*
X123258996Y-85510290D01*
X122908102Y-85222319D01*
X122373903Y-84936784D01*
X121794263Y-84760952D01*
X121191458Y-84701580D01*
X120588653Y-84760952D01*
X120009013Y-84936784D01*
X119474814Y-85222319D01*
X119006585Y-85606585D01*
X118622319Y-86074814D01*
X118336784Y-86609013D01*
X118160952Y-87188653D01*
X118101580Y-87791458D01*
X115750000Y-87791458D01*
X115750000Y-86969238D01*
X120269239Y-82450000D01*
X120387833Y-82450000D01*
X120509216Y-82531106D01*
X120659356Y-82593296D01*
X120818745Y-82625000D01*
X120981255Y-82625000D01*
X121140644Y-82593296D01*
X121290784Y-82531106D01*
X121425907Y-82440819D01*
X121540819Y-82325907D01*
X121631106Y-82190784D01*
X121693296Y-82040644D01*
X121725000Y-81881255D01*
X121725000Y-81718745D01*
X121701381Y-81600001D01*
X123180763Y-81600001D01*
X124245780Y-82665019D01*
X124206704Y-82759356D01*
X124175000Y-82918745D01*
X124175000Y-83025248D01*
X124140819Y-82974093D01*
X124025907Y-82859181D01*
X123890784Y-82768894D01*
X123740644Y-82706704D01*
X123581255Y-82675000D01*
X123418745Y-82675000D01*
X123259356Y-82706704D01*
X123109216Y-82768894D01*
X122974093Y-82859181D01*
X122859181Y-82974093D01*
X122768894Y-83109216D01*
X122706704Y-83259356D01*
X122675000Y-83418745D01*
X122675000Y-83581255D01*
X122706704Y-83740644D01*
X122768894Y-83890784D01*
X122859181Y-84025907D01*
X122974093Y-84140819D01*
X123109216Y-84231106D01*
X123259356Y-84293296D01*
X123402538Y-84321776D01*
X124267804Y-85187043D01*
X124288157Y-85211843D01*
X124312957Y-85232196D01*
X124312959Y-85232198D01*
X124387131Y-85293070D01*
X124424405Y-85312993D01*
X124500052Y-85353427D01*
X124622578Y-85390595D01*
X124718068Y-85400000D01*
X124718078Y-85400000D01*
X124750000Y-85403144D01*
X124781921Y-85400000D01*
X132718079Y-85400000D01*
X132750000Y-85403144D01*
X132781921Y-85400000D01*
X132781932Y-85400000D01*
X132877422Y-85390595D01*
X132999948Y-85353427D01*
X133112868Y-85293070D01*
X133211843Y-85211843D01*
X133232200Y-85187038D01*
X134492751Y-83926488D01*
X134559181Y-84025907D01*
X134674093Y-84140819D01*
X134809216Y-84231106D01*
X134959356Y-84293296D01*
X135118745Y-84325000D01*
X135281255Y-84325000D01*
X135440644Y-84293296D01*
X135590784Y-84231106D01*
X135725907Y-84140819D01*
X135840819Y-84025907D01*
X135931106Y-83890784D01*
X135993296Y-83740644D01*
X136021776Y-83597462D01*
X137112043Y-82507196D01*
X137136843Y-82486843D01*
X137157198Y-82462041D01*
X137218070Y-82387869D01*
X137263679Y-82302540D01*
X137350000Y-82302540D01*
X137452918Y-82292403D01*
X137551881Y-82262383D01*
X137643086Y-82213633D01*
X137723027Y-82148027D01*
X137788633Y-82068086D01*
X137837383Y-81976881D01*
X137867403Y-81877918D01*
X137877540Y-81775000D01*
X137877540Y-81125000D01*
X137867403Y-81022082D01*
X137837383Y-80923119D01*
X137788633Y-80831914D01*
X137723027Y-80751973D01*
X137643086Y-80686367D01*
X137551881Y-80637617D01*
X137452918Y-80607597D01*
X137350000Y-80597460D01*
X136000000Y-80597460D01*
X135897082Y-80607597D01*
X135798119Y-80637617D01*
X135706914Y-80686367D01*
X135626973Y-80751973D01*
X135561367Y-80831914D01*
X135512617Y-80923119D01*
X135482597Y-81022082D01*
X135472460Y-81125000D01*
X135472460Y-81775000D01*
X135482597Y-81877918D01*
X135512617Y-81976881D01*
X135561367Y-82068086D01*
X135626973Y-82148027D01*
X135630137Y-82150624D01*
X135400000Y-82380762D01*
X135400000Y-80769238D01*
X135881548Y-80287691D01*
X135897082Y-80292403D01*
X136000000Y-80302540D01*
X137350000Y-80302540D01*
X137452918Y-80292403D01*
X137551881Y-80262383D01*
X137643086Y-80213633D01*
X137723027Y-80148027D01*
X137788633Y-80068086D01*
X137837383Y-79976881D01*
X137867403Y-79877918D01*
X137877540Y-79775000D01*
X137877540Y-79400000D01*
X139127208Y-79400000D01*
X140125001Y-80397793D01*
X140125000Y-84280793D01*
X140120646Y-84325000D01*
X140125000Y-84369206D01*
X140138023Y-84501430D01*
X140189486Y-84671080D01*
X140273057Y-84827431D01*
X140385525Y-84964475D01*
X140419865Y-84992657D01*
X142293018Y-86865810D01*
X142259285Y-86906914D01*
X142210535Y-86998119D01*
X142180515Y-87097082D01*
X142170378Y-87200000D01*
X142180515Y-87302918D01*
X142210535Y-87401881D01*
X142259285Y-87493086D01*
X142324891Y-87573027D01*
X143526973Y-88775109D01*
X143606914Y-88840715D01*
X143698119Y-88889465D01*
X143797082Y-88919485D01*
X143900000Y-88929622D01*
X144002918Y-88919485D01*
X144101881Y-88889465D01*
X144193086Y-88840715D01*
X144273027Y-88775109D01*
X145475109Y-87573027D01*
X145540715Y-87493086D01*
X145589465Y-87401881D01*
X145619485Y-87302918D01*
X145629622Y-87200000D01*
X145619485Y-87097082D01*
X145589465Y-86998119D01*
X145540715Y-86906914D01*
X145475109Y-86826973D01*
X145393926Y-86745790D01*
X145560625Y-86778949D01*
X145831477Y-86778949D01*
X146097124Y-86726108D01*
X146347358Y-86622458D01*
X146572562Y-86471981D01*
X146764083Y-86280460D01*
X146914560Y-86055256D01*
X147018210Y-85805022D01*
X147071051Y-85539375D01*
X147071051Y-85268523D01*
X147018210Y-85002876D01*
X146914560Y-84752642D01*
X146764083Y-84527438D01*
X146572562Y-84335917D01*
X146347358Y-84185440D01*
X146097124Y-84081790D01*
X145831477Y-84028949D01*
X145560625Y-84028949D01*
X145294978Y-84081790D01*
X145044744Y-84185440D01*
X144819540Y-84335917D01*
X144628019Y-84527438D01*
X144477542Y-84752642D01*
X144373892Y-85002876D01*
X144321051Y-85268523D01*
X144321051Y-85539375D01*
X144354210Y-85706074D01*
X144273027Y-85624891D01*
X144193086Y-85559285D01*
X144101881Y-85510535D01*
X144002918Y-85480515D01*
X143900000Y-85470378D01*
X143797082Y-85480515D01*
X143698119Y-85510535D01*
X143606914Y-85559285D01*
X143565810Y-85593018D01*
X141925000Y-83952208D01*
X141925000Y-80069207D01*
X141929354Y-80025000D01*
X141911977Y-79848569D01*
X141860514Y-79678918D01*
X141776943Y-79522568D01*
X141742916Y-79481106D01*
X141664475Y-79385525D01*
X141630135Y-79357343D01*
X140622792Y-78350000D01*
X144177208Y-78350000D01*
X147493018Y-81665810D01*
X147459285Y-81706914D01*
X147410535Y-81798119D01*
X147380515Y-81897082D01*
X147370378Y-82000000D01*
X147380515Y-82102918D01*
X147410535Y-82201881D01*
X147459285Y-82293086D01*
X147524891Y-82373027D01*
X148726973Y-83575109D01*
X148806914Y-83640715D01*
X148898119Y-83689465D01*
X148997082Y-83719485D01*
X149100000Y-83729622D01*
X149202918Y-83719485D01*
X149301881Y-83689465D01*
X149393086Y-83640715D01*
X149473027Y-83575109D01*
X150675109Y-82373027D01*
X150740715Y-82293086D01*
X150789465Y-82201881D01*
X150819485Y-82102918D01*
X150829622Y-82000000D01*
X150819485Y-81897082D01*
X150789465Y-81798119D01*
X150740715Y-81706914D01*
X150675109Y-81626973D01*
X150593926Y-81545790D01*
X150760625Y-81578949D01*
X151031477Y-81578949D01*
X151297124Y-81526108D01*
X151547358Y-81422458D01*
X151772562Y-81271981D01*
X151964083Y-81080460D01*
X152114560Y-80855256D01*
X152218210Y-80605022D01*
X152271051Y-80339375D01*
X152271051Y-80068523D01*
X152218210Y-79802876D01*
X152114560Y-79552642D01*
X151964083Y-79327438D01*
X151772562Y-79135917D01*
X151547358Y-78985440D01*
X151297124Y-78881790D01*
X151031477Y-78828949D01*
X150760625Y-78828949D01*
X150494978Y-78881790D01*
X150244744Y-78985440D01*
X150192884Y-79020092D01*
X143667657Y-72494865D01*
X143639475Y-72460525D01*
X143502432Y-72348057D01*
X143346081Y-72264486D01*
X143176431Y-72213023D01*
X143044207Y-72200000D01*
X143044206Y-72200000D01*
X143000000Y-72195646D01*
X142955794Y-72200000D01*
X129944206Y-72200000D01*
X129899999Y-72195646D01*
X129855793Y-72200000D01*
X129723569Y-72213023D01*
X129553919Y-72264486D01*
X129397568Y-72348057D01*
X129325413Y-72407273D01*
X129294862Y-72432345D01*
X129294860Y-72432347D01*
X129260525Y-72460525D01*
X129232347Y-72494860D01*
X126327208Y-75400000D01*
X124155793Y-75400000D01*
X124023569Y-75413023D01*
X123853919Y-75464486D01*
X123697568Y-75548057D01*
X123560525Y-75660525D01*
X123448057Y-75797568D01*
X123364486Y-75953919D01*
X123313023Y-76123569D01*
X123295646Y-76300000D01*
X123313023Y-76476431D01*
X123364486Y-76646081D01*
X123446757Y-76800000D01*
X120187337Y-76800000D01*
X120140784Y-76768894D01*
X119990644Y-76706704D01*
X119831255Y-76675000D01*
X119668745Y-76675000D01*
X119509356Y-76706704D01*
X119359216Y-76768894D01*
X119224093Y-76859181D01*
X119109181Y-76974093D01*
X119018894Y-77109216D01*
X118956704Y-77259356D01*
X118925000Y-77418745D01*
X118925000Y-77581255D01*
X118956704Y-77740644D01*
X119018894Y-77890784D01*
X119109181Y-78025907D01*
X119224093Y-78140819D01*
X119359216Y-78231106D01*
X119509356Y-78293296D01*
X119668745Y-78325000D01*
X119831255Y-78325000D01*
X119990644Y-78293296D01*
X120140784Y-78231106D01*
X120275907Y-78140819D01*
X120316726Y-78100000D01*
X121775052Y-78100000D01*
X121768894Y-78109216D01*
X121706704Y-78259356D01*
X121675000Y-78418745D01*
X121675000Y-78581255D01*
X121706704Y-78740644D01*
X121731290Y-78800000D01*
X119219239Y-78800000D01*
X119071776Y-78652538D01*
X119043296Y-78509356D01*
X118981106Y-78359216D01*
X118890819Y-78224093D01*
X118775907Y-78109181D01*
X118640784Y-78018894D01*
X118490644Y-77956704D01*
X118331255Y-77925000D01*
X118168745Y-77925000D01*
X118009356Y-77956704D01*
X117859216Y-78018894D01*
X117724093Y-78109181D01*
X117609181Y-78224093D01*
X117518894Y-78359216D01*
X117456704Y-78509356D01*
X117425000Y-78668745D01*
X117425000Y-78831255D01*
X117456704Y-78990644D01*
X117518894Y-79140784D01*
X117609181Y-79275907D01*
X117724093Y-79390819D01*
X117859216Y-79481106D01*
X118009356Y-79543296D01*
X118152538Y-79571776D01*
X118467802Y-79887041D01*
X118488157Y-79911843D01*
X118512957Y-79932196D01*
X118512959Y-79932198D01*
X118543084Y-79956921D01*
X118587132Y-79993070D01*
X118587497Y-79993265D01*
X113312929Y-85267833D01*
X113288124Y-85288190D01*
X113267769Y-85312993D01*
X113206897Y-85387165D01*
X113162419Y-85470378D01*
X113146540Y-85500086D01*
X113109372Y-85622612D01*
X113099967Y-85718102D01*
X113099967Y-85718112D01*
X113096823Y-85750033D01*
X113099967Y-85781955D01*
X113099968Y-90418035D01*
X113096823Y-90449967D01*
X113109373Y-90577389D01*
X113146540Y-90699914D01*
X113206897Y-90812835D01*
X113267769Y-90887007D01*
X113267772Y-90887010D01*
X113288125Y-90911810D01*
X113312924Y-90932162D01*
X117350000Y-94969239D01*
X117350001Y-103757938D01*
X114162940Y-106945000D01*
X114138135Y-106965357D01*
X114117780Y-106990160D01*
X114056908Y-107064332D01*
X114021217Y-107131106D01*
X113996551Y-107177253D01*
X113959383Y-107299779D01*
X113949978Y-107395269D01*
X113949978Y-107395279D01*
X113946834Y-107427200D01*
X113949978Y-107459122D01*
X113949979Y-111430741D01*
X111250000Y-108730762D01*
X111250000Y-103001925D01*
X111306914Y-103048633D01*
X111398119Y-103097383D01*
X111497082Y-103127403D01*
X111600000Y-103137540D01*
X112449998Y-103137540D01*
X112449999Y-104287832D01*
X112368892Y-104409216D01*
X112306702Y-104559356D01*
X112274998Y-104718745D01*
X112274998Y-104881255D01*
X112306702Y-105040644D01*
X112368892Y-105190784D01*
X112459179Y-105325907D01*
X112574091Y-105440819D01*
X112709214Y-105531106D01*
X112859354Y-105593296D01*
X113018743Y-105625000D01*
X113181253Y-105625000D01*
X113340642Y-105593296D01*
X113490782Y-105531106D01*
X113625905Y-105440819D01*
X113740817Y-105325907D01*
X113831104Y-105190784D01*
X113893294Y-105040644D01*
X113924998Y-104881255D01*
X113924998Y-104718745D01*
X113893294Y-104559356D01*
X113831104Y-104409216D01*
X113749998Y-104287833D01*
X113749998Y-103137540D01*
X115250000Y-103137540D01*
X115352918Y-103127403D01*
X115451881Y-103097383D01*
X115543086Y-103048633D01*
X115623027Y-102983027D01*
X115688633Y-102903086D01*
X115737383Y-102811881D01*
X115767403Y-102712918D01*
X115777540Y-102610000D01*
X115777540Y-101610000D01*
X115767403Y-101507082D01*
X115737383Y-101408119D01*
X115688633Y-101316914D01*
X115623027Y-101236973D01*
X115543086Y-101171367D01*
X115451881Y-101122617D01*
X115352918Y-101092597D01*
X115250000Y-101082460D01*
X111600000Y-101082460D01*
X111497082Y-101092597D01*
X111425000Y-101114463D01*
X111425000Y-101018745D01*
X111393296Y-100859356D01*
X111331106Y-100709216D01*
X111240819Y-100574093D01*
X111125907Y-100459181D01*
X110990784Y-100368894D01*
X110840644Y-100306704D01*
X110681255Y-100275000D01*
X110518745Y-100275000D01*
X110359356Y-100306704D01*
X110209216Y-100368894D01*
X110074093Y-100459181D01*
X109959181Y-100574093D01*
X109868894Y-100709216D01*
X109806704Y-100859356D01*
X109775000Y-101018745D01*
X109775000Y-101181255D01*
X109806704Y-101340644D01*
X109868894Y-101490784D01*
X109950001Y-101612168D01*
X109950000Y-108330762D01*
X109225000Y-107605762D01*
X109225000Y-103135078D01*
X109302918Y-103127403D01*
X109401881Y-103097383D01*
X109493086Y-103048633D01*
X109573027Y-102983027D01*
X109638633Y-102903086D01*
X109687383Y-102811881D01*
X109717403Y-102712918D01*
X109727540Y-102610000D01*
X109727540Y-101610000D01*
X109717403Y-101507082D01*
X109687383Y-101408119D01*
X109638633Y-101316914D01*
X109573027Y-101236973D01*
X109493086Y-101171367D01*
X109401881Y-101122617D01*
X109302918Y-101092597D01*
X109200000Y-101082460D01*
X105550000Y-101082460D01*
X105447082Y-101092597D01*
X105350000Y-101122046D01*
X105350000Y-100557954D01*
X105447082Y-100587403D01*
X105550000Y-100597540D01*
X109200000Y-100597540D01*
X109302918Y-100587403D01*
X109401881Y-100557383D01*
X109493086Y-100508633D01*
X109573027Y-100443027D01*
X109638633Y-100363086D01*
X109687383Y-100271881D01*
X109717403Y-100172918D01*
X109727540Y-100070000D01*
X109727540Y-100050000D01*
X109787833Y-100050000D01*
X109909216Y-100131106D01*
X110059356Y-100193296D01*
X110218745Y-100225000D01*
X110381255Y-100225000D01*
X110540644Y-100193296D01*
X110690784Y-100131106D01*
X110825907Y-100040819D01*
X110940819Y-99925907D01*
X111031106Y-99790784D01*
X111093296Y-99640644D01*
X111125000Y-99481255D01*
X111125000Y-99318745D01*
X111093296Y-99159356D01*
X111031106Y-99009216D01*
X110940819Y-98874093D01*
X110825907Y-98759181D01*
X110690784Y-98668894D01*
X110540644Y-98606704D01*
X110381255Y-98575000D01*
X110218745Y-98575000D01*
X110059356Y-98606704D01*
X109909216Y-98668894D01*
X109787833Y-98750000D01*
X109616545Y-98750000D01*
X109573027Y-98696973D01*
X109493086Y-98631367D01*
X109401881Y-98582617D01*
X109302918Y-98552597D01*
X109200000Y-98542460D01*
X105550000Y-98542460D01*
X105447082Y-98552597D01*
X105350000Y-98582046D01*
X105350000Y-95869238D01*
X105701698Y-95517540D01*
X109200000Y-95517540D01*
X109302918Y-95507403D01*
X109401881Y-95477383D01*
X109493086Y-95428633D01*
X109573027Y-95363027D01*
X109638633Y-95283086D01*
X109687383Y-95191881D01*
X109717403Y-95092918D01*
X109727540Y-94990000D01*
X109727540Y-94050000D01*
X110690762Y-94050000D01*
X111072460Y-94431698D01*
X111072460Y-94990000D01*
X111082597Y-95092918D01*
X111099913Y-95150000D01*
X110812167Y-95150000D01*
X110690784Y-95068894D01*
X110540644Y-95006704D01*
X110381255Y-94975000D01*
X110218745Y-94975000D01*
X110059356Y-95006704D01*
X109909216Y-95068894D01*
X109774093Y-95159181D01*
X109659181Y-95274093D01*
X109568894Y-95409216D01*
X109506704Y-95559356D01*
X109475000Y-95718745D01*
X109475000Y-95881255D01*
X109506704Y-96040644D01*
X109568894Y-96190784D01*
X109659181Y-96325907D01*
X109774093Y-96440819D01*
X109909216Y-96531106D01*
X110059356Y-96593296D01*
X110218745Y-96625000D01*
X110381255Y-96625000D01*
X110540644Y-96593296D01*
X110690784Y-96531106D01*
X110812167Y-96450000D01*
X111080340Y-96450000D01*
X111072460Y-96530000D01*
X111072460Y-97530000D01*
X111082597Y-97632918D01*
X111112617Y-97731881D01*
X111161367Y-97823086D01*
X111226973Y-97903027D01*
X111306914Y-97968633D01*
X111398119Y-98017383D01*
X111497082Y-98047403D01*
X111600000Y-98057540D01*
X115250000Y-98057540D01*
X115352918Y-98047403D01*
X115451881Y-98017383D01*
X115543086Y-97968633D01*
X115623027Y-97903027D01*
X115688633Y-97823086D01*
X115737383Y-97731881D01*
X115767403Y-97632918D01*
X115777540Y-97530000D01*
X115777540Y-96530000D01*
X115767403Y-96427082D01*
X115737383Y-96328119D01*
X115688633Y-96236914D01*
X115623027Y-96156973D01*
X115543086Y-96091367D01*
X115451881Y-96042617D01*
X115352918Y-96012597D01*
X115250000Y-96002460D01*
X113516698Y-96002460D01*
X113031778Y-95517540D01*
X115250000Y-95517540D01*
X115352918Y-95507403D01*
X115451881Y-95477383D01*
X115543086Y-95428633D01*
X115623027Y-95363027D01*
X115688633Y-95283086D01*
X115737383Y-95191881D01*
X115767403Y-95092918D01*
X115777540Y-94990000D01*
X115777540Y-93990000D01*
X115767403Y-93887082D01*
X115737383Y-93788119D01*
X115688633Y-93696914D01*
X115623027Y-93616973D01*
X115543086Y-93551367D01*
X115451881Y-93502617D01*
X115352918Y-93472597D01*
X115250000Y-93462460D01*
X111941698Y-93462460D01*
X111442200Y-92962962D01*
X111421843Y-92938157D01*
X111322868Y-92856930D01*
X111209948Y-92796573D01*
X111087422Y-92759405D01*
X110991932Y-92750000D01*
X110991921Y-92750000D01*
X110960000Y-92746856D01*
X110928079Y-92750000D01*
X105431920Y-92750000D01*
X105399999Y-92746856D01*
X105368078Y-92750000D01*
X105368068Y-92750000D01*
X105272578Y-92759405D01*
X105150052Y-92796573D01*
X105037132Y-92856930D01*
X105037130Y-92856931D01*
X105037131Y-92856931D01*
X104962959Y-92917802D01*
X104962957Y-92917804D01*
X104938157Y-92938157D01*
X104917804Y-92962957D01*
X103762957Y-94117805D01*
X103738158Y-94138157D01*
X103717805Y-94162957D01*
X103717802Y-94162960D01*
X103656930Y-94237132D01*
X103596573Y-94350053D01*
X103559406Y-94472578D01*
X103546856Y-94600000D01*
X102156408Y-94600000D01*
X102211201Y-94096191D01*
X102504568Y-92489045D01*
X102567421Y-92531043D01*
X102717561Y-92593233D01*
X102876950Y-92624937D01*
X103039460Y-92624937D01*
X103198849Y-92593233D01*
X103348989Y-92531043D01*
X103484112Y-92440756D01*
X103599024Y-92325844D01*
X103689311Y-92190721D01*
X103751501Y-92040581D01*
X103783205Y-91881192D01*
X103783205Y-91718682D01*
X103751501Y-91559293D01*
X103689311Y-91409153D01*
X103599024Y-91274030D01*
X103484112Y-91159118D01*
X103348989Y-91068831D01*
X103198849Y-91006641D01*
X103039460Y-90974937D01*
X102876950Y-90974937D01*
X102855406Y-90979222D01*
X103138811Y-89882017D01*
X103828162Y-87836094D01*
X104224532Y-86891258D01*
X104274093Y-86940819D01*
X104409216Y-87031106D01*
X104559356Y-87093296D01*
X104718745Y-87125000D01*
X104881255Y-87125000D01*
X105040644Y-87093296D01*
X105190784Y-87031106D01*
X105325907Y-86940819D01*
X105440819Y-86825907D01*
X105531106Y-86690784D01*
X105593296Y-86540644D01*
X105625000Y-86381255D01*
X105625000Y-86218745D01*
X105593296Y-86059356D01*
X105531106Y-85909216D01*
X105440819Y-85774093D01*
X105325907Y-85659181D01*
X105190784Y-85568894D01*
X105040644Y-85506704D01*
X104881255Y-85475000D01*
X104851155Y-85475000D01*
X105640008Y-83919854D01*
X106753056Y-82069954D01*
X106995298Y-81726203D01*
X107038571Y-81790966D01*
X107153483Y-81905878D01*
X107288606Y-81996165D01*
X107438746Y-82058355D01*
X107598135Y-82090059D01*
X107760645Y-82090059D01*
X107920034Y-82058355D01*
X108070174Y-81996165D01*
X108205297Y-81905878D01*
X108320209Y-81790966D01*
X108410496Y-81655843D01*
X108472686Y-81505703D01*
X108504390Y-81346314D01*
X108504390Y-81183804D01*
X108472686Y-81024415D01*
X108410496Y-80874275D01*
X108320209Y-80739152D01*
X108205297Y-80624240D01*
X108070174Y-80533953D01*
X107920034Y-80471763D01*
X107884311Y-80464657D01*
X107996687Y-80305192D01*
X109364417Y-78634767D01*
X110722270Y-77201299D01*
X110754616Y-77279389D01*
X110844903Y-77414512D01*
X110959815Y-77529424D01*
X111094938Y-77619711D01*
X111245078Y-77681901D01*
X111404467Y-77713605D01*
X111566977Y-77713605D01*
X111726366Y-77681901D01*
X111876506Y-77619711D01*
X112011629Y-77529424D01*
X112126541Y-77414512D01*
X112216828Y-77279389D01*
X112279018Y-77129249D01*
X112310722Y-76969860D01*
X112310722Y-76807350D01*
X112279018Y-76647961D01*
X112216828Y-76497821D01*
X112126541Y-76362698D01*
X112011629Y-76247786D01*
X111876506Y-76157499D01*
X111854892Y-76148546D01*
X112443044Y-75611230D01*
X114137890Y-74273880D01*
X115265479Y-73509356D01*
X115279424Y-73579465D01*
X115341614Y-73729605D01*
X115431901Y-73864728D01*
X115546813Y-73979640D01*
X115681936Y-74069927D01*
X115832076Y-74132117D01*
X115991465Y-74163821D01*
X116153975Y-74163821D01*
X116313364Y-74132117D01*
X116463504Y-74069927D01*
X116598627Y-73979640D01*
X116713539Y-73864728D01*
X116803826Y-73729605D01*
X116866016Y-73579465D01*
X116897720Y-73420076D01*
X116897720Y-73257566D01*
X116866016Y-73098177D01*
X116803826Y-72948037D01*
X116713539Y-72812914D01*
X116598627Y-72698002D01*
X116578785Y-72684744D01*
X117794511Y-71982845D01*
X119737222Y-71041104D01*
X120439109Y-70761447D01*
X120439109Y-70833380D01*
X120470813Y-70992769D01*
X120533003Y-71142909D01*
X120623290Y-71278032D01*
X120738202Y-71392944D01*
X120873325Y-71483231D01*
X121023465Y-71545421D01*
X121182854Y-71577125D01*
X121345364Y-71577125D01*
X121504753Y-71545421D01*
X121654893Y-71483231D01*
X121790016Y-71392944D01*
X121904928Y-71278032D01*
X121995215Y-71142909D01*
X122057405Y-70992769D01*
X122089109Y-70833380D01*
X122089109Y-70670870D01*
X122057405Y-70511481D01*
X121995215Y-70361341D01*
X121904928Y-70226218D01*
X121877897Y-70199187D01*
X123800859Y-69589697D01*
X125900598Y-69087599D01*
X126052075Y-69062766D01*
X126035386Y-69146666D01*
X126035386Y-69309176D01*
X126067090Y-69468565D01*
X126129280Y-69618705D01*
X126219567Y-69753828D01*
X126334479Y-69868740D01*
X126469602Y-69959027D01*
X126619742Y-70021217D01*
X126779131Y-70052921D01*
X126941641Y-70052921D01*
X127101030Y-70021217D01*
X127251170Y-69959027D01*
X127386293Y-69868740D01*
X127501205Y-69753828D01*
X127591492Y-69618705D01*
X127653682Y-69468565D01*
X127685386Y-69309176D01*
X127685386Y-69146666D01*
X127653682Y-68987277D01*
X127591492Y-68837137D01*
X127575385Y-68813032D01*
X128031093Y-68738322D01*
X130181238Y-68543687D01*
X131882676Y-68512964D01*
X131853194Y-68584139D01*
G37*
%TD.AperFunction*%
M02*
