%TF.GenerationSoftware,KiCad,Pcbnew,(5.1.9)-1*%
%TF.CreationDate,2021-08-01T23:03:51+02:00*%
%TF.ProjectId,Wheel_ECU,57686565-6c5f-4454-9355-2e6b69636164,1.0*%
%TF.SameCoordinates,Original*%
%TF.FileFunction,Paste,Bot*%
%TF.FilePolarity,Positive*%
%FSLAX46Y46*%
G04 Gerber Fmt 4.6, Leading zero omitted, Abs format (unit mm)*
G04 Created by KiCad (PCBNEW (5.1.9)-1) date 2021-08-01 23:03:51*
%MOMM*%
%LPD*%
G01*
G04 APERTURE LIST*
%ADD10C,0.100000*%
%ADD11R,1.500000X1.250000*%
%ADD12R,1.250000X1.500000*%
%ADD13R,2.000000X0.650000*%
G04 APERTURE END LIST*
D10*
G36*
X131034567Y-123809798D02*
G01*
X131246699Y-124021930D01*
X129832485Y-125436144D01*
X129620353Y-125224012D01*
X131034567Y-123809798D01*
G37*
G36*
X138034924Y-118718629D02*
G01*
X138247056Y-118506497D01*
X139661270Y-119920711D01*
X139449138Y-120132843D01*
X138034924Y-118718629D01*
G37*
G36*
X134145837Y-110091926D02*
G01*
X134357969Y-110304058D01*
X132943755Y-111718272D01*
X132731623Y-111506140D01*
X134145837Y-110091926D01*
G37*
G36*
X124317052Y-115607359D02*
G01*
X124529184Y-115395227D01*
X125943398Y-116809441D01*
X125731266Y-117021573D01*
X124317052Y-115607359D01*
G37*
G36*
X124670606Y-115253806D02*
G01*
X124882738Y-115041674D01*
X126296952Y-116455888D01*
X126084820Y-116668020D01*
X124670606Y-115253806D01*
G37*
G36*
X125024159Y-114900252D02*
G01*
X125236291Y-114688120D01*
X126650505Y-116102334D01*
X126438373Y-116314466D01*
X125024159Y-114900252D01*
G37*
G36*
X125377712Y-114546699D02*
G01*
X125589844Y-114334567D01*
X127004058Y-115748781D01*
X126791926Y-115960913D01*
X125377712Y-114546699D01*
G37*
G36*
X125731266Y-114193146D02*
G01*
X125943398Y-113981014D01*
X127357612Y-115395228D01*
X127145480Y-115607360D01*
X125731266Y-114193146D01*
G37*
G36*
X126084819Y-113839592D02*
G01*
X126296951Y-113627460D01*
X127711165Y-115041674D01*
X127499033Y-115253806D01*
X126084819Y-113839592D01*
G37*
G36*
X126438373Y-113486039D02*
G01*
X126650505Y-113273907D01*
X128064719Y-114688121D01*
X127852587Y-114900253D01*
X126438373Y-113486039D01*
G37*
G36*
X126791926Y-113132485D02*
G01*
X127004058Y-112920353D01*
X128418272Y-114334567D01*
X128206140Y-114546699D01*
X126791926Y-113132485D01*
G37*
G36*
X127145479Y-112778932D02*
G01*
X127357611Y-112566800D01*
X128771825Y-113981014D01*
X128559693Y-114193146D01*
X127145479Y-112778932D01*
G37*
G36*
X127499033Y-112425379D02*
G01*
X127711165Y-112213247D01*
X129125379Y-113627461D01*
X128913247Y-113839593D01*
X127499033Y-112425379D01*
G37*
G36*
X127852586Y-112071825D02*
G01*
X128064718Y-111859693D01*
X129478932Y-113273907D01*
X129266800Y-113486039D01*
X127852586Y-112071825D01*
G37*
G36*
X128206140Y-111718272D02*
G01*
X128418272Y-111506140D01*
X129832486Y-112920354D01*
X129620354Y-113132486D01*
X128206140Y-111718272D01*
G37*
G36*
X128559693Y-111364718D02*
G01*
X128771825Y-111152586D01*
X130186039Y-112566800D01*
X129973907Y-112778932D01*
X128559693Y-111364718D01*
G37*
G36*
X128913246Y-111011165D02*
G01*
X129125378Y-110799033D01*
X130539592Y-112213247D01*
X130327460Y-112425379D01*
X128913246Y-111011165D01*
G37*
G36*
X129266800Y-110657612D02*
G01*
X129478932Y-110445480D01*
X130893146Y-111859694D01*
X130681014Y-112071826D01*
X129266800Y-110657612D01*
G37*
G36*
X129620353Y-110304058D02*
G01*
X129832485Y-110091926D01*
X131246699Y-111506140D01*
X131034567Y-111718272D01*
X129620353Y-110304058D01*
G37*
G36*
X134499390Y-110445480D02*
G01*
X134711522Y-110657612D01*
X133297308Y-112071826D01*
X133085176Y-111859694D01*
X134499390Y-110445480D01*
G37*
G36*
X134852944Y-110799033D02*
G01*
X135065076Y-111011165D01*
X133650862Y-112425379D01*
X133438730Y-112213247D01*
X134852944Y-110799033D01*
G37*
G36*
X135206497Y-111152586D02*
G01*
X135418629Y-111364718D01*
X134004415Y-112778932D01*
X133792283Y-112566800D01*
X135206497Y-111152586D01*
G37*
G36*
X135560050Y-111506140D02*
G01*
X135772182Y-111718272D01*
X134357968Y-113132486D01*
X134145836Y-112920354D01*
X135560050Y-111506140D01*
G37*
G36*
X135913604Y-111859693D02*
G01*
X136125736Y-112071825D01*
X134711522Y-113486039D01*
X134499390Y-113273907D01*
X135913604Y-111859693D01*
G37*
G36*
X136267157Y-112213247D02*
G01*
X136479289Y-112425379D01*
X135065075Y-113839593D01*
X134852943Y-113627461D01*
X136267157Y-112213247D01*
G37*
G36*
X136620711Y-112566800D02*
G01*
X136832843Y-112778932D01*
X135418629Y-114193146D01*
X135206497Y-113981014D01*
X136620711Y-112566800D01*
G37*
G36*
X136974264Y-112920353D02*
G01*
X137186396Y-113132485D01*
X135772182Y-114546699D01*
X135560050Y-114334567D01*
X136974264Y-112920353D01*
G37*
G36*
X137327817Y-113273907D02*
G01*
X137539949Y-113486039D01*
X136125735Y-114900253D01*
X135913603Y-114688121D01*
X137327817Y-113273907D01*
G37*
G36*
X137681371Y-113627460D02*
G01*
X137893503Y-113839592D01*
X136479289Y-115253806D01*
X136267157Y-115041674D01*
X137681371Y-113627460D01*
G37*
G36*
X138034924Y-113981014D02*
G01*
X138247056Y-114193146D01*
X136832842Y-115607360D01*
X136620710Y-115395228D01*
X138034924Y-113981014D01*
G37*
G36*
X138388478Y-114334567D02*
G01*
X138600610Y-114546699D01*
X137186396Y-115960913D01*
X136974264Y-115748781D01*
X138388478Y-114334567D01*
G37*
G36*
X138742031Y-114688120D02*
G01*
X138954163Y-114900252D01*
X137539949Y-116314466D01*
X137327817Y-116102334D01*
X138742031Y-114688120D01*
G37*
G36*
X139095584Y-115041674D02*
G01*
X139307716Y-115253806D01*
X137893502Y-116668020D01*
X137681370Y-116455888D01*
X139095584Y-115041674D01*
G37*
G36*
X139449138Y-115395227D02*
G01*
X139661270Y-115607359D01*
X138247056Y-117021573D01*
X138034924Y-116809441D01*
X139449138Y-115395227D01*
G37*
G36*
X130681014Y-123456244D02*
G01*
X130893146Y-123668376D01*
X129478932Y-125082590D01*
X129266800Y-124870458D01*
X130681014Y-123456244D01*
G37*
G36*
X130327460Y-123102691D02*
G01*
X130539592Y-123314823D01*
X129125378Y-124729037D01*
X128913246Y-124516905D01*
X130327460Y-123102691D01*
G37*
G36*
X129973907Y-122749138D02*
G01*
X130186039Y-122961270D01*
X128771825Y-124375484D01*
X128559693Y-124163352D01*
X129973907Y-122749138D01*
G37*
G36*
X129620354Y-122395584D02*
G01*
X129832486Y-122607716D01*
X128418272Y-124021930D01*
X128206140Y-123809798D01*
X129620354Y-122395584D01*
G37*
G36*
X129266800Y-122042031D02*
G01*
X129478932Y-122254163D01*
X128064718Y-123668377D01*
X127852586Y-123456245D01*
X129266800Y-122042031D01*
G37*
G36*
X128913247Y-121688477D02*
G01*
X129125379Y-121900609D01*
X127711165Y-123314823D01*
X127499033Y-123102691D01*
X128913247Y-121688477D01*
G37*
G36*
X128559693Y-121334924D02*
G01*
X128771825Y-121547056D01*
X127357611Y-122961270D01*
X127145479Y-122749138D01*
X128559693Y-121334924D01*
G37*
G36*
X128206140Y-120981371D02*
G01*
X128418272Y-121193503D01*
X127004058Y-122607717D01*
X126791926Y-122395585D01*
X128206140Y-120981371D01*
G37*
G36*
X127852587Y-120627817D02*
G01*
X128064719Y-120839949D01*
X126650505Y-122254163D01*
X126438373Y-122042031D01*
X127852587Y-120627817D01*
G37*
G36*
X127499033Y-120274264D02*
G01*
X127711165Y-120486396D01*
X126296951Y-121900610D01*
X126084819Y-121688478D01*
X127499033Y-120274264D01*
G37*
G36*
X127145480Y-119920710D02*
G01*
X127357612Y-120132842D01*
X125943398Y-121547056D01*
X125731266Y-121334924D01*
X127145480Y-119920710D01*
G37*
G36*
X126791926Y-119567157D02*
G01*
X127004058Y-119779289D01*
X125589844Y-121193503D01*
X125377712Y-120981371D01*
X126791926Y-119567157D01*
G37*
G36*
X126438373Y-119213604D02*
G01*
X126650505Y-119425736D01*
X125236291Y-120839950D01*
X125024159Y-120627818D01*
X126438373Y-119213604D01*
G37*
G36*
X126084820Y-118860050D02*
G01*
X126296952Y-119072182D01*
X124882738Y-120486396D01*
X124670606Y-120274264D01*
X126084820Y-118860050D01*
G37*
G36*
X125731266Y-118506497D02*
G01*
X125943398Y-118718629D01*
X124529184Y-120132843D01*
X124317052Y-119920711D01*
X125731266Y-118506497D01*
G37*
G36*
X137681370Y-119072182D02*
G01*
X137893502Y-118860050D01*
X139307716Y-120274264D01*
X139095584Y-120486396D01*
X137681370Y-119072182D01*
G37*
G36*
X137327817Y-119425736D02*
G01*
X137539949Y-119213604D01*
X138954163Y-120627818D01*
X138742031Y-120839950D01*
X137327817Y-119425736D01*
G37*
G36*
X136974264Y-119779289D02*
G01*
X137186396Y-119567157D01*
X138600610Y-120981371D01*
X138388478Y-121193503D01*
X136974264Y-119779289D01*
G37*
G36*
X136620710Y-120132842D02*
G01*
X136832842Y-119920710D01*
X138247056Y-121334924D01*
X138034924Y-121547056D01*
X136620710Y-120132842D01*
G37*
G36*
X136267157Y-120486396D02*
G01*
X136479289Y-120274264D01*
X137893503Y-121688478D01*
X137681371Y-121900610D01*
X136267157Y-120486396D01*
G37*
G36*
X135913603Y-120839949D02*
G01*
X136125735Y-120627817D01*
X137539949Y-122042031D01*
X137327817Y-122254163D01*
X135913603Y-120839949D01*
G37*
G36*
X135560050Y-121193503D02*
G01*
X135772182Y-120981371D01*
X137186396Y-122395585D01*
X136974264Y-122607717D01*
X135560050Y-121193503D01*
G37*
G36*
X135206497Y-121547056D02*
G01*
X135418629Y-121334924D01*
X136832843Y-122749138D01*
X136620711Y-122961270D01*
X135206497Y-121547056D01*
G37*
G36*
X134852943Y-121900609D02*
G01*
X135065075Y-121688477D01*
X136479289Y-123102691D01*
X136267157Y-123314823D01*
X134852943Y-121900609D01*
G37*
G36*
X134499390Y-122254163D02*
G01*
X134711522Y-122042031D01*
X136125736Y-123456245D01*
X135913604Y-123668377D01*
X134499390Y-122254163D01*
G37*
G36*
X134145836Y-122607716D02*
G01*
X134357968Y-122395584D01*
X135772182Y-123809798D01*
X135560050Y-124021930D01*
X134145836Y-122607716D01*
G37*
G36*
X133792283Y-122961270D02*
G01*
X134004415Y-122749138D01*
X135418629Y-124163352D01*
X135206497Y-124375484D01*
X133792283Y-122961270D01*
G37*
G36*
X133438730Y-123314823D02*
G01*
X133650862Y-123102691D01*
X135065076Y-124516905D01*
X134852944Y-124729037D01*
X133438730Y-123314823D01*
G37*
G36*
X133085176Y-123668376D02*
G01*
X133297308Y-123456244D01*
X134711522Y-124870458D01*
X134499390Y-125082590D01*
X133085176Y-123668376D01*
G37*
G36*
X132731623Y-124021930D02*
G01*
X132943755Y-123809798D01*
X134357969Y-125224012D01*
X134145837Y-125436144D01*
X132731623Y-124021930D01*
G37*
D11*
X131500000Y-86000000D03*
X134000000Y-86000000D03*
D12*
X115100000Y-105450000D03*
X115100000Y-102950000D03*
D10*
G36*
X140127729Y-123856155D02*
G01*
X139243845Y-122972271D01*
X140304505Y-121911611D01*
X141188389Y-122795495D01*
X140127729Y-123856155D01*
G37*
G36*
X141895495Y-122088389D02*
G01*
X141011611Y-121204505D01*
X142072271Y-120143845D01*
X142956155Y-121027729D01*
X141895495Y-122088389D01*
G37*
D13*
X114640000Y-99500000D03*
X114640000Y-97600000D03*
X118060000Y-98550000D03*
D10*
G36*
X128427729Y-108856155D02*
G01*
X127543845Y-107972271D01*
X128604505Y-106911611D01*
X129488389Y-107795495D01*
X128427729Y-108856155D01*
G37*
G36*
X130195495Y-107088389D02*
G01*
X129311611Y-106204505D01*
X130372271Y-105143845D01*
X131256155Y-106027729D01*
X130195495Y-107088389D01*
G37*
G36*
X124256155Y-122172271D02*
G01*
X123372271Y-123056155D01*
X122311611Y-121995495D01*
X123195495Y-121111611D01*
X124256155Y-122172271D01*
G37*
G36*
X122488389Y-120404505D02*
G01*
X121604505Y-121288389D01*
X120543845Y-120227729D01*
X121427729Y-119343845D01*
X122488389Y-120404505D01*
G37*
D11*
X134000000Y-89500000D03*
X131500000Y-89500000D03*
D10*
G36*
X141389949Y-88932234D02*
G01*
X142167766Y-89710051D01*
X141389949Y-90487868D01*
X140612132Y-89710051D01*
X141389949Y-88932234D01*
G37*
G36*
X139410051Y-90912132D02*
G01*
X140187868Y-91689949D01*
X139410051Y-92467766D01*
X138632234Y-91689949D01*
X139410051Y-90912132D01*
G37*
D11*
X123850000Y-74300000D03*
X126350000Y-74300000D03*
X136850000Y-74300000D03*
X139350000Y-74300000D03*
X139100000Y-80500000D03*
X141600000Y-80500000D03*
X141650000Y-83900000D03*
X139150000Y-83900000D03*
D10*
G36*
X148410051Y-91667766D02*
G01*
X147632234Y-90889949D01*
X148410051Y-90112132D01*
X149187868Y-90889949D01*
X148410051Y-91667766D01*
G37*
G36*
X150389949Y-89687868D02*
G01*
X149612132Y-88910051D01*
X150389949Y-88132234D01*
X151167766Y-88910051D01*
X150389949Y-89687868D01*
G37*
G36*
G01*
X119250000Y-106355000D02*
X119250000Y-106055000D01*
G75*
G02*
X119400000Y-105905000I150000J0D01*
G01*
X121050000Y-105905000D01*
G75*
G02*
X121200000Y-106055000I0J-150000D01*
G01*
X121200000Y-106355000D01*
G75*
G02*
X121050000Y-106505000I-150000J0D01*
G01*
X119400000Y-106505000D01*
G75*
G02*
X119250000Y-106355000I0J150000D01*
G01*
G37*
G36*
G01*
X119250000Y-105085000D02*
X119250000Y-104785000D01*
G75*
G02*
X119400000Y-104635000I150000J0D01*
G01*
X121050000Y-104635000D01*
G75*
G02*
X121200000Y-104785000I0J-150000D01*
G01*
X121200000Y-105085000D01*
G75*
G02*
X121050000Y-105235000I-150000J0D01*
G01*
X119400000Y-105235000D01*
G75*
G02*
X119250000Y-105085000I0J150000D01*
G01*
G37*
G36*
G01*
X119250000Y-103815000D02*
X119250000Y-103515000D01*
G75*
G02*
X119400000Y-103365000I150000J0D01*
G01*
X121050000Y-103365000D01*
G75*
G02*
X121200000Y-103515000I0J-150000D01*
G01*
X121200000Y-103815000D01*
G75*
G02*
X121050000Y-103965000I-150000J0D01*
G01*
X119400000Y-103965000D01*
G75*
G02*
X119250000Y-103815000I0J150000D01*
G01*
G37*
G36*
G01*
X119250000Y-102545000D02*
X119250000Y-102245000D01*
G75*
G02*
X119400000Y-102095000I150000J0D01*
G01*
X121050000Y-102095000D01*
G75*
G02*
X121200000Y-102245000I0J-150000D01*
G01*
X121200000Y-102545000D01*
G75*
G02*
X121050000Y-102695000I-150000J0D01*
G01*
X119400000Y-102695000D01*
G75*
G02*
X119250000Y-102545000I0J150000D01*
G01*
G37*
G36*
G01*
X124200000Y-102545000D02*
X124200000Y-102245000D01*
G75*
G02*
X124350000Y-102095000I150000J0D01*
G01*
X126000000Y-102095000D01*
G75*
G02*
X126150000Y-102245000I0J-150000D01*
G01*
X126150000Y-102545000D01*
G75*
G02*
X126000000Y-102695000I-150000J0D01*
G01*
X124350000Y-102695000D01*
G75*
G02*
X124200000Y-102545000I0J150000D01*
G01*
G37*
G36*
G01*
X124200000Y-103815000D02*
X124200000Y-103515000D01*
G75*
G02*
X124350000Y-103365000I150000J0D01*
G01*
X126000000Y-103365000D01*
G75*
G02*
X126150000Y-103515000I0J-150000D01*
G01*
X126150000Y-103815000D01*
G75*
G02*
X126000000Y-103965000I-150000J0D01*
G01*
X124350000Y-103965000D01*
G75*
G02*
X124200000Y-103815000I0J150000D01*
G01*
G37*
G36*
G01*
X124200000Y-105085000D02*
X124200000Y-104785000D01*
G75*
G02*
X124350000Y-104635000I150000J0D01*
G01*
X126000000Y-104635000D01*
G75*
G02*
X126150000Y-104785000I0J-150000D01*
G01*
X126150000Y-105085000D01*
G75*
G02*
X126000000Y-105235000I-150000J0D01*
G01*
X124350000Y-105235000D01*
G75*
G02*
X124200000Y-105085000I0J150000D01*
G01*
G37*
G36*
G01*
X124200000Y-106355000D02*
X124200000Y-106055000D01*
G75*
G02*
X124350000Y-105905000I150000J0D01*
G01*
X126000000Y-105905000D01*
G75*
G02*
X126150000Y-106055000I0J-150000D01*
G01*
X126150000Y-106355000D01*
G75*
G02*
X126000000Y-106505000I-150000J0D01*
G01*
X124350000Y-106505000D01*
G75*
G02*
X124200000Y-106355000I0J150000D01*
G01*
G37*
M02*
