%TF.GenerationSoftware,KiCad,Pcbnew,(5.1.9)-1*%
%TF.CreationDate,2021-08-02T11:29:56+02:00*%
%TF.ProjectId,Wheel_ECU,57686565-6c5f-4454-9355-2e6b69636164,1.0*%
%TF.SameCoordinates,Original*%
%TF.FileFunction,Legend,Bot*%
%TF.FilePolarity,Positive*%
%FSLAX46Y46*%
G04 Gerber Fmt 4.6, Leading zero omitted, Abs format (unit mm)*
G04 Created by KiCad (PCBNEW (5.1.9)-1) date 2021-08-02 11:29:56*
%MOMM*%
%LPD*%
G01*
G04 APERTURE LIST*
%ADD10C,0.150000*%
%ADD11C,0.120000*%
%ADD12C,3.400000*%
%ADD13C,10.020000*%
G04 APERTURE END LIST*
D10*
X124670606Y-117764035D02*
X125342357Y-117092284D01*
X131989161Y-125082590D02*
X132731623Y-124340128D01*
X139307716Y-117764035D02*
X138565254Y-118506497D01*
X131989161Y-110445480D02*
X131246699Y-111187942D01*
X124670606Y-117764035D02*
X125413068Y-118506497D01*
X131989161Y-110445480D02*
X132731623Y-111187942D01*
X139307716Y-117764035D02*
X138565254Y-117021573D01*
X131989161Y-125082590D02*
X131246699Y-124340128D01*
X125342357Y-117092284D02*
X124440796Y-116190722D01*
D11*
X132250000Y-85150000D02*
X133250000Y-85150000D01*
X133250000Y-86850000D02*
X132250000Y-86850000D01*
X114250000Y-104700000D02*
X114250000Y-103700000D01*
X115950000Y-103700000D02*
X115950000Y-104700000D01*
X140145406Y-121752513D02*
X140852513Y-121045406D01*
X142054594Y-122247487D02*
X141347487Y-122954594D01*
X155245406Y-94352513D02*
X155952513Y-93645406D01*
X157154594Y-94847487D02*
X156447487Y-95554594D01*
X117280000Y-100060000D02*
X114850000Y-100060000D01*
X117300000Y-100050000D02*
X117300000Y-99050000D01*
X117300000Y-97000000D02*
X115450000Y-97000000D01*
X117300000Y-98050000D02*
X117300000Y-97000000D01*
X128445406Y-106752513D02*
X129152513Y-106045406D01*
X130354594Y-107247487D02*
X129647487Y-107954594D01*
X122152513Y-122154594D02*
X121445406Y-121447487D01*
X122647487Y-120245406D02*
X123354594Y-120952513D01*
X133250000Y-90350000D02*
X132250000Y-90350000D01*
X132250000Y-88650000D02*
X133250000Y-88650000D01*
X141248528Y-88437258D02*
X138526167Y-91159619D01*
X142662742Y-89851472D02*
X139940381Y-92573833D01*
X141248528Y-88437258D02*
X142662742Y-89851472D01*
X124600000Y-73450000D02*
X125600000Y-73450000D01*
X125600000Y-75150000D02*
X124600000Y-75150000D01*
X137600000Y-73450000D02*
X138600000Y-73450000D01*
X138600000Y-75150000D02*
X137600000Y-75150000D01*
X139850000Y-79650000D02*
X140850000Y-79650000D01*
X140850000Y-81350000D02*
X139850000Y-81350000D01*
X140900000Y-84750000D02*
X139900000Y-84750000D01*
X139900000Y-83050000D02*
X140900000Y-83050000D01*
X148551472Y-92162742D02*
X147137258Y-90748528D01*
X147137258Y-90748528D02*
X149859619Y-88026167D01*
X148551472Y-92162742D02*
X151273833Y-89440381D01*
X122700000Y-106860000D02*
X119250000Y-106860000D01*
X122700000Y-106860000D02*
X124650000Y-106860000D01*
X122700000Y-101740000D02*
X120750000Y-101740000D01*
X122700000Y-101740000D02*
X124650000Y-101740000D01*
D10*
X126451522Y-111074026D02*
X127023942Y-111646446D01*
X127057614Y-111747461D01*
X127057614Y-111814805D01*
X127023942Y-111915820D01*
X126889255Y-112050507D01*
X126788240Y-112084179D01*
X126720896Y-112084179D01*
X126619881Y-112050507D01*
X126047461Y-111478087D01*
X125778087Y-111747461D02*
X125340355Y-112185194D01*
X125845431Y-112218866D01*
X125744416Y-112319881D01*
X125710744Y-112420896D01*
X125710744Y-112488240D01*
X125744416Y-112589255D01*
X125912774Y-112757614D01*
X126013790Y-112791286D01*
X126081133Y-112791286D01*
X126182148Y-112757614D01*
X126384179Y-112555583D01*
X126417851Y-112454568D01*
X126417851Y-112387225D01*
X132916666Y-84607142D02*
X132964285Y-84654761D01*
X133107142Y-84702380D01*
X133202380Y-84702380D01*
X133345238Y-84654761D01*
X133440476Y-84559523D01*
X133488095Y-84464285D01*
X133535714Y-84273809D01*
X133535714Y-84130952D01*
X133488095Y-83940476D01*
X133440476Y-83845238D01*
X133345238Y-83750000D01*
X133202380Y-83702380D01*
X133107142Y-83702380D01*
X132964285Y-83750000D01*
X132916666Y-83797619D01*
X131964285Y-84702380D02*
X132535714Y-84702380D01*
X132250000Y-84702380D02*
X132250000Y-83702380D01*
X132345238Y-83845238D01*
X132440476Y-83940476D01*
X132535714Y-83988095D01*
X117207142Y-104033333D02*
X117254761Y-103985714D01*
X117302380Y-103842857D01*
X117302380Y-103747619D01*
X117254761Y-103604761D01*
X117159523Y-103509523D01*
X117064285Y-103461904D01*
X116873809Y-103414285D01*
X116730952Y-103414285D01*
X116540476Y-103461904D01*
X116445238Y-103509523D01*
X116350000Y-103604761D01*
X116302380Y-103747619D01*
X116302380Y-103842857D01*
X116350000Y-103985714D01*
X116397619Y-104033333D01*
X116397619Y-104414285D02*
X116350000Y-104461904D01*
X116302380Y-104557142D01*
X116302380Y-104795238D01*
X116350000Y-104890476D01*
X116397619Y-104938095D01*
X116492857Y-104985714D01*
X116588095Y-104985714D01*
X116730952Y-104938095D01*
X117302380Y-104366666D01*
X117302380Y-104985714D01*
X142707826Y-123372124D02*
X142775169Y-123372124D01*
X142909856Y-123304780D01*
X142977200Y-123237437D01*
X143044543Y-123102749D01*
X143044543Y-122968062D01*
X143010872Y-122867047D01*
X142909856Y-122698688D01*
X142808841Y-122597673D01*
X142640482Y-122496658D01*
X142539467Y-122462986D01*
X142404780Y-122462986D01*
X142270093Y-122530330D01*
X142202749Y-122597673D01*
X142135406Y-122732360D01*
X142135406Y-122799704D01*
X141832360Y-122968062D02*
X141394627Y-123405795D01*
X141899704Y-123439467D01*
X141798688Y-123540482D01*
X141765017Y-123641498D01*
X141765017Y-123708841D01*
X141798688Y-123809856D01*
X141967047Y-123978215D01*
X142068062Y-124011887D01*
X142135406Y-124011887D01*
X142236421Y-123978215D01*
X142438452Y-123776185D01*
X142472124Y-123675169D01*
X142472124Y-123607826D01*
X157870389Y-96034687D02*
X157937732Y-96034687D01*
X158072419Y-95967343D01*
X158139763Y-95900000D01*
X158207106Y-95765312D01*
X158207106Y-95630625D01*
X158173435Y-95529610D01*
X158072419Y-95361251D01*
X157971404Y-95260236D01*
X157803045Y-95159221D01*
X157702030Y-95125549D01*
X157567343Y-95125549D01*
X157432656Y-95192893D01*
X157365312Y-95260236D01*
X157297969Y-95394923D01*
X157297969Y-95462267D01*
X156590862Y-96034687D02*
X156927580Y-95697969D01*
X157297969Y-96001015D01*
X157230625Y-96001015D01*
X157129610Y-96034687D01*
X156961251Y-96203045D01*
X156927580Y-96304061D01*
X156927580Y-96371404D01*
X156961251Y-96472419D01*
X157129610Y-96640778D01*
X157230625Y-96674450D01*
X157297969Y-96674450D01*
X157398984Y-96640778D01*
X157567343Y-96472419D01*
X157601015Y-96371404D01*
X157601015Y-96304061D01*
X117061904Y-95502380D02*
X117061904Y-96311904D01*
X117014285Y-96407142D01*
X116966666Y-96454761D01*
X116871428Y-96502380D01*
X116680952Y-96502380D01*
X116585714Y-96454761D01*
X116538095Y-96407142D01*
X116490476Y-96311904D01*
X116490476Y-95502380D01*
X116061904Y-95597619D02*
X116014285Y-95550000D01*
X115919047Y-95502380D01*
X115680952Y-95502380D01*
X115585714Y-95550000D01*
X115538095Y-95597619D01*
X115490476Y-95692857D01*
X115490476Y-95788095D01*
X115538095Y-95930952D01*
X116109523Y-96502380D01*
X115490476Y-96502380D01*
X128470389Y-105834687D02*
X128537732Y-105834687D01*
X128672419Y-105767343D01*
X128739763Y-105700000D01*
X128807106Y-105565312D01*
X128807106Y-105430625D01*
X128773435Y-105329610D01*
X128672419Y-105161251D01*
X128571404Y-105060236D01*
X128403045Y-104959221D01*
X128302030Y-104925549D01*
X128167343Y-104925549D01*
X128032656Y-104992893D01*
X127965312Y-105060236D01*
X127897969Y-105194923D01*
X127897969Y-105262267D01*
X127729610Y-105902030D02*
X127763282Y-105801015D01*
X127763282Y-105733671D01*
X127729610Y-105632656D01*
X127695938Y-105598984D01*
X127594923Y-105565312D01*
X127527580Y-105565312D01*
X127426564Y-105598984D01*
X127291877Y-105733671D01*
X127258206Y-105834687D01*
X127258206Y-105902030D01*
X127291877Y-106003045D01*
X127325549Y-106036717D01*
X127426564Y-106070389D01*
X127493908Y-106070389D01*
X127594923Y-106036717D01*
X127729610Y-105902030D01*
X127830625Y-105868358D01*
X127897969Y-105868358D01*
X127998984Y-105902030D01*
X128133671Y-106036717D01*
X128167343Y-106137732D01*
X128167343Y-106205076D01*
X128133671Y-106306091D01*
X127998984Y-106440778D01*
X127897969Y-106474450D01*
X127830625Y-106474450D01*
X127729610Y-106440778D01*
X127594923Y-106306091D01*
X127561251Y-106205076D01*
X127561251Y-106137732D01*
X127594923Y-106036717D01*
X122865312Y-119270388D02*
X122865312Y-119337731D01*
X122932656Y-119472418D01*
X123000000Y-119539762D01*
X123134687Y-119607105D01*
X123269374Y-119607105D01*
X123370389Y-119573434D01*
X123538748Y-119472418D01*
X123639763Y-119371403D01*
X123740778Y-119203044D01*
X123774450Y-119102029D01*
X123774450Y-118967342D01*
X123707106Y-118832655D01*
X123639763Y-118765311D01*
X123505076Y-118697968D01*
X123437732Y-118697968D01*
X122461251Y-119001014D02*
X122326564Y-118866327D01*
X122292893Y-118765311D01*
X122292893Y-118697968D01*
X122326564Y-118529609D01*
X122427580Y-118361250D01*
X122696954Y-118091876D01*
X122797969Y-118058205D01*
X122865312Y-118058205D01*
X122966328Y-118091876D01*
X123101015Y-118226563D01*
X123134687Y-118327579D01*
X123134687Y-118394922D01*
X123101015Y-118495937D01*
X122932656Y-118664296D01*
X122831641Y-118697968D01*
X122764297Y-118697968D01*
X122663282Y-118664296D01*
X122528595Y-118529609D01*
X122494923Y-118428594D01*
X122494923Y-118361250D01*
X122528595Y-118260235D01*
X133392857Y-88107142D02*
X133440476Y-88154761D01*
X133583333Y-88202380D01*
X133678571Y-88202380D01*
X133821428Y-88154761D01*
X133916666Y-88059523D01*
X133964285Y-87964285D01*
X134011904Y-87773809D01*
X134011904Y-87630952D01*
X133964285Y-87440476D01*
X133916666Y-87345238D01*
X133821428Y-87250000D01*
X133678571Y-87202380D01*
X133583333Y-87202380D01*
X133440476Y-87250000D01*
X133392857Y-87297619D01*
X132440476Y-88202380D02*
X133011904Y-88202380D01*
X132726190Y-88202380D02*
X132726190Y-87202380D01*
X132821428Y-87345238D01*
X132916666Y-87440476D01*
X133011904Y-87488095D01*
X131821428Y-87202380D02*
X131726190Y-87202380D01*
X131630952Y-87250000D01*
X131583333Y-87297619D01*
X131535714Y-87392857D01*
X131488095Y-87583333D01*
X131488095Y-87821428D01*
X131535714Y-88011904D01*
X131583333Y-88107142D01*
X131630952Y-88154761D01*
X131726190Y-88202380D01*
X131821428Y-88202380D01*
X131916666Y-88154761D01*
X131964285Y-88107142D01*
X132011904Y-88011904D01*
X132059523Y-87821428D01*
X132059523Y-87583333D01*
X132011904Y-87392857D01*
X131964285Y-87297619D01*
X131916666Y-87250000D01*
X131821428Y-87202380D01*
X139984557Y-89061128D02*
X139277451Y-88354021D01*
X139109092Y-88522380D01*
X139041748Y-88657067D01*
X139041748Y-88791754D01*
X139075420Y-88892769D01*
X139176435Y-89061128D01*
X139277451Y-89162143D01*
X139445809Y-89263159D01*
X139546825Y-89296830D01*
X139681512Y-89296830D01*
X139816199Y-89229487D01*
X139984557Y-89061128D01*
X138671359Y-89094800D02*
X138604015Y-89094800D01*
X138503000Y-89128471D01*
X138334641Y-89296830D01*
X138300970Y-89397846D01*
X138300970Y-89465189D01*
X138334641Y-89566204D01*
X138401985Y-89633548D01*
X138536672Y-89700891D01*
X139344794Y-89700891D01*
X138907061Y-90138624D01*
X125742857Y-72907142D02*
X125790476Y-72954761D01*
X125933333Y-73002380D01*
X126028571Y-73002380D01*
X126171428Y-72954761D01*
X126266666Y-72859523D01*
X126314285Y-72764285D01*
X126361904Y-72573809D01*
X126361904Y-72430952D01*
X126314285Y-72240476D01*
X126266666Y-72145238D01*
X126171428Y-72050000D01*
X126028571Y-72002380D01*
X125933333Y-72002380D01*
X125790476Y-72050000D01*
X125742857Y-72097619D01*
X124790476Y-73002380D02*
X125361904Y-73002380D01*
X125076190Y-73002380D02*
X125076190Y-72002380D01*
X125171428Y-72145238D01*
X125266666Y-72240476D01*
X125361904Y-72288095D01*
X123838095Y-73002380D02*
X124409523Y-73002380D01*
X124123809Y-73002380D02*
X124123809Y-72002380D01*
X124219047Y-72145238D01*
X124314285Y-72240476D01*
X124409523Y-72288095D01*
X138742857Y-76407142D02*
X138790476Y-76454761D01*
X138933333Y-76502380D01*
X139028571Y-76502380D01*
X139171428Y-76454761D01*
X139266666Y-76359523D01*
X139314285Y-76264285D01*
X139361904Y-76073809D01*
X139361904Y-75930952D01*
X139314285Y-75740476D01*
X139266666Y-75645238D01*
X139171428Y-75550000D01*
X139028571Y-75502380D01*
X138933333Y-75502380D01*
X138790476Y-75550000D01*
X138742857Y-75597619D01*
X137790476Y-76502380D02*
X138361904Y-76502380D01*
X138076190Y-76502380D02*
X138076190Y-75502380D01*
X138171428Y-75645238D01*
X138266666Y-75740476D01*
X138361904Y-75788095D01*
X137409523Y-75597619D02*
X137361904Y-75550000D01*
X137266666Y-75502380D01*
X137028571Y-75502380D01*
X136933333Y-75550000D01*
X136885714Y-75597619D01*
X136838095Y-75692857D01*
X136838095Y-75788095D01*
X136885714Y-75930952D01*
X137457142Y-76502380D01*
X136838095Y-76502380D01*
X140992857Y-82607142D02*
X141040476Y-82654761D01*
X141183333Y-82702380D01*
X141278571Y-82702380D01*
X141421428Y-82654761D01*
X141516666Y-82559523D01*
X141564285Y-82464285D01*
X141611904Y-82273809D01*
X141611904Y-82130952D01*
X141564285Y-81940476D01*
X141516666Y-81845238D01*
X141421428Y-81750000D01*
X141278571Y-81702380D01*
X141183333Y-81702380D01*
X141040476Y-81750000D01*
X140992857Y-81797619D01*
X140040476Y-82702380D02*
X140611904Y-82702380D01*
X140326190Y-82702380D02*
X140326190Y-81702380D01*
X140421428Y-81845238D01*
X140516666Y-81940476D01*
X140611904Y-81988095D01*
X139707142Y-81702380D02*
X139088095Y-81702380D01*
X139421428Y-82083333D01*
X139278571Y-82083333D01*
X139183333Y-82130952D01*
X139135714Y-82178571D01*
X139088095Y-82273809D01*
X139088095Y-82511904D01*
X139135714Y-82607142D01*
X139183333Y-82654761D01*
X139278571Y-82702380D01*
X139564285Y-82702380D01*
X139659523Y-82654761D01*
X139707142Y-82607142D01*
X141042857Y-86007142D02*
X141090476Y-86054761D01*
X141233333Y-86102380D01*
X141328571Y-86102380D01*
X141471428Y-86054761D01*
X141566666Y-85959523D01*
X141614285Y-85864285D01*
X141661904Y-85673809D01*
X141661904Y-85530952D01*
X141614285Y-85340476D01*
X141566666Y-85245238D01*
X141471428Y-85150000D01*
X141328571Y-85102380D01*
X141233333Y-85102380D01*
X141090476Y-85150000D01*
X141042857Y-85197619D01*
X140090476Y-86102380D02*
X140661904Y-86102380D01*
X140376190Y-86102380D02*
X140376190Y-85102380D01*
X140471428Y-85245238D01*
X140566666Y-85340476D01*
X140661904Y-85388095D01*
X139233333Y-85435714D02*
X139233333Y-86102380D01*
X139471428Y-85054761D02*
X139709523Y-85769047D01*
X139090476Y-85769047D01*
X151499029Y-91134810D02*
X150791923Y-90427703D01*
X150623564Y-90596062D01*
X150556220Y-90730749D01*
X150556220Y-90865436D01*
X150589892Y-90966451D01*
X150690907Y-91134810D01*
X150791923Y-91235825D01*
X150960281Y-91336841D01*
X151061297Y-91370512D01*
X151195984Y-91370512D01*
X151330671Y-91303169D01*
X151499029Y-91134810D01*
X150421533Y-92212306D02*
X150825594Y-91808245D01*
X150623564Y-92010276D02*
X149916457Y-91303169D01*
X150084816Y-91336841D01*
X150219503Y-91336841D01*
X150320518Y-91303169D01*
X123461904Y-107152380D02*
X123461904Y-107961904D01*
X123414285Y-108057142D01*
X123366666Y-108104761D01*
X123271428Y-108152380D01*
X123080952Y-108152380D01*
X122985714Y-108104761D01*
X122938095Y-108057142D01*
X122890476Y-107961904D01*
X122890476Y-107152380D01*
X121938095Y-107152380D02*
X122414285Y-107152380D01*
X122461904Y-107628571D01*
X122414285Y-107580952D01*
X122319047Y-107533333D01*
X122080952Y-107533333D01*
X121985714Y-107580952D01*
X121938095Y-107628571D01*
X121890476Y-107723809D01*
X121890476Y-107961904D01*
X121938095Y-108057142D01*
X121985714Y-108104761D01*
X122080952Y-108152380D01*
X122319047Y-108152380D01*
X122414285Y-108104761D01*
X122461904Y-108057142D01*
%LPC*%
G36*
G01*
X131338441Y-97938441D02*
X131338441Y-97938441D01*
G75*
G02*
X127378643Y-97938441I-1979899J1979899D01*
G01*
X119211559Y-89771357D01*
G75*
G02*
X119211559Y-85811559I1979899J1979899D01*
G01*
X119211559Y-85811559D01*
G75*
G02*
X123171357Y-85811559I1979899J-1979899D01*
G01*
X131338441Y-93978643D01*
G75*
G02*
X131338441Y-97938441I-1979899J-1979899D01*
G01*
G37*
G36*
G01*
X144388441Y-110988441D02*
X144388441Y-110988441D01*
G75*
G02*
X140428643Y-110988441I-1979899J1979899D01*
G01*
X132261559Y-102821357D01*
G75*
G02*
X132261559Y-98861559I1979899J1979899D01*
G01*
X132261559Y-98861559D01*
G75*
G02*
X136221357Y-98861559I1979899J-1979899D01*
G01*
X144388441Y-107028643D01*
G75*
G02*
X144388441Y-110988441I-1979899J-1979899D01*
G01*
G37*
D12*
X162300000Y-98400000D03*
D13*
X131800000Y-98400000D03*
G36*
G01*
X131175988Y-123668377D02*
X131388120Y-123880509D01*
G75*
G02*
X131388120Y-124163351I-141421J-141421D01*
G01*
X129973906Y-125577565D01*
G75*
G02*
X129691064Y-125577565I-141421J141421D01*
G01*
X129478932Y-125365433D01*
G75*
G02*
X129478932Y-125082591I141421J141421D01*
G01*
X130893146Y-123668377D01*
G75*
G02*
X131175988Y-123668377I141421J-141421D01*
G01*
G37*
G36*
G01*
X137893503Y-118577208D02*
X138105635Y-118365076D01*
G75*
G02*
X138388477Y-118365076I141421J-141421D01*
G01*
X139802691Y-119779290D01*
G75*
G02*
X139802691Y-120062132I-141421J-141421D01*
G01*
X139590559Y-120274264D01*
G75*
G02*
X139307717Y-120274264I-141421J141421D01*
G01*
X137893503Y-118860050D01*
G75*
G02*
X137893503Y-118577208I141421J141421D01*
G01*
G37*
G36*
G01*
X134287258Y-109950505D02*
X134499390Y-110162637D01*
G75*
G02*
X134499390Y-110445479I-141421J-141421D01*
G01*
X133085176Y-111859693D01*
G75*
G02*
X132802334Y-111859693I-141421J141421D01*
G01*
X132590202Y-111647561D01*
G75*
G02*
X132590202Y-111364719I141421J141421D01*
G01*
X134004416Y-109950505D01*
G75*
G02*
X134287258Y-109950505I141421J-141421D01*
G01*
G37*
G36*
G01*
X124175631Y-115465938D02*
X124387763Y-115253806D01*
G75*
G02*
X124670605Y-115253806I141421J-141421D01*
G01*
X126084819Y-116668020D01*
G75*
G02*
X126084819Y-116950862I-141421J-141421D01*
G01*
X125872687Y-117162994D01*
G75*
G02*
X125589845Y-117162994I-141421J141421D01*
G01*
X124175631Y-115748780D01*
G75*
G02*
X124175631Y-115465938I141421J141421D01*
G01*
G37*
G36*
G01*
X124529185Y-115112385D02*
X124741317Y-114900253D01*
G75*
G02*
X125024159Y-114900253I141421J-141421D01*
G01*
X126438373Y-116314467D01*
G75*
G02*
X126438373Y-116597309I-141421J-141421D01*
G01*
X126226241Y-116809441D01*
G75*
G02*
X125943399Y-116809441I-141421J141421D01*
G01*
X124529185Y-115395227D01*
G75*
G02*
X124529185Y-115112385I141421J141421D01*
G01*
G37*
G36*
G01*
X124882738Y-114758831D02*
X125094870Y-114546699D01*
G75*
G02*
X125377712Y-114546699I141421J-141421D01*
G01*
X126791926Y-115960913D01*
G75*
G02*
X126791926Y-116243755I-141421J-141421D01*
G01*
X126579794Y-116455887D01*
G75*
G02*
X126296952Y-116455887I-141421J141421D01*
G01*
X124882738Y-115041673D01*
G75*
G02*
X124882738Y-114758831I141421J141421D01*
G01*
G37*
G36*
G01*
X125236291Y-114405278D02*
X125448423Y-114193146D01*
G75*
G02*
X125731265Y-114193146I141421J-141421D01*
G01*
X127145479Y-115607360D01*
G75*
G02*
X127145479Y-115890202I-141421J-141421D01*
G01*
X126933347Y-116102334D01*
G75*
G02*
X126650505Y-116102334I-141421J141421D01*
G01*
X125236291Y-114688120D01*
G75*
G02*
X125236291Y-114405278I141421J141421D01*
G01*
G37*
G36*
G01*
X125589845Y-114051725D02*
X125801977Y-113839593D01*
G75*
G02*
X126084819Y-113839593I141421J-141421D01*
G01*
X127499033Y-115253807D01*
G75*
G02*
X127499033Y-115536649I-141421J-141421D01*
G01*
X127286901Y-115748781D01*
G75*
G02*
X127004059Y-115748781I-141421J141421D01*
G01*
X125589845Y-114334567D01*
G75*
G02*
X125589845Y-114051725I141421J141421D01*
G01*
G37*
G36*
G01*
X125943398Y-113698171D02*
X126155530Y-113486039D01*
G75*
G02*
X126438372Y-113486039I141421J-141421D01*
G01*
X127852586Y-114900253D01*
G75*
G02*
X127852586Y-115183095I-141421J-141421D01*
G01*
X127640454Y-115395227D01*
G75*
G02*
X127357612Y-115395227I-141421J141421D01*
G01*
X125943398Y-113981013D01*
G75*
G02*
X125943398Y-113698171I141421J141421D01*
G01*
G37*
G36*
G01*
X126296952Y-113344618D02*
X126509084Y-113132486D01*
G75*
G02*
X126791926Y-113132486I141421J-141421D01*
G01*
X128206140Y-114546700D01*
G75*
G02*
X128206140Y-114829542I-141421J-141421D01*
G01*
X127994008Y-115041674D01*
G75*
G02*
X127711166Y-115041674I-141421J141421D01*
G01*
X126296952Y-113627460D01*
G75*
G02*
X126296952Y-113344618I141421J141421D01*
G01*
G37*
G36*
G01*
X126650505Y-112991064D02*
X126862637Y-112778932D01*
G75*
G02*
X127145479Y-112778932I141421J-141421D01*
G01*
X128559693Y-114193146D01*
G75*
G02*
X128559693Y-114475988I-141421J-141421D01*
G01*
X128347561Y-114688120D01*
G75*
G02*
X128064719Y-114688120I-141421J141421D01*
G01*
X126650505Y-113273906D01*
G75*
G02*
X126650505Y-112991064I141421J141421D01*
G01*
G37*
G36*
G01*
X127004058Y-112637511D02*
X127216190Y-112425379D01*
G75*
G02*
X127499032Y-112425379I141421J-141421D01*
G01*
X128913246Y-113839593D01*
G75*
G02*
X128913246Y-114122435I-141421J-141421D01*
G01*
X128701114Y-114334567D01*
G75*
G02*
X128418272Y-114334567I-141421J141421D01*
G01*
X127004058Y-112920353D01*
G75*
G02*
X127004058Y-112637511I141421J141421D01*
G01*
G37*
G36*
G01*
X127357612Y-112283958D02*
X127569744Y-112071826D01*
G75*
G02*
X127852586Y-112071826I141421J-141421D01*
G01*
X129266800Y-113486040D01*
G75*
G02*
X129266800Y-113768882I-141421J-141421D01*
G01*
X129054668Y-113981014D01*
G75*
G02*
X128771826Y-113981014I-141421J141421D01*
G01*
X127357612Y-112566800D01*
G75*
G02*
X127357612Y-112283958I141421J141421D01*
G01*
G37*
G36*
G01*
X127711165Y-111930404D02*
X127923297Y-111718272D01*
G75*
G02*
X128206139Y-111718272I141421J-141421D01*
G01*
X129620353Y-113132486D01*
G75*
G02*
X129620353Y-113415328I-141421J-141421D01*
G01*
X129408221Y-113627460D01*
G75*
G02*
X129125379Y-113627460I-141421J141421D01*
G01*
X127711165Y-112213246D01*
G75*
G02*
X127711165Y-111930404I141421J141421D01*
G01*
G37*
G36*
G01*
X128064719Y-111576851D02*
X128276851Y-111364719D01*
G75*
G02*
X128559693Y-111364719I141421J-141421D01*
G01*
X129973907Y-112778933D01*
G75*
G02*
X129973907Y-113061775I-141421J-141421D01*
G01*
X129761775Y-113273907D01*
G75*
G02*
X129478933Y-113273907I-141421J141421D01*
G01*
X128064719Y-111859693D01*
G75*
G02*
X128064719Y-111576851I141421J141421D01*
G01*
G37*
G36*
G01*
X128418272Y-111223297D02*
X128630404Y-111011165D01*
G75*
G02*
X128913246Y-111011165I141421J-141421D01*
G01*
X130327460Y-112425379D01*
G75*
G02*
X130327460Y-112708221I-141421J-141421D01*
G01*
X130115328Y-112920353D01*
G75*
G02*
X129832486Y-112920353I-141421J141421D01*
G01*
X128418272Y-111506139D01*
G75*
G02*
X128418272Y-111223297I141421J141421D01*
G01*
G37*
G36*
G01*
X128771825Y-110869744D02*
X128983957Y-110657612D01*
G75*
G02*
X129266799Y-110657612I141421J-141421D01*
G01*
X130681013Y-112071826D01*
G75*
G02*
X130681013Y-112354668I-141421J-141421D01*
G01*
X130468881Y-112566800D01*
G75*
G02*
X130186039Y-112566800I-141421J141421D01*
G01*
X128771825Y-111152586D01*
G75*
G02*
X128771825Y-110869744I141421J141421D01*
G01*
G37*
G36*
G01*
X129125379Y-110516191D02*
X129337511Y-110304059D01*
G75*
G02*
X129620353Y-110304059I141421J-141421D01*
G01*
X131034567Y-111718273D01*
G75*
G02*
X131034567Y-112001115I-141421J-141421D01*
G01*
X130822435Y-112213247D01*
G75*
G02*
X130539593Y-112213247I-141421J141421D01*
G01*
X129125379Y-110799033D01*
G75*
G02*
X129125379Y-110516191I141421J141421D01*
G01*
G37*
G36*
G01*
X129478932Y-110162637D02*
X129691064Y-109950505D01*
G75*
G02*
X129973906Y-109950505I141421J-141421D01*
G01*
X131388120Y-111364719D01*
G75*
G02*
X131388120Y-111647561I-141421J-141421D01*
G01*
X131175988Y-111859693D01*
G75*
G02*
X130893146Y-111859693I-141421J141421D01*
G01*
X129478932Y-110445479D01*
G75*
G02*
X129478932Y-110162637I141421J141421D01*
G01*
G37*
G36*
G01*
X134640811Y-110304059D02*
X134852943Y-110516191D01*
G75*
G02*
X134852943Y-110799033I-141421J-141421D01*
G01*
X133438729Y-112213247D01*
G75*
G02*
X133155887Y-112213247I-141421J141421D01*
G01*
X132943755Y-112001115D01*
G75*
G02*
X132943755Y-111718273I141421J141421D01*
G01*
X134357969Y-110304059D01*
G75*
G02*
X134640811Y-110304059I141421J-141421D01*
G01*
G37*
G36*
G01*
X134994365Y-110657612D02*
X135206497Y-110869744D01*
G75*
G02*
X135206497Y-111152586I-141421J-141421D01*
G01*
X133792283Y-112566800D01*
G75*
G02*
X133509441Y-112566800I-141421J141421D01*
G01*
X133297309Y-112354668D01*
G75*
G02*
X133297309Y-112071826I141421J141421D01*
G01*
X134711523Y-110657612D01*
G75*
G02*
X134994365Y-110657612I141421J-141421D01*
G01*
G37*
G36*
G01*
X135347918Y-111011165D02*
X135560050Y-111223297D01*
G75*
G02*
X135560050Y-111506139I-141421J-141421D01*
G01*
X134145836Y-112920353D01*
G75*
G02*
X133862994Y-112920353I-141421J141421D01*
G01*
X133650862Y-112708221D01*
G75*
G02*
X133650862Y-112425379I141421J141421D01*
G01*
X135065076Y-111011165D01*
G75*
G02*
X135347918Y-111011165I141421J-141421D01*
G01*
G37*
G36*
G01*
X135701471Y-111364719D02*
X135913603Y-111576851D01*
G75*
G02*
X135913603Y-111859693I-141421J-141421D01*
G01*
X134499389Y-113273907D01*
G75*
G02*
X134216547Y-113273907I-141421J141421D01*
G01*
X134004415Y-113061775D01*
G75*
G02*
X134004415Y-112778933I141421J141421D01*
G01*
X135418629Y-111364719D01*
G75*
G02*
X135701471Y-111364719I141421J-141421D01*
G01*
G37*
G36*
G01*
X136055025Y-111718272D02*
X136267157Y-111930404D01*
G75*
G02*
X136267157Y-112213246I-141421J-141421D01*
G01*
X134852943Y-113627460D01*
G75*
G02*
X134570101Y-113627460I-141421J141421D01*
G01*
X134357969Y-113415328D01*
G75*
G02*
X134357969Y-113132486I141421J141421D01*
G01*
X135772183Y-111718272D01*
G75*
G02*
X136055025Y-111718272I141421J-141421D01*
G01*
G37*
G36*
G01*
X136408578Y-112071826D02*
X136620710Y-112283958D01*
G75*
G02*
X136620710Y-112566800I-141421J-141421D01*
G01*
X135206496Y-113981014D01*
G75*
G02*
X134923654Y-113981014I-141421J141421D01*
G01*
X134711522Y-113768882D01*
G75*
G02*
X134711522Y-113486040I141421J141421D01*
G01*
X136125736Y-112071826D01*
G75*
G02*
X136408578Y-112071826I141421J-141421D01*
G01*
G37*
G36*
G01*
X136762132Y-112425379D02*
X136974264Y-112637511D01*
G75*
G02*
X136974264Y-112920353I-141421J-141421D01*
G01*
X135560050Y-114334567D01*
G75*
G02*
X135277208Y-114334567I-141421J141421D01*
G01*
X135065076Y-114122435D01*
G75*
G02*
X135065076Y-113839593I141421J141421D01*
G01*
X136479290Y-112425379D01*
G75*
G02*
X136762132Y-112425379I141421J-141421D01*
G01*
G37*
G36*
G01*
X137115685Y-112778932D02*
X137327817Y-112991064D01*
G75*
G02*
X137327817Y-113273906I-141421J-141421D01*
G01*
X135913603Y-114688120D01*
G75*
G02*
X135630761Y-114688120I-141421J141421D01*
G01*
X135418629Y-114475988D01*
G75*
G02*
X135418629Y-114193146I141421J141421D01*
G01*
X136832843Y-112778932D01*
G75*
G02*
X137115685Y-112778932I141421J-141421D01*
G01*
G37*
G36*
G01*
X137469238Y-113132486D02*
X137681370Y-113344618D01*
G75*
G02*
X137681370Y-113627460I-141421J-141421D01*
G01*
X136267156Y-115041674D01*
G75*
G02*
X135984314Y-115041674I-141421J141421D01*
G01*
X135772182Y-114829542D01*
G75*
G02*
X135772182Y-114546700I141421J141421D01*
G01*
X137186396Y-113132486D01*
G75*
G02*
X137469238Y-113132486I141421J-141421D01*
G01*
G37*
G36*
G01*
X137822792Y-113486039D02*
X138034924Y-113698171D01*
G75*
G02*
X138034924Y-113981013I-141421J-141421D01*
G01*
X136620710Y-115395227D01*
G75*
G02*
X136337868Y-115395227I-141421J141421D01*
G01*
X136125736Y-115183095D01*
G75*
G02*
X136125736Y-114900253I141421J141421D01*
G01*
X137539950Y-113486039D01*
G75*
G02*
X137822792Y-113486039I141421J-141421D01*
G01*
G37*
G36*
G01*
X138176345Y-113839593D02*
X138388477Y-114051725D01*
G75*
G02*
X138388477Y-114334567I-141421J-141421D01*
G01*
X136974263Y-115748781D01*
G75*
G02*
X136691421Y-115748781I-141421J141421D01*
G01*
X136479289Y-115536649D01*
G75*
G02*
X136479289Y-115253807I141421J141421D01*
G01*
X137893503Y-113839593D01*
G75*
G02*
X138176345Y-113839593I141421J-141421D01*
G01*
G37*
G36*
G01*
X138529899Y-114193146D02*
X138742031Y-114405278D01*
G75*
G02*
X138742031Y-114688120I-141421J-141421D01*
G01*
X137327817Y-116102334D01*
G75*
G02*
X137044975Y-116102334I-141421J141421D01*
G01*
X136832843Y-115890202D01*
G75*
G02*
X136832843Y-115607360I141421J141421D01*
G01*
X138247057Y-114193146D01*
G75*
G02*
X138529899Y-114193146I141421J-141421D01*
G01*
G37*
G36*
G01*
X138883452Y-114546699D02*
X139095584Y-114758831D01*
G75*
G02*
X139095584Y-115041673I-141421J-141421D01*
G01*
X137681370Y-116455887D01*
G75*
G02*
X137398528Y-116455887I-141421J141421D01*
G01*
X137186396Y-116243755D01*
G75*
G02*
X137186396Y-115960913I141421J141421D01*
G01*
X138600610Y-114546699D01*
G75*
G02*
X138883452Y-114546699I141421J-141421D01*
G01*
G37*
G36*
G01*
X139237005Y-114900253D02*
X139449137Y-115112385D01*
G75*
G02*
X139449137Y-115395227I-141421J-141421D01*
G01*
X138034923Y-116809441D01*
G75*
G02*
X137752081Y-116809441I-141421J141421D01*
G01*
X137539949Y-116597309D01*
G75*
G02*
X137539949Y-116314467I141421J141421D01*
G01*
X138954163Y-114900253D01*
G75*
G02*
X139237005Y-114900253I141421J-141421D01*
G01*
G37*
G36*
G01*
X139590559Y-115253806D02*
X139802691Y-115465938D01*
G75*
G02*
X139802691Y-115748780I-141421J-141421D01*
G01*
X138388477Y-117162994D01*
G75*
G02*
X138105635Y-117162994I-141421J141421D01*
G01*
X137893503Y-116950862D01*
G75*
G02*
X137893503Y-116668020I141421J141421D01*
G01*
X139307717Y-115253806D01*
G75*
G02*
X139590559Y-115253806I141421J-141421D01*
G01*
G37*
G36*
G01*
X130822435Y-123314823D02*
X131034567Y-123526955D01*
G75*
G02*
X131034567Y-123809797I-141421J-141421D01*
G01*
X129620353Y-125224011D01*
G75*
G02*
X129337511Y-125224011I-141421J141421D01*
G01*
X129125379Y-125011879D01*
G75*
G02*
X129125379Y-124729037I141421J141421D01*
G01*
X130539593Y-123314823D01*
G75*
G02*
X130822435Y-123314823I141421J-141421D01*
G01*
G37*
G36*
G01*
X130468881Y-122961270D02*
X130681013Y-123173402D01*
G75*
G02*
X130681013Y-123456244I-141421J-141421D01*
G01*
X129266799Y-124870458D01*
G75*
G02*
X128983957Y-124870458I-141421J141421D01*
G01*
X128771825Y-124658326D01*
G75*
G02*
X128771825Y-124375484I141421J141421D01*
G01*
X130186039Y-122961270D01*
G75*
G02*
X130468881Y-122961270I141421J-141421D01*
G01*
G37*
G36*
G01*
X130115328Y-122607717D02*
X130327460Y-122819849D01*
G75*
G02*
X130327460Y-123102691I-141421J-141421D01*
G01*
X128913246Y-124516905D01*
G75*
G02*
X128630404Y-124516905I-141421J141421D01*
G01*
X128418272Y-124304773D01*
G75*
G02*
X128418272Y-124021931I141421J141421D01*
G01*
X129832486Y-122607717D01*
G75*
G02*
X130115328Y-122607717I141421J-141421D01*
G01*
G37*
G36*
G01*
X129761775Y-122254163D02*
X129973907Y-122466295D01*
G75*
G02*
X129973907Y-122749137I-141421J-141421D01*
G01*
X128559693Y-124163351D01*
G75*
G02*
X128276851Y-124163351I-141421J141421D01*
G01*
X128064719Y-123951219D01*
G75*
G02*
X128064719Y-123668377I141421J141421D01*
G01*
X129478933Y-122254163D01*
G75*
G02*
X129761775Y-122254163I141421J-141421D01*
G01*
G37*
G36*
G01*
X129408221Y-121900610D02*
X129620353Y-122112742D01*
G75*
G02*
X129620353Y-122395584I-141421J-141421D01*
G01*
X128206139Y-123809798D01*
G75*
G02*
X127923297Y-123809798I-141421J141421D01*
G01*
X127711165Y-123597666D01*
G75*
G02*
X127711165Y-123314824I141421J141421D01*
G01*
X129125379Y-121900610D01*
G75*
G02*
X129408221Y-121900610I141421J-141421D01*
G01*
G37*
G36*
G01*
X129054668Y-121547056D02*
X129266800Y-121759188D01*
G75*
G02*
X129266800Y-122042030I-141421J-141421D01*
G01*
X127852586Y-123456244D01*
G75*
G02*
X127569744Y-123456244I-141421J141421D01*
G01*
X127357612Y-123244112D01*
G75*
G02*
X127357612Y-122961270I141421J141421D01*
G01*
X128771826Y-121547056D01*
G75*
G02*
X129054668Y-121547056I141421J-141421D01*
G01*
G37*
G36*
G01*
X128701114Y-121193503D02*
X128913246Y-121405635D01*
G75*
G02*
X128913246Y-121688477I-141421J-141421D01*
G01*
X127499032Y-123102691D01*
G75*
G02*
X127216190Y-123102691I-141421J141421D01*
G01*
X127004058Y-122890559D01*
G75*
G02*
X127004058Y-122607717I141421J141421D01*
G01*
X128418272Y-121193503D01*
G75*
G02*
X128701114Y-121193503I141421J-141421D01*
G01*
G37*
G36*
G01*
X128347561Y-120839950D02*
X128559693Y-121052082D01*
G75*
G02*
X128559693Y-121334924I-141421J-141421D01*
G01*
X127145479Y-122749138D01*
G75*
G02*
X126862637Y-122749138I-141421J141421D01*
G01*
X126650505Y-122537006D01*
G75*
G02*
X126650505Y-122254164I141421J141421D01*
G01*
X128064719Y-120839950D01*
G75*
G02*
X128347561Y-120839950I141421J-141421D01*
G01*
G37*
G36*
G01*
X127994008Y-120486396D02*
X128206140Y-120698528D01*
G75*
G02*
X128206140Y-120981370I-141421J-141421D01*
G01*
X126791926Y-122395584D01*
G75*
G02*
X126509084Y-122395584I-141421J141421D01*
G01*
X126296952Y-122183452D01*
G75*
G02*
X126296952Y-121900610I141421J141421D01*
G01*
X127711166Y-120486396D01*
G75*
G02*
X127994008Y-120486396I141421J-141421D01*
G01*
G37*
G36*
G01*
X127640454Y-120132843D02*
X127852586Y-120344975D01*
G75*
G02*
X127852586Y-120627817I-141421J-141421D01*
G01*
X126438372Y-122042031D01*
G75*
G02*
X126155530Y-122042031I-141421J141421D01*
G01*
X125943398Y-121829899D01*
G75*
G02*
X125943398Y-121547057I141421J141421D01*
G01*
X127357612Y-120132843D01*
G75*
G02*
X127640454Y-120132843I141421J-141421D01*
G01*
G37*
G36*
G01*
X127286901Y-119779289D02*
X127499033Y-119991421D01*
G75*
G02*
X127499033Y-120274263I-141421J-141421D01*
G01*
X126084819Y-121688477D01*
G75*
G02*
X125801977Y-121688477I-141421J141421D01*
G01*
X125589845Y-121476345D01*
G75*
G02*
X125589845Y-121193503I141421J141421D01*
G01*
X127004059Y-119779289D01*
G75*
G02*
X127286901Y-119779289I141421J-141421D01*
G01*
G37*
G36*
G01*
X126933347Y-119425736D02*
X127145479Y-119637868D01*
G75*
G02*
X127145479Y-119920710I-141421J-141421D01*
G01*
X125731265Y-121334924D01*
G75*
G02*
X125448423Y-121334924I-141421J141421D01*
G01*
X125236291Y-121122792D01*
G75*
G02*
X125236291Y-120839950I141421J141421D01*
G01*
X126650505Y-119425736D01*
G75*
G02*
X126933347Y-119425736I141421J-141421D01*
G01*
G37*
G36*
G01*
X126579794Y-119072183D02*
X126791926Y-119284315D01*
G75*
G02*
X126791926Y-119567157I-141421J-141421D01*
G01*
X125377712Y-120981371D01*
G75*
G02*
X125094870Y-120981371I-141421J141421D01*
G01*
X124882738Y-120769239D01*
G75*
G02*
X124882738Y-120486397I141421J141421D01*
G01*
X126296952Y-119072183D01*
G75*
G02*
X126579794Y-119072183I141421J-141421D01*
G01*
G37*
G36*
G01*
X126226241Y-118718629D02*
X126438373Y-118930761D01*
G75*
G02*
X126438373Y-119213603I-141421J-141421D01*
G01*
X125024159Y-120627817D01*
G75*
G02*
X124741317Y-120627817I-141421J141421D01*
G01*
X124529185Y-120415685D01*
G75*
G02*
X124529185Y-120132843I141421J141421D01*
G01*
X125943399Y-118718629D01*
G75*
G02*
X126226241Y-118718629I141421J-141421D01*
G01*
G37*
G36*
G01*
X125872687Y-118365076D02*
X126084819Y-118577208D01*
G75*
G02*
X126084819Y-118860050I-141421J-141421D01*
G01*
X124670605Y-120274264D01*
G75*
G02*
X124387763Y-120274264I-141421J141421D01*
G01*
X124175631Y-120062132D01*
G75*
G02*
X124175631Y-119779290I141421J141421D01*
G01*
X125589845Y-118365076D01*
G75*
G02*
X125872687Y-118365076I141421J-141421D01*
G01*
G37*
G36*
G01*
X137539949Y-118930761D02*
X137752081Y-118718629D01*
G75*
G02*
X138034923Y-118718629I141421J-141421D01*
G01*
X139449137Y-120132843D01*
G75*
G02*
X139449137Y-120415685I-141421J-141421D01*
G01*
X139237005Y-120627817D01*
G75*
G02*
X138954163Y-120627817I-141421J141421D01*
G01*
X137539949Y-119213603D01*
G75*
G02*
X137539949Y-118930761I141421J141421D01*
G01*
G37*
G36*
G01*
X137186396Y-119284315D02*
X137398528Y-119072183D01*
G75*
G02*
X137681370Y-119072183I141421J-141421D01*
G01*
X139095584Y-120486397D01*
G75*
G02*
X139095584Y-120769239I-141421J-141421D01*
G01*
X138883452Y-120981371D01*
G75*
G02*
X138600610Y-120981371I-141421J141421D01*
G01*
X137186396Y-119567157D01*
G75*
G02*
X137186396Y-119284315I141421J141421D01*
G01*
G37*
G36*
G01*
X136832843Y-119637868D02*
X137044975Y-119425736D01*
G75*
G02*
X137327817Y-119425736I141421J-141421D01*
G01*
X138742031Y-120839950D01*
G75*
G02*
X138742031Y-121122792I-141421J-141421D01*
G01*
X138529899Y-121334924D01*
G75*
G02*
X138247057Y-121334924I-141421J141421D01*
G01*
X136832843Y-119920710D01*
G75*
G02*
X136832843Y-119637868I141421J141421D01*
G01*
G37*
G36*
G01*
X136479289Y-119991421D02*
X136691421Y-119779289D01*
G75*
G02*
X136974263Y-119779289I141421J-141421D01*
G01*
X138388477Y-121193503D01*
G75*
G02*
X138388477Y-121476345I-141421J-141421D01*
G01*
X138176345Y-121688477D01*
G75*
G02*
X137893503Y-121688477I-141421J141421D01*
G01*
X136479289Y-120274263D01*
G75*
G02*
X136479289Y-119991421I141421J141421D01*
G01*
G37*
G36*
G01*
X136125736Y-120344975D02*
X136337868Y-120132843D01*
G75*
G02*
X136620710Y-120132843I141421J-141421D01*
G01*
X138034924Y-121547057D01*
G75*
G02*
X138034924Y-121829899I-141421J-141421D01*
G01*
X137822792Y-122042031D01*
G75*
G02*
X137539950Y-122042031I-141421J141421D01*
G01*
X136125736Y-120627817D01*
G75*
G02*
X136125736Y-120344975I141421J141421D01*
G01*
G37*
G36*
G01*
X135772182Y-120698528D02*
X135984314Y-120486396D01*
G75*
G02*
X136267156Y-120486396I141421J-141421D01*
G01*
X137681370Y-121900610D01*
G75*
G02*
X137681370Y-122183452I-141421J-141421D01*
G01*
X137469238Y-122395584D01*
G75*
G02*
X137186396Y-122395584I-141421J141421D01*
G01*
X135772182Y-120981370D01*
G75*
G02*
X135772182Y-120698528I141421J141421D01*
G01*
G37*
G36*
G01*
X135418629Y-121052082D02*
X135630761Y-120839950D01*
G75*
G02*
X135913603Y-120839950I141421J-141421D01*
G01*
X137327817Y-122254164D01*
G75*
G02*
X137327817Y-122537006I-141421J-141421D01*
G01*
X137115685Y-122749138D01*
G75*
G02*
X136832843Y-122749138I-141421J141421D01*
G01*
X135418629Y-121334924D01*
G75*
G02*
X135418629Y-121052082I141421J141421D01*
G01*
G37*
G36*
G01*
X135065076Y-121405635D02*
X135277208Y-121193503D01*
G75*
G02*
X135560050Y-121193503I141421J-141421D01*
G01*
X136974264Y-122607717D01*
G75*
G02*
X136974264Y-122890559I-141421J-141421D01*
G01*
X136762132Y-123102691D01*
G75*
G02*
X136479290Y-123102691I-141421J141421D01*
G01*
X135065076Y-121688477D01*
G75*
G02*
X135065076Y-121405635I141421J141421D01*
G01*
G37*
G36*
G01*
X134711522Y-121759188D02*
X134923654Y-121547056D01*
G75*
G02*
X135206496Y-121547056I141421J-141421D01*
G01*
X136620710Y-122961270D01*
G75*
G02*
X136620710Y-123244112I-141421J-141421D01*
G01*
X136408578Y-123456244D01*
G75*
G02*
X136125736Y-123456244I-141421J141421D01*
G01*
X134711522Y-122042030D01*
G75*
G02*
X134711522Y-121759188I141421J141421D01*
G01*
G37*
G36*
G01*
X134357969Y-122112742D02*
X134570101Y-121900610D01*
G75*
G02*
X134852943Y-121900610I141421J-141421D01*
G01*
X136267157Y-123314824D01*
G75*
G02*
X136267157Y-123597666I-141421J-141421D01*
G01*
X136055025Y-123809798D01*
G75*
G02*
X135772183Y-123809798I-141421J141421D01*
G01*
X134357969Y-122395584D01*
G75*
G02*
X134357969Y-122112742I141421J141421D01*
G01*
G37*
G36*
G01*
X134004415Y-122466295D02*
X134216547Y-122254163D01*
G75*
G02*
X134499389Y-122254163I141421J-141421D01*
G01*
X135913603Y-123668377D01*
G75*
G02*
X135913603Y-123951219I-141421J-141421D01*
G01*
X135701471Y-124163351D01*
G75*
G02*
X135418629Y-124163351I-141421J141421D01*
G01*
X134004415Y-122749137D01*
G75*
G02*
X134004415Y-122466295I141421J141421D01*
G01*
G37*
G36*
G01*
X133650862Y-122819849D02*
X133862994Y-122607717D01*
G75*
G02*
X134145836Y-122607717I141421J-141421D01*
G01*
X135560050Y-124021931D01*
G75*
G02*
X135560050Y-124304773I-141421J-141421D01*
G01*
X135347918Y-124516905D01*
G75*
G02*
X135065076Y-124516905I-141421J141421D01*
G01*
X133650862Y-123102691D01*
G75*
G02*
X133650862Y-122819849I141421J141421D01*
G01*
G37*
G36*
G01*
X133297309Y-123173402D02*
X133509441Y-122961270D01*
G75*
G02*
X133792283Y-122961270I141421J-141421D01*
G01*
X135206497Y-124375484D01*
G75*
G02*
X135206497Y-124658326I-141421J-141421D01*
G01*
X134994365Y-124870458D01*
G75*
G02*
X134711523Y-124870458I-141421J141421D01*
G01*
X133297309Y-123456244D01*
G75*
G02*
X133297309Y-123173402I141421J141421D01*
G01*
G37*
G36*
G01*
X132943755Y-123526955D02*
X133155887Y-123314823D01*
G75*
G02*
X133438729Y-123314823I141421J-141421D01*
G01*
X134852943Y-124729037D01*
G75*
G02*
X134852943Y-125011879I-141421J-141421D01*
G01*
X134640811Y-125224011D01*
G75*
G02*
X134357969Y-125224011I-141421J141421D01*
G01*
X132943755Y-123809797D01*
G75*
G02*
X132943755Y-123526955I141421J141421D01*
G01*
G37*
G36*
G01*
X132590202Y-123880509D02*
X132802334Y-123668377D01*
G75*
G02*
X133085176Y-123668377I141421J-141421D01*
G01*
X134499390Y-125082591D01*
G75*
G02*
X134499390Y-125365433I-141421J-141421D01*
G01*
X134287258Y-125577565D01*
G75*
G02*
X134004416Y-125577565I-141421J141421D01*
G01*
X132590202Y-124163351D01*
G75*
G02*
X132590202Y-123880509I141421J141421D01*
G01*
G37*
G36*
G01*
X130550000Y-86625000D02*
X130550000Y-85375000D01*
G75*
G02*
X130750000Y-85175000I200000J0D01*
G01*
X132250000Y-85175000D01*
G75*
G02*
X132450000Y-85375000I0J-200000D01*
G01*
X132450000Y-86625000D01*
G75*
G02*
X132250000Y-86825000I-200000J0D01*
G01*
X130750000Y-86825000D01*
G75*
G02*
X130550000Y-86625000I0J200000D01*
G01*
G37*
G36*
G01*
X133050000Y-86625000D02*
X133050000Y-85375000D01*
G75*
G02*
X133250000Y-85175000I200000J0D01*
G01*
X134750000Y-85175000D01*
G75*
G02*
X134950000Y-85375000I0J-200000D01*
G01*
X134950000Y-86625000D01*
G75*
G02*
X134750000Y-86825000I-200000J0D01*
G01*
X133250000Y-86825000D01*
G75*
G02*
X133050000Y-86625000I0J200000D01*
G01*
G37*
G36*
G01*
X115725000Y-106400000D02*
X114475000Y-106400000D01*
G75*
G02*
X114275000Y-106200000I0J200000D01*
G01*
X114275000Y-104700000D01*
G75*
G02*
X114475000Y-104500000I200000J0D01*
G01*
X115725000Y-104500000D01*
G75*
G02*
X115925000Y-104700000I0J-200000D01*
G01*
X115925000Y-106200000D01*
G75*
G02*
X115725000Y-106400000I-200000J0D01*
G01*
G37*
G36*
G01*
X115725000Y-103900000D02*
X114475000Y-103900000D01*
G75*
G02*
X114275000Y-103700000I0J200000D01*
G01*
X114275000Y-102200000D01*
G75*
G02*
X114475000Y-102000000I200000J0D01*
G01*
X115725000Y-102000000D01*
G75*
G02*
X115925000Y-102200000I0J-200000D01*
G01*
X115925000Y-103700000D01*
G75*
G02*
X115725000Y-103900000I-200000J0D01*
G01*
G37*
G36*
G01*
X139986308Y-123997576D02*
X139102424Y-123113692D01*
G75*
G02*
X139102424Y-122830850I141421J141421D01*
G01*
X140163084Y-121770190D01*
G75*
G02*
X140445926Y-121770190I141421J-141421D01*
G01*
X141329810Y-122654074D01*
G75*
G02*
X141329810Y-122936916I-141421J-141421D01*
G01*
X140269150Y-123997576D01*
G75*
G02*
X139986308Y-123997576I-141421J141421D01*
G01*
G37*
G36*
G01*
X141754074Y-122229810D02*
X140870190Y-121345926D01*
G75*
G02*
X140870190Y-121063084I141421J141421D01*
G01*
X141930850Y-120002424D01*
G75*
G02*
X142213692Y-120002424I141421J-141421D01*
G01*
X143097576Y-120886308D01*
G75*
G02*
X143097576Y-121169150I-141421J-141421D01*
G01*
X142036916Y-122229810D01*
G75*
G02*
X141754074Y-122229810I-141421J141421D01*
G01*
G37*
G36*
G01*
X155086308Y-96597576D02*
X154202424Y-95713692D01*
G75*
G02*
X154202424Y-95430850I141421J141421D01*
G01*
X155263084Y-94370190D01*
G75*
G02*
X155545926Y-94370190I141421J-141421D01*
G01*
X156429810Y-95254074D01*
G75*
G02*
X156429810Y-95536916I-141421J-141421D01*
G01*
X155369150Y-96597576D01*
G75*
G02*
X155086308Y-96597576I-141421J141421D01*
G01*
G37*
G36*
G01*
X156854074Y-94829810D02*
X155970190Y-93945926D01*
G75*
G02*
X155970190Y-93663084I141421J141421D01*
G01*
X157030850Y-92602424D01*
G75*
G02*
X157313692Y-92602424I141421J-141421D01*
G01*
X158197576Y-93486308D01*
G75*
G02*
X158197576Y-93769150I-141421J-141421D01*
G01*
X157136916Y-94829810D01*
G75*
G02*
X156854074Y-94829810I-141421J141421D01*
G01*
G37*
G36*
G01*
X150843503Y-95437472D02*
X149641421Y-96639554D01*
G75*
G02*
X149358579Y-96639554I-141421J141421D01*
G01*
X148156497Y-95437472D01*
G75*
G02*
X148156497Y-95154630I141421J141421D01*
G01*
X149358579Y-93952548D01*
G75*
G02*
X149641421Y-93952548I141421J-141421D01*
G01*
X150843503Y-95154630D01*
G75*
G02*
X150843503Y-95437472I-141421J-141421D01*
G01*
G37*
G36*
G01*
X152038513Y-94242462D02*
X152038513Y-94242462D01*
G75*
G02*
X150553589Y-94242462I-742462J742462D01*
G01*
X150553589Y-94242462D01*
G75*
G02*
X150553589Y-92757538I742462J742462D01*
G01*
X150553589Y-92757538D01*
G75*
G02*
X152038513Y-92757538I742462J-742462D01*
G01*
X152038513Y-92757538D01*
G75*
G02*
X152038513Y-94242462I-742462J-742462D01*
G01*
G37*
G36*
G01*
X153834564Y-92446411D02*
X153834564Y-92446411D01*
G75*
G02*
X152349640Y-92446411I-742462J742462D01*
G01*
X152349640Y-92446411D01*
G75*
G02*
X152349640Y-90961487I742462J742462D01*
G01*
X152349640Y-90961487D01*
G75*
G02*
X153834564Y-90961487I742462J-742462D01*
G01*
X153834564Y-90961487D01*
G75*
G02*
X153834564Y-92446411I-742462J-742462D01*
G01*
G37*
G36*
G01*
X155630616Y-90650359D02*
X155630616Y-90650359D01*
G75*
G02*
X154145692Y-90650359I-742462J742462D01*
G01*
X154145692Y-90650359D01*
G75*
G02*
X154145692Y-89165435I742462J742462D01*
G01*
X154145692Y-89165435D01*
G75*
G02*
X155630616Y-89165435I742462J-742462D01*
G01*
X155630616Y-89165435D01*
G75*
G02*
X155630616Y-90650359I-742462J-742462D01*
G01*
G37*
G36*
G01*
X150843503Y-106141421D02*
X149641421Y-107343503D01*
G75*
G02*
X149358579Y-107343503I-141421J141421D01*
G01*
X148156497Y-106141421D01*
G75*
G02*
X148156497Y-105858579I141421J141421D01*
G01*
X149358579Y-104656497D01*
G75*
G02*
X149641421Y-104656497I141421J-141421D01*
G01*
X150843503Y-105858579D01*
G75*
G02*
X150843503Y-106141421I-141421J-141421D01*
G01*
G37*
G36*
G01*
X152038513Y-104946411D02*
X152038513Y-104946411D01*
G75*
G02*
X150553589Y-104946411I-742462J742462D01*
G01*
X150553589Y-104946411D01*
G75*
G02*
X150553589Y-103461487I742462J742462D01*
G01*
X150553589Y-103461487D01*
G75*
G02*
X152038513Y-103461487I742462J-742462D01*
G01*
X152038513Y-103461487D01*
G75*
G02*
X152038513Y-104946411I-742462J-742462D01*
G01*
G37*
G36*
G01*
X153834564Y-103150360D02*
X153834564Y-103150360D01*
G75*
G02*
X152349640Y-103150360I-742462J742462D01*
G01*
X152349640Y-103150360D01*
G75*
G02*
X152349640Y-101665436I742462J742462D01*
G01*
X152349640Y-101665436D01*
G75*
G02*
X153834564Y-101665436I742462J-742462D01*
G01*
X153834564Y-101665436D01*
G75*
G02*
X153834564Y-103150360I-742462J-742462D01*
G01*
G37*
G36*
G01*
X155630616Y-101354308D02*
X155630616Y-101354308D01*
G75*
G02*
X154145692Y-101354308I-742462J742462D01*
G01*
X154145692Y-101354308D01*
G75*
G02*
X154145692Y-99869384I742462J742462D01*
G01*
X154145692Y-99869384D01*
G75*
G02*
X155630616Y-99869384I742462J-742462D01*
G01*
X155630616Y-99869384D01*
G75*
G02*
X155630616Y-101354308I-742462J-742462D01*
G01*
G37*
G36*
G01*
X113440000Y-99825000D02*
X113440000Y-99175000D01*
G75*
G02*
X113640000Y-98975000I200000J0D01*
G01*
X115640000Y-98975000D01*
G75*
G02*
X115840000Y-99175000I0J-200000D01*
G01*
X115840000Y-99825000D01*
G75*
G02*
X115640000Y-100025000I-200000J0D01*
G01*
X113640000Y-100025000D01*
G75*
G02*
X113440000Y-99825000I0J200000D01*
G01*
G37*
G36*
G01*
X113440000Y-97925000D02*
X113440000Y-97275000D01*
G75*
G02*
X113640000Y-97075000I200000J0D01*
G01*
X115640000Y-97075000D01*
G75*
G02*
X115840000Y-97275000I0J-200000D01*
G01*
X115840000Y-97925000D01*
G75*
G02*
X115640000Y-98125000I-200000J0D01*
G01*
X113640000Y-98125000D01*
G75*
G02*
X113440000Y-97925000I0J200000D01*
G01*
G37*
G36*
G01*
X116860000Y-98875000D02*
X116860000Y-98225000D01*
G75*
G02*
X117060000Y-98025000I200000J0D01*
G01*
X119060000Y-98025000D01*
G75*
G02*
X119260000Y-98225000I0J-200000D01*
G01*
X119260000Y-98875000D01*
G75*
G02*
X119060000Y-99075000I-200000J0D01*
G01*
X117060000Y-99075000D01*
G75*
G02*
X116860000Y-98875000I0J200000D01*
G01*
G37*
G36*
G01*
X128286308Y-108997576D02*
X127402424Y-108113692D01*
G75*
G02*
X127402424Y-107830850I141421J141421D01*
G01*
X128463084Y-106770190D01*
G75*
G02*
X128745926Y-106770190I141421J-141421D01*
G01*
X129629810Y-107654074D01*
G75*
G02*
X129629810Y-107936916I-141421J-141421D01*
G01*
X128569150Y-108997576D01*
G75*
G02*
X128286308Y-108997576I-141421J141421D01*
G01*
G37*
G36*
G01*
X130054074Y-107229810D02*
X129170190Y-106345926D01*
G75*
G02*
X129170190Y-106063084I141421J141421D01*
G01*
X130230850Y-105002424D01*
G75*
G02*
X130513692Y-105002424I141421J-141421D01*
G01*
X131397576Y-105886308D01*
G75*
G02*
X131397576Y-106169150I-141421J-141421D01*
G01*
X130336916Y-107229810D01*
G75*
G02*
X130054074Y-107229810I-141421J141421D01*
G01*
G37*
G36*
G01*
X124397576Y-122313692D02*
X123513692Y-123197576D01*
G75*
G02*
X123230850Y-123197576I-141421J141421D01*
G01*
X122170190Y-122136916D01*
G75*
G02*
X122170190Y-121854074I141421J141421D01*
G01*
X123054074Y-120970190D01*
G75*
G02*
X123336916Y-120970190I141421J-141421D01*
G01*
X124397576Y-122030850D01*
G75*
G02*
X124397576Y-122313692I-141421J-141421D01*
G01*
G37*
G36*
G01*
X122629810Y-120545926D02*
X121745926Y-121429810D01*
G75*
G02*
X121463084Y-121429810I-141421J141421D01*
G01*
X120402424Y-120369150D01*
G75*
G02*
X120402424Y-120086308I141421J141421D01*
G01*
X121286308Y-119202424D01*
G75*
G02*
X121569150Y-119202424I141421J-141421D01*
G01*
X122629810Y-120263084D01*
G75*
G02*
X122629810Y-120545926I-141421J-141421D01*
G01*
G37*
G36*
G01*
X133050000Y-90125000D02*
X133050000Y-88875000D01*
G75*
G02*
X133250000Y-88675000I200000J0D01*
G01*
X134750000Y-88675000D01*
G75*
G02*
X134950000Y-88875000I0J-200000D01*
G01*
X134950000Y-90125000D01*
G75*
G02*
X134750000Y-90325000I-200000J0D01*
G01*
X133250000Y-90325000D01*
G75*
G02*
X133050000Y-90125000I0J200000D01*
G01*
G37*
G36*
G01*
X130550000Y-90125000D02*
X130550000Y-88875000D01*
G75*
G02*
X130750000Y-88675000I200000J0D01*
G01*
X132250000Y-88675000D01*
G75*
G02*
X132450000Y-88875000I0J-200000D01*
G01*
X132450000Y-90125000D01*
G75*
G02*
X132250000Y-90325000I-200000J0D01*
G01*
X130750000Y-90325000D01*
G75*
G02*
X130550000Y-90125000I0J200000D01*
G01*
G37*
G36*
G01*
X133900000Y-81700000D02*
X129500000Y-81700000D01*
G75*
G02*
X129300000Y-81500000I0J200000D01*
G01*
X129300000Y-76400000D01*
G75*
G02*
X129500000Y-76200000I200000J0D01*
G01*
X133900000Y-76200000D01*
G75*
G02*
X134100000Y-76400000I0J-200000D01*
G01*
X134100000Y-81500000D01*
G75*
G02*
X133900000Y-81700000I-200000J0D01*
G01*
G37*
G36*
G01*
X145243503Y-87341421D02*
X144041421Y-88543503D01*
G75*
G02*
X143758579Y-88543503I-141421J141421D01*
G01*
X142556497Y-87341421D01*
G75*
G02*
X142556497Y-87058579I141421J141421D01*
G01*
X143758579Y-85856497D01*
G75*
G02*
X144041421Y-85856497I141421J-141421D01*
G01*
X145243503Y-87058579D01*
G75*
G02*
X145243503Y-87341421I-141421J-141421D01*
G01*
G37*
G36*
G01*
X146438513Y-86146411D02*
X146438513Y-86146411D01*
G75*
G02*
X144953589Y-86146411I-742462J742462D01*
G01*
X144953589Y-86146411D01*
G75*
G02*
X144953589Y-84661487I742462J742462D01*
G01*
X144953589Y-84661487D01*
G75*
G02*
X146438513Y-84661487I742462J-742462D01*
G01*
X146438513Y-84661487D01*
G75*
G02*
X146438513Y-86146411I-742462J-742462D01*
G01*
G37*
G36*
G01*
X141531370Y-88790813D02*
X142309187Y-89568630D01*
G75*
G02*
X142309187Y-89851472I-141421J-141421D01*
G01*
X141531370Y-90629289D01*
G75*
G02*
X141248528Y-90629289I-141421J141421D01*
G01*
X140470711Y-89851472D01*
G75*
G02*
X140470711Y-89568630I141421J141421D01*
G01*
X141248528Y-88790813D01*
G75*
G02*
X141531370Y-88790813I141421J-141421D01*
G01*
G37*
G36*
G01*
X139551472Y-90770711D02*
X140329289Y-91548528D01*
G75*
G02*
X140329289Y-91831370I-141421J-141421D01*
G01*
X139551472Y-92609187D01*
G75*
G02*
X139268630Y-92609187I-141421J141421D01*
G01*
X138490813Y-91831370D01*
G75*
G02*
X138490813Y-91548528I141421J141421D01*
G01*
X139268630Y-90770711D01*
G75*
G02*
X139551472Y-90770711I141421J-141421D01*
G01*
G37*
G36*
G01*
X124800000Y-73675000D02*
X124800000Y-74925000D01*
G75*
G02*
X124600000Y-75125000I-200000J0D01*
G01*
X123100000Y-75125000D01*
G75*
G02*
X122900000Y-74925000I0J200000D01*
G01*
X122900000Y-73675000D01*
G75*
G02*
X123100000Y-73475000I200000J0D01*
G01*
X124600000Y-73475000D01*
G75*
G02*
X124800000Y-73675000I0J-200000D01*
G01*
G37*
G36*
G01*
X127300000Y-73675000D02*
X127300000Y-74925000D01*
G75*
G02*
X127100000Y-75125000I-200000J0D01*
G01*
X125600000Y-75125000D01*
G75*
G02*
X125400000Y-74925000I0J200000D01*
G01*
X125400000Y-73675000D01*
G75*
G02*
X125600000Y-73475000I200000J0D01*
G01*
X127100000Y-73475000D01*
G75*
G02*
X127300000Y-73675000I0J-200000D01*
G01*
G37*
G36*
G01*
X135900000Y-74925000D02*
X135900000Y-73675000D01*
G75*
G02*
X136100000Y-73475000I200000J0D01*
G01*
X137600000Y-73475000D01*
G75*
G02*
X137800000Y-73675000I0J-200000D01*
G01*
X137800000Y-74925000D01*
G75*
G02*
X137600000Y-75125000I-200000J0D01*
G01*
X136100000Y-75125000D01*
G75*
G02*
X135900000Y-74925000I0J200000D01*
G01*
G37*
G36*
G01*
X138400000Y-74925000D02*
X138400000Y-73675000D01*
G75*
G02*
X138600000Y-73475000I200000J0D01*
G01*
X140100000Y-73475000D01*
G75*
G02*
X140300000Y-73675000I0J-200000D01*
G01*
X140300000Y-74925000D01*
G75*
G02*
X140100000Y-75125000I-200000J0D01*
G01*
X138600000Y-75125000D01*
G75*
G02*
X138400000Y-74925000I0J200000D01*
G01*
G37*
G36*
G01*
X138150000Y-81125000D02*
X138150000Y-79875000D01*
G75*
G02*
X138350000Y-79675000I200000J0D01*
G01*
X139850000Y-79675000D01*
G75*
G02*
X140050000Y-79875000I0J-200000D01*
G01*
X140050000Y-81125000D01*
G75*
G02*
X139850000Y-81325000I-200000J0D01*
G01*
X138350000Y-81325000D01*
G75*
G02*
X138150000Y-81125000I0J200000D01*
G01*
G37*
G36*
G01*
X140650000Y-81125000D02*
X140650000Y-79875000D01*
G75*
G02*
X140850000Y-79675000I200000J0D01*
G01*
X142350000Y-79675000D01*
G75*
G02*
X142550000Y-79875000I0J-200000D01*
G01*
X142550000Y-81125000D01*
G75*
G02*
X142350000Y-81325000I-200000J0D01*
G01*
X140850000Y-81325000D01*
G75*
G02*
X140650000Y-81125000I0J200000D01*
G01*
G37*
G36*
G01*
X140700000Y-84525000D02*
X140700000Y-83275000D01*
G75*
G02*
X140900000Y-83075000I200000J0D01*
G01*
X142400000Y-83075000D01*
G75*
G02*
X142600000Y-83275000I0J-200000D01*
G01*
X142600000Y-84525000D01*
G75*
G02*
X142400000Y-84725000I-200000J0D01*
G01*
X140900000Y-84725000D01*
G75*
G02*
X140700000Y-84525000I0J200000D01*
G01*
G37*
G36*
G01*
X138200000Y-84525000D02*
X138200000Y-83275000D01*
G75*
G02*
X138400000Y-83075000I200000J0D01*
G01*
X139900000Y-83075000D01*
G75*
G02*
X140100000Y-83275000I0J-200000D01*
G01*
X140100000Y-84525000D01*
G75*
G02*
X139900000Y-84725000I-200000J0D01*
G01*
X138400000Y-84725000D01*
G75*
G02*
X138200000Y-84525000I0J200000D01*
G01*
G37*
G36*
G01*
X148268630Y-91809187D02*
X147490813Y-91031370D01*
G75*
G02*
X147490813Y-90748528I141421J141421D01*
G01*
X148268630Y-89970711D01*
G75*
G02*
X148551472Y-89970711I141421J-141421D01*
G01*
X149329289Y-90748528D01*
G75*
G02*
X149329289Y-91031370I-141421J-141421D01*
G01*
X148551472Y-91809187D01*
G75*
G02*
X148268630Y-91809187I-141421J141421D01*
G01*
G37*
G36*
G01*
X150248528Y-89829289D02*
X149470711Y-89051472D01*
G75*
G02*
X149470711Y-88768630I141421J141421D01*
G01*
X150248528Y-87990813D01*
G75*
G02*
X150531370Y-87990813I141421J-141421D01*
G01*
X151309187Y-88768630D01*
G75*
G02*
X151309187Y-89051472I-141421J-141421D01*
G01*
X150531370Y-89829289D01*
G75*
G02*
X150248528Y-89829289I-141421J141421D01*
G01*
G37*
G36*
G01*
X150443503Y-82141421D02*
X149241421Y-83343503D01*
G75*
G02*
X148958579Y-83343503I-141421J141421D01*
G01*
X147756497Y-82141421D01*
G75*
G02*
X147756497Y-81858579I141421J141421D01*
G01*
X148958579Y-80656497D01*
G75*
G02*
X149241421Y-80656497I141421J-141421D01*
G01*
X150443503Y-81858579D01*
G75*
G02*
X150443503Y-82141421I-141421J-141421D01*
G01*
G37*
G36*
G01*
X151638513Y-80946411D02*
X151638513Y-80946411D01*
G75*
G02*
X150153589Y-80946411I-742462J742462D01*
G01*
X150153589Y-80946411D01*
G75*
G02*
X150153589Y-79461487I742462J742462D01*
G01*
X150153589Y-79461487D01*
G75*
G02*
X151638513Y-79461487I742462J-742462D01*
G01*
X151638513Y-79461487D01*
G75*
G02*
X151638513Y-80946411I-742462J-742462D01*
G01*
G37*
G36*
G01*
X119050000Y-106455000D02*
X119050000Y-105955000D01*
G75*
G02*
X119300000Y-105705000I250000J0D01*
G01*
X121150000Y-105705000D01*
G75*
G02*
X121400000Y-105955000I0J-250000D01*
G01*
X121400000Y-106455000D01*
G75*
G02*
X121150000Y-106705000I-250000J0D01*
G01*
X119300000Y-106705000D01*
G75*
G02*
X119050000Y-106455000I0J250000D01*
G01*
G37*
G36*
G01*
X119050000Y-105185000D02*
X119050000Y-104685000D01*
G75*
G02*
X119300000Y-104435000I250000J0D01*
G01*
X121150000Y-104435000D01*
G75*
G02*
X121400000Y-104685000I0J-250000D01*
G01*
X121400000Y-105185000D01*
G75*
G02*
X121150000Y-105435000I-250000J0D01*
G01*
X119300000Y-105435000D01*
G75*
G02*
X119050000Y-105185000I0J250000D01*
G01*
G37*
G36*
G01*
X119050000Y-103915000D02*
X119050000Y-103415000D01*
G75*
G02*
X119300000Y-103165000I250000J0D01*
G01*
X121150000Y-103165000D01*
G75*
G02*
X121400000Y-103415000I0J-250000D01*
G01*
X121400000Y-103915000D01*
G75*
G02*
X121150000Y-104165000I-250000J0D01*
G01*
X119300000Y-104165000D01*
G75*
G02*
X119050000Y-103915000I0J250000D01*
G01*
G37*
G36*
G01*
X119050000Y-102645000D02*
X119050000Y-102145000D01*
G75*
G02*
X119300000Y-101895000I250000J0D01*
G01*
X121150000Y-101895000D01*
G75*
G02*
X121400000Y-102145000I0J-250000D01*
G01*
X121400000Y-102645000D01*
G75*
G02*
X121150000Y-102895000I-250000J0D01*
G01*
X119300000Y-102895000D01*
G75*
G02*
X119050000Y-102645000I0J250000D01*
G01*
G37*
G36*
G01*
X124000000Y-102645000D02*
X124000000Y-102145000D01*
G75*
G02*
X124250000Y-101895000I250000J0D01*
G01*
X126100000Y-101895000D01*
G75*
G02*
X126350000Y-102145000I0J-250000D01*
G01*
X126350000Y-102645000D01*
G75*
G02*
X126100000Y-102895000I-250000J0D01*
G01*
X124250000Y-102895000D01*
G75*
G02*
X124000000Y-102645000I0J250000D01*
G01*
G37*
G36*
G01*
X124000000Y-103915000D02*
X124000000Y-103415000D01*
G75*
G02*
X124250000Y-103165000I250000J0D01*
G01*
X126100000Y-103165000D01*
G75*
G02*
X126350000Y-103415000I0J-250000D01*
G01*
X126350000Y-103915000D01*
G75*
G02*
X126100000Y-104165000I-250000J0D01*
G01*
X124250000Y-104165000D01*
G75*
G02*
X124000000Y-103915000I0J250000D01*
G01*
G37*
G36*
G01*
X124000000Y-105185000D02*
X124000000Y-104685000D01*
G75*
G02*
X124250000Y-104435000I250000J0D01*
G01*
X126100000Y-104435000D01*
G75*
G02*
X126350000Y-104685000I0J-250000D01*
G01*
X126350000Y-105185000D01*
G75*
G02*
X126100000Y-105435000I-250000J0D01*
G01*
X124250000Y-105435000D01*
G75*
G02*
X124000000Y-105185000I0J250000D01*
G01*
G37*
G36*
G01*
X124000000Y-106455000D02*
X124000000Y-105955000D01*
G75*
G02*
X124250000Y-105705000I250000J0D01*
G01*
X126100000Y-105705000D01*
G75*
G02*
X126350000Y-105955000I0J-250000D01*
G01*
X126350000Y-106455000D01*
G75*
G02*
X126100000Y-106705000I-250000J0D01*
G01*
X124250000Y-106705000D01*
G75*
G02*
X124000000Y-106455000I0J250000D01*
G01*
G37*
M02*
