%TF.GenerationSoftware,KiCad,Pcbnew,(5.1.2)-1*%
%TF.CreationDate,2019-06-19T00:35:12+02:00*%
%TF.ProjectId,Wheel_ECU,57686565-6c5f-4454-9355-2e6b69636164,1.0*%
%TF.SameCoordinates,Original*%
%TF.FileFunction,Copper,L2,Bot*%
%TF.FilePolarity,Positive*%
%FSLAX46Y46*%
G04 Gerber Fmt 4.6, Leading zero omitted, Abs format (unit mm)*
G04 Created by KiCad (PCBNEW (5.1.2)-1) date 2019-06-19 00:35:12*
%MOMM*%
%LPD*%
G04 APERTURE LIST*
%ADD10C,0.300000*%
%ADD11C,0.100000*%
%ADD12C,0.600000*%
%ADD13R,1.500000X1.250000*%
%ADD14C,1.250000*%
%ADD15C,1.700000*%
%ADD16C,1.700000*%
%ADD17R,2.000000X0.650000*%
%ADD18R,1.250000X1.500000*%
%ADD19R,4.400000X5.100000*%
%ADD20C,1.000000*%
%ADD21C,0.250000*%
%ADD22C,0.750000*%
%ADD23C,0.500000*%
%ADD24C,0.200000*%
G04 APERTURE END LIST*
D10*
X130433526Y-124622971D03*
D11*
G36*
X131034567Y-123809798D02*
G01*
X131246699Y-124021930D01*
X129832485Y-125436144D01*
X129620353Y-125224012D01*
X131034567Y-123809798D01*
X131034567Y-123809798D01*
G37*
D10*
X138848097Y-119319670D03*
D11*
G36*
X138034924Y-118718629D02*
G01*
X138247056Y-118506497D01*
X139661270Y-119920711D01*
X139449138Y-120132843D01*
X138034924Y-118718629D01*
X138034924Y-118718629D01*
G37*
D10*
X133544796Y-110905099D03*
D11*
G36*
X134145837Y-110091926D02*
G01*
X134357969Y-110304058D01*
X132943755Y-111718272D01*
X132731623Y-111506140D01*
X134145837Y-110091926D01*
X134145837Y-110091926D01*
G37*
D10*
X125130225Y-116208400D03*
D11*
G36*
X124317052Y-115607359D02*
G01*
X124529184Y-115395227D01*
X125943398Y-116809441D01*
X125731266Y-117021573D01*
X124317052Y-115607359D01*
X124317052Y-115607359D01*
G37*
D10*
X125483779Y-115854847D03*
D11*
G36*
X124670606Y-115253806D02*
G01*
X124882738Y-115041674D01*
X126296952Y-116455888D01*
X126084820Y-116668020D01*
X124670606Y-115253806D01*
X124670606Y-115253806D01*
G37*
D10*
X125837332Y-115501293D03*
D11*
G36*
X125024159Y-114900252D02*
G01*
X125236291Y-114688120D01*
X126650505Y-116102334D01*
X126438373Y-116314466D01*
X125024159Y-114900252D01*
X125024159Y-114900252D01*
G37*
D10*
X126190885Y-115147740D03*
D11*
G36*
X125377712Y-114546699D02*
G01*
X125589844Y-114334567D01*
X127004058Y-115748781D01*
X126791926Y-115960913D01*
X125377712Y-114546699D01*
X125377712Y-114546699D01*
G37*
D10*
X126544439Y-114794187D03*
D11*
G36*
X125731266Y-114193146D02*
G01*
X125943398Y-113981014D01*
X127357612Y-115395228D01*
X127145480Y-115607360D01*
X125731266Y-114193146D01*
X125731266Y-114193146D01*
G37*
D10*
X126897992Y-114440633D03*
D11*
G36*
X126084819Y-113839592D02*
G01*
X126296951Y-113627460D01*
X127711165Y-115041674D01*
X127499033Y-115253806D01*
X126084819Y-113839592D01*
X126084819Y-113839592D01*
G37*
D10*
X127251546Y-114087080D03*
D11*
G36*
X126438373Y-113486039D02*
G01*
X126650505Y-113273907D01*
X128064719Y-114688121D01*
X127852587Y-114900253D01*
X126438373Y-113486039D01*
X126438373Y-113486039D01*
G37*
D10*
X127605099Y-113733526D03*
D11*
G36*
X126791926Y-113132485D02*
G01*
X127004058Y-112920353D01*
X128418272Y-114334567D01*
X128206140Y-114546699D01*
X126791926Y-113132485D01*
X126791926Y-113132485D01*
G37*
D10*
X127958652Y-113379973D03*
D11*
G36*
X127145479Y-112778932D02*
G01*
X127357611Y-112566800D01*
X128771825Y-113981014D01*
X128559693Y-114193146D01*
X127145479Y-112778932D01*
X127145479Y-112778932D01*
G37*
D10*
X128312206Y-113026420D03*
D11*
G36*
X127499033Y-112425379D02*
G01*
X127711165Y-112213247D01*
X129125379Y-113627461D01*
X128913247Y-113839593D01*
X127499033Y-112425379D01*
X127499033Y-112425379D01*
G37*
D10*
X128665759Y-112672866D03*
D11*
G36*
X127852586Y-112071825D02*
G01*
X128064718Y-111859693D01*
X129478932Y-113273907D01*
X129266800Y-113486039D01*
X127852586Y-112071825D01*
X127852586Y-112071825D01*
G37*
D10*
X129019313Y-112319313D03*
D11*
G36*
X128206140Y-111718272D02*
G01*
X128418272Y-111506140D01*
X129832486Y-112920354D01*
X129620354Y-113132486D01*
X128206140Y-111718272D01*
X128206140Y-111718272D01*
G37*
D10*
X129372866Y-111965759D03*
D11*
G36*
X128559693Y-111364718D02*
G01*
X128771825Y-111152586D01*
X130186039Y-112566800D01*
X129973907Y-112778932D01*
X128559693Y-111364718D01*
X128559693Y-111364718D01*
G37*
D10*
X129726419Y-111612206D03*
D11*
G36*
X128913246Y-111011165D02*
G01*
X129125378Y-110799033D01*
X130539592Y-112213247D01*
X130327460Y-112425379D01*
X128913246Y-111011165D01*
X128913246Y-111011165D01*
G37*
D10*
X130079973Y-111258653D03*
D11*
G36*
X129266800Y-110657612D02*
G01*
X129478932Y-110445480D01*
X130893146Y-111859694D01*
X130681014Y-112071826D01*
X129266800Y-110657612D01*
X129266800Y-110657612D01*
G37*
D10*
X130433526Y-110905099D03*
D11*
G36*
X129620353Y-110304058D02*
G01*
X129832485Y-110091926D01*
X131246699Y-111506140D01*
X131034567Y-111718272D01*
X129620353Y-110304058D01*
X129620353Y-110304058D01*
G37*
D10*
X133898349Y-111258653D03*
D11*
G36*
X134499390Y-110445480D02*
G01*
X134711522Y-110657612D01*
X133297308Y-112071826D01*
X133085176Y-111859694D01*
X134499390Y-110445480D01*
X134499390Y-110445480D01*
G37*
D10*
X134251903Y-111612206D03*
D11*
G36*
X134852944Y-110799033D02*
G01*
X135065076Y-111011165D01*
X133650862Y-112425379D01*
X133438730Y-112213247D01*
X134852944Y-110799033D01*
X134852944Y-110799033D01*
G37*
D10*
X134605456Y-111965759D03*
D11*
G36*
X135206497Y-111152586D02*
G01*
X135418629Y-111364718D01*
X134004415Y-112778932D01*
X133792283Y-112566800D01*
X135206497Y-111152586D01*
X135206497Y-111152586D01*
G37*
D10*
X134959009Y-112319313D03*
D11*
G36*
X135560050Y-111506140D02*
G01*
X135772182Y-111718272D01*
X134357968Y-113132486D01*
X134145836Y-112920354D01*
X135560050Y-111506140D01*
X135560050Y-111506140D01*
G37*
D10*
X135312563Y-112672866D03*
D11*
G36*
X135913604Y-111859693D02*
G01*
X136125736Y-112071825D01*
X134711522Y-113486039D01*
X134499390Y-113273907D01*
X135913604Y-111859693D01*
X135913604Y-111859693D01*
G37*
D10*
X135666116Y-113026420D03*
D11*
G36*
X136267157Y-112213247D02*
G01*
X136479289Y-112425379D01*
X135065075Y-113839593D01*
X134852943Y-113627461D01*
X136267157Y-112213247D01*
X136267157Y-112213247D01*
G37*
D10*
X136019670Y-113379973D03*
D11*
G36*
X136620711Y-112566800D02*
G01*
X136832843Y-112778932D01*
X135418629Y-114193146D01*
X135206497Y-113981014D01*
X136620711Y-112566800D01*
X136620711Y-112566800D01*
G37*
D10*
X136373223Y-113733526D03*
D11*
G36*
X136974264Y-112920353D02*
G01*
X137186396Y-113132485D01*
X135772182Y-114546699D01*
X135560050Y-114334567D01*
X136974264Y-112920353D01*
X136974264Y-112920353D01*
G37*
D10*
X136726776Y-114087080D03*
D11*
G36*
X137327817Y-113273907D02*
G01*
X137539949Y-113486039D01*
X136125735Y-114900253D01*
X135913603Y-114688121D01*
X137327817Y-113273907D01*
X137327817Y-113273907D01*
G37*
D10*
X137080330Y-114440633D03*
D11*
G36*
X137681371Y-113627460D02*
G01*
X137893503Y-113839592D01*
X136479289Y-115253806D01*
X136267157Y-115041674D01*
X137681371Y-113627460D01*
X137681371Y-113627460D01*
G37*
D10*
X137433883Y-114794187D03*
D11*
G36*
X138034924Y-113981014D02*
G01*
X138247056Y-114193146D01*
X136832842Y-115607360D01*
X136620710Y-115395228D01*
X138034924Y-113981014D01*
X138034924Y-113981014D01*
G37*
D10*
X137787437Y-115147740D03*
D11*
G36*
X138388478Y-114334567D02*
G01*
X138600610Y-114546699D01*
X137186396Y-115960913D01*
X136974264Y-115748781D01*
X138388478Y-114334567D01*
X138388478Y-114334567D01*
G37*
D10*
X138140990Y-115501293D03*
D11*
G36*
X138742031Y-114688120D02*
G01*
X138954163Y-114900252D01*
X137539949Y-116314466D01*
X137327817Y-116102334D01*
X138742031Y-114688120D01*
X138742031Y-114688120D01*
G37*
D10*
X138494543Y-115854847D03*
D11*
G36*
X139095584Y-115041674D02*
G01*
X139307716Y-115253806D01*
X137893502Y-116668020D01*
X137681370Y-116455888D01*
X139095584Y-115041674D01*
X139095584Y-115041674D01*
G37*
D10*
X138848097Y-116208400D03*
D11*
G36*
X139449138Y-115395227D02*
G01*
X139661270Y-115607359D01*
X138247056Y-117021573D01*
X138034924Y-116809441D01*
X139449138Y-115395227D01*
X139449138Y-115395227D01*
G37*
D10*
X130079973Y-124269417D03*
D11*
G36*
X130681014Y-123456244D02*
G01*
X130893146Y-123668376D01*
X129478932Y-125082590D01*
X129266800Y-124870458D01*
X130681014Y-123456244D01*
X130681014Y-123456244D01*
G37*
D10*
X129726419Y-123915864D03*
D11*
G36*
X130327460Y-123102691D02*
G01*
X130539592Y-123314823D01*
X129125378Y-124729037D01*
X128913246Y-124516905D01*
X130327460Y-123102691D01*
X130327460Y-123102691D01*
G37*
D10*
X129372866Y-123562311D03*
D11*
G36*
X129973907Y-122749138D02*
G01*
X130186039Y-122961270D01*
X128771825Y-124375484D01*
X128559693Y-124163352D01*
X129973907Y-122749138D01*
X129973907Y-122749138D01*
G37*
D10*
X129019313Y-123208757D03*
D11*
G36*
X129620354Y-122395584D02*
G01*
X129832486Y-122607716D01*
X128418272Y-124021930D01*
X128206140Y-123809798D01*
X129620354Y-122395584D01*
X129620354Y-122395584D01*
G37*
D10*
X128665759Y-122855204D03*
D11*
G36*
X129266800Y-122042031D02*
G01*
X129478932Y-122254163D01*
X128064718Y-123668377D01*
X127852586Y-123456245D01*
X129266800Y-122042031D01*
X129266800Y-122042031D01*
G37*
D10*
X128312206Y-122501650D03*
D11*
G36*
X128913247Y-121688477D02*
G01*
X129125379Y-121900609D01*
X127711165Y-123314823D01*
X127499033Y-123102691D01*
X128913247Y-121688477D01*
X128913247Y-121688477D01*
G37*
D10*
X127958652Y-122148097D03*
D11*
G36*
X128559693Y-121334924D02*
G01*
X128771825Y-121547056D01*
X127357611Y-122961270D01*
X127145479Y-122749138D01*
X128559693Y-121334924D01*
X128559693Y-121334924D01*
G37*
D10*
X127605099Y-121794544D03*
D11*
G36*
X128206140Y-120981371D02*
G01*
X128418272Y-121193503D01*
X127004058Y-122607717D01*
X126791926Y-122395585D01*
X128206140Y-120981371D01*
X128206140Y-120981371D01*
G37*
D10*
X127251546Y-121440990D03*
D11*
G36*
X127852587Y-120627817D02*
G01*
X128064719Y-120839949D01*
X126650505Y-122254163D01*
X126438373Y-122042031D01*
X127852587Y-120627817D01*
X127852587Y-120627817D01*
G37*
D10*
X126897992Y-121087437D03*
D11*
G36*
X127499033Y-120274264D02*
G01*
X127711165Y-120486396D01*
X126296951Y-121900610D01*
X126084819Y-121688478D01*
X127499033Y-120274264D01*
X127499033Y-120274264D01*
G37*
D10*
X126544439Y-120733883D03*
D11*
G36*
X127145480Y-119920710D02*
G01*
X127357612Y-120132842D01*
X125943398Y-121547056D01*
X125731266Y-121334924D01*
X127145480Y-119920710D01*
X127145480Y-119920710D01*
G37*
D10*
X126190885Y-120380330D03*
D11*
G36*
X126791926Y-119567157D02*
G01*
X127004058Y-119779289D01*
X125589844Y-121193503D01*
X125377712Y-120981371D01*
X126791926Y-119567157D01*
X126791926Y-119567157D01*
G37*
D10*
X125837332Y-120026777D03*
D11*
G36*
X126438373Y-119213604D02*
G01*
X126650505Y-119425736D01*
X125236291Y-120839950D01*
X125024159Y-120627818D01*
X126438373Y-119213604D01*
X126438373Y-119213604D01*
G37*
D10*
X125483779Y-119673223D03*
D11*
G36*
X126084820Y-118860050D02*
G01*
X126296952Y-119072182D01*
X124882738Y-120486396D01*
X124670606Y-120274264D01*
X126084820Y-118860050D01*
X126084820Y-118860050D01*
G37*
D10*
X125130225Y-119319670D03*
D11*
G36*
X125731266Y-118506497D02*
G01*
X125943398Y-118718629D01*
X124529184Y-120132843D01*
X124317052Y-119920711D01*
X125731266Y-118506497D01*
X125731266Y-118506497D01*
G37*
D10*
X138494543Y-119673223D03*
D11*
G36*
X137681370Y-119072182D02*
G01*
X137893502Y-118860050D01*
X139307716Y-120274264D01*
X139095584Y-120486396D01*
X137681370Y-119072182D01*
X137681370Y-119072182D01*
G37*
D10*
X138140990Y-120026777D03*
D11*
G36*
X137327817Y-119425736D02*
G01*
X137539949Y-119213604D01*
X138954163Y-120627818D01*
X138742031Y-120839950D01*
X137327817Y-119425736D01*
X137327817Y-119425736D01*
G37*
D10*
X137787437Y-120380330D03*
D11*
G36*
X136974264Y-119779289D02*
G01*
X137186396Y-119567157D01*
X138600610Y-120981371D01*
X138388478Y-121193503D01*
X136974264Y-119779289D01*
X136974264Y-119779289D01*
G37*
D10*
X137433883Y-120733883D03*
D11*
G36*
X136620710Y-120132842D02*
G01*
X136832842Y-119920710D01*
X138247056Y-121334924D01*
X138034924Y-121547056D01*
X136620710Y-120132842D01*
X136620710Y-120132842D01*
G37*
D10*
X137080330Y-121087437D03*
D11*
G36*
X136267157Y-120486396D02*
G01*
X136479289Y-120274264D01*
X137893503Y-121688478D01*
X137681371Y-121900610D01*
X136267157Y-120486396D01*
X136267157Y-120486396D01*
G37*
D10*
X136726776Y-121440990D03*
D11*
G36*
X135913603Y-120839949D02*
G01*
X136125735Y-120627817D01*
X137539949Y-122042031D01*
X137327817Y-122254163D01*
X135913603Y-120839949D01*
X135913603Y-120839949D01*
G37*
D10*
X136373223Y-121794544D03*
D11*
G36*
X135560050Y-121193503D02*
G01*
X135772182Y-120981371D01*
X137186396Y-122395585D01*
X136974264Y-122607717D01*
X135560050Y-121193503D01*
X135560050Y-121193503D01*
G37*
D10*
X136019670Y-122148097D03*
D11*
G36*
X135206497Y-121547056D02*
G01*
X135418629Y-121334924D01*
X136832843Y-122749138D01*
X136620711Y-122961270D01*
X135206497Y-121547056D01*
X135206497Y-121547056D01*
G37*
D10*
X135666116Y-122501650D03*
D11*
G36*
X134852943Y-121900609D02*
G01*
X135065075Y-121688477D01*
X136479289Y-123102691D01*
X136267157Y-123314823D01*
X134852943Y-121900609D01*
X134852943Y-121900609D01*
G37*
D10*
X135312563Y-122855204D03*
D11*
G36*
X134499390Y-122254163D02*
G01*
X134711522Y-122042031D01*
X136125736Y-123456245D01*
X135913604Y-123668377D01*
X134499390Y-122254163D01*
X134499390Y-122254163D01*
G37*
D10*
X134959009Y-123208757D03*
D11*
G36*
X134145836Y-122607716D02*
G01*
X134357968Y-122395584D01*
X135772182Y-123809798D01*
X135560050Y-124021930D01*
X134145836Y-122607716D01*
X134145836Y-122607716D01*
G37*
D10*
X134605456Y-123562311D03*
D11*
G36*
X133792283Y-122961270D02*
G01*
X134004415Y-122749138D01*
X135418629Y-124163352D01*
X135206497Y-124375484D01*
X133792283Y-122961270D01*
X133792283Y-122961270D01*
G37*
D10*
X134251903Y-123915864D03*
D11*
G36*
X133438730Y-123314823D02*
G01*
X133650862Y-123102691D01*
X135065076Y-124516905D01*
X134852944Y-124729037D01*
X133438730Y-123314823D01*
X133438730Y-123314823D01*
G37*
D10*
X133898349Y-124269417D03*
D11*
G36*
X133085176Y-123668376D02*
G01*
X133297308Y-123456244D01*
X134711522Y-124870458D01*
X134499390Y-125082590D01*
X133085176Y-123668376D01*
X133085176Y-123668376D01*
G37*
D10*
X133544796Y-124622971D03*
D11*
G36*
X132731623Y-124021930D02*
G01*
X132943755Y-123809798D01*
X134357969Y-125224012D01*
X134145837Y-125436144D01*
X132731623Y-124021930D01*
X132731623Y-124021930D01*
G37*
D12*
X155920610Y-115534941D03*
X152114278Y-119911395D03*
X147527280Y-123461179D03*
X142335891Y-126047875D03*
X136739614Y-127572079D03*
X130953510Y-127975217D03*
X125199937Y-127241795D03*
X119700000Y-125400000D03*
X114665059Y-122520610D03*
X110288605Y-118714278D03*
X106738821Y-114127280D03*
X104152125Y-108935891D03*
X102627921Y-103339614D03*
X102224783Y-97553510D03*
X102958205Y-91799937D03*
X104800000Y-86300000D03*
X107679390Y-81265059D03*
X111485722Y-76888605D03*
X116072720Y-73338821D03*
X121264109Y-70752125D03*
X126860386Y-69227921D03*
X132646490Y-68824783D03*
X138400063Y-69558205D03*
X143900000Y-71400000D03*
X148934941Y-74279390D03*
X153311395Y-78085722D03*
X156861179Y-82672720D03*
X159447875Y-87864109D03*
X160972079Y-93460386D03*
X161375217Y-99246490D03*
X160641795Y-105000063D03*
D13*
X117600000Y-102850000D03*
X115100000Y-102850000D03*
D14*
X140216117Y-122883883D03*
D11*
G36*
X140127729Y-123856155D02*
G01*
X139243845Y-122972271D01*
X140304505Y-121911611D01*
X141188389Y-122795495D01*
X140127729Y-123856155D01*
X140127729Y-123856155D01*
G37*
D14*
X141983883Y-121116117D03*
D11*
G36*
X141895495Y-122088389D02*
G01*
X141011611Y-121204505D01*
X142072271Y-120143845D01*
X142956155Y-121027729D01*
X141895495Y-122088389D01*
X141895495Y-122088389D01*
G37*
D15*
X149003949Y-95296051D03*
D11*
G36*
X150206031Y-95296051D02*
G01*
X149003949Y-96498133D01*
X147801867Y-95296051D01*
X149003949Y-94093969D01*
X150206031Y-95296051D01*
X150206031Y-95296051D01*
G37*
D15*
X150800000Y-93500000D03*
D16*
X150800000Y-93500000D02*
X150800000Y-93500000D01*
D15*
X152596051Y-91703949D03*
D16*
X152596051Y-91703949D02*
X152596051Y-91703949D01*
D15*
X154392103Y-89907897D03*
D16*
X154392103Y-89907897D02*
X154392103Y-89907897D01*
D15*
X149003949Y-102403949D03*
D11*
G36*
X149003949Y-103606031D02*
G01*
X147801867Y-102403949D01*
X149003949Y-101201867D01*
X150206031Y-102403949D01*
X149003949Y-103606031D01*
X149003949Y-103606031D01*
G37*
D15*
X150800000Y-104200000D03*
D16*
X150800000Y-104200000D02*
X150800000Y-104200000D01*
D15*
X152596051Y-105996051D03*
D16*
X152596051Y-105996051D02*
X152596051Y-105996051D01*
D15*
X154392103Y-107792103D03*
D16*
X154392103Y-107792103D02*
X154392103Y-107792103D01*
D17*
X114640000Y-99500000D03*
X114640000Y-97600000D03*
X118060000Y-98550000D03*
D14*
X123283883Y-122083883D03*
D11*
G36*
X124256155Y-122172271D02*
G01*
X123372271Y-123056155D01*
X122311611Y-121995495D01*
X123195495Y-121111611D01*
X124256155Y-122172271D01*
X124256155Y-122172271D01*
G37*
D14*
X121516117Y-120316117D03*
D11*
G36*
X122488389Y-120404505D02*
G01*
X121604505Y-121288389D01*
X120543845Y-120227729D01*
X121427729Y-119343845D01*
X122488389Y-120404505D01*
X122488389Y-120404505D01*
G37*
D12*
X158800000Y-110500000D03*
D18*
X135800000Y-76950000D03*
X135800000Y-74450000D03*
D19*
X131700000Y-75700000D03*
D12*
X148000000Y-111400000D03*
X148000000Y-105900000D03*
X128300000Y-116100000D03*
X131700000Y-122800000D03*
X132300000Y-109400000D03*
X140300000Y-117400000D03*
X110300000Y-95800000D03*
X110300000Y-99400000D03*
X143600000Y-75800000D03*
X145200000Y-79700000D03*
X138300000Y-71900000D03*
X123100000Y-115500000D03*
X154000000Y-111100000D03*
X151200000Y-111100000D03*
X119100000Y-122000000D03*
X143500000Y-120000000D03*
X124400000Y-114100000D03*
X134300000Y-114900000D03*
X116100000Y-95800012D03*
X116124979Y-100800000D03*
X138500000Y-79100000D03*
X120500000Y-94700000D03*
X128100000Y-125400000D03*
X139800000Y-121200000D03*
X125550000Y-123500000D03*
X126400000Y-123900000D03*
X134600000Y-117300006D03*
X107600000Y-106400000D03*
X135500000Y-117600004D03*
X113099998Y-104800000D03*
X133700000Y-120200000D03*
X110600000Y-101100000D03*
X136400000Y-111100000D03*
X137600000Y-111300006D03*
X138700000Y-122100000D03*
X129300000Y-119300000D03*
X129800000Y-118300000D03*
X129384860Y-117564673D03*
X126200000Y-80600000D03*
X137300000Y-81800000D03*
X135700000Y-115900000D03*
X120900000Y-81800000D03*
X124999992Y-75200000D03*
X121158051Y-75858050D03*
X122500000Y-75300000D03*
X138900000Y-75300028D03*
D20*
X154392103Y-107792103D02*
X154392103Y-89907897D01*
D21*
X130200000Y-125256497D02*
X130200000Y-125800000D01*
X130000000Y-125056497D02*
X130200000Y-125256497D01*
X130610303Y-124446194D02*
X130000000Y-125056497D01*
X135489340Y-113203196D02*
X136392536Y-112300000D01*
X134792536Y-113900000D02*
X134100000Y-113900000D01*
X135489340Y-113203196D02*
X134792536Y-113900000D01*
X140216117Y-122883883D02*
X136900000Y-126200000D01*
X136900000Y-126200000D02*
X132364109Y-126200000D01*
X132364109Y-126200000D02*
X130787079Y-124622970D01*
X130787079Y-124622970D02*
X130610303Y-124446194D01*
D20*
X154392103Y-88705816D02*
X151200000Y-85513713D01*
X154392103Y-89907897D02*
X154392103Y-88705816D01*
X151200000Y-85513713D02*
X151200000Y-83300000D01*
D21*
X123985177Y-116385177D02*
X123399999Y-115799999D01*
X123399999Y-115799999D02*
X123100000Y-115500000D01*
X125307002Y-116385177D02*
X123985177Y-116385177D01*
D22*
X151200000Y-111100000D02*
X154000000Y-111100000D01*
D20*
X119524264Y-122000000D02*
X119100000Y-122000000D01*
X119832234Y-122000000D02*
X119524264Y-122000000D01*
X121516117Y-120316117D02*
X119832234Y-122000000D01*
D21*
X141983883Y-121116117D02*
X142383883Y-121116117D01*
X142383883Y-121116117D02*
X143500000Y-120000000D01*
X124400000Y-114100000D02*
X124400000Y-114771068D01*
X124400000Y-114771068D02*
X125660555Y-116031623D01*
X134724264Y-114900000D02*
X134300000Y-114900000D01*
X135206749Y-114900000D02*
X134724264Y-114900000D01*
X136196446Y-113910303D02*
X135206749Y-114900000D01*
X135842893Y-113556750D02*
X134499643Y-114900000D01*
X134499643Y-114900000D02*
X134300000Y-114900000D01*
D20*
X115100000Y-102850000D02*
X115100000Y-101225000D01*
X115100000Y-101225000D02*
X115525000Y-100800000D01*
X115525000Y-100800000D02*
X116100000Y-100800000D01*
X114800000Y-99500000D02*
X116100000Y-100800000D01*
X114640000Y-99500000D02*
X114800000Y-99500000D01*
X116100000Y-100800000D02*
X116124979Y-100800000D01*
D23*
X135800000Y-76950000D02*
X135800000Y-77075000D01*
X135800000Y-77075000D02*
X137825000Y-79100000D01*
X138075736Y-79100000D02*
X138500000Y-79100000D01*
X137825000Y-79100000D02*
X138075736Y-79100000D01*
D21*
X120075736Y-94700000D02*
X120500000Y-94700000D01*
X130256749Y-124092641D02*
X128949390Y-125400000D01*
X128524264Y-125400000D02*
X128100000Y-125400000D01*
X128949390Y-125400000D02*
X128524264Y-125400000D01*
X137964213Y-119850000D02*
X139314213Y-121200000D01*
X139375736Y-121200000D02*
X139800000Y-121200000D01*
X139314213Y-121200000D02*
X139375736Y-121200000D01*
D22*
X117200012Y-94700000D02*
X116100000Y-95800012D01*
X120500000Y-94700000D02*
X117200012Y-94700000D01*
D21*
X125550000Y-123500000D02*
X125700000Y-123350000D01*
X125700000Y-123350000D02*
X125700000Y-122992536D01*
X125700000Y-122992536D02*
X126827282Y-121865254D01*
X126827282Y-121865254D02*
X127428322Y-121264214D01*
X126400000Y-123900000D02*
X126400000Y-122964304D01*
X126400000Y-122964304D02*
X127482152Y-121882152D01*
X137474391Y-116874999D02*
X135025007Y-116874999D01*
X138317767Y-116031623D02*
X137474391Y-116874999D01*
X135025007Y-116874999D02*
X134899999Y-117000007D01*
X134899999Y-117000007D02*
X134600000Y-117300006D01*
X138671320Y-116385177D02*
X137456493Y-117600004D01*
X137456493Y-117600004D02*
X137399996Y-117600004D01*
X137399996Y-117600004D02*
X135500000Y-117600004D01*
X109200000Y-104800000D02*
X112675734Y-104800000D01*
X112675734Y-104800000D02*
X113099998Y-104800000D01*
X107600000Y-106400000D02*
X109200000Y-104800000D01*
X133999999Y-119900001D02*
X133700000Y-120200000D01*
X134399999Y-119500001D02*
X133999999Y-119900001D01*
X137610660Y-120203553D02*
X136907108Y-119500001D01*
X136907108Y-119500001D02*
X134399999Y-119500001D01*
X110600000Y-100965000D02*
X110600000Y-101100000D01*
X114640000Y-97600000D02*
X113965000Y-97600000D01*
X113965000Y-97600000D02*
X110600000Y-100965000D01*
X136400000Y-111100000D02*
X135471215Y-111100000D01*
X135471215Y-111100000D02*
X134428679Y-112142536D01*
X136699995Y-110400001D02*
X137300001Y-111000007D01*
X135464108Y-110400001D02*
X136699995Y-110400001D01*
X134075126Y-111788983D02*
X135464108Y-110400001D01*
X137300001Y-111000007D02*
X137600000Y-111300006D01*
X138275736Y-122100000D02*
X138700000Y-122100000D01*
X138092893Y-122100000D02*
X138275736Y-122100000D01*
X136903553Y-120910660D02*
X138092893Y-122100000D01*
X126615149Y-119248960D02*
X125837332Y-120026777D01*
X126864108Y-119000001D02*
X126615149Y-119248960D01*
X129000001Y-119000001D02*
X126864108Y-119000001D01*
X129300000Y-119300000D02*
X129000001Y-119000001D01*
X129375736Y-118300000D02*
X129800000Y-118300000D01*
X125660555Y-119496447D02*
X126857002Y-118300000D01*
X126857002Y-118300000D02*
X129375736Y-118300000D01*
X125307002Y-119142893D02*
X126885222Y-117564673D01*
X128960596Y-117564673D02*
X129384860Y-117564673D01*
X126885222Y-117564673D02*
X128960596Y-117564673D01*
X127400000Y-81800000D02*
X136875736Y-81800000D01*
X136875736Y-81800000D02*
X137300000Y-81800000D01*
X126200000Y-80600000D02*
X127400000Y-81800000D01*
X137433883Y-114794187D02*
X136328070Y-115900000D01*
X136328070Y-115900000D02*
X135700000Y-115900000D01*
X120900000Y-81800000D02*
X124999992Y-77700008D01*
X124999992Y-77700008D02*
X124999992Y-75624264D01*
X124999992Y-75624264D02*
X124999992Y-75200000D01*
X120858052Y-76158049D02*
X121158051Y-75858050D01*
X105600000Y-107100000D02*
X105600000Y-91416101D01*
X122824985Y-114250011D02*
X112750011Y-114250011D01*
X105600000Y-91416101D02*
X120858052Y-76158049D01*
X127174023Y-112595344D02*
X124479652Y-112595344D01*
X124479652Y-112595344D02*
X122824985Y-114250011D01*
X112750011Y-114250011D02*
X105600000Y-107100000D01*
X127958652Y-113379973D02*
X127174023Y-112595344D01*
X122638585Y-113800000D02*
X113000000Y-113800000D01*
X122500000Y-75724264D02*
X122500000Y-75300000D01*
X106100000Y-106900000D02*
X106100000Y-92124264D01*
X113000000Y-113800000D02*
X106100000Y-106900000D01*
X127431119Y-112145333D02*
X124293252Y-112145333D01*
X128312206Y-113026420D02*
X127431119Y-112145333D01*
X124293252Y-112145333D02*
X122638585Y-113800000D01*
X106100000Y-92124264D02*
X122500000Y-75724264D01*
X127688216Y-111695323D02*
X127617519Y-111695323D01*
X128665759Y-112672866D02*
X127688216Y-111695323D01*
X127688216Y-111695323D02*
X124106851Y-111695323D01*
X124106851Y-111695323D02*
X122502174Y-113300000D01*
X138600001Y-75000029D02*
X138900000Y-75300028D01*
X106600000Y-92400000D02*
X127100000Y-71900000D01*
X122502174Y-113300000D02*
X113336410Y-113300000D01*
X113336410Y-113300000D02*
X106600000Y-106563590D01*
X135499972Y-71900000D02*
X138600001Y-75000029D01*
X106600000Y-106563590D02*
X106600000Y-92400000D01*
X127100000Y-71900000D02*
X135499972Y-71900000D01*
D24*
G36*
X133835369Y-68544134D02*
G01*
X135964778Y-68766066D01*
X138072870Y-69139676D01*
X140148855Y-69663054D01*
X142182106Y-70333520D01*
X144162218Y-71147642D01*
X146079054Y-72101254D01*
X147922804Y-73189474D01*
X149684031Y-74406732D01*
X151353719Y-75746799D01*
X152923323Y-77202814D01*
X154384808Y-78767326D01*
X155730695Y-80432326D01*
X156266139Y-81201297D01*
X145239622Y-89077380D01*
X145293659Y-88976284D01*
X145470920Y-88391931D01*
X145530774Y-87784225D01*
X145470920Y-87176519D01*
X145293659Y-86592167D01*
X145005801Y-86053625D01*
X144618412Y-85581588D01*
X144146375Y-85194199D01*
X143607833Y-84906341D01*
X143023481Y-84729080D01*
X142415775Y-84669226D01*
X141808069Y-84729080D01*
X141223716Y-84906341D01*
X140685174Y-85194199D01*
X140331427Y-85484511D01*
X135484511Y-90331428D01*
X135194199Y-90685175D01*
X134906341Y-91223717D01*
X134729080Y-91808070D01*
X134669226Y-92415775D01*
X134729080Y-93023480D01*
X134906341Y-93607833D01*
X135194199Y-94146375D01*
X135581589Y-94618411D01*
X136053625Y-95005801D01*
X136560516Y-95276741D01*
X136077401Y-95621824D01*
X135761429Y-95148939D01*
X135051061Y-94438571D01*
X134215756Y-93880438D01*
X133287615Y-93495990D01*
X132302306Y-93300000D01*
X131297694Y-93300000D01*
X130312385Y-93495990D01*
X129384244Y-93880438D01*
X129284326Y-93947201D01*
X129252930Y-82425000D01*
X136795416Y-82425000D01*
X136921058Y-82508951D01*
X137066649Y-82569257D01*
X137221207Y-82600000D01*
X137378793Y-82600000D01*
X137533351Y-82569257D01*
X137678942Y-82508951D01*
X137809970Y-82421401D01*
X137921401Y-82309970D01*
X138008951Y-82178942D01*
X138069257Y-82033351D01*
X138100000Y-81878793D01*
X138100000Y-81721207D01*
X138069257Y-81566649D01*
X138008951Y-81421058D01*
X137921401Y-81290030D01*
X137809970Y-81178599D01*
X137678942Y-81091049D01*
X137533351Y-81030743D01*
X137378793Y-81000000D01*
X137221207Y-81000000D01*
X137066649Y-81030743D01*
X136921058Y-81091049D01*
X136795416Y-81175000D01*
X129249524Y-81175000D01*
X129235968Y-76200000D01*
X134672581Y-76200000D01*
X134672581Y-77700000D01*
X134682235Y-77798017D01*
X134710825Y-77892267D01*
X134757254Y-77979129D01*
X134819736Y-78055264D01*
X134895871Y-78117746D01*
X134982733Y-78164175D01*
X135076983Y-78192765D01*
X135175000Y-78202419D01*
X135866759Y-78202419D01*
X137268630Y-79604291D01*
X137292105Y-79632895D01*
X137320708Y-79656369D01*
X137320715Y-79656376D01*
X137394925Y-79717278D01*
X137406307Y-79726619D01*
X137536599Y-79796261D01*
X137677974Y-79839147D01*
X137788165Y-79850000D01*
X137788174Y-79850000D01*
X137824999Y-79853627D01*
X137861824Y-79850000D01*
X138220159Y-79850000D01*
X138266649Y-79869257D01*
X138421207Y-79900000D01*
X138578793Y-79900000D01*
X138733351Y-79869257D01*
X138878942Y-79808951D01*
X139009970Y-79721401D01*
X139121401Y-79609970D01*
X139208951Y-79478942D01*
X139269257Y-79333351D01*
X139300000Y-79178793D01*
X139300000Y-79021207D01*
X139269257Y-78866649D01*
X139208951Y-78721058D01*
X139121401Y-78590030D01*
X139009970Y-78478599D01*
X138878942Y-78391049D01*
X138733351Y-78330743D01*
X138578793Y-78300000D01*
X138421207Y-78300000D01*
X138266649Y-78330743D01*
X138220159Y-78350000D01*
X138135661Y-78350000D01*
X136927419Y-77141759D01*
X136927419Y-76200000D01*
X136917765Y-76101983D01*
X136889175Y-76007733D01*
X136842746Y-75920871D01*
X136780264Y-75844736D01*
X136704129Y-75782254D01*
X136617267Y-75735825D01*
X136523017Y-75707235D01*
X136425000Y-75697581D01*
X135175000Y-75697581D01*
X135076983Y-75707235D01*
X134982733Y-75735825D01*
X134895871Y-75782254D01*
X134819736Y-75844736D01*
X134757254Y-75920871D01*
X134710825Y-76007733D01*
X134682235Y-76101983D01*
X134672581Y-76200000D01*
X129235968Y-76200000D01*
X129225954Y-72525000D01*
X135241090Y-72525000D01*
X138101264Y-75385175D01*
X138130743Y-75533379D01*
X138191049Y-75678970D01*
X138278599Y-75809998D01*
X138390030Y-75921429D01*
X138521058Y-76008979D01*
X138666649Y-76069285D01*
X138821207Y-76100028D01*
X138978793Y-76100028D01*
X139133351Y-76069285D01*
X139278942Y-76008979D01*
X139409970Y-75921429D01*
X139521401Y-75809998D01*
X139608951Y-75678970D01*
X139669257Y-75533379D01*
X139700000Y-75378821D01*
X139700000Y-75221235D01*
X139669257Y-75066677D01*
X139608951Y-74921086D01*
X139521401Y-74790058D01*
X139409970Y-74678627D01*
X139278942Y-74591077D01*
X139133351Y-74530771D01*
X138985147Y-74501292D01*
X135963630Y-71479776D01*
X135944052Y-71455920D01*
X135848883Y-71377817D01*
X135740306Y-71319781D01*
X135622493Y-71284043D01*
X135530676Y-71275000D01*
X135530666Y-71275000D01*
X135499972Y-71271977D01*
X135469278Y-71275000D01*
X129222548Y-71275000D01*
X129215251Y-68597019D01*
X129556249Y-68559071D01*
X131695542Y-68475018D01*
X133835369Y-68544134D01*
X133835369Y-68544134D01*
G37*
X133835369Y-68544134D02*
X135964778Y-68766066D01*
X138072870Y-69139676D01*
X140148855Y-69663054D01*
X142182106Y-70333520D01*
X144162218Y-71147642D01*
X146079054Y-72101254D01*
X147922804Y-73189474D01*
X149684031Y-74406732D01*
X151353719Y-75746799D01*
X152923323Y-77202814D01*
X154384808Y-78767326D01*
X155730695Y-80432326D01*
X156266139Y-81201297D01*
X145239622Y-89077380D01*
X145293659Y-88976284D01*
X145470920Y-88391931D01*
X145530774Y-87784225D01*
X145470920Y-87176519D01*
X145293659Y-86592167D01*
X145005801Y-86053625D01*
X144618412Y-85581588D01*
X144146375Y-85194199D01*
X143607833Y-84906341D01*
X143023481Y-84729080D01*
X142415775Y-84669226D01*
X141808069Y-84729080D01*
X141223716Y-84906341D01*
X140685174Y-85194199D01*
X140331427Y-85484511D01*
X135484511Y-90331428D01*
X135194199Y-90685175D01*
X134906341Y-91223717D01*
X134729080Y-91808070D01*
X134669226Y-92415775D01*
X134729080Y-93023480D01*
X134906341Y-93607833D01*
X135194199Y-94146375D01*
X135581589Y-94618411D01*
X136053625Y-95005801D01*
X136560516Y-95276741D01*
X136077401Y-95621824D01*
X135761429Y-95148939D01*
X135051061Y-94438571D01*
X134215756Y-93880438D01*
X133287615Y-93495990D01*
X132302306Y-93300000D01*
X131297694Y-93300000D01*
X130312385Y-93495990D01*
X129384244Y-93880438D01*
X129284326Y-93947201D01*
X129252930Y-82425000D01*
X136795416Y-82425000D01*
X136921058Y-82508951D01*
X137066649Y-82569257D01*
X137221207Y-82600000D01*
X137378793Y-82600000D01*
X137533351Y-82569257D01*
X137678942Y-82508951D01*
X137809970Y-82421401D01*
X137921401Y-82309970D01*
X138008951Y-82178942D01*
X138069257Y-82033351D01*
X138100000Y-81878793D01*
X138100000Y-81721207D01*
X138069257Y-81566649D01*
X138008951Y-81421058D01*
X137921401Y-81290030D01*
X137809970Y-81178599D01*
X137678942Y-81091049D01*
X137533351Y-81030743D01*
X137378793Y-81000000D01*
X137221207Y-81000000D01*
X137066649Y-81030743D01*
X136921058Y-81091049D01*
X136795416Y-81175000D01*
X129249524Y-81175000D01*
X129235968Y-76200000D01*
X134672581Y-76200000D01*
X134672581Y-77700000D01*
X134682235Y-77798017D01*
X134710825Y-77892267D01*
X134757254Y-77979129D01*
X134819736Y-78055264D01*
X134895871Y-78117746D01*
X134982733Y-78164175D01*
X135076983Y-78192765D01*
X135175000Y-78202419D01*
X135866759Y-78202419D01*
X137268630Y-79604291D01*
X137292105Y-79632895D01*
X137320708Y-79656369D01*
X137320715Y-79656376D01*
X137394925Y-79717278D01*
X137406307Y-79726619D01*
X137536599Y-79796261D01*
X137677974Y-79839147D01*
X137788165Y-79850000D01*
X137788174Y-79850000D01*
X137824999Y-79853627D01*
X137861824Y-79850000D01*
X138220159Y-79850000D01*
X138266649Y-79869257D01*
X138421207Y-79900000D01*
X138578793Y-79900000D01*
X138733351Y-79869257D01*
X138878942Y-79808951D01*
X139009970Y-79721401D01*
X139121401Y-79609970D01*
X139208951Y-79478942D01*
X139269257Y-79333351D01*
X139300000Y-79178793D01*
X139300000Y-79021207D01*
X139269257Y-78866649D01*
X139208951Y-78721058D01*
X139121401Y-78590030D01*
X139009970Y-78478599D01*
X138878942Y-78391049D01*
X138733351Y-78330743D01*
X138578793Y-78300000D01*
X138421207Y-78300000D01*
X138266649Y-78330743D01*
X138220159Y-78350000D01*
X138135661Y-78350000D01*
X136927419Y-77141759D01*
X136927419Y-76200000D01*
X136917765Y-76101983D01*
X136889175Y-76007733D01*
X136842746Y-75920871D01*
X136780264Y-75844736D01*
X136704129Y-75782254D01*
X136617267Y-75735825D01*
X136523017Y-75707235D01*
X136425000Y-75697581D01*
X135175000Y-75697581D01*
X135076983Y-75707235D01*
X134982733Y-75735825D01*
X134895871Y-75782254D01*
X134819736Y-75844736D01*
X134757254Y-75920871D01*
X134710825Y-76007733D01*
X134682235Y-76101983D01*
X134672581Y-76200000D01*
X129235968Y-76200000D01*
X129225954Y-72525000D01*
X135241090Y-72525000D01*
X138101264Y-75385175D01*
X138130743Y-75533379D01*
X138191049Y-75678970D01*
X138278599Y-75809998D01*
X138390030Y-75921429D01*
X138521058Y-76008979D01*
X138666649Y-76069285D01*
X138821207Y-76100028D01*
X138978793Y-76100028D01*
X139133351Y-76069285D01*
X139278942Y-76008979D01*
X139409970Y-75921429D01*
X139521401Y-75809998D01*
X139608951Y-75678970D01*
X139669257Y-75533379D01*
X139700000Y-75378821D01*
X139700000Y-75221235D01*
X139669257Y-75066677D01*
X139608951Y-74921086D01*
X139521401Y-74790058D01*
X139409970Y-74678627D01*
X139278942Y-74591077D01*
X139133351Y-74530771D01*
X138985147Y-74501292D01*
X135963630Y-71479776D01*
X135944052Y-71455920D01*
X135848883Y-71377817D01*
X135740306Y-71319781D01*
X135622493Y-71284043D01*
X135530676Y-71275000D01*
X135530666Y-71275000D01*
X135499972Y-71271977D01*
X135469278Y-71275000D01*
X129222548Y-71275000D01*
X129215251Y-68597019D01*
X129556249Y-68559071D01*
X131695542Y-68475018D01*
X133835369Y-68544134D01*
G36*
X128724749Y-71275000D02*
G01*
X127130693Y-71275000D01*
X127099999Y-71271977D01*
X127069305Y-71275000D01*
X127069296Y-71275000D01*
X126977479Y-71284043D01*
X126859666Y-71319781D01*
X126751089Y-71377817D01*
X126655920Y-71455920D01*
X126636346Y-71479771D01*
X123203387Y-74912730D01*
X123121401Y-74790030D01*
X123009970Y-74678599D01*
X122878942Y-74591049D01*
X122733351Y-74530743D01*
X122578793Y-74500000D01*
X122421207Y-74500000D01*
X122266649Y-74530743D01*
X122121058Y-74591049D01*
X121990030Y-74678599D01*
X121878599Y-74790030D01*
X121791049Y-74921058D01*
X121730743Y-75066649D01*
X121700000Y-75221207D01*
X121700000Y-75268628D01*
X121668021Y-75236649D01*
X121536993Y-75149099D01*
X121391402Y-75088793D01*
X121236844Y-75058050D01*
X121079258Y-75058050D01*
X120924700Y-75088793D01*
X120779109Y-75149099D01*
X120648081Y-75236649D01*
X120536650Y-75348080D01*
X120449100Y-75479108D01*
X120388794Y-75624699D01*
X120359315Y-75772903D01*
X105179772Y-90952447D01*
X105155921Y-90972021D01*
X105136348Y-90995871D01*
X105077818Y-91067190D01*
X105019782Y-91175767D01*
X104984044Y-91293580D01*
X104971977Y-91416101D01*
X104975001Y-91446805D01*
X104975000Y-107069306D01*
X104971977Y-107100000D01*
X104975000Y-107130694D01*
X104975000Y-107130703D01*
X104984043Y-107222520D01*
X105019781Y-107340333D01*
X105077817Y-107448910D01*
X105155920Y-107544080D01*
X105179776Y-107563658D01*
X112286362Y-114670246D01*
X112305931Y-114694091D01*
X112329776Y-114713660D01*
X112329780Y-114713664D01*
X112401099Y-114772194D01*
X112456436Y-114801772D01*
X112509677Y-114830230D01*
X112627490Y-114865968D01*
X112719307Y-114875011D01*
X112719309Y-114875011D01*
X112750011Y-114878035D01*
X112780713Y-114875011D01*
X122794291Y-114875011D01*
X122824985Y-114878034D01*
X122855679Y-114875011D01*
X122855689Y-114875011D01*
X122947506Y-114865968D01*
X123065319Y-114830230D01*
X123173896Y-114772194D01*
X123269065Y-114694091D01*
X123288643Y-114670235D01*
X123629878Y-114329001D01*
X123630743Y-114333351D01*
X123691049Y-114478942D01*
X123775000Y-114604584D01*
X123775000Y-114740374D01*
X123771977Y-114771068D01*
X123775000Y-114801762D01*
X123775000Y-114801772D01*
X123784043Y-114893589D01*
X123819781Y-115011402D01*
X123877818Y-115119979D01*
X123955921Y-115215148D01*
X123979772Y-115234722D01*
X124224009Y-115478960D01*
X124252860Y-115532935D01*
X124315342Y-115609070D01*
X125729556Y-117023284D01*
X125805691Y-117085766D01*
X125892553Y-117132195D01*
X125986803Y-117160785D01*
X126084820Y-117170439D01*
X126182837Y-117160785D01*
X126277087Y-117132195D01*
X126363949Y-117085766D01*
X126440084Y-117023284D01*
X126652216Y-116811152D01*
X126714698Y-116735017D01*
X126715675Y-116733188D01*
X126717502Y-116732212D01*
X126793637Y-116669730D01*
X127005769Y-116457598D01*
X127068251Y-116381463D01*
X127069228Y-116379636D01*
X127071055Y-116378659D01*
X127147190Y-116316177D01*
X127359322Y-116104045D01*
X127421804Y-116027910D01*
X127422780Y-116026083D01*
X127424609Y-116025106D01*
X127500744Y-115962624D01*
X127712876Y-115750492D01*
X127775358Y-115674357D01*
X127776335Y-115672528D01*
X127778162Y-115671552D01*
X127854297Y-115609070D01*
X128066429Y-115396938D01*
X128128911Y-115320803D01*
X128129887Y-115318976D01*
X128131716Y-115317999D01*
X128207851Y-115255517D01*
X128419983Y-115043385D01*
X128482465Y-114967250D01*
X128483442Y-114965421D01*
X128485269Y-114964445D01*
X128561404Y-114901963D01*
X128773536Y-114689831D01*
X128836018Y-114613696D01*
X128836995Y-114611869D01*
X128838822Y-114610892D01*
X128914957Y-114548410D01*
X129127089Y-114336278D01*
X129189571Y-114260143D01*
X129190547Y-114258316D01*
X129192376Y-114257339D01*
X129268511Y-114194857D01*
X129480643Y-113982725D01*
X129543125Y-113906590D01*
X129544102Y-113904761D01*
X129545929Y-113903785D01*
X129622064Y-113841303D01*
X129834196Y-113629171D01*
X129896678Y-113553036D01*
X129897654Y-113551209D01*
X129899483Y-113550232D01*
X129975618Y-113487750D01*
X130187750Y-113275618D01*
X130250232Y-113199483D01*
X130251209Y-113197654D01*
X130253036Y-113196678D01*
X130329171Y-113134196D01*
X130541303Y-112922064D01*
X130603785Y-112845929D01*
X130604762Y-112844102D01*
X130606589Y-112843125D01*
X130682724Y-112780643D01*
X130894856Y-112568511D01*
X130957338Y-112492376D01*
X130958314Y-112490549D01*
X130960143Y-112489572D01*
X131036278Y-112427090D01*
X131248410Y-112214958D01*
X131310892Y-112138823D01*
X131311869Y-112136994D01*
X131313696Y-112136018D01*
X131389831Y-112073536D01*
X131601963Y-111861404D01*
X131664445Y-111785269D01*
X131710874Y-111698407D01*
X131739464Y-111604157D01*
X131749118Y-111506140D01*
X132229204Y-111506140D01*
X132238858Y-111604157D01*
X132267448Y-111698407D01*
X132313877Y-111785269D01*
X132376359Y-111861404D01*
X132588491Y-112073536D01*
X132664626Y-112136018D01*
X132666453Y-112136994D01*
X132667430Y-112138823D01*
X132729912Y-112214958D01*
X132942044Y-112427090D01*
X133018179Y-112489572D01*
X133020008Y-112490549D01*
X133020984Y-112492376D01*
X133083466Y-112568511D01*
X133295598Y-112780643D01*
X133371733Y-112843125D01*
X133373560Y-112844102D01*
X133374537Y-112845929D01*
X133437019Y-112922064D01*
X133649151Y-113134196D01*
X133725286Y-113196678D01*
X133727113Y-113197654D01*
X133728090Y-113199483D01*
X133790572Y-113275618D01*
X134002704Y-113487750D01*
X134078839Y-113550232D01*
X134080668Y-113551209D01*
X134081644Y-113553036D01*
X134144126Y-113629171D01*
X134356258Y-113841303D01*
X134432393Y-113903785D01*
X134519255Y-113950214D01*
X134554773Y-113960988D01*
X134409627Y-114106133D01*
X134378793Y-114100000D01*
X134221207Y-114100000D01*
X134066649Y-114130743D01*
X133921058Y-114191049D01*
X133790030Y-114278599D01*
X133678599Y-114390030D01*
X133591049Y-114521058D01*
X133530743Y-114666649D01*
X133500000Y-114821207D01*
X133500000Y-114978793D01*
X133530743Y-115133351D01*
X133591049Y-115278942D01*
X133678599Y-115409970D01*
X133790030Y-115521401D01*
X133921058Y-115608951D01*
X134066649Y-115669257D01*
X134221207Y-115700000D01*
X134378793Y-115700000D01*
X134533351Y-115669257D01*
X134678942Y-115608951D01*
X134804584Y-115525000D01*
X134989416Y-115525000D01*
X134930743Y-115666649D01*
X134900000Y-115821207D01*
X134900000Y-115978793D01*
X134930743Y-116133351D01*
X134979658Y-116251441D01*
X134902486Y-116259042D01*
X134784673Y-116294780D01*
X134676096Y-116352816D01*
X134580927Y-116430919D01*
X134561349Y-116454775D01*
X134514854Y-116501270D01*
X134366649Y-116530749D01*
X134221058Y-116591055D01*
X134090030Y-116678605D01*
X133978599Y-116790036D01*
X133891049Y-116921064D01*
X133830743Y-117066655D01*
X133800000Y-117221213D01*
X133800000Y-117378799D01*
X133830743Y-117533357D01*
X133891049Y-117678948D01*
X133978599Y-117809976D01*
X134090030Y-117921407D01*
X134221058Y-118008957D01*
X134366649Y-118069263D01*
X134521207Y-118100006D01*
X134678793Y-118100006D01*
X134833351Y-118069263D01*
X134847485Y-118063408D01*
X134878599Y-118109974D01*
X134990030Y-118221405D01*
X135121058Y-118308955D01*
X135266649Y-118369261D01*
X135421207Y-118400004D01*
X135578793Y-118400004D01*
X135733351Y-118369261D01*
X135878942Y-118308955D01*
X136004584Y-118225004D01*
X137425799Y-118225004D01*
X137456493Y-118228027D01*
X137487187Y-118225004D01*
X137487197Y-118225004D01*
X137579014Y-118215961D01*
X137696827Y-118180223D01*
X137805404Y-118122187D01*
X137900573Y-118044084D01*
X137920151Y-118020228D01*
X138472210Y-117468169D01*
X138526185Y-117439319D01*
X138602320Y-117376837D01*
X140016534Y-115962623D01*
X140079016Y-115886488D01*
X140125445Y-115799626D01*
X140154035Y-115705376D01*
X140163689Y-115607359D01*
X140154035Y-115509342D01*
X140125445Y-115415092D01*
X140079016Y-115328230D01*
X140016534Y-115252095D01*
X139804402Y-115039963D01*
X139728267Y-114977481D01*
X139726438Y-114976504D01*
X139725462Y-114974677D01*
X139662980Y-114898542D01*
X139450848Y-114686410D01*
X139374713Y-114623928D01*
X139372886Y-114622952D01*
X139371909Y-114621123D01*
X139309427Y-114544988D01*
X139097295Y-114332856D01*
X139021160Y-114270374D01*
X139019333Y-114269397D01*
X139018356Y-114267570D01*
X138955874Y-114191435D01*
X138743742Y-113979303D01*
X138667607Y-113916821D01*
X138665778Y-113915844D01*
X138664802Y-113914017D01*
X138602320Y-113837882D01*
X138390188Y-113625750D01*
X138314053Y-113563268D01*
X138312226Y-113562292D01*
X138311249Y-113560463D01*
X138248767Y-113484328D01*
X138036635Y-113272196D01*
X137960500Y-113209714D01*
X137958671Y-113208737D01*
X137957695Y-113206910D01*
X137895213Y-113130775D01*
X137683081Y-112918643D01*
X137606946Y-112856161D01*
X137605119Y-112855185D01*
X137604142Y-112853356D01*
X137541660Y-112777221D01*
X137329528Y-112565089D01*
X137253393Y-112502607D01*
X137251566Y-112501630D01*
X137250589Y-112499803D01*
X137188107Y-112423668D01*
X136975975Y-112211536D01*
X136899840Y-112149054D01*
X136812978Y-112102625D01*
X136718728Y-112074035D01*
X136627488Y-112065048D01*
X136618501Y-111973808D01*
X136589911Y-111879558D01*
X136589109Y-111878057D01*
X136633351Y-111869257D01*
X136778942Y-111808951D01*
X136909970Y-111721401D01*
X136915632Y-111715739D01*
X136978599Y-111809976D01*
X137090030Y-111921407D01*
X137221058Y-112008957D01*
X137366649Y-112069263D01*
X137521207Y-112100006D01*
X137678793Y-112100006D01*
X137833351Y-112069263D01*
X137978942Y-112008957D01*
X138109970Y-111921407D01*
X138221401Y-111809976D01*
X138308951Y-111678948D01*
X138369257Y-111533357D01*
X138400000Y-111378799D01*
X138400000Y-111221213D01*
X138369257Y-111066655D01*
X138308951Y-110921064D01*
X138221401Y-110790036D01*
X138109970Y-110678605D01*
X137978942Y-110591055D01*
X137833351Y-110530749D01*
X137685148Y-110501270D01*
X137163653Y-109979777D01*
X137144075Y-109955921D01*
X137048906Y-109877818D01*
X136940329Y-109819782D01*
X136822516Y-109784044D01*
X136730699Y-109775001D01*
X136730689Y-109775001D01*
X136699995Y-109771978D01*
X136669301Y-109775001D01*
X135494801Y-109775001D01*
X135464107Y-109771978D01*
X135433413Y-109775001D01*
X135433404Y-109775001D01*
X135341587Y-109784044D01*
X135223774Y-109819782D01*
X135223772Y-109819783D01*
X135115195Y-109877819D01*
X135067785Y-109916728D01*
X135020028Y-109955921D01*
X135000454Y-109979772D01*
X134872332Y-110107894D01*
X134854654Y-110090216D01*
X134778519Y-110027734D01*
X134776692Y-110026758D01*
X134775715Y-110024929D01*
X134713233Y-109948794D01*
X134501101Y-109736662D01*
X134424966Y-109674180D01*
X134338104Y-109627751D01*
X134243854Y-109599161D01*
X134145837Y-109589507D01*
X134047820Y-109599161D01*
X133953570Y-109627751D01*
X133866708Y-109674180D01*
X133790573Y-109736662D01*
X132376359Y-111150876D01*
X132313877Y-111227011D01*
X132267448Y-111313873D01*
X132238858Y-111408123D01*
X132229204Y-111506140D01*
X131749118Y-111506140D01*
X131739464Y-111408123D01*
X131710874Y-111313873D01*
X131664445Y-111227011D01*
X131601963Y-111150876D01*
X130187749Y-109736662D01*
X130111614Y-109674180D01*
X130024752Y-109627751D01*
X129930502Y-109599161D01*
X129832485Y-109589507D01*
X129734468Y-109599161D01*
X129640218Y-109627751D01*
X129553356Y-109674180D01*
X129477221Y-109736662D01*
X129265089Y-109948794D01*
X129202607Y-110024929D01*
X129201630Y-110026758D01*
X129199803Y-110027734D01*
X129123668Y-110090216D01*
X128911536Y-110302348D01*
X128849054Y-110378483D01*
X128848078Y-110380310D01*
X128846249Y-110381287D01*
X128770114Y-110443769D01*
X128557982Y-110655901D01*
X128495500Y-110732036D01*
X128494523Y-110733863D01*
X128492696Y-110734840D01*
X128416561Y-110797322D01*
X128204429Y-111009454D01*
X128141947Y-111085589D01*
X128140970Y-111087418D01*
X128139143Y-111088394D01*
X128063008Y-111150876D01*
X128039114Y-111174770D01*
X128037127Y-111173140D01*
X127928550Y-111115104D01*
X127810737Y-111079366D01*
X127718920Y-111070323D01*
X127718910Y-111070323D01*
X127688216Y-111067300D01*
X127657522Y-111070323D01*
X124137545Y-111070323D01*
X124106851Y-111067300D01*
X124076157Y-111070323D01*
X124076147Y-111070323D01*
X123984330Y-111079366D01*
X123866517Y-111115104D01*
X123757940Y-111173140D01*
X123662771Y-111251243D01*
X123643197Y-111275094D01*
X122243292Y-112675000D01*
X113595294Y-112675000D01*
X109936068Y-109015775D01*
X118069226Y-109015775D01*
X118129080Y-109623480D01*
X118306341Y-110207833D01*
X118594199Y-110746375D01*
X118981589Y-111218411D01*
X119453625Y-111605801D01*
X119992167Y-111893659D01*
X120576520Y-112070920D01*
X121184225Y-112130774D01*
X121791930Y-112070920D01*
X122376283Y-111893659D01*
X122914825Y-111605801D01*
X123268572Y-111315489D01*
X128115489Y-106468573D01*
X128405801Y-106114826D01*
X128693659Y-105576284D01*
X128870920Y-104991931D01*
X128930774Y-104384225D01*
X134669226Y-104384225D01*
X134729080Y-104991930D01*
X134906341Y-105576283D01*
X135194199Y-106114825D01*
X135484511Y-106468572D01*
X140331427Y-111315489D01*
X140685174Y-111605801D01*
X141223716Y-111893659D01*
X141808069Y-112070920D01*
X142415775Y-112130774D01*
X143023481Y-112070920D01*
X143607833Y-111893659D01*
X144146375Y-111605801D01*
X144618412Y-111218412D01*
X144715589Y-111100000D01*
X150320767Y-111100000D01*
X150337661Y-111271530D01*
X150387695Y-111436468D01*
X150468944Y-111588476D01*
X150578288Y-111721712D01*
X150711524Y-111831056D01*
X150863532Y-111912305D01*
X151028470Y-111962339D01*
X151157021Y-111975000D01*
X154042979Y-111975000D01*
X154171530Y-111962339D01*
X154336468Y-111912305D01*
X154488476Y-111831056D01*
X154621712Y-111721712D01*
X154731056Y-111588476D01*
X154812305Y-111436468D01*
X154862339Y-111271530D01*
X154879233Y-111100000D01*
X154862339Y-110928470D01*
X154812305Y-110763532D01*
X154731056Y-110611524D01*
X154621712Y-110478288D01*
X154488476Y-110368944D01*
X154336468Y-110287695D01*
X154171530Y-110237661D01*
X154042979Y-110225000D01*
X151157021Y-110225000D01*
X151028470Y-110237661D01*
X150863532Y-110287695D01*
X150711524Y-110368944D01*
X150578288Y-110478288D01*
X150468944Y-110611524D01*
X150387695Y-110763532D01*
X150337661Y-110928470D01*
X150320767Y-111100000D01*
X144715589Y-111100000D01*
X145005801Y-110746375D01*
X145293659Y-110207833D01*
X145470920Y-109623481D01*
X145530774Y-109015775D01*
X145470920Y-108408069D01*
X145293659Y-107823716D01*
X145005801Y-107285174D01*
X144715489Y-106931427D01*
X140188011Y-102403949D01*
X147299448Y-102403949D01*
X147309102Y-102501966D01*
X147337692Y-102596216D01*
X147384121Y-102683078D01*
X147446603Y-102759213D01*
X148648685Y-103961295D01*
X148724820Y-104023777D01*
X148811682Y-104070206D01*
X148905932Y-104098796D01*
X149003949Y-104108450D01*
X149101966Y-104098796D01*
X149196216Y-104070206D01*
X149283078Y-104023777D01*
X149359213Y-103961295D01*
X149506275Y-103814233D01*
X149469533Y-103935354D01*
X149443468Y-104200000D01*
X149469533Y-104464646D01*
X149546728Y-104719122D01*
X149672085Y-104953649D01*
X149840787Y-105159213D01*
X150046351Y-105327915D01*
X150280878Y-105453272D01*
X150535354Y-105530467D01*
X150733679Y-105550000D01*
X150866321Y-105550000D01*
X151064646Y-105530467D01*
X151319122Y-105453272D01*
X151369944Y-105426107D01*
X151342779Y-105476929D01*
X151265584Y-105731405D01*
X151239519Y-105996051D01*
X151265584Y-106260697D01*
X151342779Y-106515173D01*
X151468136Y-106749700D01*
X151636838Y-106955264D01*
X151842402Y-107123966D01*
X152076929Y-107249323D01*
X152331405Y-107326518D01*
X152529730Y-107346051D01*
X152662372Y-107346051D01*
X152860697Y-107326518D01*
X153115173Y-107249323D01*
X153349700Y-107123966D01*
X153555264Y-106955264D01*
X153723966Y-106749700D01*
X153849323Y-106515173D01*
X153926518Y-106260697D01*
X153952583Y-105996051D01*
X153926518Y-105731405D01*
X153849323Y-105476929D01*
X153723966Y-105242402D01*
X153555264Y-105036838D01*
X153349700Y-104868136D01*
X153115173Y-104742779D01*
X152860697Y-104665584D01*
X152662372Y-104646051D01*
X152529730Y-104646051D01*
X152331405Y-104665584D01*
X152076929Y-104742779D01*
X152026107Y-104769944D01*
X152053272Y-104719122D01*
X152130467Y-104464646D01*
X152156532Y-104200000D01*
X152130467Y-103935354D01*
X152053272Y-103680878D01*
X151927915Y-103446351D01*
X151759213Y-103240787D01*
X151553649Y-103072085D01*
X151319122Y-102946728D01*
X151064646Y-102869533D01*
X150866321Y-102850000D01*
X150733679Y-102850000D01*
X150535354Y-102869533D01*
X150414233Y-102906275D01*
X150561295Y-102759213D01*
X150623777Y-102683078D01*
X150670206Y-102596216D01*
X150698796Y-102501966D01*
X150708450Y-102403949D01*
X150698796Y-102305932D01*
X150670206Y-102211682D01*
X150623777Y-102124820D01*
X150561295Y-102048685D01*
X149359213Y-100846603D01*
X149283078Y-100784121D01*
X149196216Y-100737692D01*
X149101966Y-100709102D01*
X149003949Y-100699448D01*
X148905932Y-100709102D01*
X148811682Y-100737692D01*
X148724820Y-100784121D01*
X148648685Y-100846603D01*
X147446603Y-102048685D01*
X147384121Y-102124820D01*
X147337692Y-102211682D01*
X147309102Y-102305932D01*
X147299448Y-102403949D01*
X140188011Y-102403949D01*
X139868572Y-102084511D01*
X139514825Y-101794199D01*
X138976283Y-101506341D01*
X138391930Y-101329080D01*
X137784225Y-101269226D01*
X137176520Y-101329080D01*
X136592167Y-101506341D01*
X136053625Y-101794199D01*
X135581589Y-102181589D01*
X135194199Y-102653625D01*
X134906341Y-103192167D01*
X134729080Y-103776520D01*
X134669226Y-104384225D01*
X128930774Y-104384225D01*
X128870920Y-103776519D01*
X128693659Y-103192167D01*
X128405801Y-102653625D01*
X128018412Y-102181588D01*
X127546375Y-101794199D01*
X127007833Y-101506341D01*
X126423481Y-101329080D01*
X125815775Y-101269226D01*
X125208069Y-101329080D01*
X124623716Y-101506341D01*
X124085174Y-101794199D01*
X123731427Y-102084511D01*
X118884511Y-106931428D01*
X118594199Y-107285175D01*
X118306341Y-107823717D01*
X118129080Y-108408070D01*
X118069226Y-109015775D01*
X109936068Y-109015775D01*
X108009095Y-107088803D01*
X108109970Y-107021401D01*
X108221401Y-106909970D01*
X108308951Y-106778942D01*
X108369257Y-106633351D01*
X108398736Y-106485146D01*
X109458883Y-105425000D01*
X112595414Y-105425000D01*
X112721056Y-105508951D01*
X112866647Y-105569257D01*
X113021205Y-105600000D01*
X113178791Y-105600000D01*
X113333349Y-105569257D01*
X113478940Y-105508951D01*
X113609968Y-105421401D01*
X113721399Y-105309970D01*
X113808949Y-105178942D01*
X113869255Y-105033351D01*
X113899998Y-104878793D01*
X113899998Y-104721207D01*
X113869255Y-104566649D01*
X113808949Y-104421058D01*
X113721399Y-104290030D01*
X113609968Y-104178599D01*
X113478940Y-104091049D01*
X113333349Y-104030743D01*
X113178791Y-104000000D01*
X113021205Y-104000000D01*
X112866647Y-104030743D01*
X112721056Y-104091049D01*
X112595414Y-104175000D01*
X109230702Y-104175000D01*
X109200000Y-104171976D01*
X109169298Y-104175000D01*
X109169296Y-104175000D01*
X109077479Y-104184043D01*
X108959666Y-104219781D01*
X108909124Y-104246796D01*
X108851088Y-104277817D01*
X108836207Y-104290030D01*
X108755920Y-104355920D01*
X108736346Y-104379771D01*
X107514854Y-105601264D01*
X107366649Y-105630743D01*
X107225000Y-105689416D01*
X107225000Y-101021207D01*
X109800000Y-101021207D01*
X109800000Y-101178793D01*
X109830743Y-101333351D01*
X109891049Y-101478942D01*
X109978599Y-101609970D01*
X110090030Y-101721401D01*
X110221058Y-101808951D01*
X110366649Y-101869257D01*
X110521207Y-101900000D01*
X110678793Y-101900000D01*
X110833351Y-101869257D01*
X110978942Y-101808951D01*
X111109970Y-101721401D01*
X111221401Y-101609970D01*
X111308951Y-101478942D01*
X111369257Y-101333351D01*
X111400000Y-101178793D01*
X111400000Y-101048882D01*
X113137581Y-99311302D01*
X113137581Y-99825000D01*
X113147235Y-99923017D01*
X113175825Y-100017267D01*
X113222254Y-100104129D01*
X113284736Y-100180264D01*
X113360871Y-100242746D01*
X113447733Y-100289175D01*
X113541983Y-100317765D01*
X113640000Y-100327419D01*
X114071905Y-100327419D01*
X114081742Y-100335492D01*
X114255465Y-100428349D01*
X114339684Y-100453897D01*
X114395397Y-100509610D01*
X114389473Y-100514472D01*
X114264509Y-100666742D01*
X114221129Y-100747901D01*
X114171651Y-100840466D01*
X114114470Y-101028966D01*
X114095162Y-101225000D01*
X114100001Y-101274130D01*
X114100001Y-101791684D01*
X114070871Y-101807254D01*
X113994736Y-101869736D01*
X113932254Y-101945871D01*
X113885825Y-102032733D01*
X113857235Y-102126983D01*
X113847581Y-102225000D01*
X113847581Y-103475000D01*
X113857235Y-103573017D01*
X113885825Y-103667267D01*
X113932254Y-103754129D01*
X113994736Y-103830264D01*
X114070871Y-103892746D01*
X114157733Y-103939175D01*
X114251983Y-103967765D01*
X114350000Y-103977419D01*
X115850000Y-103977419D01*
X115948017Y-103967765D01*
X116042267Y-103939175D01*
X116129129Y-103892746D01*
X116205264Y-103830264D01*
X116267746Y-103754129D01*
X116314175Y-103667267D01*
X116342765Y-103573017D01*
X116352419Y-103475000D01*
X116352419Y-102225000D01*
X116342765Y-102126983D01*
X116314175Y-102032733D01*
X116267746Y-101945871D01*
X116205264Y-101869736D01*
X116129129Y-101807254D01*
X116120780Y-101802791D01*
X116149120Y-101800000D01*
X116174099Y-101800000D01*
X116321013Y-101785530D01*
X116509514Y-101728349D01*
X116683237Y-101635492D01*
X116835507Y-101510528D01*
X116960471Y-101358258D01*
X117053328Y-101184535D01*
X117110509Y-100996034D01*
X117129817Y-100800000D01*
X117110509Y-100603966D01*
X117053328Y-100415465D01*
X116960471Y-100241742D01*
X116835507Y-100089472D01*
X116683237Y-99964508D01*
X116673537Y-99959323D01*
X116142419Y-99428206D01*
X116142419Y-99175000D01*
X116132765Y-99076983D01*
X116104175Y-98982733D01*
X116057746Y-98895871D01*
X115995264Y-98819736D01*
X115919129Y-98757254D01*
X115832267Y-98710825D01*
X115738017Y-98682235D01*
X115640000Y-98672581D01*
X115368095Y-98672581D01*
X115358258Y-98664508D01*
X115184535Y-98571651D01*
X114996034Y-98514470D01*
X114849120Y-98500000D01*
X114800000Y-98495162D01*
X114750880Y-98500000D01*
X114590880Y-98500000D01*
X114443966Y-98514470D01*
X114255465Y-98571651D01*
X114081742Y-98664508D01*
X114071905Y-98672581D01*
X113776303Y-98672581D01*
X114021465Y-98427419D01*
X115640000Y-98427419D01*
X115738017Y-98417765D01*
X115832267Y-98389175D01*
X115919129Y-98342746D01*
X115995264Y-98280264D01*
X116057746Y-98204129D01*
X116104175Y-98117267D01*
X116132765Y-98023017D01*
X116142419Y-97925000D01*
X116142419Y-97275000D01*
X116132765Y-97176983D01*
X116104175Y-97082733D01*
X116057746Y-96995871D01*
X115995264Y-96919736D01*
X115919129Y-96857254D01*
X115832267Y-96810825D01*
X115738017Y-96782235D01*
X115640000Y-96772581D01*
X113640000Y-96772581D01*
X113541983Y-96782235D01*
X113447733Y-96810825D01*
X113360871Y-96857254D01*
X113284736Y-96919736D01*
X113222254Y-96995871D01*
X113175825Y-97082733D01*
X113147235Y-97176983D01*
X113137581Y-97275000D01*
X113137581Y-97543535D01*
X110338867Y-100342251D01*
X110221058Y-100391049D01*
X110090030Y-100478599D01*
X109978599Y-100590030D01*
X109891049Y-100721058D01*
X109830743Y-100866649D01*
X109800000Y-101021207D01*
X107225000Y-101021207D01*
X107225000Y-95800012D01*
X115220767Y-95800012D01*
X115237661Y-95971541D01*
X115287695Y-96136479D01*
X115368945Y-96288487D01*
X115478289Y-96421723D01*
X115611525Y-96531067D01*
X115763533Y-96612317D01*
X115928471Y-96662351D01*
X116100000Y-96679245D01*
X116271529Y-96662351D01*
X116436467Y-96612317D01*
X116588475Y-96531067D01*
X116688327Y-96449121D01*
X117562449Y-95575000D01*
X120542979Y-95575000D01*
X120671530Y-95562339D01*
X120836468Y-95512305D01*
X120988476Y-95431056D01*
X121121712Y-95321712D01*
X121231056Y-95188476D01*
X121312305Y-95036468D01*
X121362339Y-94871530D01*
X121379233Y-94700000D01*
X121362339Y-94528470D01*
X121312305Y-94363532D01*
X121231056Y-94211524D01*
X121121712Y-94078288D01*
X120988476Y-93968944D01*
X120836468Y-93887695D01*
X120671530Y-93837661D01*
X120542979Y-93825000D01*
X117242991Y-93825000D01*
X117200012Y-93820767D01*
X117157033Y-93825000D01*
X117028482Y-93837661D01*
X116863544Y-93887695D01*
X116711536Y-93968944D01*
X116578300Y-94078288D01*
X116550900Y-94111675D01*
X115450891Y-95211685D01*
X115368945Y-95311537D01*
X115287695Y-95463545D01*
X115237661Y-95628483D01*
X115220767Y-95800012D01*
X107225000Y-95800012D01*
X107225000Y-92658882D01*
X124296608Y-75587274D01*
X124374993Y-75704585D01*
X124374992Y-77441125D01*
X120814854Y-81001264D01*
X120666649Y-81030743D01*
X120521058Y-81091049D01*
X120390030Y-81178599D01*
X120278599Y-81290030D01*
X120191049Y-81421058D01*
X120130743Y-81566649D01*
X120100000Y-81721207D01*
X120100000Y-81878793D01*
X120130743Y-82033351D01*
X120191049Y-82178942D01*
X120278599Y-82309970D01*
X120390030Y-82421401D01*
X120521058Y-82508951D01*
X120666649Y-82569257D01*
X120821207Y-82600000D01*
X120978793Y-82600000D01*
X121133351Y-82569257D01*
X121278942Y-82508951D01*
X121409970Y-82421401D01*
X121521401Y-82309970D01*
X121608951Y-82178942D01*
X121669257Y-82033351D01*
X121698736Y-81885146D01*
X125420222Y-78163661D01*
X125444072Y-78144088D01*
X125516968Y-78055264D01*
X125522174Y-78048921D01*
X125580210Y-77940344D01*
X125594794Y-77892267D01*
X125615949Y-77822529D01*
X125624992Y-77730712D01*
X125624992Y-77730703D01*
X125628015Y-77700009D01*
X125624992Y-77669315D01*
X125624992Y-75704584D01*
X125708943Y-75578942D01*
X125769249Y-75433351D01*
X125799992Y-75278793D01*
X125799992Y-75121207D01*
X125769249Y-74966649D01*
X125708943Y-74821058D01*
X125621393Y-74690030D01*
X125509962Y-74578599D01*
X125387266Y-74496617D01*
X127358883Y-72525000D01*
X128727882Y-72525000D01*
X128749561Y-81175000D01*
X127658883Y-81175000D01*
X126998736Y-80514854D01*
X126969257Y-80366649D01*
X126908951Y-80221058D01*
X126821401Y-80090030D01*
X126709970Y-79978599D01*
X126578942Y-79891049D01*
X126433351Y-79830743D01*
X126278793Y-79800000D01*
X126121207Y-79800000D01*
X125966649Y-79830743D01*
X125821058Y-79891049D01*
X125690030Y-79978599D01*
X125578599Y-80090030D01*
X125491049Y-80221058D01*
X125430743Y-80366649D01*
X125400000Y-80521207D01*
X125400000Y-80678793D01*
X125430743Y-80833351D01*
X125491049Y-80978942D01*
X125578599Y-81109970D01*
X125690030Y-81221401D01*
X125821058Y-81308951D01*
X125966649Y-81369257D01*
X126114854Y-81398736D01*
X126936346Y-82220229D01*
X126955920Y-82244080D01*
X126979769Y-82263652D01*
X127051087Y-82322182D01*
X127051089Y-82322183D01*
X127159666Y-82380219D01*
X127277479Y-82415957D01*
X127369296Y-82425000D01*
X127369305Y-82425000D01*
X127399999Y-82428023D01*
X127430693Y-82425000D01*
X128752694Y-82425000D01*
X128775421Y-91493250D01*
X128693659Y-91223716D01*
X128405801Y-90685174D01*
X128115489Y-90331427D01*
X123268572Y-85484511D01*
X122914825Y-85194199D01*
X122376283Y-84906341D01*
X121791930Y-84729080D01*
X121184225Y-84669226D01*
X120576520Y-84729080D01*
X119992167Y-84906341D01*
X119453625Y-85194199D01*
X118981589Y-85581589D01*
X118594199Y-86053625D01*
X118306341Y-86592167D01*
X118129080Y-87176520D01*
X118069226Y-87784225D01*
X118129080Y-88391930D01*
X118306341Y-88976283D01*
X118594199Y-89514825D01*
X118884511Y-89868572D01*
X123731427Y-94715489D01*
X124085174Y-95005801D01*
X124623716Y-95293659D01*
X125208069Y-95470920D01*
X125815775Y-95530774D01*
X126423481Y-95470920D01*
X127007833Y-95293659D01*
X127546375Y-95005801D01*
X128018412Y-94618412D01*
X128405801Y-94146375D01*
X128693659Y-93607833D01*
X128780007Y-93323180D01*
X128782412Y-94282569D01*
X128548939Y-94438571D01*
X127838571Y-95148939D01*
X127280438Y-95984244D01*
X126895990Y-96912385D01*
X126700000Y-97897694D01*
X126700000Y-98902306D01*
X126895990Y-99887615D01*
X127280438Y-100815756D01*
X127838571Y-101651061D01*
X128548939Y-102361429D01*
X129384244Y-102919562D01*
X130312385Y-103304010D01*
X131297694Y-103500000D01*
X132302306Y-103500000D01*
X133287615Y-103304010D01*
X134215756Y-102919562D01*
X135051061Y-102361429D01*
X135761429Y-101651061D01*
X136319562Y-100815756D01*
X136704010Y-99887615D01*
X136900000Y-98902306D01*
X136900000Y-97897694D01*
X136704010Y-96912385D01*
X136366183Y-96096797D01*
X137235422Y-95476721D01*
X137784225Y-95530774D01*
X138391930Y-95470920D01*
X138968397Y-95296051D01*
X147299448Y-95296051D01*
X147309102Y-95394068D01*
X147337692Y-95488318D01*
X147384121Y-95575180D01*
X147446603Y-95651315D01*
X148648685Y-96853397D01*
X148724820Y-96915879D01*
X148811682Y-96962308D01*
X148905932Y-96990898D01*
X149003949Y-97000552D01*
X149101966Y-96990898D01*
X149196216Y-96962308D01*
X149283078Y-96915879D01*
X149359213Y-96853397D01*
X150561295Y-95651315D01*
X150623777Y-95575180D01*
X150670206Y-95488318D01*
X150698796Y-95394068D01*
X150708450Y-95296051D01*
X150698796Y-95198034D01*
X150670206Y-95103784D01*
X150623777Y-95016922D01*
X150561295Y-94940787D01*
X150414233Y-94793725D01*
X150535354Y-94830467D01*
X150733679Y-94850000D01*
X150866321Y-94850000D01*
X151064646Y-94830467D01*
X151319122Y-94753272D01*
X151553649Y-94627915D01*
X151759213Y-94459213D01*
X151927915Y-94253649D01*
X152053272Y-94019122D01*
X152130467Y-93764646D01*
X152156532Y-93500000D01*
X152130467Y-93235354D01*
X152053272Y-92980878D01*
X152026107Y-92930056D01*
X152076929Y-92957221D01*
X152331405Y-93034416D01*
X152529730Y-93053949D01*
X152662372Y-93053949D01*
X152860697Y-93034416D01*
X153115173Y-92957221D01*
X153349700Y-92831864D01*
X153555264Y-92663162D01*
X153723966Y-92457598D01*
X153849323Y-92223071D01*
X153926518Y-91968595D01*
X153952583Y-91703949D01*
X153926518Y-91439303D01*
X153849323Y-91184827D01*
X153723966Y-90950300D01*
X153555264Y-90744736D01*
X153349700Y-90576034D01*
X153115173Y-90450677D01*
X152860697Y-90373482D01*
X152662372Y-90353949D01*
X152529730Y-90353949D01*
X152331405Y-90373482D01*
X152076929Y-90450677D01*
X151842402Y-90576034D01*
X151636838Y-90744736D01*
X151468136Y-90950300D01*
X151342779Y-91184827D01*
X151265584Y-91439303D01*
X151239519Y-91703949D01*
X151265584Y-91968595D01*
X151342779Y-92223071D01*
X151369944Y-92273893D01*
X151319122Y-92246728D01*
X151064646Y-92169533D01*
X150866321Y-92150000D01*
X150733679Y-92150000D01*
X150535354Y-92169533D01*
X150280878Y-92246728D01*
X150046351Y-92372085D01*
X149840787Y-92540787D01*
X149672085Y-92746351D01*
X149546728Y-92980878D01*
X149469533Y-93235354D01*
X149443468Y-93500000D01*
X149469533Y-93764646D01*
X149506275Y-93885767D01*
X149359213Y-93738705D01*
X149283078Y-93676223D01*
X149196216Y-93629794D01*
X149101966Y-93601204D01*
X149003949Y-93591550D01*
X148905932Y-93601204D01*
X148811682Y-93629794D01*
X148724820Y-93676223D01*
X148648685Y-93738705D01*
X147446603Y-94940787D01*
X147384121Y-95016922D01*
X147337692Y-95103784D01*
X147309102Y-95198034D01*
X147299448Y-95296051D01*
X138968397Y-95296051D01*
X138976283Y-95293659D01*
X139514825Y-95005801D01*
X139868572Y-94715489D01*
X143765866Y-90818196D01*
X156591689Y-81668831D01*
X156954093Y-82189293D01*
X158048743Y-84029233D01*
X159009040Y-85942729D01*
X159830069Y-87919987D01*
X160507628Y-89950886D01*
X161038249Y-92025031D01*
X161419216Y-94131806D01*
X161648579Y-96260427D01*
X161725164Y-98400000D01*
X161675543Y-100122613D01*
X161475922Y-102254229D01*
X161124407Y-104366118D01*
X160622798Y-106447470D01*
X159973660Y-108487631D01*
X159180318Y-110476159D01*
X158246831Y-112402876D01*
X157177978Y-114257921D01*
X155979230Y-116031798D01*
X154656721Y-117715427D01*
X153217222Y-119300192D01*
X151668101Y-120777980D01*
X150017286Y-122141229D01*
X148273226Y-123382959D01*
X146444850Y-124496816D01*
X144541515Y-125477098D01*
X142572964Y-126318788D01*
X140549271Y-127017577D01*
X138480796Y-127569889D01*
X136378126Y-127972896D01*
X134252023Y-128224537D01*
X132113370Y-128323523D01*
X129973112Y-128269348D01*
X127842206Y-128062288D01*
X125731557Y-127703403D01*
X123651969Y-127194531D01*
X121614086Y-126538276D01*
X119628339Y-125737998D01*
X117704892Y-124797791D01*
X115853590Y-123722469D01*
X114083909Y-122517536D01*
X113429770Y-122000000D01*
X118095162Y-122000000D01*
X118114470Y-122196034D01*
X118171651Y-122384535D01*
X118264508Y-122558258D01*
X118389472Y-122710528D01*
X118541742Y-122835492D01*
X118715465Y-122928349D01*
X118903966Y-122985530D01*
X119050880Y-123000000D01*
X119783114Y-123000000D01*
X119832234Y-123004838D01*
X119881354Y-123000000D01*
X119961878Y-122992069D01*
X120028268Y-122985530D01*
X120098241Y-122964304D01*
X120216769Y-122928349D01*
X120390492Y-122835492D01*
X120542762Y-122710528D01*
X120574083Y-122672363D01*
X121474880Y-121771566D01*
X121506488Y-121781154D01*
X121604505Y-121790808D01*
X121702522Y-121781154D01*
X121796772Y-121752564D01*
X121883634Y-121706135D01*
X121959769Y-121643653D01*
X122843653Y-120759769D01*
X122906135Y-120683634D01*
X122952564Y-120596772D01*
X122981154Y-120502522D01*
X122990808Y-120404505D01*
X122981154Y-120306488D01*
X122952564Y-120212238D01*
X122906135Y-120125376D01*
X122843653Y-120049241D01*
X122715123Y-119920711D01*
X123814633Y-119920711D01*
X123824287Y-120018728D01*
X123852877Y-120112978D01*
X123899306Y-120199840D01*
X123961788Y-120275975D01*
X124173920Y-120488107D01*
X124250055Y-120550589D01*
X124251884Y-120551566D01*
X124252860Y-120553393D01*
X124315342Y-120629528D01*
X124527474Y-120841660D01*
X124603609Y-120904142D01*
X124605436Y-120905118D01*
X124606413Y-120906947D01*
X124668895Y-120983082D01*
X124881027Y-121195214D01*
X124957162Y-121257696D01*
X124958989Y-121258673D01*
X124959966Y-121260500D01*
X125022448Y-121336635D01*
X125234580Y-121548767D01*
X125310715Y-121611249D01*
X125312544Y-121612226D01*
X125313520Y-121614053D01*
X125376002Y-121690188D01*
X125588134Y-121902320D01*
X125664269Y-121964802D01*
X125666096Y-121965778D01*
X125667073Y-121967607D01*
X125729555Y-122043742D01*
X125747233Y-122061420D01*
X125279771Y-122528883D01*
X125255921Y-122548456D01*
X125177818Y-122643625D01*
X125119781Y-122752202D01*
X125091966Y-122843897D01*
X125040030Y-122878599D01*
X124928599Y-122990030D01*
X124841049Y-123121058D01*
X124780743Y-123266649D01*
X124750000Y-123421207D01*
X124750000Y-123578793D01*
X124780743Y-123733351D01*
X124841049Y-123878942D01*
X124928599Y-124009970D01*
X125040030Y-124121401D01*
X125171058Y-124208951D01*
X125316649Y-124269257D01*
X125471207Y-124300000D01*
X125628793Y-124300000D01*
X125696165Y-124286599D01*
X125778599Y-124409970D01*
X125890030Y-124521401D01*
X126021058Y-124608951D01*
X126166649Y-124669257D01*
X126321207Y-124700000D01*
X126478793Y-124700000D01*
X126633351Y-124669257D01*
X126778942Y-124608951D01*
X126909970Y-124521401D01*
X127021401Y-124409970D01*
X127108951Y-124278942D01*
X127169257Y-124133351D01*
X127200000Y-123978793D01*
X127200000Y-123821207D01*
X127169257Y-123666649D01*
X127108951Y-123521058D01*
X127025000Y-123395416D01*
X127025000Y-123335125D01*
X127078482Y-123379016D01*
X127080311Y-123379993D01*
X127081287Y-123381820D01*
X127143769Y-123457955D01*
X127355901Y-123670087D01*
X127432036Y-123732569D01*
X127433863Y-123733545D01*
X127434840Y-123735374D01*
X127497322Y-123811509D01*
X127709454Y-124023641D01*
X127785589Y-124086123D01*
X127787418Y-124087100D01*
X127788394Y-124088927D01*
X127850876Y-124165062D01*
X128063008Y-124377194D01*
X128139143Y-124439676D01*
X128140970Y-124440652D01*
X128141947Y-124442481D01*
X128204429Y-124518616D01*
X128312386Y-124626573D01*
X128178793Y-124600000D01*
X128021207Y-124600000D01*
X127866649Y-124630743D01*
X127721058Y-124691049D01*
X127590030Y-124778599D01*
X127478599Y-124890030D01*
X127391049Y-125021058D01*
X127330743Y-125166649D01*
X127300000Y-125321207D01*
X127300000Y-125478793D01*
X127330743Y-125633351D01*
X127391049Y-125778942D01*
X127478599Y-125909970D01*
X127590030Y-126021401D01*
X127721058Y-126108951D01*
X127866649Y-126169257D01*
X128021207Y-126200000D01*
X128178793Y-126200000D01*
X128333351Y-126169257D01*
X128478942Y-126108951D01*
X128604584Y-126025000D01*
X128918696Y-126025000D01*
X128949390Y-126028023D01*
X128980084Y-126025000D01*
X128980094Y-126025000D01*
X129071911Y-126015957D01*
X129189724Y-125980219D01*
X129298301Y-125922183D01*
X129393470Y-125844080D01*
X129413048Y-125820224D01*
X129704086Y-125529187D01*
X129758061Y-125500336D01*
X129834196Y-125437854D01*
X131248410Y-124023640D01*
X131249813Y-124021930D01*
X132229204Y-124021930D01*
X132238858Y-124119947D01*
X132267448Y-124214197D01*
X132313877Y-124301059D01*
X132376359Y-124377194D01*
X133790573Y-125791408D01*
X133866708Y-125853890D01*
X133953570Y-125900319D01*
X134047820Y-125928909D01*
X134145837Y-125938563D01*
X134243854Y-125928909D01*
X134338104Y-125900319D01*
X134424966Y-125853890D01*
X134501101Y-125791408D01*
X134713233Y-125579276D01*
X134775715Y-125503141D01*
X134776692Y-125501312D01*
X134778519Y-125500336D01*
X134854654Y-125437854D01*
X135066786Y-125225722D01*
X135129268Y-125149587D01*
X135130244Y-125147760D01*
X135132073Y-125146783D01*
X135208208Y-125084301D01*
X135420340Y-124872169D01*
X135482822Y-124796034D01*
X135483799Y-124794207D01*
X135485626Y-124793230D01*
X135561761Y-124730748D01*
X135773893Y-124518616D01*
X135836375Y-124442481D01*
X135837352Y-124440652D01*
X135839179Y-124439676D01*
X135915314Y-124377194D01*
X136127446Y-124165062D01*
X136189928Y-124088927D01*
X136190904Y-124087100D01*
X136192733Y-124086123D01*
X136268868Y-124023641D01*
X136481000Y-123811509D01*
X136543482Y-123735374D01*
X136544459Y-123733545D01*
X136546286Y-123732569D01*
X136622421Y-123670087D01*
X136834553Y-123457955D01*
X136897035Y-123381820D01*
X136898011Y-123379993D01*
X136899840Y-123379016D01*
X136975975Y-123316534D01*
X137188107Y-123104402D01*
X137250589Y-123028267D01*
X137251566Y-123026440D01*
X137253393Y-123025463D01*
X137329528Y-122962981D01*
X137541660Y-122750849D01*
X137604142Y-122674714D01*
X137605119Y-122672885D01*
X137606946Y-122671909D01*
X137683081Y-122609427D01*
X137703526Y-122588982D01*
X137743982Y-122622183D01*
X137852559Y-122680219D01*
X137970372Y-122715957D01*
X138062189Y-122725000D01*
X138062191Y-122725000D01*
X138092893Y-122728024D01*
X138123594Y-122725000D01*
X138195416Y-122725000D01*
X138321058Y-122808951D01*
X138466649Y-122869257D01*
X138621207Y-122900000D01*
X138778793Y-122900000D01*
X138933351Y-122869257D01*
X139078942Y-122808951D01*
X139209970Y-122721401D01*
X139321401Y-122609970D01*
X139408951Y-122478942D01*
X139469257Y-122333351D01*
X139500000Y-122178793D01*
X139500000Y-122021207D01*
X139482755Y-121934507D01*
X139566649Y-121969257D01*
X139721207Y-122000000D01*
X139878793Y-122000000D01*
X140033351Y-121969257D01*
X140178942Y-121908951D01*
X140309970Y-121821401D01*
X140421401Y-121709970D01*
X140508951Y-121578942D01*
X140568266Y-121435743D01*
X140593865Y-121483634D01*
X140656347Y-121559769D01*
X141540231Y-122443653D01*
X141616366Y-122506135D01*
X141703228Y-122552564D01*
X141797478Y-122581154D01*
X141895495Y-122590808D01*
X141993512Y-122581154D01*
X142087762Y-122552564D01*
X142174624Y-122506135D01*
X142250759Y-122443653D01*
X143311419Y-121382993D01*
X143373901Y-121306858D01*
X143420330Y-121219996D01*
X143448920Y-121125746D01*
X143458574Y-121027729D01*
X143449391Y-120934492D01*
X143585146Y-120798736D01*
X143733351Y-120769257D01*
X143878942Y-120708951D01*
X144009970Y-120621401D01*
X144121401Y-120509970D01*
X144208951Y-120378942D01*
X144269257Y-120233351D01*
X144300000Y-120078793D01*
X144300000Y-119921207D01*
X144269257Y-119766649D01*
X144208951Y-119621058D01*
X144121401Y-119490030D01*
X144009970Y-119378599D01*
X143878942Y-119291049D01*
X143733351Y-119230743D01*
X143578793Y-119200000D01*
X143421207Y-119200000D01*
X143266649Y-119230743D01*
X143121058Y-119291049D01*
X142990030Y-119378599D01*
X142878599Y-119490030D01*
X142791049Y-119621058D01*
X142730743Y-119766649D01*
X142701264Y-119914854D01*
X142627536Y-119988582D01*
X142427535Y-119788581D01*
X142351400Y-119726099D01*
X142264538Y-119679670D01*
X142170288Y-119651080D01*
X142072271Y-119641426D01*
X141974254Y-119651080D01*
X141880004Y-119679670D01*
X141793142Y-119726099D01*
X141717007Y-119788581D01*
X140656347Y-120849241D01*
X140593865Y-120925376D01*
X140569948Y-120970122D01*
X140569257Y-120966649D01*
X140508951Y-120821058D01*
X140421401Y-120690030D01*
X140309970Y-120578599D01*
X140178942Y-120491049D01*
X140033351Y-120430743D01*
X139890233Y-120402276D01*
X140016534Y-120275975D01*
X140079016Y-120199840D01*
X140125445Y-120112978D01*
X140154035Y-120018728D01*
X140163689Y-119920711D01*
X140154035Y-119822694D01*
X140125445Y-119728444D01*
X140079016Y-119641582D01*
X140016534Y-119565447D01*
X138602320Y-118151233D01*
X138526185Y-118088751D01*
X138439323Y-118042322D01*
X138345073Y-118013732D01*
X138247056Y-118004078D01*
X138149039Y-118013732D01*
X138054789Y-118042322D01*
X137967927Y-118088751D01*
X137891792Y-118151233D01*
X137679660Y-118363365D01*
X137617178Y-118439500D01*
X137616202Y-118441327D01*
X137614373Y-118442304D01*
X137538238Y-118504786D01*
X137326106Y-118716918D01*
X137263624Y-118793053D01*
X137262647Y-118794882D01*
X137260820Y-118795858D01*
X137184685Y-118858340D01*
X137128875Y-118914150D01*
X137029629Y-118884044D01*
X136937812Y-118875001D01*
X136937802Y-118875001D01*
X136907108Y-118871978D01*
X136876414Y-118875001D01*
X134430692Y-118875001D01*
X134399998Y-118871978D01*
X134369304Y-118875001D01*
X134369295Y-118875001D01*
X134277478Y-118884044D01*
X134159665Y-118919782D01*
X134159663Y-118919783D01*
X134051086Y-118977819D01*
X134013548Y-119008626D01*
X133955919Y-119055921D01*
X133936345Y-119079772D01*
X133614854Y-119401264D01*
X133466649Y-119430743D01*
X133321058Y-119491049D01*
X133190030Y-119578599D01*
X133078599Y-119690030D01*
X132991049Y-119821058D01*
X132930743Y-119966649D01*
X132900000Y-120121207D01*
X132900000Y-120278793D01*
X132930743Y-120433351D01*
X132991049Y-120578942D01*
X133078599Y-120709970D01*
X133190030Y-120821401D01*
X133321058Y-120908951D01*
X133466649Y-120969257D01*
X133621207Y-121000000D01*
X133778793Y-121000000D01*
X133933351Y-120969257D01*
X134078942Y-120908951D01*
X134209970Y-120821401D01*
X134321401Y-120709970D01*
X134408951Y-120578942D01*
X134469257Y-120433351D01*
X134498736Y-120285146D01*
X134658882Y-120125001D01*
X135918024Y-120125001D01*
X135911893Y-120131132D01*
X135849411Y-120207267D01*
X135848435Y-120209094D01*
X135846606Y-120210071D01*
X135770471Y-120272553D01*
X135558339Y-120484685D01*
X135495857Y-120560820D01*
X135494880Y-120562649D01*
X135493053Y-120563625D01*
X135416918Y-120626107D01*
X135204786Y-120838239D01*
X135142304Y-120914374D01*
X135141327Y-120916201D01*
X135139500Y-120917178D01*
X135063365Y-120979660D01*
X134851233Y-121191792D01*
X134788751Y-121267927D01*
X134787775Y-121269754D01*
X134785946Y-121270731D01*
X134709811Y-121333213D01*
X134497679Y-121545345D01*
X134435197Y-121621480D01*
X134434220Y-121623309D01*
X134432393Y-121624285D01*
X134356258Y-121686767D01*
X134144126Y-121898899D01*
X134081644Y-121975034D01*
X134080668Y-121976861D01*
X134078839Y-121977838D01*
X134002704Y-122040320D01*
X133790572Y-122252452D01*
X133728090Y-122328587D01*
X133727113Y-122330416D01*
X133725286Y-122331392D01*
X133649151Y-122393874D01*
X133437019Y-122606006D01*
X133374537Y-122682141D01*
X133373560Y-122683968D01*
X133371733Y-122684945D01*
X133295598Y-122747427D01*
X133083466Y-122959559D01*
X133020984Y-123035694D01*
X133020008Y-123037521D01*
X133018179Y-123038498D01*
X132942044Y-123100980D01*
X132729912Y-123313112D01*
X132667430Y-123389247D01*
X132666453Y-123391076D01*
X132664626Y-123392052D01*
X132588491Y-123454534D01*
X132376359Y-123666666D01*
X132313877Y-123742801D01*
X132267448Y-123829663D01*
X132238858Y-123923913D01*
X132229204Y-124021930D01*
X131249813Y-124021930D01*
X131310892Y-123947505D01*
X131357321Y-123860643D01*
X131385911Y-123766393D01*
X131395565Y-123668376D01*
X131385911Y-123570359D01*
X131357321Y-123476109D01*
X131310892Y-123389247D01*
X131248410Y-123313112D01*
X131036278Y-123100980D01*
X130960143Y-123038498D01*
X130958314Y-123037521D01*
X130957338Y-123035694D01*
X130894856Y-122959559D01*
X130682724Y-122747427D01*
X130606589Y-122684945D01*
X130604762Y-122683968D01*
X130603785Y-122682141D01*
X130541303Y-122606006D01*
X130329171Y-122393874D01*
X130253036Y-122331392D01*
X130251209Y-122330416D01*
X130250232Y-122328587D01*
X130187750Y-122252452D01*
X129975618Y-122040320D01*
X129899483Y-121977838D01*
X129897654Y-121976861D01*
X129896678Y-121975034D01*
X129834196Y-121898899D01*
X129622064Y-121686767D01*
X129545929Y-121624285D01*
X129544102Y-121623309D01*
X129543125Y-121621480D01*
X129480643Y-121545345D01*
X129268511Y-121333213D01*
X129192376Y-121270731D01*
X129190547Y-121269754D01*
X129189571Y-121267927D01*
X129127089Y-121191792D01*
X128914957Y-120979660D01*
X128838822Y-120917178D01*
X128836995Y-120916201D01*
X128836018Y-120914374D01*
X128773536Y-120838239D01*
X128561404Y-120626107D01*
X128485269Y-120563625D01*
X128483442Y-120562649D01*
X128482465Y-120560820D01*
X128419983Y-120484685D01*
X128207851Y-120272553D01*
X128131716Y-120210071D01*
X128129887Y-120209094D01*
X128128911Y-120207267D01*
X128066429Y-120131132D01*
X127854297Y-119919000D01*
X127778162Y-119856518D01*
X127776335Y-119855542D01*
X127775358Y-119853713D01*
X127712876Y-119777578D01*
X127560299Y-119625001D01*
X128568706Y-119625001D01*
X128591049Y-119678942D01*
X128678599Y-119809970D01*
X128790030Y-119921401D01*
X128921058Y-120008951D01*
X129066649Y-120069257D01*
X129221207Y-120100000D01*
X129378793Y-120100000D01*
X129533351Y-120069257D01*
X129678942Y-120008951D01*
X129809970Y-119921401D01*
X129921401Y-119809970D01*
X130008951Y-119678942D01*
X130069257Y-119533351D01*
X130100000Y-119378793D01*
X130100000Y-119221207D01*
X130069257Y-119066649D01*
X130064921Y-119056180D01*
X130178942Y-119008951D01*
X130309970Y-118921401D01*
X130421401Y-118809970D01*
X130508951Y-118678942D01*
X130569257Y-118533351D01*
X130600000Y-118378793D01*
X130600000Y-118221207D01*
X130569257Y-118066649D01*
X130508951Y-117921058D01*
X130421401Y-117790030D01*
X130309970Y-117678599D01*
X130184860Y-117595003D01*
X130184860Y-117485880D01*
X130154117Y-117331322D01*
X130093811Y-117185731D01*
X130006261Y-117054703D01*
X129894830Y-116943272D01*
X129763802Y-116855722D01*
X129618211Y-116795416D01*
X129463653Y-116764673D01*
X129306067Y-116764673D01*
X129151509Y-116795416D01*
X129005918Y-116855722D01*
X128880276Y-116939673D01*
X126915915Y-116939673D01*
X126885221Y-116936650D01*
X126854527Y-116939673D01*
X126854518Y-116939673D01*
X126762701Y-116948716D01*
X126644888Y-116984454D01*
X126644886Y-116984455D01*
X126536309Y-117042491D01*
X126502589Y-117070165D01*
X126441142Y-117120593D01*
X126421568Y-117144444D01*
X125506112Y-118059901D01*
X125452137Y-118088751D01*
X125376002Y-118151233D01*
X123961788Y-119565447D01*
X123899306Y-119641582D01*
X123852877Y-119728444D01*
X123824287Y-119822694D01*
X123814633Y-119920711D01*
X122715123Y-119920711D01*
X121782993Y-118988581D01*
X121706858Y-118926099D01*
X121619996Y-118879670D01*
X121525746Y-118851080D01*
X121427729Y-118841426D01*
X121329712Y-118851080D01*
X121235462Y-118879670D01*
X121148600Y-118926099D01*
X121072465Y-118988581D01*
X120188581Y-119872465D01*
X120126099Y-119948600D01*
X120079670Y-120035462D01*
X120051080Y-120129712D01*
X120041426Y-120227729D01*
X120051080Y-120325746D01*
X120060668Y-120357354D01*
X119418022Y-121000000D01*
X119050880Y-121000000D01*
X118903966Y-121014470D01*
X118715465Y-121071651D01*
X118541742Y-121164508D01*
X118389472Y-121289472D01*
X118264508Y-121441742D01*
X118171651Y-121615465D01*
X118114470Y-121803966D01*
X118095162Y-122000000D01*
X113429770Y-122000000D01*
X112404906Y-121189159D01*
X110825175Y-119744137D01*
X109352803Y-118189866D01*
X107995326Y-116534302D01*
X106759691Y-114785919D01*
X105652223Y-112953666D01*
X104678591Y-111046921D01*
X103843778Y-109075443D01*
X103152057Y-107049324D01*
X102606969Y-104978934D01*
X102211303Y-102874870D01*
X101967085Y-100747901D01*
X101875565Y-98608915D01*
X101937211Y-96468860D01*
X102151708Y-94338689D01*
X102517958Y-92229306D01*
X103034086Y-90151507D01*
X103697450Y-88115927D01*
X104504656Y-86132986D01*
X105451571Y-84212833D01*
X106533348Y-82365295D01*
X107744452Y-80599831D01*
X109078682Y-78925475D01*
X110529209Y-77350798D01*
X112088610Y-75883860D01*
X113748902Y-74532170D01*
X115501588Y-73302646D01*
X117337695Y-72201580D01*
X119247828Y-71234610D01*
X121222207Y-70406684D01*
X123250729Y-69722040D01*
X125323009Y-69184182D01*
X127428441Y-68795863D01*
X128718176Y-68652336D01*
X128724749Y-71275000D01*
X128724749Y-71275000D01*
G37*
X128724749Y-71275000D02*
X127130693Y-71275000D01*
X127099999Y-71271977D01*
X127069305Y-71275000D01*
X127069296Y-71275000D01*
X126977479Y-71284043D01*
X126859666Y-71319781D01*
X126751089Y-71377817D01*
X126655920Y-71455920D01*
X126636346Y-71479771D01*
X123203387Y-74912730D01*
X123121401Y-74790030D01*
X123009970Y-74678599D01*
X122878942Y-74591049D01*
X122733351Y-74530743D01*
X122578793Y-74500000D01*
X122421207Y-74500000D01*
X122266649Y-74530743D01*
X122121058Y-74591049D01*
X121990030Y-74678599D01*
X121878599Y-74790030D01*
X121791049Y-74921058D01*
X121730743Y-75066649D01*
X121700000Y-75221207D01*
X121700000Y-75268628D01*
X121668021Y-75236649D01*
X121536993Y-75149099D01*
X121391402Y-75088793D01*
X121236844Y-75058050D01*
X121079258Y-75058050D01*
X120924700Y-75088793D01*
X120779109Y-75149099D01*
X120648081Y-75236649D01*
X120536650Y-75348080D01*
X120449100Y-75479108D01*
X120388794Y-75624699D01*
X120359315Y-75772903D01*
X105179772Y-90952447D01*
X105155921Y-90972021D01*
X105136348Y-90995871D01*
X105077818Y-91067190D01*
X105019782Y-91175767D01*
X104984044Y-91293580D01*
X104971977Y-91416101D01*
X104975001Y-91446805D01*
X104975000Y-107069306D01*
X104971977Y-107100000D01*
X104975000Y-107130694D01*
X104975000Y-107130703D01*
X104984043Y-107222520D01*
X105019781Y-107340333D01*
X105077817Y-107448910D01*
X105155920Y-107544080D01*
X105179776Y-107563658D01*
X112286362Y-114670246D01*
X112305931Y-114694091D01*
X112329776Y-114713660D01*
X112329780Y-114713664D01*
X112401099Y-114772194D01*
X112456436Y-114801772D01*
X112509677Y-114830230D01*
X112627490Y-114865968D01*
X112719307Y-114875011D01*
X112719309Y-114875011D01*
X112750011Y-114878035D01*
X112780713Y-114875011D01*
X122794291Y-114875011D01*
X122824985Y-114878034D01*
X122855679Y-114875011D01*
X122855689Y-114875011D01*
X122947506Y-114865968D01*
X123065319Y-114830230D01*
X123173896Y-114772194D01*
X123269065Y-114694091D01*
X123288643Y-114670235D01*
X123629878Y-114329001D01*
X123630743Y-114333351D01*
X123691049Y-114478942D01*
X123775000Y-114604584D01*
X123775000Y-114740374D01*
X123771977Y-114771068D01*
X123775000Y-114801762D01*
X123775000Y-114801772D01*
X123784043Y-114893589D01*
X123819781Y-115011402D01*
X123877818Y-115119979D01*
X123955921Y-115215148D01*
X123979772Y-115234722D01*
X124224009Y-115478960D01*
X124252860Y-115532935D01*
X124315342Y-115609070D01*
X125729556Y-117023284D01*
X125805691Y-117085766D01*
X125892553Y-117132195D01*
X125986803Y-117160785D01*
X126084820Y-117170439D01*
X126182837Y-117160785D01*
X126277087Y-117132195D01*
X126363949Y-117085766D01*
X126440084Y-117023284D01*
X126652216Y-116811152D01*
X126714698Y-116735017D01*
X126715675Y-116733188D01*
X126717502Y-116732212D01*
X126793637Y-116669730D01*
X127005769Y-116457598D01*
X127068251Y-116381463D01*
X127069228Y-116379636D01*
X127071055Y-116378659D01*
X127147190Y-116316177D01*
X127359322Y-116104045D01*
X127421804Y-116027910D01*
X127422780Y-116026083D01*
X127424609Y-116025106D01*
X127500744Y-115962624D01*
X127712876Y-115750492D01*
X127775358Y-115674357D01*
X127776335Y-115672528D01*
X127778162Y-115671552D01*
X127854297Y-115609070D01*
X128066429Y-115396938D01*
X128128911Y-115320803D01*
X128129887Y-115318976D01*
X128131716Y-115317999D01*
X128207851Y-115255517D01*
X128419983Y-115043385D01*
X128482465Y-114967250D01*
X128483442Y-114965421D01*
X128485269Y-114964445D01*
X128561404Y-114901963D01*
X128773536Y-114689831D01*
X128836018Y-114613696D01*
X128836995Y-114611869D01*
X128838822Y-114610892D01*
X128914957Y-114548410D01*
X129127089Y-114336278D01*
X129189571Y-114260143D01*
X129190547Y-114258316D01*
X129192376Y-114257339D01*
X129268511Y-114194857D01*
X129480643Y-113982725D01*
X129543125Y-113906590D01*
X129544102Y-113904761D01*
X129545929Y-113903785D01*
X129622064Y-113841303D01*
X129834196Y-113629171D01*
X129896678Y-113553036D01*
X129897654Y-113551209D01*
X129899483Y-113550232D01*
X129975618Y-113487750D01*
X130187750Y-113275618D01*
X130250232Y-113199483D01*
X130251209Y-113197654D01*
X130253036Y-113196678D01*
X130329171Y-113134196D01*
X130541303Y-112922064D01*
X130603785Y-112845929D01*
X130604762Y-112844102D01*
X130606589Y-112843125D01*
X130682724Y-112780643D01*
X130894856Y-112568511D01*
X130957338Y-112492376D01*
X130958314Y-112490549D01*
X130960143Y-112489572D01*
X131036278Y-112427090D01*
X131248410Y-112214958D01*
X131310892Y-112138823D01*
X131311869Y-112136994D01*
X131313696Y-112136018D01*
X131389831Y-112073536D01*
X131601963Y-111861404D01*
X131664445Y-111785269D01*
X131710874Y-111698407D01*
X131739464Y-111604157D01*
X131749118Y-111506140D01*
X132229204Y-111506140D01*
X132238858Y-111604157D01*
X132267448Y-111698407D01*
X132313877Y-111785269D01*
X132376359Y-111861404D01*
X132588491Y-112073536D01*
X132664626Y-112136018D01*
X132666453Y-112136994D01*
X132667430Y-112138823D01*
X132729912Y-112214958D01*
X132942044Y-112427090D01*
X133018179Y-112489572D01*
X133020008Y-112490549D01*
X133020984Y-112492376D01*
X133083466Y-112568511D01*
X133295598Y-112780643D01*
X133371733Y-112843125D01*
X133373560Y-112844102D01*
X133374537Y-112845929D01*
X133437019Y-112922064D01*
X133649151Y-113134196D01*
X133725286Y-113196678D01*
X133727113Y-113197654D01*
X133728090Y-113199483D01*
X133790572Y-113275618D01*
X134002704Y-113487750D01*
X134078839Y-113550232D01*
X134080668Y-113551209D01*
X134081644Y-113553036D01*
X134144126Y-113629171D01*
X134356258Y-113841303D01*
X134432393Y-113903785D01*
X134519255Y-113950214D01*
X134554773Y-113960988D01*
X134409627Y-114106133D01*
X134378793Y-114100000D01*
X134221207Y-114100000D01*
X134066649Y-114130743D01*
X133921058Y-114191049D01*
X133790030Y-114278599D01*
X133678599Y-114390030D01*
X133591049Y-114521058D01*
X133530743Y-114666649D01*
X133500000Y-114821207D01*
X133500000Y-114978793D01*
X133530743Y-115133351D01*
X133591049Y-115278942D01*
X133678599Y-115409970D01*
X133790030Y-115521401D01*
X133921058Y-115608951D01*
X134066649Y-115669257D01*
X134221207Y-115700000D01*
X134378793Y-115700000D01*
X134533351Y-115669257D01*
X134678942Y-115608951D01*
X134804584Y-115525000D01*
X134989416Y-115525000D01*
X134930743Y-115666649D01*
X134900000Y-115821207D01*
X134900000Y-115978793D01*
X134930743Y-116133351D01*
X134979658Y-116251441D01*
X134902486Y-116259042D01*
X134784673Y-116294780D01*
X134676096Y-116352816D01*
X134580927Y-116430919D01*
X134561349Y-116454775D01*
X134514854Y-116501270D01*
X134366649Y-116530749D01*
X134221058Y-116591055D01*
X134090030Y-116678605D01*
X133978599Y-116790036D01*
X133891049Y-116921064D01*
X133830743Y-117066655D01*
X133800000Y-117221213D01*
X133800000Y-117378799D01*
X133830743Y-117533357D01*
X133891049Y-117678948D01*
X133978599Y-117809976D01*
X134090030Y-117921407D01*
X134221058Y-118008957D01*
X134366649Y-118069263D01*
X134521207Y-118100006D01*
X134678793Y-118100006D01*
X134833351Y-118069263D01*
X134847485Y-118063408D01*
X134878599Y-118109974D01*
X134990030Y-118221405D01*
X135121058Y-118308955D01*
X135266649Y-118369261D01*
X135421207Y-118400004D01*
X135578793Y-118400004D01*
X135733351Y-118369261D01*
X135878942Y-118308955D01*
X136004584Y-118225004D01*
X137425799Y-118225004D01*
X137456493Y-118228027D01*
X137487187Y-118225004D01*
X137487197Y-118225004D01*
X137579014Y-118215961D01*
X137696827Y-118180223D01*
X137805404Y-118122187D01*
X137900573Y-118044084D01*
X137920151Y-118020228D01*
X138472210Y-117468169D01*
X138526185Y-117439319D01*
X138602320Y-117376837D01*
X140016534Y-115962623D01*
X140079016Y-115886488D01*
X140125445Y-115799626D01*
X140154035Y-115705376D01*
X140163689Y-115607359D01*
X140154035Y-115509342D01*
X140125445Y-115415092D01*
X140079016Y-115328230D01*
X140016534Y-115252095D01*
X139804402Y-115039963D01*
X139728267Y-114977481D01*
X139726438Y-114976504D01*
X139725462Y-114974677D01*
X139662980Y-114898542D01*
X139450848Y-114686410D01*
X139374713Y-114623928D01*
X139372886Y-114622952D01*
X139371909Y-114621123D01*
X139309427Y-114544988D01*
X139097295Y-114332856D01*
X139021160Y-114270374D01*
X139019333Y-114269397D01*
X139018356Y-114267570D01*
X138955874Y-114191435D01*
X138743742Y-113979303D01*
X138667607Y-113916821D01*
X138665778Y-113915844D01*
X138664802Y-113914017D01*
X138602320Y-113837882D01*
X138390188Y-113625750D01*
X138314053Y-113563268D01*
X138312226Y-113562292D01*
X138311249Y-113560463D01*
X138248767Y-113484328D01*
X138036635Y-113272196D01*
X137960500Y-113209714D01*
X137958671Y-113208737D01*
X137957695Y-113206910D01*
X137895213Y-113130775D01*
X137683081Y-112918643D01*
X137606946Y-112856161D01*
X137605119Y-112855185D01*
X137604142Y-112853356D01*
X137541660Y-112777221D01*
X137329528Y-112565089D01*
X137253393Y-112502607D01*
X137251566Y-112501630D01*
X137250589Y-112499803D01*
X137188107Y-112423668D01*
X136975975Y-112211536D01*
X136899840Y-112149054D01*
X136812978Y-112102625D01*
X136718728Y-112074035D01*
X136627488Y-112065048D01*
X136618501Y-111973808D01*
X136589911Y-111879558D01*
X136589109Y-111878057D01*
X136633351Y-111869257D01*
X136778942Y-111808951D01*
X136909970Y-111721401D01*
X136915632Y-111715739D01*
X136978599Y-111809976D01*
X137090030Y-111921407D01*
X137221058Y-112008957D01*
X137366649Y-112069263D01*
X137521207Y-112100006D01*
X137678793Y-112100006D01*
X137833351Y-112069263D01*
X137978942Y-112008957D01*
X138109970Y-111921407D01*
X138221401Y-111809976D01*
X138308951Y-111678948D01*
X138369257Y-111533357D01*
X138400000Y-111378799D01*
X138400000Y-111221213D01*
X138369257Y-111066655D01*
X138308951Y-110921064D01*
X138221401Y-110790036D01*
X138109970Y-110678605D01*
X137978942Y-110591055D01*
X137833351Y-110530749D01*
X137685148Y-110501270D01*
X137163653Y-109979777D01*
X137144075Y-109955921D01*
X137048906Y-109877818D01*
X136940329Y-109819782D01*
X136822516Y-109784044D01*
X136730699Y-109775001D01*
X136730689Y-109775001D01*
X136699995Y-109771978D01*
X136669301Y-109775001D01*
X135494801Y-109775001D01*
X135464107Y-109771978D01*
X135433413Y-109775001D01*
X135433404Y-109775001D01*
X135341587Y-109784044D01*
X135223774Y-109819782D01*
X135223772Y-109819783D01*
X135115195Y-109877819D01*
X135067785Y-109916728D01*
X135020028Y-109955921D01*
X135000454Y-109979772D01*
X134872332Y-110107894D01*
X134854654Y-110090216D01*
X134778519Y-110027734D01*
X134776692Y-110026758D01*
X134775715Y-110024929D01*
X134713233Y-109948794D01*
X134501101Y-109736662D01*
X134424966Y-109674180D01*
X134338104Y-109627751D01*
X134243854Y-109599161D01*
X134145837Y-109589507D01*
X134047820Y-109599161D01*
X133953570Y-109627751D01*
X133866708Y-109674180D01*
X133790573Y-109736662D01*
X132376359Y-111150876D01*
X132313877Y-111227011D01*
X132267448Y-111313873D01*
X132238858Y-111408123D01*
X132229204Y-111506140D01*
X131749118Y-111506140D01*
X131739464Y-111408123D01*
X131710874Y-111313873D01*
X131664445Y-111227011D01*
X131601963Y-111150876D01*
X130187749Y-109736662D01*
X130111614Y-109674180D01*
X130024752Y-109627751D01*
X129930502Y-109599161D01*
X129832485Y-109589507D01*
X129734468Y-109599161D01*
X129640218Y-109627751D01*
X129553356Y-109674180D01*
X129477221Y-109736662D01*
X129265089Y-109948794D01*
X129202607Y-110024929D01*
X129201630Y-110026758D01*
X129199803Y-110027734D01*
X129123668Y-110090216D01*
X128911536Y-110302348D01*
X128849054Y-110378483D01*
X128848078Y-110380310D01*
X128846249Y-110381287D01*
X128770114Y-110443769D01*
X128557982Y-110655901D01*
X128495500Y-110732036D01*
X128494523Y-110733863D01*
X128492696Y-110734840D01*
X128416561Y-110797322D01*
X128204429Y-111009454D01*
X128141947Y-111085589D01*
X128140970Y-111087418D01*
X128139143Y-111088394D01*
X128063008Y-111150876D01*
X128039114Y-111174770D01*
X128037127Y-111173140D01*
X127928550Y-111115104D01*
X127810737Y-111079366D01*
X127718920Y-111070323D01*
X127718910Y-111070323D01*
X127688216Y-111067300D01*
X127657522Y-111070323D01*
X124137545Y-111070323D01*
X124106851Y-111067300D01*
X124076157Y-111070323D01*
X124076147Y-111070323D01*
X123984330Y-111079366D01*
X123866517Y-111115104D01*
X123757940Y-111173140D01*
X123662771Y-111251243D01*
X123643197Y-111275094D01*
X122243292Y-112675000D01*
X113595294Y-112675000D01*
X109936068Y-109015775D01*
X118069226Y-109015775D01*
X118129080Y-109623480D01*
X118306341Y-110207833D01*
X118594199Y-110746375D01*
X118981589Y-111218411D01*
X119453625Y-111605801D01*
X119992167Y-111893659D01*
X120576520Y-112070920D01*
X121184225Y-112130774D01*
X121791930Y-112070920D01*
X122376283Y-111893659D01*
X122914825Y-111605801D01*
X123268572Y-111315489D01*
X128115489Y-106468573D01*
X128405801Y-106114826D01*
X128693659Y-105576284D01*
X128870920Y-104991931D01*
X128930774Y-104384225D01*
X134669226Y-104384225D01*
X134729080Y-104991930D01*
X134906341Y-105576283D01*
X135194199Y-106114825D01*
X135484511Y-106468572D01*
X140331427Y-111315489D01*
X140685174Y-111605801D01*
X141223716Y-111893659D01*
X141808069Y-112070920D01*
X142415775Y-112130774D01*
X143023481Y-112070920D01*
X143607833Y-111893659D01*
X144146375Y-111605801D01*
X144618412Y-111218412D01*
X144715589Y-111100000D01*
X150320767Y-111100000D01*
X150337661Y-111271530D01*
X150387695Y-111436468D01*
X150468944Y-111588476D01*
X150578288Y-111721712D01*
X150711524Y-111831056D01*
X150863532Y-111912305D01*
X151028470Y-111962339D01*
X151157021Y-111975000D01*
X154042979Y-111975000D01*
X154171530Y-111962339D01*
X154336468Y-111912305D01*
X154488476Y-111831056D01*
X154621712Y-111721712D01*
X154731056Y-111588476D01*
X154812305Y-111436468D01*
X154862339Y-111271530D01*
X154879233Y-111100000D01*
X154862339Y-110928470D01*
X154812305Y-110763532D01*
X154731056Y-110611524D01*
X154621712Y-110478288D01*
X154488476Y-110368944D01*
X154336468Y-110287695D01*
X154171530Y-110237661D01*
X154042979Y-110225000D01*
X151157021Y-110225000D01*
X151028470Y-110237661D01*
X150863532Y-110287695D01*
X150711524Y-110368944D01*
X150578288Y-110478288D01*
X150468944Y-110611524D01*
X150387695Y-110763532D01*
X150337661Y-110928470D01*
X150320767Y-111100000D01*
X144715589Y-111100000D01*
X145005801Y-110746375D01*
X145293659Y-110207833D01*
X145470920Y-109623481D01*
X145530774Y-109015775D01*
X145470920Y-108408069D01*
X145293659Y-107823716D01*
X145005801Y-107285174D01*
X144715489Y-106931427D01*
X140188011Y-102403949D01*
X147299448Y-102403949D01*
X147309102Y-102501966D01*
X147337692Y-102596216D01*
X147384121Y-102683078D01*
X147446603Y-102759213D01*
X148648685Y-103961295D01*
X148724820Y-104023777D01*
X148811682Y-104070206D01*
X148905932Y-104098796D01*
X149003949Y-104108450D01*
X149101966Y-104098796D01*
X149196216Y-104070206D01*
X149283078Y-104023777D01*
X149359213Y-103961295D01*
X149506275Y-103814233D01*
X149469533Y-103935354D01*
X149443468Y-104200000D01*
X149469533Y-104464646D01*
X149546728Y-104719122D01*
X149672085Y-104953649D01*
X149840787Y-105159213D01*
X150046351Y-105327915D01*
X150280878Y-105453272D01*
X150535354Y-105530467D01*
X150733679Y-105550000D01*
X150866321Y-105550000D01*
X151064646Y-105530467D01*
X151319122Y-105453272D01*
X151369944Y-105426107D01*
X151342779Y-105476929D01*
X151265584Y-105731405D01*
X151239519Y-105996051D01*
X151265584Y-106260697D01*
X151342779Y-106515173D01*
X151468136Y-106749700D01*
X151636838Y-106955264D01*
X151842402Y-107123966D01*
X152076929Y-107249323D01*
X152331405Y-107326518D01*
X152529730Y-107346051D01*
X152662372Y-107346051D01*
X152860697Y-107326518D01*
X153115173Y-107249323D01*
X153349700Y-107123966D01*
X153555264Y-106955264D01*
X153723966Y-106749700D01*
X153849323Y-106515173D01*
X153926518Y-106260697D01*
X153952583Y-105996051D01*
X153926518Y-105731405D01*
X153849323Y-105476929D01*
X153723966Y-105242402D01*
X153555264Y-105036838D01*
X153349700Y-104868136D01*
X153115173Y-104742779D01*
X152860697Y-104665584D01*
X152662372Y-104646051D01*
X152529730Y-104646051D01*
X152331405Y-104665584D01*
X152076929Y-104742779D01*
X152026107Y-104769944D01*
X152053272Y-104719122D01*
X152130467Y-104464646D01*
X152156532Y-104200000D01*
X152130467Y-103935354D01*
X152053272Y-103680878D01*
X151927915Y-103446351D01*
X151759213Y-103240787D01*
X151553649Y-103072085D01*
X151319122Y-102946728D01*
X151064646Y-102869533D01*
X150866321Y-102850000D01*
X150733679Y-102850000D01*
X150535354Y-102869533D01*
X150414233Y-102906275D01*
X150561295Y-102759213D01*
X150623777Y-102683078D01*
X150670206Y-102596216D01*
X150698796Y-102501966D01*
X150708450Y-102403949D01*
X150698796Y-102305932D01*
X150670206Y-102211682D01*
X150623777Y-102124820D01*
X150561295Y-102048685D01*
X149359213Y-100846603D01*
X149283078Y-100784121D01*
X149196216Y-100737692D01*
X149101966Y-100709102D01*
X149003949Y-100699448D01*
X148905932Y-100709102D01*
X148811682Y-100737692D01*
X148724820Y-100784121D01*
X148648685Y-100846603D01*
X147446603Y-102048685D01*
X147384121Y-102124820D01*
X147337692Y-102211682D01*
X147309102Y-102305932D01*
X147299448Y-102403949D01*
X140188011Y-102403949D01*
X139868572Y-102084511D01*
X139514825Y-101794199D01*
X138976283Y-101506341D01*
X138391930Y-101329080D01*
X137784225Y-101269226D01*
X137176520Y-101329080D01*
X136592167Y-101506341D01*
X136053625Y-101794199D01*
X135581589Y-102181589D01*
X135194199Y-102653625D01*
X134906341Y-103192167D01*
X134729080Y-103776520D01*
X134669226Y-104384225D01*
X128930774Y-104384225D01*
X128870920Y-103776519D01*
X128693659Y-103192167D01*
X128405801Y-102653625D01*
X128018412Y-102181588D01*
X127546375Y-101794199D01*
X127007833Y-101506341D01*
X126423481Y-101329080D01*
X125815775Y-101269226D01*
X125208069Y-101329080D01*
X124623716Y-101506341D01*
X124085174Y-101794199D01*
X123731427Y-102084511D01*
X118884511Y-106931428D01*
X118594199Y-107285175D01*
X118306341Y-107823717D01*
X118129080Y-108408070D01*
X118069226Y-109015775D01*
X109936068Y-109015775D01*
X108009095Y-107088803D01*
X108109970Y-107021401D01*
X108221401Y-106909970D01*
X108308951Y-106778942D01*
X108369257Y-106633351D01*
X108398736Y-106485146D01*
X109458883Y-105425000D01*
X112595414Y-105425000D01*
X112721056Y-105508951D01*
X112866647Y-105569257D01*
X113021205Y-105600000D01*
X113178791Y-105600000D01*
X113333349Y-105569257D01*
X113478940Y-105508951D01*
X113609968Y-105421401D01*
X113721399Y-105309970D01*
X113808949Y-105178942D01*
X113869255Y-105033351D01*
X113899998Y-104878793D01*
X113899998Y-104721207D01*
X113869255Y-104566649D01*
X113808949Y-104421058D01*
X113721399Y-104290030D01*
X113609968Y-104178599D01*
X113478940Y-104091049D01*
X113333349Y-104030743D01*
X113178791Y-104000000D01*
X113021205Y-104000000D01*
X112866647Y-104030743D01*
X112721056Y-104091049D01*
X112595414Y-104175000D01*
X109230702Y-104175000D01*
X109200000Y-104171976D01*
X109169298Y-104175000D01*
X109169296Y-104175000D01*
X109077479Y-104184043D01*
X108959666Y-104219781D01*
X108909124Y-104246796D01*
X108851088Y-104277817D01*
X108836207Y-104290030D01*
X108755920Y-104355920D01*
X108736346Y-104379771D01*
X107514854Y-105601264D01*
X107366649Y-105630743D01*
X107225000Y-105689416D01*
X107225000Y-101021207D01*
X109800000Y-101021207D01*
X109800000Y-101178793D01*
X109830743Y-101333351D01*
X109891049Y-101478942D01*
X109978599Y-101609970D01*
X110090030Y-101721401D01*
X110221058Y-101808951D01*
X110366649Y-101869257D01*
X110521207Y-101900000D01*
X110678793Y-101900000D01*
X110833351Y-101869257D01*
X110978942Y-101808951D01*
X111109970Y-101721401D01*
X111221401Y-101609970D01*
X111308951Y-101478942D01*
X111369257Y-101333351D01*
X111400000Y-101178793D01*
X111400000Y-101048882D01*
X113137581Y-99311302D01*
X113137581Y-99825000D01*
X113147235Y-99923017D01*
X113175825Y-100017267D01*
X113222254Y-100104129D01*
X113284736Y-100180264D01*
X113360871Y-100242746D01*
X113447733Y-100289175D01*
X113541983Y-100317765D01*
X113640000Y-100327419D01*
X114071905Y-100327419D01*
X114081742Y-100335492D01*
X114255465Y-100428349D01*
X114339684Y-100453897D01*
X114395397Y-100509610D01*
X114389473Y-100514472D01*
X114264509Y-100666742D01*
X114221129Y-100747901D01*
X114171651Y-100840466D01*
X114114470Y-101028966D01*
X114095162Y-101225000D01*
X114100001Y-101274130D01*
X114100001Y-101791684D01*
X114070871Y-101807254D01*
X113994736Y-101869736D01*
X113932254Y-101945871D01*
X113885825Y-102032733D01*
X113857235Y-102126983D01*
X113847581Y-102225000D01*
X113847581Y-103475000D01*
X113857235Y-103573017D01*
X113885825Y-103667267D01*
X113932254Y-103754129D01*
X113994736Y-103830264D01*
X114070871Y-103892746D01*
X114157733Y-103939175D01*
X114251983Y-103967765D01*
X114350000Y-103977419D01*
X115850000Y-103977419D01*
X115948017Y-103967765D01*
X116042267Y-103939175D01*
X116129129Y-103892746D01*
X116205264Y-103830264D01*
X116267746Y-103754129D01*
X116314175Y-103667267D01*
X116342765Y-103573017D01*
X116352419Y-103475000D01*
X116352419Y-102225000D01*
X116342765Y-102126983D01*
X116314175Y-102032733D01*
X116267746Y-101945871D01*
X116205264Y-101869736D01*
X116129129Y-101807254D01*
X116120780Y-101802791D01*
X116149120Y-101800000D01*
X116174099Y-101800000D01*
X116321013Y-101785530D01*
X116509514Y-101728349D01*
X116683237Y-101635492D01*
X116835507Y-101510528D01*
X116960471Y-101358258D01*
X117053328Y-101184535D01*
X117110509Y-100996034D01*
X117129817Y-100800000D01*
X117110509Y-100603966D01*
X117053328Y-100415465D01*
X116960471Y-100241742D01*
X116835507Y-100089472D01*
X116683237Y-99964508D01*
X116673537Y-99959323D01*
X116142419Y-99428206D01*
X116142419Y-99175000D01*
X116132765Y-99076983D01*
X116104175Y-98982733D01*
X116057746Y-98895871D01*
X115995264Y-98819736D01*
X115919129Y-98757254D01*
X115832267Y-98710825D01*
X115738017Y-98682235D01*
X115640000Y-98672581D01*
X115368095Y-98672581D01*
X115358258Y-98664508D01*
X115184535Y-98571651D01*
X114996034Y-98514470D01*
X114849120Y-98500000D01*
X114800000Y-98495162D01*
X114750880Y-98500000D01*
X114590880Y-98500000D01*
X114443966Y-98514470D01*
X114255465Y-98571651D01*
X114081742Y-98664508D01*
X114071905Y-98672581D01*
X113776303Y-98672581D01*
X114021465Y-98427419D01*
X115640000Y-98427419D01*
X115738017Y-98417765D01*
X115832267Y-98389175D01*
X115919129Y-98342746D01*
X115995264Y-98280264D01*
X116057746Y-98204129D01*
X116104175Y-98117267D01*
X116132765Y-98023017D01*
X116142419Y-97925000D01*
X116142419Y-97275000D01*
X116132765Y-97176983D01*
X116104175Y-97082733D01*
X116057746Y-96995871D01*
X115995264Y-96919736D01*
X115919129Y-96857254D01*
X115832267Y-96810825D01*
X115738017Y-96782235D01*
X115640000Y-96772581D01*
X113640000Y-96772581D01*
X113541983Y-96782235D01*
X113447733Y-96810825D01*
X113360871Y-96857254D01*
X113284736Y-96919736D01*
X113222254Y-96995871D01*
X113175825Y-97082733D01*
X113147235Y-97176983D01*
X113137581Y-97275000D01*
X113137581Y-97543535D01*
X110338867Y-100342251D01*
X110221058Y-100391049D01*
X110090030Y-100478599D01*
X109978599Y-100590030D01*
X109891049Y-100721058D01*
X109830743Y-100866649D01*
X109800000Y-101021207D01*
X107225000Y-101021207D01*
X107225000Y-95800012D01*
X115220767Y-95800012D01*
X115237661Y-95971541D01*
X115287695Y-96136479D01*
X115368945Y-96288487D01*
X115478289Y-96421723D01*
X115611525Y-96531067D01*
X115763533Y-96612317D01*
X115928471Y-96662351D01*
X116100000Y-96679245D01*
X116271529Y-96662351D01*
X116436467Y-96612317D01*
X116588475Y-96531067D01*
X116688327Y-96449121D01*
X117562449Y-95575000D01*
X120542979Y-95575000D01*
X120671530Y-95562339D01*
X120836468Y-95512305D01*
X120988476Y-95431056D01*
X121121712Y-95321712D01*
X121231056Y-95188476D01*
X121312305Y-95036468D01*
X121362339Y-94871530D01*
X121379233Y-94700000D01*
X121362339Y-94528470D01*
X121312305Y-94363532D01*
X121231056Y-94211524D01*
X121121712Y-94078288D01*
X120988476Y-93968944D01*
X120836468Y-93887695D01*
X120671530Y-93837661D01*
X120542979Y-93825000D01*
X117242991Y-93825000D01*
X117200012Y-93820767D01*
X117157033Y-93825000D01*
X117028482Y-93837661D01*
X116863544Y-93887695D01*
X116711536Y-93968944D01*
X116578300Y-94078288D01*
X116550900Y-94111675D01*
X115450891Y-95211685D01*
X115368945Y-95311537D01*
X115287695Y-95463545D01*
X115237661Y-95628483D01*
X115220767Y-95800012D01*
X107225000Y-95800012D01*
X107225000Y-92658882D01*
X124296608Y-75587274D01*
X124374993Y-75704585D01*
X124374992Y-77441125D01*
X120814854Y-81001264D01*
X120666649Y-81030743D01*
X120521058Y-81091049D01*
X120390030Y-81178599D01*
X120278599Y-81290030D01*
X120191049Y-81421058D01*
X120130743Y-81566649D01*
X120100000Y-81721207D01*
X120100000Y-81878793D01*
X120130743Y-82033351D01*
X120191049Y-82178942D01*
X120278599Y-82309970D01*
X120390030Y-82421401D01*
X120521058Y-82508951D01*
X120666649Y-82569257D01*
X120821207Y-82600000D01*
X120978793Y-82600000D01*
X121133351Y-82569257D01*
X121278942Y-82508951D01*
X121409970Y-82421401D01*
X121521401Y-82309970D01*
X121608951Y-82178942D01*
X121669257Y-82033351D01*
X121698736Y-81885146D01*
X125420222Y-78163661D01*
X125444072Y-78144088D01*
X125516968Y-78055264D01*
X125522174Y-78048921D01*
X125580210Y-77940344D01*
X125594794Y-77892267D01*
X125615949Y-77822529D01*
X125624992Y-77730712D01*
X125624992Y-77730703D01*
X125628015Y-77700009D01*
X125624992Y-77669315D01*
X125624992Y-75704584D01*
X125708943Y-75578942D01*
X125769249Y-75433351D01*
X125799992Y-75278793D01*
X125799992Y-75121207D01*
X125769249Y-74966649D01*
X125708943Y-74821058D01*
X125621393Y-74690030D01*
X125509962Y-74578599D01*
X125387266Y-74496617D01*
X127358883Y-72525000D01*
X128727882Y-72525000D01*
X128749561Y-81175000D01*
X127658883Y-81175000D01*
X126998736Y-80514854D01*
X126969257Y-80366649D01*
X126908951Y-80221058D01*
X126821401Y-80090030D01*
X126709970Y-79978599D01*
X126578942Y-79891049D01*
X126433351Y-79830743D01*
X126278793Y-79800000D01*
X126121207Y-79800000D01*
X125966649Y-79830743D01*
X125821058Y-79891049D01*
X125690030Y-79978599D01*
X125578599Y-80090030D01*
X125491049Y-80221058D01*
X125430743Y-80366649D01*
X125400000Y-80521207D01*
X125400000Y-80678793D01*
X125430743Y-80833351D01*
X125491049Y-80978942D01*
X125578599Y-81109970D01*
X125690030Y-81221401D01*
X125821058Y-81308951D01*
X125966649Y-81369257D01*
X126114854Y-81398736D01*
X126936346Y-82220229D01*
X126955920Y-82244080D01*
X126979769Y-82263652D01*
X127051087Y-82322182D01*
X127051089Y-82322183D01*
X127159666Y-82380219D01*
X127277479Y-82415957D01*
X127369296Y-82425000D01*
X127369305Y-82425000D01*
X127399999Y-82428023D01*
X127430693Y-82425000D01*
X128752694Y-82425000D01*
X128775421Y-91493250D01*
X128693659Y-91223716D01*
X128405801Y-90685174D01*
X128115489Y-90331427D01*
X123268572Y-85484511D01*
X122914825Y-85194199D01*
X122376283Y-84906341D01*
X121791930Y-84729080D01*
X121184225Y-84669226D01*
X120576520Y-84729080D01*
X119992167Y-84906341D01*
X119453625Y-85194199D01*
X118981589Y-85581589D01*
X118594199Y-86053625D01*
X118306341Y-86592167D01*
X118129080Y-87176520D01*
X118069226Y-87784225D01*
X118129080Y-88391930D01*
X118306341Y-88976283D01*
X118594199Y-89514825D01*
X118884511Y-89868572D01*
X123731427Y-94715489D01*
X124085174Y-95005801D01*
X124623716Y-95293659D01*
X125208069Y-95470920D01*
X125815775Y-95530774D01*
X126423481Y-95470920D01*
X127007833Y-95293659D01*
X127546375Y-95005801D01*
X128018412Y-94618412D01*
X128405801Y-94146375D01*
X128693659Y-93607833D01*
X128780007Y-93323180D01*
X128782412Y-94282569D01*
X128548939Y-94438571D01*
X127838571Y-95148939D01*
X127280438Y-95984244D01*
X126895990Y-96912385D01*
X126700000Y-97897694D01*
X126700000Y-98902306D01*
X126895990Y-99887615D01*
X127280438Y-100815756D01*
X127838571Y-101651061D01*
X128548939Y-102361429D01*
X129384244Y-102919562D01*
X130312385Y-103304010D01*
X131297694Y-103500000D01*
X132302306Y-103500000D01*
X133287615Y-103304010D01*
X134215756Y-102919562D01*
X135051061Y-102361429D01*
X135761429Y-101651061D01*
X136319562Y-100815756D01*
X136704010Y-99887615D01*
X136900000Y-98902306D01*
X136900000Y-97897694D01*
X136704010Y-96912385D01*
X136366183Y-96096797D01*
X137235422Y-95476721D01*
X137784225Y-95530774D01*
X138391930Y-95470920D01*
X138968397Y-95296051D01*
X147299448Y-95296051D01*
X147309102Y-95394068D01*
X147337692Y-95488318D01*
X147384121Y-95575180D01*
X147446603Y-95651315D01*
X148648685Y-96853397D01*
X148724820Y-96915879D01*
X148811682Y-96962308D01*
X148905932Y-96990898D01*
X149003949Y-97000552D01*
X149101966Y-96990898D01*
X149196216Y-96962308D01*
X149283078Y-96915879D01*
X149359213Y-96853397D01*
X150561295Y-95651315D01*
X150623777Y-95575180D01*
X150670206Y-95488318D01*
X150698796Y-95394068D01*
X150708450Y-95296051D01*
X150698796Y-95198034D01*
X150670206Y-95103784D01*
X150623777Y-95016922D01*
X150561295Y-94940787D01*
X150414233Y-94793725D01*
X150535354Y-94830467D01*
X150733679Y-94850000D01*
X150866321Y-94850000D01*
X151064646Y-94830467D01*
X151319122Y-94753272D01*
X151553649Y-94627915D01*
X151759213Y-94459213D01*
X151927915Y-94253649D01*
X152053272Y-94019122D01*
X152130467Y-93764646D01*
X152156532Y-93500000D01*
X152130467Y-93235354D01*
X152053272Y-92980878D01*
X152026107Y-92930056D01*
X152076929Y-92957221D01*
X152331405Y-93034416D01*
X152529730Y-93053949D01*
X152662372Y-93053949D01*
X152860697Y-93034416D01*
X153115173Y-92957221D01*
X153349700Y-92831864D01*
X153555264Y-92663162D01*
X153723966Y-92457598D01*
X153849323Y-92223071D01*
X153926518Y-91968595D01*
X153952583Y-91703949D01*
X153926518Y-91439303D01*
X153849323Y-91184827D01*
X153723966Y-90950300D01*
X153555264Y-90744736D01*
X153349700Y-90576034D01*
X153115173Y-90450677D01*
X152860697Y-90373482D01*
X152662372Y-90353949D01*
X152529730Y-90353949D01*
X152331405Y-90373482D01*
X152076929Y-90450677D01*
X151842402Y-90576034D01*
X151636838Y-90744736D01*
X151468136Y-90950300D01*
X151342779Y-91184827D01*
X151265584Y-91439303D01*
X151239519Y-91703949D01*
X151265584Y-91968595D01*
X151342779Y-92223071D01*
X151369944Y-92273893D01*
X151319122Y-92246728D01*
X151064646Y-92169533D01*
X150866321Y-92150000D01*
X150733679Y-92150000D01*
X150535354Y-92169533D01*
X150280878Y-92246728D01*
X150046351Y-92372085D01*
X149840787Y-92540787D01*
X149672085Y-92746351D01*
X149546728Y-92980878D01*
X149469533Y-93235354D01*
X149443468Y-93500000D01*
X149469533Y-93764646D01*
X149506275Y-93885767D01*
X149359213Y-93738705D01*
X149283078Y-93676223D01*
X149196216Y-93629794D01*
X149101966Y-93601204D01*
X149003949Y-93591550D01*
X148905932Y-93601204D01*
X148811682Y-93629794D01*
X148724820Y-93676223D01*
X148648685Y-93738705D01*
X147446603Y-94940787D01*
X147384121Y-95016922D01*
X147337692Y-95103784D01*
X147309102Y-95198034D01*
X147299448Y-95296051D01*
X138968397Y-95296051D01*
X138976283Y-95293659D01*
X139514825Y-95005801D01*
X139868572Y-94715489D01*
X143765866Y-90818196D01*
X156591689Y-81668831D01*
X156954093Y-82189293D01*
X158048743Y-84029233D01*
X159009040Y-85942729D01*
X159830069Y-87919987D01*
X160507628Y-89950886D01*
X161038249Y-92025031D01*
X161419216Y-94131806D01*
X161648579Y-96260427D01*
X161725164Y-98400000D01*
X161675543Y-100122613D01*
X161475922Y-102254229D01*
X161124407Y-104366118D01*
X160622798Y-106447470D01*
X159973660Y-108487631D01*
X159180318Y-110476159D01*
X158246831Y-112402876D01*
X157177978Y-114257921D01*
X155979230Y-116031798D01*
X154656721Y-117715427D01*
X153217222Y-119300192D01*
X151668101Y-120777980D01*
X150017286Y-122141229D01*
X148273226Y-123382959D01*
X146444850Y-124496816D01*
X144541515Y-125477098D01*
X142572964Y-126318788D01*
X140549271Y-127017577D01*
X138480796Y-127569889D01*
X136378126Y-127972896D01*
X134252023Y-128224537D01*
X132113370Y-128323523D01*
X129973112Y-128269348D01*
X127842206Y-128062288D01*
X125731557Y-127703403D01*
X123651969Y-127194531D01*
X121614086Y-126538276D01*
X119628339Y-125737998D01*
X117704892Y-124797791D01*
X115853590Y-123722469D01*
X114083909Y-122517536D01*
X113429770Y-122000000D01*
X118095162Y-122000000D01*
X118114470Y-122196034D01*
X118171651Y-122384535D01*
X118264508Y-122558258D01*
X118389472Y-122710528D01*
X118541742Y-122835492D01*
X118715465Y-122928349D01*
X118903966Y-122985530D01*
X119050880Y-123000000D01*
X119783114Y-123000000D01*
X119832234Y-123004838D01*
X119881354Y-123000000D01*
X119961878Y-122992069D01*
X120028268Y-122985530D01*
X120098241Y-122964304D01*
X120216769Y-122928349D01*
X120390492Y-122835492D01*
X120542762Y-122710528D01*
X120574083Y-122672363D01*
X121474880Y-121771566D01*
X121506488Y-121781154D01*
X121604505Y-121790808D01*
X121702522Y-121781154D01*
X121796772Y-121752564D01*
X121883634Y-121706135D01*
X121959769Y-121643653D01*
X122843653Y-120759769D01*
X122906135Y-120683634D01*
X122952564Y-120596772D01*
X122981154Y-120502522D01*
X122990808Y-120404505D01*
X122981154Y-120306488D01*
X122952564Y-120212238D01*
X122906135Y-120125376D01*
X122843653Y-120049241D01*
X122715123Y-119920711D01*
X123814633Y-119920711D01*
X123824287Y-120018728D01*
X123852877Y-120112978D01*
X123899306Y-120199840D01*
X123961788Y-120275975D01*
X124173920Y-120488107D01*
X124250055Y-120550589D01*
X124251884Y-120551566D01*
X124252860Y-120553393D01*
X124315342Y-120629528D01*
X124527474Y-120841660D01*
X124603609Y-120904142D01*
X124605436Y-120905118D01*
X124606413Y-120906947D01*
X124668895Y-120983082D01*
X124881027Y-121195214D01*
X124957162Y-121257696D01*
X124958989Y-121258673D01*
X124959966Y-121260500D01*
X125022448Y-121336635D01*
X125234580Y-121548767D01*
X125310715Y-121611249D01*
X125312544Y-121612226D01*
X125313520Y-121614053D01*
X125376002Y-121690188D01*
X125588134Y-121902320D01*
X125664269Y-121964802D01*
X125666096Y-121965778D01*
X125667073Y-121967607D01*
X125729555Y-122043742D01*
X125747233Y-122061420D01*
X125279771Y-122528883D01*
X125255921Y-122548456D01*
X125177818Y-122643625D01*
X125119781Y-122752202D01*
X125091966Y-122843897D01*
X125040030Y-122878599D01*
X124928599Y-122990030D01*
X124841049Y-123121058D01*
X124780743Y-123266649D01*
X124750000Y-123421207D01*
X124750000Y-123578793D01*
X124780743Y-123733351D01*
X124841049Y-123878942D01*
X124928599Y-124009970D01*
X125040030Y-124121401D01*
X125171058Y-124208951D01*
X125316649Y-124269257D01*
X125471207Y-124300000D01*
X125628793Y-124300000D01*
X125696165Y-124286599D01*
X125778599Y-124409970D01*
X125890030Y-124521401D01*
X126021058Y-124608951D01*
X126166649Y-124669257D01*
X126321207Y-124700000D01*
X126478793Y-124700000D01*
X126633351Y-124669257D01*
X126778942Y-124608951D01*
X126909970Y-124521401D01*
X127021401Y-124409970D01*
X127108951Y-124278942D01*
X127169257Y-124133351D01*
X127200000Y-123978793D01*
X127200000Y-123821207D01*
X127169257Y-123666649D01*
X127108951Y-123521058D01*
X127025000Y-123395416D01*
X127025000Y-123335125D01*
X127078482Y-123379016D01*
X127080311Y-123379993D01*
X127081287Y-123381820D01*
X127143769Y-123457955D01*
X127355901Y-123670087D01*
X127432036Y-123732569D01*
X127433863Y-123733545D01*
X127434840Y-123735374D01*
X127497322Y-123811509D01*
X127709454Y-124023641D01*
X127785589Y-124086123D01*
X127787418Y-124087100D01*
X127788394Y-124088927D01*
X127850876Y-124165062D01*
X128063008Y-124377194D01*
X128139143Y-124439676D01*
X128140970Y-124440652D01*
X128141947Y-124442481D01*
X128204429Y-124518616D01*
X128312386Y-124626573D01*
X128178793Y-124600000D01*
X128021207Y-124600000D01*
X127866649Y-124630743D01*
X127721058Y-124691049D01*
X127590030Y-124778599D01*
X127478599Y-124890030D01*
X127391049Y-125021058D01*
X127330743Y-125166649D01*
X127300000Y-125321207D01*
X127300000Y-125478793D01*
X127330743Y-125633351D01*
X127391049Y-125778942D01*
X127478599Y-125909970D01*
X127590030Y-126021401D01*
X127721058Y-126108951D01*
X127866649Y-126169257D01*
X128021207Y-126200000D01*
X128178793Y-126200000D01*
X128333351Y-126169257D01*
X128478942Y-126108951D01*
X128604584Y-126025000D01*
X128918696Y-126025000D01*
X128949390Y-126028023D01*
X128980084Y-126025000D01*
X128980094Y-126025000D01*
X129071911Y-126015957D01*
X129189724Y-125980219D01*
X129298301Y-125922183D01*
X129393470Y-125844080D01*
X129413048Y-125820224D01*
X129704086Y-125529187D01*
X129758061Y-125500336D01*
X129834196Y-125437854D01*
X131248410Y-124023640D01*
X131249813Y-124021930D01*
X132229204Y-124021930D01*
X132238858Y-124119947D01*
X132267448Y-124214197D01*
X132313877Y-124301059D01*
X132376359Y-124377194D01*
X133790573Y-125791408D01*
X133866708Y-125853890D01*
X133953570Y-125900319D01*
X134047820Y-125928909D01*
X134145837Y-125938563D01*
X134243854Y-125928909D01*
X134338104Y-125900319D01*
X134424966Y-125853890D01*
X134501101Y-125791408D01*
X134713233Y-125579276D01*
X134775715Y-125503141D01*
X134776692Y-125501312D01*
X134778519Y-125500336D01*
X134854654Y-125437854D01*
X135066786Y-125225722D01*
X135129268Y-125149587D01*
X135130244Y-125147760D01*
X135132073Y-125146783D01*
X135208208Y-125084301D01*
X135420340Y-124872169D01*
X135482822Y-124796034D01*
X135483799Y-124794207D01*
X135485626Y-124793230D01*
X135561761Y-124730748D01*
X135773893Y-124518616D01*
X135836375Y-124442481D01*
X135837352Y-124440652D01*
X135839179Y-124439676D01*
X135915314Y-124377194D01*
X136127446Y-124165062D01*
X136189928Y-124088927D01*
X136190904Y-124087100D01*
X136192733Y-124086123D01*
X136268868Y-124023641D01*
X136481000Y-123811509D01*
X136543482Y-123735374D01*
X136544459Y-123733545D01*
X136546286Y-123732569D01*
X136622421Y-123670087D01*
X136834553Y-123457955D01*
X136897035Y-123381820D01*
X136898011Y-123379993D01*
X136899840Y-123379016D01*
X136975975Y-123316534D01*
X137188107Y-123104402D01*
X137250589Y-123028267D01*
X137251566Y-123026440D01*
X137253393Y-123025463D01*
X137329528Y-122962981D01*
X137541660Y-122750849D01*
X137604142Y-122674714D01*
X137605119Y-122672885D01*
X137606946Y-122671909D01*
X137683081Y-122609427D01*
X137703526Y-122588982D01*
X137743982Y-122622183D01*
X137852559Y-122680219D01*
X137970372Y-122715957D01*
X138062189Y-122725000D01*
X138062191Y-122725000D01*
X138092893Y-122728024D01*
X138123594Y-122725000D01*
X138195416Y-122725000D01*
X138321058Y-122808951D01*
X138466649Y-122869257D01*
X138621207Y-122900000D01*
X138778793Y-122900000D01*
X138933351Y-122869257D01*
X139078942Y-122808951D01*
X139209970Y-122721401D01*
X139321401Y-122609970D01*
X139408951Y-122478942D01*
X139469257Y-122333351D01*
X139500000Y-122178793D01*
X139500000Y-122021207D01*
X139482755Y-121934507D01*
X139566649Y-121969257D01*
X139721207Y-122000000D01*
X139878793Y-122000000D01*
X140033351Y-121969257D01*
X140178942Y-121908951D01*
X140309970Y-121821401D01*
X140421401Y-121709970D01*
X140508951Y-121578942D01*
X140568266Y-121435743D01*
X140593865Y-121483634D01*
X140656347Y-121559769D01*
X141540231Y-122443653D01*
X141616366Y-122506135D01*
X141703228Y-122552564D01*
X141797478Y-122581154D01*
X141895495Y-122590808D01*
X141993512Y-122581154D01*
X142087762Y-122552564D01*
X142174624Y-122506135D01*
X142250759Y-122443653D01*
X143311419Y-121382993D01*
X143373901Y-121306858D01*
X143420330Y-121219996D01*
X143448920Y-121125746D01*
X143458574Y-121027729D01*
X143449391Y-120934492D01*
X143585146Y-120798736D01*
X143733351Y-120769257D01*
X143878942Y-120708951D01*
X144009970Y-120621401D01*
X144121401Y-120509970D01*
X144208951Y-120378942D01*
X144269257Y-120233351D01*
X144300000Y-120078793D01*
X144300000Y-119921207D01*
X144269257Y-119766649D01*
X144208951Y-119621058D01*
X144121401Y-119490030D01*
X144009970Y-119378599D01*
X143878942Y-119291049D01*
X143733351Y-119230743D01*
X143578793Y-119200000D01*
X143421207Y-119200000D01*
X143266649Y-119230743D01*
X143121058Y-119291049D01*
X142990030Y-119378599D01*
X142878599Y-119490030D01*
X142791049Y-119621058D01*
X142730743Y-119766649D01*
X142701264Y-119914854D01*
X142627536Y-119988582D01*
X142427535Y-119788581D01*
X142351400Y-119726099D01*
X142264538Y-119679670D01*
X142170288Y-119651080D01*
X142072271Y-119641426D01*
X141974254Y-119651080D01*
X141880004Y-119679670D01*
X141793142Y-119726099D01*
X141717007Y-119788581D01*
X140656347Y-120849241D01*
X140593865Y-120925376D01*
X140569948Y-120970122D01*
X140569257Y-120966649D01*
X140508951Y-120821058D01*
X140421401Y-120690030D01*
X140309970Y-120578599D01*
X140178942Y-120491049D01*
X140033351Y-120430743D01*
X139890233Y-120402276D01*
X140016534Y-120275975D01*
X140079016Y-120199840D01*
X140125445Y-120112978D01*
X140154035Y-120018728D01*
X140163689Y-119920711D01*
X140154035Y-119822694D01*
X140125445Y-119728444D01*
X140079016Y-119641582D01*
X140016534Y-119565447D01*
X138602320Y-118151233D01*
X138526185Y-118088751D01*
X138439323Y-118042322D01*
X138345073Y-118013732D01*
X138247056Y-118004078D01*
X138149039Y-118013732D01*
X138054789Y-118042322D01*
X137967927Y-118088751D01*
X137891792Y-118151233D01*
X137679660Y-118363365D01*
X137617178Y-118439500D01*
X137616202Y-118441327D01*
X137614373Y-118442304D01*
X137538238Y-118504786D01*
X137326106Y-118716918D01*
X137263624Y-118793053D01*
X137262647Y-118794882D01*
X137260820Y-118795858D01*
X137184685Y-118858340D01*
X137128875Y-118914150D01*
X137029629Y-118884044D01*
X136937812Y-118875001D01*
X136937802Y-118875001D01*
X136907108Y-118871978D01*
X136876414Y-118875001D01*
X134430692Y-118875001D01*
X134399998Y-118871978D01*
X134369304Y-118875001D01*
X134369295Y-118875001D01*
X134277478Y-118884044D01*
X134159665Y-118919782D01*
X134159663Y-118919783D01*
X134051086Y-118977819D01*
X134013548Y-119008626D01*
X133955919Y-119055921D01*
X133936345Y-119079772D01*
X133614854Y-119401264D01*
X133466649Y-119430743D01*
X133321058Y-119491049D01*
X133190030Y-119578599D01*
X133078599Y-119690030D01*
X132991049Y-119821058D01*
X132930743Y-119966649D01*
X132900000Y-120121207D01*
X132900000Y-120278793D01*
X132930743Y-120433351D01*
X132991049Y-120578942D01*
X133078599Y-120709970D01*
X133190030Y-120821401D01*
X133321058Y-120908951D01*
X133466649Y-120969257D01*
X133621207Y-121000000D01*
X133778793Y-121000000D01*
X133933351Y-120969257D01*
X134078942Y-120908951D01*
X134209970Y-120821401D01*
X134321401Y-120709970D01*
X134408951Y-120578942D01*
X134469257Y-120433351D01*
X134498736Y-120285146D01*
X134658882Y-120125001D01*
X135918024Y-120125001D01*
X135911893Y-120131132D01*
X135849411Y-120207267D01*
X135848435Y-120209094D01*
X135846606Y-120210071D01*
X135770471Y-120272553D01*
X135558339Y-120484685D01*
X135495857Y-120560820D01*
X135494880Y-120562649D01*
X135493053Y-120563625D01*
X135416918Y-120626107D01*
X135204786Y-120838239D01*
X135142304Y-120914374D01*
X135141327Y-120916201D01*
X135139500Y-120917178D01*
X135063365Y-120979660D01*
X134851233Y-121191792D01*
X134788751Y-121267927D01*
X134787775Y-121269754D01*
X134785946Y-121270731D01*
X134709811Y-121333213D01*
X134497679Y-121545345D01*
X134435197Y-121621480D01*
X134434220Y-121623309D01*
X134432393Y-121624285D01*
X134356258Y-121686767D01*
X134144126Y-121898899D01*
X134081644Y-121975034D01*
X134080668Y-121976861D01*
X134078839Y-121977838D01*
X134002704Y-122040320D01*
X133790572Y-122252452D01*
X133728090Y-122328587D01*
X133727113Y-122330416D01*
X133725286Y-122331392D01*
X133649151Y-122393874D01*
X133437019Y-122606006D01*
X133374537Y-122682141D01*
X133373560Y-122683968D01*
X133371733Y-122684945D01*
X133295598Y-122747427D01*
X133083466Y-122959559D01*
X133020984Y-123035694D01*
X133020008Y-123037521D01*
X133018179Y-123038498D01*
X132942044Y-123100980D01*
X132729912Y-123313112D01*
X132667430Y-123389247D01*
X132666453Y-123391076D01*
X132664626Y-123392052D01*
X132588491Y-123454534D01*
X132376359Y-123666666D01*
X132313877Y-123742801D01*
X132267448Y-123829663D01*
X132238858Y-123923913D01*
X132229204Y-124021930D01*
X131249813Y-124021930D01*
X131310892Y-123947505D01*
X131357321Y-123860643D01*
X131385911Y-123766393D01*
X131395565Y-123668376D01*
X131385911Y-123570359D01*
X131357321Y-123476109D01*
X131310892Y-123389247D01*
X131248410Y-123313112D01*
X131036278Y-123100980D01*
X130960143Y-123038498D01*
X130958314Y-123037521D01*
X130957338Y-123035694D01*
X130894856Y-122959559D01*
X130682724Y-122747427D01*
X130606589Y-122684945D01*
X130604762Y-122683968D01*
X130603785Y-122682141D01*
X130541303Y-122606006D01*
X130329171Y-122393874D01*
X130253036Y-122331392D01*
X130251209Y-122330416D01*
X130250232Y-122328587D01*
X130187750Y-122252452D01*
X129975618Y-122040320D01*
X129899483Y-121977838D01*
X129897654Y-121976861D01*
X129896678Y-121975034D01*
X129834196Y-121898899D01*
X129622064Y-121686767D01*
X129545929Y-121624285D01*
X129544102Y-121623309D01*
X129543125Y-121621480D01*
X129480643Y-121545345D01*
X129268511Y-121333213D01*
X129192376Y-121270731D01*
X129190547Y-121269754D01*
X129189571Y-121267927D01*
X129127089Y-121191792D01*
X128914957Y-120979660D01*
X128838822Y-120917178D01*
X128836995Y-120916201D01*
X128836018Y-120914374D01*
X128773536Y-120838239D01*
X128561404Y-120626107D01*
X128485269Y-120563625D01*
X128483442Y-120562649D01*
X128482465Y-120560820D01*
X128419983Y-120484685D01*
X128207851Y-120272553D01*
X128131716Y-120210071D01*
X128129887Y-120209094D01*
X128128911Y-120207267D01*
X128066429Y-120131132D01*
X127854297Y-119919000D01*
X127778162Y-119856518D01*
X127776335Y-119855542D01*
X127775358Y-119853713D01*
X127712876Y-119777578D01*
X127560299Y-119625001D01*
X128568706Y-119625001D01*
X128591049Y-119678942D01*
X128678599Y-119809970D01*
X128790030Y-119921401D01*
X128921058Y-120008951D01*
X129066649Y-120069257D01*
X129221207Y-120100000D01*
X129378793Y-120100000D01*
X129533351Y-120069257D01*
X129678942Y-120008951D01*
X129809970Y-119921401D01*
X129921401Y-119809970D01*
X130008951Y-119678942D01*
X130069257Y-119533351D01*
X130100000Y-119378793D01*
X130100000Y-119221207D01*
X130069257Y-119066649D01*
X130064921Y-119056180D01*
X130178942Y-119008951D01*
X130309970Y-118921401D01*
X130421401Y-118809970D01*
X130508951Y-118678942D01*
X130569257Y-118533351D01*
X130600000Y-118378793D01*
X130600000Y-118221207D01*
X130569257Y-118066649D01*
X130508951Y-117921058D01*
X130421401Y-117790030D01*
X130309970Y-117678599D01*
X130184860Y-117595003D01*
X130184860Y-117485880D01*
X130154117Y-117331322D01*
X130093811Y-117185731D01*
X130006261Y-117054703D01*
X129894830Y-116943272D01*
X129763802Y-116855722D01*
X129618211Y-116795416D01*
X129463653Y-116764673D01*
X129306067Y-116764673D01*
X129151509Y-116795416D01*
X129005918Y-116855722D01*
X128880276Y-116939673D01*
X126915915Y-116939673D01*
X126885221Y-116936650D01*
X126854527Y-116939673D01*
X126854518Y-116939673D01*
X126762701Y-116948716D01*
X126644888Y-116984454D01*
X126644886Y-116984455D01*
X126536309Y-117042491D01*
X126502589Y-117070165D01*
X126441142Y-117120593D01*
X126421568Y-117144444D01*
X125506112Y-118059901D01*
X125452137Y-118088751D01*
X125376002Y-118151233D01*
X123961788Y-119565447D01*
X123899306Y-119641582D01*
X123852877Y-119728444D01*
X123824287Y-119822694D01*
X123814633Y-119920711D01*
X122715123Y-119920711D01*
X121782993Y-118988581D01*
X121706858Y-118926099D01*
X121619996Y-118879670D01*
X121525746Y-118851080D01*
X121427729Y-118841426D01*
X121329712Y-118851080D01*
X121235462Y-118879670D01*
X121148600Y-118926099D01*
X121072465Y-118988581D01*
X120188581Y-119872465D01*
X120126099Y-119948600D01*
X120079670Y-120035462D01*
X120051080Y-120129712D01*
X120041426Y-120227729D01*
X120051080Y-120325746D01*
X120060668Y-120357354D01*
X119418022Y-121000000D01*
X119050880Y-121000000D01*
X118903966Y-121014470D01*
X118715465Y-121071651D01*
X118541742Y-121164508D01*
X118389472Y-121289472D01*
X118264508Y-121441742D01*
X118171651Y-121615465D01*
X118114470Y-121803966D01*
X118095162Y-122000000D01*
X113429770Y-122000000D01*
X112404906Y-121189159D01*
X110825175Y-119744137D01*
X109352803Y-118189866D01*
X107995326Y-116534302D01*
X106759691Y-114785919D01*
X105652223Y-112953666D01*
X104678591Y-111046921D01*
X103843778Y-109075443D01*
X103152057Y-107049324D01*
X102606969Y-104978934D01*
X102211303Y-102874870D01*
X101967085Y-100747901D01*
X101875565Y-98608915D01*
X101937211Y-96468860D01*
X102151708Y-94338689D01*
X102517958Y-92229306D01*
X103034086Y-90151507D01*
X103697450Y-88115927D01*
X104504656Y-86132986D01*
X105451571Y-84212833D01*
X106533348Y-82365295D01*
X107744452Y-80599831D01*
X109078682Y-78925475D01*
X110529209Y-77350798D01*
X112088610Y-75883860D01*
X113748902Y-74532170D01*
X115501588Y-73302646D01*
X117337695Y-72201580D01*
X119247828Y-71234610D01*
X121222207Y-70406684D01*
X123250729Y-69722040D01*
X125323009Y-69184182D01*
X127428441Y-68795863D01*
X128718176Y-68652336D01*
X128724749Y-71275000D01*
M02*
