%TF.GenerationSoftware,KiCad,Pcbnew,(5.1.9)-1*%
%TF.CreationDate,2021-08-01T23:03:51+02:00*%
%TF.ProjectId,Wheel_ECU,57686565-6c5f-4454-9355-2e6b69636164,1.0*%
%TF.SameCoordinates,Original*%
%TF.FileFunction,Soldermask,Top*%
%TF.FilePolarity,Negative*%
%FSLAX46Y46*%
G04 Gerber Fmt 4.6, Leading zero omitted, Abs format (unit mm)*
G04 Created by KiCad (PCBNEW (5.1.9)-1) date 2021-08-01 23:03:51*
%MOMM*%
%LPD*%
G01*
G04 APERTURE LIST*
%ADD10C,0.010000*%
%ADD11C,3.400000*%
%ADD12C,10.020000*%
G04 APERTURE END LIST*
D10*
G36*
X113907692Y-78797414D02*
G01*
X114339109Y-79046576D01*
X114342541Y-79414818D01*
X114345973Y-79783061D01*
X114660700Y-79601022D01*
X114740340Y-79555166D01*
X114809115Y-79516006D01*
X114866892Y-79483618D01*
X114913535Y-79458073D01*
X114948909Y-79439446D01*
X114972879Y-79427810D01*
X114985311Y-79423238D01*
X114986781Y-79423259D01*
X114994475Y-79427326D01*
X115013076Y-79437710D01*
X115041611Y-79453854D01*
X115079101Y-79475200D01*
X115124572Y-79501189D01*
X115177048Y-79531262D01*
X115235553Y-79564862D01*
X115299112Y-79601431D01*
X115366749Y-79640409D01*
X115422041Y-79672318D01*
X115845946Y-79917099D01*
X115845719Y-80418509D01*
X115845493Y-80919919D01*
X115529936Y-81101597D01*
X115469884Y-81136240D01*
X115413581Y-81168855D01*
X115362122Y-81198798D01*
X115316601Y-81225426D01*
X115278113Y-81248094D01*
X115247753Y-81266161D01*
X115226615Y-81278983D01*
X115215793Y-81285916D01*
X115214580Y-81286948D01*
X115220393Y-81290972D01*
X115237021Y-81301179D01*
X115263368Y-81316927D01*
X115298337Y-81337573D01*
X115340833Y-81362471D01*
X115389758Y-81390980D01*
X115444018Y-81422456D01*
X115502514Y-81456255D01*
X115530364Y-81472302D01*
X115845946Y-81653981D01*
X115845749Y-82155356D01*
X115845551Y-82656730D01*
X115569438Y-82815653D01*
X115536224Y-82834784D01*
X115491832Y-82860374D01*
X115436971Y-82892013D01*
X115372353Y-82929292D01*
X115298686Y-82971801D01*
X115216680Y-83019130D01*
X115127045Y-83070870D01*
X115030492Y-83126610D01*
X114927729Y-83185941D01*
X114819466Y-83248452D01*
X114706414Y-83313735D01*
X114589283Y-83381379D01*
X114468781Y-83450974D01*
X114345619Y-83522111D01*
X114220507Y-83594380D01*
X114094155Y-83667371D01*
X114013701Y-83713850D01*
X113891156Y-83784637D01*
X113771733Y-83853602D01*
X113655977Y-83920429D01*
X113544436Y-83984804D01*
X113437655Y-84046412D01*
X113336182Y-84104938D01*
X113240563Y-84160067D01*
X113151345Y-84211484D01*
X113069073Y-84258875D01*
X112994295Y-84301925D01*
X112927557Y-84340319D01*
X112869405Y-84373742D01*
X112820387Y-84401879D01*
X112781048Y-84424416D01*
X112751936Y-84441037D01*
X112733596Y-84451429D01*
X112726575Y-84455276D01*
X112726539Y-84455288D01*
X112718351Y-84452694D01*
X112700566Y-84444132D01*
X112675336Y-84430731D01*
X112644815Y-84413622D01*
X112622892Y-84400892D01*
X112597106Y-84385789D01*
X112561098Y-84364808D01*
X112516547Y-84338921D01*
X112465131Y-84309101D01*
X112408526Y-84276319D01*
X112348411Y-84241548D01*
X112286463Y-84205760D01*
X112231595Y-84174100D01*
X112171952Y-84139687D01*
X112114736Y-84106643D01*
X112061290Y-84075743D01*
X112012954Y-84047765D01*
X111971068Y-84023485D01*
X111936973Y-84003680D01*
X111912010Y-83989126D01*
X111897520Y-83980600D01*
X111896992Y-83980285D01*
X111857579Y-83956700D01*
X111855803Y-83590599D01*
X111855469Y-83521545D01*
X112084000Y-83521545D01*
X112084000Y-83820008D01*
X112102291Y-83832180D01*
X112116223Y-83840939D01*
X112139526Y-83855001D01*
X112170680Y-83873489D01*
X112208168Y-83895527D01*
X112250470Y-83920239D01*
X112296067Y-83946749D01*
X112343441Y-83974180D01*
X112391072Y-84001656D01*
X112437443Y-84028301D01*
X112481034Y-84053240D01*
X112520325Y-84075595D01*
X112553799Y-84094490D01*
X112579937Y-84109050D01*
X112597219Y-84118397D01*
X112604086Y-84121656D01*
X112606227Y-84119251D01*
X112607966Y-84110970D01*
X112609326Y-84095801D01*
X112610330Y-84072733D01*
X112611002Y-84040755D01*
X112611365Y-83998857D01*
X112611427Y-83956315D01*
X112840208Y-83956315D01*
X112840251Y-84005225D01*
X112840552Y-84043761D01*
X112841142Y-84073044D01*
X112842052Y-84094191D01*
X112843312Y-84108321D01*
X112844951Y-84116552D01*
X112847002Y-84120004D01*
X112848830Y-84120128D01*
X112856478Y-84116064D01*
X112874885Y-84105756D01*
X112902934Y-84089843D01*
X112939503Y-84068967D01*
X112983476Y-84043769D01*
X113033732Y-84014888D01*
X113089153Y-83982966D01*
X113148620Y-83948643D01*
X113183564Y-83928444D01*
X113225239Y-83904346D01*
X113277935Y-83873883D01*
X113340783Y-83837558D01*
X113412913Y-83795873D01*
X113493459Y-83749329D01*
X113581550Y-83698429D01*
X113676318Y-83643674D01*
X113776894Y-83585567D01*
X113882409Y-83524608D01*
X113991995Y-83461301D01*
X114104783Y-83396147D01*
X114219904Y-83329648D01*
X114336489Y-83262306D01*
X114453670Y-83194623D01*
X114563933Y-83130938D01*
X115619406Y-82521340D01*
X115619406Y-82223481D01*
X115619327Y-82148788D01*
X115619071Y-82086832D01*
X115618609Y-82036622D01*
X115617912Y-81997165D01*
X115616953Y-81967471D01*
X115615702Y-81946547D01*
X115614131Y-81933402D01*
X115612210Y-81927044D01*
X115610825Y-81926077D01*
X115604171Y-81929508D01*
X115586161Y-81939514D01*
X115557320Y-81955793D01*
X115518176Y-81978043D01*
X115469255Y-82005961D01*
X115411082Y-82039244D01*
X115344184Y-82077590D01*
X115269087Y-82120696D01*
X115186319Y-82168260D01*
X115096404Y-82219978D01*
X114999869Y-82275550D01*
X114897241Y-82334672D01*
X114789045Y-82397041D01*
X114675809Y-82462355D01*
X114558058Y-82530311D01*
X114436319Y-82600608D01*
X114311117Y-82672942D01*
X114222406Y-82724217D01*
X112842568Y-83521902D01*
X112840779Y-83822903D01*
X112840395Y-83895914D01*
X112840208Y-83956315D01*
X112611427Y-83956315D01*
X112611442Y-83946026D01*
X112611256Y-83881251D01*
X112610951Y-83823019D01*
X112609163Y-83523659D01*
X112349210Y-83373370D01*
X112294811Y-83341954D01*
X112244156Y-83312764D01*
X112198463Y-83286499D01*
X112158950Y-83263855D01*
X112126836Y-83245531D01*
X112103340Y-83232222D01*
X112089678Y-83224627D01*
X112086629Y-83223081D01*
X112086078Y-83229714D01*
X112085567Y-83248682D01*
X112085107Y-83278593D01*
X112084710Y-83318051D01*
X112084390Y-83365664D01*
X112084158Y-83420037D01*
X112084026Y-83479777D01*
X112084000Y-83521545D01*
X111855469Y-83521545D01*
X111854027Y-83224497D01*
X111545109Y-83403541D01*
X111485308Y-83438057D01*
X111428801Y-83470397D01*
X111376750Y-83499913D01*
X111330321Y-83525959D01*
X111290678Y-83547885D01*
X111258986Y-83565046D01*
X111236410Y-83576793D01*
X111224114Y-83582480D01*
X111222460Y-83582918D01*
X111214384Y-83579611D01*
X111195419Y-83569943D01*
X111166541Y-83554459D01*
X111128727Y-83533706D01*
X111082952Y-83508229D01*
X111030194Y-83478574D01*
X110971428Y-83445287D01*
X110907632Y-83408913D01*
X110839781Y-83369999D01*
X110781392Y-83336340D01*
X110354055Y-83089429D01*
X110354360Y-82588188D01*
X110354423Y-82484553D01*
X110581525Y-82484553D01*
X110581614Y-82534508D01*
X110581892Y-82596044D01*
X110582239Y-82656866D01*
X110584027Y-82957149D01*
X110841460Y-83106659D01*
X110895662Y-83138085D01*
X110946218Y-83167295D01*
X110991889Y-83193580D01*
X111031437Y-83216234D01*
X111063626Y-83234548D01*
X111087217Y-83247815D01*
X111100973Y-83255327D01*
X111104041Y-83256787D01*
X111105120Y-83250288D01*
X111106122Y-83231449D01*
X111107023Y-83201662D01*
X111107800Y-83162318D01*
X111108427Y-83114806D01*
X111108882Y-83060519D01*
X111109139Y-83000847D01*
X111109190Y-82959252D01*
X111109190Y-82661097D01*
X111100974Y-82655341D01*
X111335730Y-82655341D01*
X111335730Y-82956615D01*
X111335755Y-83028793D01*
X111335860Y-83088404D01*
X111336094Y-83136610D01*
X111336504Y-83174574D01*
X111337136Y-83203457D01*
X111338039Y-83224423D01*
X111339260Y-83238633D01*
X111340845Y-83247251D01*
X111342843Y-83251438D01*
X111345302Y-83252356D01*
X111347746Y-83251458D01*
X111356075Y-83246743D01*
X111374997Y-83235879D01*
X111403227Y-83219609D01*
X111439482Y-83198674D01*
X111482478Y-83173816D01*
X111530932Y-83145775D01*
X111583560Y-83115295D01*
X111617192Y-83095804D01*
X111648268Y-83077803D01*
X111690598Y-83053304D01*
X111741255Y-83024000D01*
X112207881Y-83024000D01*
X112213625Y-83028514D01*
X112229890Y-83038840D01*
X112255193Y-83054136D01*
X112288050Y-83073559D01*
X112326975Y-83096265D01*
X112370484Y-83121409D01*
X112417093Y-83148150D01*
X112465317Y-83175643D01*
X112513672Y-83203044D01*
X112560674Y-83229511D01*
X112604838Y-83254199D01*
X112644679Y-83276266D01*
X112678713Y-83294867D01*
X112705456Y-83309159D01*
X112723424Y-83318299D01*
X112731131Y-83321442D01*
X112731261Y-83321409D01*
X112737706Y-83317662D01*
X112755513Y-83307353D01*
X112784158Y-83290784D01*
X112823113Y-83268261D01*
X112871854Y-83240085D01*
X112929853Y-83206563D01*
X112996585Y-83167997D01*
X113071524Y-83124691D01*
X113154144Y-83076950D01*
X113243918Y-83025077D01*
X113340322Y-82969377D01*
X113442828Y-82910153D01*
X113550911Y-82847709D01*
X113664045Y-82782349D01*
X113781703Y-82714378D01*
X113903361Y-82644098D01*
X114028491Y-82571815D01*
X114114982Y-82521853D01*
X114242115Y-82448398D01*
X114366094Y-82376731D01*
X114486397Y-82307156D01*
X114602497Y-82239978D01*
X114713873Y-82175500D01*
X114820001Y-82114027D01*
X114920355Y-82055863D01*
X115014413Y-82001311D01*
X115101651Y-81950677D01*
X115181544Y-81904264D01*
X115253569Y-81862376D01*
X115317203Y-81825317D01*
X115371921Y-81793393D01*
X115417199Y-81766906D01*
X115452514Y-81746160D01*
X115477341Y-81731461D01*
X115491158Y-81723112D01*
X115493996Y-81721216D01*
X115488584Y-81716851D01*
X115472462Y-81706397D01*
X115446842Y-81690582D01*
X115412934Y-81670131D01*
X115371948Y-81645771D01*
X115325095Y-81618229D01*
X115273585Y-81588230D01*
X115240899Y-81569326D01*
X115178069Y-81533165D01*
X115125998Y-81503414D01*
X115083614Y-81479518D01*
X115049845Y-81460920D01*
X115023619Y-81447063D01*
X115003865Y-81437391D01*
X114989509Y-81431348D01*
X114979481Y-81428377D01*
X114972709Y-81427921D01*
X114969832Y-81428597D01*
X114962272Y-81432620D01*
X114943547Y-81443112D01*
X114914295Y-81459704D01*
X114875153Y-81482027D01*
X114826759Y-81509714D01*
X114769751Y-81542396D01*
X114704766Y-81579704D01*
X114632441Y-81621271D01*
X114553414Y-81666729D01*
X114468323Y-81715708D01*
X114377805Y-81767841D01*
X114282497Y-81822759D01*
X114183038Y-81880095D01*
X114080064Y-81939480D01*
X113974214Y-82000545D01*
X113866125Y-82062923D01*
X113756433Y-82126245D01*
X113645778Y-82190143D01*
X113534796Y-82254249D01*
X113424125Y-82318194D01*
X113314402Y-82381610D01*
X113206266Y-82444129D01*
X113100353Y-82505382D01*
X112997301Y-82565002D01*
X112897747Y-82622620D01*
X112802330Y-82677868D01*
X112711687Y-82730377D01*
X112626454Y-82779780D01*
X112547271Y-82825707D01*
X112474773Y-82867792D01*
X112409600Y-82905664D01*
X112352387Y-82938957D01*
X112303774Y-82967302D01*
X112264397Y-82990331D01*
X112234894Y-83007675D01*
X112215902Y-83018966D01*
X112208060Y-83023836D01*
X112207881Y-83024000D01*
X111741255Y-83024000D01*
X111743546Y-83022675D01*
X111806475Y-82986281D01*
X111878751Y-82944492D01*
X111959736Y-82897675D01*
X112048795Y-82846196D01*
X112145292Y-82790423D01*
X112248591Y-82730723D01*
X112358056Y-82667465D01*
X112473050Y-82601015D01*
X112592939Y-82531741D01*
X112717085Y-82460010D01*
X112844853Y-82386190D01*
X112975606Y-82310647D01*
X113108710Y-82233750D01*
X113243527Y-82155866D01*
X113379423Y-82077362D01*
X113515760Y-81998605D01*
X113651903Y-81919964D01*
X113787215Y-81841805D01*
X113921062Y-81764495D01*
X114052806Y-81688403D01*
X114181812Y-81613895D01*
X114307444Y-81541339D01*
X114429066Y-81471103D01*
X114546041Y-81403553D01*
X114657734Y-81339058D01*
X114763509Y-81277984D01*
X114862730Y-81220699D01*
X114954761Y-81167570D01*
X115038965Y-81118966D01*
X115114707Y-81075252D01*
X115181351Y-81036797D01*
X115238261Y-81003968D01*
X115284800Y-80977132D01*
X115291609Y-80973207D01*
X115619406Y-80784270D01*
X115619406Y-80486540D01*
X115619247Y-80404828D01*
X115618771Y-80335948D01*
X115617984Y-80280058D01*
X115616888Y-80237315D01*
X115615486Y-80207878D01*
X115613784Y-80191904D01*
X115612472Y-80188811D01*
X115606079Y-80192206D01*
X115588222Y-80202230D01*
X115559321Y-80218640D01*
X115519799Y-80241193D01*
X115470076Y-80269646D01*
X115410576Y-80303757D01*
X115341718Y-80343282D01*
X115263926Y-80387979D01*
X115177620Y-80437605D01*
X115083223Y-80491918D01*
X114981155Y-80550675D01*
X114871840Y-80613632D01*
X114755697Y-80680547D01*
X114633149Y-80751178D01*
X114504618Y-80825281D01*
X114370524Y-80902613D01*
X114231291Y-80982933D01*
X114087339Y-81065997D01*
X113939090Y-81151562D01*
X113786965Y-81239386D01*
X113631388Y-81329225D01*
X113472778Y-81420838D01*
X113470634Y-81422076D01*
X111335730Y-82655341D01*
X111100974Y-82655341D01*
X111090311Y-82647871D01*
X111079791Y-82641233D01*
X111059225Y-82628892D01*
X111030183Y-82611752D01*
X110994237Y-82590719D01*
X110952958Y-82566696D01*
X110907915Y-82540589D01*
X110860681Y-82513302D01*
X110812825Y-82485741D01*
X110765919Y-82458809D01*
X110721533Y-82433412D01*
X110681239Y-82410454D01*
X110646606Y-82390840D01*
X110619205Y-82375475D01*
X110600608Y-82365263D01*
X110592536Y-82361164D01*
X110589639Y-82360673D01*
X110587258Y-82362384D01*
X110585352Y-82367470D01*
X110583881Y-82377103D01*
X110582804Y-82392455D01*
X110582079Y-82414699D01*
X110581666Y-82445007D01*
X110581525Y-82484553D01*
X110354423Y-82484553D01*
X110354625Y-82152181D01*
X110711994Y-82152181D01*
X110716956Y-82157859D01*
X110727939Y-82166492D01*
X110745809Y-82178631D01*
X110771432Y-82194825D01*
X110805675Y-82215622D01*
X110849404Y-82241574D01*
X110903486Y-82273228D01*
X110959321Y-82305655D01*
X111013504Y-82336901D01*
X111064148Y-82365835D01*
X111109997Y-82391759D01*
X111149793Y-82413975D01*
X111182280Y-82431784D01*
X111206200Y-82444487D01*
X111220297Y-82451387D01*
X111223544Y-82452447D01*
X111230013Y-82448927D01*
X111247947Y-82438780D01*
X111276923Y-82422249D01*
X111316520Y-82399576D01*
X111366314Y-82371006D01*
X111425884Y-82336782D01*
X111494808Y-82297147D01*
X111572663Y-82252344D01*
X111659028Y-82202617D01*
X111753479Y-82148209D01*
X111855595Y-82089363D01*
X111964954Y-82026323D01*
X112081133Y-81959333D01*
X112203711Y-81888634D01*
X112332265Y-81814472D01*
X112466372Y-81737088D01*
X112605611Y-81656727D01*
X112749559Y-81573632D01*
X112897795Y-81488046D01*
X113049896Y-81400213D01*
X113205439Y-81310375D01*
X113363665Y-81218971D01*
X113522160Y-81127394D01*
X113677591Y-81037565D01*
X113829539Y-80949729D01*
X113977584Y-80864128D01*
X114121304Y-80781006D01*
X114260280Y-80700608D01*
X114394092Y-80623175D01*
X114522319Y-80548953D01*
X114644540Y-80478184D01*
X114760337Y-80411113D01*
X114869288Y-80347982D01*
X114970973Y-80289036D01*
X115064972Y-80234517D01*
X115150864Y-80184670D01*
X115228230Y-80139738D01*
X115296649Y-80099965D01*
X115355700Y-80065594D01*
X115404964Y-80036869D01*
X115444020Y-80014033D01*
X115472449Y-79997330D01*
X115489828Y-79987003D01*
X115495740Y-79983297D01*
X115495740Y-79983296D01*
X115489981Y-79978997D01*
X115473748Y-79968807D01*
X115448526Y-79953580D01*
X115415801Y-79934169D01*
X115377056Y-79911428D01*
X115333778Y-79886212D01*
X115287450Y-79859374D01*
X115239557Y-79831769D01*
X115191586Y-79804249D01*
X115145019Y-79777670D01*
X115101343Y-79752885D01*
X115062042Y-79730747D01*
X115028601Y-79712111D01*
X115002505Y-79697831D01*
X114985239Y-79688761D01*
X114978337Y-79685748D01*
X114971106Y-79689170D01*
X114953130Y-79698872D01*
X114925528Y-79714221D01*
X114889415Y-79734582D01*
X114845910Y-79759322D01*
X114796130Y-79787806D01*
X114741191Y-79819400D01*
X114682211Y-79853470D01*
X114651460Y-79871289D01*
X114615466Y-79892157D01*
X114569594Y-79918730D01*
X114514424Y-79950673D01*
X114450533Y-79987653D01*
X114378501Y-80029335D01*
X114298907Y-80075383D01*
X114212330Y-80125464D01*
X114119348Y-80179243D01*
X114020540Y-80236385D01*
X113916486Y-80296557D01*
X113807764Y-80359422D01*
X113694953Y-80424647D01*
X113578631Y-80491897D01*
X113459379Y-80560838D01*
X113337774Y-80631135D01*
X113214396Y-80702453D01*
X113089824Y-80774458D01*
X112964635Y-80846816D01*
X112839410Y-80919191D01*
X112714727Y-80991249D01*
X112591165Y-81062656D01*
X112469304Y-81133077D01*
X112349720Y-81202178D01*
X112232995Y-81269624D01*
X112119706Y-81335080D01*
X112010433Y-81398212D01*
X111905753Y-81458685D01*
X111806248Y-81516165D01*
X111712494Y-81570317D01*
X111625071Y-81620806D01*
X111544558Y-81667299D01*
X111471534Y-81709460D01*
X111406578Y-81746955D01*
X111350268Y-81779449D01*
X111303183Y-81806608D01*
X111265903Y-81828098D01*
X111239006Y-81843583D01*
X111223071Y-81852729D01*
X111219027Y-81855027D01*
X111191098Y-81870728D01*
X111155946Y-81890694D01*
X111115060Y-81914061D01*
X111069926Y-81939968D01*
X111022030Y-81967553D01*
X110972861Y-81995953D01*
X110923905Y-82024307D01*
X110876648Y-82051751D01*
X110832578Y-82077424D01*
X110793182Y-82100464D01*
X110759947Y-82120008D01*
X110734360Y-82135195D01*
X110717907Y-82145161D01*
X110712186Y-82148910D01*
X110711994Y-82152181D01*
X110354625Y-82152181D01*
X110354665Y-82086946D01*
X110670143Y-81905491D01*
X110730201Y-81870875D01*
X110786512Y-81838280D01*
X110837981Y-81808348D01*
X110883511Y-81781723D01*
X110922008Y-81759050D01*
X110952376Y-81740973D01*
X110973517Y-81728136D01*
X110984338Y-81721182D01*
X110985548Y-81720140D01*
X110979880Y-81715565D01*
X110964304Y-81705525D01*
X110940875Y-81691281D01*
X110911653Y-81674099D01*
X110894589Y-81664272D01*
X110867000Y-81648459D01*
X110829618Y-81626976D01*
X110784535Y-81601030D01*
X110733842Y-81571825D01*
X110679631Y-81540567D01*
X110623994Y-81508459D01*
X110578879Y-81482403D01*
X110354055Y-81352505D01*
X110354343Y-80851320D01*
X110354361Y-80818320D01*
X110581982Y-80818320D01*
X110582044Y-80878102D01*
X110582239Y-80920665D01*
X110584027Y-81220033D01*
X110841460Y-81369243D01*
X110895642Y-81400519D01*
X110946181Y-81429444D01*
X110991839Y-81455329D01*
X111031382Y-81477484D01*
X111063572Y-81495220D01*
X111087173Y-81507847D01*
X111100950Y-81514677D01*
X111104041Y-81515686D01*
X111105129Y-81508457D01*
X111106138Y-81488921D01*
X111107045Y-81458500D01*
X111107823Y-81418615D01*
X111108450Y-81370690D01*
X111108900Y-81316146D01*
X111109148Y-81256406D01*
X111109190Y-81218976D01*
X111109135Y-81146498D01*
X111108943Y-81086560D01*
X111108575Y-81037972D01*
X111107990Y-80999545D01*
X111107149Y-80970089D01*
X111106009Y-80948415D01*
X111104533Y-80933333D01*
X111102679Y-80923654D01*
X111100452Y-80918296D01*
X111335730Y-80918296D01*
X111335730Y-81520039D01*
X111471311Y-81441770D01*
X111490575Y-81430646D01*
X111521097Y-81413019D01*
X111562248Y-81389252D01*
X111613397Y-81359708D01*
X111673914Y-81324753D01*
X111743169Y-81284749D01*
X111820532Y-81240061D01*
X111905373Y-81191053D01*
X111997061Y-81138089D01*
X112094968Y-81081532D01*
X112198462Y-81021747D01*
X112306913Y-80959098D01*
X112419692Y-80893949D01*
X112536169Y-80826663D01*
X112655712Y-80757604D01*
X112777693Y-80687137D01*
X112859730Y-80639745D01*
X114112568Y-79915990D01*
X114114356Y-79616482D01*
X114114638Y-79553848D01*
X114114722Y-79495656D01*
X114114619Y-79443298D01*
X114114341Y-79398164D01*
X114113897Y-79361647D01*
X114113300Y-79335138D01*
X114112560Y-79320028D01*
X114111985Y-79316973D01*
X114105742Y-79320359D01*
X114088135Y-79330314D01*
X114059688Y-79346537D01*
X114020924Y-79368728D01*
X113972365Y-79396585D01*
X113914535Y-79429806D01*
X113847958Y-79468090D01*
X113773155Y-79511137D01*
X113690651Y-79558644D01*
X113600968Y-79610311D01*
X113504631Y-79665836D01*
X113402160Y-79724917D01*
X113294081Y-79787255D01*
X113180916Y-79852546D01*
X113063188Y-79920491D01*
X112941420Y-79990787D01*
X112816136Y-80063134D01*
X112721778Y-80117635D01*
X111335730Y-80918296D01*
X111100452Y-80918296D01*
X111100407Y-80918188D01*
X111098976Y-80916556D01*
X111090465Y-80910956D01*
X111071809Y-80899609D01*
X111044511Y-80883380D01*
X111010073Y-80863134D01*
X110969997Y-80839736D01*
X110925783Y-80814052D01*
X110878936Y-80786945D01*
X110830956Y-80759282D01*
X110783345Y-80731927D01*
X110737606Y-80705746D01*
X110695241Y-80681602D01*
X110657751Y-80660362D01*
X110626638Y-80642890D01*
X110603405Y-80630051D01*
X110589553Y-80622711D01*
X110586295Y-80621298D01*
X110585112Y-80627930D01*
X110584090Y-80646900D01*
X110583247Y-80676816D01*
X110582602Y-80716285D01*
X110582174Y-80763918D01*
X110581982Y-80818320D01*
X110354361Y-80818320D01*
X110354591Y-80418100D01*
X110709340Y-80418100D01*
X110715132Y-80422457D01*
X110731342Y-80432785D01*
X110756486Y-80448213D01*
X110789077Y-80467871D01*
X110827631Y-80490890D01*
X110870660Y-80516400D01*
X110916681Y-80543531D01*
X110964207Y-80571413D01*
X111011752Y-80599177D01*
X111057830Y-80625952D01*
X111100957Y-80650869D01*
X111139647Y-80673057D01*
X111172413Y-80691648D01*
X111197771Y-80705771D01*
X111214234Y-80714557D01*
X111220166Y-80717181D01*
X111226448Y-80713816D01*
X111244091Y-80703881D01*
X111272573Y-80687678D01*
X111311369Y-80665507D01*
X111359955Y-80637671D01*
X111417807Y-80604471D01*
X111484400Y-80566209D01*
X111559211Y-80523187D01*
X111641717Y-80475706D01*
X111731391Y-80424068D01*
X111827712Y-80368574D01*
X111930154Y-80309527D01*
X112038194Y-80247228D01*
X112151307Y-80181978D01*
X112268969Y-80114080D01*
X112390657Y-80043834D01*
X112515847Y-79971543D01*
X112606869Y-79918967D01*
X112734188Y-79845384D01*
X112858330Y-79773577D01*
X112978772Y-79703849D01*
X113094993Y-79636504D01*
X113206471Y-79571846D01*
X113312685Y-79510179D01*
X113413114Y-79451807D01*
X113507235Y-79397035D01*
X113594528Y-79346167D01*
X113674471Y-79299505D01*
X113746542Y-79257355D01*
X113810221Y-79220021D01*
X113864985Y-79187807D01*
X113910313Y-79161016D01*
X113945683Y-79139952D01*
X113970575Y-79124921D01*
X113984466Y-79116225D01*
X113987364Y-79114061D01*
X113981357Y-79109611D01*
X113964929Y-79099206D01*
X113939572Y-79083717D01*
X113906779Y-79064015D01*
X113868041Y-79040971D01*
X113824850Y-79015455D01*
X113778699Y-78988339D01*
X113731079Y-78960494D01*
X113683483Y-78932789D01*
X113637402Y-78906096D01*
X113594330Y-78881286D01*
X113555757Y-78859229D01*
X113523176Y-78840796D01*
X113498079Y-78826859D01*
X113481959Y-78818287D01*
X113476435Y-78815871D01*
X113469798Y-78819246D01*
X113451950Y-78829139D01*
X113423528Y-78845180D01*
X113385168Y-78867000D01*
X113337507Y-78894232D01*
X113281182Y-78926507D01*
X113216829Y-78963457D01*
X113145083Y-79004712D01*
X113066583Y-79049904D01*
X112981963Y-79098665D01*
X112891861Y-79150627D01*
X112796914Y-79205420D01*
X112697756Y-79262676D01*
X112595026Y-79322028D01*
X112489358Y-79383105D01*
X112381391Y-79445540D01*
X112271760Y-79508964D01*
X112161101Y-79573009D01*
X112050052Y-79637306D01*
X111939248Y-79701487D01*
X111829326Y-79765182D01*
X111720923Y-79828025D01*
X111614674Y-79889645D01*
X111511217Y-79949675D01*
X111411187Y-80007746D01*
X111315222Y-80063489D01*
X111223957Y-80116536D01*
X111138030Y-80166519D01*
X111058076Y-80213069D01*
X110984732Y-80255817D01*
X110918634Y-80294395D01*
X110860419Y-80328434D01*
X110810724Y-80357566D01*
X110770184Y-80381423D01*
X110739437Y-80399635D01*
X110719118Y-80411835D01*
X110709864Y-80417654D01*
X110709340Y-80418100D01*
X110354591Y-80418100D01*
X110354631Y-80350136D01*
X111915453Y-79449194D01*
X113476275Y-78548253D01*
X113907692Y-78797414D01*
G37*
X113907692Y-78797414D02*
X114339109Y-79046576D01*
X114342541Y-79414818D01*
X114345973Y-79783061D01*
X114660700Y-79601022D01*
X114740340Y-79555166D01*
X114809115Y-79516006D01*
X114866892Y-79483618D01*
X114913535Y-79458073D01*
X114948909Y-79439446D01*
X114972879Y-79427810D01*
X114985311Y-79423238D01*
X114986781Y-79423259D01*
X114994475Y-79427326D01*
X115013076Y-79437710D01*
X115041611Y-79453854D01*
X115079101Y-79475200D01*
X115124572Y-79501189D01*
X115177048Y-79531262D01*
X115235553Y-79564862D01*
X115299112Y-79601431D01*
X115366749Y-79640409D01*
X115422041Y-79672318D01*
X115845946Y-79917099D01*
X115845719Y-80418509D01*
X115845493Y-80919919D01*
X115529936Y-81101597D01*
X115469884Y-81136240D01*
X115413581Y-81168855D01*
X115362122Y-81198798D01*
X115316601Y-81225426D01*
X115278113Y-81248094D01*
X115247753Y-81266161D01*
X115226615Y-81278983D01*
X115215793Y-81285916D01*
X115214580Y-81286948D01*
X115220393Y-81290972D01*
X115237021Y-81301179D01*
X115263368Y-81316927D01*
X115298337Y-81337573D01*
X115340833Y-81362471D01*
X115389758Y-81390980D01*
X115444018Y-81422456D01*
X115502514Y-81456255D01*
X115530364Y-81472302D01*
X115845946Y-81653981D01*
X115845749Y-82155356D01*
X115845551Y-82656730D01*
X115569438Y-82815653D01*
X115536224Y-82834784D01*
X115491832Y-82860374D01*
X115436971Y-82892013D01*
X115372353Y-82929292D01*
X115298686Y-82971801D01*
X115216680Y-83019130D01*
X115127045Y-83070870D01*
X115030492Y-83126610D01*
X114927729Y-83185941D01*
X114819466Y-83248452D01*
X114706414Y-83313735D01*
X114589283Y-83381379D01*
X114468781Y-83450974D01*
X114345619Y-83522111D01*
X114220507Y-83594380D01*
X114094155Y-83667371D01*
X114013701Y-83713850D01*
X113891156Y-83784637D01*
X113771733Y-83853602D01*
X113655977Y-83920429D01*
X113544436Y-83984804D01*
X113437655Y-84046412D01*
X113336182Y-84104938D01*
X113240563Y-84160067D01*
X113151345Y-84211484D01*
X113069073Y-84258875D01*
X112994295Y-84301925D01*
X112927557Y-84340319D01*
X112869405Y-84373742D01*
X112820387Y-84401879D01*
X112781048Y-84424416D01*
X112751936Y-84441037D01*
X112733596Y-84451429D01*
X112726575Y-84455276D01*
X112726539Y-84455288D01*
X112718351Y-84452694D01*
X112700566Y-84444132D01*
X112675336Y-84430731D01*
X112644815Y-84413622D01*
X112622892Y-84400892D01*
X112597106Y-84385789D01*
X112561098Y-84364808D01*
X112516547Y-84338921D01*
X112465131Y-84309101D01*
X112408526Y-84276319D01*
X112348411Y-84241548D01*
X112286463Y-84205760D01*
X112231595Y-84174100D01*
X112171952Y-84139687D01*
X112114736Y-84106643D01*
X112061290Y-84075743D01*
X112012954Y-84047765D01*
X111971068Y-84023485D01*
X111936973Y-84003680D01*
X111912010Y-83989126D01*
X111897520Y-83980600D01*
X111896992Y-83980285D01*
X111857579Y-83956700D01*
X111855803Y-83590599D01*
X111855469Y-83521545D01*
X112084000Y-83521545D01*
X112084000Y-83820008D01*
X112102291Y-83832180D01*
X112116223Y-83840939D01*
X112139526Y-83855001D01*
X112170680Y-83873489D01*
X112208168Y-83895527D01*
X112250470Y-83920239D01*
X112296067Y-83946749D01*
X112343441Y-83974180D01*
X112391072Y-84001656D01*
X112437443Y-84028301D01*
X112481034Y-84053240D01*
X112520325Y-84075595D01*
X112553799Y-84094490D01*
X112579937Y-84109050D01*
X112597219Y-84118397D01*
X112604086Y-84121656D01*
X112606227Y-84119251D01*
X112607966Y-84110970D01*
X112609326Y-84095801D01*
X112610330Y-84072733D01*
X112611002Y-84040755D01*
X112611365Y-83998857D01*
X112611427Y-83956315D01*
X112840208Y-83956315D01*
X112840251Y-84005225D01*
X112840552Y-84043761D01*
X112841142Y-84073044D01*
X112842052Y-84094191D01*
X112843312Y-84108321D01*
X112844951Y-84116552D01*
X112847002Y-84120004D01*
X112848830Y-84120128D01*
X112856478Y-84116064D01*
X112874885Y-84105756D01*
X112902934Y-84089843D01*
X112939503Y-84068967D01*
X112983476Y-84043769D01*
X113033732Y-84014888D01*
X113089153Y-83982966D01*
X113148620Y-83948643D01*
X113183564Y-83928444D01*
X113225239Y-83904346D01*
X113277935Y-83873883D01*
X113340783Y-83837558D01*
X113412913Y-83795873D01*
X113493459Y-83749329D01*
X113581550Y-83698429D01*
X113676318Y-83643674D01*
X113776894Y-83585567D01*
X113882409Y-83524608D01*
X113991995Y-83461301D01*
X114104783Y-83396147D01*
X114219904Y-83329648D01*
X114336489Y-83262306D01*
X114453670Y-83194623D01*
X114563933Y-83130938D01*
X115619406Y-82521340D01*
X115619406Y-82223481D01*
X115619327Y-82148788D01*
X115619071Y-82086832D01*
X115618609Y-82036622D01*
X115617912Y-81997165D01*
X115616953Y-81967471D01*
X115615702Y-81946547D01*
X115614131Y-81933402D01*
X115612210Y-81927044D01*
X115610825Y-81926077D01*
X115604171Y-81929508D01*
X115586161Y-81939514D01*
X115557320Y-81955793D01*
X115518176Y-81978043D01*
X115469255Y-82005961D01*
X115411082Y-82039244D01*
X115344184Y-82077590D01*
X115269087Y-82120696D01*
X115186319Y-82168260D01*
X115096404Y-82219978D01*
X114999869Y-82275550D01*
X114897241Y-82334672D01*
X114789045Y-82397041D01*
X114675809Y-82462355D01*
X114558058Y-82530311D01*
X114436319Y-82600608D01*
X114311117Y-82672942D01*
X114222406Y-82724217D01*
X112842568Y-83521902D01*
X112840779Y-83822903D01*
X112840395Y-83895914D01*
X112840208Y-83956315D01*
X112611427Y-83956315D01*
X112611442Y-83946026D01*
X112611256Y-83881251D01*
X112610951Y-83823019D01*
X112609163Y-83523659D01*
X112349210Y-83373370D01*
X112294811Y-83341954D01*
X112244156Y-83312764D01*
X112198463Y-83286499D01*
X112158950Y-83263855D01*
X112126836Y-83245531D01*
X112103340Y-83232222D01*
X112089678Y-83224627D01*
X112086629Y-83223081D01*
X112086078Y-83229714D01*
X112085567Y-83248682D01*
X112085107Y-83278593D01*
X112084710Y-83318051D01*
X112084390Y-83365664D01*
X112084158Y-83420037D01*
X112084026Y-83479777D01*
X112084000Y-83521545D01*
X111855469Y-83521545D01*
X111854027Y-83224497D01*
X111545109Y-83403541D01*
X111485308Y-83438057D01*
X111428801Y-83470397D01*
X111376750Y-83499913D01*
X111330321Y-83525959D01*
X111290678Y-83547885D01*
X111258986Y-83565046D01*
X111236410Y-83576793D01*
X111224114Y-83582480D01*
X111222460Y-83582918D01*
X111214384Y-83579611D01*
X111195419Y-83569943D01*
X111166541Y-83554459D01*
X111128727Y-83533706D01*
X111082952Y-83508229D01*
X111030194Y-83478574D01*
X110971428Y-83445287D01*
X110907632Y-83408913D01*
X110839781Y-83369999D01*
X110781392Y-83336340D01*
X110354055Y-83089429D01*
X110354360Y-82588188D01*
X110354423Y-82484553D01*
X110581525Y-82484553D01*
X110581614Y-82534508D01*
X110581892Y-82596044D01*
X110582239Y-82656866D01*
X110584027Y-82957149D01*
X110841460Y-83106659D01*
X110895662Y-83138085D01*
X110946218Y-83167295D01*
X110991889Y-83193580D01*
X111031437Y-83216234D01*
X111063626Y-83234548D01*
X111087217Y-83247815D01*
X111100973Y-83255327D01*
X111104041Y-83256787D01*
X111105120Y-83250288D01*
X111106122Y-83231449D01*
X111107023Y-83201662D01*
X111107800Y-83162318D01*
X111108427Y-83114806D01*
X111108882Y-83060519D01*
X111109139Y-83000847D01*
X111109190Y-82959252D01*
X111109190Y-82661097D01*
X111100974Y-82655341D01*
X111335730Y-82655341D01*
X111335730Y-82956615D01*
X111335755Y-83028793D01*
X111335860Y-83088404D01*
X111336094Y-83136610D01*
X111336504Y-83174574D01*
X111337136Y-83203457D01*
X111338039Y-83224423D01*
X111339260Y-83238633D01*
X111340845Y-83247251D01*
X111342843Y-83251438D01*
X111345302Y-83252356D01*
X111347746Y-83251458D01*
X111356075Y-83246743D01*
X111374997Y-83235879D01*
X111403227Y-83219609D01*
X111439482Y-83198674D01*
X111482478Y-83173816D01*
X111530932Y-83145775D01*
X111583560Y-83115295D01*
X111617192Y-83095804D01*
X111648268Y-83077803D01*
X111690598Y-83053304D01*
X111741255Y-83024000D01*
X112207881Y-83024000D01*
X112213625Y-83028514D01*
X112229890Y-83038840D01*
X112255193Y-83054136D01*
X112288050Y-83073559D01*
X112326975Y-83096265D01*
X112370484Y-83121409D01*
X112417093Y-83148150D01*
X112465317Y-83175643D01*
X112513672Y-83203044D01*
X112560674Y-83229511D01*
X112604838Y-83254199D01*
X112644679Y-83276266D01*
X112678713Y-83294867D01*
X112705456Y-83309159D01*
X112723424Y-83318299D01*
X112731131Y-83321442D01*
X112731261Y-83321409D01*
X112737706Y-83317662D01*
X112755513Y-83307353D01*
X112784158Y-83290784D01*
X112823113Y-83268261D01*
X112871854Y-83240085D01*
X112929853Y-83206563D01*
X112996585Y-83167997D01*
X113071524Y-83124691D01*
X113154144Y-83076950D01*
X113243918Y-83025077D01*
X113340322Y-82969377D01*
X113442828Y-82910153D01*
X113550911Y-82847709D01*
X113664045Y-82782349D01*
X113781703Y-82714378D01*
X113903361Y-82644098D01*
X114028491Y-82571815D01*
X114114982Y-82521853D01*
X114242115Y-82448398D01*
X114366094Y-82376731D01*
X114486397Y-82307156D01*
X114602497Y-82239978D01*
X114713873Y-82175500D01*
X114820001Y-82114027D01*
X114920355Y-82055863D01*
X115014413Y-82001311D01*
X115101651Y-81950677D01*
X115181544Y-81904264D01*
X115253569Y-81862376D01*
X115317203Y-81825317D01*
X115371921Y-81793393D01*
X115417199Y-81766906D01*
X115452514Y-81746160D01*
X115477341Y-81731461D01*
X115491158Y-81723112D01*
X115493996Y-81721216D01*
X115488584Y-81716851D01*
X115472462Y-81706397D01*
X115446842Y-81690582D01*
X115412934Y-81670131D01*
X115371948Y-81645771D01*
X115325095Y-81618229D01*
X115273585Y-81588230D01*
X115240899Y-81569326D01*
X115178069Y-81533165D01*
X115125998Y-81503414D01*
X115083614Y-81479518D01*
X115049845Y-81460920D01*
X115023619Y-81447063D01*
X115003865Y-81437391D01*
X114989509Y-81431348D01*
X114979481Y-81428377D01*
X114972709Y-81427921D01*
X114969832Y-81428597D01*
X114962272Y-81432620D01*
X114943547Y-81443112D01*
X114914295Y-81459704D01*
X114875153Y-81482027D01*
X114826759Y-81509714D01*
X114769751Y-81542396D01*
X114704766Y-81579704D01*
X114632441Y-81621271D01*
X114553414Y-81666729D01*
X114468323Y-81715708D01*
X114377805Y-81767841D01*
X114282497Y-81822759D01*
X114183038Y-81880095D01*
X114080064Y-81939480D01*
X113974214Y-82000545D01*
X113866125Y-82062923D01*
X113756433Y-82126245D01*
X113645778Y-82190143D01*
X113534796Y-82254249D01*
X113424125Y-82318194D01*
X113314402Y-82381610D01*
X113206266Y-82444129D01*
X113100353Y-82505382D01*
X112997301Y-82565002D01*
X112897747Y-82622620D01*
X112802330Y-82677868D01*
X112711687Y-82730377D01*
X112626454Y-82779780D01*
X112547271Y-82825707D01*
X112474773Y-82867792D01*
X112409600Y-82905664D01*
X112352387Y-82938957D01*
X112303774Y-82967302D01*
X112264397Y-82990331D01*
X112234894Y-83007675D01*
X112215902Y-83018966D01*
X112208060Y-83023836D01*
X112207881Y-83024000D01*
X111741255Y-83024000D01*
X111743546Y-83022675D01*
X111806475Y-82986281D01*
X111878751Y-82944492D01*
X111959736Y-82897675D01*
X112048795Y-82846196D01*
X112145292Y-82790423D01*
X112248591Y-82730723D01*
X112358056Y-82667465D01*
X112473050Y-82601015D01*
X112592939Y-82531741D01*
X112717085Y-82460010D01*
X112844853Y-82386190D01*
X112975606Y-82310647D01*
X113108710Y-82233750D01*
X113243527Y-82155866D01*
X113379423Y-82077362D01*
X113515760Y-81998605D01*
X113651903Y-81919964D01*
X113787215Y-81841805D01*
X113921062Y-81764495D01*
X114052806Y-81688403D01*
X114181812Y-81613895D01*
X114307444Y-81541339D01*
X114429066Y-81471103D01*
X114546041Y-81403553D01*
X114657734Y-81339058D01*
X114763509Y-81277984D01*
X114862730Y-81220699D01*
X114954761Y-81167570D01*
X115038965Y-81118966D01*
X115114707Y-81075252D01*
X115181351Y-81036797D01*
X115238261Y-81003968D01*
X115284800Y-80977132D01*
X115291609Y-80973207D01*
X115619406Y-80784270D01*
X115619406Y-80486540D01*
X115619247Y-80404828D01*
X115618771Y-80335948D01*
X115617984Y-80280058D01*
X115616888Y-80237315D01*
X115615486Y-80207878D01*
X115613784Y-80191904D01*
X115612472Y-80188811D01*
X115606079Y-80192206D01*
X115588222Y-80202230D01*
X115559321Y-80218640D01*
X115519799Y-80241193D01*
X115470076Y-80269646D01*
X115410576Y-80303757D01*
X115341718Y-80343282D01*
X115263926Y-80387979D01*
X115177620Y-80437605D01*
X115083223Y-80491918D01*
X114981155Y-80550675D01*
X114871840Y-80613632D01*
X114755697Y-80680547D01*
X114633149Y-80751178D01*
X114504618Y-80825281D01*
X114370524Y-80902613D01*
X114231291Y-80982933D01*
X114087339Y-81065997D01*
X113939090Y-81151562D01*
X113786965Y-81239386D01*
X113631388Y-81329225D01*
X113472778Y-81420838D01*
X113470634Y-81422076D01*
X111335730Y-82655341D01*
X111100974Y-82655341D01*
X111090311Y-82647871D01*
X111079791Y-82641233D01*
X111059225Y-82628892D01*
X111030183Y-82611752D01*
X110994237Y-82590719D01*
X110952958Y-82566696D01*
X110907915Y-82540589D01*
X110860681Y-82513302D01*
X110812825Y-82485741D01*
X110765919Y-82458809D01*
X110721533Y-82433412D01*
X110681239Y-82410454D01*
X110646606Y-82390840D01*
X110619205Y-82375475D01*
X110600608Y-82365263D01*
X110592536Y-82361164D01*
X110589639Y-82360673D01*
X110587258Y-82362384D01*
X110585352Y-82367470D01*
X110583881Y-82377103D01*
X110582804Y-82392455D01*
X110582079Y-82414699D01*
X110581666Y-82445007D01*
X110581525Y-82484553D01*
X110354423Y-82484553D01*
X110354625Y-82152181D01*
X110711994Y-82152181D01*
X110716956Y-82157859D01*
X110727939Y-82166492D01*
X110745809Y-82178631D01*
X110771432Y-82194825D01*
X110805675Y-82215622D01*
X110849404Y-82241574D01*
X110903486Y-82273228D01*
X110959321Y-82305655D01*
X111013504Y-82336901D01*
X111064148Y-82365835D01*
X111109997Y-82391759D01*
X111149793Y-82413975D01*
X111182280Y-82431784D01*
X111206200Y-82444487D01*
X111220297Y-82451387D01*
X111223544Y-82452447D01*
X111230013Y-82448927D01*
X111247947Y-82438780D01*
X111276923Y-82422249D01*
X111316520Y-82399576D01*
X111366314Y-82371006D01*
X111425884Y-82336782D01*
X111494808Y-82297147D01*
X111572663Y-82252344D01*
X111659028Y-82202617D01*
X111753479Y-82148209D01*
X111855595Y-82089363D01*
X111964954Y-82026323D01*
X112081133Y-81959333D01*
X112203711Y-81888634D01*
X112332265Y-81814472D01*
X112466372Y-81737088D01*
X112605611Y-81656727D01*
X112749559Y-81573632D01*
X112897795Y-81488046D01*
X113049896Y-81400213D01*
X113205439Y-81310375D01*
X113363665Y-81218971D01*
X113522160Y-81127394D01*
X113677591Y-81037565D01*
X113829539Y-80949729D01*
X113977584Y-80864128D01*
X114121304Y-80781006D01*
X114260280Y-80700608D01*
X114394092Y-80623175D01*
X114522319Y-80548953D01*
X114644540Y-80478184D01*
X114760337Y-80411113D01*
X114869288Y-80347982D01*
X114970973Y-80289036D01*
X115064972Y-80234517D01*
X115150864Y-80184670D01*
X115228230Y-80139738D01*
X115296649Y-80099965D01*
X115355700Y-80065594D01*
X115404964Y-80036869D01*
X115444020Y-80014033D01*
X115472449Y-79997330D01*
X115489828Y-79987003D01*
X115495740Y-79983297D01*
X115495740Y-79983296D01*
X115489981Y-79978997D01*
X115473748Y-79968807D01*
X115448526Y-79953580D01*
X115415801Y-79934169D01*
X115377056Y-79911428D01*
X115333778Y-79886212D01*
X115287450Y-79859374D01*
X115239557Y-79831769D01*
X115191586Y-79804249D01*
X115145019Y-79777670D01*
X115101343Y-79752885D01*
X115062042Y-79730747D01*
X115028601Y-79712111D01*
X115002505Y-79697831D01*
X114985239Y-79688761D01*
X114978337Y-79685748D01*
X114971106Y-79689170D01*
X114953130Y-79698872D01*
X114925528Y-79714221D01*
X114889415Y-79734582D01*
X114845910Y-79759322D01*
X114796130Y-79787806D01*
X114741191Y-79819400D01*
X114682211Y-79853470D01*
X114651460Y-79871289D01*
X114615466Y-79892157D01*
X114569594Y-79918730D01*
X114514424Y-79950673D01*
X114450533Y-79987653D01*
X114378501Y-80029335D01*
X114298907Y-80075383D01*
X114212330Y-80125464D01*
X114119348Y-80179243D01*
X114020540Y-80236385D01*
X113916486Y-80296557D01*
X113807764Y-80359422D01*
X113694953Y-80424647D01*
X113578631Y-80491897D01*
X113459379Y-80560838D01*
X113337774Y-80631135D01*
X113214396Y-80702453D01*
X113089824Y-80774458D01*
X112964635Y-80846816D01*
X112839410Y-80919191D01*
X112714727Y-80991249D01*
X112591165Y-81062656D01*
X112469304Y-81133077D01*
X112349720Y-81202178D01*
X112232995Y-81269624D01*
X112119706Y-81335080D01*
X112010433Y-81398212D01*
X111905753Y-81458685D01*
X111806248Y-81516165D01*
X111712494Y-81570317D01*
X111625071Y-81620806D01*
X111544558Y-81667299D01*
X111471534Y-81709460D01*
X111406578Y-81746955D01*
X111350268Y-81779449D01*
X111303183Y-81806608D01*
X111265903Y-81828098D01*
X111239006Y-81843583D01*
X111223071Y-81852729D01*
X111219027Y-81855027D01*
X111191098Y-81870728D01*
X111155946Y-81890694D01*
X111115060Y-81914061D01*
X111069926Y-81939968D01*
X111022030Y-81967553D01*
X110972861Y-81995953D01*
X110923905Y-82024307D01*
X110876648Y-82051751D01*
X110832578Y-82077424D01*
X110793182Y-82100464D01*
X110759947Y-82120008D01*
X110734360Y-82135195D01*
X110717907Y-82145161D01*
X110712186Y-82148910D01*
X110711994Y-82152181D01*
X110354625Y-82152181D01*
X110354665Y-82086946D01*
X110670143Y-81905491D01*
X110730201Y-81870875D01*
X110786512Y-81838280D01*
X110837981Y-81808348D01*
X110883511Y-81781723D01*
X110922008Y-81759050D01*
X110952376Y-81740973D01*
X110973517Y-81728136D01*
X110984338Y-81721182D01*
X110985548Y-81720140D01*
X110979880Y-81715565D01*
X110964304Y-81705525D01*
X110940875Y-81691281D01*
X110911653Y-81674099D01*
X110894589Y-81664272D01*
X110867000Y-81648459D01*
X110829618Y-81626976D01*
X110784535Y-81601030D01*
X110733842Y-81571825D01*
X110679631Y-81540567D01*
X110623994Y-81508459D01*
X110578879Y-81482403D01*
X110354055Y-81352505D01*
X110354343Y-80851320D01*
X110354361Y-80818320D01*
X110581982Y-80818320D01*
X110582044Y-80878102D01*
X110582239Y-80920665D01*
X110584027Y-81220033D01*
X110841460Y-81369243D01*
X110895642Y-81400519D01*
X110946181Y-81429444D01*
X110991839Y-81455329D01*
X111031382Y-81477484D01*
X111063572Y-81495220D01*
X111087173Y-81507847D01*
X111100950Y-81514677D01*
X111104041Y-81515686D01*
X111105129Y-81508457D01*
X111106138Y-81488921D01*
X111107045Y-81458500D01*
X111107823Y-81418615D01*
X111108450Y-81370690D01*
X111108900Y-81316146D01*
X111109148Y-81256406D01*
X111109190Y-81218976D01*
X111109135Y-81146498D01*
X111108943Y-81086560D01*
X111108575Y-81037972D01*
X111107990Y-80999545D01*
X111107149Y-80970089D01*
X111106009Y-80948415D01*
X111104533Y-80933333D01*
X111102679Y-80923654D01*
X111100452Y-80918296D01*
X111335730Y-80918296D01*
X111335730Y-81520039D01*
X111471311Y-81441770D01*
X111490575Y-81430646D01*
X111521097Y-81413019D01*
X111562248Y-81389252D01*
X111613397Y-81359708D01*
X111673914Y-81324753D01*
X111743169Y-81284749D01*
X111820532Y-81240061D01*
X111905373Y-81191053D01*
X111997061Y-81138089D01*
X112094968Y-81081532D01*
X112198462Y-81021747D01*
X112306913Y-80959098D01*
X112419692Y-80893949D01*
X112536169Y-80826663D01*
X112655712Y-80757604D01*
X112777693Y-80687137D01*
X112859730Y-80639745D01*
X114112568Y-79915990D01*
X114114356Y-79616482D01*
X114114638Y-79553848D01*
X114114722Y-79495656D01*
X114114619Y-79443298D01*
X114114341Y-79398164D01*
X114113897Y-79361647D01*
X114113300Y-79335138D01*
X114112560Y-79320028D01*
X114111985Y-79316973D01*
X114105742Y-79320359D01*
X114088135Y-79330314D01*
X114059688Y-79346537D01*
X114020924Y-79368728D01*
X113972365Y-79396585D01*
X113914535Y-79429806D01*
X113847958Y-79468090D01*
X113773155Y-79511137D01*
X113690651Y-79558644D01*
X113600968Y-79610311D01*
X113504631Y-79665836D01*
X113402160Y-79724917D01*
X113294081Y-79787255D01*
X113180916Y-79852546D01*
X113063188Y-79920491D01*
X112941420Y-79990787D01*
X112816136Y-80063134D01*
X112721778Y-80117635D01*
X111335730Y-80918296D01*
X111100452Y-80918296D01*
X111100407Y-80918188D01*
X111098976Y-80916556D01*
X111090465Y-80910956D01*
X111071809Y-80899609D01*
X111044511Y-80883380D01*
X111010073Y-80863134D01*
X110969997Y-80839736D01*
X110925783Y-80814052D01*
X110878936Y-80786945D01*
X110830956Y-80759282D01*
X110783345Y-80731927D01*
X110737606Y-80705746D01*
X110695241Y-80681602D01*
X110657751Y-80660362D01*
X110626638Y-80642890D01*
X110603405Y-80630051D01*
X110589553Y-80622711D01*
X110586295Y-80621298D01*
X110585112Y-80627930D01*
X110584090Y-80646900D01*
X110583247Y-80676816D01*
X110582602Y-80716285D01*
X110582174Y-80763918D01*
X110581982Y-80818320D01*
X110354361Y-80818320D01*
X110354591Y-80418100D01*
X110709340Y-80418100D01*
X110715132Y-80422457D01*
X110731342Y-80432785D01*
X110756486Y-80448213D01*
X110789077Y-80467871D01*
X110827631Y-80490890D01*
X110870660Y-80516400D01*
X110916681Y-80543531D01*
X110964207Y-80571413D01*
X111011752Y-80599177D01*
X111057830Y-80625952D01*
X111100957Y-80650869D01*
X111139647Y-80673057D01*
X111172413Y-80691648D01*
X111197771Y-80705771D01*
X111214234Y-80714557D01*
X111220166Y-80717181D01*
X111226448Y-80713816D01*
X111244091Y-80703881D01*
X111272573Y-80687678D01*
X111311369Y-80665507D01*
X111359955Y-80637671D01*
X111417807Y-80604471D01*
X111484400Y-80566209D01*
X111559211Y-80523187D01*
X111641717Y-80475706D01*
X111731391Y-80424068D01*
X111827712Y-80368574D01*
X111930154Y-80309527D01*
X112038194Y-80247228D01*
X112151307Y-80181978D01*
X112268969Y-80114080D01*
X112390657Y-80043834D01*
X112515847Y-79971543D01*
X112606869Y-79918967D01*
X112734188Y-79845384D01*
X112858330Y-79773577D01*
X112978772Y-79703849D01*
X113094993Y-79636504D01*
X113206471Y-79571846D01*
X113312685Y-79510179D01*
X113413114Y-79451807D01*
X113507235Y-79397035D01*
X113594528Y-79346167D01*
X113674471Y-79299505D01*
X113746542Y-79257355D01*
X113810221Y-79220021D01*
X113864985Y-79187807D01*
X113910313Y-79161016D01*
X113945683Y-79139952D01*
X113970575Y-79124921D01*
X113984466Y-79116225D01*
X113987364Y-79114061D01*
X113981357Y-79109611D01*
X113964929Y-79099206D01*
X113939572Y-79083717D01*
X113906779Y-79064015D01*
X113868041Y-79040971D01*
X113824850Y-79015455D01*
X113778699Y-78988339D01*
X113731079Y-78960494D01*
X113683483Y-78932789D01*
X113637402Y-78906096D01*
X113594330Y-78881286D01*
X113555757Y-78859229D01*
X113523176Y-78840796D01*
X113498079Y-78826859D01*
X113481959Y-78818287D01*
X113476435Y-78815871D01*
X113469798Y-78819246D01*
X113451950Y-78829139D01*
X113423528Y-78845180D01*
X113385168Y-78867000D01*
X113337507Y-78894232D01*
X113281182Y-78926507D01*
X113216829Y-78963457D01*
X113145083Y-79004712D01*
X113066583Y-79049904D01*
X112981963Y-79098665D01*
X112891861Y-79150627D01*
X112796914Y-79205420D01*
X112697756Y-79262676D01*
X112595026Y-79322028D01*
X112489358Y-79383105D01*
X112381391Y-79445540D01*
X112271760Y-79508964D01*
X112161101Y-79573009D01*
X112050052Y-79637306D01*
X111939248Y-79701487D01*
X111829326Y-79765182D01*
X111720923Y-79828025D01*
X111614674Y-79889645D01*
X111511217Y-79949675D01*
X111411187Y-80007746D01*
X111315222Y-80063489D01*
X111223957Y-80116536D01*
X111138030Y-80166519D01*
X111058076Y-80213069D01*
X110984732Y-80255817D01*
X110918634Y-80294395D01*
X110860419Y-80328434D01*
X110810724Y-80357566D01*
X110770184Y-80381423D01*
X110739437Y-80399635D01*
X110719118Y-80411835D01*
X110709864Y-80417654D01*
X110709340Y-80418100D01*
X110354591Y-80418100D01*
X110354631Y-80350136D01*
X111915453Y-79449194D01*
X113476275Y-78548253D01*
X113907692Y-78797414D01*
G36*
G01*
X131338441Y-97938441D02*
X131338441Y-97938441D01*
G75*
G02*
X127378643Y-97938441I-1979899J1979899D01*
G01*
X119211559Y-89771357D01*
G75*
G02*
X119211559Y-85811559I1979899J1979899D01*
G01*
X119211559Y-85811559D01*
G75*
G02*
X123171357Y-85811559I1979899J-1979899D01*
G01*
X131338441Y-93978643D01*
G75*
G02*
X131338441Y-97938441I-1979899J-1979899D01*
G01*
G37*
G36*
G01*
X144388441Y-110988441D02*
X144388441Y-110988441D01*
G75*
G02*
X140428643Y-110988441I-1979899J1979899D01*
G01*
X132261559Y-102821357D01*
G75*
G02*
X132261559Y-98861559I1979899J1979899D01*
G01*
X132261559Y-98861559D01*
G75*
G02*
X136221357Y-98861559I1979899J-1979899D01*
G01*
X144388441Y-107028643D01*
G75*
G02*
X144388441Y-110988441I-1979899J-1979899D01*
G01*
G37*
D11*
X162300000Y-98400000D03*
D12*
X131800000Y-98400000D03*
G36*
G01*
X111400000Y-102610000D02*
X111400000Y-101610000D01*
G75*
G02*
X111600000Y-101410000I200000J0D01*
G01*
X115250000Y-101410000D01*
G75*
G02*
X115450000Y-101610000I0J-200000D01*
G01*
X115450000Y-102610000D01*
G75*
G02*
X115250000Y-102810000I-200000J0D01*
G01*
X111600000Y-102810000D01*
G75*
G02*
X111400000Y-102610000I0J200000D01*
G01*
G37*
G36*
G01*
X105350000Y-102610000D02*
X105350000Y-101610000D01*
G75*
G02*
X105550000Y-101410000I200000J0D01*
G01*
X109200000Y-101410000D01*
G75*
G02*
X109400000Y-101610000I0J-200000D01*
G01*
X109400000Y-102610000D01*
G75*
G02*
X109200000Y-102810000I-200000J0D01*
G01*
X105550000Y-102810000D01*
G75*
G02*
X105350000Y-102610000I0J200000D01*
G01*
G37*
G36*
G01*
X111400000Y-100070000D02*
X111400000Y-99070000D01*
G75*
G02*
X111600000Y-98870000I200000J0D01*
G01*
X115250000Y-98870000D01*
G75*
G02*
X115450000Y-99070000I0J-200000D01*
G01*
X115450000Y-100070000D01*
G75*
G02*
X115250000Y-100270000I-200000J0D01*
G01*
X111600000Y-100270000D01*
G75*
G02*
X111400000Y-100070000I0J200000D01*
G01*
G37*
G36*
G01*
X105350000Y-100070000D02*
X105350000Y-99070000D01*
G75*
G02*
X105550000Y-98870000I200000J0D01*
G01*
X109200000Y-98870000D01*
G75*
G02*
X109400000Y-99070000I0J-200000D01*
G01*
X109400000Y-100070000D01*
G75*
G02*
X109200000Y-100270000I-200000J0D01*
G01*
X105550000Y-100270000D01*
G75*
G02*
X105350000Y-100070000I0J200000D01*
G01*
G37*
G36*
G01*
X111400000Y-97530000D02*
X111400000Y-96530000D01*
G75*
G02*
X111600000Y-96330000I200000J0D01*
G01*
X115250000Y-96330000D01*
G75*
G02*
X115450000Y-96530000I0J-200000D01*
G01*
X115450000Y-97530000D01*
G75*
G02*
X115250000Y-97730000I-200000J0D01*
G01*
X111600000Y-97730000D01*
G75*
G02*
X111400000Y-97530000I0J200000D01*
G01*
G37*
G36*
G01*
X105350000Y-97530000D02*
X105350000Y-96530000D01*
G75*
G02*
X105550000Y-96330000I200000J0D01*
G01*
X109200000Y-96330000D01*
G75*
G02*
X109400000Y-96530000I0J-200000D01*
G01*
X109400000Y-97530000D01*
G75*
G02*
X109200000Y-97730000I-200000J0D01*
G01*
X105550000Y-97730000D01*
G75*
G02*
X105350000Y-97530000I0J200000D01*
G01*
G37*
G36*
G01*
X111400000Y-94990000D02*
X111400000Y-93990000D01*
G75*
G02*
X111600000Y-93790000I200000J0D01*
G01*
X115250000Y-93790000D01*
G75*
G02*
X115450000Y-93990000I0J-200000D01*
G01*
X115450000Y-94990000D01*
G75*
G02*
X115250000Y-95190000I-200000J0D01*
G01*
X111600000Y-95190000D01*
G75*
G02*
X111400000Y-94990000I0J200000D01*
G01*
G37*
G36*
G01*
X105350000Y-94990000D02*
X105350000Y-93990000D01*
G75*
G02*
X105550000Y-93790000I200000J0D01*
G01*
X109200000Y-93790000D01*
G75*
G02*
X109400000Y-93990000I0J-200000D01*
G01*
X109400000Y-94990000D01*
G75*
G02*
X109200000Y-95190000I-200000J0D01*
G01*
X105550000Y-95190000D01*
G75*
G02*
X105350000Y-94990000I0J200000D01*
G01*
G37*
G36*
G01*
X141225000Y-115800000D02*
X142475000Y-115800000D01*
G75*
G02*
X142675000Y-116000000I0J-200000D01*
G01*
X142675000Y-117500000D01*
G75*
G02*
X142475000Y-117700000I-200000J0D01*
G01*
X141225000Y-117700000D01*
G75*
G02*
X141025000Y-117500000I0J200000D01*
G01*
X141025000Y-116000000D01*
G75*
G02*
X141225000Y-115800000I200000J0D01*
G01*
G37*
G36*
G01*
X141225000Y-118300000D02*
X142475000Y-118300000D01*
G75*
G02*
X142675000Y-118500000I0J-200000D01*
G01*
X142675000Y-120000000D01*
G75*
G02*
X142475000Y-120200000I-200000J0D01*
G01*
X141225000Y-120200000D01*
G75*
G02*
X141025000Y-120000000I0J200000D01*
G01*
X141025000Y-118500000D01*
G75*
G02*
X141225000Y-118300000I200000J0D01*
G01*
G37*
G36*
G01*
X150897576Y-109413692D02*
X150013692Y-110297576D01*
G75*
G02*
X149730850Y-110297576I-141421J141421D01*
G01*
X148670190Y-109236916D01*
G75*
G02*
X148670190Y-108954074I141421J141421D01*
G01*
X149554074Y-108070190D01*
G75*
G02*
X149836916Y-108070190I141421J-141421D01*
G01*
X150897576Y-109130850D01*
G75*
G02*
X150897576Y-109413692I-141421J-141421D01*
G01*
G37*
G36*
G01*
X149129810Y-107645926D02*
X148245926Y-108529810D01*
G75*
G02*
X147963084Y-108529810I-141421J141421D01*
G01*
X146902424Y-107469150D01*
G75*
G02*
X146902424Y-107186308I141421J141421D01*
G01*
X147786308Y-106302424D01*
G75*
G02*
X148069150Y-106302424I141421J-141421D01*
G01*
X149129810Y-107363084D01*
G75*
G02*
X149129810Y-107645926I-141421J-141421D01*
G01*
G37*
G36*
G01*
X150843503Y-95437472D02*
X149641421Y-96639554D01*
G75*
G02*
X149358579Y-96639554I-141421J141421D01*
G01*
X148156497Y-95437472D01*
G75*
G02*
X148156497Y-95154630I141421J141421D01*
G01*
X149358579Y-93952548D01*
G75*
G02*
X149641421Y-93952548I141421J-141421D01*
G01*
X150843503Y-95154630D01*
G75*
G02*
X150843503Y-95437472I-141421J-141421D01*
G01*
G37*
G36*
G01*
X152038513Y-94242462D02*
X152038513Y-94242462D01*
G75*
G02*
X150553589Y-94242462I-742462J742462D01*
G01*
X150553589Y-94242462D01*
G75*
G02*
X150553589Y-92757538I742462J742462D01*
G01*
X150553589Y-92757538D01*
G75*
G02*
X152038513Y-92757538I742462J-742462D01*
G01*
X152038513Y-92757538D01*
G75*
G02*
X152038513Y-94242462I-742462J-742462D01*
G01*
G37*
G36*
G01*
X153834564Y-92446411D02*
X153834564Y-92446411D01*
G75*
G02*
X152349640Y-92446411I-742462J742462D01*
G01*
X152349640Y-92446411D01*
G75*
G02*
X152349640Y-90961487I742462J742462D01*
G01*
X152349640Y-90961487D01*
G75*
G02*
X153834564Y-90961487I742462J-742462D01*
G01*
X153834564Y-90961487D01*
G75*
G02*
X153834564Y-92446411I-742462J-742462D01*
G01*
G37*
G36*
G01*
X155630616Y-90650359D02*
X155630616Y-90650359D01*
G75*
G02*
X154145692Y-90650359I-742462J742462D01*
G01*
X154145692Y-90650359D01*
G75*
G02*
X154145692Y-89165435I742462J742462D01*
G01*
X154145692Y-89165435D01*
G75*
G02*
X155630616Y-89165435I742462J-742462D01*
G01*
X155630616Y-89165435D01*
G75*
G02*
X155630616Y-90650359I-742462J-742462D01*
G01*
G37*
G36*
G01*
X149358579Y-103747452D02*
X148156497Y-102545370D01*
G75*
G02*
X148156497Y-102262528I141421J141421D01*
G01*
X149358579Y-101060446D01*
G75*
G02*
X149641421Y-101060446I141421J-141421D01*
G01*
X150843503Y-102262528D01*
G75*
G02*
X150843503Y-102545370I-141421J-141421D01*
G01*
X149641421Y-103747452D01*
G75*
G02*
X149358579Y-103747452I-141421J141421D01*
G01*
G37*
G36*
G01*
X150553589Y-104942462D02*
X150553589Y-104942462D01*
G75*
G02*
X150553589Y-103457538I742462J742462D01*
G01*
X150553589Y-103457538D01*
G75*
G02*
X152038513Y-103457538I742462J-742462D01*
G01*
X152038513Y-103457538D01*
G75*
G02*
X152038513Y-104942462I-742462J-742462D01*
G01*
X152038513Y-104942462D01*
G75*
G02*
X150553589Y-104942462I-742462J742462D01*
G01*
G37*
G36*
G01*
X152349640Y-106738513D02*
X152349640Y-106738513D01*
G75*
G02*
X152349640Y-105253589I742462J742462D01*
G01*
X152349640Y-105253589D01*
G75*
G02*
X153834564Y-105253589I742462J-742462D01*
G01*
X153834564Y-105253589D01*
G75*
G02*
X153834564Y-106738513I-742462J-742462D01*
G01*
X153834564Y-106738513D01*
G75*
G02*
X152349640Y-106738513I-742462J742462D01*
G01*
G37*
G36*
G01*
X154145692Y-108534565D02*
X154145692Y-108534565D01*
G75*
G02*
X154145692Y-107049641I742462J742462D01*
G01*
X154145692Y-107049641D01*
G75*
G02*
X155630616Y-107049641I742462J-742462D01*
G01*
X155630616Y-107049641D01*
G75*
G02*
X155630616Y-108534565I-742462J-742462D01*
G01*
X155630616Y-108534565D01*
G75*
G02*
X154145692Y-108534565I-742462J742462D01*
G01*
G37*
G36*
G01*
X149305000Y-112025000D02*
X149905000Y-112025000D01*
G75*
G02*
X150105000Y-112225000I0J-200000D01*
G01*
X150105000Y-113775000D01*
G75*
G02*
X149905000Y-113975000I-200000J0D01*
G01*
X149305000Y-113975000D01*
G75*
G02*
X149105000Y-113775000I0J200000D01*
G01*
X149105000Y-112225000D01*
G75*
G02*
X149305000Y-112025000I200000J0D01*
G01*
G37*
G36*
G01*
X148035000Y-112025000D02*
X148635000Y-112025000D01*
G75*
G02*
X148835000Y-112225000I0J-200000D01*
G01*
X148835000Y-113775000D01*
G75*
G02*
X148635000Y-113975000I-200000J0D01*
G01*
X148035000Y-113975000D01*
G75*
G02*
X147835000Y-113775000I0J200000D01*
G01*
X147835000Y-112225000D01*
G75*
G02*
X148035000Y-112025000I200000J0D01*
G01*
G37*
G36*
G01*
X146765000Y-112025000D02*
X147365000Y-112025000D01*
G75*
G02*
X147565000Y-112225000I0J-200000D01*
G01*
X147565000Y-113775000D01*
G75*
G02*
X147365000Y-113975000I-200000J0D01*
G01*
X146765000Y-113975000D01*
G75*
G02*
X146565000Y-113775000I0J200000D01*
G01*
X146565000Y-112225000D01*
G75*
G02*
X146765000Y-112025000I200000J0D01*
G01*
G37*
G36*
G01*
X145495000Y-112025000D02*
X146095000Y-112025000D01*
G75*
G02*
X146295000Y-112225000I0J-200000D01*
G01*
X146295000Y-113775000D01*
G75*
G02*
X146095000Y-113975000I-200000J0D01*
G01*
X145495000Y-113975000D01*
G75*
G02*
X145295000Y-113775000I0J200000D01*
G01*
X145295000Y-112225000D01*
G75*
G02*
X145495000Y-112025000I200000J0D01*
G01*
G37*
G36*
G01*
X145495000Y-117425000D02*
X146095000Y-117425000D01*
G75*
G02*
X146295000Y-117625000I0J-200000D01*
G01*
X146295000Y-119175000D01*
G75*
G02*
X146095000Y-119375000I-200000J0D01*
G01*
X145495000Y-119375000D01*
G75*
G02*
X145295000Y-119175000I0J200000D01*
G01*
X145295000Y-117625000D01*
G75*
G02*
X145495000Y-117425000I200000J0D01*
G01*
G37*
G36*
G01*
X146765000Y-117425000D02*
X147365000Y-117425000D01*
G75*
G02*
X147565000Y-117625000I0J-200000D01*
G01*
X147565000Y-119175000D01*
G75*
G02*
X147365000Y-119375000I-200000J0D01*
G01*
X146765000Y-119375000D01*
G75*
G02*
X146565000Y-119175000I0J200000D01*
G01*
X146565000Y-117625000D01*
G75*
G02*
X146765000Y-117425000I200000J0D01*
G01*
G37*
G36*
G01*
X148035000Y-117425000D02*
X148635000Y-117425000D01*
G75*
G02*
X148835000Y-117625000I0J-200000D01*
G01*
X148835000Y-119175000D01*
G75*
G02*
X148635000Y-119375000I-200000J0D01*
G01*
X148035000Y-119375000D01*
G75*
G02*
X147835000Y-119175000I0J200000D01*
G01*
X147835000Y-117625000D01*
G75*
G02*
X148035000Y-117425000I200000J0D01*
G01*
G37*
G36*
G01*
X149305000Y-117425000D02*
X149905000Y-117425000D01*
G75*
G02*
X150105000Y-117625000I0J-200000D01*
G01*
X150105000Y-119175000D01*
G75*
G02*
X149905000Y-119375000I-200000J0D01*
G01*
X149305000Y-119375000D01*
G75*
G02*
X149105000Y-119175000I0J200000D01*
G01*
X149105000Y-117625000D01*
G75*
G02*
X149305000Y-117425000I200000J0D01*
G01*
G37*
G36*
G01*
X132450000Y-124125000D02*
X132450000Y-122875000D01*
G75*
G02*
X132650000Y-122675000I200000J0D01*
G01*
X134150000Y-122675000D01*
G75*
G02*
X134350000Y-122875000I0J-200000D01*
G01*
X134350000Y-124125000D01*
G75*
G02*
X134150000Y-124325000I-200000J0D01*
G01*
X132650000Y-124325000D01*
G75*
G02*
X132450000Y-124125000I0J200000D01*
G01*
G37*
G36*
G01*
X134950000Y-124125000D02*
X134950000Y-122875000D01*
G75*
G02*
X135150000Y-122675000I200000J0D01*
G01*
X136650000Y-122675000D01*
G75*
G02*
X136850000Y-122875000I0J-200000D01*
G01*
X136850000Y-124125000D01*
G75*
G02*
X136650000Y-124325000I-200000J0D01*
G01*
X135150000Y-124325000D01*
G75*
G02*
X134950000Y-124125000I0J200000D01*
G01*
G37*
G36*
G01*
X125686308Y-116697576D02*
X124802424Y-115813692D01*
G75*
G02*
X124802424Y-115530850I141421J141421D01*
G01*
X125863084Y-114470190D01*
G75*
G02*
X126145926Y-114470190I141421J-141421D01*
G01*
X127029810Y-115354074D01*
G75*
G02*
X127029810Y-115636916I-141421J-141421D01*
G01*
X125969150Y-116697576D01*
G75*
G02*
X125686308Y-116697576I-141421J141421D01*
G01*
G37*
G36*
G01*
X127454074Y-114929810D02*
X126570190Y-114045926D01*
G75*
G02*
X126570190Y-113763084I141421J141421D01*
G01*
X127630850Y-112702424D01*
G75*
G02*
X127913692Y-112702424I141421J-141421D01*
G01*
X128797576Y-113586308D01*
G75*
G02*
X128797576Y-113869150I-141421J-141421D01*
G01*
X127736916Y-114929810D01*
G75*
G02*
X127454074Y-114929810I-141421J141421D01*
G01*
G37*
G36*
G01*
X127400000Y-78975000D02*
X126050000Y-78975000D01*
G75*
G02*
X125850000Y-78775000I0J200000D01*
G01*
X125850000Y-78125000D01*
G75*
G02*
X126050000Y-77925000I200000J0D01*
G01*
X127400000Y-77925000D01*
G75*
G02*
X127600000Y-78125000I0J-200000D01*
G01*
X127600000Y-78775000D01*
G75*
G02*
X127400000Y-78975000I-200000J0D01*
G01*
G37*
G36*
G01*
X127400000Y-79975000D02*
X126050000Y-79975000D01*
G75*
G02*
X125850000Y-79775000I0J200000D01*
G01*
X125850000Y-79125000D01*
G75*
G02*
X126050000Y-78925000I200000J0D01*
G01*
X127400000Y-78925000D01*
G75*
G02*
X127600000Y-79125000I0J-200000D01*
G01*
X127600000Y-79775000D01*
G75*
G02*
X127400000Y-79975000I-200000J0D01*
G01*
G37*
G36*
G01*
X127400000Y-80975000D02*
X126050000Y-80975000D01*
G75*
G02*
X125850000Y-80775000I0J200000D01*
G01*
X125850000Y-80125000D01*
G75*
G02*
X126050000Y-79925000I200000J0D01*
G01*
X127400000Y-79925000D01*
G75*
G02*
X127600000Y-80125000I0J-200000D01*
G01*
X127600000Y-80775000D01*
G75*
G02*
X127400000Y-80975000I-200000J0D01*
G01*
G37*
G36*
G01*
X127400000Y-81975000D02*
X126050000Y-81975000D01*
G75*
G02*
X125850000Y-81775000I0J200000D01*
G01*
X125850000Y-81125000D01*
G75*
G02*
X126050000Y-80925000I200000J0D01*
G01*
X127400000Y-80925000D01*
G75*
G02*
X127600000Y-81125000I0J-200000D01*
G01*
X127600000Y-81775000D01*
G75*
G02*
X127400000Y-81975000I-200000J0D01*
G01*
G37*
G36*
G01*
X127400000Y-77975000D02*
X126050000Y-77975000D01*
G75*
G02*
X125850000Y-77775000I0J200000D01*
G01*
X125850000Y-77125000D01*
G75*
G02*
X126050000Y-76925000I200000J0D01*
G01*
X127400000Y-76925000D01*
G75*
G02*
X127600000Y-77125000I0J-200000D01*
G01*
X127600000Y-77775000D01*
G75*
G02*
X127400000Y-77975000I-200000J0D01*
G01*
G37*
G36*
G01*
X127400000Y-76975000D02*
X126050000Y-76975000D01*
G75*
G02*
X125850000Y-76775000I0J200000D01*
G01*
X125850000Y-76125000D01*
G75*
G02*
X126050000Y-75925000I200000J0D01*
G01*
X127400000Y-75925000D01*
G75*
G02*
X127600000Y-76125000I0J-200000D01*
G01*
X127600000Y-76775000D01*
G75*
G02*
X127400000Y-76975000I-200000J0D01*
G01*
G37*
G36*
G01*
X137350000Y-76975000D02*
X136000000Y-76975000D01*
G75*
G02*
X135800000Y-76775000I0J200000D01*
G01*
X135800000Y-76125000D01*
G75*
G02*
X136000000Y-75925000I200000J0D01*
G01*
X137350000Y-75925000D01*
G75*
G02*
X137550000Y-76125000I0J-200000D01*
G01*
X137550000Y-76775000D01*
G75*
G02*
X137350000Y-76975000I-200000J0D01*
G01*
G37*
G36*
G01*
X137350000Y-77975000D02*
X136000000Y-77975000D01*
G75*
G02*
X135800000Y-77775000I0J200000D01*
G01*
X135800000Y-77125000D01*
G75*
G02*
X136000000Y-76925000I200000J0D01*
G01*
X137350000Y-76925000D01*
G75*
G02*
X137550000Y-77125000I0J-200000D01*
G01*
X137550000Y-77775000D01*
G75*
G02*
X137350000Y-77975000I-200000J0D01*
G01*
G37*
G36*
G01*
X137350000Y-78975000D02*
X136000000Y-78975000D01*
G75*
G02*
X135800000Y-78775000I0J200000D01*
G01*
X135800000Y-78125000D01*
G75*
G02*
X136000000Y-77925000I200000J0D01*
G01*
X137350000Y-77925000D01*
G75*
G02*
X137550000Y-78125000I0J-200000D01*
G01*
X137550000Y-78775000D01*
G75*
G02*
X137350000Y-78975000I-200000J0D01*
G01*
G37*
G36*
G01*
X137350000Y-79975000D02*
X136000000Y-79975000D01*
G75*
G02*
X135800000Y-79775000I0J200000D01*
G01*
X135800000Y-79125000D01*
G75*
G02*
X136000000Y-78925000I200000J0D01*
G01*
X137350000Y-78925000D01*
G75*
G02*
X137550000Y-79125000I0J-200000D01*
G01*
X137550000Y-79775000D01*
G75*
G02*
X137350000Y-79975000I-200000J0D01*
G01*
G37*
G36*
G01*
X137350000Y-80975000D02*
X136000000Y-80975000D01*
G75*
G02*
X135800000Y-80775000I0J200000D01*
G01*
X135800000Y-80125000D01*
G75*
G02*
X136000000Y-79925000I200000J0D01*
G01*
X137350000Y-79925000D01*
G75*
G02*
X137550000Y-80125000I0J-200000D01*
G01*
X137550000Y-80775000D01*
G75*
G02*
X137350000Y-80975000I-200000J0D01*
G01*
G37*
G36*
G01*
X137350000Y-81975000D02*
X136000000Y-81975000D01*
G75*
G02*
X135800000Y-81775000I0J200000D01*
G01*
X135800000Y-81125000D01*
G75*
G02*
X136000000Y-80925000I200000J0D01*
G01*
X137350000Y-80925000D01*
G75*
G02*
X137550000Y-81125000I0J-200000D01*
G01*
X137550000Y-81775000D01*
G75*
G02*
X137350000Y-81975000I-200000J0D01*
G01*
G37*
G36*
G01*
X133900000Y-81700000D02*
X129500000Y-81700000D01*
G75*
G02*
X129300000Y-81500000I0J200000D01*
G01*
X129300000Y-76400000D01*
G75*
G02*
X129500000Y-76200000I200000J0D01*
G01*
X133900000Y-76200000D01*
G75*
G02*
X134100000Y-76400000I0J-200000D01*
G01*
X134100000Y-81500000D01*
G75*
G02*
X133900000Y-81700000I-200000J0D01*
G01*
G37*
G36*
G01*
X132600000Y-76600000D02*
X130800000Y-76600000D01*
G75*
G02*
X130600000Y-76400000I0J200000D01*
G01*
X130600000Y-74400000D01*
G75*
G02*
X130800000Y-74200000I200000J0D01*
G01*
X132600000Y-74200000D01*
G75*
G02*
X132800000Y-74400000I0J-200000D01*
G01*
X132800000Y-76400000D01*
G75*
G02*
X132600000Y-76600000I-200000J0D01*
G01*
G37*
G36*
G01*
X132600000Y-83700000D02*
X130800000Y-83700000D01*
G75*
G02*
X130600000Y-83500000I0J200000D01*
G01*
X130600000Y-81500000D01*
G75*
G02*
X130800000Y-81300000I200000J0D01*
G01*
X132600000Y-81300000D01*
G75*
G02*
X132800000Y-81500000I0J-200000D01*
G01*
X132800000Y-83500000D01*
G75*
G02*
X132600000Y-83700000I-200000J0D01*
G01*
G37*
G36*
G01*
X145243503Y-87341421D02*
X144041421Y-88543503D01*
G75*
G02*
X143758579Y-88543503I-141421J141421D01*
G01*
X142556497Y-87341421D01*
G75*
G02*
X142556497Y-87058579I141421J141421D01*
G01*
X143758579Y-85856497D01*
G75*
G02*
X144041421Y-85856497I141421J-141421D01*
G01*
X145243503Y-87058579D01*
G75*
G02*
X145243503Y-87341421I-141421J-141421D01*
G01*
G37*
G36*
G01*
X146438513Y-86146411D02*
X146438513Y-86146411D01*
G75*
G02*
X144953589Y-86146411I-742462J742462D01*
G01*
X144953589Y-86146411D01*
G75*
G02*
X144953589Y-84661487I742462J742462D01*
G01*
X144953589Y-84661487D01*
G75*
G02*
X146438513Y-84661487I742462J-742462D01*
G01*
X146438513Y-84661487D01*
G75*
G02*
X146438513Y-86146411I-742462J-742462D01*
G01*
G37*
G36*
G01*
X150443503Y-82141421D02*
X149241421Y-83343503D01*
G75*
G02*
X148958579Y-83343503I-141421J141421D01*
G01*
X147756497Y-82141421D01*
G75*
G02*
X147756497Y-81858579I141421J141421D01*
G01*
X148958579Y-80656497D01*
G75*
G02*
X149241421Y-80656497I141421J-141421D01*
G01*
X150443503Y-81858579D01*
G75*
G02*
X150443503Y-82141421I-141421J-141421D01*
G01*
G37*
G36*
G01*
X151638513Y-80946411D02*
X151638513Y-80946411D01*
G75*
G02*
X150153589Y-80946411I-742462J742462D01*
G01*
X150153589Y-80946411D01*
G75*
G02*
X150153589Y-79461487I742462J742462D01*
G01*
X150153589Y-79461487D01*
G75*
G02*
X151638513Y-79461487I742462J-742462D01*
G01*
X151638513Y-79461487D01*
G75*
G02*
X151638513Y-80946411I-742462J-742462D01*
G01*
G37*
G36*
G01*
X118545926Y-109670190D02*
X119429810Y-110554074D01*
G75*
G02*
X119429810Y-110836916I-141421J-141421D01*
G01*
X118369150Y-111897576D01*
G75*
G02*
X118086308Y-111897576I-141421J141421D01*
G01*
X117202424Y-111013692D01*
G75*
G02*
X117202424Y-110730850I141421J141421D01*
G01*
X118263084Y-109670190D01*
G75*
G02*
X118545926Y-109670190I141421J-141421D01*
G01*
G37*
G36*
G01*
X120313692Y-107902424D02*
X121197576Y-108786308D01*
G75*
G02*
X121197576Y-109069150I-141421J-141421D01*
G01*
X120136916Y-110129810D01*
G75*
G02*
X119854074Y-110129810I-141421J141421D01*
G01*
X118970190Y-109245926D01*
G75*
G02*
X118970190Y-108963084I141421J141421D01*
G01*
X120030850Y-107902424D01*
G75*
G02*
X120313692Y-107902424I141421J-141421D01*
G01*
G37*
G36*
G01*
X120686308Y-114297576D02*
X119802424Y-113413692D01*
G75*
G02*
X119802424Y-113130850I141421J141421D01*
G01*
X120863084Y-112070190D01*
G75*
G02*
X121145926Y-112070190I141421J-141421D01*
G01*
X122029810Y-112954074D01*
G75*
G02*
X122029810Y-113236916I-141421J-141421D01*
G01*
X120969150Y-114297576D01*
G75*
G02*
X120686308Y-114297576I-141421J141421D01*
G01*
G37*
G36*
G01*
X122454074Y-112529810D02*
X121570190Y-111645926D01*
G75*
G02*
X121570190Y-111363084I141421J141421D01*
G01*
X122630850Y-110302424D01*
G75*
G02*
X122913692Y-110302424I141421J-141421D01*
G01*
X123797576Y-111186308D01*
G75*
G02*
X123797576Y-111469150I-141421J-141421D01*
G01*
X122736916Y-112529810D01*
G75*
G02*
X122454074Y-112529810I-141421J141421D01*
G01*
G37*
M02*
