%TF.GenerationSoftware,KiCad,Pcbnew,(5.1.9)-1*%
%TF.CreationDate,2021-08-01T23:03:51+02:00*%
%TF.ProjectId,Wheel_ECU,57686565-6c5f-4454-9355-2e6b69636164,1.0*%
%TF.SameCoordinates,Original*%
%TF.FileFunction,Paste,Top*%
%TF.FilePolarity,Positive*%
%FSLAX46Y46*%
G04 Gerber Fmt 4.6, Leading zero omitted, Abs format (unit mm)*
G04 Created by KiCad (PCBNEW (5.1.9)-1) date 2021-08-01 23:03:51*
%MOMM*%
%LPD*%
G01*
G04 APERTURE LIST*
%ADD10R,3.650000X1.000000*%
%ADD11R,1.250000X1.500000*%
%ADD12C,0.100000*%
%ADD13R,0.600000X1.550000*%
%ADD14R,1.500000X1.250000*%
%ADD15R,1.350000X0.650000*%
%ADD16R,1.800000X2.000000*%
G04 APERTURE END LIST*
D10*
X113425000Y-102110000D03*
X107375000Y-102110000D03*
X113425000Y-99570000D03*
X107375000Y-99570000D03*
X113425000Y-97030000D03*
X107375000Y-97030000D03*
X113425000Y-94490000D03*
X107375000Y-94490000D03*
D11*
X141850000Y-116750000D03*
X141850000Y-119250000D03*
D12*
G36*
X150756155Y-109272271D02*
G01*
X149872271Y-110156155D01*
X148811611Y-109095495D01*
X149695495Y-108211611D01*
X150756155Y-109272271D01*
G37*
G36*
X148988389Y-107504505D02*
G01*
X148104505Y-108388389D01*
X147043845Y-107327729D01*
X147927729Y-106443845D01*
X148988389Y-107504505D01*
G37*
D13*
X149605000Y-113000000D03*
X148335000Y-113000000D03*
X147065000Y-113000000D03*
X145795000Y-113000000D03*
X145795000Y-118400000D03*
X147065000Y-118400000D03*
X148335000Y-118400000D03*
X149605000Y-118400000D03*
D14*
X133400000Y-123500000D03*
X135900000Y-123500000D03*
D12*
G36*
X125827729Y-116556155D02*
G01*
X124943845Y-115672271D01*
X126004505Y-114611611D01*
X126888389Y-115495495D01*
X125827729Y-116556155D01*
G37*
G36*
X127595495Y-114788389D02*
G01*
X126711611Y-113904505D01*
X127772271Y-112843845D01*
X128656155Y-113727729D01*
X127595495Y-114788389D01*
G37*
D15*
X126725000Y-78450000D03*
X126725000Y-79450000D03*
X126725000Y-80450000D03*
X126725000Y-81450000D03*
X126725000Y-77450000D03*
X126725000Y-76450000D03*
X136675000Y-76450000D03*
X136675000Y-77450000D03*
X136675000Y-78450000D03*
X136675000Y-79450000D03*
X136675000Y-80450000D03*
X136675000Y-81450000D03*
D16*
X131700000Y-75400000D03*
X131700000Y-82500000D03*
D12*
G36*
X118404505Y-109811611D02*
G01*
X119288389Y-110695495D01*
X118227729Y-111756155D01*
X117343845Y-110872271D01*
X118404505Y-109811611D01*
G37*
G36*
X120172271Y-108043845D02*
G01*
X121056155Y-108927729D01*
X119995495Y-109988389D01*
X119111611Y-109104505D01*
X120172271Y-108043845D01*
G37*
G36*
X120827729Y-114156155D02*
G01*
X119943845Y-113272271D01*
X121004505Y-112211611D01*
X121888389Y-113095495D01*
X120827729Y-114156155D01*
G37*
G36*
X122595495Y-112388389D02*
G01*
X121711611Y-111504505D01*
X122772271Y-110443845D01*
X123656155Y-111327729D01*
X122595495Y-112388389D01*
G37*
M02*
