%FSLAX45Y45*%
G04 Gerber Fmt 4.5, Leading zero omitted, Abs format (unit mm)*
G04 Created by KiCad (PCBNEW (5.1.2)-1) date 2019-06-19 00:35:10*
%MOMM*%
%LPD*%
G04 APERTURE LIST*
%ADD10C,0.150000*%
%ADD11C,0.200000*%
%ADD12C,0.300000*%
G04 APERTURE END LIST*
D10*
X16230016Y-9840000D02*
G75*
G03X16230016Y-9840000I-3050016J0D01*
G01*
D11*
X13850000Y-10510000D02*
X14170000Y-10830000D01*
X14170000Y-10510000D02*
X13850000Y-10830000D01*
X14347643Y-10795512D02*
X13884488Y-10332357D01*
X14135511Y-11007644D02*
X13672356Y-10544489D01*
X13884488Y-10332357D02*
G75*
G03X13672356Y-10544489I-106066J-106066D01*
G01*
X14135511Y-11007644D02*
G75*
G03X14347643Y-10795512I106066J106066D01*
G01*
X13850000Y-8850000D02*
X14170000Y-9170000D01*
X14170000Y-8850000D02*
X13850000Y-9170000D01*
X13884488Y-9347644D02*
X14347643Y-8884489D01*
X13672356Y-9135512D02*
X14135511Y-8672357D01*
X14347643Y-8884489D02*
G75*
G03X14135511Y-8672357I-106066J106066D01*
G01*
X13672356Y-9135512D02*
G75*
G03X13884488Y-9347644I106066J-106066D01*
G01*
X12190000Y-8850000D02*
X12510000Y-9170000D01*
X12510000Y-8850000D02*
X12190000Y-9170000D01*
X12687643Y-9135512D02*
X12224488Y-8672357D01*
X12475511Y-9347644D02*
X12012356Y-8884489D01*
X12224488Y-8672357D02*
G75*
G03X12012356Y-8884489I-106066J-106066D01*
G01*
X12475511Y-9347644D02*
G75*
G03X12687643Y-9135512I106066J106066D01*
G01*
X12190000Y-10510000D02*
X12510000Y-10830000D01*
X12510000Y-10510000D02*
X12190000Y-10830000D01*
X12224488Y-11007644D02*
X12687643Y-10544489D01*
X12012356Y-10795512D02*
X12475511Y-10332357D01*
X12687643Y-10544489D02*
G75*
G03X12475511Y-10332357I-106066J106066D01*
G01*
X12012356Y-10795512D02*
G75*
G03X12224488Y-11007644I106066J-106066D01*
G01*
X13605000Y-9840000D02*
G75*
G03X13605000Y-9840000I-425000J0D01*
G01*
D12*
X10408912Y-13363231D02*
X10408912Y-13063231D01*
X10480341Y-13063231D01*
X10523198Y-13077516D01*
X10551769Y-13106088D01*
X10566055Y-13134659D01*
X10580341Y-13191802D01*
X10580341Y-13234659D01*
X10566055Y-13291802D01*
X10551769Y-13320374D01*
X10523198Y-13348945D01*
X10480341Y-13363231D01*
X10408912Y-13363231D01*
X10708912Y-13363231D02*
X10708912Y-13163231D01*
X10708912Y-13220374D02*
X10723198Y-13191802D01*
X10737484Y-13177516D01*
X10766055Y-13163231D01*
X10794626Y-13163231D01*
X10894626Y-13363231D02*
X10894626Y-13163231D01*
X10894626Y-13063231D02*
X10880341Y-13077516D01*
X10894626Y-13091802D01*
X10908912Y-13077516D01*
X10894626Y-13063231D01*
X10894626Y-13091802D01*
X11080341Y-13363231D02*
X11051769Y-13348945D01*
X11037484Y-13320374D01*
X11037484Y-13063231D01*
X11237483Y-13363231D02*
X11208912Y-13348945D01*
X11194626Y-13320374D01*
X11194626Y-13063231D01*
X11580341Y-13363231D02*
X11580341Y-13063231D01*
X11680341Y-13277516D01*
X11780341Y-13063231D01*
X11780341Y-13363231D01*
X12051769Y-13363231D02*
X12051769Y-13206088D01*
X12037483Y-13177516D01*
X12008912Y-13163231D01*
X11951769Y-13163231D01*
X11923198Y-13177516D01*
X12051769Y-13348945D02*
X12023198Y-13363231D01*
X11951769Y-13363231D01*
X11923198Y-13348945D01*
X11908912Y-13320374D01*
X11908912Y-13291802D01*
X11923198Y-13263231D01*
X11951769Y-13248945D01*
X12023198Y-13248945D01*
X12051769Y-13234659D01*
X12194626Y-13163231D02*
X12194626Y-13463231D01*
X12194626Y-13177516D02*
X12223198Y-13163231D01*
X12280341Y-13163231D01*
X12308912Y-13177516D01*
X12323198Y-13191802D01*
X12337483Y-13220374D01*
X12337483Y-13306088D01*
X12323198Y-13334659D01*
X12308912Y-13348945D01*
X12280341Y-13363231D01*
X12223198Y-13363231D01*
X12194626Y-13348945D01*
X12466055Y-13334659D02*
X12480341Y-13348945D01*
X12466055Y-13363231D01*
X12451769Y-13348945D01*
X12466055Y-13334659D01*
X12466055Y-13363231D01*
X12466055Y-13177516D02*
X12480341Y-13191802D01*
X12466055Y-13206088D01*
X12451769Y-13191802D01*
X12466055Y-13177516D01*
X12466055Y-13206088D01*
X9802484Y-13697516D02*
X10122484Y-14017516D01*
X10122484Y-13697516D02*
X9802484Y-14017516D01*
X10380341Y-13693231D02*
X10566055Y-13693231D01*
X10466055Y-13807516D01*
X10508912Y-13807516D01*
X10537484Y-13821802D01*
X10551769Y-13836088D01*
X10566055Y-13864659D01*
X10566055Y-13936088D01*
X10551769Y-13964659D01*
X10537484Y-13978945D01*
X10508912Y-13993231D01*
X10423198Y-13993231D01*
X10394626Y-13978945D01*
X10380341Y-13964659D01*
X10694626Y-13964659D02*
X10708912Y-13978945D01*
X10694626Y-13993231D01*
X10680341Y-13978945D01*
X10694626Y-13964659D01*
X10694626Y-13993231D01*
X10823198Y-13721802D02*
X10837484Y-13707516D01*
X10866055Y-13693231D01*
X10937484Y-13693231D01*
X10966055Y-13707516D01*
X10980341Y-13721802D01*
X10994626Y-13750374D01*
X10994626Y-13778945D01*
X10980341Y-13821802D01*
X10808912Y-13993231D01*
X10994626Y-13993231D01*
X11180341Y-13693231D02*
X11208912Y-13693231D01*
X11237483Y-13707516D01*
X11251769Y-13721802D01*
X11266055Y-13750374D01*
X11280341Y-13807516D01*
X11280341Y-13878945D01*
X11266055Y-13936088D01*
X11251769Y-13964659D01*
X11237483Y-13978945D01*
X11208912Y-13993231D01*
X11180341Y-13993231D01*
X11151769Y-13978945D01*
X11137484Y-13964659D01*
X11123198Y-13936088D01*
X11108912Y-13878945D01*
X11108912Y-13807516D01*
X11123198Y-13750374D01*
X11137484Y-13721802D01*
X11151769Y-13707516D01*
X11180341Y-13693231D01*
X11408912Y-13993231D02*
X11408912Y-13793231D01*
X11408912Y-13821802D02*
X11423198Y-13807516D01*
X11451769Y-13793231D01*
X11494626Y-13793231D01*
X11523198Y-13807516D01*
X11537483Y-13836088D01*
X11537483Y-13993231D01*
X11537483Y-13836088D02*
X11551769Y-13807516D01*
X11580341Y-13793231D01*
X11623198Y-13793231D01*
X11651769Y-13807516D01*
X11666055Y-13836088D01*
X11666055Y-13993231D01*
X11808912Y-13993231D02*
X11808912Y-13793231D01*
X11808912Y-13821802D02*
X11823198Y-13807516D01*
X11851769Y-13793231D01*
X11894626Y-13793231D01*
X11923198Y-13807516D01*
X11937483Y-13836088D01*
X11937483Y-13993231D01*
X11937483Y-13836088D02*
X11951769Y-13807516D01*
X11980341Y-13793231D01*
X12023198Y-13793231D01*
X12051769Y-13807516D01*
X12066055Y-13836088D01*
X12066055Y-13993231D01*
X12651769Y-13678945D02*
X12394626Y-14064659D01*
X13037483Y-13693231D02*
X13066055Y-13693231D01*
X13094626Y-13707516D01*
X13108912Y-13721802D01*
X13123198Y-13750374D01*
X13137483Y-13807516D01*
X13137483Y-13878945D01*
X13123198Y-13936088D01*
X13108912Y-13964659D01*
X13094626Y-13978945D01*
X13066055Y-13993231D01*
X13037483Y-13993231D01*
X13008912Y-13978945D01*
X12994626Y-13964659D01*
X12980341Y-13936088D01*
X12966055Y-13878945D01*
X12966055Y-13807516D01*
X12980341Y-13750374D01*
X12994626Y-13721802D01*
X13008912Y-13707516D01*
X13037483Y-13693231D01*
X13266055Y-13964659D02*
X13280341Y-13978945D01*
X13266055Y-13993231D01*
X13251769Y-13978945D01*
X13266055Y-13964659D01*
X13266055Y-13993231D01*
X13566055Y-13993231D02*
X13394626Y-13993231D01*
X13480341Y-13993231D02*
X13480341Y-13693231D01*
X13451769Y-13736088D01*
X13423198Y-13764659D01*
X13394626Y-13778945D01*
X13680341Y-13721802D02*
X13694626Y-13707516D01*
X13723198Y-13693231D01*
X13794626Y-13693231D01*
X13823198Y-13707516D01*
X13837483Y-13721802D01*
X13851769Y-13750374D01*
X13851769Y-13778945D01*
X13837483Y-13821802D01*
X13666055Y-13993231D01*
X13851769Y-13993231D01*
X14108912Y-13693231D02*
X14051769Y-13693231D01*
X14023198Y-13707516D01*
X14008912Y-13721802D01*
X13980341Y-13764659D01*
X13966055Y-13821802D01*
X13966055Y-13936088D01*
X13980341Y-13964659D01*
X13994626Y-13978945D01*
X14023198Y-13993231D01*
X14080341Y-13993231D01*
X14108912Y-13978945D01*
X14123198Y-13964659D01*
X14137483Y-13936088D01*
X14137483Y-13864659D01*
X14123198Y-13836088D01*
X14108912Y-13821802D01*
X14080341Y-13807516D01*
X14023198Y-13807516D01*
X13994626Y-13821802D01*
X13980341Y-13836088D01*
X13966055Y-13864659D01*
X14251769Y-13693231D02*
X14251769Y-13750374D01*
X14366055Y-13693231D02*
X14366055Y-13750374D01*
X14808912Y-14107516D02*
X14794626Y-14093231D01*
X14766055Y-14050374D01*
X14751769Y-14021802D01*
X14737483Y-13978945D01*
X14723198Y-13907516D01*
X14723198Y-13850374D01*
X14737483Y-13778945D01*
X14751769Y-13736088D01*
X14766055Y-13707516D01*
X14794626Y-13664659D01*
X14808912Y-13650374D01*
X14980341Y-13693231D02*
X15008912Y-13693231D01*
X15037483Y-13707516D01*
X15051769Y-13721802D01*
X15066055Y-13750374D01*
X15080341Y-13807516D01*
X15080341Y-13878945D01*
X15066055Y-13936088D01*
X15051769Y-13964659D01*
X15037483Y-13978945D01*
X15008912Y-13993231D01*
X14980341Y-13993231D01*
X14951769Y-13978945D01*
X14937483Y-13964659D01*
X14923198Y-13936088D01*
X14908912Y-13878945D01*
X14908912Y-13807516D01*
X14923198Y-13750374D01*
X14937483Y-13721802D01*
X14951769Y-13707516D01*
X14980341Y-13693231D01*
X15437483Y-13993231D02*
X15437483Y-13693231D01*
X15566055Y-13993231D02*
X15566055Y-13836088D01*
X15551769Y-13807516D01*
X15523198Y-13793231D01*
X15480341Y-13793231D01*
X15451769Y-13807516D01*
X15437483Y-13821802D01*
X15751769Y-13993231D02*
X15723198Y-13978945D01*
X15708912Y-13964659D01*
X15694626Y-13936088D01*
X15694626Y-13850374D01*
X15708912Y-13821802D01*
X15723198Y-13807516D01*
X15751769Y-13793231D01*
X15794626Y-13793231D01*
X15823198Y-13807516D01*
X15837483Y-13821802D01*
X15851769Y-13850374D01*
X15851769Y-13936088D01*
X15837483Y-13964659D01*
X15823198Y-13978945D01*
X15794626Y-13993231D01*
X15751769Y-13993231D01*
X16023198Y-13993231D02*
X15994626Y-13978945D01*
X15980341Y-13950374D01*
X15980341Y-13693231D01*
X16251769Y-13978945D02*
X16223198Y-13993231D01*
X16166055Y-13993231D01*
X16137483Y-13978945D01*
X16123198Y-13950374D01*
X16123198Y-13836088D01*
X16137483Y-13807516D01*
X16166055Y-13793231D01*
X16223198Y-13793231D01*
X16251769Y-13807516D01*
X16266055Y-13836088D01*
X16266055Y-13864659D01*
X16123198Y-13893231D01*
X16380341Y-13978945D02*
X16408912Y-13993231D01*
X16466055Y-13993231D01*
X16494626Y-13978945D01*
X16508912Y-13950374D01*
X16508912Y-13936088D01*
X16494626Y-13907516D01*
X16466055Y-13893231D01*
X16423198Y-13893231D01*
X16394626Y-13878945D01*
X16380341Y-13850374D01*
X16380341Y-13836088D01*
X16394626Y-13807516D01*
X16423198Y-13793231D01*
X16466055Y-13793231D01*
X16494626Y-13807516D01*
X16866055Y-13878945D02*
X17094626Y-13878945D01*
X16980341Y-13993231D02*
X16980341Y-13764659D01*
X17594626Y-13793231D02*
X17594626Y-13993231D01*
X17523198Y-13678945D02*
X17451769Y-13893231D01*
X17637484Y-13893231D01*
X17966055Y-13978945D02*
X17994626Y-13993231D01*
X18051769Y-13993231D01*
X18080341Y-13978945D01*
X18094626Y-13950374D01*
X18094626Y-13936088D01*
X18080341Y-13907516D01*
X18051769Y-13893231D01*
X18008912Y-13893231D01*
X17980341Y-13878945D01*
X17966055Y-13850374D01*
X17966055Y-13836088D01*
X17980341Y-13807516D01*
X18008912Y-13793231D01*
X18051769Y-13793231D01*
X18080341Y-13807516D01*
X18266055Y-13993231D02*
X18237484Y-13978945D01*
X18223198Y-13950374D01*
X18223198Y-13693231D01*
X18423198Y-13993231D02*
X18394626Y-13978945D01*
X18380341Y-13964659D01*
X18366055Y-13936088D01*
X18366055Y-13850374D01*
X18380341Y-13821802D01*
X18394626Y-13807516D01*
X18423198Y-13793231D01*
X18466055Y-13793231D01*
X18494626Y-13807516D01*
X18508912Y-13821802D01*
X18523198Y-13850374D01*
X18523198Y-13936088D01*
X18508912Y-13964659D01*
X18494626Y-13978945D01*
X18466055Y-13993231D01*
X18423198Y-13993231D01*
X18608912Y-13793231D02*
X18723198Y-13793231D01*
X18651769Y-13693231D02*
X18651769Y-13950374D01*
X18666055Y-13978945D01*
X18694626Y-13993231D01*
X18723198Y-13993231D01*
X18808912Y-13978945D02*
X18837484Y-13993231D01*
X18894626Y-13993231D01*
X18923198Y-13978945D01*
X18937484Y-13950374D01*
X18937484Y-13936088D01*
X18923198Y-13907516D01*
X18894626Y-13893231D01*
X18851769Y-13893231D01*
X18823198Y-13878945D01*
X18808912Y-13850374D01*
X18808912Y-13836088D01*
X18823198Y-13807516D01*
X18851769Y-13793231D01*
X18894626Y-13793231D01*
X18923198Y-13807516D01*
X19037484Y-14107516D02*
X19051769Y-14093231D01*
X19080341Y-14050374D01*
X19094626Y-14021802D01*
X19108912Y-13978945D01*
X19123198Y-13907516D01*
X19123198Y-13850374D01*
X19108912Y-13778945D01*
X19094626Y-13736088D01*
X19080341Y-13707516D01*
X19051769Y-13664659D01*
X19037484Y-13650374D01*
X19580341Y-14107516D02*
X19566055Y-14093231D01*
X19537484Y-14050374D01*
X19523198Y-14021802D01*
X19508912Y-13978945D01*
X19494626Y-13907516D01*
X19494626Y-13850374D01*
X19508912Y-13778945D01*
X19523198Y-13736088D01*
X19537484Y-13707516D01*
X19566055Y-13664659D01*
X19580341Y-13650374D01*
X19694626Y-13793231D02*
X19694626Y-13993231D01*
X19694626Y-13821802D02*
X19708912Y-13807516D01*
X19737484Y-13793231D01*
X19780341Y-13793231D01*
X19808912Y-13807516D01*
X19823198Y-13836088D01*
X19823198Y-13993231D01*
X20008912Y-13993231D02*
X19980341Y-13978945D01*
X19966055Y-13964659D01*
X19951769Y-13936088D01*
X19951769Y-13850374D01*
X19966055Y-13821802D01*
X19980341Y-13807516D01*
X20008912Y-13793231D01*
X20051769Y-13793231D01*
X20080341Y-13807516D01*
X20094626Y-13821802D01*
X20108912Y-13850374D01*
X20108912Y-13936088D01*
X20094626Y-13964659D01*
X20080341Y-13978945D01*
X20051769Y-13993231D01*
X20008912Y-13993231D01*
X20194626Y-13793231D02*
X20308912Y-13793231D01*
X20237484Y-13693231D02*
X20237484Y-13950374D01*
X20251769Y-13978945D01*
X20280341Y-13993231D01*
X20308912Y-13993231D01*
X20637484Y-13793231D02*
X20637484Y-14093231D01*
X20637484Y-13807516D02*
X20666055Y-13793231D01*
X20723198Y-13793231D01*
X20751769Y-13807516D01*
X20766055Y-13821802D01*
X20780341Y-13850374D01*
X20780341Y-13936088D01*
X20766055Y-13964659D01*
X20751769Y-13978945D01*
X20723198Y-13993231D01*
X20666055Y-13993231D01*
X20637484Y-13978945D01*
X20951769Y-13993231D02*
X20923198Y-13978945D01*
X20908912Y-13950374D01*
X20908912Y-13693231D01*
X21194626Y-13993231D02*
X21194626Y-13836088D01*
X21180341Y-13807516D01*
X21151769Y-13793231D01*
X21094626Y-13793231D01*
X21066055Y-13807516D01*
X21194626Y-13978945D02*
X21166055Y-13993231D01*
X21094626Y-13993231D01*
X21066055Y-13978945D01*
X21051769Y-13950374D01*
X21051769Y-13921802D01*
X21066055Y-13893231D01*
X21094626Y-13878945D01*
X21166055Y-13878945D01*
X21194626Y-13864659D01*
X21294626Y-13793231D02*
X21408912Y-13793231D01*
X21337484Y-13693231D02*
X21337484Y-13950374D01*
X21351769Y-13978945D01*
X21380341Y-13993231D01*
X21408912Y-13993231D01*
X21623198Y-13978945D02*
X21594626Y-13993231D01*
X21537484Y-13993231D01*
X21508912Y-13978945D01*
X21494626Y-13950374D01*
X21494626Y-13836088D01*
X21508912Y-13807516D01*
X21537484Y-13793231D01*
X21594626Y-13793231D01*
X21623198Y-13807516D01*
X21637484Y-13836088D01*
X21637484Y-13864659D01*
X21494626Y-13893231D01*
X21894626Y-13993231D02*
X21894626Y-13693231D01*
X21894626Y-13978945D02*
X21866055Y-13993231D01*
X21808912Y-13993231D01*
X21780341Y-13978945D01*
X21766055Y-13964659D01*
X21751769Y-13936088D01*
X21751769Y-13850374D01*
X21766055Y-13821802D01*
X21780341Y-13807516D01*
X21808912Y-13793231D01*
X21866055Y-13793231D01*
X21894626Y-13807516D01*
X22008912Y-14107516D02*
X22023198Y-14093231D01*
X22051769Y-14050374D01*
X22066055Y-14021802D01*
X22080341Y-13978945D01*
X22094626Y-13907516D01*
X22094626Y-13850374D01*
X22080341Y-13778945D01*
X22066055Y-13736088D01*
X22051769Y-13707516D01*
X22023198Y-13664659D01*
X22008912Y-13650374D01*
X10122484Y-14307516D02*
G75*
G03X10122484Y-14307516I-425000J0D01*
G01*
X10451769Y-14271802D02*
X10423198Y-14257516D01*
X10408912Y-14243231D01*
X10394626Y-14214659D01*
X10394626Y-14200374D01*
X10408912Y-14171802D01*
X10423198Y-14157516D01*
X10451769Y-14143231D01*
X10508912Y-14143231D01*
X10537484Y-14157516D01*
X10551769Y-14171802D01*
X10566055Y-14200374D01*
X10566055Y-14214659D01*
X10551769Y-14243231D01*
X10537484Y-14257516D01*
X10508912Y-14271802D01*
X10451769Y-14271802D01*
X10423198Y-14286088D01*
X10408912Y-14300374D01*
X10394626Y-14328945D01*
X10394626Y-14386088D01*
X10408912Y-14414659D01*
X10423198Y-14428945D01*
X10451769Y-14443231D01*
X10508912Y-14443231D01*
X10537484Y-14428945D01*
X10551769Y-14414659D01*
X10566055Y-14386088D01*
X10566055Y-14328945D01*
X10551769Y-14300374D01*
X10537484Y-14286088D01*
X10508912Y-14271802D01*
X10694626Y-14414659D02*
X10708912Y-14428945D01*
X10694626Y-14443231D01*
X10680341Y-14428945D01*
X10694626Y-14414659D01*
X10694626Y-14443231D01*
X10980341Y-14143231D02*
X10837484Y-14143231D01*
X10823198Y-14286088D01*
X10837484Y-14271802D01*
X10866055Y-14257516D01*
X10937484Y-14257516D01*
X10966055Y-14271802D01*
X10980341Y-14286088D01*
X10994626Y-14314659D01*
X10994626Y-14386088D01*
X10980341Y-14414659D01*
X10966055Y-14428945D01*
X10937484Y-14443231D01*
X10866055Y-14443231D01*
X10837484Y-14428945D01*
X10823198Y-14414659D01*
X11180341Y-14143231D02*
X11208912Y-14143231D01*
X11237483Y-14157516D01*
X11251769Y-14171802D01*
X11266055Y-14200374D01*
X11280341Y-14257516D01*
X11280341Y-14328945D01*
X11266055Y-14386088D01*
X11251769Y-14414659D01*
X11237483Y-14428945D01*
X11208912Y-14443231D01*
X11180341Y-14443231D01*
X11151769Y-14428945D01*
X11137484Y-14414659D01*
X11123198Y-14386088D01*
X11108912Y-14328945D01*
X11108912Y-14257516D01*
X11123198Y-14200374D01*
X11137484Y-14171802D01*
X11151769Y-14157516D01*
X11180341Y-14143231D01*
X11408912Y-14443231D02*
X11408912Y-14243231D01*
X11408912Y-14271802D02*
X11423198Y-14257516D01*
X11451769Y-14243231D01*
X11494626Y-14243231D01*
X11523198Y-14257516D01*
X11537483Y-14286088D01*
X11537483Y-14443231D01*
X11537483Y-14286088D02*
X11551769Y-14257516D01*
X11580341Y-14243231D01*
X11623198Y-14243231D01*
X11651769Y-14257516D01*
X11666055Y-14286088D01*
X11666055Y-14443231D01*
X11808912Y-14443231D02*
X11808912Y-14243231D01*
X11808912Y-14271802D02*
X11823198Y-14257516D01*
X11851769Y-14243231D01*
X11894626Y-14243231D01*
X11923198Y-14257516D01*
X11937483Y-14286088D01*
X11937483Y-14443231D01*
X11937483Y-14286088D02*
X11951769Y-14257516D01*
X11980341Y-14243231D01*
X12023198Y-14243231D01*
X12051769Y-14257516D01*
X12066055Y-14286088D01*
X12066055Y-14443231D01*
X12651769Y-14128945D02*
X12394626Y-14514659D01*
X13037483Y-14143231D02*
X13066055Y-14143231D01*
X13094626Y-14157516D01*
X13108912Y-14171802D01*
X13123198Y-14200374D01*
X13137483Y-14257516D01*
X13137483Y-14328945D01*
X13123198Y-14386088D01*
X13108912Y-14414659D01*
X13094626Y-14428945D01*
X13066055Y-14443231D01*
X13037483Y-14443231D01*
X13008912Y-14428945D01*
X12994626Y-14414659D01*
X12980341Y-14386088D01*
X12966055Y-14328945D01*
X12966055Y-14257516D01*
X12980341Y-14200374D01*
X12994626Y-14171802D01*
X13008912Y-14157516D01*
X13037483Y-14143231D01*
X13266055Y-14414659D02*
X13280341Y-14428945D01*
X13266055Y-14443231D01*
X13251769Y-14428945D01*
X13266055Y-14414659D01*
X13266055Y-14443231D01*
X13380341Y-14143231D02*
X13566055Y-14143231D01*
X13466055Y-14257516D01*
X13508912Y-14257516D01*
X13537483Y-14271802D01*
X13551769Y-14286088D01*
X13566055Y-14314659D01*
X13566055Y-14386088D01*
X13551769Y-14414659D01*
X13537483Y-14428945D01*
X13508912Y-14443231D01*
X13423198Y-14443231D01*
X13394626Y-14428945D01*
X13380341Y-14414659D01*
X13666055Y-14143231D02*
X13851769Y-14143231D01*
X13751769Y-14257516D01*
X13794626Y-14257516D01*
X13823198Y-14271802D01*
X13837483Y-14286088D01*
X13851769Y-14314659D01*
X13851769Y-14386088D01*
X13837483Y-14414659D01*
X13823198Y-14428945D01*
X13794626Y-14443231D01*
X13708912Y-14443231D01*
X13680341Y-14428945D01*
X13666055Y-14414659D01*
X14123198Y-14143231D02*
X13980341Y-14143231D01*
X13966055Y-14286088D01*
X13980341Y-14271802D01*
X14008912Y-14257516D01*
X14080341Y-14257516D01*
X14108912Y-14271802D01*
X14123198Y-14286088D01*
X14137483Y-14314659D01*
X14137483Y-14386088D01*
X14123198Y-14414659D01*
X14108912Y-14428945D01*
X14080341Y-14443231D01*
X14008912Y-14443231D01*
X13980341Y-14428945D01*
X13966055Y-14414659D01*
X14251769Y-14143231D02*
X14251769Y-14200374D01*
X14366055Y-14143231D02*
X14366055Y-14200374D01*
X14808912Y-14557516D02*
X14794626Y-14543231D01*
X14766055Y-14500374D01*
X14751769Y-14471802D01*
X14737483Y-14428945D01*
X14723198Y-14357516D01*
X14723198Y-14300374D01*
X14737483Y-14228945D01*
X14751769Y-14186088D01*
X14766055Y-14157516D01*
X14794626Y-14114659D01*
X14808912Y-14100374D01*
X15080341Y-14443231D02*
X14908912Y-14443231D01*
X14994626Y-14443231D02*
X14994626Y-14143231D01*
X14966055Y-14186088D01*
X14937483Y-14214659D01*
X14908912Y-14228945D01*
X15437483Y-14443231D02*
X15437483Y-14143231D01*
X15566055Y-14443231D02*
X15566055Y-14286088D01*
X15551769Y-14257516D01*
X15523198Y-14243231D01*
X15480341Y-14243231D01*
X15451769Y-14257516D01*
X15437483Y-14271802D01*
X15751769Y-14443231D02*
X15723198Y-14428945D01*
X15708912Y-14414659D01*
X15694626Y-14386088D01*
X15694626Y-14300374D01*
X15708912Y-14271802D01*
X15723198Y-14257516D01*
X15751769Y-14243231D01*
X15794626Y-14243231D01*
X15823198Y-14257516D01*
X15837483Y-14271802D01*
X15851769Y-14300374D01*
X15851769Y-14386088D01*
X15837483Y-14414659D01*
X15823198Y-14428945D01*
X15794626Y-14443231D01*
X15751769Y-14443231D01*
X16023198Y-14443231D02*
X15994626Y-14428945D01*
X15980341Y-14400374D01*
X15980341Y-14143231D01*
X16251769Y-14428945D02*
X16223198Y-14443231D01*
X16166055Y-14443231D01*
X16137483Y-14428945D01*
X16123198Y-14400374D01*
X16123198Y-14286088D01*
X16137483Y-14257516D01*
X16166055Y-14243231D01*
X16223198Y-14243231D01*
X16251769Y-14257516D01*
X16266055Y-14286088D01*
X16266055Y-14314659D01*
X16123198Y-14343231D01*
X16366055Y-14557516D02*
X16380341Y-14543231D01*
X16408912Y-14500374D01*
X16423198Y-14471802D01*
X16437483Y-14428945D01*
X16451769Y-14357516D01*
X16451769Y-14300374D01*
X16437483Y-14228945D01*
X16423198Y-14186088D01*
X16408912Y-14157516D01*
X16380341Y-14114659D01*
X16366055Y-14100374D01*
X16908912Y-14557516D02*
X16894626Y-14543231D01*
X16866055Y-14500374D01*
X16851769Y-14471802D01*
X16837484Y-14428945D01*
X16823198Y-14357516D01*
X16823198Y-14300374D01*
X16837484Y-14228945D01*
X16851769Y-14186088D01*
X16866055Y-14157516D01*
X16894626Y-14114659D01*
X16908912Y-14100374D01*
X17023198Y-14243231D02*
X17023198Y-14443231D01*
X17023198Y-14271802D02*
X17037484Y-14257516D01*
X17066055Y-14243231D01*
X17108912Y-14243231D01*
X17137484Y-14257516D01*
X17151769Y-14286088D01*
X17151769Y-14443231D01*
X17337484Y-14443231D02*
X17308912Y-14428945D01*
X17294626Y-14414659D01*
X17280341Y-14386088D01*
X17280341Y-14300374D01*
X17294626Y-14271802D01*
X17308912Y-14257516D01*
X17337484Y-14243231D01*
X17380341Y-14243231D01*
X17408912Y-14257516D01*
X17423198Y-14271802D01*
X17437484Y-14300374D01*
X17437484Y-14386088D01*
X17423198Y-14414659D01*
X17408912Y-14428945D01*
X17380341Y-14443231D01*
X17337484Y-14443231D01*
X17523198Y-14243231D02*
X17637484Y-14243231D01*
X17566055Y-14143231D02*
X17566055Y-14400374D01*
X17580341Y-14428945D01*
X17608912Y-14443231D01*
X17637484Y-14443231D01*
X17966055Y-14243231D02*
X17966055Y-14543231D01*
X17966055Y-14257516D02*
X17994626Y-14243231D01*
X18051769Y-14243231D01*
X18080341Y-14257516D01*
X18094626Y-14271802D01*
X18108912Y-14300374D01*
X18108912Y-14386088D01*
X18094626Y-14414659D01*
X18080341Y-14428945D01*
X18051769Y-14443231D01*
X17994626Y-14443231D01*
X17966055Y-14428945D01*
X18280341Y-14443231D02*
X18251769Y-14428945D01*
X18237484Y-14400374D01*
X18237484Y-14143231D01*
X18523198Y-14443231D02*
X18523198Y-14286088D01*
X18508912Y-14257516D01*
X18480341Y-14243231D01*
X18423198Y-14243231D01*
X18394626Y-14257516D01*
X18523198Y-14428945D02*
X18494626Y-14443231D01*
X18423198Y-14443231D01*
X18394626Y-14428945D01*
X18380341Y-14400374D01*
X18380341Y-14371802D01*
X18394626Y-14343231D01*
X18423198Y-14328945D01*
X18494626Y-14328945D01*
X18523198Y-14314659D01*
X18623198Y-14243231D02*
X18737484Y-14243231D01*
X18666055Y-14143231D02*
X18666055Y-14400374D01*
X18680341Y-14428945D01*
X18708912Y-14443231D01*
X18737484Y-14443231D01*
X18951769Y-14428945D02*
X18923198Y-14443231D01*
X18866055Y-14443231D01*
X18837484Y-14428945D01*
X18823198Y-14400374D01*
X18823198Y-14286088D01*
X18837484Y-14257516D01*
X18866055Y-14243231D01*
X18923198Y-14243231D01*
X18951769Y-14257516D01*
X18966055Y-14286088D01*
X18966055Y-14314659D01*
X18823198Y-14343231D01*
X19223198Y-14443231D02*
X19223198Y-14143231D01*
X19223198Y-14428945D02*
X19194626Y-14443231D01*
X19137484Y-14443231D01*
X19108912Y-14428945D01*
X19094626Y-14414659D01*
X19080341Y-14386088D01*
X19080341Y-14300374D01*
X19094626Y-14271802D01*
X19108912Y-14257516D01*
X19137484Y-14243231D01*
X19194626Y-14243231D01*
X19223198Y-14257516D01*
X19337484Y-14557516D02*
X19351769Y-14543231D01*
X19380341Y-14500374D01*
X19394626Y-14471802D01*
X19408912Y-14428945D01*
X19423198Y-14357516D01*
X19423198Y-14300374D01*
X19408912Y-14228945D01*
X19394626Y-14186088D01*
X19380341Y-14157516D01*
X19351769Y-14114659D01*
X19337484Y-14100374D01*
M02*
